# This file is brought to you by Roblox Corporation
# Generated by Roblox Studio

mtllib piggy.mtl

g Pet1

v 0.109936 -1.14419 0.715537 
v 0.504333 -1.14419 0.26012 
v 0.544783 -1.14419 0.672928 
v 0.069486 -1.14419 0.302729 
v -0.53096 -1.14419 0.678965 
v -0.0595523 -1.14419 0.303828 
v -0.0956926 -1.14419 0.717035 
v -0.49482 -1.14419 0.265758 
v -0.500496 -1.14419 0.0886664 
v -0.029088 -1.14419 -0.286471 
v -0.0652283 -1.14419 0.126736 
v -0.464356 -1.14419 -0.324541 
v 0.086592 -1.14419 0.125058 
v 0.473204 -1.14419 -0.336987 
v 0.520654 -1.14419 0.0750751 
v 0.0391418 -1.14419 -0.287003 
v 0.0034621 -0.824775 -0.670762 
v -0.827362 -0.0799256 -0.670762 
v 0.00345985 0.621182 -0.670904 
v -0.853845 0.640067 -0.670867 
v -0.853837 -0.801692 -0.670762 
v 0.83457 -0.0799256 -0.670762 
v 0.860768 -0.801692 -0.670762 
v 0.86076 0.638949 -0.670934 
v 0.0034619 -0.92751 0.65773 
v 0.853267 -0.925012 0.769738 
v 0.00346184 -0.914425 1.04384 
v 0.860767 -0.887185 1.04384 
v -0.853838 -0.887185 1.04384 
v 0.846097 -0.936076 0.507459 
v -0.846008 -0.925548 0.551803 
v 0.00346196 -0.940965 0.288274 
v 0.853537 -0.898533 -0.190252 
v -0.838508 -0.937127 0.0809916 
v 0.00346204 -0.898533 -0.26444 
v 0.860768 -0.801692 -0.670762 
v -0.846608 -0.898533 -0.338628 
v 0.0034621 -0.824775 -0.670762 
v -0.853837 -0.801692 -0.670762 
v 0.853267 -0.925012 0.769738 
v 0.88698 -0.101541 1.04384 
v 0.860767 -0.887185 1.04384 
v 0.846097 -0.150433 0.507459 
v 0.846097 -0.936076 0.507459 
v 0.853537 -0.898533 -0.190252 
v 0.846765 0.602814 0.505544 
v 0.86037 0.671282 1.04575 
v 0.83457 -0.0799256 -0.670762 
v 0.860768 -0.801692 -0.670762 
v 0.86076 0.638949 -0.670934 
v -0.88698 -0.101541 1.04384 
v -0.846008 -0.925548 0.551803 
v -0.853838 -0.887185 1.04384 
v -0.838508 -0.151558 0.0809834 
v -0.838508 -0.937127 0.0809916 
v -0.846608 -0.898533 -0.338628 
v -0.838778 0.595082 0.0818864 
v -0.85293 0.713529 1.03946 
v -0.827362 -0.0799256 -0.670762 
v -0.853837 -0.801692 -0.670762 
v -0.853845 0.640067 -0.670867 
v 0.843952 0.643722 1.0263 
v 0.758538 0.797513 0.899612 
v 0.852334 0.72873 1.03687 
v 0.705064 0.616897 0.746669 
v 0.813718 0.85774 1.02265 
v 0.840378 0.809383 1.07997 
v 0.496679 0.800298 0.898474 
v 0.462162 0.627911 0.746267 
v 0.527419 0.832251 1.0212 
v 0.814047 0.854649 1.12749 
v 0.760275 0.618462 1.16441 
v 0.218812 0.823315 0.897311 
v 0.210075 0.639342 0.745851 
v 0.0747088 0.680525 1.02422 
v 0.13249 0.761322 1.03434 
v 0.230296 0.886894 1.0197 
v 0.19757 0.831496 1.0829 
v 0.230646 0.880122 1.1243 
v 0.278278 0.633581 1.17548 
v 0.527755 0.827354 1.13132 
v 0.369141 0.593249 1.22444 
v 0.510533 0.389278 1.28562 
v 0.518419 0.574948 1.23936 
v 0.670482 0.585869 1.22331 
v -0.839906 0.643722 1.02264 
v -0.754492 0.797513 0.895953 
v -0.701017 0.616897 0.74301 
v -0.848289 0.72873 1.03321 
v -0.492633 0.800298 0.894815 
v -0.458115 0.627911 0.742609 
v -0.809671 0.85774 1.01899 
v -0.836331 0.809383 1.07631 
v -0.523374 0.832251 1.01754 
v -0.810001 0.854649 1.12383 
v -0.744329 0.618462 1.16076 
v -0.214766 0.823315 0.893653 
v -0.206028 0.639342 0.742192 
v -0.0706622 0.680525 1.02056 
v -0.128444 0.761322 1.03068 
v -0.22625 0.886894 1.01604 
v -0.193524 0.831496 1.07924 
v -0.2266 0.880122 1.12064 
v -0.286133 0.633581 1.17182 
v -0.523709 0.827354 1.12766 
v -0.372509 0.593249 1.22078 
v -0.506487 0.389278 1.28196 
v -0.514415 0.574948 1.2357 
v -0.658968 0.585869 1.21965 
v -0.214761 0.689307 -1.09619 
v -0.294706 0.63765 -1.06157 
v -0.258592 0.714527 -1.04069 
v -0.310483 0.617691 -1.11297 
v -0.24988 0.658906 -1.21139 
v -0.204054 0.693754 -1.19712 
v -0.183176 0.769399 -1.28562 
v -0.115294 0.743671 -1.07993 
v -0.144445 0.619941 -1.06022 
v -0.214761 0.689307 -1.09619 
v -0.00258284 0.699568 -1.03238 
v -0.0318111 0.423536 -0.930761 
v 0.151088 0.52913 -0.924797 
v 0.130157 0.310074 -0.658837 
v -0.133798 0.309029 -0.659231 
v -0.433132 -0.996627 -0.289237 
v -0.0740092 -0.830823 -0.250724 
v -0.0659662 -0.996627 -0.257123 
v -0.426322 -0.830823 -0.281537 
v 0.442958 -0.996627 -0.300841 
v 0.0768105 -0.996627 -0.258678 
v 0.085026 -0.830823 -0.2525 
v 0.436363 -0.830823 -0.292957 
v 0.150464 -0.568314 1.05562 
v 0.446778 -0.705196 1.05562 
v 0.383482 -0.50583 1.05562 
v 0.177361 -0.877696 1.05562 
v -0.00182116 -0.706483 1.05562 
v -0.00151066 -0.755311 1.05562 
v -0.00129241 -0.789083 1.05562 
v 0.0892153 -0.950153 1.05562 
v 0.246716 -1.14156 1.05562 
v 0.42457 -1.02833 1.05562 
v 0.417475 -0.911667 1.05562 
v 0.522393 -0.869661 1.05562 
v 0.430261 -0.834978 1.05562 
v 0.177361 -0.877696 1.05562 
v 0.430261 -0.834978 1.05562 
v 0.446778 -0.705196 1.05562 
v 0.417475 -0.911667 1.05562 
v -0.154544 -0.568314 1.05562 
v -0.387563 -0.50583 1.05562 
v -0.450858 -0.705196 1.05562 
v -0.181441 -0.877696 1.05562 
v -0.00182116 -0.706483 1.05562 
v -0.00151066 -0.755311 1.05562 
v -0.00151066 -0.755311 1.05562 
v -0.00129241 -0.789083 1.05562 
v -0.0932957 -0.950153 1.05562 
v -0.250796 -1.14156 1.05562 
v -0.42865 -1.02833 1.05562 
v -0.421555 -0.911667 1.05562 
v -0.181441 -0.877696 1.05562 
v -0.450858 -0.705196 1.05562 
v -0.434341 -0.834978 1.05562 
v -0.421555 -0.911667 1.05562 
v -0.526473 -0.869661 1.05562 
v -0.421555 -0.911667 1.05562 
v -0.42865 -1.02833 1.05562 
v -0.853838 -0.887185 1.04384 
v 0.00346184 -0.914425 1.04384 
v -0.88698 -0.101541 1.04384 
v 0.00371984 0.719327 1.04261 
v -0.85293 0.713529 1.03946 
v 0.88698 -0.101541 1.04384 
v 0.86037 0.671282 1.04575 
v 0.860767 -0.887185 1.04384 
v -0.154934 0.803823 -1.02139 
v -0.214761 0.689307 -1.09619 
v -0.258592 0.714527 -1.04069 
v -0.115294 0.743671 -1.07993 
v -0.0420396 0.782514 -0.959489 
v -0.00258284 0.699568 -1.03238 
v 0.0985681 0.689141 -0.862463 
v 0.151088 0.52913 -0.924797 
v 0.130674 0.612189 -0.657948 
v 0.130157 0.310074 -0.658837 
v -0.85293 0.713529 1.03946 
v 0.00371984 0.719327 1.04261 
v 0.00360671 0.598157 0.286813 
v -0.838778 0.595082 0.0818864 
v 0.846765 0.602814 0.505544 
v 0.86037 0.671282 1.04575 
v 0.86076 0.638949 -0.670934 
v 0.00345985 0.621182 -0.670904 
v -0.853845 0.640067 -0.670867 
v 0.011171 0.712617 0.975542 
v 0.139402 0.696043 0.86677 
v -0.110054 0.67622 0.724027 
v -0.110054 0.67622 0.724027 
v -0.134689 0.699559 0.866488 
v 0.011171 0.712617 0.975542 
v 0.117292 0.631591 0.506927 
v 0.152192 0.604569 0.321149 
v 0.0149419 0.600925 0.242609 
v -0.123641 0.608299 0.32085 
v 0.117292 0.631591 0.506927 
v 0.117292 0.631591 0.506927 
v -0.107092 0.637936 0.502824 
v -0.110054 0.67622 0.724027 
v -0.269277 0.640397 0.486396 
v -0.354829 0.663852 0.618223 
v 0.117292 0.631591 0.506927 
v -0.123641 0.608299 0.32085 
v -0.107092 0.637936 0.502824 
v -0.110054 0.67622 0.724027 
v -0.354829 0.663852 0.618223 
v -0.269277 0.6866 0.762676 
v 0.296655 0.666936 0.741629 
v 0.370931 0.643732 0.609253 
v 0.117292 0.631591 0.506927 
v -0.110054 0.67622 0.724027 
v -0.107092 0.637936 0.502824 
v -0.269277 0.640397 0.486396 
v 0.11433 0.669875 0.728129 
v 0.296655 0.666936 0.741629 
v 0.117292 0.631591 0.506927 
v 0.11433 0.669875 0.728129 
v 0.117292 0.631591 0.506927 
v -0.110054 0.67622 0.724027 
v 0.117292 0.631591 0.506927 
v 0.370931 0.643732 0.609253 
v 0.296655 0.621902 0.472782 
v 0.139402 0.696043 0.86677 
v 0.11433 0.669875 0.728129 
v -0.110054 0.67622 0.724027 
v -0.310483 0.617691 -1.11297 
v -0.243413 0.569966 -1.03735 
v -0.294706 0.63765 -1.06157 
v -0.272838 0.555157 -1.10001 
v -0.225907 0.617682 -1.2093 
v -0.24988 0.658906 -1.21139 
v -0.183176 0.769399 -1.28562 
v 0.436363 -0.830823 -0.292957 
v 0.47477 -0.830823 0.0405721 
v 0.482984 -0.996627 0.0467491 
v 0.442958 -0.996627 -0.300841 
v 0.46675 -0.830823 0.303518 
v 0.499491 -0.830823 0.637651 
v 0.5076 -0.996627 0.643967 
v 0.473479 -0.996627 0.295748 
v -0.464356 -1.14419 -0.324541 
v -0.0659662 -0.996627 -0.257123 
v -0.029088 -1.14419 -0.286471 
v -0.433132 -0.996627 -0.289237 
v 0.473204 -1.14419 -0.336987 
v 0.0391418 -1.14419 -0.287003 
v 0.0768105 -0.996627 -0.258678 
v 0.442958 -0.996627 -0.300841 
v -0.463618 -0.996627 0.0593197 
v -0.426322 -0.830823 -0.281537 
v -0.433132 -0.996627 -0.289237 
v -0.455575 -0.830823 0.0529192 
v -0.494082 -0.996627 0.649618 
v -0.456787 -0.830823 0.308761 
v -0.463596 -0.996627 0.301062 
v -0.486039 -0.830823 0.643218 
v 0.0120751 1.10202 0.678559 
v 0.0130966 0.979622 0.776004 
v 0.131366 1.09777 0.647755 
v 0.0106645 1.14419 0.535568 
v 0.158386 1.08254 0.543165 
v 0.231867 0.948798 0.562009 
v -0.0956583 1.09762 0.649951 
v -0.128772 1.08235 0.545942 
v -0.202549 0.948516 0.566212 
v 0.191094 0.972903 0.727517 
v 0.271699 0.797426 0.583706 
v -0.15245 0.97268 0.73084 
v -0.243004 0.797093 0.588686 
v 0.0139875 0.834899 0.843736 
v 0.223526 0.826735 0.784923 
v -0.18361 0.826472 0.788861 
v -0.154423 0.730149 0.772435 
v -0.213266 0.705185 0.602468 
v 0.0123036 0.644745 0.608811 
v 0.0140745 0.738784 0.829145 
v 0.191609 0.730308 0.768646 
v 0.241241 0.705349 0.597176 
v 0.19757 0.831496 1.0829 
v 0.852334 0.72873 1.03687 
v 0.840378 0.809383 1.07997 
v 0.13249 0.761322 1.03434 
v 0.843952 0.643722 1.0263 
v 0.0747088 0.680525 1.02422 
v -0.193524 0.831496 1.07924 
v -0.836331 0.809383 1.07631 
v -0.848289 0.72873 1.03321 
v -0.128444 0.761322 1.03068 
v -0.839906 0.643722 1.02264 
v -0.0706622 0.680525 1.02056 
v 0.442958 -0.996627 -0.300841 
v 0.482984 -0.996627 0.0467491 
v 0.520654 -1.14419 0.0750751 
v 0.473204 -1.14419 -0.336987 
v 0.473479 -0.996627 0.295748 
v 0.5076 -0.996627 0.643967 
v 0.544783 -1.14419 0.672928 
v 0.504333 -1.14419 0.26012 
v -0.500496 -1.14419 0.0886664 
v -0.433132 -0.996627 -0.289237 
v -0.464356 -1.14419 -0.324541 
v -0.463618 -0.996627 0.0593197 
v -0.133798 0.309029 -0.659231 
v -0.133279 0.611139 -0.658342 
v -0.0843314 0.583548 -0.868427 
v -0.0318111 0.423536 -0.930761 
v -0.144445 0.619941 -1.06022 
v -0.142634 0.655975 -0.990898 
v -0.53096 -1.14419 0.678965 
v -0.463596 -0.996627 0.301062 
v -0.49482 -1.14419 0.265758 
v -0.494082 -0.996627 0.649618 
v 0.499491 -0.830823 0.637651 
v 0.147518 -0.830823 0.67214 
v 0.14079 -0.996627 0.679909 
v 0.5076 -0.996627 0.643967 
v -0.486039 -0.830823 0.643218 
v -0.126917 -0.996627 0.681731 
v -0.133726 -0.830823 0.674032 
v -0.494082 -0.996627 0.649618 
v -0.463596 -0.996627 0.301062 
v -0.104474 -0.830823 0.339575 
v -0.0964305 -0.996627 0.333175 
v -0.456787 -0.830823 0.308761 
v 0.473479 -0.996627 0.295748 
v 0.106669 -0.996627 0.331691 
v 0.114778 -0.830823 0.338006 
v 0.46675 -0.830823 0.303518 
v 0.5076 -0.996627 0.643967 
v 0.14079 -0.996627 0.679909 
v 0.109936 -1.14419 0.715537 
v 0.544783 -1.14419 0.672928 
v -0.494082 -0.996627 0.649618 
v -0.0956926 -1.14419 0.717035 
v -0.126917 -0.996627 0.681731 
v -0.53096 -1.14419 0.678965 
v -0.144445 0.619941 -1.06022 
v -0.165938 0.655656 -1.18678 
v -0.214761 0.689307 -1.09619 
v -0.204054 0.693754 -1.19712 
v -0.183176 0.769399 -1.28562 
v 0.00893342 0.916096 0.341403 
v 0.124195 1.0652 0.42502 
v 0.181094 0.92333 0.388466 
v 0.231867 0.948798 0.562009 
v 0.158386 1.08254 0.543165 
v 0.271699 0.797426 0.583706 
v 0.0106645 1.14419 0.535568 
v 0.00933947 1.06029 0.393047 
v -0.10283 1.06505 0.427217 
v -0.128772 1.08235 0.545942 
v -0.202549 0.948516 0.566212 
v 0.212288 0.767776 0.381673 
v -0.16245 0.923107 0.39179 
v -0.243004 0.797093 0.588686 
v 0.00903561 0.759345 0.326853 
v -0.194849 0.767513 0.385613 
v -0.162886 0.680248 0.431127 
v -0.213266 0.705185 0.602468 
v 0.0123036 0.644745 0.608811 
v 0.00989633 0.672096 0.372913 
v 0.18219 0.680422 0.427449 
v 0.241241 0.705349 0.597176 
v -0.49482 -1.14419 0.265758 
v -0.0964305 -0.996627 0.333175 
v -0.0595523 -1.14419 0.303828 
v -0.463596 -0.996627 0.301062 
v 0.504333 -1.14419 0.26012 
v 0.069486 -1.14419 0.302729 
v 0.106669 -0.996627 0.331691 
v 0.473479 -0.996627 0.295748 
v -0.133726 -0.830823 0.674032 
v -0.0964305 -0.996627 0.333175 
v -0.104474 -0.830823 0.339575 
v -0.126917 -0.996627 0.681731 
v -0.103262 -0.830823 0.0837337 
v -0.0659662 -0.996627 -0.257123 
v -0.0740092 -0.830823 -0.250724 
v -0.0964523 -0.996627 0.0914325 
v 0.147518 -0.830823 0.67214 
v 0.106669 -0.996627 0.331691 
v 0.14079 -0.996627 0.679909 
v 0.114778 -0.830823 0.338006 
v -0.243413 0.569966 -1.03735 
v -0.144445 0.619941 -1.06022 
v -0.142634 0.655975 -0.990898 
v -0.272838 0.555157 -1.10001 
v -0.165938 0.655656 -1.18678 
v -0.225907 0.617682 -1.2093 
v -0.183176 0.769399 -1.28562 
v 0.123433 -0.830823 0.0810293 
v 0.0768105 -0.996627 -0.258678 
v 0.116837 -0.996627 0.0889125 
v 0.085026 -0.830823 -0.2525 
v -0.126917 -0.996627 0.681731 
v -0.0595523 -1.14419 0.303828 
v -0.0964305 -0.996627 0.333175 
v -0.0956926 -1.14419 0.717035 
v -0.0964523 -0.996627 0.0914325 
v -0.029088 -1.14419 -0.286471 
v -0.0659662 -0.996627 -0.257123 
v -0.0652283 -1.14419 0.126736 
v 0.14079 -0.996627 0.679909 
v 0.069486 -1.14419 0.302729 
v 0.109936 -1.14419 0.715537 
v 0.106669 -0.996627 0.331691 
v -0.0420396 0.782514 -0.959489 
v -0.154934 0.803823 -1.02139 
v -0.142634 0.655975 -0.990898 
v -0.258592 0.714527 -1.04069 
v -0.294706 0.63765 -1.06157 
v -0.243413 0.569966 -1.03735 
v -0.0843314 0.583548 -0.868427 
v 0.0985681 0.689141 -0.862463 
v 0.130674 0.612189 -0.657948 
v -0.133279 0.611139 -0.658342 
v 0.47477 -0.830823 0.0405721 
v 0.123433 -0.830823 0.0810293 
v 0.116837 -0.996627 0.0889125 
v 0.482984 -0.996627 0.0467491 
v -0.455575 -0.830823 0.0529192 
v -0.0964523 -0.996627 0.0914325 
v -0.103262 -0.830823 0.0837337 
v -0.463618 -0.996627 0.0593197 
v 0.116837 -0.996627 0.0889125 
v 0.0391418 -1.14419 -0.287003 
v 0.086592 -1.14419 0.125058 
v 0.0768105 -0.996627 -0.258678 
v 0.482984 -0.996627 0.0467491 
v 0.116837 -0.996627 0.0889125 
v 0.086592 -1.14419 0.125058 
v 0.520654 -1.14419 0.0750751 
v -0.463618 -0.996627 0.0593197 
v -0.0652283 -1.14419 0.126736 
v -0.0964523 -0.996627 0.0914325 
v -0.500496 -1.14419 0.0886664 
v 0.150464 -0.568314 1.05014 
v 0.383482 -0.50583 1.05014 
v 0.446778 -0.705196 1.05014 
v 0.177361 -0.877696 1.05014 
v 0.446778 -0.705196 1.05014 
v 0.430261 -0.834978 1.05014 
v 0.417475 -0.911667 1.05014 
v -0.00151066 -0.755311 1.05014 
v -0.00129241 -0.789083 1.05014 
v 0.0892153 -0.950153 1.05014 
v 0.246716 -1.14156 1.05014 
v 0.42457 -1.02833 1.05014 
v 0.417475 -0.911667 1.05014 
v -0.00182116 -0.706483 1.05014 
v 0.177361 -0.877696 1.05014 
v -0.00151066 -0.755311 1.05014 
v 0.150464 -0.568314 1.05014 
v 0.522393 -0.869661 1.05014 
v 0.417475 -0.911667 1.05014 
v 0.430261 -0.834978 1.05014 
v 0.42457 -1.02833 1.05014 
v -0.154544 -0.568314 1.05014 
v -0.450858 -0.705196 1.05014 
v -0.387563 -0.50583 1.05014 
v -0.181441 -0.877696 1.05014 
v -0.42865 -1.02833 1.05014 
v -0.421555 -0.911667 1.05014 
v -0.250796 -1.14156 1.05014 
v -0.0932957 -0.950153 1.05014 
v -0.00129241 -0.789083 1.05014 
v -0.00151066 -0.755311 1.05014 
v -0.181441 -0.877696 1.05014 
v -0.434341 -0.834978 1.05014 
v -0.450858 -0.705196 1.05014 
v -0.421555 -0.911667 1.05014 
v -0.526473 -0.869661 1.05014 
v -0.421555 -0.911667 1.05014 
v -0.42865 -1.02833 1.05014 
v -0.00151066 -0.755311 1.05014 
v -0.181441 -0.877696 1.05014 
v -0.00182116 -0.706483 1.05014 
v -0.154544 -0.568314 1.05014 
v -0.286133 0.633581 1.17182 
v -0.744329 0.618462 1.16076 
v -0.836331 0.809383 1.07631 
v -0.506487 0.389278 1.28196 
v -0.193524 0.831496 1.07924 
v 0.19757 0.831496 1.0829 
v 0.840378 0.809383 1.07997 
v 0.278278 0.633581 1.17548 
v 0.760275 0.618462 1.16441 
v 0.510533 0.389278 1.28562 

vn 0 -1 0 
vn 0 -1 0 
vn 0 -1 0 
vn 0 -1 0 
vn 0 -1 0 
vn 0 -1 0 
vn 0 -1 0 
vn 0 -1 0 
vn 0 -1 0 
vn 0 -1 0 
vn 0 -1 0 
vn 0 -1 0 
vn 0 -1 0 
vn 0 -1 0 
vn 0 -1 0 
vn 0 -1 0 
vn 0 0 -1 
vn 0 0 -1 
vn 0 0 -1 
vn 0 0 -1 
vn 0 0 -1 
vn 0 0 -1 
vn 0 0 -1 
vn 0 0 -1 
vn -0.00787402 -1 0.0551181 
vn 0.00787402 -1 0.0551181 
vn -0.00787402 -1 0.0708661 
vn 0.015748 -1 0.0787402 
vn -0.023622 -1 0.0551181 
vn 0.00787402 -1 -0.015748 
vn -0.015748 -1 0.0472441 
vn 0 -1 -0.023622 
vn 0.015748 -0.992126 -0.125984 
vn 0 -1 -0.023622 
vn 0.00787402 -0.992126 -0.141732 
vn 0.023622 -0.984252 -0.188976 
vn 0.00787402 -0.984252 -0.15748 
vn 0.00787402 -0.976378 -0.204724 
vn 0 -0.976378 -0.228346 
vn 1 -0.00787402 -0.0393701 
vn 1 0 -0.0551181 
vn 1 -0.023622 -0.0551181 
vn 1 0 -0.023622 
vn 1 0 -0.00787402 
vn 1 0.00787402 0.00787402 
vn 1 0 -0.023622 
vn 1 0.015748 -0.0551181 
vn 1 0 0 
vn 1 0.023622 0 
vn 1 -0.015748 0 
vn -1 0 -0.0393701 
vn -1 -0.015748 -0.023622 
vn -1 -0.0314961 -0.0393701 
vn -1 0 -0.00787402 
vn -1 0 0 
vn -1 0.015748 0.00787402 
vn -1 0 -0.015748 
vn -1 0.023622 -0.0314961 
vn -1 0 0 
vn -1 0.023622 0 
vn -1 -0.015748 0 
vn 0.834646 0.283465 -0.464567 
vn 0.472441 0.511811 -0.716535 
vn 0.818898 0.322835 -0.480315 
vn 0.488189 0.480315 -0.732283 
vn 0.480315 0.795276 -0.370079 
vn 0.629921 0.677165 0.370079 
vn 0.0314961 0.598425 -0.80315 
vn 0.023622 0.566929 -0.826772 
vn 0.0314961 0.905512 -0.417323 
vn 0.629921 0.677165 0.370079 
vn 0.519685 0.15748 0.834646 
vn -0.433071 0.582677 -0.685039 
vn -0.433071 0.551181 -0.716535 
vn -0.795276 0.409449 -0.448819 
vn -0.795276 0.440945 -0.417323 
vn -0.456693 0.834646 -0.322835 
vn -0.551181 0.677165 0.488189 
vn -0.551181 0.677165 0.488189 
vn -0.527559 0.149606 0.834646 
vn 0.0314961 0.795276 0.606299 
vn -0.267717 0.188976 0.944882 
vn 0.0944882 0.133858 0.984252 
vn 0.023622 0.259843 0.968504 
vn 0.291339 0.188976 0.937008 
vn -0.834646 0.283465 -0.464567 
vn -0.472441 0.511811 -0.716535 
vn -0.488189 0.480315 -0.732283 
vn -0.818898 0.322835 -0.480315 
vn -0.0314961 0.598425 -0.80315 
vn -0.023622 0.566929 -0.826772 
vn -0.480315 0.795276 -0.370079 
vn -0.629921 0.677165 0.370079 
vn -0.0314961 0.905512 -0.417323 
vn -0.629921 0.677165 0.370079 
vn -0.519685 0.15748 0.834646 
vn 0.433071 0.582677 -0.685039 
vn 0.433071 0.551181 -0.716535 
vn 0.795276 0.409449 -0.448819 
vn 0.795276 0.440945 -0.417323 
vn 0.456693 0.834646 -0.322835 
vn 0.551181 0.677165 0.488189 
vn 0.551181 0.677165 0.488189 
vn 0.527559 0.149606 0.834646 
vn -0.0314961 0.795276 0.606299 
vn 0.267717 0.188976 0.944882 
vn 0.0629921 0.133858 0.992126 
vn -0.023622 0.259843 0.968504 
vn -0.291339 0.188976 0.937008 
vn -0.535433 0.732283 -0.409449 
vn -0.614173 0.653543 -0.440945 
vn -0.480315 0.653543 -0.582677 
vn -0.622047 0.748031 -0.23622 
vn -0.629921 0.748031 0.19685 
vn -0.629921 0.748031 0.19685 
vn -0.629921 0.661417 0.417323 
vn 0.291339 -0.220472 -0.929134 
vn 0.291339 -0.291339 -0.913386 
vn 0.291339 -0.220472 -0.929134 
vn 0.291339 -0.291339 -0.913386 
vn 0.267717 -0.637795 -0.724409 
vn 0.267717 -0.637795 -0.724409 
vn 0.212598 -0.850394 -0.480315 
vn 0.212598 -0.850394 -0.480315 
vn 0.0866142 0.0393701 -0.992126 
vn 0.0866142 0.0393701 -0.992126 
vn 0.0866142 0.0393701 -0.992126 
vn 0.0866142 0.0393701 -0.992126 
vn -0.110236 0.0393701 -0.992126 
vn -0.110236 0.0393701 -0.992126 
vn -0.110236 0.0393701 -0.992126 
vn -0.110236 0.0393701 -0.992126 
vn 0 0 1 
vn 0 0 1 
vn 0 0 1 
vn 0 0 1 
vn 0 0 1 
vn 0 0 1 
vn 0 0 1 
vn 0 0 1 
vn 0 0 1 
vn 0 0 1 
vn 0 0 1 
vn 0 0 1 
vn 0 0 1 
vn 0 0 1 
vn 0 0 1 
vn 0 0 1 
vn 0 0 1 
vn 0 0 1 
vn 0 0 1 
vn 0 0 1 
vn 0 0 1 
vn 0 0 1 
vn 0 0 1 
vn 0 0 1 
vn 0 0 1 
vn 0 0 1 
vn 0 0 1 
vn 0 0 1 
vn 0 0 1 
vn 0 0 1 
vn 0 0 1 
vn 0 0 1 
vn 0 0 1 
vn 0 0 1 
vn 0 0 1 
vn 0 0 1 
vn 0 0 1 
vn 0 0 1 
vn 0 0 1 
vn 0 0 1 
vn 0 0 1 
vn 0 0 1 
vn 0 0 1 
vn 0 0 1 
vn 0.0708661 0.740157 -0.669291 
vn -0.535433 0.732283 -0.409449 
vn -0.480315 0.653543 -0.582677 
vn 0.0708661 0.740157 -0.669291 
vn 0.614173 0.629921 -0.472441 
vn 0.614173 0.629921 -0.472441 
vn 0.92126 0.330709 -0.19685 
vn 0.92126 0.330709 -0.19685 
vn 0.992126 0.102362 0.0472441 
vn 0.992126 0.102362 0.0472441 
vn 0.015748 0.992126 -0.141732 
vn 0.0314961 0.992126 -0.141732 
vn 0.00787402 1 -0.0551181 
vn 0.00787402 1 -0.0472441 
vn 0.015748 1 -0.0629921 
vn 0.0472441 0.992126 -0.141732 
vn -0.015748 1 0.0314961 
vn -0.00787402 1 0.0314961 
vn 0.00787402 1 0.0393701 
vn 0 0.913386 0.401575 
vn 0 0.913386 0.401575 
vn 0 0.913386 0.401575 
vn 0 0.913386 0.401575 
vn 0 0.913386 0.401575 
vn 0 0.913386 0.401575 
vn 0 0.913386 0.401575 
vn 0 0.913386 0.401575 
vn 0 0.913386 0.401575 
vn 0 0.913386 0.401575 
vn 0 0.913386 0.401575 
vn 0 0.913386 0.401575 
vn 0 0.913386 0.401575 
vn 0 0.913386 0.401575 
vn 0 0.913386 0.401575 
vn 0 0.913386 0.401575 
vn 0 0.913386 0.401575 
vn 0 0.913386 0.401575 
vn 0 0.913386 0.401575 
vn 0 0.913386 0.401575 
vn 0 0.913386 0.401575 
vn 0 0.913386 0.401575 
vn 0 0.913386 0.401575 
vn 0 0.913386 0.401575 
vn 0 0.913386 0.401575 
vn 0 0.913386 0.401575 
vn 0 0.913386 0.401575 
vn 0 0.913386 0.401575 
vn 0 0.913386 0.401575 
vn 0 0.913386 0.401575 
vn 0 0.913386 0.401575 
vn 0 0.913386 0.401575 
vn 0 0.913386 0.401575 
vn 0 0.913386 0.401575 
vn 0 0.913386 0.401575 
vn 0 0.913386 0.401575 
vn 0 0.913386 0.401575 
vn 0 0.913386 0.401575 
vn 0 0.913386 0.401575 
vn 0 0.913386 0.401575 
vn -0.850394 -0.519685 -0.0787402 
vn -0.795276 -0.417323 0.440945 
vn -0.795276 -0.417323 0.440945 
vn -0.850394 -0.519685 -0.0787402 
vn -0.559055 -0.393701 -0.724409 
vn -0.559055 -0.393701 -0.724409 
vn -0.440945 -0.299213 -0.84252 
vn 0.992126 0.0472441 -0.110236 
vn 0.992126 0.0472441 -0.110236 
vn 0.992126 0.0472441 -0.110236 
vn 0.992126 0.0472441 -0.110236 
vn 0.992126 0.0472441 -0.0944882 
vn 0.992126 0.0472441 -0.0944882 
vn 0.992126 0.0472441 -0.0944882 
vn 0.992126 0.0472441 -0.0944882 
vn 0.0866142 0.212598 -0.976378 
vn 0.0866142 0.212598 -0.976378 
vn 0.0866142 0.212598 -0.976378 
vn 0.0866142 0.212598 -0.976378 
vn -0.110236 0.212598 -0.968504 
vn -0.110236 0.212598 -0.968504 
vn -0.110236 0.212598 -0.968504 
vn -0.110236 0.212598 -0.968504 
vn -0.992126 0.0472441 -0.0866142 
vn -0.992126 0.0472441 -0.0866142 
vn -0.992126 0.0472441 -0.0866142 
vn -0.992126 0.0472441 -0.0866142 
vn -0.992126 0.0472441 -0.0866142 
vn -0.992126 0.0472441 -0.0866142 
vn -0.992126 0.0472441 -0.0866142 
vn -0.992126 0.0472441 -0.0866142 
vn 0 0.826772 0.559055 
vn 0 0.527559 0.850394 
vn 0.440945 0.834646 0.322835 
vn -0.00787402 0.992126 -0.125984 
vn 0.669291 0.732283 -0.11811 
vn 0.929134 0.362205 -0.0708661 
vn -0.440945 0.826772 0.338583 
vn -0.677165 0.732283 -0.0787402 
vn -0.929134 0.370079 -0.023622 
vn 0.653543 0.511811 0.559055 
vn 1 -0.0551181 -0.015748 
vn -0.637795 0.503937 0.582677 
vn -1 -0.0472441 0.0314961 
vn 0 0.11811 0.992126 
vn 0.724409 0.0551181 0.692913 
vn -0.700787 0.0629921 0.708661 
vn -0.448819 -0.692913 0.559055 
vn -0.669291 -0.732283 0.125984 
vn 0 -0.992126 0.141732 
vn 0 -0.637795 0.76378 
vn 0.456693 -0.700787 0.543307 
vn 0.661417 -0.740157 0.0866142 
vn -0.015748 -0.377953 0.92126 
vn -0.00787402 -0.259843 0.968504 
vn -0.015748 -0.377953 0.92126 
vn -0.00787402 -0.259843 0.968504 
vn -0.00787402 -0.141732 0.992126 
vn -0.00787402 -0.141732 0.992126 
vn 0.015748 -0.377953 0.92126 
vn 0.015748 -0.377953 0.92126 
vn 0.00787402 -0.259843 0.968504 
vn 0.00787402 -0.259843 0.968504 
vn 0.00787402 -0.141732 0.992126 
vn 0.00787402 -0.141732 0.992126 
vn 0.968504 0.228346 -0.110236 
vn 0.968504 0.228346 -0.110236 
vn 0.968504 0.228346 -0.110236 
vn 0.968504 0.228346 -0.110236 
vn 0.968504 0.228346 -0.0944882 
vn 0.968504 0.228346 -0.0944882 
vn 0.968504 0.228346 -0.0944882 
vn 0.968504 0.228346 -0.0944882 
vn -0.968504 0.228346 -0.0866142 
vn -0.968504 0.228346 -0.0866142 
vn -0.968504 0.228346 -0.0866142 
vn -0.968504 0.228346 -0.0866142 
vn -0.944882 -0.0629921 -0.307087 
vn -0.944882 -0.0629921 -0.307087 
vn -0.968504 -0.228346 -0.0551181 
vn -0.968504 -0.228346 -0.0551181 
vn -0.905512 -0.377953 0.212598 
vn -0.905512 -0.377953 0.212598 
vn -0.968504 0.228346 -0.0866142 
vn -0.968504 0.228346 -0.0866142 
vn -0.968504 0.228346 -0.0866142 
vn -0.968504 0.228346 -0.0866142 
vn 0.0944882 0.0393701 0.992126 
vn 0.0944882 0.0393701 0.992126 
vn 0.0944882 0.0393701 0.992126 
vn 0.0944882 0.0393701 0.992126 
vn -0.0866142 0.0393701 0.992126 
vn -0.0866142 0.0393701 0.992126 
vn -0.0866142 0.0393701 0.992126 
vn -0.0866142 0.0393701 0.992126 
vn 0.0866142 0.0393701 -0.992126 
vn 0.0866142 0.0393701 -0.992126 
vn 0.0866142 0.0393701 -0.992126 
vn 0.0866142 0.0393701 -0.992126 
vn -0.0944882 0.0393701 -0.992126 
vn -0.0944882 0.0393701 -0.992126 
vn -0.0944882 0.0393701 -0.992126 
vn -0.0944882 0.0393701 -0.992126 
vn 0.0944882 0.212598 0.968504 
vn 0.0944882 0.212598 0.968504 
vn 0.0944882 0.212598 0.968504 
vn 0.0944882 0.212598 0.968504 
vn -0.0866142 0.212598 0.976378 
vn -0.0866142 0.212598 0.976378 
vn -0.0866142 0.212598 0.976378 
vn -0.0866142 0.212598 0.976378 
vn 0.677165 0.724409 0.0944882 
vn 0.590551 0.708661 0.385827 
vn 0.677165 0.724409 0.0944882 
vn 0.590551 0.708661 0.385827 
vn 0.448819 0.622047 0.637795 
vn -0.00787402 0.220472 -0.976378 
vn 0.440945 0.700787 -0.551181 
vn 0.645669 0.299213 -0.700787 
vn 0.929134 0.362205 -0.0708661 
vn 0.669291 0.732283 -0.11811 
vn 1 -0.0551181 -0.015748 
vn -0.00787402 0.992126 -0.125984 
vn -0.00787402 0.645669 -0.76378 
vn -0.464567 0.708661 -0.535433 
vn -0.677165 0.732283 -0.0787402 
vn -0.929134 0.370079 -0.023622 
vn 0.700787 -0.173228 -0.692913 
vn -0.669291 0.307087 -0.677165 
vn -1 -0.0472441 0.0314961 
vn -0.00787402 -0.212598 -0.976378 
vn -0.724409 -0.165354 -0.669291 
vn -0.456693 -0.834646 -0.314961 
vn -0.669291 -0.732283 0.125984 
vn 0 -0.992126 0.141732 
vn -0.00787402 -0.84252 -0.543307 
vn 0.440945 -0.834646 -0.330709 
vn 0.661417 -0.740157 0.0866142 
vn 0.0866142 0.212598 -0.976378 
vn 0.0866142 0.212598 -0.976378 
vn 0.0866142 0.212598 -0.976378 
vn 0.0866142 0.212598 -0.976378 
vn -0.0944882 0.212598 -0.968504 
vn -0.0944882 0.212598 -0.968504 
vn -0.0944882 0.212598 -0.968504 
vn -0.0944882 0.212598 -0.968504 
vn 0.992126 0.0472441 0.0866142 
vn 0.992126 0.0472441 0.0866142 
vn 0.992126 0.0472441 0.0866142 
vn 0.992126 0.0472441 0.0866142 
vn 0.992126 0.0472441 0.0866142 
vn 0.992126 0.0472441 0.0866142 
vn 0.992126 0.0472441 0.0866142 
vn 0.992126 0.0472441 0.0866142 
vn -0.992126 0.0472441 0.0944882 
vn -0.992126 0.0472441 0.0944882 
vn -0.992126 0.0472441 0.0944882 
vn -0.992126 0.0472441 0.0944882 
vn 0.480315 -0.850394 0.212598 
vn 0.519685 -0.850394 -0.0314961 
vn 0.480315 -0.850394 0.212598 
vn 0.519685 -0.850394 -0.0314961 
vn 0.566929 -0.669291 -0.488189 
vn 0.566929 -0.669291 -0.488189 
vn 0.559055 -0.496063 -0.661417 
vn -0.992126 0.0472441 0.110236 
vn -0.992126 0.0472441 0.110236 
vn -0.992126 0.0472441 0.110236 
vn -0.992126 0.0472441 0.110236 
vn 0.968504 0.228346 0.0866142 
vn 0.968504 0.228346 0.0866142 
vn 0.968504 0.228346 0.0866142 
vn 0.968504 0.228346 0.0866142 
vn 0.968504 0.228346 0.0866142 
vn 0.968504 0.228346 0.0866142 
vn 0.968504 0.228346 0.0866142 
vn 0.968504 0.228346 0.0866142 
vn -0.968504 0.228346 0.0944882 
vn -0.968504 0.228346 0.0944882 
vn -0.968504 0.228346 0.0944882 
vn -0.968504 0.228346 0.0944882 
vn -0.433071 0.307087 0.850394 
vn -0.385827 0.15748 0.905512 
vn -0.433071 0.19685 0.88189 
vn -0.409449 0.0629921 0.913386 
vn -0.417323 -0.023622 0.905512 
vn -0.417323 -0.023622 0.905512 
vn -0.385827 0.787402 0.480315 
vn -0.385827 0.787402 0.480315 
vn -0.228346 0.968504 0.102362 
vn -0.228346 0.968504 0.102362 
vn 0.110236 0.0393701 0.992126 
vn 0.110236 0.0393701 0.992126 
vn 0.110236 0.0393701 0.992126 
vn 0.110236 0.0393701 0.992126 
vn -0.0866142 0.0393701 0.992126 
vn -0.0866142 0.0393701 0.992126 
vn -0.0866142 0.0393701 0.992126 
vn -0.0866142 0.0393701 0.992126 
vn -0.968504 0.228346 0.110236 
vn -0.968504 0.228346 0.110236 
vn -0.968504 0.228346 0.110236 
vn -0.968504 0.228346 0.110236 
vn 0.110236 0.212598 0.968504 
vn 0.110236 0.212598 0.968504 
vn 0.110236 0.212598 0.968504 
vn 0.110236 0.212598 0.968504 
vn -0.0866142 0.212598 0.976378 
vn -0.0866142 0.212598 0.976378 
vn -0.0866142 0.212598 0.976378 
vn -0.0866142 0.212598 0.976378 
vn 0 0 -1 
vn 0 0 -1 
vn 0 0 -1 
vn 0 0 -1 
vn 0 0 -1 
vn 0 0 -1 
vn 0 0 -1 
vn 0 0 -1 
vn 0 0 -1 
vn 0 0 -1 
vn 0 0 -1 
vn 0 0 -1 
vn 0 0 -1 
vn 0 0 -1 
vn 0 0 -1 
vn 0 0 -1 
vn 0 0 -1 
vn 0 0 -1 
vn 0 0 -1 
vn 0 0 -1 
vn 0 0 -1 
vn 0 0 -1 
vn 0 0 -1 
vn 0 0 -1 
vn 0 0 -1 
vn 0 0 -1 
vn 0 0 -1 
vn 0 0 -1 
vn 0 0 -1 
vn 0 0 -1 
vn 0 0 -1 
vn 0 0 -1 
vn 0 0 -1 
vn 0 0 -1 
vn 0 0 -1 
vn 0 0 -1 
vn 0 0 -1 
vn 0 0 -1 
vn 0 0 -1 
vn 0 0 -1 
vn 0 0 -1 
vn 0 0 -1 
vn 0.0314961 -0.401575 -0.913386 
vn 0.0314961 -0.401575 -0.913386 
vn 0.023622 -0.417323 -0.913386 
vn 0.0393701 -0.409449 -0.913386 
vn 0.023622 -0.417323 -0.913386 
vn -0.023622 -0.417323 -0.913386 
vn -0.023622 -0.417323 -0.913386 
vn -0.0314961 -0.401575 -0.913386 
vn -0.0314961 -0.401575 -0.913386 
vn -0.0393701 -0.409449 -0.913386 

vt 0.924302 0.935731 
vt 0.854047 0.875182 
vt 0.91805 0.869664 
vt 0.860484 0.943234 
vt 0.91805 0.869664 
vt 0.860484 0.943234 
vt 0.924302 0.935731 
vt 0.854065 0.875337 
vt 0.854047 0.875182 
vt 0.924302 0.935731 
vt 0.860484 0.943234 
vt 0.91805 0.869664 
vt 0.860484 0.943234 
vt 0.91805 0.869664 
vt 0.854047 0.875182 
vt 0.924302 0.935731 
vt 0.707272 0.182523 
vt 0.851696 0.019612 
vt 0.989469 0.182357 
vt 0.992848 0.014168 
vt 0.709917 0.015226 
vt 0.851785 0.345268 
vt 0.710056 0.349963 
vt 0.992703 0.350493 
vt 0.446358 0.183287 
vt 0.425227 0.34988 
vt 0.37072 0.183478 
vt 0.371095 0.351656 
vt 0.370517 0.015319 
vt 0.47667 0.348276 
vt 0.467107 0.016848 
vt 0.518679 0.183061 
vt 0.613751 0.349159 
vt 0.559311 0.018068 
vt 0.626817 0.182752 
vt 0.710056 0.349963 
vt 0.64196 0.016368 
vt 0.707272 0.182523 
vt 0.709917 0.015226 
vt 0.399182 0.672452 
vt 0.347865 0.831212 
vt 0.346049 0.680053 
vt 0.450833 0.822082 
vt 0.449993 0.670323 
vt 0.585023 0.677583 
vt 0.449837 0.967866 
vt 0.34442 0.979749 
vt 0.677959 0.835995 
vt 0.677831 0.696274 
vt 0.677702 0.975151 
vt 0.355903 0.171636 
vt 0.254673 0.012641 
vt 0.351848 0.017046 
vt 0.165985 0.169129 
vt 0.162319 0.013066 
vt 0.080291 0.022033 
vt 0.169237 0.320271 
vt 0.362213 0.330025 
vt 0.018462 0.183941 
vt 0.014968 0.042101 
vt 0.017859 0.323063 
vt 0.820915 0.873386 
vt 0.803684 0.828651 
vt 0.831821 0.846075 
vt 0.757401 0.853542 
vt 0.831129 0.815556 
vt 0.845853 0.820785 
vt 0.77698 0.785689 
vt 0.730279 0.808914 
vt 0.805704 0.771929 
vt 0.845195 0.806993 
vt 0.886056 0.791193 
vt 0.756589 0.738112 
vt 0.708711 0.759217 
vt 0.730714 0.696405 
vt 0.759422 0.704684 
vt 0.783644 0.725217 
vt 0.788585 0.708333 
vt 0.798543 0.717898 
vt 0.839495 0.696094 
vt 0.824424 0.762253 
vt 0.858511 0.709853 
vt 0.934982 0.708716 
vt 0.876438 0.736504 
vt 0.886411 0.767468 
vt 0.820915 0.873386 
vt 0.803684 0.828651 
vt 0.757401 0.853542 
vt 0.831821 0.846075 
vt 0.77698 0.785689 
vt 0.730279 0.808914 
vt 0.831129 0.815556 
vt 0.845853 0.820785 
vt 0.805704 0.771929 
vt 0.845195 0.806993 
vt 0.886056 0.791193 
vt 0.756589 0.738112 
vt 0.708711 0.759217 
vt 0.730714 0.696405 
vt 0.759422 0.704684 
vt 0.783644 0.725217 
vt 0.788585 0.708333 
vt 0.798543 0.717898 
vt 0.839495 0.696094 
vt 0.824424 0.762253 
vt 0.858511 0.709853 
vt 0.935001 0.708743 
vt 0.876438 0.736504 
vt 0.886411 0.767468 
vt 0.895721 0.466325 
vt 0.916734 0.492726 
vt 0.888652 0.490909 
vt 0.93293 0.481779 
vt 0.928901 0.439511 
vt 0.909192 0.430102 
vt 0.921186 0.388563 
vt 0.815654 0.504626 
vt 0.774819 0.508988 
vt 0.790656 0.482349 
vt 0.806445 0.540923 
vt 0.728429 0.573076 
vt 0.780071 0.595867 
vt 0.733215 0.671036 
vt 0.666479 0.639078 
vt 0.941671 0.870787 
vt 0.972772 0.92462 
vt 0.947416 0.929807 
vt 0.96726 0.871142 
vt 0.941671 0.870787 
vt 0.947416 0.929807 
vt 0.972772 0.92462 
vt 0.96726 0.871142 
vt 0.58775 0.423325 
vt 0.631918 0.519107 
vt 0.567433 0.498587 
vt 0.687725 0.432058 
vt 0.632306 0.373937 
vt 0.648265 0.374114 
vt 0.659486 0.37424 
vt 0.711121 0.403555 
vt 0.772967 0.454363 
vt 0.737453 0.511937 
vt 0.698734 0.509704 
vt 0.684878 0.5435 
vt 0.673886 0.513764 
vt 0.687725 0.432058 
vt 0.673886 0.513764 
vt 0.631918 0.519107 
vt 0.698734 0.509704 
vt 0.58775 0.423325 
vt 0.567433 0.498587 
vt 0.631918 0.519107 
vt 0.687725 0.432058 
vt 0.632434 0.373795 
vt 0.648031 0.373771 
vt 0.648031 0.373771 
vt 0.658634 0.373756 
vt 0.711121 0.403555 
vt 0.772967 0.454363 
vt 0.737453 0.511937 
vt 0.698734 0.509704 
vt 0.687725 0.432058 
vt 0.631918 0.519107 
vt 0.673886 0.513764 
vt 0.698734 0.509704 
vt 0.684878 0.5435 
vt 0.698734 0.509704 
vt 0.737453 0.511937 
vt 0.014233 0.677588 
vt 0.179778 0.673126 
vt 0.006941 0.829242 
vt 0.17801 0.988948 
vt 0.012408 0.986674 
vt 0.347865 0.831212 
vt 0.34442 0.979749 
vt 0.346049 0.680053 
vt 0.847057 0.504297 
vt 0.81559 0.466714 
vt 0.839197 0.459617 
vt 0.815654 0.504626 
vt 0.83915 0.540672 
vt 0.806445 0.540923 
vt 0.825989 0.591631 
vt 0.780071 0.595867 
vt 0.818385 0.653469 
vt 0.733215 0.671036 
vt 0.362213 0.330025 
vt 0.356964 0.496741 
vt 0.205935 0.491441 
vt 0.169237 0.320271 
vt 0.245218 0.659681 
vt 0.352497 0.665405 
vt 0.013892 0.658002 
vt 0.017666 0.48936 
vt 0.017859 0.323063 
vt 0.554704 0.374601 
vt 0.564595 0.395818 
vt 0.513853 0.38752 
vt 0.513853 0.38752 
vt 0.523653 0.367852 
vt 0.554704 0.374601 
vt 0.514096 0.443838 
vt 0.503962 0.46378 
vt 0.473116 0.456896 
vt 0.463027 0.435374 
vt 0.514096 0.443838 
vt 0.514096 0.443838 
vt 0.485815 0.4158 
vt 0.513853 0.38752 
vt 0.462859 0.396424 
vt 0.472762 0.374816 
vt 0.514096 0.443838 
vt 0.463027 0.435374 
vt 0.485815 0.4158 
vt 0.513853 0.38752 
vt 0.472762 0.374816 
vt 0.50423 0.367636 
vt 0.564601 0.435187 
vt 0.554987 0.456335 
vt 0.514096 0.443838 
vt 0.513853 0.38752 
vt 0.485815 0.4158 
vt 0.462859 0.396424 
vt 0.542134 0.415558 
vt 0.564601 0.435187 
vt 0.514096 0.443838 
vt 0.542134 0.415558 
vt 0.514096 0.443838 
vt 0.513853 0.38752 
vt 0.514096 0.443838 
vt 0.554987 0.456335 
vt 0.52464 0.463505 
vt 0.564595 0.395818 
vt 0.542134 0.415558 
vt 0.513853 0.38752 
vt 0.865876 0.424446 
vt 0.867288 0.393526 
vt 0.880255 0.41574 
vt 0.860384 0.407779 
vt 0.832837 0.420254 
vt 0.831624 0.43201 
vt 0.792246 0.439485 
vt 0.96726 0.871142 
vt 0.974416 0.822525 
vt 0.949484 0.816137 
vt 0.941671 0.870787 
vt 0.974416 0.822525 
vt 0.96726 0.871142 
vt 0.941671 0.870787 
vt 0.949484 0.816137 
vt 0.91805 0.869664 
vt 0.947416 0.929807 
vt 0.924302 0.935731 
vt 0.941671 0.870787 
vt 0.91805 0.869664 
vt 0.924302 0.935731 
vt 0.947416 0.929807 
vt 0.941671 0.870787 
vt 0.949484 0.816137 
vt 0.96726 0.871142 
vt 0.941671 0.870787 
vt 0.974416 0.822525 
vt 0.941671 0.870787 
vt 0.974416 0.822525 
vt 0.949484 0.816137 
vt 0.96726 0.871142 
vt 0.591094 0.635108 
vt 0.591027 0.609816 
vt 0.614701 0.636511 
vt 0.591115 0.662157 
vt 0.629395 0.647118 
vt 0.651648 0.61514 
vt 0.569817 0.636901 
vt 0.554522 0.647193 
vt 0.532254 0.615507 
vt 0.623293 0.609701 
vt 0.657114 0.576005 
vt 0.561008 0.610036 
vt 0.526268 0.576675 
vt 0.591032 0.584641 
vt 0.623187 0.58251 
vt 0.560813 0.582643 
vt 0.562889 0.565992 
vt 0.537521 0.553404 
vt 0.59088 0.526773 
vt 0.591032 0.569058 
vt 0.620846 0.565916 
vt 0.645361 0.552584 
vt 0.738603 0.971734 
vt 0.720098 0.863156 
vt 0.740836 0.870255 
vt 0.718186 0.980177 
vt 0.696767 0.856635 
vt 0.694721 0.987476 
vt 0.738603 0.971734 
vt 0.740836 0.870255 
vt 0.720098 0.863156 
vt 0.718186 0.980177 
vt 0.696767 0.856635 
vt 0.694721 0.987476 
vt 0.941671 0.870787 
vt 0.949484 0.816137 
vt 0.926878 0.809392 
vt 0.91805 0.869664 
vt 0.949484 0.816137 
vt 0.941671 0.870787 
vt 0.91805 0.869664 
vt 0.926878 0.809392 
vt 0.926878 0.809392 
vt 0.941671 0.870787 
vt 0.91805 0.869664 
vt 0.949484 0.816137 
vt 0.993442 0.658415 
vt 0.893986 0.660507 
vt 0.895254 0.58561 
vt 0.951316 0.563443 
vt 0.927011 0.527199 
vt 0.883349 0.53532 
vt 0.91805 0.869664 
vt 0.949484 0.816137 
vt 0.926878 0.809392 
vt 0.941671 0.870787 
vt 0.96726 0.871142 
vt 0.972772 0.92462 
vt 0.947416 0.929807 
vt 0.941671 0.870787 
vt 0.96726 0.871142 
vt 0.947416 0.929807 
vt 0.972772 0.92462 
vt 0.941671 0.870787 
vt 0.949484 0.816137 
vt 0.996024 0.772115 
vt 0.972719 0.761814 
vt 0.974416 0.822525 
vt 0.949484 0.816137 
vt 0.972719 0.761814 
vt 0.996024 0.772115 
vt 0.974416 0.822525 
vt 0.941671 0.870787 
vt 0.947416 0.929807 
vt 0.924302 0.935731 
vt 0.91805 0.869664 
vt 0.941671 0.870787 
vt 0.924302 0.935731 
vt 0.947416 0.929807 
vt 0.91805 0.869664 
vt 0.861514 0.466734 
vt 0.888685 0.430346 
vt 0.895721 0.466325 
vt 0.909192 0.430102 
vt 0.921186 0.388563 
vt 0.591639 0.608877 
vt 0.613425 0.635192 
vt 0.622048 0.609299 
vt 0.651707 0.615027 
vt 0.629724 0.646766 
vt 0.657063 0.576515 
vt 0.591264 0.662083 
vt 0.591512 0.633043 
vt 0.569962 0.635103 
vt 0.554504 0.64704 
vt 0.532072 0.61513 
vt 0.622526 0.582556 
vt 0.561218 0.609172 
vt 0.526784 0.576288 
vt 0.59174 0.58432 
vt 0.560772 0.582502 
vt 0.562815 0.56595 
vt 0.538365 0.553028 
vt 0.591653 0.527225 
vt 0.591769 0.568744 
vt 0.620445 0.565956 
vt 0.645589 0.553387 
vt 0.926878 0.809392 
vt 0.972719 0.761814 
vt 0.95337 0.747515 
vt 0.949484 0.816137 
vt 0.926878 0.809392 
vt 0.95337 0.747515 
vt 0.972719 0.761814 
vt 0.949484 0.816137 
vt 0.972772 0.92462 
vt 0.965545 0.982045 
vt 0.989626 0.972987 
vt 0.947416 0.929807 
vt 0.989626 0.972987 
vt 0.947416 0.929807 
vt 0.972772 0.92462 
vt 0.965545 0.982045 
vt 0.972772 0.92462 
vt 0.965545 0.982045 
vt 0.947416 0.929807 
vt 0.989626 0.972987 
vt 0.867288 0.393526 
vt 0.840012 0.379383 
vt 0.848892 0.360202 
vt 0.860384 0.407779 
vt 0.819429 0.407342 
vt 0.832837 0.420254 
vt 0.792246 0.439485 
vt 0.989626 0.972987 
vt 0.947416 0.929807 
vt 0.965545 0.982045 
vt 0.972772 0.92462 
vt 0.947416 0.929807 
vt 0.945594 0.995012 
vt 0.965545 0.982045 
vt 0.924302 0.935731 
vt 0.965545 0.982045 
vt 0.924302 0.935731 
vt 0.947416 0.929807 
vt 0.945594 0.995012 
vt 0.947416 0.929807 
vt 0.945594 0.995012 
vt 0.924302 0.935731 
vt 0.965545 0.982045 
vt 0.83915 0.540672 
vt 0.847057 0.504297 
vt 0.883349 0.53532 
vt 0.888652 0.490909 
vt 0.916734 0.492726 
vt 0.924859 0.519784 
vt 0.895254 0.58561 
vt 0.825989 0.591631 
vt 0.818385 0.653469 
vt 0.893986 0.660507 
vt 0.974416 0.822525 
vt 0.996024 0.772115 
vt 0.972719 0.761814 
vt 0.949484 0.816137 
vt 0.974416 0.822525 
vt 0.972719 0.761814 
vt 0.996024 0.772115 
vt 0.949484 0.816137 
vt 0.965545 0.982045 
vt 0.924302 0.935731 
vt 0.945594 0.995012 
vt 0.947416 0.929807 
vt 0.949484 0.816137 
vt 0.972719 0.761814 
vt 0.95337 0.747515 
vt 0.926878 0.809392 
vt 0.949484 0.816137 
vt 0.95337 0.747515 
vt 0.972719 0.761814 
vt 0.926878 0.809392 
vt 0.58775 0.423325 
vt 0.567433 0.498587 
vt 0.631918 0.519107 
vt 0.687725 0.432058 
vt 0.631918 0.519107 
vt 0.673886 0.513764 
vt 0.698734 0.509704 
vt 0.648265 0.374114 
vt 0.659486 0.37424 
vt 0.711121 0.403555 
vt 0.772967 0.454363 
vt 0.737453 0.511937 
vt 0.698734 0.509704 
vt 0.632306 0.373937 
vt 0.687725 0.432058 
vt 0.648265 0.374114 
vt 0.58775 0.423325 
vt 0.684878 0.5435 
vt 0.698734 0.509704 
vt 0.673886 0.513764 
vt 0.737453 0.511937 
vt 0.58775 0.423325 
vt 0.631918 0.519107 
vt 0.567433 0.498587 
vt 0.687725 0.432058 
vt 0.737453 0.511937 
vt 0.698734 0.509704 
vt 0.772967 0.454363 
vt 0.711121 0.403555 
vt 0.658634 0.373756 
vt 0.648031 0.373771 
vt 0.687725 0.432058 
vt 0.673886 0.513764 
vt 0.631918 0.519107 
vt 0.698734 0.509704 
vt 0.684878 0.5435 
vt 0.698734 0.509704 
vt 0.737453 0.511937 
vt 0.648031 0.373771 
vt 0.687725 0.432058 
vt 0.632434 0.373795 
vt 0.58775 0.423325 
vt 0.775717 0.962873 
vt 0.776458 0.878308 
vt 0.740836 0.870255 
vt 0.842699 0.921152 
vt 0.738603 0.971734 
vt 0.738603 0.971734 
vt 0.740836 0.870255 
vt 0.775717 0.962873 
vt 0.776458 0.878308 
vt 0.842755 0.921143 

usemtl Pet1Mtl

f 1/1/1 2/2/2 3/3/3 
f 2/2/2 1/1/1 4/4/4 
f 5/5/5 6/6/6 7/7/7 
f 6/6/6 5/5/5 8/8/8 
f 9/9/9 10/10/10 11/11/11 
f 10/10/10 9/9/9 12/12/12 
f 13/13/13 14/14/14 15/15/15 
f 14/14/14 13/13/13 16/16/16 
f 17/17/17 18/18/18 19/19/19 
f 18/18/18 20/20/20 19/19/19 
f 18/18/18 17/17/17 21/21/21 
f 22/22/22 17/17/17 19/19/19 
f 17/17/17 22/22/22 23/23/23 
f 22/22/22 19/19/19 24/24/24 
f 25/25/25 26/26/26 27/27/27 
f 28/28/28 27/27/27 26/26/26 
f 27/27/27 29/29/29 25/25/25 
f 26/26/26 25/25/25 30/30/30 
f 31/31/31 25/25/25 29/29/29 
f 32/32/32 30/30/30 25/25/25 
f 25/25/25 31/31/31 32/32/32 
f 30/30/30 32/32/32 33/33/33 
f 34/34/34 32/32/32 31/31/31 
f 32/32/32 35/35/35 33/33/33 
f 32/32/32 34/34/34 35/35/35 
f 33/33/33 35/35/35 36/36/36 
f 37/37/37 35/35/35 34/34/34 
f 38/38/38 36/36/36 35/35/35 
f 35/35/35 37/37/37 38/38/38 
f 39/39/39 38/38/38 37/37/37 
f 40/40/40 41/41/41 42/42/42 
f 41/41/41 40/40/40 43/43/43 
f 40/40/40 44/44/44 43/43/43 
f 45/45/45 43/43/43 44/44/44 
f 46/46/46 41/41/41 43/43/43 
f 41/41/41 46/46/46 47/47/47 
f 43/43/43 45/45/45 48/48/48 
f 43/43/43 48/48/48 46/46/46 
f 45/45/45 49/49/49 48/48/48 
f 46/46/46 48/48/48 50/50/50 
f 51/51/51 52/52/52 53/53/53 
f 52/52/52 51/51/51 54/54/54 
f 52/52/52 54/54/54 55/55/55 
f 56/56/56 55/55/55 54/54/54 
f 51/51/51 57/57/57 54/54/54 
f 51/51/51 58/58/58 57/57/57 
f 56/56/56 54/54/54 59/59/59 
f 57/57/57 59/59/59 54/54/54 
f 56/56/56 59/59/59 60/60/60 
f 59/59/59 57/57/57 61/61/61 
f 62/62/62 63/63/63 64/64/64 
f 63/63/63 62/62/62 65/65/65 
f 63/63/63 66/66/66 64/64/64 
f 64/64/64 66/66/66 67/67/67 
f 65/65/65 68/68/68 63/63/63 
f 68/68/68 65/65/65 69/69/69 
f 63/63/63 70/70/70 66/66/66 
f 70/70/70 63/63/63 68/68/68 
f 67/67/67 66/66/66 71/71/71 
f 70/70/70 71/71/71 66/66/66 
f 71/71/71 72/72/72 67/67/67 
f 69/69/69 73/73/73 68/68/68 
f 73/73/73 69/69/69 74/74/74 
f 73/73/73 74/74/74 75/75/75 
f 73/73/73 75/75/75 76/76/76 
f 77/77/77 68/68/68 73/73/73 
f 73/73/73 76/76/76 77/77/77 
f 68/68/68 77/77/77 70/70/70 
f 77/77/77 76/76/76 78/78/78 
f 77/77/77 78/78/78 79/79/79 
f 79/79/79 70/70/70 77/77/77 
f 80/80/80 79/79/79 78/78/78 
f 70/70/70 79/79/79 81/81/81 
f 71/71/71 70/70/70 81/81/81 
f 82/82/82 79/79/79 80/80/80 
f 82/82/82 81/81/81 79/79/79 
f 82/82/82 80/80/80 83/83/83 
f 81/81/81 82/82/82 84/84/84 
f 83/83/83 84/84/84 82/82/82 
f 81/81/81 85/85/85 71/71/71 
f 85/85/85 81/81/81 84/84/84 
f 85/85/85 84/84/84 83/83/83 
f 72/72/72 71/71/71 85/85/85 
f 72/72/72 85/85/85 83/83/83 
f 86/86/86 87/87/87 88/88/88 
f 87/87/87 86/86/86 89/89/89 
f 90/90/90 88/88/88 87/87/87 
f 88/88/88 90/90/90 91/91/91 
f 87/87/87 89/89/89 92/92/92 
f 89/89/89 93/93/93 92/92/92 
f 87/87/87 94/94/94 90/90/90 
f 94/94/94 87/87/87 92/92/92 
f 93/93/93 95/95/95 92/92/92 
f 95/95/95 94/94/94 92/92/92 
f 96/96/96 95/95/95 93/93/93 
f 97/97/97 91/91/91 90/90/90 
f 91/91/91 97/97/97 98/98/98 
f 99/99/99 98/98/98 97/97/97 
f 99/99/99 97/97/97 100/100/100 
f 90/90/90 101/101/101 97/97/97 
f 100/100/100 97/97/97 101/101/101 
f 101/101/101 90/90/90 94/94/94 
f 100/100/100 101/101/101 102/102/102 
f 101/101/101 103/103/103 102/102/102 
f 94/94/94 103/103/103 101/101/101 
f 103/103/103 104/104/104 102/102/102 
f 103/103/103 94/94/94 105/105/105 
f 94/94/94 95/95/95 105/105/105 
f 103/103/103 106/106/106 104/104/104 
f 105/105/105 106/106/106 103/103/103 
f 106/106/106 107/107/107 104/104/104 
f 106/106/106 105/105/105 108/108/108 
f 107/107/107 106/106/106 108/108/108 
f 109/109/109 105/105/105 95/95/95 
f 105/105/105 109/109/109 108/108/108 
f 109/109/109 107/107/107 108/108/108 
f 95/95/95 96/96/96 109/109/109 
f 96/96/96 107/107/107 109/109/109 
f 110/110/110 111/111/111 112/112/112 
f 111/111/111 110/110/110 113/113/113 
f 110/110/110 114/114/114 113/113/113 
f 114/114/114 110/110/110 115/115/115 
f 114/114/114 115/115/115 116/116/116 
f 117/117/117 118/118/118 119/119/119 
f 118/118/118 117/117/117 120/120/120 
f 120/120/120 121/121/121 118/118/118 
f 121/121/121 120/120/120 122/122/122 
f 123/123/123 121/121/121 122/122/122 
f 123/123/123 124/124/124 121/121/121 
f 125/125/125 126/126/126 127/127/127 
f 126/126/126 125/125/125 128/128/128 
f 129/129/129 130/130/130 131/131/131 
f 129/129/129 131/131/131 132/132/132 
f 133/133/133 134/134/134 135/135/135 
f 136/136/136 134/134/134 133/133/133 
f 136/136/136 133/133/133 137/137/137 
f 136/136/136 137/137/137 138/138/138 
f 136/136/136 138/138/138 139/139/139 
f 139/139/139 140/140/140 136/136/136 
f 136/136/136 140/140/140 141/141/141 
f 142/142/142 136/136/136 141/141/141 
f 136/136/136 142/142/142 143/143/143 
f 142/142/142 144/144/144 143/143/143 
f 143/143/143 144/144/144 145/145/145 
f 146/146/146 147/147/147 148/148/148 
f 149/149/149 147/147/147 146/146/146 
f 150/150/150 151/151/151 152/152/152 
f 153/153/153 150/150/150 152/152/152 
f 154/154/154 150/150/150 153/153/153 
f 154/154/154 153/153/153 155/155/155 
f 156/156/156 153/153/153 157/157/157 
f 157/157/157 153/153/153 158/158/158 
f 153/153/153 159/159/159 158/158/158 
f 153/153/153 160/160/160 159/159/159 
f 160/160/160 153/153/153 161/161/161 
f 162/162/162 163/163/163 164/164/164 
f 165/165/165 162/162/162 164/164/164 
f 166/166/166 167/167/167 164/164/164 
f 167/167/167 166/166/166 168/168/168 
f 169/169/169 170/170/170 171/171/171 
f 172/172/172 171/171/171 170/170/170 
f 171/171/171 172/172/172 173/173/173 
f 174/174/174 172/172/172 170/170/170 
f 172/172/172 174/174/174 175/175/175 
f 170/170/170 176/176/176 174/174/174 
f 177/177/177 178/178/178 179/179/179 
f 178/178/178 177/177/177 180/180/180 
f 177/177/177 181/181/181 180/180/180 
f 180/180/180 181/181/181 182/182/182 
f 182/182/182 181/181/181 183/183/183 
f 184/184/184 182/182/182 183/183/183 
f 184/184/184 183/183/183 185/185/185 
f 186/186/186 184/184/184 185/185/185 
f 187/187/187 188/188/188 189/189/189 
f 187/187/187 189/189/189 190/190/190 
f 188/188/188 191/191/191 189/189/189 
f 188/188/188 192/192/192 191/191/191 
f 191/191/191 193/193/193 189/189/189 
f 189/189/189 193/193/193 194/194/194 
f 189/189/189 194/194/194 190/190/190 
f 190/190/190 194/194/194 195/195/195 
f 196/196/196 197/197/197 198/198/198 
f 199/199/199 200/200/200 201/201/201 
f 202/202/202 203/203/203 204/204/204 
f 204/204/204 205/205/205 206/206/206 
f 207/207/207 208/208/208 209/209/209 
f 210/210/210 211/211/211 209/209/209 
f 212/212/212 213/213/213 214/214/214 
f 215/215/215 216/216/216 217/217/217 
f 218/218/218 219/219/219 220/220/220 
f 221/221/221 222/222/222 223/223/223 
f 224/224/224 225/225/225 226/226/226 
f 227/227/227 228/228/228 229/229/229 
f 230/230/230 231/231/231 232/232/232 
f 233/233/233 234/234/234 235/235/235 
f 236/236/236 237/237/237 238/238/238 
f 237/237/237 236/236/236 239/239/239 
f 236/236/236 240/240/240 239/239/239 
f 240/240/240 236/236/236 241/241/241 
f 240/240/240 241/241/241 242/242/242 
f 243/243/243 244/244/244 245/245/245 
f 245/245/245 246/246/246 243/243/243 
f 247/247/247 248/248/248 249/249/249 
f 249/249/249 250/250/250 247/247/247 
f 251/251/251 252/252/252 253/253/253 
f 252/252/252 251/251/251 254/254/254 
f 255/255/255 256/256/256 257/257/257 
f 255/255/255 257/257/257 258/258/258 
f 259/259/259 260/260/260 261/261/261 
f 260/260/260 259/259/259 262/262/262 
f 263/263/263 264/264/264 265/265/265 
f 264/264/264 263/263/263 266/266/266 
f 267/267/267 268/268/268 269/269/269 
f 270/270/270 267/267/267 269/269/269 
f 269/269/269 271/271/271 270/270/270 
f 269/269/269 272/272/272 271/271/271 
f 273/273/273 267/267/267 270/270/270 
f 273/273/273 268/268/268 267/267/267 
f 270/270/270 274/274/274 273/273/273 
f 275/275/275 273/273/273 274/274/274 
f 272/272/272 269/269/269 276/276/276 
f 269/269/269 268/268/268 276/276/276 
f 276/276/276 277/277/277 272/272/272 
f 273/273/273 275/275/275 278/278/278 
f 268/268/268 273/273/273 278/278/278 
f 279/279/279 278/278/278 275/275/275 
f 268/268/268 280/280/280 276/276/276 
f 278/278/278 280/280/280 268/268/268 
f 277/277/277 276/276/276 281/281/281 
f 276/276/276 280/280/280 281/281/281 
f 278/278/278 279/279/279 282/282/282 
f 280/280/280 278/278/278 282/282/282 
f 279/279/279 283/283/283 282/282/282 
f 283/283/283 280/280/280 282/282/282 
f 283/283/283 279/279/279 284/284/284 
f 284/284/284 285/285/285 283/283/283 
f 280/280/280 283/283/283 286/286/286 
f 283/283/283 285/285/285 286/286/286 
f 280/280/280 287/287/287 281/281/281 
f 287/287/287 280/280/280 286/286/286 
f 285/285/285 287/287/287 286/286/286 
f 287/287/287 277/277/277 281/281/281 
f 285/285/285 288/288/288 287/287/287 
f 277/277/277 287/287/287 288/288/288 
f 289/289/289 290/290/290 291/291/291 
f 290/290/290 289/289/289 292/292/292 
f 292/292/292 293/293/293 290/290/290 
f 293/293/293 292/292/292 294/294/294 
f 295/295/295 296/296/296 297/297/297 
f 297/297/297 298/298/298 295/295/295 
f 298/298/298 297/297/297 299/299/299 
f 299/299/299 300/300/300 298/298/298 
f 301/301/301 302/302/302 303/303/303 
f 303/303/303 304/304/304 301/301/301 
f 305/305/305 306/306/306 307/307/307 
f 307/307/307 308/308/308 305/305/305 
f 309/309/309 310/310/310 311/311/311 
f 310/310/310 309/309/309 312/312/312 
f 313/313/313 314/314/314 315/315/315 
f 313/313/313 315/315/315 316/316/316 
f 315/315/315 317/317/317 316/316/316 
f 317/317/317 315/315/315 318/318/318 
f 319/319/319 320/320/320 321/321/321 
f 320/320/320 319/319/319 322/322/322 
f 323/323/323 324/324/324 325/325/325 
f 323/323/323 325/325/325 326/326/326 
f 327/327/327 328/328/328 329/329/329 
f 328/328/328 327/327/327 330/330/330 
f 331/331/331 332/332/332 333/333/333 
f 332/332/332 331/331/331 334/334/334 
f 335/335/335 336/336/336 337/337/337 
f 335/335/335 337/337/337 338/338/338 
f 339/339/339 340/340/340 341/341/341 
f 341/341/341 342/342/342 339/339/339 
f 343/343/343 344/344/344 345/345/345 
f 344/344/344 343/343/343 346/346/346 
f 347/347/347 348/348/348 349/349/349 
f 349/349/349 348/348/348 350/350/350 
f 350/350/350 348/348/348 351/351/351 
f 352/352/352 353/353/353 354/354/354 
f 353/353/353 355/355/355 354/354/354 
f 355/355/355 353/353/353 356/356/356 
f 357/357/357 354/354/354 355/355/355 
f 358/358/358 356/356/356 353/353/353 
f 353/353/353 359/359/359 358/358/358 
f 353/353/353 352/352/352 359/359/359 
f 358/358/358 359/359/359 360/360/360 
f 352/352/352 360/360/360 359/359/359 
f 360/360/360 361/361/361 358/358/358 
f 360/360/360 362/362/362 361/361/361 
f 354/354/354 357/357/357 363/363/363 
f 362/362/362 360/360/360 364/364/364 
f 360/360/360 352/352/352 364/364/364 
f 364/364/364 365/365/365 362/362/362 
f 354/354/354 366/366/366 352/352/352 
f 366/366/366 364/364/364 352/352/352 
f 366/366/366 354/354/354 363/363/363 
f 365/365/365 364/364/364 367/367/367 
f 364/364/364 366/366/366 367/367/367 
f 365/365/365 367/367/367 368/368/368 
f 366/366/366 368/368/368 367/367/367 
f 365/365/365 368/368/368 369/369/369 
f 368/368/368 370/370/370 369/369/369 
f 368/368/368 366/366/366 371/371/371 
f 371/371/371 370/370/370 368/368/368 
f 366/366/366 363/363/363 372/372/372 
f 372/372/372 371/371/371 366/366/366 
f 371/371/371 372/372/372 370/370/370 
f 357/357/357 372/372/372 363/363/363 
f 370/370/370 372/372/372 373/373/373 
f 372/372/372 357/357/357 373/373/373 
f 374/374/374 375/375/375 376/376/376 
f 375/375/375 374/374/374 377/377/377 
f 378/378/378 379/379/379 380/380/380 
f 378/378/378 380/380/380 381/381/381 
f 382/382/382 383/383/383 384/384/384 
f 383/383/383 382/382/382 385/385/385 
f 386/386/386 387/387/387 388/388/388 
f 387/387/387 386/386/386 389/389/389 
f 390/390/390 391/391/391 392/392/392 
f 391/391/391 390/390/390 393/393/393 
f 394/394/394 395/395/395 396/396/396 
f 395/395/395 394/394/394 397/397/397 
f 397/397/397 398/398/398 395/395/395 
f 398/398/398 397/397/397 399/399/399 
f 398/398/398 399/399/399 400/400/400 
f 401/401/401 402/402/402 403/403/403 
f 402/402/402 401/401/401 404/404/404 
f 405/405/405 406/406/406 407/407/407 
f 406/406/406 405/405/405 408/408/408 
f 409/409/409 410/410/410 411/411/411 
f 410/410/410 409/409/409 412/412/412 
f 413/413/413 414/414/414 415/415/415 
f 414/414/414 413/413/413 416/416/416 
f 417/417/417 418/418/418 419/419/419 
f 419/419/419 418/418/418 420/420/420 
f 419/419/419 420/420/420 421/421/421 
f 422/422/422 419/419/419 421/421/421 
f 423/423/423 417/417/417 419/419/419 
f 423/423/423 424/424/424 417/417/417 
f 423/423/423 425/425/425 424/424/424 
f 425/425/425 423/423/423 426/426/426 
f 427/427/427 428/428/428 429/429/429 
f 427/427/427 429/429/429 430/430/430 
f 431/431/431 432/432/432 433/433/433 
f 432/432/432 431/431/431 434/434/434 
f 435/435/435 436/436/436 437/437/437 
f 436/436/436 435/435/435 438/438/438 
f 439/439/439 440/440/440 441/441/441 
f 441/441/441 442/442/442 439/439/439 
f 443/443/443 444/444/444 445/445/445 
f 444/444/444 443/443/443 446/446/446 
f 447/447/447 448/448/448 449/449/449 
f 450/450/450 447/447/447 449/449/449 
f 450/450/450 451/451/451 452/452/452 
f 453/453/453 450/450/450 452/452/452 
f 454/454/454 450/450/450 455/455/455 
f 450/450/450 456/456/456 455/455/455 
f 450/450/450 457/457/457 456/456/456 
f 450/450/450 458/458/458 457/457/457 
f 458/458/458 450/450/450 459/459/459 
f 460/460/460 461/461/461 462/462/462 
f 463/463/463 461/461/461 460/460/460 
f 464/464/464 465/465/465 466/466/466 
f 465/465/465 464/464/464 467/467/467 
f 468/468/468 469/469/469 470/470/470 
f 471/471/471 469/469/469 468/468/468 
f 471/471/471 472/472/472 473/473/473 
f 472/472/472 471/471/471 474/474/474 
f 471/471/471 475/475/475 474/474/474 
f 471/471/471 476/476/476 475/475/475 
f 476/476/476 471/471/471 477/477/477 
f 478/478/478 479/479/479 480/480/480 
f 481/481/481 479/479/479 478/478/478 
f 482/482/482 479/479/479 483/483/483 
f 483/483/483 484/484/484 482/482/482 
f 485/485/485 486/486/486 487/487/487 
f 486/486/486 488/488/488 487/487/487 
f 489/489/489 490/490/490 491/491/491 
f 492/492/492 490/490/490 489/489/489 
f 489/489/489 491/491/491 493/493/493 
f 494/494/494 495/495/495 496/496/496 
f 496/496/496 495/495/495 497/497/497 
f 498/498/498 496/496/496 497/497/497 

