# This file is brought to you by Roblox Corporation
# Generated by Roblox Studio

mtllib t2.mtl

g Tier21

v 0.611823 -2.6799 1.883 
v -4.17233e-07 -2.96525 1.6458 
v 0.508581 -2.96525 1.56525 
v -3.12925e-07 -3.19482 1.27118 
v 1.33148 -2.3458 1.83263 
v 1.16376 -2.6799 1.60178 
v 2.01836 -1.97118 1.46642 
v 1.83263 -2.3458 1.33148 
v 2.37272 -1.97118 0.770944 
v 2.53263 -1.56525 0.822902 
v 0.392815 -3.19482 1.20896 
v -4.06803e-07 -3.36296 0.865249 
v 0.967378 -2.96525 1.33148 
v 1.60178 -2.6799 1.16376 
v 2.15438 -2.3458 0.700002 
v 0.267376 -3.36296 0.822901 
v -4.17233e-07 -3.46553 0.438017 
v 0.747179 -3.19482 1.0284 
v 1.33148 -2.96525 0.967379 
v 0.135354 -3.46553 0.416579 
v -3.49684e-07 -3.50001 -8.81267e-08 
v 0.508581 -3.36296 0.700002 
v 1.0284 -3.19482 0.747179 
v 1.883 -2.6799 0.611824 
v 1.56525 -2.96525 0.508581 
v 0.25746 -3.46553 0.354364 
v -3.49684e-07 -3.50001 -8.81267e-08 
v 0.700001 -3.36296 0.508581 
v 1.20896 -3.19482 0.392815 
v 0.354363 -3.46553 0.25746 
v -3.49684e-07 -3.50001 -8.81267e-08 
v 0.822901 -3.36296 0.267377 
v 0.416579 -3.46553 0.135355 
v -3.49684e-07 -3.50001 -8.81267e-08 
v 1.27118 -3.19482 -1.14393e-07 
v 1.6458 -2.96525 2.73176e-08 
v 1.9799 -2.6799 2.61562e-07 
v 0.865249 -3.36296 6.68307e-08 
v -2.08617e-07 -1.56525 2.66297 
v -0.822902 -1.56525 2.53263 
v -0.770943 -1.97118 2.37272 
v -2.92064e-07 -1.97118 2.49483 
v -1.56525 -1.56525 2.15438 
v -1.46642 -1.97118 2.01835 
v -2.15438 -1.56525 1.56525 
v -2.01836 -1.97118 1.46642 
v -2.37272 -1.97118 0.770943 
v -2.53263 -1.56525 0.822902 
v -0.700002 -2.3458 2.15438 
v -3.7551e-07 -2.3458 2.26525 
v -1.33148 -2.3458 1.83263 
v -1.83263 -2.3458 1.33148 
v -2.15438 -2.3458 0.700002 
v -0.611824 -2.6799 1.883 
v -3.96372e-07 -2.6799 1.9799 
v -1.16376 -2.6799 1.60178 
v -1.60178 -2.6799 1.16376 
v -1.883 -2.6799 0.611824 
v -0.508581 -2.96525 1.56525 
v -4.17233e-07 -2.96525 1.6458 
v -0.967379 -2.96525 1.33148 
v -1.33148 -2.96525 0.967378 
v -1.56525 -2.96525 0.508581 
v -0.392815 -3.19482 1.20896 
v -3.12925e-07 -3.19482 1.27118 
v -0.747179 -3.19482 1.0284 
v -1.0284 -3.19482 0.747179 
v -1.20896 -3.19482 0.392815 
v -0.267377 -3.36296 0.822901 
v -4.06803e-07 -3.36296 0.865249 
v -0.508581 -3.36296 0.700001 
v -0.700002 -3.36296 0.508581 
v -2.71202e-07 2.69788 1.64581 
v -0.611825 2.26985 1.883 
v -3.7551e-07 2.26985 1.97991 
v -0.508582 2.69788 1.56525 
v -1.87755e-07 3.04223 1.27118 
v -0.700002 1.7687 2.15438 
v -2.92064e-07 1.7687 2.26525 
v -0.392816 3.04223 1.20896 
v -3.44218e-07 3.29444 0.865253 
v -1.16376 2.26985 1.60178 
v -0.267378 3.29444 0.822904 
v -3.65079e-07 3.4483 0.438021 
v -0.967379 2.69788 1.33148 
v -0.74718 3.04223 1.02841 
v -0.135356 3.4483 0.416582 
v -3.70546e-07 3.50001 1.08987e-06 
v -0.508582 3.29444 0.700004 
v -0.257462 3.4483 0.354366 
v -3.70546e-07 3.50001 1.08987e-06 
v -1.0284 3.04223 0.747181 
v -0.700003 3.29444 0.508583 
v -0.354366 3.4483 0.257463 
v -3.70546e-07 3.50001 1.08987e-06 
v -1.33148 2.69788 0.96738 
v -1.20896 3.04223 0.392817 
v -0.822903 3.29444 0.267378 
v -0.416582 3.4483 0.135357 
v -3.70546e-07 3.50001 1.08987e-06 
v -1.56525 2.69788 0.508582 
v -1.60178 2.26985 1.16376 
v -1.883 2.26985 0.611825 
v -1.6458 2.69788 1.05427e-06 
v -1.9799 2.26985 8.38501e-07 
v -1.27118 3.04223 1.17295e-06 
v -0.865252 3.29444 1.09931e-06 
v -0.43802 3.4483 1.08786e-06 
v -3.70546e-07 3.50001 1.08987e-06 
v -1.20896 3.04223 -0.392814 
v -0.822903 3.29444 -0.267376 
v -0.416582 3.4483 -0.135354 
v -3.70546e-07 3.50001 1.08987e-06 
v -1.56525 2.69788 -0.50858 
v -1.0284 3.04223 -0.747178 
v -0.700003 3.29444 -0.508581 
v -0.354366 3.4483 -0.25746 
v -3.70546e-07 3.50001 1.08987e-06 
v -1.33148 2.69788 -0.967378 
v -1.883 2.26985 -0.611823 
v -1.60178 2.26985 -1.16376 
v -0.96738 2.69788 -1.33148 
v -1.16376 2.26985 -1.60178 
v -0.74718 3.04223 -1.0284 
v -0.508582 3.29444 -0.700002 
v -0.257462 3.4483 -0.354364 
v -3.70546e-07 3.50001 1.08987e-06 
v -0.392816 3.04223 -1.20896 
v -0.267378 3.29444 -0.822902 
v -0.135356 3.4483 -0.41658 
v -3.70546e-07 3.50001 1.08987e-06 
v -0.508582 2.69788 -1.56525 
v -5.21542e-07 3.04223 -1.27118 
v -4.58957e-07 3.29444 -0.86525 
v -4.58957e-07 3.4483 -0.438019 
v -3.70546e-07 3.50001 1.08987e-06 
v -5.63265e-07 2.69788 -1.6458 
v -0.611824 2.26985 -1.883 
v -2.5034e-07 2.26985 -1.9799 
v 0.508581 2.69788 -1.56525 
v 0.611824 2.26985 -1.883 
v 0.392815 3.04223 -1.20896 
v 0.267377 3.29444 -0.822902 
v 0.135355 3.4483 -0.41658 
v -3.70546e-07 3.50001 1.08987e-06 
v 0.747179 3.04223 -1.0284 
v 0.508581 3.29444 -0.700002 
v 0.257461 3.4483 -0.354364 
v -3.70546e-07 3.50001 1.08987e-06 
v 0.967379 2.69788 -1.33148 
v 1.0284 3.04223 -0.747178 
v 0.700002 3.29444 -0.508581 
v 0.354365 3.4483 -0.25746 
v -3.70546e-07 3.50001 1.08987e-06 
v 1.33148 2.69788 -0.967378 
v 1.16376 2.26985 -1.60178 
v 1.60178 2.26985 -1.16376 
v 1.56525 2.69788 -0.50858 
v 1.883 2.26985 -0.611823 
v 1.20896 3.04223 -0.392815 
v 0.822903 3.29444 -0.267376 
v 0.416581 3.4483 -0.135355 
v -3.70546e-07 3.50001 1.08987e-06 
v 1.27118 3.04223 9.64338e-07 
v 0.865251 3.29444 1.08887e-06 
v 0.438019 3.4483 1.04614e-06 
v -3.70546e-07 3.50001 1.08987e-06 
v 1.6458 2.69788 8.66512e-07 
v 1.20896 3.04223 0.392816 
v 0.822903 3.29444 0.267378 
v 0.416581 3.4483 0.135357 
v -3.70546e-07 3.50001 1.08987e-06 
v 1.56525 2.69788 0.508582 
v 1.9799 2.26985 9.01086e-07 
v 1.883 2.26985 0.611825 
v 1.33148 2.69788 0.96738 
v 1.60178 2.26985 1.16376 
v 1.0284 3.04223 0.747181 
v 0.700003 3.29444 0.508583 
v 0.354365 3.4483 0.257463 
v -3.70546e-07 3.50001 1.08987e-06 
v 0.74718 3.04223 1.02841 
v 0.508582 3.29444 0.700004 
v 0.257461 3.4483 0.354366 
v -3.70546e-07 3.50001 1.08987e-06 
v 0.967379 2.69788 1.33148 
v 0.392816 3.04223 1.20896 
v 0.267377 3.29444 0.822904 
v 0.135355 3.4483 0.416583 
v -3.70546e-07 3.50001 1.08987e-06 
v -3.44218e-07 3.29444 0.865253 
v -3.65079e-07 3.4483 0.438021 
v -3.70546e-07 3.50001 1.08987e-06 
v -1.87755e-07 3.04223 1.27118 
v -2.71202e-07 2.69788 1.64581 
v 0.508581 2.69788 1.56525 
v -3.7551e-07 2.26985 1.97991 
v 0.611824 2.26985 1.883 
v -2.92064e-07 1.7687 2.26525 
v 1.16376 2.26985 1.60178 
v 0.700002 1.7687 2.15439 
v -4.17233e-07 1.20676 2.49483 
v 1.33148 1.7687 1.83263 
v 0.770943 1.20676 2.37272 
v -3.7551e-07 0.597872 2.66297 
v 1.83263 1.7687 1.33148 
v 1.46642 1.20676 2.01836 
v 0.822901 0.597872 2.53263 
v -1.2517e-07 -0.0429761 2.76554 
v 2.15438 1.7687 0.700003 
v 2.01836 1.20676 1.46642 
v 1.56525 0.597872 2.15439 
v 0.854597 -0.0429761 2.63018 
v -3.7551e-07 -0.700002 2.80001 
v 2.26525 1.7687 7.77715e-07 
v 2.37272 1.20676 0.770945 
v 2.15438 1.7687 -0.700001 
v 2.49483 1.20676 1.01995e-06 
v 2.15438 0.597872 1.56525 
v 2.53263 0.597872 0.822903 
v 1.62554 -0.0429761 2.23737 
v 2.23736 -0.0429759 1.62554 
v 0.86525 -0.700002 2.66297 
v -3.7551e-07 -1.13802 2.76553 
v 1.6458 -0.700002 2.26525 
v 0.854597 -1.13802 2.63018 
v -2.08617e-07 -1.56525 2.66297 
v 0.822902 -1.56525 2.53263 
v -2.92064e-07 -1.97118 2.49483 
v 1.62554 -1.13802 2.23737 
v 2.26525 -0.700002 1.6458 
v 2.63018 -0.0429758 0.854598 
v 0.770943 -1.97118 2.37272 
v -3.7551e-07 -2.3458 2.26525 
v 1.56525 -1.56525 2.15438 
v 2.23736 -1.13802 1.62554 
v 2.66297 -0.700002 0.86525 
v 0.700002 -2.3458 2.15438 
v -3.96372e-07 -2.6799 1.9799 
v 1.46642 -1.97118 2.01836 
v 2.15438 -1.56525 1.56525 
v 2.63018 -1.13802 0.854598 
v -0.135355 -3.46553 0.416579 
v -4.17233e-07 -3.46553 0.438017 
v -3.49684e-07 -3.50001 -8.81267e-08 
v -0.257461 -3.46553 0.354363 
v -3.49684e-07 -3.50001 -8.81267e-08 
v -0.354364 -3.46553 0.25746 
v -3.49684e-07 -3.50001 -8.81267e-08 
v -0.41658 -3.46553 0.135355 
v -3.49684e-07 -3.50001 -8.81267e-08 
v -0.822902 -3.36296 0.267377 
v -0.438018 -3.46553 -8.54808e-08 
v -3.49684e-07 -3.50001 -8.81267e-08 
v -0.86525 -3.36296 2.51073e-08 
v -1.27118 -3.19482 3.16392e-08 
v -0.41658 -3.46553 -0.135355 
v -3.49684e-07 -3.50001 -8.81267e-08 
v -0.822902 -3.36296 -0.267377 
v -0.354364 -3.46553 -0.25746 
v -3.49684e-07 -3.50001 -8.81267e-08 
v -1.6458 -2.96525 2.35934e-07 
v -1.20896 -3.19482 -0.392815 
v -0.700002 -3.36296 -0.508581 
v -0.257461 -3.46553 -0.354364 
v -3.49684e-07 -3.50001 -8.81267e-08 
v -1.9799 -2.6799 1.36392e-07 
v -1.56525 -2.96525 -0.508581 
v -2.26525 -2.3458 2.39305e-08 
v -1.883 -2.6799 -0.611824 
v -1.0284 -3.19482 -0.747178 
v -1.33148 -2.96525 -0.967378 
v -2.49482 -1.97118 2.51858e-07 
v -2.15438 -2.3458 -0.700002 
v -1.60178 -2.6799 -1.16376 
v -2.66297 -1.56525 4.43162e-07 
v -2.63018 -1.13802 0.854597 
v -2.37272 -1.97118 -0.770943 
v -2.76553 -1.13802 2.20704e-07 
v -2.66297 -0.700002 0.86525 
v -2.53263 -1.56525 -0.822901 
v -1.83263 -2.3458 -1.33148 
v -2.01836 -1.97118 -1.46642 
v -2.80001 -0.700002 2.92066e-07 
v -2.63018 -0.0429758 0.854597 
v -2.76553 -0.0429757 4.82555e-07 
v -2.66297 -0.700002 -0.865249 
v -2.63018 -1.13802 -0.854597 
v -2.23736 -1.13802 -1.62554 
v -2.26525 -0.700001 -1.6458 
v -1.62554 -1.13802 -2.23736 
v -2.15438 -1.56525 -1.56525 
v -1.56525 -1.56525 -2.15438 
v -0.822902 -1.56525 -2.53263 
v -0.854597 -1.13802 -2.63018 
v -1.46642 -1.97118 -2.01836 
v -0.770944 -1.97118 -2.37272 
v -5.84127e-07 -1.56525 -2.66296 
v -2.08617e-07 -1.13802 -2.76553 
v -4.58957e-07 -1.97118 -2.49482 
v -1.33148 -2.3458 -1.83263 
v -0.700002 -2.3458 -2.15438 
v -2.92064e-07 -2.3458 -2.26525 
v -1.16376 -2.6799 -1.60178 
v -0.611824 -2.6799 -1.883 
v -1.87755e-07 -2.6799 -1.9799 
v -0.967379 -2.96525 -1.33148 
v -0.508581 -2.96525 -1.56525 
v -5.42403e-07 -2.96525 -1.6458 
v -0.747179 -3.19482 -1.0284 
v -0.392816 -3.19482 -1.20896 
v -6.67573e-07 -3.19482 -1.27118 
v -0.508581 -3.36296 -0.700001 
v -0.267377 -3.36296 -0.822901 
v -0.135355 -3.46553 -0.416579 
v -3.49684e-07 -3.50001 -8.81267e-08 
v -3.33787e-07 -3.46553 -0.438018 
v -3.49684e-07 -3.50001 -8.81267e-08 
v -4.06803e-07 -3.36296 -0.865249 
v 0.135355 -3.46553 -0.416579 
v -3.49684e-07 -3.50001 -8.81267e-08 
v 0.267376 -3.36296 -0.822901 
v 0.392814 -3.19482 -1.20896 
v 0.25746 -3.46553 -0.354364 
v -3.49684e-07 -3.50001 -8.81267e-08 
v 0.508581 -3.36296 -0.700001 
v 0.354363 -3.46553 -0.25746 
v -3.49684e-07 -3.50001 -8.81267e-08 
v 0.50858 -2.96525 -1.56525 
v 0.747178 -3.19482 -1.0284 
v 0.700001 -3.36296 -0.508581 
v 0.416579 -3.46553 -0.135355 
v -3.49684e-07 -3.50001 -8.81267e-08 
v 0.822901 -3.36296 -0.267377 
v 1.0284 -3.19482 -0.747179 
v 1.20896 -3.19482 -0.392815 
v 0.967378 -2.96525 -1.33148 
v 1.33148 -2.96525 -0.967378 
v 0.611824 -2.6799 -1.883 
v 1.16376 -2.6799 -1.60178 
v 0.700001 -2.3458 -2.15438 
v 0.770943 -1.97118 -2.37272 
v 1.33148 -2.3458 -1.83263 
v 0.822901 -1.56525 -2.53263 
v 0.854597 -1.13802 -2.63018 
v 1.46642 -1.97118 -2.01836 
v 1.56525 -1.56525 -2.15438 
v 1.62554 -1.13802 -2.23736 
v 2.15438 -1.56525 -1.56525 
v 2.01836 -1.97118 -1.46642 
v 2.37272 -1.97118 -0.770943 
v 1.83263 -2.3458 -1.33148 
v 2.15438 -2.3458 -0.700001 
v 2.26525 -2.3458 4.41164e-07 
v 1.883 -2.6799 -0.611824 
v 1.60178 -2.6799 -1.16376 
v 1.56525 -2.96525 -0.508581 
v 0.438017 -3.46553 -2.28958e-08 
v -3.49684e-07 -3.50001 -8.81267e-08 
v -3.49684e-07 -3.50001 -8.81267e-08 
v 2.49483 -1.97118 1.26688e-07 
v 2.66297 -1.56525 1.09375e-07 
v 2.76553 -1.13802 6.37937e-07 
v 2.53263 -1.56525 -0.822901 
v 2.63018 -1.13802 -0.854597 
v 2.80001 -0.700002 5.42405e-07 
v 2.66297 -0.700002 -0.865249 
v 2.76553 -0.0429757 4.82555e-07 
v 2.63018 -0.0429756 -0.854597 
v 2.66297 0.597872 7.95579e-07 
v 2.53263 0.597872 -0.822901 
v 2.37272 1.20676 -0.770942 
v 1.83263 1.7687 -1.33148 
v 2.01836 1.20676 -1.46642 
v 1.33148 1.7687 -1.83263 
v 2.15438 0.597872 -1.56525 
v 1.46642 1.20676 -2.01836 
v 0.700001 1.7687 -2.15438 
v 2.23736 -0.0429754 -1.62554 
v 1.56525 0.597873 -2.15438 
v 0.770943 1.20676 -2.37272 
v -6.2585e-07 1.7687 -2.26525 
v -0.700003 1.7687 -2.15438 
v -2.08617e-07 1.20676 -2.49482 
v -1.33148 1.7687 -1.83263 
v -0.770943 1.20676 -2.37272 
v 0.822901 0.597873 -2.53263 
v -1.66894e-07 0.597873 -2.66296 
v 1.62554 -0.0429753 -2.23736 
v 0.854597 -0.0429753 -2.63018 
v 2.26525 -0.700001 -1.6458 
v 1.6458 -0.700001 -2.26525 
v 2.23736 -1.13802 -1.62554 
v 0.86525 -0.700001 -2.66296 
v -4.58957e-07 -0.0429752 -2.76553 
v -0.822902 0.597873 -2.53263 
v -1.2517e-07 -0.700001 -2.80001 
v -0.854598 -0.0429753 -2.63018 
v -1.46642 1.20676 -2.01835 
v -1.56525 0.597873 -2.15438 
v -1.83263 1.7687 -1.33148 
v -2.01836 1.20676 -1.46642 
v -2.15438 1.7687 -0.700001 
v -2.26525 1.7687 1.02805e-06 
v -2.37272 1.20676 -0.770943 
v -2.15438 1.7687 0.700003 
v -2.49482 1.20676 5.1927e-07 
v -2.15438 0.597872 -1.56525 
v -2.53263 0.597872 -0.822901 
v -1.62554 -0.0429753 -2.23736 
v -2.23736 -0.0429754 -1.62554 
v -0.86525 -0.700001 -2.66296 
v -1.6458 -0.700001 -2.26525 
v -2.63018 -0.0429756 -0.854596 
v -2.66297 0.597872 4.20069e-07 
v -2.37272 1.20676 0.770944 
v -2.53263 0.597872 0.822902 
v -1.83263 1.7687 1.33148 
v -2.01836 1.20676 1.46642 
v -1.33148 1.7687 1.83263 
v -1.46642 1.20676 2.01836 
v -2.15438 0.597872 1.56525 
v -0.770944 1.20676 2.37272 
v -4.17233e-07 1.20676 2.49483 
v -1.56525 0.597872 2.15438 
v -0.822902 0.597872 2.53263 
v -3.7551e-07 0.597872 2.66297 
v -2.23736 -0.0429759 1.62554 
v -1.62554 -0.0429761 2.23736 
v -0.854597 -0.0429761 2.63018 
v -1.2517e-07 -0.0429761 2.76554 
v -0.86525 -0.700002 2.66296 
v -3.7551e-07 -0.700002 2.80001 
v -1.6458 -0.700002 2.26525 
v -2.26525 -0.700002 1.6458 
v -0.854597 -1.13802 2.63018 
v -3.7551e-07 -1.13802 2.76553 
v -1.62554 -1.13802 2.23736 
v -2.23736 -1.13802 1.62554 

vn 0.220472 -0.700787 0.677165 
vn 0 -0.80315 0.590551 
vn 0.181102 -0.80315 0.566929 
vn 0 -0.889764 0.456693 
vn 0.480315 -0.582677 0.653543 
vn 0.417323 -0.700787 0.574803 
vn 0.724409 -0.448819 0.527559 
vn 0.653543 -0.582677 0.480315 
vn 0.850394 -0.448819 0.275591 
vn 0.905512 -0.307087 0.291339 
vn 0.141732 -0.889764 0.440945 
vn 0 -0.944882 0.314961 
vn 0.346457 -0.80315 0.480315 
vn 0.574803 -0.700787 0.417323 
vn 0.771654 -0.582677 0.251969 
vn 0.0944882 -0.952756 0.299213 
vn 0 -0.984252 0.165354 
vn 0.267717 -0.889764 0.370079 
vn 0.480315 -0.80315 0.346457 
vn 0.0472441 -0.984252 0.15748 
vn 0 -1 0 
vn 0.188976 -0.944882 0.251969 
vn 0.370079 -0.889764 0.267717 
vn 0.677165 -0.700787 0.220472 
vn 0.566929 -0.80315 0.181102 
vn 0.0944882 -0.984252 0.133858 
vn 0 -1 0 
vn 0.251969 -0.944882 0.188976 
vn 0.440945 -0.889764 0.141732 
vn 0.133858 -0.984252 0.0944882 
vn 0 -1 0 
vn 0.299213 -0.952756 0.0944882 
vn 0.15748 -0.984252 0.0472441 
vn 0 -1 0 
vn 0.456693 -0.889764 0 
vn 0.590551 -0.80315 0 
vn 0.708661 -0.700787 0 
vn 0.314961 -0.944882 0 
vn 0 -0.307087 0.952756 
vn -0.291339 -0.307087 0.905512 
vn -0.275591 -0.448819 0.850394 
vn 0 -0.448819 0.889764 
vn -0.559055 -0.307087 0.771654 
vn -0.527559 -0.448819 0.724409 
vn -0.771654 -0.307087 0.559055 
vn -0.724409 -0.448819 0.527559 
vn -0.850394 -0.448819 0.275591 
vn -0.905512 -0.307087 0.291339 
vn -0.251969 -0.582677 0.771654 
vn 0 -0.582677 0.811024 
vn -0.480315 -0.582677 0.653543 
vn -0.653543 -0.582677 0.480315 
vn -0.771654 -0.582677 0.251969 
vn -0.220472 -0.700787 0.677165 
vn 0 -0.700787 0.708661 
vn -0.417323 -0.700787 0.574803 
vn -0.574803 -0.700787 0.417323 
vn -0.677165 -0.700787 0.220472 
vn -0.181102 -0.80315 0.566929 
vn 0 -0.80315 0.590551 
vn -0.346457 -0.80315 0.480315 
vn -0.480315 -0.80315 0.346457 
vn -0.566929 -0.80315 0.181102 
vn -0.141732 -0.889764 0.440945 
vn 0 -0.889764 0.456693 
vn -0.267717 -0.889764 0.370079 
vn -0.370079 -0.889764 0.267717 
vn -0.440945 -0.889764 0.141732 
vn -0.0944882 -0.944882 0.299213 
vn 0 -0.944882 0.314961 
vn -0.188976 -0.944882 0.251969 
vn -0.251969 -0.944882 0.188976 
vn 0 0.677165 0.740157 
vn -0.259843 0.551181 0.795276 
vn 0 0.551181 0.834646 
vn -0.228346 0.677165 0.700787 
vn 0 0.795276 0.614173 
vn -0.275591 0.433071 0.858268 
vn 0 0.433071 0.897638 
vn -0.188976 0.795276 0.582677 
vn 0 0.897638 0.440945 
vn -0.488189 0.551181 0.677165 
vn -0.133858 0.897638 0.425197 
vn 0 0.968504 0.23622 
vn -0.433071 0.677165 0.598425 
vn -0.362205 0.795276 0.496063 
vn -0.0708661 0.968504 0.228346 
vn 0 1 0 
vn -0.259843 0.897638 0.362205 
vn -0.141732 0.968504 0.19685 
vn 0 1 0 
vn -0.496063 0.795276 0.362205 
vn -0.362205 0.897638 0.259843 
vn -0.19685 0.968504 0.141732 
vn 0 1 0 
vn -0.598425 0.677165 0.433071 
vn -0.582677 0.795276 0.188976 
vn -0.425197 0.897638 0.133858 
vn -0.228346 0.968504 0.0708661 
vn 0 1 0 
vn -0.700787 0.677165 0.228346 
vn -0.677165 0.551181 0.488189 
vn -0.795276 0.551181 0.259843 
vn -0.740157 0.677165 0 
vn -0.834646 0.551181 0 
vn -0.614173 0.795276 0 
vn -0.440945 0.897638 0 
vn -0.23622 0.968504 0 
vn 0 1 0 
vn -0.582677 0.795276 -0.188976 
vn -0.425197 0.897638 -0.133858 
vn -0.228346 0.968504 -0.0708661 
vn 0 1 0 
vn -0.700787 0.677165 -0.228346 
vn -0.496063 0.795276 -0.362205 
vn -0.362205 0.897638 -0.259843 
vn -0.19685 0.968504 -0.141732 
vn 0 1 0 
vn -0.598425 0.677165 -0.433071 
vn -0.795276 0.551181 -0.259843 
vn -0.677165 0.551181 -0.488189 
vn -0.433071 0.677165 -0.598425 
vn -0.488189 0.551181 -0.677165 
vn -0.362205 0.795276 -0.496063 
vn -0.259843 0.897638 -0.362205 
vn -0.141732 0.968504 -0.19685 
vn 0 1 0 
vn -0.188976 0.795276 -0.582677 
vn -0.133858 0.897638 -0.425197 
vn -0.0708661 0.968504 -0.228346 
vn 0 1 0 
vn -0.228346 0.677165 -0.700787 
vn 0 0.795276 -0.614173 
vn 0 0.897638 -0.440945 
vn 0 0.968504 -0.23622 
vn 0 1 0 
vn 0 0.677165 -0.740157 
vn -0.259843 0.551181 -0.795276 
vn 0 0.551181 -0.834646 
vn 0.228346 0.677165 -0.700787 
vn 0.259843 0.551181 -0.795276 
vn 0.188976 0.795276 -0.582677 
vn 0.133858 0.897638 -0.425197 
vn 0.0708661 0.968504 -0.228346 
vn 0 1 0 
vn 0.362205 0.795276 -0.496063 
vn 0.259843 0.897638 -0.362205 
vn 0.141732 0.968504 -0.19685 
vn 0 1 0 
vn 0.433071 0.677165 -0.598425 
vn 0.496063 0.795276 -0.362205 
vn 0.362205 0.897638 -0.259843 
vn 0.19685 0.968504 -0.141732 
vn 0 1 0 
vn 0.598425 0.677165 -0.433071 
vn 0.488189 0.551181 -0.677165 
vn 0.677165 0.551181 -0.488189 
vn 0.700787 0.677165 -0.228346 
vn 0.795276 0.551181 -0.259843 
vn 0.582677 0.795276 -0.188976 
vn 0.425197 0.897638 -0.133858 
vn 0.228346 0.968504 -0.0708661 
vn 0 1 0 
vn 0.614173 0.795276 0 
vn 0.440945 0.897638 0 
vn 0.23622 0.968504 0 
vn 0 1 0 
vn 0.740157 0.677165 0 
vn 0.582677 0.795276 0.188976 
vn 0.425197 0.897638 0.133858 
vn 0.228346 0.968504 0.0708661 
vn 0 1 0 
vn 0.700787 0.677165 0.228346 
vn 0.834646 0.551181 0 
vn 0.795276 0.551181 0.259843 
vn 0.598425 0.677165 0.433071 
vn 0.677165 0.551181 0.488189 
vn 0.496063 0.795276 0.362205 
vn 0.362205 0.897638 0.259843 
vn 0.19685 0.968504 0.141732 
vn 0 1 0 
vn 0.362205 0.795276 0.496063 
vn 0.259843 0.897638 0.362205 
vn 0.141732 0.968504 0.19685 
vn 0 1 0 
vn 0.433071 0.677165 0.598425 
vn 0.188976 0.795276 0.582677 
vn 0.133858 0.897638 0.425197 
vn 0.0708661 0.968504 0.228346 
vn 0 1 0 
vn 0 0.897638 0.440945 
vn 0 0.968504 0.23622 
vn 0 1 0 
vn 0 0.795276 0.614173 
vn 0 0.677165 0.740157 
vn 0.228346 0.677165 0.700787 
vn 0 0.551181 0.834646 
vn 0.259843 0.551181 0.795276 
vn 0 0.433071 0.897638 
vn 0.488189 0.551181 0.677165 
vn 0.275591 0.433071 0.858268 
vn 0 0.322835 0.944882 
vn 0.527559 0.433071 0.732283 
vn 0.291339 0.322835 0.897638 
vn 0 0.212598 0.976378 
vn 0.732283 0.433071 0.527559 
vn 0.559055 0.322835 0.76378 
vn 0.299213 0.212598 0.929134 
vn 0 0.102362 0.992126 
vn 0.858268 0.433071 0.275591 
vn 0.76378 0.322835 0.559055 
vn 0.574803 0.212598 0.787402 
vn 0.307087 0.102362 0.944882 
vn 0 -0.015748 1 
vn 0.897638 0.433071 0 
vn 0.897638 0.322835 0.291339 
vn 0.858268 0.433071 -0.275591 
vn 0.944882 0.322835 0 
vn 0.787402 0.212598 0.574803 
vn 0.929134 0.212598 0.299213 
vn 0.582677 0.102362 0.80315 
vn 0.80315 0.102362 0.582677 
vn 0.307087 -0.015748 0.952756 
vn 0 -0.15748 0.984252 
vn 0.590551 -0.015748 0.811024 
vn 0.307087 -0.15748 0.937008 
vn 0 -0.307087 0.952756 
vn 0.291339 -0.307087 0.905512 
vn 0 -0.448819 0.889764 
vn 0.582677 -0.15748 0.795276 
vn 0.811024 -0.015748 0.590551 
vn 0.944882 0.102362 0.307087 
vn 0.275591 -0.448819 0.850394 
vn 0 -0.582677 0.811024 
vn 0.559055 -0.307087 0.771654 
vn 0.795276 -0.15748 0.582677 
vn 0.952756 -0.015748 0.307087 
vn 0.251969 -0.582677 0.771654 
vn 0 -0.700787 0.708661 
vn 0.527559 -0.448819 0.724409 
vn 0.771654 -0.307087 0.559055 
vn 0.937008 -0.15748 0.307087 
vn -0.0472441 -0.984252 0.15748 
vn 0 -0.984252 0.165354 
vn 0 -1 0 
vn -0.0944882 -0.984252 0.133858 
vn 0 -1 0 
vn -0.133858 -0.984252 0.0944882 
vn 0 -1 0 
vn -0.15748 -0.984252 0.0472441 
vn 0 -1 0 
vn -0.299213 -0.952756 0.0944882 
vn -0.165354 -0.984252 0 
vn 0 -1 0 
vn -0.314961 -0.944882 0 
vn -0.456693 -0.889764 0 
vn -0.15748 -0.984252 -0.0472441 
vn 0 -1 0 
vn -0.299213 -0.944882 -0.0944882 
vn -0.133858 -0.984252 -0.0944882 
vn 0 -1 0 
vn -0.590551 -0.80315 0 
vn -0.440945 -0.889764 -0.141732 
vn -0.251969 -0.944882 -0.188976 
vn -0.0944882 -0.984252 -0.133858 
vn 0 -1 0 
vn -0.708661 -0.700787 0 
vn -0.566929 -0.80315 -0.181102 
vn -0.811024 -0.582677 0 
vn -0.677165 -0.700787 -0.220472 
vn -0.370079 -0.889764 -0.267717 
vn -0.480315 -0.80315 -0.346457 
vn -0.889764 -0.448819 0 
vn -0.771654 -0.582677 -0.251969 
vn -0.574803 -0.700787 -0.417323 
vn -0.952756 -0.307087 0 
vn -0.937008 -0.15748 0.307087 
vn -0.850394 -0.448819 -0.275591 
vn -0.984252 -0.15748 0 
vn -0.952756 -0.015748 0.307087 
vn -0.905512 -0.307087 -0.291339 
vn -0.653543 -0.582677 -0.480315 
vn -0.724409 -0.448819 -0.527559 
vn -1 -0.015748 0 
vn -0.944882 0.102362 0.307087 
vn -0.992126 0.102362 0 
vn -0.952756 -0.015748 -0.307087 
vn -0.937008 -0.15748 -0.307087 
vn -0.80315 -0.15748 -0.582677 
vn -0.811024 -0.015748 -0.590551 
vn -0.582677 -0.15748 -0.80315 
vn -0.771654 -0.307087 -0.559055 
vn -0.559055 -0.307087 -0.771654 
vn -0.291339 -0.307087 -0.905512 
vn -0.307087 -0.15748 -0.937008 
vn -0.527559 -0.448819 -0.724409 
vn -0.275591 -0.448819 -0.850394 
vn 0 -0.307087 -0.952756 
vn 0 -0.15748 -0.984252 
vn 0 -0.448819 -0.889764 
vn -0.480315 -0.582677 -0.653543 
vn -0.251969 -0.582677 -0.771654 
vn 0 -0.582677 -0.811024 
vn -0.417323 -0.700787 -0.574803 
vn -0.220472 -0.700787 -0.677165 
vn 0 -0.700787 -0.708661 
vn -0.346457 -0.80315 -0.480315 
vn -0.181102 -0.80315 -0.566929 
vn 0 -0.80315 -0.590551 
vn -0.267717 -0.889764 -0.370079 
vn -0.141732 -0.889764 -0.440945 
vn 0 -0.889764 -0.456693 
vn -0.188976 -0.944882 -0.251969 
vn -0.0944882 -0.944882 -0.299213 
vn -0.0472441 -0.984252 -0.15748 
vn 0 -1 0 
vn 0 -0.984252 -0.165354 
vn 0 -1 0 
vn 0 -0.944882 -0.314961 
vn 0.0472441 -0.984252 -0.15748 
vn 0 -1 0 
vn 0.0944882 -0.952756 -0.299213 
vn 0.141732 -0.889764 -0.440945 
vn 0.0944882 -0.984252 -0.133858 
vn 0 -1 0 
vn 0.188976 -0.944882 -0.251969 
vn 0.133858 -0.984252 -0.0944882 
vn 0 -1 0 
vn 0.181102 -0.80315 -0.566929 
vn 0.267717 -0.889764 -0.370079 
vn 0.251969 -0.944882 -0.188976 
vn 0.15748 -0.984252 -0.0472441 
vn 0 -1 0 
vn 0.299213 -0.944882 -0.0944882 
vn 0.370079 -0.889764 -0.267717 
vn 0.440945 -0.889764 -0.141732 
vn 0.346457 -0.80315 -0.480315 
vn 0.480315 -0.80315 -0.346457 
vn 0.220472 -0.700787 -0.677165 
vn 0.417323 -0.700787 -0.574803 
vn 0.251969 -0.582677 -0.771654 
vn 0.275591 -0.448819 -0.850394 
vn 0.480315 -0.582677 -0.653543 
vn 0.291339 -0.307087 -0.905512 
vn 0.307087 -0.15748 -0.937008 
vn 0.527559 -0.448819 -0.724409 
vn 0.559055 -0.307087 -0.771654 
vn 0.582677 -0.15748 -0.80315 
vn 0.771654 -0.307087 -0.559055 
vn 0.724409 -0.448819 -0.527559 
vn 0.850394 -0.448819 -0.275591 
vn 0.653543 -0.582677 -0.480315 
vn 0.771654 -0.582677 -0.251969 
vn 0.811024 -0.582677 0 
vn 0.677165 -0.700787 -0.220472 
vn 0.574803 -0.700787 -0.417323 
vn 0.566929 -0.80315 -0.181102 
vn 0.165354 -0.984252 0 
vn 0 -1 0 
vn 0 -1 0 
vn 0.889764 -0.448819 0 
vn 0.952756 -0.307087 0 
vn 0.984252 -0.15748 0 
vn 0.905512 -0.307087 -0.291339 
vn 0.937008 -0.15748 -0.307087 
vn 1 -0.015748 0 
vn 0.952756 -0.015748 -0.307087 
vn 0.992126 0.102362 0 
vn 0.944882 0.102362 -0.307087 
vn 0.976378 0.212598 0 
vn 0.929134 0.212598 -0.299213 
vn 0.897638 0.322835 -0.291339 
vn 0.732283 0.433071 -0.527559 
vn 0.76378 0.322835 -0.559055 
vn 0.527559 0.433071 -0.724409 
vn 0.787402 0.212598 -0.574803 
vn 0.559055 0.322835 -0.76378 
vn 0.275591 0.433071 -0.858268 
vn 0.80315 0.102362 -0.582677 
vn 0.574803 0.212598 -0.787402 
vn 0.291339 0.322835 -0.897638 
vn 0 0.433071 -0.897638 
vn -0.275591 0.433071 -0.858268 
vn 0 0.322835 -0.944882 
vn -0.527559 0.433071 -0.732283 
vn -0.291339 0.322835 -0.897638 
vn 0.299213 0.212598 -0.929134 
vn 0 0.212598 -0.976378 
vn 0.582677 0.102362 -0.80315 
vn 0.307087 0.102362 -0.944882 
vn 0.811024 -0.015748 -0.590551 
vn 0.590551 -0.015748 -0.811024 
vn 0.795276 -0.15748 -0.582677 
vn 0.307087 -0.015748 -0.952756 
vn 0 0.102362 -0.992126 
vn -0.299213 0.212598 -0.929134 
vn 0 -0.015748 -1 
vn -0.307087 0.102362 -0.944882 
vn -0.559055 0.322835 -0.76378 
vn -0.574803 0.212598 -0.787402 
vn -0.732283 0.433071 -0.527559 
vn -0.76378 0.322835 -0.559055 
vn -0.858268 0.433071 -0.275591 
vn -0.897638 0.433071 0 
vn -0.897638 0.322835 -0.291339 
vn -0.858268 0.433071 0.275591 
vn -0.944882 0.322835 0 
vn -0.787402 0.212598 -0.574803 
vn -0.929134 0.212598 -0.299213 
vn -0.582677 0.102362 -0.80315 
vn -0.80315 0.102362 -0.582677 
vn -0.307087 -0.015748 -0.952756 
vn -0.590551 -0.015748 -0.811024 
vn -0.944882 0.102362 -0.307087 
vn -0.976378 0.212598 0 
vn -0.897638 0.322835 0.291339 
vn -0.929134 0.212598 0.299213 
vn -0.724409 0.433071 0.527559 
vn -0.76378 0.322835 0.559055 
vn -0.527559 0.433071 0.732283 
vn -0.559055 0.322835 0.76378 
vn -0.787402 0.212598 0.574803 
vn -0.291339 0.322835 0.897638 
vn 0 0.322835 0.944882 
vn -0.574803 0.212598 0.787402 
vn -0.299213 0.212598 0.929134 
vn 0 0.212598 0.976378 
vn -0.80315 0.102362 0.582677 
vn -0.582677 0.102362 0.80315 
vn -0.307087 0.102362 0.944882 
vn 0 0.102362 0.992126 
vn -0.307087 -0.015748 0.952756 
vn 0 -0.015748 1 
vn -0.590551 -0.015748 0.811024 
vn -0.811024 -0.015748 0.590551 
vn -0.307087 -0.15748 0.937008 
vn 0 -0.15748 0.984252 
vn -0.582677 -0.15748 0.795276 
vn -0.80315 -0.15748 0.582677 

vt 0.0499995 0.15034 
vt 0 0.123397 
vt 0.0499995 0.123397 
vt 0 0.0964539 
vt 0.099999 0.177283 
vt 0.099999 0.15034 
vt 0.149998 0.204226 
vt 0.149998 0.177283 
vt 0.199998 0.204226 
vt 0.199998 0.231169 
vt 0.0499995 0.0964539 
vt 0 0.0695109 
vt 0.099999 0.123397 
vt 0.149998 0.15034 
vt 0.199998 0.177283 
vt 0.0499995 0.0695109 
vt 0 0.042568 
vt 0.099999 0.0964539 
vt 0.149998 0.123397 
vt 0.0499995 0.042568 
vt 0.0499995 0.015625 
vt 0.099999 0.0695109 
vt 0.149998 0.0964539 
vt 0.199998 0.15034 
vt 0.199998 0.123397 
vt 0.099999 0.042568 
vt 0.099999 0.015625 
vt 0.149998 0.0695109 
vt 0.199998 0.0964539 
vt 0.149998 0.042568 
vt 0.149998 0.015625 
vt 0.199998 0.0695109 
vt 0.199998 0.042568 
vt 0.199998 0.015625 
vt 0.249997 0.0964539 
vt 0.249997 0.123397 
vt 0.249997 0.15034 
vt 0.249997 0.0695109 
vt 0.99999 0.231169 
vt 0.94999 0.231169 
vt 0.94999 0.204226 
vt 0.99999 0.204226 
vt 0.899991 0.231169 
vt 0.899991 0.204226 
vt 0.849991 0.231169 
vt 0.849991 0.204226 
vt 0.799992 0.204226 
vt 0.799992 0.231169 
vt 0.94999 0.177283 
vt 0.99999 0.177283 
vt 0.899991 0.177283 
vt 0.849991 0.177283 
vt 0.799992 0.177283 
vt 0.94999 0.15034 
vt 0.99999 0.15034 
vt 0.899991 0.15034 
vt 0.849991 0.15034 
vt 0.799992 0.15034 
vt 0.94999 0.123397 
vt 0.99999 0.123397 
vt 0.899991 0.123397 
vt 0.849991 0.123397 
vt 0.799992 0.123397 
vt 0.94999 0.0964539 
vt 0.99999 0.0964539 
vt 0.899991 0.0964539 
vt 0.849991 0.0964539 
vt 0.799992 0.0964539 
vt 0.94999 0.0695109 
vt 0.99999 0.0695109 
vt 0.899991 0.0695109 
vt 0.849991 0.0695109 
vt 0.99999 0.509817 
vt 0.94999 0.476521 
vt 0.99999 0.476521 
vt 0.94999 0.509817 
vt 0.99999 0.541021 
vt 0.94999 0.441157 
vt 0.99999 0.441157 
vt 0.94999 0.541021 
vt 0.99999 0.570326 
vt 0.899991 0.476521 
vt 0.94999 0.570326 
vt 0.99999 0.598172 
vt 0.899991 0.509817 
vt 0.899991 0.541021 
vt 0.94999 0.598172 
vt 0.94999 0.625218 
vt 0.899991 0.570326 
vt 0.899991 0.598172 
vt 0.899991 0.625218 
vt 0.849991 0.541021 
vt 0.849991 0.570326 
vt 0.849991 0.598172 
vt 0.849991 0.625218 
vt 0.849991 0.509817 
vt 0.799992 0.541021 
vt 0.799992 0.570326 
vt 0.799992 0.598172 
vt 0.799992 0.625218 
vt 0.799992 0.509817 
vt 0.849991 0.476521 
vt 0.799992 0.476521 
vt 0.749992 0.509817 
vt 0.749992 0.476521 
vt 0.749992 0.541021 
vt 0.749992 0.570326 
vt 0.749992 0.598172 
vt 0.749992 0.625218 
vt 0.699993 0.541021 
vt 0.699993 0.570326 
vt 0.699993 0.598172 
vt 0.699993 0.625218 
vt 0.699993 0.509817 
vt 0.649993 0.541021 
vt 0.649993 0.570326 
vt 0.649993 0.598172 
vt 0.649993 0.625218 
vt 0.649993 0.509817 
vt 0.699993 0.476521 
vt 0.649993 0.476521 
vt 0.599994 0.509817 
vt 0.599994 0.476521 
vt 0.599994 0.541021 
vt 0.599994 0.570326 
vt 0.599994 0.598172 
vt 0.599994 0.625218 
vt 0.549994 0.541021 
vt 0.549994 0.570326 
vt 0.549994 0.598172 
vt 0.549994 0.625218 
vt 0.549994 0.509817 
vt 0.499995 0.541021 
vt 0.499995 0.570326 
vt 0.499995 0.598172 
vt 0.499995 0.625218 
vt 0.499995 0.509817 
vt 0.549994 0.476521 
vt 0.499995 0.476521 
vt 0.449995 0.509817 
vt 0.449995 0.476521 
vt 0.449995 0.541021 
vt 0.449995 0.570326 
vt 0.449995 0.598172 
vt 0.449995 0.625218 
vt 0.399996 0.541021 
vt 0.399996 0.570326 
vt 0.399996 0.598172 
vt 0.399996 0.625218 
vt 0.399996 0.509817 
vt 0.349996 0.541021 
vt 0.349996 0.570326 
vt 0.349996 0.598172 
vt 0.349996 0.625218 
vt 0.349996 0.509817 
vt 0.399996 0.476521 
vt 0.349996 0.476521 
vt 0.299997 0.509817 
vt 0.299997 0.476521 
vt 0.299997 0.541021 
vt 0.299997 0.570326 
vt 0.299997 0.598172 
vt 0.299997 0.625218 
vt 0.249997 0.541021 
vt 0.249997 0.570326 
vt 0.249997 0.598172 
vt 0.249997 0.625218 
vt 0.249997 0.509817 
vt 0.199998 0.541021 
vt 0.199998 0.570326 
vt 0.199998 0.598172 
vt 0.199998 0.625218 
vt 0.199998 0.509817 
vt 0.249997 0.476521 
vt 0.199998 0.476521 
vt 0.149998 0.509817 
vt 0.149998 0.476521 
vt 0.149998 0.541021 
vt 0.149998 0.570326 
vt 0.149998 0.598172 
vt 0.149998 0.625218 
vt 0.099999 0.541021 
vt 0.099999 0.570326 
vt 0.099999 0.598172 
vt 0.099999 0.625218 
vt 0.099999 0.509817 
vt 0.0499995 0.541021 
vt 0.0499995 0.570326 
vt 0.0499995 0.598172 
vt 0.0499995 0.625218 
vt 0 0.570326 
vt 0 0.598172 
vt 0 0.625218 
vt 0 0.541021 
vt 0 0.509817 
vt 0.0499995 0.509817 
vt 0 0.476521 
vt 0.0499995 0.476521 
vt 0 0.441157 
vt 0.099999 0.476521 
vt 0.0499995 0.441157 
vt 0 0.403934 
vt 0.099999 0.441157 
vt 0.0499995 0.403934 
vt 0 0.365198 
vt 0.149998 0.441157 
vt 0.099999 0.403934 
vt 0.0499995 0.365198 
vt 0 0.3254 
vt 0.199998 0.441157 
vt 0.149998 0.403934 
vt 0.099999 0.365198 
vt 0.0499995 0.3254 
vt 0 0.285055 
vt 0.249997 0.441157 
vt 0.199998 0.403934 
vt 0.299997 0.441157 
vt 0.249997 0.403934 
vt 0.149998 0.365198 
vt 0.199998 0.365198 
vt 0.099999 0.3254 
vt 0.149998 0.3254 
vt 0.0499995 0.285055 
vt 0 0.258112 
vt 0.099999 0.285055 
vt 0.0499995 0.258112 
vt 0 0.231169 
vt 0.0499995 0.231169 
vt 0 0.204226 
vt 0.099999 0.258112 
vt 0.149998 0.285055 
vt 0.199998 0.3254 
vt 0.0499995 0.204226 
vt 0 0.177283 
vt 0.099999 0.231169 
vt 0.149998 0.258112 
vt 0.199998 0.285055 
vt 0.0499995 0.177283 
vt 0 0.15034 
vt 0.099999 0.204226 
vt 0.149998 0.231169 
vt 0.199998 0.258112 
vt 0.94999 0.042568 
vt 0.99999 0.042568 
vt 0.99999 0.015625 
vt 0.899991 0.042568 
vt 0.94999 0.015625 
vt 0.849991 0.042568 
vt 0.899991 0.015625 
vt 0.799992 0.042568 
vt 0.849991 0.015625 
vt 0.799992 0.0695109 
vt 0.749992 0.042568 
vt 0.799992 0.015625 
vt 0.749992 0.0695109 
vt 0.749992 0.0964539 
vt 0.699993 0.042568 
vt 0.749992 0.015625 
vt 0.699993 0.0695109 
vt 0.649993 0.042568 
vt 0.699993 0.015625 
vt 0.749992 0.123397 
vt 0.699993 0.0964539 
vt 0.649993 0.0695109 
vt 0.599994 0.042568 
vt 0.649993 0.015625 
vt 0.749992 0.15034 
vt 0.699993 0.123397 
vt 0.749992 0.177283 
vt 0.699993 0.15034 
vt 0.649993 0.0964539 
vt 0.649993 0.123397 
vt 0.749992 0.204226 
vt 0.699993 0.177283 
vt 0.649993 0.15034 
vt 0.749992 0.231169 
vt 0.799992 0.258112 
vt 0.699993 0.204226 
vt 0.749992 0.258112 
vt 0.799992 0.285055 
vt 0.699993 0.231169 
vt 0.649993 0.177283 
vt 0.649993 0.204226 
vt 0.749992 0.285055 
vt 0.799992 0.3254 
vt 0.749992 0.3254 
vt 0.699993 0.285055 
vt 0.699993 0.258112 
vt 0.649993 0.258112 
vt 0.649993 0.285055 
vt 0.599994 0.258112 
vt 0.649993 0.231169 
vt 0.599994 0.231169 
vt 0.549994 0.231169 
vt 0.549994 0.258112 
vt 0.599994 0.204226 
vt 0.549994 0.204226 
vt 0.499995 0.231169 
vt 0.499995 0.258112 
vt 0.499995 0.204226 
vt 0.599994 0.177283 
vt 0.549994 0.177283 
vt 0.499995 0.177283 
vt 0.599994 0.15034 
vt 0.549994 0.15034 
vt 0.499995 0.15034 
vt 0.599994 0.123397 
vt 0.549994 0.123397 
vt 0.499995 0.123397 
vt 0.599994 0.0964539 
vt 0.549994 0.0964539 
vt 0.499995 0.0964539 
vt 0.599994 0.0695109 
vt 0.549994 0.0695109 
vt 0.549994 0.042568 
vt 0.599994 0.015625 
vt 0.499995 0.042568 
vt 0.549994 0.015625 
vt 0.499995 0.0695109 
vt 0.449995 0.042568 
vt 0.499995 0.015625 
vt 0.449995 0.0695109 
vt 0.449995 0.0964539 
vt 0.399996 0.042568 
vt 0.449995 0.015625 
vt 0.399996 0.0695109 
vt 0.349996 0.042568 
vt 0.399996 0.015625 
vt 0.449995 0.123397 
vt 0.399996 0.0964539 
vt 0.349996 0.0695109 
vt 0.299997 0.042568 
vt 0.349996 0.015625 
vt 0.299997 0.0695109 
vt 0.349996 0.0964539 
vt 0.299997 0.0964539 
vt 0.399996 0.123397 
vt 0.349996 0.123397 
vt 0.449995 0.15034 
vt 0.399996 0.15034 
vt 0.449995 0.177283 
vt 0.449995 0.204226 
vt 0.399996 0.177283 
vt 0.449995 0.231169 
vt 0.449995 0.258112 
vt 0.399996 0.204226 
vt 0.399996 0.231169 
vt 0.399996 0.258112 
vt 0.349996 0.231169 
vt 0.349996 0.204226 
vt 0.299997 0.204226 
vt 0.349996 0.177283 
vt 0.299997 0.177283 
vt 0.249997 0.177283 
vt 0.299997 0.15034 
vt 0.349996 0.15034 
vt 0.299997 0.123397 
vt 0.249997 0.042568 
vt 0.249997 0.015625 
vt 0.299997 0.015625 
vt 0.249997 0.204226 
vt 0.249997 0.231169 
vt 0.249997 0.258112 
vt 0.299997 0.231169 
vt 0.299997 0.258112 
vt 0.249997 0.285055 
vt 0.299997 0.285055 
vt 0.249997 0.3254 
vt 0.299997 0.3254 
vt 0.249997 0.365198 
vt 0.299997 0.365198 
vt 0.299997 0.403934 
vt 0.349996 0.441157 
vt 0.349996 0.403934 
vt 0.399996 0.441157 
vt 0.349996 0.365198 
vt 0.399996 0.403934 
vt 0.449995 0.441157 
vt 0.349996 0.3254 
vt 0.399996 0.365198 
vt 0.449995 0.403934 
vt 0.499995 0.441157 
vt 0.549994 0.441157 
vt 0.499995 0.403934 
vt 0.599994 0.441157 
vt 0.549994 0.403934 
vt 0.449995 0.365198 
vt 0.499995 0.365198 
vt 0.399996 0.3254 
vt 0.449995 0.3254 
vt 0.349996 0.285055 
vt 0.399996 0.285055 
vt 0.349996 0.258112 
vt 0.449995 0.285055 
vt 0.499995 0.3254 
vt 0.549994 0.365198 
vt 0.499995 0.285055 
vt 0.549994 0.3254 
vt 0.599994 0.403934 
vt 0.599994 0.365198 
vt 0.649993 0.441157 
vt 0.649993 0.403934 
vt 0.699993 0.441157 
vt 0.749992 0.441157 
vt 0.699993 0.403934 
vt 0.799992 0.441157 
vt 0.749992 0.403934 
vt 0.649993 0.365198 
vt 0.699993 0.365198 
vt 0.599994 0.3254 
vt 0.649993 0.3254 
vt 0.549994 0.285055 
vt 0.599994 0.285055 
vt 0.699993 0.3254 
vt 0.749992 0.365198 
vt 0.799992 0.403934 
vt 0.799992 0.365198 
vt 0.849991 0.441157 
vt 0.849991 0.403934 
vt 0.899991 0.441157 
vt 0.899991 0.403934 
vt 0.849991 0.365198 
vt 0.94999 0.403934 
vt 0.99999 0.403934 
vt 0.899991 0.365198 
vt 0.94999 0.365198 
vt 0.99999 0.365198 
vt 0.849991 0.3254 
vt 0.899991 0.3254 
vt 0.94999 0.3254 
vt 0.99999 0.3254 
vt 0.94999 0.285055 
vt 0.99999 0.285055 
vt 0.899991 0.285055 
vt 0.849991 0.285055 
vt 0.94999 0.258112 
vt 0.99999 0.258112 
vt 0.899991 0.258112 
vt 0.849991 0.258112 

usemtl Tier21Mtl

f 1/1/1 2/2/2 3/3/3 
f 3/3/3 2/2/2 4/4/4 
f 5/5/5 1/1/1 6/6/6 
f 6/6/6 1/1/1 3/3/3 
f 7/7/7 5/5/5 8/8/8 
f 8/8/8 5/5/5 6/6/6 
f 9/9/9 7/7/7 8/8/8 
f 10/10/10 7/7/7 9/9/9 
f 3/3/3 4/4/4 11/11/11 
f 11/11/11 4/4/4 12/12/12 
f 6/6/6 3/3/3 13/13/13 
f 13/13/13 3/3/3 11/11/11 
f 8/8/8 6/6/6 14/14/14 
f 14/14/14 6/6/6 13/13/13 
f 15/15/15 8/8/8 14/14/14 
f 9/9/9 8/8/8 15/15/15 
f 11/11/11 12/12/12 16/16/16 
f 16/16/16 12/12/12 17/17/17 
f 13/13/13 11/11/11 18/18/18 
f 18/18/18 11/11/11 16/16/16 
f 14/14/14 13/13/13 19/19/19 
f 19/19/19 13/13/13 18/18/18 
f 16/16/16 17/17/17 20/20/20 
f 17/17/17 21/21/21 20/20/20 
f 18/18/18 16/16/16 22/22/22 
f 22/22/22 16/16/16 20/20/20 
f 19/19/19 18/18/18 23/23/23 
f 23/23/23 18/18/18 22/22/22 
f 24/24/24 14/14/14 19/19/19 
f 15/15/15 14/14/14 24/24/24 
f 25/25/25 19/19/19 23/23/23 
f 24/24/24 19/19/19 25/25/25 
f 22/22/22 20/20/20 26/26/26 
f 20/20/20 27/27/27 26/26/26 
f 23/23/23 22/22/22 28/28/28 
f 28/28/28 22/22/22 26/26/26 
f 29/29/29 23/23/23 28/28/28 
f 25/25/25 23/23/23 29/29/29 
f 28/28/28 26/26/26 30/30/30 
f 26/26/26 31/31/31 30/30/30 
f 29/29/29 28/28/28 32/32/32 
f 32/32/32 28/28/28 30/30/30 
f 32/32/32 30/30/30 33/33/33 
f 30/30/30 34/34/34 33/33/33 
f 35/35/35 29/29/29 32/32/32 
f 36/36/36 25/25/25 29/29/29 
f 36/36/36 29/29/29 35/35/35 
f 37/37/37 25/25/25 36/36/36 
f 37/37/37 24/24/24 25/25/25 
f 38/38/38 32/32/32 33/33/33 
f 35/35/35 32/32/32 38/38/38 
f 39/39/39 40/40/40 41/41/41 
f 39/39/39 41/41/41 42/42/42 
f 40/40/40 43/43/43 44/44/44 
f 40/40/40 44/44/44 41/41/41 
f 43/43/43 45/45/45 46/46/46 
f 43/43/43 46/46/46 44/44/44 
f 45/45/45 47/47/47 46/46/46 
f 45/45/45 48/48/48 47/47/47 
f 42/42/42 41/41/41 49/49/49 
f 42/42/42 49/49/49 50/50/50 
f 41/41/41 44/44/44 51/51/51 
f 41/41/41 51/51/51 49/49/49 
f 44/44/44 46/46/46 52/52/52 
f 44/44/44 52/52/52 51/51/51 
f 46/46/46 53/53/53 52/52/52 
f 46/46/46 47/47/47 53/53/53 
f 50/50/50 49/49/49 54/54/54 
f 50/50/50 54/54/54 55/55/55 
f 49/49/49 51/51/51 56/56/56 
f 49/49/49 56/56/56 54/54/54 
f 51/51/51 52/52/52 57/57/57 
f 51/51/51 57/57/57 56/56/56 
f 52/52/52 58/58/58 57/57/57 
f 52/52/52 53/53/53 58/58/58 
f 55/55/55 54/54/54 59/59/59 
f 55/55/55 59/59/59 60/60/60 
f 54/54/54 56/56/56 61/61/61 
f 54/54/54 61/61/61 59/59/59 
f 56/56/56 57/57/57 62/62/62 
f 56/56/56 62/62/62 61/61/61 
f 57/57/57 63/63/63 62/62/62 
f 57/57/57 58/58/58 63/63/63 
f 60/60/60 59/59/59 64/64/64 
f 60/60/60 64/64/64 65/65/65 
f 59/59/59 61/61/61 66/66/66 
f 59/59/59 66/66/66 64/64/64 
f 61/61/61 62/62/62 67/67/67 
f 61/61/61 67/67/67 66/66/66 
f 62/62/62 68/68/68 67/67/67 
f 62/62/62 63/63/63 68/68/68 
f 65/65/65 64/64/64 69/69/69 
f 65/65/65 69/69/69 70/70/70 
f 64/64/64 66/66/66 71/71/71 
f 64/64/64 71/71/71 69/69/69 
f 66/66/66 67/67/67 72/72/72 
f 66/66/66 72/72/72 71/71/71 
f 73/73/73 74/74/74 75/75/75 
f 73/73/73 76/76/76 74/74/74 
f 77/77/77 76/76/76 73/73/73 
f 75/75/75 74/74/74 78/78/78 
f 75/75/75 78/78/78 79/79/79 
f 77/77/77 80/80/80 76/76/76 
f 81/81/81 80/80/80 77/77/77 
f 76/76/76 82/82/82 74/74/74 
f 81/81/81 83/83/83 80/80/80 
f 84/84/84 83/83/83 81/81/81 
f 80/80/80 85/85/85 76/76/76 
f 76/76/76 85/85/85 82/82/82 
f 83/83/83 86/86/86 80/80/80 
f 80/80/80 86/86/86 85/85/85 
f 84/84/84 87/87/87 83/83/83 
f 87/87/87 84/84/84 88/88/88 
f 87/87/87 89/89/89 83/83/83 
f 83/83/83 89/89/89 86/86/86 
f 87/87/87 90/90/90 89/89/89 
f 90/90/90 87/87/87 91/91/91 
f 89/89/89 92/92/92 86/86/86 
f 90/90/90 93/93/93 89/89/89 
f 89/89/89 93/93/93 92/92/92 
f 90/90/90 94/94/94 93/93/93 
f 94/94/94 90/90/90 95/95/95 
f 86/86/86 92/92/92 96/96/96 
f 86/86/86 96/96/96 85/85/85 
f 93/93/93 97/97/97 92/92/92 
f 94/94/94 98/98/98 93/93/93 
f 93/93/93 98/98/98 97/97/97 
f 94/94/94 99/99/99 98/98/98 
f 99/99/99 94/94/94 100/100/100 
f 92/92/92 101/101/101 96/96/96 
f 92/92/92 97/97/97 101/101/101 
f 85/85/85 96/96/96 102/102/102 
f 85/85/85 102/102/102 82/82/82 
f 96/96/96 101/101/101 103/103/103 
f 96/96/96 103/103/103 102/102/102 
f 97/97/97 104/104/104 101/101/101 
f 101/101/101 105/105/105 103/103/103 
f 101/101/101 104/104/104 105/105/105 
f 97/97/97 106/106/106 104/104/104 
f 98/98/98 106/106/106 97/97/97 
f 98/98/98 107/107/107 106/106/106 
f 99/99/99 107/107/107 98/98/98 
f 99/99/99 108/108/108 107/107/107 
f 108/108/108 99/99/99 109/109/109 
f 107/107/107 110/110/110 106/106/106 
f 108/108/108 111/111/111 107/107/107 
f 107/107/107 111/111/111 110/110/110 
f 108/108/108 112/112/112 111/111/111 
f 112/112/112 108/108/108 113/113/113 
f 106/106/106 110/110/110 114/114/114 
f 106/106/106 114/114/114 104/104/104 
f 111/111/111 115/115/115 110/110/110 
f 112/112/112 116/116/116 111/111/111 
f 111/111/111 116/116/116 115/115/115 
f 112/112/112 117/117/117 116/116/116 
f 112/112/112 118/118/118 117/117/117 
f 110/110/110 119/119/119 114/114/114 
f 110/110/110 115/115/115 119/119/119 
f 104/104/104 114/114/114 120/120/120 
f 104/104/104 120/120/120 105/105/105 
f 114/114/114 119/119/119 121/121/121 
f 114/114/114 121/121/121 120/120/120 
f 115/115/115 122/122/122 119/119/119 
f 119/119/119 123/123/123 121/121/121 
f 119/119/119 122/122/122 123/123/123 
f 115/115/115 124/124/124 122/122/122 
f 116/116/116 124/124/124 115/115/115 
f 116/116/116 125/125/125 124/124/124 
f 117/117/117 125/125/125 116/116/116 
f 117/117/117 126/126/126 125/125/125 
f 126/126/126 117/117/117 127/127/127 
f 125/125/125 128/128/128 124/124/124 
f 126/126/126 129/129/129 125/125/125 
f 125/125/125 129/129/129 128/128/128 
f 126/126/126 130/130/130 129/129/129 
f 126/126/126 131/131/131 130/130/130 
f 124/124/124 128/128/128 132/132/132 
f 124/124/124 132/132/132 122/122/122 
f 129/129/129 133/133/133 128/128/128 
f 130/130/130 134/134/134 129/129/129 
f 129/129/129 134/134/134 133/133/133 
f 130/130/130 135/135/135 134/134/134 
f 135/135/135 130/130/130 136/136/136 
f 128/128/128 137/137/137 132/132/132 
f 128/128/128 133/133/133 137/137/137 
f 122/122/122 132/132/132 138/138/138 
f 122/122/122 138/138/138 123/123/123 
f 132/132/132 137/137/137 139/139/139 
f 132/132/132 139/139/139 138/138/138 
f 133/133/133 140/140/140 137/137/137 
f 137/137/137 141/141/141 139/139/139 
f 137/137/137 140/140/140 141/141/141 
f 133/133/133 142/142/142 140/140/140 
f 134/134/134 142/142/142 133/133/133 
f 134/134/134 143/143/143 142/142/142 
f 135/135/135 143/143/143 134/134/134 
f 135/135/135 144/144/144 143/143/143 
f 144/144/144 135/135/135 145/145/145 
f 143/143/143 146/146/146 142/142/142 
f 144/144/144 147/147/147 143/143/143 
f 143/143/143 147/147/147 146/146/146 
f 144/144/144 148/148/148 147/147/147 
f 148/148/148 144/144/144 149/149/149 
f 142/142/142 146/146/146 150/150/150 
f 142/142/142 150/150/150 140/140/140 
f 147/147/147 151/151/151 146/146/146 
f 148/148/148 152/152/152 147/147/147 
f 147/147/147 152/152/152 151/151/151 
f 148/148/148 153/153/153 152/152/152 
f 153/153/153 148/148/148 154/154/154 
f 146/146/146 155/155/155 150/150/150 
f 146/146/146 151/151/151 155/155/155 
f 140/140/140 150/150/150 156/156/156 
f 140/140/140 156/156/156 141/141/141 
f 150/150/150 155/155/155 157/157/157 
f 150/150/150 157/157/157 156/156/156 
f 151/151/151 158/158/158 155/155/155 
f 155/155/155 159/159/159 157/157/157 
f 155/155/155 158/158/158 159/159/159 
f 151/151/151 160/160/160 158/158/158 
f 152/152/152 160/160/160 151/151/151 
f 152/152/152 161/161/161 160/160/160 
f 153/153/153 161/161/161 152/152/152 
f 153/153/153 162/162/162 161/161/161 
f 162/162/162 153/153/153 163/163/163 
f 161/161/161 164/164/164 160/160/160 
f 162/162/162 165/165/165 161/161/161 
f 161/161/161 165/165/165 164/164/164 
f 162/162/162 166/166/166 165/165/165 
f 166/166/166 162/162/162 167/167/167 
f 160/160/160 164/164/164 168/168/168 
f 160/160/160 168/168/168 158/158/158 
f 165/165/165 169/169/169 164/164/164 
f 166/166/166 170/170/170 165/165/165 
f 165/165/165 170/170/170 169/169/169 
f 166/166/166 171/171/171 170/170/170 
f 171/171/171 166/166/166 172/172/172 
f 164/164/164 173/173/173 168/168/168 
f 164/164/164 169/169/169 173/173/173 
f 158/158/158 168/168/168 174/174/174 
f 158/158/158 174/174/174 159/159/159 
f 168/168/168 173/173/173 175/175/175 
f 168/168/168 175/175/175 174/174/174 
f 169/169/169 176/176/176 173/173/173 
f 173/173/173 177/177/177 175/175/175 
f 173/173/173 176/176/176 177/177/177 
f 169/169/169 178/178/178 176/176/176 
f 170/170/170 178/178/178 169/169/169 
f 170/170/170 179/179/179 178/178/178 
f 171/171/171 179/179/179 170/170/170 
f 171/171/171 180/180/180 179/179/179 
f 180/180/180 171/171/171 181/181/181 
f 179/179/179 182/182/182 178/178/178 
f 180/180/180 183/183/183 179/179/179 
f 179/179/179 183/183/183 182/182/182 
f 180/180/180 184/184/184 183/183/183 
f 184/184/184 180/180/180 185/185/185 
f 178/178/178 182/182/182 186/186/186 
f 178/178/178 186/186/186 176/176/176 
f 183/183/183 187/187/187 182/182/182 
f 184/184/184 188/188/188 183/183/183 
f 183/183/183 188/188/188 187/187/187 
f 184/184/184 189/189/189 188/188/188 
f 189/189/189 184/184/184 190/190/190 
f 189/189/189 191/191/191 188/188/188 
f 189/189/189 192/192/192 191/191/191 
f 189/189/189 193/193/193 192/192/192 
f 188/188/188 191/191/191 194/194/194 
f 188/188/188 194/194/194 187/187/187 
f 187/187/187 194/194/194 195/195/195 
f 187/187/187 195/195/195 196/196/196 
f 182/182/182 187/187/187 196/196/196 
f 182/182/182 196/196/196 186/186/186 
f 196/196/196 195/195/195 197/197/197 
f 196/196/196 197/197/197 198/198/198 
f 186/186/186 196/196/196 198/198/198 
f 198/198/198 197/197/197 199/199/199 
f 186/186/186 198/198/198 200/200/200 
f 176/176/176 186/186/186 200/200/200 
f 176/176/176 200/200/200 177/177/177 
f 198/198/198 199/199/199 201/201/201 
f 200/200/200 198/198/198 201/201/201 
f 201/201/201 199/199/199 202/202/202 
f 177/177/177 200/200/200 203/203/203 
f 200/200/200 201/201/201 203/203/203 
f 201/201/201 202/202/202 204/204/204 
f 203/203/203 201/201/201 204/204/204 
f 204/204/204 202/202/202 205/205/205 
f 177/177/177 203/203/203 206/206/206 
f 175/175/175 177/177/177 206/206/206 
f 203/203/203 204/204/204 207/207/207 
f 203/203/203 207/207/207 206/206/206 
f 204/204/204 205/205/205 208/208/208 
f 207/207/207 204/204/204 208/208/208 
f 208/208/208 205/205/205 209/209/209 
f 175/175/175 206/206/206 210/210/210 
f 174/174/174 175/175/175 210/210/210 
f 207/207/207 211/211/211 206/206/206 
f 210/210/210 206/206/206 211/211/211 
f 207/207/207 208/208/208 212/212/212 
f 211/211/211 207/207/207 212/212/212 
f 208/208/208 209/209/209 213/213/213 
f 212/212/212 208/208/208 213/213/213 
f 213/213/213 209/209/209 214/214/214 
f 174/174/174 210/210/210 215/215/215 
f 159/159/159 174/174/174 215/215/215 
f 210/210/210 211/211/211 216/216/216 
f 215/215/215 210/210/210 216/216/216 
f 159/159/159 215/215/215 217/217/217 
f 157/157/157 159/159/159 217/217/217 
f 215/215/215 216/216/216 218/218/218 
f 217/217/217 215/215/215 218/218/218 
f 216/216/216 211/211/211 219/219/219 
f 211/211/211 212/212/212 219/219/219 
f 218/218/218 216/216/216 220/220/220 
f 216/216/216 219/219/219 220/220/220 
f 219/219/219 212/212/212 221/221/221 
f 212/212/212 213/213/213 221/221/221 
f 220/220/220 219/219/219 222/222/222 
f 219/219/219 221/221/221 222/222/222 
f 221/221/221 213/213/213 223/223/223 
f 213/213/213 214/214/214 223/223/223 
f 223/223/223 214/214/214 224/224/224 
f 221/221/221 223/223/223 225/225/225 
f 222/222/222 221/221/221 225/225/225 
f 223/223/223 224/224/224 226/226/226 
f 225/225/225 223/223/223 226/226/226 
f 226/226/226 224/224/224 227/227/227 
f 226/226/226 227/227/227 228/228/228 
f 228/228/228 227/227/227 229/229/229 
f 225/225/225 226/226/226 230/230/230 
f 230/230/230 226/226/226 228/228/228 
f 222/222/222 225/225/225 231/231/231 
f 231/231/231 225/225/225 230/230/230 
f 232/232/232 222/222/222 231/231/231 
f 220/220/220 222/222/222 232/232/232 
f 228/228/228 229/229/229 233/233/233 
f 233/233/233 229/229/229 234/234/234 
f 230/230/230 228/228/228 235/235/235 
f 235/235/235 228/228/228 233/233/233 
f 231/231/231 230/230/230 236/236/236 
f 236/236/236 230/230/230 235/235/235 
f 237/237/237 231/231/231 236/236/236 
f 232/232/232 231/231/231 237/237/237 
f 233/233/233 234/234/234 238/238/238 
f 238/238/238 234/234/234 239/239/239 
f 235/235/235 233/233/233 240/240/240 
f 240/240/240 233/233/233 238/238/238 
f 236/236/236 235/235/235 241/241/241 
f 241/241/241 235/235/235 240/240/240 
f 242/242/242 236/236/236 241/241/241 
f 237/237/237 236/236/236 242/242/242 
f 238/238/238 239/239/239 1/1/1 
f 1/1/1 239/239/239 2/2/2 
f 240/240/240 238/238/238 5/5/5 
f 5/5/5 238/238/238 1/1/1 
f 241/241/241 240/240/240 7/7/7 
f 7/7/7 240/240/240 5/5/5 
f 10/10/10 241/241/241 7/7/7 
f 242/242/242 241/241/241 10/10/10 
f 70/70/70 69/69/69 243/243/243 
f 70/70/70 243/243/243 244/244/244 
f 244/244/244 243/243/243 245/245/245 
f 69/69/69 246/246/246 243/243/243 
f 69/69/69 71/71/71 246/246/246 
f 246/246/246 247/247/247 243/243/243 
f 71/71/71 248/248/248 246/246/246 
f 71/71/71 72/72/72 248/248/248 
f 248/248/248 249/249/249 246/246/246 
f 72/72/72 250/250/250 248/248/248 
f 250/250/250 251/251/251 248/248/248 
f 67/67/67 252/252/252 72/72/72 
f 72/72/72 252/252/252 250/250/250 
f 67/67/67 68/68/68 252/252/252 
f 252/252/252 253/253/253 250/250/250 
f 253/253/253 254/254/254 250/250/250 
f 68/68/68 255/255/255 252/252/252 
f 252/252/252 255/255/255 253/253/253 
f 68/68/68 256/256/256 255/255/255 
f 63/63/63 256/256/256 68/68/68 
f 255/255/255 257/257/257 253/253/253 
f 257/257/257 258/258/258 253/253/253 
f 255/255/255 259/259/259 257/257/257 
f 256/256/256 259/259/259 255/255/255 
f 259/259/259 260/260/260 257/257/257 
f 260/260/260 261/261/261 257/257/257 
f 63/63/63 262/262/262 256/256/256 
f 58/58/58 262/262/262 63/63/63 
f 256/256/256 263/263/263 259/259/259 
f 262/262/262 263/263/263 256/256/256 
f 259/259/259 264/264/264 260/260/260 
f 263/263/263 264/264/264 259/259/259 
f 264/264/264 265/265/265 260/260/260 
f 265/265/265 266/266/266 260/260/260 
f 58/58/58 267/267/267 262/262/262 
f 53/53/53 267/267/267 58/58/58 
f 262/262/262 268/268/268 263/263/263 
f 267/267/267 268/268/268 262/262/262 
f 53/53/53 269/269/269 267/267/267 
f 47/47/47 269/269/269 53/53/53 
f 267/267/267 270/270/270 268/268/268 
f 269/269/269 270/270/270 267/267/267 
f 268/268/268 271/271/271 263/263/263 
f 263/263/263 271/271/271 264/264/264 
f 270/270/270 272/272/272 268/268/268 
f 268/268/268 272/272/272 271/271/271 
f 47/47/47 273/273/273 269/269/269 
f 48/48/48 273/273/273 47/47/47 
f 269/269/269 274/274/274 270/270/270 
f 273/273/273 274/274/274 269/269/269 
f 270/270/270 275/275/275 272/272/272 
f 274/274/274 275/275/275 270/270/270 
f 48/48/48 276/276/276 273/273/273 
f 277/277/277 276/276/276 48/48/48 
f 273/273/273 278/278/278 274/274/274 
f 276/276/276 278/278/278 273/273/273 
f 277/277/277 279/279/279 276/276/276 
f 280/280/280 279/279/279 277/277/277 
f 276/276/276 281/281/281 278/278/278 
f 279/279/279 281/281/281 276/276/276 
f 278/278/278 282/282/282 274/274/274 
f 274/274/274 282/282/282 275/275/275 
f 281/281/281 283/283/283 278/278/278 
f 278/278/278 283/283/283 282/282/282 
f 280/280/280 284/284/284 279/279/279 
f 285/285/285 284/284/284 280/280/280 
f 285/285/285 286/286/286 284/284/284 
f 286/286/286 287/287/287 284/284/284 
f 284/284/284 288/288/288 279/279/279 
f 284/284/284 287/287/287 288/288/288 
f 279/279/279 288/288/288 281/281/281 
f 287/287/287 289/289/289 288/288/288 
f 287/287/287 290/290/290 289/289/289 
f 290/290/290 291/291/291 289/289/289 
f 288/288/288 292/292/292 281/281/281 
f 288/288/288 289/289/289 292/292/292 
f 281/281/281 292/292/292 283/283/283 
f 289/289/289 291/291/291 293/293/293 
f 289/289/289 293/293/293 292/292/292 
f 291/291/291 294/294/294 293/293/293 
f 291/291/291 295/295/295 294/294/294 
f 292/292/292 293/293/293 296/296/296 
f 292/292/292 296/296/296 283/283/283 
f 293/293/293 294/294/294 297/297/297 
f 293/293/293 297/297/297 296/296/296 
f 295/295/295 298/298/298 294/294/294 
f 295/295/295 299/299/299 298/298/298 
f 294/294/294 300/300/300 297/297/297 
f 294/294/294 298/298/298 300/300/300 
f 283/283/283 296/296/296 301/301/301 
f 283/283/283 301/301/301 282/282/282 
f 296/296/296 297/297/297 302/302/302 
f 296/296/296 302/302/302 301/301/301 
f 297/297/297 303/303/303 302/302/302 
f 297/297/297 300/300/300 303/303/303 
f 282/282/282 301/301/301 304/304/304 
f 282/282/282 304/304/304 275/275/275 
f 301/301/301 302/302/302 305/305/305 
f 301/301/301 305/305/305 304/304/304 
f 302/302/302 306/306/306 305/305/305 
f 302/302/302 303/303/303 306/306/306 
f 275/275/275 304/304/304 307/307/307 
f 275/275/275 307/307/307 272/272/272 
f 304/304/304 305/305/305 308/308/308 
f 304/304/304 308/308/308 307/307/307 
f 305/305/305 309/309/309 308/308/308 
f 305/305/305 306/306/306 309/309/309 
f 272/272/272 307/307/307 310/310/310 
f 272/272/272 310/310/310 271/271/271 
f 307/307/307 308/308/308 311/311/311 
f 307/307/307 311/311/311 310/310/310 
f 308/308/308 312/312/312 311/311/311 
f 308/308/308 309/309/309 312/312/312 
f 271/271/271 310/310/310 313/313/313 
f 271/271/271 313/313/313 264/264/264 
f 264/264/264 313/313/313 265/265/265 
f 310/310/310 314/314/314 313/313/313 
f 310/310/310 311/311/311 314/314/314 
f 313/313/313 315/315/315 265/265/265 
f 313/313/313 314/314/314 315/315/315 
f 315/315/315 316/316/316 265/265/265 
f 314/314/314 317/317/317 315/315/315 
f 315/315/315 317/317/317 318/318/318 
f 311/311/311 319/319/319 314/314/314 
f 314/314/314 319/319/319 317/317/317 
f 311/311/311 312/312/312 319/319/319 
f 319/319/319 320/320/320 317/317/317 
f 320/320/320 321/321/321 317/317/317 
f 312/312/312 322/322/322 319/319/319 
f 319/319/319 322/322/322 320/320/320 
f 312/312/312 323/323/323 322/322/322 
f 309/309/309 323/323/323 312/312/312 
f 322/322/322 324/324/324 320/320/320 
f 324/324/324 325/325/325 320/320/320 
f 322/322/322 326/326/326 324/324/324 
f 323/323/323 326/326/326 322/322/322 
f 326/326/326 327/327/327 324/324/324 
f 327/327/327 328/328/328 324/324/324 
f 309/309/309 329/329/329 323/323/323 
f 306/306/306 329/329/329 309/309/309 
f 323/323/323 330/330/330 326/326/326 
f 329/329/329 330/330/330 323/323/323 
f 326/326/326 331/331/331 327/327/327 
f 330/330/330 331/331/331 326/326/326 
f 331/331/331 332/332/332 327/327/327 
f 332/332/332 333/333/333 327/327/327 
f 331/331/331 334/334/334 332/332/332 
f 335/335/335 334/334/334 331/331/331 
f 330/330/330 335/335/335 331/331/331 
f 335/335/335 336/336/336 334/334/334 
f 337/337/337 335/335/335 330/330/330 
f 329/329/329 337/337/337 330/330/330 
f 338/338/338 336/336/336 335/335/335 
f 337/337/337 338/338/338 335/335/335 
f 339/339/339 337/337/337 329/329/329 
f 306/306/306 339/339/339 329/329/329 
f 303/303/303 339/339/339 306/306/306 
f 339/339/339 340/340/340 337/337/337 
f 340/340/340 338/338/338 337/337/337 
f 303/303/303 341/341/341 339/339/339 
f 341/341/341 340/340/340 339/339/339 
f 300/300/300 341/341/341 303/303/303 
f 300/300/300 342/342/342 341/341/341 
f 298/298/298 342/342/342 300/300/300 
f 341/341/341 343/343/343 340/340/340 
f 342/342/342 343/343/343 341/341/341 
f 298/298/298 344/344/344 342/342/342 
f 299/299/299 344/344/344 298/298/298 
f 299/299/299 345/345/345 344/344/344 
f 344/344/344 346/346/346 342/342/342 
f 342/342/342 346/346/346 343/343/343 
f 345/345/345 347/347/347 344/344/344 
f 344/344/344 347/347/347 346/346/346 
f 345/345/345 348/348/348 347/347/347 
f 348/348/348 349/349/349 347/347/347 
f 347/347/347 349/349/349 350/350/350 
f 347/347/347 350/350/350 346/346/346 
f 349/349/349 351/351/351 350/350/350 
f 346/346/346 352/352/352 343/343/343 
f 346/346/346 350/350/350 352/352/352 
f 350/350/350 351/351/351 353/353/353 
f 350/350/350 353/353/353 352/352/352 
f 351/351/351 354/354/354 353/353/353 
f 353/353/353 354/354/354 37/37/37 
f 353/353/353 37/37/37 355/355/355 
f 352/352/352 353/353/353 355/355/355 
f 355/355/355 37/37/37 36/36/36 
f 343/343/343 352/352/352 356/356/356 
f 352/352/352 355/355/355 356/356/356 
f 343/343/343 356/356/356 340/340/340 
f 340/340/340 356/356/356 338/338/338 
f 355/355/355 36/36/36 357/357/357 
f 356/356/356 355/355/355 357/357/357 
f 356/356/356 357/357/357 338/338/338 
f 357/357/357 36/36/36 35/35/35 
f 338/338/338 357/357/357 336/336/336 
f 357/357/357 35/35/35 336/336/336 
f 38/38/38 33/33/33 358/358/358 
f 33/33/33 359/359/359 358/358/358 
f 336/336/336 35/35/35 38/38/38 
f 354/354/354 24/24/24 37/37/37 
f 354/354/354 15/15/15 24/24/24 
f 334/334/334 38/38/38 358/358/358 
f 336/336/336 38/38/38 334/334/334 
f 334/334/334 358/358/358 332/332/332 
f 358/358/358 360/360/360 332/332/332 
f 361/361/361 15/15/15 354/354/354 
f 361/361/361 9/9/9 15/15/15 
f 362/362/362 9/9/9 361/361/361 
f 362/362/362 10/10/10 9/9/9 
f 351/351/351 361/361/361 354/354/354 
f 363/363/363 10/10/10 362/362/362 
f 363/363/363 242/242/242 10/10/10 
f 364/364/364 362/362/362 361/361/361 
f 364/364/364 361/361/361 351/351/351 
f 365/365/365 363/363/363 362/362/362 
f 365/365/365 362/362/362 364/364/364 
f 366/366/366 242/242/242 363/363/363 
f 366/366/366 237/237/237 242/242/242 
f 367/367/367 363/363/363 365/365/365 
f 367/367/367 366/366/366 363/363/363 
f 368/368/368 237/237/237 366/366/366 
f 368/368/368 232/232/232 237/237/237 
f 369/369/369 366/366/366 367/367/367 
f 369/369/369 368/368/368 366/366/366 
f 370/370/370 232/232/232 368/368/368 
f 370/370/370 220/220/220 232/232/232 
f 218/218/218 220/220/220 370/370/370 
f 371/371/371 370/370/370 368/368/368 
f 371/371/371 368/368/368 369/369/369 
f 372/372/372 218/218/218 370/370/370 
f 372/372/372 370/370/370 371/371/371 
f 217/217/217 218/218/218 372/372/372 
f 373/373/373 217/217/217 372/372/372 
f 157/157/157 217/217/217 373/373/373 
f 156/156/156 157/157/157 373/373/373 
f 373/373/373 372/372/372 374/374/374 
f 374/374/374 372/372/372 371/371/371 
f 156/156/156 373/373/373 375/375/375 
f 375/375/375 373/373/373 374/374/374 
f 141/141/141 156/156/156 375/375/375 
f 374/374/374 371/371/371 376/376/376 
f 376/376/376 371/371/371 369/369/369 
f 375/375/375 374/374/374 377/377/377 
f 377/377/377 374/374/374 376/376/376 
f 141/141/141 375/375/375 378/378/378 
f 378/378/378 375/375/375 377/377/377 
f 139/139/139 141/141/141 378/378/378 
f 376/376/376 369/369/369 379/379/379 
f 379/379/379 369/369/369 367/367/367 
f 377/377/377 376/376/376 380/380/380 
f 380/380/380 376/376/376 379/379/379 
f 378/378/378 377/377/377 381/381/381 
f 381/381/381 377/377/377 380/380/380 
f 139/139/139 378/378/378 382/382/382 
f 382/382/382 378/378/378 381/381/381 
f 138/138/138 139/139/139 382/382/382 
f 138/138/138 382/382/382 383/383/383 
f 123/123/123 138/138/138 383/383/383 
f 382/382/382 381/381/381 384/384/384 
f 383/383/383 382/382/382 384/384/384 
f 123/123/123 383/383/383 385/385/385 
f 121/121/121 123/123/123 385/385/385 
f 383/383/383 384/384/384 386/386/386 
f 385/385/385 383/383/383 386/386/386 
f 384/384/384 381/381/381 387/387/387 
f 381/381/381 380/380/380 387/387/387 
f 386/386/386 384/384/384 388/388/388 
f 384/384/384 387/387/387 388/388/388 
f 387/387/387 380/380/380 389/389/389 
f 380/380/380 379/379/379 389/389/389 
f 388/388/388 387/387/387 390/390/390 
f 387/387/387 389/389/389 390/390/390 
f 389/389/389 379/379/379 391/391/391 
f 379/379/379 367/367/367 391/391/391 
f 391/391/391 367/367/367 365/365/365 
f 389/389/389 391/391/391 392/392/392 
f 390/390/390 389/389/389 392/392/392 
f 391/391/391 365/365/365 393/393/393 
f 392/392/392 391/391/391 393/393/393 
f 393/393/393 365/365/365 364/364/364 
f 393/393/393 364/364/364 349/349/349 
f 349/349/349 364/364/364 351/351/351 
f 392/392/392 393/393/393 348/348/348 
f 348/348/348 393/393/393 349/349/349 
f 390/390/390 392/392/392 394/394/394 
f 394/394/394 392/392/392 348/348/348 
f 395/395/395 390/390/390 394/394/394 
f 388/388/388 390/390/390 395/395/395 
f 394/394/394 348/348/348 345/345/345 
f 396/396/396 388/388/388 395/395/395 
f 386/386/386 388/388/388 396/396/396 
f 395/395/395 394/394/394 397/397/397 
f 397/397/397 394/394/394 345/345/345 
f 396/396/396 395/395/395 398/398/398 
f 398/398/398 395/395/395 397/397/397 
f 399/399/399 386/386/386 396/396/396 
f 385/385/385 386/386/386 399/399/399 
f 400/400/400 396/396/396 398/398/398 
f 399/399/399 396/396/396 400/400/400 
f 401/401/401 385/385/385 399/399/399 
f 121/121/121 385/385/385 401/401/401 
f 120/120/120 121/121/121 401/401/401 
f 401/401/401 399/399/399 402/402/402 
f 402/402/402 399/399/399 400/400/400 
f 120/120/120 401/401/401 403/403/403 
f 403/403/403 401/401/401 402/402/402 
f 105/105/105 120/120/120 403/403/403 
f 105/105/105 403/403/403 404/404/404 
f 103/103/103 105/105/105 404/404/404 
f 403/403/403 402/402/402 405/405/405 
f 404/404/404 403/403/403 405/405/405 
f 103/103/103 404/404/404 406/406/406 
f 102/102/102 103/103/103 406/406/406 
f 404/404/404 405/405/405 407/407/407 
f 406/406/406 404/404/404 407/407/407 
f 405/405/405 402/402/402 408/408/408 
f 402/402/402 400/400/400 408/408/408 
f 407/407/407 405/405/405 409/409/409 
f 405/405/405 408/408/408 409/409/409 
f 408/408/408 400/400/400 410/410/410 
f 400/400/400 398/398/398 410/410/410 
f 409/409/409 408/408/408 411/411/411 
f 408/408/408 410/410/410 411/411/411 
f 410/410/410 398/398/398 412/412/412 
f 398/398/398 397/397/397 412/412/412 
f 411/411/411 410/410/410 413/413/413 
f 410/410/410 412/412/412 413/413/413 
f 412/412/412 397/397/397 299/299/299 
f 397/397/397 345/345/345 299/299/299 
f 413/413/413 412/412/412 295/295/295 
f 412/412/412 299/299/299 295/295/295 
f 411/411/411 413/413/413 290/290/290 
f 413/413/413 295/295/295 291/291/291 
f 290/290/290 413/413/413 291/291/291 
f 414/414/414 411/411/411 290/290/290 
f 409/409/409 411/411/411 414/414/414 
f 415/415/415 409/409/409 414/414/414 
f 407/407/407 409/409/409 415/415/415 
f 414/414/414 290/290/290 287/287/287 
f 416/416/416 407/407/407 415/415/415 
f 406/406/406 407/407/407 416/416/416 
f 415/415/415 414/414/414 286/286/286 
f 286/286/286 414/414/414 287/287/287 
f 416/416/416 415/415/415 417/417/417 
f 417/417/417 415/415/415 286/286/286 
f 418/418/418 406/406/406 416/416/416 
f 102/102/102 406/406/406 418/418/418 
f 82/82/82 102/102/102 418/418/418 
f 418/418/418 416/416/416 419/419/419 
f 419/419/419 416/416/416 417/417/417 
f 82/82/82 418/418/418 420/420/420 
f 420/420/420 418/418/418 419/419/419 
f 74/74/74 82/82/82 420/420/420 
f 74/74/74 420/420/420 78/78/78 
f 420/420/420 419/419/419 421/421/421 
f 78/78/78 420/420/420 421/421/421 
f 419/419/419 417/417/417 422/422/422 
f 421/421/421 419/419/419 422/422/422 
f 78/78/78 421/421/421 423/423/423 
f 79/79/79 78/78/78 423/423/423 
f 79/79/79 423/423/423 424/424/424 
f 423/423/423 421/421/421 425/425/425 
f 421/421/421 422/422/422 425/425/425 
f 424/424/424 423/423/423 426/426/426 
f 423/423/423 425/425/425 426/426/426 
f 424/424/424 426/426/426 427/427/427 
f 422/422/422 417/417/417 285/285/285 
f 417/417/417 286/286/286 285/285/285 
f 425/425/425 422/422/422 428/428/428 
f 422/422/422 285/285/285 428/428/428 
f 426/426/426 425/425/425 429/429/429 
f 425/425/425 428/428/428 429/429/429 
f 427/427/427 426/426/426 430/430/430 
f 426/426/426 429/429/429 430/430/430 
f 427/427/427 430/430/430 431/431/431 
f 431/431/431 430/430/430 432/432/432 
f 431/431/431 432/432/432 433/433/433 
f 430/430/430 429/429/429 434/434/434 
f 430/430/430 434/434/434 432/432/432 
f 429/429/429 428/428/428 435/435/435 
f 429/429/429 435/435/435 434/434/434 
f 428/428/428 280/280/280 435/435/435 
f 428/428/428 285/285/285 280/280/280 
f 433/433/433 432/432/432 436/436/436 
f 433/433/433 436/436/436 437/437/437 
f 432/432/432 434/434/434 438/438/438 
f 432/432/432 438/438/438 436/436/436 
f 434/434/434 435/435/435 439/439/439 
f 434/434/434 439/439/439 438/438/438 
f 435/435/435 277/277/277 439/439/439 
f 435/435/435 280/280/280 277/277/277 
f 437/437/437 436/436/436 40/40/40 
f 437/437/437 40/40/40 39/39/39 
f 436/436/436 438/438/438 43/43/43 
f 436/436/436 43/43/43 40/40/40 
f 438/438/438 439/439/439 45/45/45 
f 438/438/438 45/45/45 43/43/43 
f 439/439/439 48/48/48 45/45/45 
f 439/439/439 277/277/277 48/48/48 

