# This file is brought to you by Roblox Corporation
# Generated by Roblox Studio

mtllib giraffe.mtl

g Pet1

v 0.188199 -0.466037 -1.27003 
v -0.21575 -0.466037 -1.27003 
v -0.0986453 -0.172843 -1.08129 
v -0.0137756 -0.841285 -1.24517 
v 0.0710941 -0.172843 -1.08129 
v -0.641719 1.16861 1.25842 
v -0.239764 1.25407 1.25082 
v -0.641719 1.1322 0.849031 
v -0.239764 1.21766 0.841429 
v 0.602246 1.16861 1.25842 
v 0.602246 1.1322 0.849031 
v 0.200291 1.25407 1.25082 
v 0.200291 1.21766 0.84143 
v 0.0953296 0.495301 -0.407399 
v 0.0953297 0.202669 -0.822105 
v -0.122881 0.495301 -0.407399 
v -0.122881 0.202669 -0.822105 
v -0.0986453 -0.172843 -1.08129 
v 0.0710941 -0.172843 -1.08129 
v 0.0975013 -1.25407 0.939822 
v 0.491899 -1.25407 0.484405 
v 0.532348 -1.25407 0.897213 
v 0.0570516 -1.25407 0.527014 
v -0.543395 -1.25407 0.90325 
v -0.0719867 -1.25407 0.528113 
v -0.108127 -1.25407 0.94132 
v -0.507254 -1.25407 0.490043 
v -0.51293 -1.25407 0.312951 
v -0.0415224 -1.25407 -0.0621858 
v -0.0776627 -1.25407 0.351021 
v -0.47679 -1.25407 -0.100256 
v 0.0741576 -1.25407 0.349343 
v 0.460769 -1.25407 -0.112702 
v 0.508219 -1.25407 0.29936 
v 0.0267074 -1.25407 -0.0627183 
v -0.00897229 -0.934658 -0.446477 
v -0.839797 -0.189809 -0.446477 
v -0.00897454 0.511298 -0.446619 
v -0.866279 0.530183 -0.446582 
v -0.866272 -0.911576 -0.446477 
v 0.822136 -0.189809 -0.446477 
v 0.848333 -0.911576 -0.446477 
v 0.848326 0.529066 -0.446649 
v -0.899414 -0.211424 1.26813 
v -0.858442 -1.03543 0.776088 
v -0.866272 -0.997069 1.26813 
v -0.850942 -0.261442 0.305268 
v -0.850942 -1.04701 0.305277 
v -0.859042 -1.00842 -0.114343 
v -0.851212 0.485198 0.306171 
v -0.865365 0.603645 1.26375 
v -0.839797 -0.189809 -0.446477 
v -0.866272 -0.911576 -0.446477 
v -0.866279 0.530183 -0.446582 
v 0.840833 -1.0349 0.994023 
v 0.874545 -0.211424 1.26813 
v 0.848333 -0.997069 1.26813 
v 0.833663 -0.260317 0.731744 
v 0.833663 -1.04596 0.731744 
v 0.841103 -1.00842 0.0340326 
v 0.83433 0.49293 0.729829 
v 0.847935 0.561398 1.27003 
v 0.822136 -0.189809 -0.446477 
v 0.848333 -0.911576 -0.446477 
v 0.848326 0.529066 -0.446649 
v -0.00897249 -1.03739 0.882015 
v 0.840833 -1.0349 0.994023 
v -0.00897255 -1.02431 1.26813 
v 0.848333 -0.997069 1.26813 
v -0.866272 -0.997069 1.26813 
v 0.833663 -1.04596 0.731744 
v -0.858442 -1.03543 0.776088 
v -0.00897244 -1.05085 0.512559 
v 0.841103 -1.00842 0.0340326 
v -0.850942 -1.04701 0.305277 
v -0.00897236 -1.00842 -0.0401553 
v 0.848333 -0.911576 -0.446477 
v -0.859042 -1.00842 -0.114343 
v -0.00897229 -0.934658 -0.446477 
v -0.866272 -0.911576 -0.446477 
v -0.865365 0.603645 1.26375 
v -0.00871455 0.609443 1.26689 
v -0.00882769 0.488273 0.511098 
v -0.851212 0.485198 0.306171 
v 0.83433 0.49293 0.729829 
v 0.847935 0.561398 1.27003 
v 0.848326 0.529066 -0.446649 
v -0.00897454 0.511298 -0.446619 
v -0.866279 0.530183 -0.446582 
v -0.866272 -0.997069 1.26813 
v -0.00897255 -1.02431 1.26813 
v -0.899414 -0.211424 1.26813 
v -0.00871455 0.609443 1.26689 
v -0.865365 0.603645 1.26375 
v 0.874545 -0.211424 1.26813 
v 0.847935 0.561398 1.27003 
v 0.848333 -0.997069 1.26813 
v 0.848841 0.338056 1.25531 
v 1.17322 0.517409 1.25455 
v 0.896993 0.639922 1.25455 
v 0.788872 0.445118 1.25556 
v -0.896994 0.639922 1.25455 
v -0.848841 0.338056 1.25531 
v -0.788873 0.445118 1.25556 
v -1.17322 0.517409 1.25455 
v 0.848841 0.338056 1.25531 
v 1.11902 0.203476 1.25455 
v 1.17322 0.517409 1.25455 
v 0.851183 0.185392 1.25506 
v -0.848841 0.338056 1.25531 
v -1.11902 0.203476 1.25455 
v -0.851184 0.185392 1.25506 
v -1.17322 0.517409 1.25455 
v 1.17322 0.517409 1.25455 
v 1.03797 0.765531 1.25446 
v 0.896993 0.639922 1.25455 
v -1.17322 0.517409 1.25455 
v -0.896994 0.639922 1.25455 
v -1.03797 0.765531 1.25446 
v 1.44994 0.392859 1.25467 
v 1.17322 0.517409 1.25455 
v 1.3075 0.265807 1.25464 
v 1.3075 0.265807 1.25464 
v 1.17322 0.517409 1.25455 
v 1.11902 0.203476 1.25455 
v 1.03797 0.765531 1.25446 
v 1.17322 0.517409 1.25455 
v 1.23055 0.812024 1.25443 
v 1.23055 0.812024 1.25443 
v 1.17322 0.517409 1.25455 
v 1.48508 0.799323 1.25455 
v 1.58123 0.76794 1.25455 
v 1.17322 0.517409 1.25455 
v 1.56552 0.634416 1.25455 
v 1.58123 0.76794 1.25455 
v 1.44994 0.392859 1.25467 
v -1.44994 0.392859 1.25467 
v -1.3075 0.265807 1.25464 
v -1.17322 0.517409 1.25455 
v -1.3075 0.265807 1.25464 
v -1.11902 0.203476 1.25455 
v -1.17322 0.517409 1.25455 
v -1.03797 0.765531 1.25446 
v -1.23055 0.812024 1.25443 
v -1.17322 0.517409 1.25455 
v -1.17322 0.517409 1.25455 
v -1.48508 0.799323 1.25455 
v -1.58123 0.76794 1.25455 
v -1.23055 0.812024 1.25443 
v -1.44994 0.392859 1.25467 
v -1.17322 0.517409 1.25455 
v -1.56552 0.634416 1.25455 
v -1.58123 0.76794 1.25455 
v -0.239764 1.25407 1.25082 
v -0.512545 0.563406 1.25624 
v -0.213123 0.563406 1.25624 
v -0.641719 1.16861 1.25842 
v 0.200291 1.25407 1.25082 
v 0.473072 0.563406 1.25624 
v 0.602246 1.16861 1.25842 
v 0.17365 0.563406 1.25624 
v -0.47679 -1.25407 -0.100256 
v -0.0784006 -1.10651 -0.0328383 
v -0.0415224 -1.25407 -0.0621858 
v -0.445566 -1.10651 -0.0649519 
v -0.0864436 -0.940707 -0.0264386 
v -0.438757 -0.940707 -0.0572524 
v 0.460769 -1.25407 -0.112702 
v 0.0267074 -1.25407 -0.0627183 
v 0.0643761 -1.10651 -0.0343931 
v 0.430524 -1.10651 -0.0765558 
v 0.0725916 -0.940707 -0.0282153 
v 0.423928 -0.940707 -0.0686725 
v 0.430524 -1.10651 -0.0765558 
v 0.47055 -1.10651 0.271034 
v 0.508219 -1.25407 0.29936 
v 0.460769 -1.25407 -0.112702 
v 0.423928 -0.940707 -0.0686725 
v 0.462335 -0.940707 0.264857 
v -0.51293 -1.25407 0.312951 
v -0.445566 -1.10651 -0.0649519 
v -0.47679 -1.25407 -0.100256 
v -0.476052 -1.10651 0.283605 
v -0.438757 -0.940707 -0.0572524 
v -0.468009 -0.940707 0.277204 
v -0.641719 1.16861 1.25842 
v -0.641719 1.1322 0.849031 
v -0.512545 0.563406 1.25624 
v -0.512545 0.536878 0.957998 
v -0.543395 -1.25407 0.90325 
v -0.47603 -1.10651 0.525347 
v -0.507254 -1.25407 0.490043 
v -0.506516 -1.10651 0.873903 
v -0.469221 -0.940707 0.533046 
v -0.498473 -0.940707 0.867503 
v 0.461045 -1.10651 0.520032 
v 0.495166 -1.10651 0.868252 
v 0.532348 -1.25407 0.897213 
v 0.491899 -1.25407 0.484405 
v 0.454316 -0.940707 0.527802 
v 0.487057 -0.940707 0.861936 
v 0.602246 1.16861 1.25842 
v 0.473072 0.563406 1.25624 
v 0.602246 1.1322 0.849031 
v 0.473072 0.536878 0.957998 
v 0.495166 -1.10651 0.868252 
v 0.128356 -1.10651 0.904194 
v 0.0975013 -1.25407 0.939822 
v 0.532348 -1.25407 0.897213 
v 0.487057 -0.940707 0.861936 
v 0.135084 -0.940707 0.896424 
v -0.506516 -1.10651 0.873903 
v -0.108127 -1.25407 0.94132 
v -0.139351 -1.10651 0.906016 
v -0.543395 -1.25407 0.90325 
v -0.498473 -0.940707 0.867503 
v -0.14616 -0.940707 0.898317 
v -0.21575 -0.559675 -1.00741 
v -0.0986453 -0.236661 -0.953309 
v -0.21575 -0.466037 -1.27003 
v -0.0986453 -0.172843 -1.08129 
v -0.0137756 -0.841285 -1.24517 
v 0.188199 -0.466037 -1.27003 
v 0.0710941 -0.236661 -0.953309 
v 0.188199 -0.559675 -1.00741 
v 0.0710941 -0.172843 -1.08129 
v -0.0137756 -0.841285 -1.24517 
v -0.122881 0.0201516 -0.729423 
v -0.122881 0.242174 -0.406852 
v -0.122881 0.202669 -0.822105 
v -0.122881 0.495301 -0.407399 
v -0.0986453 -0.172843 -1.08129 
v -0.0986453 -0.236661 -0.953309 
v 0.0953297 0.202669 -0.822105 
v 0.0953296 0.242174 -0.406852 
v 0.0953297 0.0201516 -0.729423 
v 0.0953296 0.495301 -0.407399 
v 0.0710941 -0.172843 -1.08129 
v 0.0710941 -0.236661 -0.953309 
v 0.491899 -1.25407 0.484405 
v 0.0570516 -1.25407 0.527014 
v 0.0942343 -1.10651 0.555975 
v 0.461045 -1.10651 0.520032 
v 0.102343 -0.940707 0.562291 
v 0.454316 -0.940707 0.527802 
v -0.507254 -1.25407 0.490043 
v -0.108865 -1.10651 0.55746 
v -0.0719867 -1.25407 0.528113 
v -0.47603 -1.10651 0.525347 
v -0.116908 -0.940707 0.56386 
v -0.469221 -0.940707 0.533046 
v 0.200291 1.25407 1.25082 
v 0.17365 0.536878 0.957998 
v 0.17365 0.563406 1.25624 
v 0.200291 1.21766 0.84143 
v -0.239764 1.25407 1.25082 
v -0.213123 0.563406 1.25624 
v -0.213123 0.536878 0.957998 
v -0.239764 1.21766 0.841429 
v 0.128356 -1.10651 0.904194 
v 0.0570516 -1.25407 0.527014 
v 0.0975013 -1.25407 0.939822 
v 0.0942343 -1.10651 0.555975 
v 0.135084 -0.940707 0.896424 
v 0.102343 -0.940707 0.562291 
v -0.139351 -1.10651 0.906016 
v -0.0719867 -1.25407 0.528113 
v -0.108865 -1.10651 0.55746 
v -0.108127 -1.25407 0.94132 
v -0.14616 -0.940707 0.898317 
v -0.116908 -0.940707 0.56386 
v -0.108887 -1.10651 0.315717 
v -0.0415224 -1.25407 -0.0621858 
v -0.0784006 -1.10651 -0.0328383 
v -0.0776627 -1.25407 0.351021 
v -0.115696 -0.940707 0.308019 
v -0.0864436 -0.940707 -0.0264386 
v 0.104403 -1.10651 0.313197 
v 0.0267074 -1.25407 -0.0627183 
v 0.0741576 -1.25407 0.349343 
v 0.0643761 -1.10651 -0.0343931 
v 0.110998 -0.940707 0.305314 
v 0.0725916 -0.940707 -0.0282153 
v 0.47055 -1.10651 0.271034 
v 0.104403 -1.10651 0.313197 
v 0.0741576 -1.25407 0.349343 
v 0.508219 -1.25407 0.29936 
v 0.462335 -0.940707 0.264857 
v 0.110998 -0.940707 0.305314 
v -0.476052 -1.10651 0.283605 
v -0.0776627 -1.25407 0.351021 
v -0.108887 -1.10651 0.315717 
v -0.51293 -1.25407 0.312951 
v -0.468009 -0.940707 0.277204 
v -0.115696 -0.940707 0.308019 
v 0.828241 0.224843 1.15527 
v 0.811052 0.404008 1.15558 
v 0.957117 0.580415 1.09952 
v 0.788872 0.445118 1.25556 
v 0.896993 0.639922 1.25455 
v 1.03797 0.765531 1.25446 
v 1.11144 0.295609 1.09952 
v 0.851183 0.185392 1.25506 
v 1.11902 0.203476 1.25455 
v 1.26477 0.367693 1.10076 
v 1.3075 0.265807 1.25464 
v 1.10036 0.671712 1.10076 
v 1.23055 0.812024 1.25443 
v 1.21561 0.719764 1.11982 
v 1.48508 0.799323 1.25455 
v 1.30055 0.589029 1.11982 
v 1.58123 0.76794 1.25455 
v 1.56552 0.634416 1.25455 
v 1.3672 0.439145 1.11982 
v 1.44994 0.392859 1.25467 
v -0.828242 0.224843 1.15527 
v -1.11144 0.295609 1.09952 
v -0.957118 0.580415 1.09952 
v -0.851184 0.185392 1.25506 
v -1.11902 0.203476 1.25455 
v -0.811052 0.404008 1.15558 
v -1.26477 0.367693 1.10076 
v -1.3075 0.265807 1.25464 
v -0.896994 0.639922 1.25455 
v -0.788873 0.445118 1.25556 
v -1.03797 0.765531 1.25446 
v -1.10036 0.671712 1.10076 
v -1.23055 0.812024 1.25443 
v -1.21561 0.719764 1.11982 
v -1.48508 0.799323 1.25455 
v -1.30055 0.589029 1.11982 
v -1.58123 0.76794 1.25455 
v -1.56552 0.634416 1.25455 
v -1.3672 0.439145 1.11982 
v -1.44994 0.392859 1.25467 
v -0.512545 0.536878 0.957998 
v -0.239764 1.21766 0.841429 
v -0.213123 0.536878 0.957998 
v -0.641719 1.1322 0.849031 
v 0.17365 0.536878 0.957998 
v 0.200291 1.21766 0.84143 
v 0.473072 0.536878 0.957998 
v 0.602246 1.1322 0.849031 
v 0.0953296 0.242174 -0.406852 
v -0.122881 0.242174 -0.406852 
v -0.122881 0.0201516 -0.729423 
v 0.0953297 0.0201516 -0.729423 
v -0.0986453 -0.236661 -0.953309 
v 0.0710941 -0.236661 -0.953309 
v -0.0986453 -0.236661 -0.953309 
v 0.188199 -0.559675 -1.00741 
v 0.0710941 -0.236661 -0.953309 
v -0.21575 -0.559675 -1.00741 
v -0.0137756 -0.841285 -1.24517 

vn 0 0.251969 -0.968504 
vn 0 0.251969 -0.968504 
vn 0 0.543307 -0.84252 
vn 0 -0.0629921 -1 
vn 0 0.543307 -0.84252 
vn -0.204724 0.976378 -0.0866142 
vn -0.204724 0.976378 -0.0866142 
vn -0.204724 0.976378 -0.0866142 
vn -0.204724 0.976378 -0.0866142 
vn 0.204724 0.976378 -0.0866142 
vn 0.204724 0.976378 -0.0866142 
vn 0.204724 0.976378 -0.0866142 
vn 0.204724 0.976378 -0.0866142 
vn 0 0.818898 -0.574803 
vn 0 0.700787 -0.708661 
vn 0 0.818898 -0.574803 
vn 0 0.700787 -0.708661 
vn 0 0.566929 -0.826772 
vn 0 0.566929 -0.826772 
vn 0 -1 0 
vn 0 -1 0 
vn 0 -1 0 
vn 0 -1 0 
vn 0 -1 0 
vn 0 -1 0 
vn 0 -1 0 
vn 0 -1 0 
vn 0 -1 0 
vn 0 -1 0 
vn 0 -1 0 
vn 0 -1 0 
vn 0 -1 0 
vn 0 -1 0 
vn 0 -1 0 
vn 0 -1 0 
vn 0 0 -1 
vn 0 0 -1 
vn 0 0 -1 
vn 0 0 -1 
vn 0 0 -1 
vn 0 0 -1 
vn 0 0 -1 
vn 0 0 -1 
vn -1 0 -0.0393701 
vn -1 -0.015748 -0.023622 
vn -1 -0.0314961 -0.0393701 
vn -1 0 -0.00787402 
vn -1 0 0 
vn -1 0.015748 0.00787402 
vn -1 0 -0.015748 
vn -1 0.023622 -0.0314961 
vn -1 0 0 
vn -1 0.023622 0 
vn -1 -0.015748 0 
vn 1 -0.00787402 -0.0393701 
vn 1 0 -0.0551181 
vn 1 -0.023622 -0.0551181 
vn 1 0 -0.023622 
vn 1 0 -0.00787402 
vn 1 0.00787402 0.00787402 
vn 1 0 -0.023622 
vn 1 0.015748 -0.0551181 
vn 1 0 0 
vn 1 0.023622 0 
vn 1 -0.015748 0 
vn -0.00787402 -1 0.0551181 
vn 0.00787402 -1 0.0551181 
vn -0.00787402 -1 0.0708661 
vn 0.015748 -1 0.0787402 
vn -0.023622 -1 0.0551181 
vn 0.00787402 -1 -0.015748 
vn -0.015748 -1 0.0472441 
vn 0 -1 -0.023622 
vn 0.015748 -0.992126 -0.125984 
vn 0 -1 -0.023622 
vn 0.00787402 -0.992126 -0.141732 
vn 0.023622 -0.984252 -0.188976 
vn 0.00787402 -0.984252 -0.15748 
vn 0.00787402 -0.976378 -0.204724 
vn 0 -0.976378 -0.228346 
vn 0.015748 0.992126 -0.141732 
vn 0.0314961 0.992126 -0.141732 
vn 0.00787402 1 -0.0551181 
vn 0.00787402 1 -0.0472441 
vn 0.015748 1 -0.0629921 
vn 0.0472441 0.992126 -0.141732 
vn -0.015748 1 0.0314961 
vn -0.00787402 1 0.0314961 
vn 0.00787402 1 0.0393701 
vn 0 0 1 
vn 0 0 1 
vn 0 0 1 
vn 0 0 1 
vn 0 0 1 
vn 0 0 1 
vn 0 0 1 
vn 0 0 1 
vn 0 0 1 
vn 0 0 1 
vn 0 0 1 
vn 0 0 1 
vn 0 0 1 
vn 0 0 1 
vn 0 0 1 
vn 0 0 1 
vn 0 0 1 
vn 0 0 1 
vn 0 0 1 
vn 0 0 1 
vn 0 0 1 
vn 0 0 1 
vn 0 0 1 
vn 0 0 1 
vn 0 0 1 
vn 0 0 1 
vn 0 0 1 
vn 0 0 1 
vn 0 0 1 
vn 0 0 1 
vn 0 0 1 
vn 0 0 1 
vn 0 0 1 
vn 0 0 1 
vn 0 0 1 
vn 0 0 1 
vn 0 0 1 
vn 0 0 1 
vn 0 0 1 
vn 0 0 1 
vn 0 0 1 
vn 0 0 1 
vn 0 0 1 
vn 0 0 1 
vn 0 0 1 
vn 0 0 1 
vn 0 0 1 
vn 0 0 1 
vn 0 0 1 
vn 0 0 1 
vn 0 0 1 
vn 0 0 1 
vn 0 0 1 
vn 0 0 1 
vn 0 0 1 
vn 0 0 1 
vn 0 0 1 
vn 0 0 1 
vn 0 0 1 
vn 0 0 1 
vn 0 0 1 
vn 0 0 1 
vn 0 0 1 
vn 0 0 1 
vn 0.00787402 0 1 
vn 0.00787402 0 1 
vn 0.00787402 0 1 
vn 0.00787402 0 1 
vn -0.00787402 0 1 
vn -0.00787402 0 1 
vn -0.00787402 0 1 
vn -0.00787402 0 1 
vn 0.0866142 0.212598 -0.976378 
vn 0.0866142 0.125984 -0.984252 
vn 0.0866142 0.212598 -0.976378 
vn 0.0866142 0.125984 -0.984252 
vn 0.0866142 0.0393701 -0.992126 
vn 0.0866142 0.0393701 -0.992126 
vn -0.110236 0.212598 -0.968504 
vn -0.110236 0.212598 -0.968504 
vn -0.110236 0.125984 -0.984252 
vn -0.110236 0.125984 -0.984252 
vn -0.110236 0.0393701 -0.992126 
vn -0.110236 0.0393701 -0.992126 
vn 0.984252 0.133858 -0.110236 
vn 0.984252 0.133858 -0.110236 
vn 0.968504 0.228346 -0.110236 
vn 0.968504 0.228346 -0.110236 
vn 0.992126 0.0472441 -0.110236 
vn 0.992126 0.0472441 -0.110236 
vn -0.968504 0.228346 -0.0866142 
vn -0.984252 0.133858 -0.0866142 
vn -0.968504 0.228346 -0.0866142 
vn -0.984252 0.133858 -0.0866142 
vn -0.992126 0.0472441 -0.0866142 
vn -0.992126 0.0472441 -0.0866142 
vn -0.976378 -0.204724 0.015748 
vn -0.976378 -0.204724 0.015748 
vn -0.976378 -0.204724 0.015748 
vn -0.976378 -0.204724 0.015748 
vn -0.968504 0.228346 -0.0866142 
vn -0.984252 0.133858 -0.0866142 
vn -0.968504 0.228346 -0.0866142 
vn -0.984252 0.133858 -0.0866142 
vn -0.992126 0.0472441 -0.0866142 
vn -0.992126 0.0472441 -0.0866142 
vn 0.984252 0.133858 -0.0944882 
vn 0.984252 0.133858 -0.0944882 
vn 0.968504 0.228346 -0.0944882 
vn 0.968504 0.228346 -0.0944882 
vn 0.992126 0.0472441 -0.0944882 
vn 0.992126 0.0472441 -0.0944882 
vn 0.976378 -0.204724 0.015748 
vn 0.976378 -0.204724 0.015748 
vn 0.976378 -0.204724 0.015748 
vn 0.976378 -0.204724 0.015748 
vn 0.0944882 0.125984 0.984252 
vn 0.0944882 0.125984 0.984252 
vn 0.0944882 0.212598 0.968504 
vn 0.0944882 0.212598 0.968504 
vn 0.0944882 0.0393701 0.992126 
vn 0.0944882 0.0393701 0.992126 
vn -0.0866142 0.125984 0.984252 
vn -0.0866142 0.212598 0.976378 
vn -0.0866142 0.125984 0.984252 
vn -0.0866142 0.212598 0.976378 
vn -0.0866142 0.0393701 0.992126 
vn -0.0866142 0.0393701 0.992126 
vn -0.992126 -0.0944882 -0.023622 
vn -0.944882 0.307087 0.125984 
vn -0.992126 -0.0944882 -0.023622 
vn -0.944882 0.307087 0.125984 
vn -0.866142 -0.472441 -0.173228 
vn 0.992126 -0.0944882 -0.023622 
vn 0.944882 0.307087 0.125984 
vn 0.992126 -0.0944882 -0.023622 
vn 0.944882 0.307087 0.125984 
vn 0.866142 -0.472441 -0.173228 
vn -1 -0.023622 -0.023622 
vn -1 0 0 
vn -1 -0.023622 -0.023622 
vn -1 0 0 
vn -1 -0.0393701 -0.0472441 
vn -1 -0.0393701 -0.0472441 
vn 1 -0.023622 -0.023622 
vn 1 0 0 
vn 1 -0.023622 -0.023622 
vn 1 0 0 
vn 1 -0.0393701 -0.0472441 
vn 1 -0.0393701 -0.0472441 
vn -0.0944882 0.212598 -0.968504 
vn -0.0944882 0.212598 -0.968504 
vn -0.0944882 0.125984 -0.984252 
vn -0.0944882 0.125984 -0.984252 
vn -0.0944882 0.0393701 -0.992126 
vn -0.0944882 0.0393701 -0.992126 
vn 0.0866142 0.212598 -0.976378 
vn 0.0866142 0.125984 -0.984252 
vn 0.0866142 0.212598 -0.976378 
vn 0.0866142 0.125984 -0.984252 
vn 0.0866142 0.0393701 -0.992126 
vn 0.0866142 0.0393701 -0.992126 
vn -1 0.0393701 0 
vn -1 0.0393701 0 
vn -1 0.0393701 0 
vn -1 0.0393701 0 
vn 1 0.0393701 0 
vn 1 0.0393701 0 
vn 1 0.0393701 0 
vn 1 0.0393701 0 
vn -0.984252 0.133858 0.0944882 
vn -0.968504 0.228346 0.0944882 
vn -0.968504 0.228346 0.0944882 
vn -0.984252 0.133858 0.0944882 
vn -0.992126 0.0472441 0.0944882 
vn -0.992126 0.0472441 0.0944882 
vn 0.984252 0.133858 0.0866142 
vn 0.968504 0.228346 0.0866142 
vn 0.984252 0.133858 0.0866142 
vn 0.968504 0.228346 0.0866142 
vn 0.992126 0.0472441 0.0866142 
vn 0.992126 0.0472441 0.0866142 
vn 0.984252 0.133858 0.0866142 
vn 0.968504 0.228346 0.0866142 
vn 0.984252 0.133858 0.0866142 
vn 0.968504 0.228346 0.0866142 
vn 0.992126 0.0472441 0.0866142 
vn 0.992126 0.0472441 0.0866142 
vn -0.984252 0.133858 0.110236 
vn -0.968504 0.228346 0.110236 
vn -0.968504 0.228346 0.110236 
vn -0.984252 0.133858 0.110236 
vn -0.992126 0.0472441 0.110236 
vn -0.992126 0.0472441 0.110236 
vn 0.110236 0.125984 0.984252 
vn 0.110236 0.125984 0.984252 
vn 0.110236 0.212598 0.968504 
vn 0.110236 0.212598 0.968504 
vn 0.110236 0.0393701 0.992126 
vn 0.110236 0.0393701 0.992126 
vn -0.0866142 0.125984 0.984252 
vn -0.0866142 0.212598 0.976378 
vn -0.0866142 0.125984 0.984252 
vn -0.0866142 0.212598 0.976378 
vn -0.0866142 0.0393701 0.992126 
vn -0.0866142 0.0393701 0.992126 
vn -0.0629921 -0.551181 -0.834646 
vn -0.559055 0.220472 -0.80315 
vn -0.433071 0.307087 -0.850394 
vn -0.771654 0.464567 -0.433071 
vn -0.653543 0.574803 -0.488189 
vn -0.377953 0.732283 -0.566929 
vn 0.0551181 -0.503937 -0.866142 
vn 0.0944882 -0.88189 -0.464567 
vn 0.204724 -0.834646 -0.503937 
vn 0.251969 -0.291339 -0.92126 
vn 0.433071 -0.708661 -0.559055 
vn -0.110236 0.362205 -0.929134 
vn -0.0551181 0.779528 -0.622047 
vn 0.102362 0.519685 -0.850394 
vn 0.259843 0.543307 -0.795276 
vn 0.23622 0.133858 -0.96063 
vn 0.393701 0.212598 -0.889764 
vn 0.622047 -0.110236 -0.779528 
vn 0.511811 -0.212598 -0.834646 
vn 0.653543 -0.496063 -0.574803 
vn 0.0629921 -0.551181 -0.834646 
vn -0.0551181 -0.503937 -0.866142 
vn 0.433071 0.307087 -0.850394 
vn -0.0944882 -0.88189 -0.464567 
vn -0.204724 -0.834646 -0.503937 
vn 0.559055 0.220472 -0.80315 
vn -0.251969 -0.291339 -0.92126 
vn -0.433071 -0.708661 -0.559055 
vn 0.653543 0.574803 -0.488189 
vn 0.771654 0.464567 -0.433071 
vn 0.377953 0.732283 -0.566929 
vn 0.110236 0.362205 -0.929134 
vn 0.0551181 0.779528 -0.622047 
vn -0.102362 0.519685 -0.850394 
vn -0.259843 0.543307 -0.795276 
vn -0.23622 0.133858 -0.96063 
vn -0.393701 0.212598 -0.889764 
vn -0.622047 -0.110236 -0.779528 
vn -0.511811 -0.212598 -0.834646 
vn -0.653543 -0.496063 -0.574803 
vn 0.00787402 -0.173228 -0.984252 
vn 0.00787402 -0.173228 -0.984252 
vn 0.00787402 -0.173228 -0.984252 
vn 0.00787402 -0.173228 -0.984252 
vn -0.00787402 -0.173228 -0.984252 
vn -0.00787402 -0.173228 -0.984252 
vn -0.00787402 -0.173228 -0.984252 
vn -0.00787402 -0.173228 -0.984252 
vn 0 -0.826772 0.566929 
vn 0 -0.826772 0.566929 
vn 0 -0.748031 0.669291 
vn 0 -0.748031 0.669291 
vn 0 -0.653543 0.755906 
vn 0 -0.653543 0.755906 
vn 0 -0.165354 0.984252 
vn 0 -0.417323 0.905512 
vn 0 -0.165354 0.984252 
vn 0 -0.417323 0.905512 
vn 0 -0.645669 0.76378 

vt 0.652153 0.220986 
vt 0.645884 0.276417 
vt 0.603311 0.257252 
vt 0.690533 0.253626 
vt 0.605483 0.223503 
vt 0.479278 0.0982158 
vt 0.424282 0.096536 
vt 0.477599 0.153212 
vt 0.422602 0.151533 
vt 0.479278 0.0982158 
vt 0.477599 0.153212 
vt 0.424282 0.096536 
vt 0.422602 0.151533 
vt 0.456949 0.223327 
vt 0.535165 0.224307 
vt 0.45652 0.255359 
vt 0.533964 0.254673 
vt 0.603311 0.257252 
vt 0.605483 0.223503 
vt 0.901369 0.916183 
vt 0.813021 0.84004 
vt 0.893507 0.833102 
vt 0.821116 0.925618 
vt 0.893507 0.833102 
vt 0.821116 0.925618 
vt 0.901369 0.916183 
vt 0.813044 0.840236 
vt 0.813021 0.84004 
vt 0.901369 0.916183 
vt 0.821116 0.925618 
vt 0.893507 0.833102 
vt 0.821116 0.925618 
vt 0.893507 0.833102 
vt 0.813021 0.84004 
vt 0.901369 0.916183 
vt 0.707272 0.182523 
vt 0.851696 0.019612 
vt 0.989469 0.182357 
vt 0.992848 0.014168 
vt 0.709917 0.015226 
vt 0.851785 0.345268 
vt 0.710056 0.349963 
vt 0.992703 0.350493 
vt 0.355903 0.171636 
vt 0.254673 0.012641 
vt 0.351848 0.017046 
vt 0.165985 0.169129 
vt 0.162319 0.013066 
vt 0.080291 0.022033 
vt 0.169237 0.320271 
vt 0.362213 0.330025 
vt 0.018462 0.183941 
vt 0.014968 0.042101 
vt 0.017859 0.323063 
vt 0.399182 0.672452 
vt 0.347882 0.831242 
vt 0.346066 0.680084 
vt 0.450833 0.822082 
vt 0.449993 0.670323 
vt 0.585023 0.677583 
vt 0.449837 0.967866 
vt 0.344437 0.979779 
vt 0.677959 0.835995 
vt 0.677831 0.696274 
vt 0.677702 0.975151 
vt 0.620085 0.0557963 
vt 0.613658 0.106465 
vt 0.59708 0.0558543 
vt 0.597194 0.107005 
vt 0.597018 0.00470906 
vt 0.629305 0.105977 
vt 0.626396 0.0051741 
vt 0.642082 0.0557275 
vt 0.670998 0.106246 
vt 0.65444 0.00554514 
vt 0.674972 0.0556335 
vt 0.700289 0.10649 
vt 0.679577 0.00502807 
vt 0.699442 0.0555639 
vt 0.700246 0.00468075 
vt 0.362213 0.330025 
vt 0.356964 0.496741 
vt 0.205935 0.491441 
vt 0.169237 0.320271 
vt 0.245218 0.659681 
vt 0.352497 0.665405 
vt 0.013892 0.658002 
vt 0.017666 0.48936 
vt 0.017859 0.323063 
vt 0.0142672 0.677649 
vt 0.179812 0.673187 
vt 0.00697523 0.829303 
vt 0.178044 0.989009 
vt 0.0124422 0.986735 
vt 0.347882 0.831242 
vt 0.344437 0.979779 
vt 0.346066 0.680084 
vt 0.718426 0.761392 
vt 0.77321 0.761274 
vt 0.762144 0.810472 
vt 0.718365 0.78195 
vt 0.762144 0.810472 
vt 0.718426 0.761392 
vt 0.718365 0.78195 
vt 0.77321 0.761274 
vt 0.718426 0.761392 
vt 0.761017 0.710777 
vt 0.77321 0.761274 
vt 0.718489 0.740835 
vt 0.718426 0.761392 
vt 0.761017 0.710777 
vt 0.718489 0.740835 
vt 0.77321 0.761274 
vt 0.77321 0.761274 
vt 0.773548 0.81262 
vt 0.762144 0.810472 
vt 0.77321 0.761274 
vt 0.762144 0.810472 
vt 0.773548 0.81262 
vt 0.784387 0.711792 
vt 0.77321 0.761274 
vt 0.772498 0.709501 
vt 0.772498 0.709501 
vt 0.77321 0.761274 
vt 0.761017 0.710777 
vt 0.773548 0.81262 
vt 0.77321 0.761274 
vt 0.78565 0.811195 
vt 0.78565 0.811195 
vt 0.77321 0.761274 
vt 0.83251 0.774688 
vt 0.836501 0.761065 
vt 0.77321 0.761274 
vt 0.832294 0.746501 
vt 0.836501 0.761065 
vt 0.784387 0.711792 
vt 0.784387 0.711792 
vt 0.772498 0.709501 
vt 0.77321 0.761274 
vt 0.772498 0.709501 
vt 0.761017 0.710777 
vt 0.77321 0.761274 
vt 0.773548 0.81262 
vt 0.78565 0.811195 
vt 0.77321 0.761274 
vt 0.77321 0.761274 
vt 0.83251 0.774688 
vt 0.836501 0.761065 
vt 0.78565 0.811195 
vt 0.784387 0.711792 
vt 0.77321 0.761274 
vt 0.832294 0.746501 
vt 0.836501 0.761065 
vt 0.424282 0.096536 
vt 0.478785 0.0273737 
vt 0.439849 0.0178536 
vt 0.479278 0.0982158 
vt 0.424282 0.096536 
vt 0.478785 0.0273737 
vt 0.479278 0.0982158 
vt 0.439849 0.0178536 
vt 0.893507 0.833102 
vt 0.930436 0.908734 
vt 0.901369 0.916183 
vt 0.923212 0.834514 
vt 0.962322 0.902212 
vt 0.955391 0.834961 
vt 0.893507 0.833102 
vt 0.901369 0.916183 
vt 0.930436 0.908734 
vt 0.923212 0.834514 
vt 0.962322 0.902212 
vt 0.955391 0.834961 
vt 0.923212 0.834514 
vt 0.933036 0.765791 
vt 0.904609 0.757308 
vt 0.893507 0.833102 
vt 0.955391 0.834961 
vt 0.964389 0.773823 
vt 0.904609 0.757308 
vt 0.923212 0.834514 
vt 0.893507 0.833102 
vt 0.933036 0.765791 
vt 0.955391 0.834961 
vt 0.964389 0.773823 
vt 0.479278 0.0982158 
vt 0.533952 0.0920341 
vt 0.478785 0.0273737 
vt 0.518615 0.0228704 
vt 0.893507 0.833102 
vt 0.933036 0.765791 
vt 0.904609 0.757308 
vt 0.923212 0.834514 
vt 0.964389 0.773823 
vt 0.955391 0.834961 
vt 0.933036 0.765791 
vt 0.923212 0.834514 
vt 0.893507 0.833102 
vt 0.904609 0.757308 
vt 0.964389 0.773823 
vt 0.955391 0.834961 
vt 0.479278 0.0982158 
vt 0.478785 0.0273737 
vt 0.533952 0.0920341 
vt 0.518615 0.0228704 
vt 0.923212 0.834514 
vt 0.930436 0.908734 
vt 0.901369 0.916183 
vt 0.893507 0.833102 
vt 0.955391 0.834961 
vt 0.962322 0.902212 
vt 0.923212 0.834514 
vt 0.901369 0.916183 
vt 0.930436 0.908734 
vt 0.893507 0.833102 
vt 0.955391 0.834961 
vt 0.962322 0.902212 
vt 0.625726 0.311178 
vt 0.595367 0.283256 
vt 0.645884 0.276417 
vt 0.603311 0.257252 
vt 0.676183 0.317582 
vt 0.652153 0.220986 
vt 0.602305 0.195698 
vt 0.645189 0.183709 
vt 0.605483 0.223503 
vt 0.695171 0.194117 
vt 0.5434 0.281895 
vt 0.479392 0.284669 
vt 0.533964 0.254673 
vt 0.45652 0.255359 
vt 0.603311 0.257252 
vt 0.595367 0.283256 
vt 0.535165 0.224307 
vt 0.480854 0.194685 
vt 0.545681 0.19753 
vt 0.456949 0.223327 
vt 0.605483 0.223503 
vt 0.602305 0.195698 
vt 0.904609 0.757308 
vt 0.937923 0.679496 
vt 0.962256 0.697477 
vt 0.933036 0.765791 
vt 0.991562 0.710431 
vt 0.964389 0.773823 
vt 0.904609 0.757308 
vt 0.962256 0.697477 
vt 0.937923 0.679496 
vt 0.933036 0.765791 
vt 0.991562 0.710431 
vt 0.964389 0.773823 
vt 0.424282 0.096536 
vt 0.401422 0.00644612 
vt 0.439849 0.0178536 
vt 0.371535 0.0808772 
vt 0.424282 0.096536 
vt 0.439849 0.0178536 
vt 0.401422 0.00644612 
vt 0.371535 0.0808772 
vt 0.930436 0.908734 
vt 0.928145 0.990732 
vt 0.901369 0.916183 
vt 0.953234 0.974424 
vt 0.962322 0.902212 
vt 0.983516 0.963033 
vt 0.930436 0.908734 
vt 0.928145 0.990732 
vt 0.953234 0.974424 
vt 0.901369 0.916183 
vt 0.962322 0.902212 
vt 0.983516 0.963033 
vt 0.953234 0.974424 
vt 0.901369 0.916183 
vt 0.930436 0.908734 
vt 0.928145 0.990732 
vt 0.983516 0.963033 
vt 0.962322 0.902212 
vt 0.953234 0.974424 
vt 0.901369 0.916183 
vt 0.928145 0.990732 
vt 0.930436 0.908734 
vt 0.983516 0.963033 
vt 0.962322 0.902212 
vt 0.933036 0.765791 
vt 0.962256 0.697477 
vt 0.937923 0.679496 
vt 0.904609 0.757308 
vt 0.964389 0.773823 
vt 0.991562 0.710431 
vt 0.933036 0.765791 
vt 0.937923 0.679496 
vt 0.962256 0.697477 
vt 0.904609 0.757308 
vt 0.964389 0.773823 
vt 0.991562 0.710431 
vt 0.733715 0.833176 
vt 0.758495 0.833084 
vt 0.770335 0.873849 
vt 0.775793 0.82897 
vt 0.801855 0.875258 
vt 0.802895 0.886717 
vt 0.721389 0.873464 
vt 0.716554 0.828905 
vt 0.689514 0.874495 
vt 0.719676 0.887093 
vt 0.688906 0.885918 
vt 0.771913 0.887537 
vt 0.801331 0.898704 
vt 0.769817 0.902223 
vt 0.759573 0.944709 
vt 0.746305 0.90439 
vt 0.74604 0.947713 
vt 0.731536 0.944508 
vt 0.721644 0.901761 
vt 0.690906 0.897764 
vt 0.733715 0.833176 
vt 0.721389 0.873464 
vt 0.770335 0.873849 
vt 0.716554 0.828905 
vt 0.689514 0.874495 
vt 0.758495 0.833084 
vt 0.719676 0.887093 
vt 0.688906 0.885918 
vt 0.801855 0.875258 
vt 0.775793 0.82897 
vt 0.802895 0.886717 
vt 0.771913 0.887537 
vt 0.801331 0.898704 
vt 0.769817 0.902223 
vt 0.759573 0.944709 
vt 0.746305 0.90439 
vt 0.74604 0.947713 
vt 0.731536 0.944508 
vt 0.721644 0.901761 
vt 0.690906 0.897764 
vt 0.518615 0.0228704 
vt 0.587185 0.0781173 
vt 0.554444 0.00489676 
vt 0.533952 0.0920341 
vt 0.554444 0.00489676 
vt 0.587185 0.0781173 
vt 0.518615 0.0228704 
vt 0.533952 0.0920341 
vt 0.480854 0.194685 
vt 0.482263 0.163519 
vt 0.54423 0.166394 
vt 0.545681 0.19753 
vt 0.593656 0.164481 
vt 0.602305 0.195698 
vt 0.593656 0.164481 
vt 0.645189 0.183709 
vt 0.602305 0.195698 
vt 0.619996 0.132636 
vt 0.670211 0.139158 

usemtl Pet1Mtl

f 1/1/1 2/2/2 3/3/3 
f 2/2/2 1/1/1 4/4/4 
f 1/1/1 3/3/3 5/5/5 
f 6/6/6 7/7/7 8/8/8 
f 7/7/7 9/9/9 8/8/8 
f 10/10/10 11/11/11 12/12/12 
f 12/12/12 11/11/11 13/13/13 
f 14/14/14 15/15/15 16/16/16 
f 16/16/16 15/15/15 17/17/17 
f 15/15/15 18/18/18 17/17/17 
f 18/18/18 15/15/15 19/19/19 
f 20/20/20 21/21/21 22/22/22 
f 21/21/21 20/20/20 23/23/23 
f 24/24/24 25/25/25 26/26/26 
f 25/25/25 24/24/24 27/27/27 
f 28/28/28 29/29/29 30/30/30 
f 29/29/29 28/28/28 31/31/31 
f 32/32/32 33/33/33 34/34/34 
f 33/33/33 32/32/32 35/35/35 
f 36/36/36 37/37/37 38/38/38 
f 37/37/37 39/39/39 38/38/38 
f 37/37/37 36/36/36 40/40/40 
f 41/41/41 36/36/36 38/38/38 
f 36/36/36 41/41/41 42/42/42 
f 41/41/41 38/38/38 43/43/43 
f 44/44/44 45/45/45 46/46/46 
f 45/45/45 44/44/44 47/47/47 
f 45/45/45 47/47/47 48/48/48 
f 49/49/49 48/48/48 47/47/47 
f 44/44/44 50/50/50 47/47/47 
f 44/44/44 51/51/51 50/50/50 
f 49/49/49 47/47/47 52/52/52 
f 50/50/50 52/52/52 47/47/47 
f 49/49/49 52/52/52 53/53/53 
f 52/52/52 50/50/50 54/54/54 
f 55/55/55 56/56/56 57/57/57 
f 56/56/56 55/55/55 58/58/58 
f 55/55/55 59/59/59 58/58/58 
f 60/60/60 58/58/58 59/59/59 
f 61/61/61 56/56/56 58/58/58 
f 56/56/56 61/61/61 62/62/62 
f 58/58/58 60/60/60 63/63/63 
f 58/58/58 63/63/63 61/61/61 
f 60/60/60 64/64/64 63/63/63 
f 61/61/61 63/63/63 65/65/65 
f 66/66/66 67/67/67 68/68/68 
f 69/69/69 68/68/68 67/67/67 
f 68/68/68 70/70/70 66/66/66 
f 67/67/67 66/66/66 71/71/71 
f 72/72/72 66/66/66 70/70/70 
f 73/73/73 71/71/71 66/66/66 
f 66/66/66 72/72/72 73/73/73 
f 71/71/71 73/73/73 74/74/74 
f 75/75/75 73/73/73 72/72/72 
f 73/73/73 76/76/76 74/74/74 
f 73/73/73 75/75/75 76/76/76 
f 74/74/74 76/76/76 77/77/77 
f 78/78/78 76/76/76 75/75/75 
f 79/79/79 77/77/77 76/76/76 
f 76/76/76 78/78/78 79/79/79 
f 80/80/80 79/79/79 78/78/78 
f 81/81/81 82/82/82 83/83/83 
f 81/81/81 83/83/83 84/84/84 
f 82/82/82 85/85/85 83/83/83 
f 82/82/82 86/86/86 85/85/85 
f 85/85/85 87/87/87 83/83/83 
f 83/83/83 87/87/87 88/88/88 
f 83/83/83 88/88/88 84/84/84 
f 84/84/84 88/88/88 89/89/89 
f 90/90/90 91/91/91 92/92/92 
f 93/93/93 92/92/92 91/91/91 
f 92/92/92 93/93/93 94/94/94 
f 95/95/95 93/93/93 91/91/91 
f 93/93/93 95/95/95 96/96/96 
f 91/91/91 97/97/97 95/95/95 
f 98/98/98 99/99/99 100/100/100 
f 98/98/98 100/100/100 101/101/101 
f 102/102/102 103/103/103 104/104/104 
f 105/105/105 103/103/103 102/102/102 
f 106/106/106 107/107/107 108/108/108 
f 107/107/107 106/106/106 109/109/109 
f 110/110/110 111/111/111 112/112/112 
f 111/111/111 110/110/110 113/113/113 
f 114/114/114 115/115/115 116/116/116 
f 117/117/117 118/118/118 119/119/119 
f 120/120/120 121/121/121 122/122/122 
f 123/123/123 124/124/124 125/125/125 
f 126/126/126 127/127/127 128/128/128 
f 129/129/129 130/130/130 131/131/131 
f 130/130/130 132/132/132 131/131/131 
f 133/133/133 134/134/134 135/135/135 
f 136/136/136 134/134/134 133/133/133 
f 137/137/137 138/138/138 139/139/139 
f 140/140/140 141/141/141 142/142/142 
f 143/143/143 144/144/144 145/145/145 
f 146/146/146 147/147/147 148/148/148 
f 147/147/147 146/146/146 149/149/149 
f 150/150/150 151/151/151 152/152/152 
f 151/151/151 153/153/153 152/152/152 
f 154/154/154 155/155/155 156/156/156 
f 155/155/155 154/154/154 157/157/157 
f 158/158/158 159/159/159 160/160/160 
f 159/159/159 158/158/158 161/161/161 
f 162/162/162 163/163/163 164/164/164 
f 163/163/163 162/162/162 165/165/165 
f 165/165/165 166/166/166 163/163/163 
f 166/166/166 165/165/165 167/167/167 
f 168/168/168 169/169/169 170/170/170 
f 168/168/168 170/170/170 171/171/171 
f 171/171/171 170/170/170 172/172/172 
f 171/171/171 172/172/172 173/173/173 
f 174/174/174 175/175/175 176/176/176 
f 176/176/176 177/177/177 174/174/174 
f 175/175/175 174/174/174 178/178/178 
f 178/178/178 179/179/179 175/175/175 
f 180/180/180 181/181/181 182/182/182 
f 181/181/181 180/180/180 183/183/183 
f 183/183/183 184/184/184 181/181/181 
f 184/184/184 183/183/183 185/185/185 
f 186/186/186 187/187/187 188/188/188 
f 188/188/188 187/187/187 189/189/189 
f 190/190/190 191/191/191 192/192/192 
f 191/191/191 190/190/190 193/193/193 
f 193/193/193 194/194/194 191/191/191 
f 194/194/194 193/193/193 195/195/195 
f 196/196/196 197/197/197 198/198/198 
f 198/198/198 199/199/199 196/196/196 
f 197/197/197 196/196/196 200/200/200 
f 200/200/200 201/201/201 197/197/197 
f 202/202/202 203/203/203 204/204/204 
f 203/203/203 205/205/205 204/204/204 
f 206/206/206 207/207/207 208/208/208 
f 208/208/208 209/209/209 206/206/206 
f 210/210/210 207/207/207 206/206/206 
f 210/210/210 211/211/211 207/207/207 
f 212/212/212 213/213/213 214/214/214 
f 213/213/213 212/212/212 215/215/215 
f 214/214/214 216/216/216 212/212/212 
f 216/216/216 214/214/214 217/217/217 
f 218/218/218 219/219/219 220/220/220 
f 220/220/220 219/219/219 221/221/221 
f 218/218/218 220/220/220 222/222/222 
f 223/223/223 224/224/224 225/225/225 
f 224/224/224 223/223/223 226/226/226 
f 223/223/223 225/225/225 227/227/227 
f 228/228/228 229/229/229 230/230/230 
f 231/231/231 230/230/230 229/229/229 
f 230/230/230 232/232/232 228/228/228 
f 228/228/228 232/232/232 233/233/233 
f 234/234/234 235/235/235 236/236/236 
f 235/235/235 234/234/234 237/237/237 
f 236/236/236 238/238/238 234/234/234 
f 238/238/238 236/236/236 239/239/239 
f 240/240/240 241/241/241 242/242/242 
f 240/240/240 242/242/242 243/243/243 
f 243/243/243 242/242/242 244/244/244 
f 243/243/243 244/244/244 245/245/245 
f 246/246/246 247/247/247 248/248/248 
f 247/247/247 246/246/246 249/249/249 
f 249/249/249 250/250/250 247/247/247 
f 250/250/250 249/249/249 251/251/251 
f 252/252/252 253/253/253 254/254/254 
f 253/253/253 252/252/252 255/255/255 
f 256/256/256 257/257/257 258/258/258 
f 256/256/256 258/258/258 259/259/259 
f 260/260/260 261/261/261 262/262/262 
f 261/261/261 260/260/260 263/263/263 
f 264/264/264 263/263/263 260/260/260 
f 263/263/263 264/264/264 265/265/265 
f 266/266/266 267/267/267 268/268/268 
f 267/267/267 266/266/266 269/269/269 
f 268/268/268 270/270/270 266/266/266 
f 270/270/270 268/268/268 271/271/271 
f 272/272/272 273/273/273 274/274/274 
f 273/273/273 272/272/272 275/275/275 
f 274/274/274 276/276/276 272/272/272 
f 276/276/276 274/274/274 277/277/277 
f 278/278/278 279/279/279 280/280/280 
f 279/279/279 278/278/278 281/281/281 
f 282/282/282 281/281/281 278/278/278 
f 281/281/281 282/282/282 283/283/283 
f 284/284/284 285/285/285 286/286/286 
f 286/286/286 287/287/287 284/284/284 
f 288/288/288 285/285/285 284/284/284 
f 288/288/288 289/289/289 285/285/285 
f 290/290/290 291/291/291 292/292/292 
f 291/291/291 290/290/290 293/293/293 
f 292/292/292 294/294/294 290/290/290 
f 294/294/294 292/292/292 295/295/295 
f 296/296/296 297/297/297 298/298/298 
f 299/299/299 300/300/300 297/297/297 
f 297/297/297 300/300/300 298/298/298 
f 301/301/301 298/298/298 300/300/300 
f 296/296/296 298/298/298 302/302/302 
f 303/303/303 296/296/296 302/302/302 
f 304/304/304 303/303/303 302/302/302 
f 305/305/305 304/304/304 302/302/302 
f 302/302/302 298/298/298 305/305/305 
f 304/304/304 305/305/305 306/306/306 
f 298/298/298 301/301/301 307/307/307 
f 307/307/307 305/305/305 298/298/298 
f 308/308/308 307/307/307 301/301/301 
f 307/307/307 308/308/308 309/309/309 
f 308/308/308 310/310/310 309/309/309 
f 311/311/311 307/307/307 309/309/309 
f 311/311/311 309/309/309 310/310/310 
f 305/305/305 307/307/307 311/311/311 
f 312/312/312 311/311/311 310/310/310 
f 311/311/311 312/312/312 313/313/313 
f 305/305/305 311/311/311 314/314/314 
f 313/313/313 314/314/314 311/311/311 
f 314/314/314 306/306/306 305/305/305 
f 314/314/314 313/313/313 315/315/315 
f 306/306/306 314/314/314 315/315/315 
f 316/316/316 317/317/317 318/318/318 
f 319/319/319 317/317/317 316/316/316 
f 320/320/320 317/317/317 319/319/319 
f 316/316/316 318/318/318 321/321/321 
f 320/320/320 322/322/322 317/317/317 
f 322/322/322 318/318/318 317/317/317 
f 320/320/320 323/323/323 322/322/322 
f 324/324/324 321/321/321 318/318/318 
f 325/325/325 321/321/321 324/324/324 
f 318/318/318 326/326/326 324/324/324 
f 326/326/326 318/318/318 327/327/327 
f 322/322/322 327/327/327 318/318/318 
f 328/328/328 326/326/326 327/327/327 
f 328/328/328 327/327/327 329/329/329 
f 328/328/328 329/329/329 330/330/330 
f 331/331/331 329/329/329 327/327/327 
f 331/331/331 330/330/330 329/329/329 
f 322/322/322 331/331/331 327/327/327 
f 331/331/331 332/332/332 330/330/330 
f 332/332/332 331/331/331 333/333/333 
f 322/322/322 334/334/334 331/331/331 
f 333/333/333 331/331/331 334/334/334 
f 323/323/323 334/334/334 322/322/322 
f 334/334/334 335/335/335 333/333/333 
f 334/334/334 323/323/323 335/335/335 
f 336/336/336 337/337/337 338/338/338 
f 337/337/337 336/336/336 339/339/339 
f 340/340/340 341/341/341 342/342/342 
f 341/341/341 343/343/343 342/342/342 
f 344/344/344 345/345/345 346/346/346 
f 344/344/344 346/346/346 347/347/347 
f 347/347/347 346/346/346 348/348/348 
f 347/347/347 348/348/348 349/349/349 
f 350/350/350 351/351/351 352/352/352 
f 351/351/351 350/350/350 353/353/353 
f 351/351/351 353/353/353 354/354/354 

