# This file is brought to you by Roblox Corporation
# Generated by Roblox Studio

mtllib pandaclown.mtl

g Pet1

v -0.00848786 1.30305 0.66757 
v -0.0084878 1.26737 0.224076 
v -0.268447 1.29626 0.583204 
v -0.430361 1.27844 0.361664 
v -0.430714 1.25639 0.0875697 
v -0.26937 1.23853 -0.134384 
v -0.00848773 1.23169 -0.219418 
v -0.00848786 1.30305 0.66757 
v 0.251471 1.29626 0.583204 
v -0.0084878 1.26737 0.224076 
v 0.413386 1.27844 0.361664 
v 0.413738 1.25639 0.0875699 
v 0.252395 1.23853 -0.134384 
v -0.00848773 1.23169 -0.219418 
v 0.259334 0.180884 -1.04373 
v -0.276682 0.180884 -1.04373 
v -0.275368 0.45298 -1.06088 
v 0.25802 0.45298 -1.06088 
v 0.237985 -0.0912103 -0.968017 
v -0.255332 -0.0912103 -0.968017 
v 0.0945599 -1.30305 0.622568 
v 0.488957 -1.30305 0.167151 
v 0.529407 -1.30305 0.579959 
v 0.0541102 -1.30305 0.20976 
v -0.546336 -1.30305 0.585996 
v -0.074928 -1.30305 0.210859 
v -0.111068 -1.30305 0.624066 
v -0.510196 -1.30305 0.172789 
v -0.515872 -1.30305 -0.00430274 
v -0.0444637 -1.30305 -0.37944 
v -0.080604 -1.30305 0.0337673 
v -0.479731 -1.30305 -0.41751 
v 0.0712162 -1.30305 0.0320888 
v 0.457828 -1.30305 -0.429956 
v 0.505278 -1.30305 -0.0178941 
v 0.023766 -1.30305 -0.379972 
v -0.346948 0.962014 0.584931 
v -0.346948 0.962014 0.937885 
v -0.20849 0.843551 0.937885 
v -0.20849 0.843551 0.584931 
v -0.578084 1.02098 0.937885 
v -0.578084 1.02098 0.584931 
v -0.800387 0.936894 0.937885 
v -0.800387 0.936894 0.584931 
v -0.923319 0.803952 0.937885 
v -0.923319 0.803952 0.584931 
v 0.33103 0.962014 0.937885 
v 0.33103 0.962014 0.584931 
v 0.192571 0.843551 0.937885 
v 0.192571 0.843551 0.584931 
v 0.562166 1.02098 0.937885 
v 0.562166 1.02098 0.584931 
v 0.784468 0.936894 0.937885 
v 0.784468 0.936894 0.584931 
v 0.9074 0.803952 0.937885 
v 0.9074 0.803952 0.584931 
v -0.0119136 -0.983634 -0.763731 
v -0.842738 -0.238785 -0.763731 
v -0.0119159 0.462323 -0.763873 
v -0.869221 0.481208 -0.763836 
v -0.869213 -0.960551 -0.763731 
v 0.819194 -0.238785 -0.763731 
v 0.845392 -0.960551 -0.763731 
v 0.845384 0.48009 -0.763903 
v 0.832091 0.451046 0.474777 
v 1.08919 0.340619 0.224784 
v 0.94548 0.551365 0.219209 
v -0.0119138 -1.08637 0.564761 
v 0.837892 -1.08387 0.676769 
v -0.0119139 -1.07328 0.950874 
v 0.845392 -1.04604 0.950874 
v -0.869213 -1.04604 0.950874 
v 0.830722 -1.09494 0.41449 
v -0.861383 -1.08441 0.458834 
v -0.0119138 -1.09982 0.195305 
v 0.838162 -1.05739 -0.283222 
v -0.853883 -1.09599 -0.0119775 
v -0.0119137 -1.05739 -0.357409 
v 0.845392 -0.960551 -0.763731 
v -0.861983 -1.05739 -0.431597 
v -0.0119136 -0.983634 -0.763731 
v -0.869213 -0.960551 -0.763731 
v 0.832091 0.451046 0.474777 
v 0.94548 0.551365 0.219209 
v 0.817496 0.595214 0.224009 
v -0.902356 -0.2604 0.950874 
v -0.861383 -1.08441 0.458834 
v -0.869213 -1.04604 0.950874 
v -0.853883 -0.310417 -0.0119858 
v -0.853883 -1.09599 -0.0119775 
v -0.861983 -1.05739 -0.431597 
v -0.854153 0.436223 -0.0110828 
v -0.868306 0.55467 0.946494 
v -0.842738 -0.238785 -0.763731 
v -0.869213 -0.960551 -0.763731 
v -0.869221 0.481208 -0.763836 
v 0.837892 -1.08387 0.676769 
v 0.871604 -0.2604 0.950874 
v 0.845392 -1.04604 0.950874 
v 0.830722 -0.309292 0.41449 
v 0.830722 -1.09494 0.41449 
v 0.838162 -1.05739 -0.283222 
v 0.831389 0.443955 0.412574 
v 0.844994 0.512423 0.952779 
v 0.819194 -0.238785 -0.763731 
v 0.845392 -0.960551 -0.763731 
v 0.845384 0.48009 -0.763903 
v -0.869886 -0.568629 0.474103 
v -1.08919 -0.389515 0.223761 
v -0.949295 -0.609841 0.21852 
v -1.08919 -0.224734 0.223761 
v -0.873956 -0.0443638 0.474103 
v -0.949295 -0.00423512 0.21852 
v -0.873956 -0.0443638 0.474103 
v -1.08919 0.175838 0.223761 
v -0.949295 -0.00423512 0.21852 
v -0.860404 0.495309 0.474234 
v -1.08919 0.340619 0.223761 
v -0.950948 0.553811 0.218671 
v -0.859595 -1.08474 0.472544 
v -1.08919 -0.972694 0.223761 
v -0.943157 -1.17626 0.216997 
v -1.08919 -0.807914 0.223761 
v -0.869886 -0.568629 0.474103 
v -0.949295 -0.609841 0.21852 
v -0.346724 -1.00683 0.470987 
v -0.541455 -1.12044 0.220822 
v -0.377042 -1.06026 0.215582 
v -0.859595 -1.08474 0.472544 
v -0.773152 -1.20143 0.220822 
v -0.943157 -1.17626 0.216997 
v 0.831193 -1.09158 0.473087 
v 0.762217 -1.20143 0.220823 
v 0.943651 -1.17626 0.217535 
v 0.530764 -1.12044 0.220823 
v 0.335575 -1.00501 0.470987 
v 0.366685 -1.06026 0.215582 
v 0.828012 -0.568393 0.475187 
v 1.08919 -0.807914 0.224784 
v 0.949294 -0.609568 0.219543 
v 0.831193 -1.09158 0.473087 
v 1.08919 -0.972694 0.224784 
v 0.943651 -1.17626 0.217535 
v 0.833531 -0.0441276 0.475187 
v 1.08919 -0.224289 0.224784 
v 0.949294 -0.00396207 0.219543 
v 0.828012 -0.568393 0.475187 
v 1.08919 -0.389069 0.224784 
v 0.949294 -0.609568 0.219543 
v 1.08919 0.340619 0.224784 
v 0.832091 0.451046 0.474777 
v 1.08919 0.175838 0.224784 
v 0.833531 -0.0441276 0.475187 
v -0.371932 0.597487 0.785361 
v -0.0084879 0.620937 0.903169 
v -0.219325 0.576606 0.575425 
v -0.00848786 0.60008 0.643917 
v -0.350773 0.536188 0.395571 
v -0.598031 0.542658 0.476 
v -0.351059 0.518286 0.17305 
v -0.598523 0.511866 0.0932532 
v -0.373222 0.516871 -0.216684 
v -0.220075 0.529738 -0.00713947 
v -0.00848771 0.52129 -0.335426 
v -0.00848775 0.542148 -0.0761732 
v -0.0084879 0.620937 0.903169 
v 0.354956 0.597487 0.785361 
v 0.202349 0.576606 0.575425 
v -0.00848786 0.60008 0.643917 
v 0.333797 0.536188 0.395571 
v 0.581055 0.542658 0.476 
v 0.334084 0.518286 0.17305 
v 0.581547 0.511866 0.0932534 
v 0.356246 0.516871 -0.216683 
v 0.203099 0.529738 -0.00713941 
v -0.00848771 0.52129 -0.335426 
v -0.00848775 0.542148 -0.0761732 
v 0.167265 -0.790314 1.01068 
v 0.43544 -0.971188 1.05166 
v 0.39001 -0.743037 1.06088 
v 0.167265 -1.13851 1.00145 
v 0.39001 -1.19934 1.04243 
v -0.0167453 -0.957632 0.960469 
v -0.46893 -0.971188 1.05166 
v -0.200756 -0.790314 1.01068 
v -0.4235 -0.743037 1.06088 
v -0.200756 -1.13851 1.00145 
v -0.0167453 -0.957632 0.960469 
v -0.4235 -1.19934 1.04243 
v -0.869213 -1.04604 0.950874 
v -0.0119139 -1.07328 0.950874 
v -0.902356 -0.2604 0.950874 
v -0.0116559 0.560468 0.949637 
v -0.868306 0.55467 0.946494 
v 0.871604 -0.2604 0.950874 
v 0.844994 0.512423 0.952779 
v 0.845392 -1.04604 0.950874 
v -0.20849 0.843551 0.937885 
v -0.544228 0.504439 0.937885 
v -0.251993 0.520628 0.937885 
v -0.346948 0.962014 0.937885 
v -0.544228 0.504439 0.937885 
v -0.578084 1.02098 0.937885 
v -0.800387 0.936894 0.937885 
v -0.544228 0.504439 0.937885 
v -0.346948 0.962014 0.937885 
v -0.578084 1.02098 0.937885 
v -0.544228 0.504439 0.937885 
v -0.800387 0.936894 0.937885 
v -0.923319 0.803952 0.937885 
v -0.836462 0.48825 0.937885 
v 0.528309 0.504439 0.937885 
v 0.192571 0.843551 0.937885 
v 0.236075 0.520628 0.937885 
v 0.33103 0.962014 0.937885 
v 0.528309 0.504439 0.937885 
v 0.784468 0.936894 0.937885 
v 0.562166 1.02098 0.937885 
v 0.528309 0.504439 0.937885 
v 0.562166 1.02098 0.937885 
v 0.33103 0.962014 0.937885 
v 0.528309 0.504439 0.937885 
v 0.9074 0.803952 0.937885 
v 0.784468 0.936894 0.937885 
v 0.820543 0.48825 0.937885 
v 0.9074 0.803952 0.937885 
v 0.820543 0.48825 0.937885 
v 0.9074 0.803952 0.584931 
v 0.818218 0.448505 0.584931 
v -0.923319 0.803952 0.937885 
v -0.923319 0.803952 0.584931 
v -0.836462 0.48825 0.937885 
v -0.834137 0.448505 0.584931 
v -0.868306 0.55467 0.946494 
v -0.0116559 0.560468 0.949637 
v -0.011769 0.439298 0.193844 
v -0.854153 0.436223 -0.0110828 
v 0.831389 0.443955 0.412574 
v 0.844994 0.512423 0.952779 
v 0.845384 0.48009 -0.763903 
v -0.0119159 0.462323 -0.763873 
v -0.869221 0.481208 -0.763836 
v 0.833531 -0.0441276 0.475187 
v 0.949294 -0.00396207 0.219543 
v 1.08919 0.175838 0.224784 
v -0.33986 0.45298 -0.753879 
v 0.322514 0.45298 -0.753879 
v 0.25802 0.45298 -1.06088 
v -0.275368 0.45298 -1.06088 
v 0.322514 0.45298 -0.753879 
v 0.259334 0.180884 -1.04373 
v 0.25802 0.45298 -1.06088 
v 0.324146 0.180884 -0.753879 
v 0.237985 -0.0912103 -0.968017 
v 0.297633 -0.0912103 -0.753879 
v -0.33986 0.45298 -0.753879 
v -0.276682 0.180884 -1.04373 
v -0.341492 0.180884 -0.753879 
v -0.275368 0.45298 -1.06088 
v -0.255332 -0.0912103 -0.968017 
v -0.31498 -0.0912103 -0.753879 
v -0.860404 0.495309 0.474234 
v -0.828431 0.595214 0.224009 
v -0.950948 0.553811 0.218671 
v -0.508145 0.437999 0.474366 
v -0.591299 0.455762 0.224009 
v -0.479731 -1.30305 -0.41751 
v -0.081342 -1.15549 -0.350092 
v -0.0444637 -1.30305 -0.37944 
v -0.448507 -1.15549 -0.382206 
v -0.089385 -0.989683 -0.343693 
v -0.441698 -0.989683 -0.374506 
v 0.457828 -1.30305 -0.429956 
v 0.023766 -1.30305 -0.379972 
v 0.0614348 -1.15549 -0.351647 
v 0.427583 -1.15549 -0.39381 
v 0.0696503 -0.989683 -0.345469 
v 0.420987 -0.989683 -0.385927 
v 0.508432 0.416496 0.474366 
v 0.832091 0.451046 0.474777 
v 0.817496 0.595214 0.224009 
v 0.575341 0.442777 0.224009 
v 0.354956 0.597487 0.785361 
v -0.0084879 0.620937 0.903169 
v -0.0084879 0.538608 0.909793 
v 0.354956 0.515158 0.791984 
v 0.581055 0.542658 0.476 
v 0.581055 0.460329 0.482624 
v 0.581547 0.429536 0.0998774 
v 0.581547 0.511866 0.0932534 
v 0.356246 0.434542 -0.21006 
v 0.356246 0.516871 -0.216683 
v -0.00848771 0.438961 -0.328802 
v -0.00848771 0.52129 -0.335426 
v -0.371932 0.515158 0.791984 
v -0.0084879 0.538608 0.909793 
v -0.371932 0.597487 0.785361 
v -0.0084879 0.620937 0.903169 
v -0.598031 0.542658 0.476 
v -0.598031 0.460329 0.482624 
v -0.598523 0.429536 0.0998772 
v -0.598523 0.511866 0.0932532 
v -0.373222 0.434542 -0.21006 
v -0.373222 0.516871 -0.216684 
v -0.00848771 0.438961 -0.328802 
v -0.00848771 0.52129 -0.335426 
v 0.427583 -1.15549 -0.39381 
v 0.467609 -1.15549 -0.0462201 
v 0.505278 -1.30305 -0.0178941 
v 0.457828 -1.30305 -0.429956 
v 0.420987 -0.989683 -0.385927 
v 0.459394 -0.989683 -0.0523971 
v -0.515872 -1.30305 -0.00430274 
v -0.448507 -1.15549 -0.382206 
v -0.479731 -1.30305 -0.41751 
v -0.478993 -1.15549 -0.0336495 
v -0.441698 -0.989683 -0.374506 
v -0.470951 -0.989683 -0.04005 
v -0.546336 -1.30305 0.585996 
v -0.478972 -1.15549 0.208093 
v -0.510196 -1.30305 0.172789 
v -0.509458 -1.15549 0.556649 
v -0.472163 -0.989683 0.215792 
v -0.501415 -0.989683 0.550249 
v 0.458104 -1.15549 0.202778 
v 0.492224 -1.15549 0.550997 
v 0.529407 -1.30305 0.579959 
v 0.488957 -1.30305 0.167151 
v 0.451375 -0.989683 0.210548 
v 0.484115 -0.989683 0.544682 
v -0.509458 -1.15549 0.556649 
v -0.111068 -1.30305 0.624066 
v -0.142292 -1.15549 0.588762 
v -0.546336 -1.30305 0.585996 
v -0.501415 -0.989683 0.550249 
v -0.149102 -0.989683 0.581063 
v 0.492224 -1.15549 0.550997 
v 0.125414 -1.15549 0.58694 
v 0.0945599 -1.30305 0.622568 
v 0.529407 -1.30305 0.579959 
v 0.484115 -0.989683 0.544682 
v 0.132142 -0.989683 0.57917 
v -0.00848786 1.30305 0.66757 
v -0.00848786 0.60008 0.643917 
v 0.251471 1.29626 0.583204 
v 0.202349 0.576606 0.575425 
v 0.413386 1.27844 0.361664 
v 0.333797 0.536188 0.395571 
v 0.334084 0.518286 0.17305 
v 0.413738 1.25639 0.0875699 
v 0.203099 0.529738 -0.00713941 
v 0.252395 1.23853 -0.134384 
v -0.00848773 1.23169 -0.219418 
v -0.00848775 0.542148 -0.0761732 
v -0.268447 1.29626 0.583204 
v -0.00848786 0.60008 0.643917 
v -0.00848786 1.30305 0.66757 
v -0.219325 0.576606 0.575425 
v -0.430361 1.27844 0.361664 
v -0.350773 0.536188 0.395571 
v -0.351059 0.518286 0.17305 
v -0.430714 1.25639 0.0875697 
v -0.220075 0.529738 -0.00713947 
v -0.26937 1.23853 -0.134384 
v -0.00848773 1.23169 -0.219418 
v -0.00848775 0.542148 -0.0761732 
v -0.31498 -0.0912103 -0.753879 
v 0.237985 -0.0912103 -0.968017 
v 0.297633 -0.0912103 -0.753879 
v -0.255332 -0.0912103 -0.968017 
v 0.488957 -1.30305 0.167151 
v 0.0541102 -1.30305 0.20976 
v 0.0912929 -1.15549 0.238721 
v 0.458104 -1.15549 0.202778 
v 0.0994019 -0.989683 0.245037 
v 0.451375 -0.989683 0.210548 
v -0.510196 -1.30305 0.172789 
v -0.111806 -1.15549 0.240206 
v -0.074928 -1.30305 0.210859 
v -0.478972 -1.15549 0.208093 
v -0.119849 -0.989683 0.246606 
v -0.472163 -0.989683 0.215792 
v 0.125414 -1.15549 0.58694 
v 0.0541102 -1.30305 0.20976 
v 0.0945599 -1.30305 0.622568 
v 0.0912929 -1.15549 0.238721 
v 0.132142 -0.989683 0.57917 
v 0.0994019 -0.989683 0.245037 
v -0.142292 -1.15549 0.588762 
v -0.074928 -1.30305 0.210859 
v -0.111806 -1.15549 0.240206 
v -0.111068 -1.30305 0.624066 
v -0.149102 -0.989683 0.581063 
v -0.119849 -0.989683 0.246606 
v -0.111828 -1.15549 -0.00153669 
v -0.0444637 -1.30305 -0.37944 
v -0.081342 -1.15549 -0.350092 
v -0.080604 -1.30305 0.0337673 
v -0.118637 -0.989683 -0.00923543 
v -0.089385 -0.989683 -0.343693 
v 0.101461 -1.15549 -0.00405665 
v 0.023766 -1.30305 -0.379972 
v 0.0712162 -1.30305 0.0320888 
v 0.0614348 -1.15549 -0.351647 
v 0.108057 -0.989683 -0.0119399 
v 0.0696503 -0.989683 -0.345469 
v -0.541903 0.464693 0.584931 
v -0.20849 0.843551 0.584931 
v -0.249668 0.480882 0.584931 
v -0.346948 0.962014 0.584931 
v -0.541903 0.464693 0.584931 
v -0.800387 0.936894 0.584931 
v -0.578084 1.02098 0.584931 
v -0.541903 0.464693 0.584931 
v -0.578084 1.02098 0.584931 
v -0.346948 0.962014 0.584931 
v -0.834137 0.448505 0.584931 
v -0.923319 0.803952 0.584931 
v -0.541903 0.464693 0.584931 
v -0.800387 0.936894 0.584931 
v 0.525984 0.464693 0.584931 
v 0.192571 0.843551 0.584931 
v 0.33103 0.962014 0.584931 
v 0.23375 0.480882 0.584931 
v 0.562166 1.02098 0.584931 
v 0.525984 0.464693 0.584931 
v 0.562166 1.02098 0.584931 
v 0.784468 0.936894 0.584931 
v 0.525984 0.464693 0.584931 
v 0.784468 0.936894 0.584931 
v 0.9074 0.803952 0.584931 
v 0.818218 0.448505 0.584931 
v -0.251993 0.520628 0.937885 
v -0.20849 0.843551 0.584931 
v -0.20849 0.843551 0.937885 
v -0.249668 0.480882 0.584931 
v 0.236075 0.520628 0.937885 
v 0.192571 0.843551 0.584931 
v 0.23375 0.480882 0.584931 
v 0.192571 0.843551 0.937885 
v 0.467609 -1.15549 -0.0462201 
v 0.101461 -1.15549 -0.00405665 
v 0.0712162 -1.30305 0.0320888 
v 0.505278 -1.30305 -0.0178941 
v 0.459394 -0.989683 -0.0523971 
v 0.108057 -0.989683 -0.0119399 
v -0.478993 -1.15549 -0.0336495 
v -0.080604 -1.30305 0.0337673 
v -0.111828 -1.15549 -0.00153669 
v -0.515872 -1.30305 -0.00430274 
v -0.470951 -0.989683 -0.04005 
v -0.118637 -0.989683 -0.00923543 
v 0.508432 0.413765 0.474366 
v 0.575341 0.440203 0.224009 
v 0.817496 0.592639 0.224009 
v 0.828772 0.447425 0.474777 
v -0.857084 0.491689 0.474234 
v -0.947585 0.550224 0.218671 
v -0.828431 0.592639 0.224009 
v -0.508145 0.435268 0.474366 
v -0.591299 0.453187 0.224009 
v 0.826892 -0.0441276 0.475188 
v 1.08279 0.175838 0.224784 
v 0.943034 -0.00396207 0.219543 
v -0.46893 -0.971188 1.0457 
v -0.4235 -0.743037 1.05493 
v -0.200756 -0.790314 1.00472 
v -0.200756 -1.13851 0.995496 
v -0.0167453 -0.957632 0.954514 
v -0.4235 -1.19934 1.03648 
v 0.167265 -0.790314 1.00472 
v 0.39001 -0.743037 1.05493 
v 0.43544 -0.971188 1.0457 
v 0.167265 -1.13851 0.995496 
v -0.0167453 -0.957632 0.954514 
v 0.39001 -1.19934 1.03648 
v 1.08279 0.175838 0.224784 
v 0.826892 -0.0441276 0.475188 
v 0.828772 0.447425 0.474777 
v 1.08279 0.340619 0.224784 
v 0.826892 -0.0441276 0.475188 
v 0.943034 -0.00396207 0.219543 
v 1.08279 -0.224289 0.224784 
v 0.821373 -0.568393 0.475187 
v 1.08279 -0.389069 0.224784 
v 0.943034 -0.609568 0.219543 
v 0.821373 -0.568393 0.475187 
v 0.943034 -0.609568 0.219543 
v 1.08279 -0.807914 0.224784 
v 0.827873 -1.08796 0.473087 
v 1.08279 -0.972694 0.224784 
v 0.940288 -1.17267 0.217535 
v 0.827873 -1.08796 0.473087 
v 0.940288 -1.17267 0.217535 
v 0.762217 -1.19817 0.220823 
v 0.530764 -1.11718 0.220823 
v 0.335575 -1.00155 0.470987 
v 0.366685 -1.057 0.215582 
v -0.346724 -1.00337 0.470987 
v -0.377042 -1.057 0.215582 
v -0.541455 -1.11718 0.220822 
v -0.856276 -1.08112 0.472544 
v -0.773152 -1.19817 0.220822 
v -0.939794 -1.17267 0.216997 
v -0.856276 -1.08112 0.472544 
v -0.939794 -1.17267 0.216997 
v -1.08279 -0.972694 0.223761 
v -1.08279 -0.807914 0.223761 
v -0.863247 -0.568629 0.474103 
v -0.943035 -0.609841 0.21852 
v -0.863247 -0.568629 0.474103 
v -0.943035 -0.609841 0.21852 
v -1.08279 -0.389515 0.223761 
v -1.08279 -0.224734 0.223761 
v -0.867317 -0.0443638 0.474103 
v -0.943035 -0.00423512 0.21852 
v -0.867317 -0.0443638 0.474103 
v -0.943035 -0.00423512 0.21852 
v -1.08279 0.175838 0.223761 
v -0.857084 0.491689 0.474234 
v -1.08279 0.340619 0.223761 
v -0.947585 0.550224 0.218671 
v 0.828772 0.447425 0.474777 
v 0.817496 0.592639 0.224009 
v 0.942227 0.548954 0.219209 
v 0.828772 0.447425 0.474777 
v 0.942227 0.548954 0.219209 
v 1.08279 0.340619 0.224784 

vn 0 1 -0.0787402 
vn 0 1 -0.0787402 
vn 0 1 -0.0787402 
vn 0 1 -0.0787402 
vn 0 1 -0.0787402 
vn 0 1 -0.0787402 
vn 0 1 -0.0787402 
vn 0 1 -0.0787402 
vn 0 1 -0.0787402 
vn 0 1 -0.0787402 
vn 0 1 -0.0787402 
vn 0 1 -0.0787402 
vn 0 1 -0.0787402 
vn 0 1 -0.0787402 
vn 0 -0.165354 -0.984252 
vn 0 -0.165354 -0.984252 
vn 0 -0.0629921 -1 
vn 0 -0.0629921 -1 
vn 0 -0.267717 -0.96063 
vn 0 -0.267717 -0.96063 
vn 0 -1 0 
vn 0 -1 0 
vn 0 -1 0 
vn 0 -1 0 
vn 0 -1 0 
vn 0 -1 0 
vn 0 -1 0 
vn 0 -1 0 
vn 0 -1 0 
vn 0 -1 0 
vn 0 -1 0 
vn 0 -1 0 
vn 0 -1 0 
vn 0 -1 0 
vn 0 -1 0 
vn 0 -1 0 
vn 0.464567 0.889764 0 
vn 0.464567 0.889764 0 
vn 0.653543 0.755906 0 
vn 0.653543 0.755906 0 
vn -0.0551181 1 0 
vn -0.0551181 1 0 
vn -0.559055 0.826772 0 
vn -0.559055 0.826772 0 
vn -0.732283 0.677165 0 
vn -0.732283 0.677165 0 
vn -0.464567 0.889764 0 
vn -0.464567 0.889764 0 
vn -0.653543 0.755906 0 
vn -0.653543 0.755906 0 
vn 0.0551181 1 0 
vn 0.0551181 1 0 
vn 0.559055 0.826772 0 
vn 0.559055 0.826772 0 
vn 0.732283 0.677165 0 
vn 0.732283 0.677165 0 
vn 0 0 -1 
vn 0 0 -1 
vn 0 0 -1 
vn 0 0 -1 
vn 0 0 -1 
vn 0 0 -1 
vn 0 0 -1 
vn 0 0 -1 
vn 0.464567 0.425197 0.779528 
vn 0.724409 0.0393701 0.692913 
vn 0.614173 0.582677 0.527559 
vn -0.00787402 -1 0.0551181 
vn 0.00787402 -1 0.0551181 
vn -0.00787402 -1 0.0708661 
vn 0.015748 -1 0.0787402 
vn -0.023622 -1 0.0551181 
vn 0.00787402 -1 -0.015748 
vn -0.015748 -1 0.0472441 
vn 0 -1 -0.023622 
vn 0.015748 -0.992126 -0.125984 
vn 0 -1 -0.023622 
vn 0.00787402 -0.992126 -0.141732 
vn 0.023622 -0.984252 -0.188976 
vn 0.00787402 -0.984252 -0.15748 
vn 0.00787402 -0.976378 -0.204724 
vn 0 -0.976378 -0.228346 
vn 0.464567 0.425197 0.779528 
vn 0.614173 0.582677 0.527559 
vn 0.0472441 0.685039 0.724409 
vn -1 0 -0.0393701 
vn -1 -0.015748 -0.023622 
vn -1 -0.0314961 -0.0393701 
vn -1 0 -0.00787402 
vn -1 0 0 
vn -1 0.015748 0.00787402 
vn -1 0 -0.015748 
vn -1 0.023622 -0.0314961 
vn -1 0 0 
vn -1 0.023622 0 
vn -1 -0.015748 0 
vn 1 -0.00787402 -0.0393701 
vn 1 0 -0.0551181 
vn 1 -0.023622 -0.0551181 
vn 1 0 -0.023622 
vn 1 0 -0.00787402 
vn 1 0.00787402 0.00787402 
vn 1 0 -0.023622 
vn 1 0.015748 -0.0551181 
vn 1 0 0 
vn 1 0.023622 0 
vn 1 -0.015748 0 
vn -0.748031 -0.0629921 0.661417 
vn -0.740157 -0.0472441 0.669291 
vn -0.787402 -0.425197 0.440945 
vn -0.740157 0.0472441 0.669291 
vn -0.748031 0.0629921 0.661417 
vn -0.787402 0.425197 0.440945 
vn -0.708661 -0.0708661 0.700787 
vn -0.708661 -0.0708661 0.700787 
vn -0.724409 -0.519685 0.456693 
vn -0.464567 0.417323 0.779528 
vn -0.716535 0.0314961 0.692913 
vn -0.614173 0.574803 0.535433 
vn -0.472441 -0.417323 0.771654 
vn -0.716535 -0.0393701 0.692913 
vn -0.622047 -0.566929 0.535433 
vn -0.708661 0.0708661 0.700787 
vn -0.708661 0.0708661 0.700787 
vn -0.724409 0.519685 0.448819 
vn 0.0393701 -0.692913 0.724409 
vn 0.0314961 -0.685039 0.724409 
vn 0.527559 -0.732283 0.433071 
vn -0.472441 -0.417323 0.771654 
vn -0.0708661 -0.685039 0.724409 
vn -0.622047 -0.566929 0.535433 
vn 0.472441 -0.417323 0.779528 
vn 0.0629921 -0.685039 0.724409 
vn 0.622047 -0.574803 0.543307 
vn -0.0393701 -0.685039 0.724409 
vn -0.0472441 -0.685039 0.724409 
vn -0.519685 -0.732283 0.440945 
vn 0.708661 0.0708661 0.700787 
vn 0.708661 0.0708661 0.700787 
vn 0.724409 0.519685 0.456693 
vn 0.472441 -0.417323 0.779528 
vn 0.716535 -0.0393701 0.692913 
vn 0.622047 -0.574803 0.543307 
vn 0.755906 0.0629921 0.653543 
vn 0.748031 0.0393701 0.661417 
vn 0.795276 0.425197 0.425197 
vn 0.748031 -0.0708661 0.653543 
vn 0.748031 -0.0551181 0.661417 
vn 0.787402 -0.425197 0.440945 
vn 0.724409 0.0393701 0.692913 
vn 0.464567 0.425197 0.779528 
vn 0.716535 -0.0708661 0.700787 
vn 0.716535 -0.0708661 0.700787 
vn -0.0472441 0.992126 -0.133858 
vn 0 0.992126 -0.102362 
vn -0.0472441 0.992126 -0.133858 
vn 0 0.992126 -0.102362 
vn -0.023622 0.992126 -0.11811 
vn -0.023622 0.992126 -0.11811 
vn -0.023622 1 -0.0393701 
vn -0.023622 1 -0.0393701 
vn -0.0472441 1 -0.0314961 
vn -0.0472441 1 -0.0314961 
vn 0 1 -0.0551181 
vn 0 1 -0.0551181 
vn 0 0.992126 -0.102362 
vn 0.0472441 0.992126 -0.133858 
vn 0.0472441 0.992126 -0.133858 
vn 0 0.992126 -0.102362 
vn 0.023622 0.992126 -0.11811 
vn 0.023622 0.992126 -0.11811 
vn 0.023622 1 -0.0393701 
vn 0.023622 1 -0.0393701 
vn 0.0472441 1 -0.0314961 
vn 0.0472441 1 -0.0314961 
vn 0 1 -0.0551181 
vn 0 1 -0.0551181 
vn -0.204724 -0.0472441 0.976378 
vn -0.181102 -0.0393701 0.984252 
vn -0.204724 -0.0787402 0.976378 
vn -0.19685 -0.015748 0.976378 
vn -0.181102 0 0.984252 
vn 0 -0.023622 1 
vn 0.181102 -0.0393701 0.984252 
vn 0.204724 -0.0472441 0.976378 
vn 0.204724 -0.0787402 0.976378 
vn 0.19685 -0.015748 0.976378 
vn 0 -0.023622 1 
vn 0.181102 0 0.984252 
vn 0 0 1 
vn 0 0 1 
vn 0 0 1 
vn 0 0 1 
vn 0 0 1 
vn 0 0 1 
vn 0 0 1 
vn 0 0 1 
vn 0 0 1 
vn 0 0 1 
vn 0 0 1 
vn 0 0 1 
vn 0 0 1 
vn 0 0 1 
vn 0 0 1 
vn 0 0 1 
vn 0 0 1 
vn 0 0 1 
vn 0 0 1 
vn 0 0 1 
vn 0 0 1 
vn 0 0 1 
vn 0 0 1 
vn 0 0 1 
vn 0 0 1 
vn 0 0 1 
vn 0 0 1 
vn 0 0 1 
vn 0 0 1 
vn 0 0 1 
vn 0 0 1 
vn 0 0 1 
vn 0 0 1 
vn 0 0 1 
vn 0 0 1 
vn 0 0 1 
vn 0.968504 -0.251969 0.00787402 
vn 0.968504 -0.251969 0.00787402 
vn 0.968504 -0.251969 0.00787402 
vn 0.968504 -0.251969 0.00787402 
vn -0.968504 -0.251969 0.00787402 
vn -0.968504 -0.251969 0.00787402 
vn -0.968504 -0.251969 0.00787402 
vn -0.968504 -0.251969 0.00787402 
vn 0.015748 0.992126 -0.141732 
vn 0.0314961 0.992126 -0.141732 
vn 0.00787402 1 -0.0551181 
vn 0.00787402 1 -0.0472441 
vn 0.015748 1 -0.0629921 
vn 0.0472441 0.992126 -0.141732 
vn -0.015748 1 0.0314961 
vn -0.00787402 1 0.0314961 
vn 0.00787402 1 0.0393701 
vn 0.716535 -0.0708661 0.700787 
vn 0.724409 -0.527559 0.440945 
vn 0.716535 -0.0708661 0.700787 
vn 0 1 0 
vn 0 1 0 
vn 0 1 0 
vn 0 1 0 
vn 0.976378 0 -0.212598 
vn 0.976378 -0.0629921 -0.228346 
vn 0.976378 0 -0.212598 
vn 0.976378 -0.0629921 -0.228346 
vn 0.96063 -0.11811 -0.23622 
vn 0.96063 -0.11811 -0.23622 
vn -0.976378 0 -0.212598 
vn -0.976378 -0.0629921 -0.228346 
vn -0.976378 -0.0629921 -0.228346 
vn -0.976378 0 -0.212598 
vn -0.96063 -0.11811 -0.23622 
vn -0.96063 -0.11811 -0.23622 
vn -0.464567 0.417323 0.779528 
vn -0.0472441 0.692913 0.724409 
vn -0.614173 0.574803 0.535433 
vn 0.0708661 0.685039 0.724409 
vn 0.0629921 0.685039 0.724409 
vn 0.0866142 0.212598 -0.976378 
vn 0.0866142 0.125984 -0.984252 
vn 0.0866142 0.212598 -0.976378 
vn 0.0866142 0.125984 -0.984252 
vn 0.0866142 0.0393701 -0.992126 
vn 0.0866142 0.0393701 -0.992126 
vn -0.110236 0.212598 -0.968504 
vn -0.110236 0.212598 -0.968504 
vn -0.110236 0.125984 -0.984252 
vn -0.110236 0.125984 -0.984252 
vn -0.110236 0.0393701 -0.992126 
vn -0.110236 0.0393701 -0.992126 
vn -0.0629921 0.685039 0.724409 
vn 0.464567 0.425197 0.779528 
vn 0.0472441 0.685039 0.724409 
vn -0.0629921 0.685039 0.732283 
vn 0.590551 0.0629921 0.80315 
vn 0 0.0787402 1 
vn 0 0.0787402 1 
vn 0.590551 0.0629921 0.80315 
vn 0.952756 0.023622 0.307087 
vn 0.952756 0.023622 0.307087 
vn 0.952756 -0.023622 -0.307087 
vn 0.952756 -0.023622 -0.307087 
vn 0.582677 -0.0629921 -0.811024 
vn 0.582677 -0.0629921 -0.811024 
vn 0 -0.0787402 -1 
vn 0 -0.0787402 -1 
vn -0.590551 0.0629921 0.80315 
vn 0 0.0787402 1 
vn -0.590551 0.0629921 0.80315 
vn 0 0.0787402 1 
vn -0.952756 0.023622 0.307087 
vn -0.952756 0.023622 0.307087 
vn -0.952756 -0.023622 -0.307087 
vn -0.952756 -0.023622 -0.307087 
vn -0.582677 -0.0629921 -0.811024 
vn -0.582677 -0.0629921 -0.811024 
vn 0 -0.0787402 -1 
vn 0 -0.0787402 -1 
vn 0.984252 0.133858 -0.110236 
vn 0.984252 0.133858 -0.110236 
vn 0.968504 0.228346 -0.110236 
vn 0.968504 0.228346 -0.110236 
vn 0.992126 0.0472441 -0.110236 
vn 0.992126 0.0472441 -0.110236 
vn -0.968504 0.228346 -0.0866142 
vn -0.984252 0.133858 -0.0866142 
vn -0.968504 0.228346 -0.0866142 
vn -0.984252 0.133858 -0.0866142 
vn -0.992126 0.0472441 -0.0866142 
vn -0.992126 0.0472441 -0.0866142 
vn -0.968504 0.228346 -0.0866142 
vn -0.984252 0.133858 -0.0866142 
vn -0.968504 0.228346 -0.0866142 
vn -0.984252 0.133858 -0.0866142 
vn -0.992126 0.0472441 -0.0866142 
vn -0.992126 0.0472441 -0.0866142 
vn 0.984252 0.133858 -0.0944882 
vn 0.984252 0.133858 -0.0944882 
vn 0.968504 0.228346 -0.0944882 
vn 0.968504 0.228346 -0.0944882 
vn 0.992126 0.0472441 -0.0944882 
vn 0.992126 0.0472441 -0.0944882 
vn -0.0866142 0.125984 0.984252 
vn -0.0866142 0.212598 0.976378 
vn -0.0866142 0.125984 0.984252 
vn -0.0866142 0.212598 0.976378 
vn -0.0866142 0.0393701 0.992126 
vn -0.0866142 0.0393701 0.992126 
vn 0.0944882 0.125984 0.984252 
vn 0.0944882 0.125984 0.984252 
vn 0.0944882 0.212598 0.968504 
vn 0.0944882 0.212598 0.968504 
vn 0.0944882 0.0393701 0.992126 
vn 0.0944882 0.0393701 0.992126 
vn 0 -0.0314961 1 
vn 0 -0.0314961 1 
vn 0.582677 -0.0472441 0.811024 
vn 0.582677 -0.0472441 0.811024 
vn 0.944882 -0.0787402 0.314961 
vn 0.944882 -0.0787402 0.314961 
vn 0.944882 -0.133858 -0.299213 
vn 0.944882 -0.133858 -0.299213 
vn 0.582677 -0.173228 -0.795276 
vn 0.582677 -0.173228 -0.795276 
vn 0 -0.188976 -0.984252 
vn 0 -0.188976 -0.984252 
vn -0.582677 -0.0472441 0.811024 
vn 0 -0.0314961 1 
vn 0 -0.0314961 1 
vn -0.582677 -0.0472441 0.811024 
vn -0.944882 -0.0787402 0.314961 
vn -0.944882 -0.0787402 0.314961 
vn -0.944882 -0.133858 -0.299213 
vn -0.944882 -0.133858 -0.299213 
vn -0.582677 -0.173228 -0.795276 
vn -0.582677 -0.173228 -0.795276 
vn 0 -0.188976 -0.984252 
vn 0 -0.188976 -0.984252 
vn 0 -1 0 
vn 0 -1 0 
vn 0 -1 0 
vn 0 -1 0 
vn -0.0944882 0.212598 -0.968504 
vn -0.0944882 0.212598 -0.968504 
vn -0.0944882 0.125984 -0.984252 
vn -0.0944882 0.125984 -0.984252 
vn -0.0944882 0.0393701 -0.992126 
vn -0.0944882 0.0393701 -0.992126 
vn 0.0866142 0.212598 -0.976378 
vn 0.0866142 0.125984 -0.984252 
vn 0.0866142 0.212598 -0.976378 
vn 0.0866142 0.125984 -0.984252 
vn 0.0866142 0.0393701 -0.992126 
vn 0.0866142 0.0393701 -0.992126 
vn -0.984252 0.133858 0.0944882 
vn -0.968504 0.228346 0.0944882 
vn -0.968504 0.228346 0.0944882 
vn -0.984252 0.133858 0.0944882 
vn -0.992126 0.0472441 0.0944882 
vn -0.992126 0.0472441 0.0944882 
vn 0.984252 0.133858 0.0866142 
vn 0.968504 0.228346 0.0866142 
vn 0.984252 0.133858 0.0866142 
vn 0.968504 0.228346 0.0866142 
vn 0.992126 0.0472441 0.0866142 
vn 0.992126 0.0472441 0.0866142 
vn 0.984252 0.133858 0.0866142 
vn 0.968504 0.228346 0.0866142 
vn 0.984252 0.133858 0.0866142 
vn 0.968504 0.228346 0.0866142 
vn 0.992126 0.0472441 0.0866142 
vn 0.992126 0.0472441 0.0866142 
vn -0.984252 0.133858 0.110236 
vn -0.968504 0.228346 0.110236 
vn -0.968504 0.228346 0.110236 
vn -0.984252 0.133858 0.110236 
vn -0.992126 0.0472441 0.110236 
vn -0.992126 0.0472441 0.110236 
vn 0 0 -1 
vn 0 0 -1 
vn 0 0 -1 
vn 0 0 -1 
vn 0 0 -1 
vn 0 0 -1 
vn 0 0 -1 
vn 0 0 -1 
vn 0 0 -1 
vn 0 0 -1 
vn 0 0 -1 
vn 0 0 -1 
vn 0 0 -1 
vn 0 0 -1 
vn 0 0 -1 
vn 0 0 -1 
vn 0 0 -1 
vn 0 0 -1 
vn 0 0 -1 
vn 0 0 -1 
vn 0 0 -1 
vn 0 0 -1 
vn 0 0 -1 
vn 0 0 -1 
vn 0 0 -1 
vn 0 0 -1 
vn 0.992126 -0.125984 0.00787402 
vn 0.992126 -0.125984 0.00787402 
vn 0.992126 -0.125984 0.00787402 
vn 0.992126 -0.125984 0.00787402 
vn -0.992126 -0.125984 0.00787402 
vn -0.992126 -0.125984 0.00787402 
vn -0.992126 -0.125984 0.00787402 
vn -0.992126 -0.125984 0.00787402 
vn 0.110236 0.125984 0.984252 
vn 0.110236 0.125984 0.984252 
vn 0.110236 0.212598 0.968504 
vn 0.110236 0.212598 0.968504 
vn 0.110236 0.0393701 0.992126 
vn 0.110236 0.0393701 0.992126 
vn -0.0866142 0.125984 0.984252 
vn -0.0866142 0.212598 0.976378 
vn -0.0866142 0.125984 0.984252 
vn -0.0866142 0.212598 0.976378 
vn -0.0866142 0.0393701 0.992126 
vn -0.0866142 0.0393701 0.992126 
vn 0.0708661 -0.685039 -0.724409 
vn 0.0629921 -0.685039 -0.724409 
vn -0.0393701 -0.692913 -0.724409 
vn -0.464567 -0.417323 -0.779528 
vn 0.464567 -0.417323 -0.779528 
vn 0.622047 -0.574803 -0.535433 
vn 0.0393701 -0.692913 -0.716535 
vn -0.0708661 -0.685039 -0.724409 
vn -0.0629921 -0.685039 -0.724409 
vn -0.716535 0.0708661 -0.692913 
vn -0.716535 0.0708661 -0.692913 
vn -0.724409 0.527559 -0.440945 
vn -0.181102 0.0393701 -0.984252 
vn -0.204724 0.0787402 -0.976378 
vn -0.204724 0.0472441 -0.976378 
vn -0.19685 0.015748 -0.976378 
vn 0 0.023622 -1 
vn -0.181102 0 -0.984252 
vn 0.204724 0.0472441 -0.976378 
vn 0.204724 0.0787402 -0.976378 
vn 0.181102 0.0393701 -0.984252 
vn 0.19685 0.015748 -0.976378 
vn 0 0.023622 -1 
vn 0.181102 0 -0.984252 
vn -0.716535 0.0708661 -0.692913 
vn -0.716535 0.0708661 -0.692913 
vn -0.464567 -0.417323 -0.779528 
vn -0.724409 -0.0393701 -0.692913 
vn -0.755906 -0.0629921 -0.653543 
vn -0.795276 -0.425197 -0.425197 
vn -0.748031 -0.0393701 -0.661417 
vn -0.748031 0.0708661 -0.661417 
vn -0.748031 0.0551181 -0.661417 
vn -0.787402 0.425197 -0.440945 
vn -0.708661 -0.0708661 -0.700787 
vn -0.724409 -0.519685 -0.456693 
vn -0.708661 -0.0787402 -0.700787 
vn -0.472441 0.417323 -0.779528 
vn -0.716535 0.0393701 -0.692913 
vn -0.622047 0.574803 -0.535433 
vn -0.472441 0.417323 -0.779528 
vn -0.622047 0.574803 -0.535433 
vn -0.0629921 0.692913 -0.724409 
vn 0.0393701 0.685039 -0.724409 
vn 0.0472441 0.692913 -0.724409 
vn 0.519685 0.732283 -0.440945 
vn -0.0472441 0.692913 -0.716535 
vn -0.527559 0.732283 -0.433071 
vn -0.0393701 0.692913 -0.724409 
vn 0.472441 0.417323 -0.779528 
vn 0.0708661 0.692913 -0.716535 
vn 0.622047 0.566929 -0.535433 
vn 0.472441 0.417323 -0.779528 
vn 0.622047 0.566929 -0.535433 
vn 0.724409 0.0393701 -0.692913 
vn 0.708661 -0.0787402 -0.700787 
vn 0.708661 -0.0708661 -0.700787 
vn 0.724409 -0.519685 -0.448819 
vn 0.748031 0.0629921 -0.661417 
vn 0.787402 0.425197 -0.440945 
vn 0.740157 0.0472441 -0.669291 
vn 0.740157 -0.0472441 -0.669291 
vn 0.748031 -0.0629921 -0.661417 
vn 0.787402 -0.425197 -0.440945 
vn 0.708661 0.0787402 -0.700787 
vn 0.724409 0.519685 -0.456693 
vn 0.708661 0.0787402 -0.700787 
vn 0.464567 -0.417323 -0.779528 
vn 0.716535 -0.0314961 -0.692913 
vn 0.622047 -0.574803 -0.535433 
vn -0.464567 -0.417323 -0.779528 
vn -0.0393701 -0.692913 -0.724409 
vn -0.614173 -0.582677 -0.527559 
vn -0.464567 -0.417323 -0.779528 
vn -0.614173 -0.582677 -0.527559 
vn -0.724409 -0.0393701 -0.692913 

vt 0.70291 0.427542 
vt 0.776845 0.427912 
vt 0.717248 0.384155 
vt 0.75435 0.357481 
vt 0.800045 0.35771 
vt 0.836878 0.384754 
vt 0.850781 0.428282 
vt 0.70291 0.427542 
vt 0.717248 0.384155 
vt 0.776845 0.427912 
vt 0.75435 0.357481 
vt 0.800045 0.35771 
vt 0.836878 0.384754 
vt 0.850781 0.428282 
vt 0.793719 0.562703 
vt 0.920128 0.567008 
vt 0.909778 0.624371 
vt 0.804854 0.623603 
vt 0.781797 0.496656 
vt 0.932632 0.497035 
vt 0.901369 0.916183 
vt 0.813021 0.84004 
vt 0.893507 0.833102 
vt 0.821116 0.925618 
vt 0.893507 0.833102 
vt 0.821116 0.925618 
vt 0.901369 0.916183 
vt 0.813044 0.840236 
vt 0.813021 0.84004 
vt 0.901369 0.916183 
vt 0.821116 0.925618 
vt 0.893507 0.833102 
vt 0.821116 0.925618 
vt 0.893507 0.833102 
vt 0.813021 0.84004 
vt 0.901369 0.916183 
vt 0.743751 0.809647 
vt 0.692344 0.808175 
vt 0.698386 0.835163 
vt 0.753191 0.83134 
vt 0.694031 0.767474 
vt 0.740014 0.780983 
vt 0.710008 0.7288 
vt 0.74892 0.755691 
vt 0.731629 0.705493 
vt 0.761478 0.737859 
vt 0.692344 0.808175 
vt 0.743751 0.809647 
vt 0.698386 0.835163 
vt 0.753191 0.83134 
vt 0.694031 0.767474 
vt 0.740014 0.780983 
vt 0.710008 0.7288 
vt 0.74892 0.755691 
vt 0.731629 0.705493 
vt 0.761478 0.737859 
vt 0.707272 0.182523 
vt 0.851696 0.019612 
vt 0.989469 0.182357 
vt 0.992848 0.014168 
vt 0.709917 0.015226 
vt 0.851785 0.345268 
vt 0.710056 0.349963 
vt 0.992703 0.350493 
vt 0.478714 0.41556 
vt 0.444901 0.362883 
vt 0.482985 0.371367 
vt 0.446358 0.183287 
vt 0.425227 0.34988 
vt 0.37072 0.183478 
vt 0.371095 0.351656 
vt 0.370517 0.015319 
vt 0.47667 0.348276 
vt 0.467107 0.016848 
vt 0.518679 0.183061 
vt 0.613751 0.349159 
vt 0.559311 0.018068 
vt 0.626817 0.182752 
vt 0.710056 0.349963 
vt 0.64196 0.016368 
vt 0.707272 0.182523 
vt 0.709917 0.015226 
vt 0.377818 0.415681 
vt 0.373243 0.371499 
vt 0.411269 0.362923 
vt 0.355903 0.171636 
vt 0.254673 0.012641 
vt 0.351848 0.017046 
vt 0.165985 0.169129 
vt 0.162319 0.013066 
vt 0.080291 0.022033 
vt 0.169237 0.320271 
vt 0.362213 0.330025 
vt 0.018462 0.183941 
vt 0.014968 0.042101 
vt 0.017859 0.323063 
vt 0.399182 0.672452 
vt 0.347865 0.831212 
vt 0.346049 0.680053 
vt 0.450833 0.822082 
vt 0.449993 0.670323 
vt 0.585023 0.677583 
vt 0.449837 0.967866 
vt 0.34442 0.979749 
vt 0.677959 0.835995 
vt 0.677831 0.696274 
vt 0.677702 0.975151 
vt 0.478714 0.481429 
vt 0.444901 0.428752 
vt 0.482985 0.437236 
vt 0.411269 0.428792 
vt 0.377818 0.48155 
vt 0.373243 0.437368 
vt 0.478714 0.41556 
vt 0.444901 0.362883 
vt 0.482985 0.371367 
vt 0.377818 0.415681 
vt 0.411269 0.362923 
vt 0.373243 0.371499 
vt 0.478714 0.41556 
vt 0.444901 0.362883 
vt 0.482985 0.371367 
vt 0.411269 0.362923 
vt 0.377818 0.415681 
vt 0.373243 0.371499 
vt 0.478714 0.41556 
vt 0.444901 0.362883 
vt 0.482985 0.371367 
vt 0.377818 0.415681 
vt 0.411269 0.362923 
vt 0.373243 0.371499 
vt 0.478714 0.41556 
vt 0.444901 0.362883 
vt 0.482985 0.371367 
vt 0.411269 0.362923 
vt 0.377818 0.415681 
vt 0.373243 0.371499 
vt 0.478714 0.41556 
vt 0.444901 0.362883 
vt 0.482985 0.371367 
vt 0.377818 0.415681 
vt 0.411269 0.362923 
vt 0.373243 0.371499 
vt 0.478714 0.481429 
vt 0.444901 0.428752 
vt 0.482985 0.437236 
vt 0.377818 0.48155 
vt 0.411269 0.428792 
vt 0.373243 0.437368 
vt 0.444901 0.362883 
vt 0.478714 0.41556 
vt 0.411269 0.362923 
vt 0.377818 0.415681 
vt 0.543693 0.493614 
vt 0.496653 0.508193 
vt 0.548061 0.527751 
vt 0.518266 0.537737 
vt 0.580613 0.530432 
vt 0.591087 0.497382 
vt 0.608958 0.545907 
vt 0.632219 0.520241 
vt 0.659544 0.558212 
vt 0.628544 0.571665 
vt 0.670554 0.60622 
vt 0.635317 0.601798 
vt 0.496653 0.508193 
vt 0.543693 0.493614 
vt 0.548061 0.527751 
vt 0.518266 0.537737 
vt 0.580613 0.530432 
vt 0.591087 0.497382 
vt 0.608958 0.545907 
vt 0.632219 0.520241 
vt 0.659544 0.558212 
vt 0.628544 0.571665 
vt 0.670554 0.60622 
vt 0.635317 0.601798 
vt 0.52937 0.648773 
vt 0.593558 0.60538 
vt 0.583668 0.659811 
vt 0.528489 0.566009 
vt 0.58222 0.551231 
vt 0.483889 0.609194 
vt 0.372393 0.606234 
vt 0.437066 0.6489 
vt 0.382896 0.66055 
vt 0.437014 0.566131 
vt 0.482099 0.608811 
vt 0.38312 0.551961 
vt 0.014233 0.677588 
vt 0.179778 0.673126 
vt 0.006941 0.829242 
vt 0.17801 0.988948 
vt 0.012408 0.986674 
vt 0.347865 0.831212 
vt 0.34442 0.979749 
vt 0.346049 0.680053 
vt 0.689496 0.962336 
vt 0.752821 0.900118 
vt 0.700878 0.899958 
vt 0.712799 0.984759 
vt 0.752821 0.900118 
vt 0.753138 0.9976 
vt 0.793394 0.985007 
vt 0.752821 0.900118 
vt 0.712799 0.984759 
vt 0.753138 0.9976 
vt 0.752821 0.900118 
vt 0.793394 0.985007 
vt 0.816551 0.962728 
vt 0.804763 0.900279 
vt 0.752821 0.900118 
vt 0.689496 0.962336 
vt 0.700878 0.899958 
vt 0.712799 0.984759 
vt 0.752821 0.900118 
vt 0.793394 0.985007 
vt 0.753138 0.9976 
vt 0.752821 0.900118 
vt 0.753138 0.9976 
vt 0.712799 0.984759 
vt 0.752821 0.900118 
vt 0.816551 0.962728 
vt 0.793394 0.985007 
vt 0.804763 0.900279 
vt 0.731629 0.705493 
vt 0.786168 0.681501 
vt 0.761478 0.737859 
vt 0.813658 0.733451 
vt 0.731629 0.705493 
vt 0.761478 0.737859 
vt 0.786168 0.681501 
vt 0.813658 0.733451 
vt 0.362213 0.330025 
vt 0.356964 0.496741 
vt 0.205935 0.491441 
vt 0.169237 0.320271 
vt 0.245218 0.659681 
vt 0.352497 0.665405 
vt 0.013892 0.658002 
vt 0.017666 0.48936 
vt 0.017859 0.323063 
vt 0.377818 0.415681 
vt 0.373243 0.371499 
vt 0.411269 0.362923 
vt 0.966003 0.668246 
vt 0.749612 0.66713 
vt 0.804854 0.623603 
vt 0.909778 0.624371 
vt 0.749612 0.66713 
vt 0.793719 0.562703 
vt 0.804854 0.623603 
vt 0.721651 0.588487 
vt 0.781797 0.496656 
vt 0.720324 0.511247 
vt 0.966003 0.668246 
vt 0.920128 0.567008 
vt 0.99234 0.588829 
vt 0.909778 0.624371 
vt 0.932632 0.497035 
vt 0.994232 0.511205 
vt 0.478714 0.41556 
vt 0.444901 0.362883 
vt 0.482985 0.371367 
vt 0.377818 0.415681 
vt 0.411269 0.362923 
vt 0.893507 0.833102 
vt 0.930436 0.908734 
vt 0.901369 0.916183 
vt 0.923212 0.834514 
vt 0.962322 0.902212 
vt 0.955391 0.834961 
vt 0.893507 0.833102 
vt 0.901369 0.916183 
vt 0.930436 0.908734 
vt 0.923212 0.834514 
vt 0.962322 0.902212 
vt 0.955391 0.834961 
vt 0.478714 0.41556 
vt 0.377818 0.415681 
vt 0.411269 0.362923 
vt 0.444901 0.362883 
vt 0.543693 0.493614 
vt 0.496653 0.508193 
vt 0.494139 0.49709 
vt 0.543445 0.482658 
vt 0.591087 0.497382 
vt 0.594743 0.487162 
vt 0.639197 0.511693 
vt 0.632219 0.520241 
vt 0.669125 0.552923 
vt 0.659544 0.558212 
vt 0.681429 0.602878 
vt 0.670554 0.60622 
vt 0.543445 0.482658 
vt 0.494139 0.49709 
vt 0.543693 0.493614 
vt 0.496653 0.508193 
vt 0.591087 0.497382 
vt 0.594743 0.487162 
vt 0.639197 0.511693 
vt 0.632219 0.520241 
vt 0.669125 0.552923 
vt 0.659544 0.558212 
vt 0.681429 0.602878 
vt 0.670554 0.60622 
vt 0.923212 0.834514 
vt 0.933036 0.765791 
vt 0.904609 0.757308 
vt 0.893507 0.833102 
vt 0.955391 0.834961 
vt 0.964389 0.773823 
vt 0.904609 0.757308 
vt 0.923212 0.834514 
vt 0.893507 0.833102 
vt 0.933036 0.765791 
vt 0.955391 0.834961 
vt 0.964389 0.773823 
vt 0.893507 0.833102 
vt 0.933036 0.765791 
vt 0.904609 0.757308 
vt 0.923212 0.834514 
vt 0.964389 0.773823 
vt 0.955391 0.834961 
vt 0.933036 0.765791 
vt 0.923212 0.834514 
vt 0.893507 0.833102 
vt 0.904609 0.757308 
vt 0.964389 0.773823 
vt 0.955391 0.834961 
vt 0.923212 0.834514 
vt 0.901369 0.916183 
vt 0.930436 0.908734 
vt 0.893507 0.833102 
vt 0.955391 0.834961 
vt 0.962322 0.902212 
vt 0.923212 0.834514 
vt 0.930436 0.908734 
vt 0.901369 0.916183 
vt 0.893507 0.833102 
vt 0.955391 0.834961 
vt 0.962322 0.902212 
vt 0.495666 0.462779 
vt 0.512426 0.361181 
vt 0.535361 0.467901 
vt 0.545025 0.362736 
vt 0.575549 0.470249 
vt 0.578119 0.36088 
vt 0.610798 0.360527 
vt 0.615803 0.469814 
vt 0.643435 0.361664 
vt 0.655931 0.466595 
vt 0.695643 0.46046 
vt 0.675979 0.359249 
vt 0.535756 0.467874 
vt 0.512642 0.361194 
vt 0.496052 0.46282 
vt 0.545243 0.362694 
vt 0.575948 0.470156 
vt 0.578334 0.360782 
vt 0.611013 0.360374 
vt 0.616201 0.469653 
vt 0.643651 0.361457 
vt 0.656324 0.466366 
vt 0.696025 0.460164 
vt 0.676191 0.358987 
vt 0.941724 0.438142 
vt 0.781797 0.496656 
vt 0.773803 0.437948 
vt 0.932632 0.497035 
vt 0.904609 0.757308 
vt 0.937923 0.679496 
vt 0.962256 0.697477 
vt 0.933036 0.765791 
vt 0.991562 0.710431 
vt 0.964389 0.773823 
vt 0.904609 0.757308 
vt 0.962256 0.697477 
vt 0.937923 0.679496 
vt 0.933036 0.765791 
vt 0.991562 0.710431 
vt 0.964389 0.773823 
vt 0.930436 0.908734 
vt 0.928145 0.990732 
vt 0.901369 0.916183 
vt 0.953234 0.974424 
vt 0.962322 0.902212 
vt 0.983516 0.963033 
vt 0.930436 0.908734 
vt 0.928145 0.990732 
vt 0.953234 0.974424 
vt 0.901369 0.916183 
vt 0.962322 0.902212 
vt 0.983516 0.963033 
vt 0.953234 0.974424 
vt 0.901369 0.916183 
vt 0.930436 0.908734 
vt 0.928145 0.990732 
vt 0.983516 0.963033 
vt 0.962322 0.902212 
vt 0.953234 0.974424 
vt 0.901369 0.916183 
vt 0.928145 0.990732 
vt 0.930436 0.908734 
vt 0.983516 0.963033 
vt 0.962322 0.902212 
vt 0.820046 0.780831 
vt 0.753191 0.83134 
vt 0.814124 0.826484 
vt 0.743751 0.809647 
vt 0.820046 0.780831 
vt 0.74892 0.755691 
vt 0.740014 0.780983 
vt 0.820046 0.780831 
vt 0.740014 0.780983 
vt 0.743751 0.809647 
vt 0.813658 0.733451 
vt 0.761478 0.737859 
vt 0.820046 0.780831 
vt 0.74892 0.755691 
vt 0.820046 0.780831 
vt 0.753191 0.83134 
vt 0.743751 0.809647 
vt 0.814124 0.826484 
vt 0.740014 0.780983 
vt 0.820046 0.780831 
vt 0.740014 0.780983 
vt 0.74892 0.755691 
vt 0.820046 0.780831 
vt 0.74892 0.755691 
vt 0.761478 0.737859 
vt 0.813658 0.733451 
vt 0.702502 0.888045 
vt 0.753191 0.83134 
vt 0.698386 0.835163 
vt 0.755517 0.891134 
vt 0.702502 0.888045 
vt 0.753191 0.83134 
vt 0.755517 0.891134 
vt 0.698386 0.835163 
vt 0.933036 0.765791 
vt 0.962256 0.697477 
vt 0.937923 0.679496 
vt 0.904609 0.757308 
vt 0.964389 0.773823 
vt 0.991562 0.710431 
vt 0.933036 0.765791 
vt 0.937923 0.679496 
vt 0.962256 0.697477 
vt 0.904609 0.757308 
vt 0.964389 0.773823 
vt 0.991562 0.710431 
vt 0.448821 0.561077 
vt 0.48081 0.540543 
vt 0.480786 0.520119 
vt 0.448747 0.499805 
vt 0.448821 0.561077 
vt 0.475658 0.563671 
vt 0.48081 0.540543 
vt 0.448747 0.499805 
vt 0.480786 0.520119 
vt 0.448747 0.499805 
vt 0.480786 0.520119 
vt 0.475578 0.497026 
vt 0.609949 0.631361 
vt 0.615224 0.608687 
vt 0.637819 0.614441 
vt 0.63649 0.649246 
vt 0.656123 0.63201 
vt 0.613603 0.654353 
vt 0.703379 0.632796 
vt 0.696176 0.654972 
vt 0.674188 0.64732 
vt 0.673244 0.61533 
vt 0.698301 0.607937 
vt 0.656702 0.631951 
vt 0.480786 0.520119 
vt 0.448747 0.499805 
vt 0.448821 0.561077 
vt 0.48081 0.540543 
vt 0.448821 0.561077 
vt 0.475658 0.563671 
vt 0.48081 0.540543 
vt 0.448747 0.499805 
vt 0.480786 0.520119 
vt 0.475578 0.497026 
vt 0.448821 0.561077 
vt 0.475658 0.563671 
vt 0.48081 0.540543 
vt 0.448747 0.499805 
vt 0.480786 0.520119 
vt 0.475578 0.497026 
vt 0.448821 0.561077 
vt 0.475658 0.563671 
vt 0.48081 0.540543 
vt 0.480786 0.520119 
vt 0.448747 0.499805 
vt 0.475578 0.497026 
vt 0.448821 0.561077 
vt 0.475658 0.563671 
vt 0.48081 0.540543 
vt 0.448747 0.499805 
vt 0.480786 0.520119 
vt 0.475578 0.497026 
vt 0.448821 0.561077 
vt 0.475658 0.563671 
vt 0.48081 0.540543 
vt 0.480786 0.520119 
vt 0.448747 0.499805 
vt 0.475578 0.497026 
vt 0.448821 0.561077 
vt 0.475658 0.563671 
vt 0.48081 0.540543 
vt 0.480786 0.520119 
vt 0.448747 0.499805 
vt 0.475578 0.497026 
vt 0.448821 0.561077 
vt 0.475658 0.563671 
vt 0.48081 0.540543 
vt 0.448747 0.499805 
vt 0.480786 0.520119 
vt 0.475578 0.497026 
vt 0.448747 0.499805 
vt 0.480786 0.520119 
vt 0.475578 0.497026 
vt 0.448821 0.561077 
vt 0.475658 0.563671 
vt 0.48081 0.540543 

usemtl Pet1Mtl

f 1/1/1 2/2/2 3/3/3 
f 3/3/3 2/2/2 4/4/4 
f 4/4/4 2/2/2 5/5/5 
f 5/5/5 2/2/2 6/6/6 
f 6/6/6 2/2/2 7/7/7 
f 8/8/8 9/9/9 10/10/10 
f 9/9/9 11/11/11 10/10/10 
f 11/11/11 12/12/12 10/10/10 
f 12/12/12 13/13/13 10/10/10 
f 13/13/13 14/14/14 10/10/10 
f 15/15/15 16/16/16 17/17/17 
f 15/15/15 17/17/17 18/18/18 
f 19/19/19 16/16/16 15/15/15 
f 19/19/19 20/20/20 16/16/16 
f 21/21/21 22/22/22 23/23/23 
f 22/22/22 21/21/21 24/24/24 
f 25/25/25 26/26/26 27/27/27 
f 26/26/26 25/25/25 28/28/28 
f 29/29/29 30/30/30 31/31/31 
f 30/30/30 29/29/29 32/32/32 
f 33/33/33 34/34/34 35/35/35 
f 34/34/34 33/33/33 36/36/36 
f 37/37/37 38/38/38 39/39/39 
f 39/39/39 40/40/40 37/37/37 
f 41/41/41 38/38/38 37/37/37 
f 41/41/41 37/37/37 42/42/42 
f 43/43/43 41/41/41 42/42/42 
f 43/43/43 42/42/42 44/44/44 
f 43/43/43 44/44/44 45/45/45 
f 45/45/45 44/44/44 46/46/46 
f 47/47/47 48/48/48 49/49/49 
f 49/49/49 48/48/48 50/50/50 
f 51/51/51 48/48/48 47/47/47 
f 48/48/48 51/51/51 52/52/52 
f 53/53/53 52/52/52 51/51/51 
f 52/52/52 53/53/53 54/54/54 
f 55/55/55 54/54/54 53/53/53 
f 54/54/54 55/55/55 56/56/56 
f 57/57/57 58/58/58 59/59/59 
f 58/58/58 60/60/60 59/59/59 
f 58/58/58 57/57/57 61/61/61 
f 62/62/62 57/57/57 59/59/59 
f 57/57/57 62/62/62 63/63/63 
f 62/62/62 59/59/59 64/64/64 
f 65/65/65 66/66/66 67/67/67 
f 68/68/68 69/69/69 70/70/70 
f 71/71/71 70/70/70 69/69/69 
f 70/70/70 72/72/72 68/68/68 
f 69/69/69 68/68/68 73/73/73 
f 74/74/74 68/68/68 72/72/72 
f 75/75/75 73/73/73 68/68/68 
f 68/68/68 74/74/74 75/75/75 
f 73/73/73 75/75/75 76/76/76 
f 77/77/77 75/75/75 74/74/74 
f 75/75/75 78/78/78 76/76/76 
f 75/75/75 77/77/77 78/78/78 
f 76/76/76 78/78/78 79/79/79 
f 80/80/80 78/78/78 77/77/77 
f 81/81/81 79/79/79 78/78/78 
f 78/78/78 80/80/80 81/81/81 
f 82/82/82 81/81/81 80/80/80 
f 83/83/83 84/84/84 85/85/85 
f 86/86/86 87/87/87 88/88/88 
f 87/87/87 86/86/86 89/89/89 
f 87/87/87 89/89/89 90/90/90 
f 91/91/91 90/90/90 89/89/89 
f 86/86/86 92/92/92 89/89/89 
f 86/86/86 93/93/93 92/92/92 
f 91/91/91 89/89/89 94/94/94 
f 92/92/92 94/94/94 89/89/89 
f 91/91/91 94/94/94 95/95/95 
f 94/94/94 92/92/92 96/96/96 
f 97/97/97 98/98/98 99/99/99 
f 98/98/98 97/97/97 100/100/100 
f 97/97/97 101/101/101 100/100/100 
f 102/102/102 100/100/100 101/101/101 
f 103/103/103 98/98/98 100/100/100 
f 98/98/98 103/103/103 104/104/104 
f 100/100/100 102/102/102 105/105/105 
f 100/100/100 105/105/105 103/103/103 
f 102/102/102 106/106/106 105/105/105 
f 103/103/103 105/105/105 107/107/107 
f 108/108/108 109/109/109 110/110/110 
f 108/108/108 111/111/111 109/109/109 
f 112/112/112 111/111/111 108/108/108 
f 112/112/112 113/113/113 111/111/111 
f 114/114/114 115/115/115 116/116/116 
f 117/117/117 115/115/115 114/114/114 
f 115/115/115 117/117/117 118/118/118 
f 117/117/117 119/119/119 118/118/118 
f 120/120/120 121/121/121 122/122/122 
f 120/120/120 123/123/123 121/121/121 
f 124/124/124 123/123/123 120/120/120 
f 124/124/124 125/125/125 123/123/123 
f 126/126/126 127/127/127 128/128/128 
f 129/129/129 127/127/127 126/126/126 
f 127/127/127 129/129/129 130/130/130 
f 129/129/129 131/131/131 130/130/130 
f 132/132/132 133/133/133 134/134/134 
f 132/132/132 135/135/135 133/133/133 
f 135/135/135 132/132/132 136/136/136 
f 136/136/136 137/137/137 135/135/135 
f 138/138/138 139/139/139 140/140/140 
f 141/141/141 139/139/139 138/138/138 
f 139/139/139 141/141/141 142/142/142 
f 141/141/141 143/143/143 142/142/142 
f 144/144/144 145/145/145 146/146/146 
f 147/147/147 145/145/145 144/144/144 
f 145/145/145 147/147/147 148/148/148 
f 147/147/147 149/149/149 148/148/148 
f 150/150/150 151/151/151 152/152/152 
f 151/151/151 153/153/153 152/152/152 
f 154/154/154 155/155/155 156/156/156 
f 156/156/156 155/155/155 157/157/157 
f 158/158/158 154/154/154 156/156/156 
f 158/158/158 159/159/159 154/154/154 
f 159/159/159 158/158/158 160/160/160 
f 159/159/159 160/160/160 161/161/161 
f 160/160/160 162/162/162 161/161/161 
f 162/162/162 160/160/160 163/163/163 
f 163/163/163 164/164/164 162/162/162 
f 164/164/164 163/163/163 165/165/165 
f 166/166/166 167/167/167 168/168/168 
f 166/166/166 168/168/168 169/169/169 
f 168/168/168 167/167/167 170/170/170 
f 170/170/170 167/167/167 171/171/171 
f 171/171/171 172/172/172 170/170/170 
f 172/172/172 171/171/171 173/173/173 
f 174/174/174 172/172/172 173/173/173 
f 172/172/172 174/174/174 175/175/175 
f 176/176/176 175/175/175 174/174/174 
f 175/175/175 176/176/176 177/177/177 
f 178/178/178 179/179/179 180/180/180 
f 181/181/181 179/179/179 178/178/178 
f 182/182/182 179/179/179 181/181/181 
f 181/181/181 178/178/178 183/183/183 
f 184/184/184 185/185/185 186/186/186 
f 184/184/184 187/187/187 185/185/185 
f 188/188/188 185/185/185 187/187/187 
f 189/189/189 187/187/187 184/184/184 
f 190/190/190 191/191/191 192/192/192 
f 193/193/193 192/192/192 191/191/191 
f 192/192/192 193/193/193 194/194/194 
f 195/195/195 193/193/193 191/191/191 
f 193/193/193 195/195/195 196/196/196 
f 191/191/191 197/197/197 195/195/195 
f 198/198/198 199/199/199 200/200/200 
f 199/199/199 198/198/198 201/201/201 
f 202/202/202 203/203/203 204/204/204 
f 205/205/205 206/206/206 207/207/207 
f 208/208/208 209/209/209 210/210/210 
f 208/208/208 210/210/210 211/211/211 
f 212/212/212 213/213/213 214/214/214 
f 213/213/213 212/212/212 215/215/215 
f 216/216/216 217/217/217 218/218/218 
f 219/219/219 220/220/220 221/221/221 
f 222/222/222 223/223/223 224/224/224 
f 223/223/223 222/222/222 225/225/225 
f 226/226/226 227/227/227 228/228/228 
f 227/227/227 229/229/229 228/228/228 
f 230/230/230 231/231/231 232/232/232 
f 232/232/232 231/231/231 233/233/233 
f 234/234/234 235/235/235 236/236/236 
f 234/234/234 236/236/236 237/237/237 
f 235/235/235 238/238/238 236/236/236 
f 235/235/235 239/239/239 238/238/238 
f 238/238/238 240/240/240 236/236/236 
f 236/236/236 240/240/240 241/241/241 
f 236/236/236 241/241/241 237/237/237 
f 237/237/237 241/241/241 242/242/242 
f 243/243/243 244/244/244 245/245/245 
f 246/246/246 247/247/247 248/248/248 
f 246/246/246 248/248/248 249/249/249 
f 250/250/250 251/251/251 252/252/252 
f 251/251/251 250/250/250 253/253/253 
f 253/253/253 254/254/254 251/251/251 
f 254/254/254 253/253/253 255/255/255 
f 256/256/256 257/257/257 258/258/258 
f 257/257/257 256/256/256 259/259/259 
f 260/260/260 258/258/258 257/257/257 
f 258/258/258 260/260/260 261/261/261 
f 262/262/262 263/263/263 264/264/264 
f 262/262/262 265/265/265 263/263/263 
f 263/263/263 265/265/265 266/266/266 
f 267/267/267 268/268/268 269/269/269 
f 268/268/268 267/267/267 270/270/270 
f 270/270/270 271/271/271 268/268/268 
f 271/271/271 270/270/270 272/272/272 
f 273/273/273 274/274/274 275/275/275 
f 273/273/273 275/275/275 276/276/276 
f 276/276/276 275/275/275 277/277/277 
f 276/276/276 277/277/277 278/278/278 
f 279/279/279 280/280/280 281/281/281 
f 279/279/279 281/281/281 282/282/282 
f 283/283/283 284/284/284 285/285/285 
f 283/283/283 285/285/285 286/286/286 
f 286/286/286 287/287/287 283/283/283 
f 287/287/287 286/286/286 288/288/288 
f 289/289/289 287/287/287 288/288/288 
f 287/287/287 289/289/289 290/290/290 
f 291/291/291 290/290/290 289/289/289 
f 290/290/290 291/291/291 292/292/292 
f 293/293/293 292/292/292 291/291/291 
f 292/292/292 293/293/293 294/294/294 
f 295/295/295 296/296/296 297/297/297 
f 298/298/298 297/297/297 296/296/296 
f 297/297/297 299/299/299 295/295/295 
f 299/299/299 300/300/300 295/295/295 
f 299/299/299 301/301/301 300/300/300 
f 301/301/301 299/299/299 302/302/302 
f 302/302/302 303/303/303 301/301/301 
f 303/303/303 302/302/302 304/304/304 
f 304/304/304 305/305/305 303/303/303 
f 305/305/305 304/304/304 306/306/306 
f 307/307/307 308/308/308 309/309/309 
f 309/309/309 310/310/310 307/307/307 
f 308/308/308 307/307/307 311/311/311 
f 311/311/311 312/312/312 308/308/308 
f 313/313/313 314/314/314 315/315/315 
f 314/314/314 313/313/313 316/316/316 
f 316/316/316 317/317/317 314/314/314 
f 317/317/317 316/316/316 318/318/318 
f 319/319/319 320/320/320 321/321/321 
f 320/320/320 319/319/319 322/322/322 
f 322/322/322 323/323/323 320/320/320 
f 323/323/323 322/322/322 324/324/324 
f 325/325/325 326/326/326 327/327/327 
f 327/327/327 328/328/328 325/325/325 
f 326/326/326 325/325/325 329/329/329 
f 329/329/329 330/330/330 326/326/326 
f 331/331/331 332/332/332 333/333/333 
f 332/332/332 331/331/331 334/334/334 
f 333/333/333 335/335/335 331/331/331 
f 335/335/335 333/333/333 336/336/336 
f 337/337/337 338/338/338 339/339/339 
f 339/339/339 340/340/340 337/337/337 
f 341/341/341 338/338/338 337/337/337 
f 341/341/341 342/342/342 338/338/338 
f 343/343/343 344/344/344 345/345/345 
f 345/345/345 344/344/344 346/346/346 
f 345/345/345 346/346/346 347/347/347 
f 348/348/348 347/347/347 346/346/346 
f 349/349/349 347/347/347 348/348/348 
f 347/347/347 349/349/349 350/350/350 
f 351/351/351 350/350/350 349/349/349 
f 350/350/350 351/351/351 352/352/352 
f 351/351/351 353/353/353 352/352/352 
f 353/353/353 351/351/351 354/354/354 
f 355/355/355 356/356/356 357/357/357 
f 356/356/356 355/355/355 358/358/358 
f 358/358/358 355/355/355 359/359/359 
f 358/358/358 359/359/359 360/360/360 
f 359/359/359 361/361/361 360/360/360 
f 361/361/361 359/359/359 362/362/362 
f 362/362/362 363/363/363 361/361/361 
f 363/363/363 362/362/362 364/364/364 
f 363/363/363 364/364/364 365/365/365 
f 365/365/365 366/366/366 363/363/363 
f 367/367/367 368/368/368 369/369/369 
f 368/368/368 367/367/367 370/370/370 
f 371/371/371 372/372/372 373/373/373 
f 371/371/371 373/373/373 374/374/374 
f 374/374/374 373/373/373 375/375/375 
f 374/374/374 375/375/375 376/376/376 
f 377/377/377 378/378/378 379/379/379 
f 378/378/378 377/377/377 380/380/380 
f 380/380/380 381/381/381 378/378/378 
f 381/381/381 380/380/380 382/382/382 
f 383/383/383 384/384/384 385/385/385 
f 384/384/384 383/383/383 386/386/386 
f 387/387/387 386/386/386 383/383/383 
f 386/386/386 387/387/387 388/388/388 
f 389/389/389 390/390/390 391/391/391 
f 390/390/390 389/389/389 392/392/392 
f 391/391/391 393/393/393 389/389/389 
f 393/393/393 391/391/391 394/394/394 
f 395/395/395 396/396/396 397/397/397 
f 396/396/396 395/395/395 398/398/398 
f 397/397/397 399/399/399 395/395/395 
f 399/399/399 397/397/397 400/400/400 
f 401/401/401 402/402/402 403/403/403 
f 402/402/402 401/401/401 404/404/404 
f 405/405/405 404/404/404 401/401/401 
f 404/404/404 405/405/405 406/406/406 
f 407/407/407 408/408/408 409/409/409 
f 407/407/407 410/410/410 408/408/408 
f 411/411/411 412/412/412 413/413/413 
f 414/414/414 415/415/415 416/416/416 
f 417/417/417 418/418/418 419/419/419 
f 420/420/420 419/419/419 418/418/418 
f 421/421/421 422/422/422 423/423/423 
f 421/421/421 424/424/424 422/422/422 
f 421/421/421 423/423/423 425/425/425 
f 426/426/426 427/427/427 428/428/428 
f 429/429/429 430/430/430 431/431/431 
f 429/429/429 431/431/431 432/432/432 
f 433/433/433 434/434/434 435/435/435 
f 434/434/434 433/433/433 436/436/436 
f 437/437/437 438/438/438 439/439/439 
f 438/438/438 437/437/437 440/440/440 
f 441/441/441 442/442/442 443/443/443 
f 443/443/443 444/444/444 441/441/441 
f 445/445/445 442/442/442 441/441/441 
f 445/445/445 446/446/446 442/442/442 
f 447/447/447 448/448/448 449/449/449 
f 448/448/448 447/447/447 450/450/450 
f 449/449/449 451/451/451 447/447/447 
f 451/451/451 449/449/449 452/452/452 
f 453/453/453 454/454/454 455/455/455 
f 453/453/453 455/455/455 456/456/456 
f 457/457/457 458/458/458 459/459/459 
f 457/457/457 459/459/459 460/460/460 
f 460/460/460 459/459/459 461/461/461 
f 462/462/462 463/463/463 464/464/464 
f 465/465/465 466/466/466 467/467/467 
f 465/465/465 467/467/467 468/468/468 
f 469/469/469 468/468/468 467/467/467 
f 470/470/470 465/465/465 468/468/468 
f 471/471/471 472/472/472 473/473/473 
f 474/474/474 471/471/471 473/473/473 
f 474/474/474 475/475/475 471/471/471 
f 476/476/476 474/474/474 473/473/473 
f 477/477/477 478/478/478 479/479/479 
f 477/477/477 479/479/479 480/480/480 
f 481/481/481 482/482/482 483/483/483 
f 483/483/483 484/484/484 481/481/481 
f 484/484/484 483/483/483 485/485/485 
f 484/484/484 485/485/485 486/486/486 
f 487/487/487 488/488/488 489/489/489 
f 489/489/489 490/490/490 487/487/487 
f 490/490/490 489/489/489 491/491/491 
f 490/490/490 491/491/491 492/492/492 
f 493/493/493 494/494/494 495/495/495 
f 493/493/493 495/495/495 496/496/496 
f 497/497/497 493/493/493 496/496/496 
f 497/497/497 496/496/496 498/498/498 
f 499/499/499 500/500/500 501/501/501 
f 501/501/501 502/502/502 499/499/499 
f 502/502/502 501/501/501 503/503/503 
f 502/502/502 503/503/503 504/504/504 
f 505/505/505 506/506/506 507/507/507 
f 505/505/505 507/507/507 508/508/508 
f 509/509/509 505/505/505 508/508/508 
f 509/509/509 508/508/508 510/510/510 
f 511/511/511 512/512/512 513/513/513 
f 514/514/514 511/511/511 513/513/513 
f 515/515/515 511/511/511 514/514/514 
f 515/515/515 514/514/514 516/516/516 
f 517/517/517 518/518/518 519/519/519 
f 519/519/519 520/520/520 517/517/517 
f 520/520/520 519/519/519 521/521/521 
f 520/520/520 521/521/521 522/522/522 
f 523/523/523 524/524/524 525/525/525 
f 526/526/526 527/527/527 528/528/528 

