# This file is brought to you by Roblox Corporation
# Generated by Roblox Studio

mtllib dolphin.mtl

g Pet1

v -0.00623232 0.0981113 -1.67837 
v -0.00623233 0.496718 -1.61914 
v 0.493322 0.1492 -1.72048 
v 0.494543 0.459727 -1.67402 
v -0.00623232 0.0981113 -1.67837 
v -0.505786 0.1492 -1.72048 
v -0.00623233 0.496718 -1.61914 
v -0.507008 0.459727 -1.67402 
v 0.741019 0.318046 -1.79638 
v 0.493322 0.1492 -1.72048 
v 0.494543 0.459727 -1.67402 
v -0.753484 0.318046 -1.79638 
v -0.507008 0.459727 -1.67402 
v -0.505786 0.1492 -1.72048 
v -0.452977 -0.709305 1.73452 
v -0.620983 -0.955491 1.63693 
v -0.468785 -0.961192 1.64395 
v -0.626213 -0.702816 1.72652 
v -0.620983 -0.955491 1.63693 
v -0.704638 -0.659027 1.57803 
v -0.689885 -0.91702 1.50647 
v -0.109719 -1.05141 1.75306 
v -0.117473 -1.09494 1.68721 
v -0.0659806 -1.05564 1.77069 
v -0.198906 -1.04553 1.69732 
v 0.0535154 -0.930056 1.79638 
v -0.0659806 -0.930056 1.79638 
v 0.0535154 -1.05564 1.77069 
v -0.0659806 -1.05564 1.77069 
v 0.186441 -1.04553 1.69732 
v 0.0972539 -1.05141 1.75306 
v 0.105007 -1.09494 1.68721 
v 0.0535154 -1.05564 1.77069 
v -0.117473 -1.09494 1.68721 
v 0.105007 -1.09494 1.68721 
v -0.0659806 -1.05564 1.77069 
v 0.0535154 -1.05564 1.77069 
v -0.109719 -0.92702 1.7785 
v -0.109719 -1.05141 1.75306 
v -0.0659806 -0.930056 1.79638 
v -0.0659806 -1.05564 1.77069 
v 0.0972539 -1.05141 1.75306 
v 0.0972539 -0.92702 1.7785 
v 0.0535154 -0.930056 1.79638 
v 0.0535154 -1.05564 1.77069 
v -0.620983 -0.955491 1.63693 
v -0.497585 -0.996619 1.57745 
v -0.468785 -0.961192 1.64395 
v -0.588909 -0.993199 1.57323 
v -0.198906 -0.91054 1.72493 
v -0.198906 -1.04553 1.69732 
v -0.109719 -0.92702 1.7785 
v -0.109719 -1.05141 1.75306 
v -0.364514 1.1385 -0.0877099 
v -0.340505 1.17332 0.742158 
v 0.0200557 1.17396 0.988809 
v -0.487397 1.15978 0.330965 
v 0.456562 1.16145 0.976705 
v -0.0187919 1.11762 -0.353946 
v 0.802285 1.14057 0.710469 
v 0.925168 1.11929 0.291795 
v 0.778275 1.10575 -0.119398 
v 0.417714 1.10511 -0.366049 
v -1.45126 -0.98014 0.394221 
v -1.59336 -0.933473 0.0918947 
v -1.13757 -1.04622 0.160676 
v -0.689885 -0.91702 1.50647 
v -0.588909 -0.993199 1.57323 
v -0.620983 -0.955491 1.63693 
v -0.630253 -0.970114 1.49495 
v 1.45126 -0.966452 0.394221 
v 1.13757 -1.03254 0.160676 
v 1.59336 -0.919786 0.091895 
v 0.0972539 -0.92702 1.7785 
v 0.186441 -1.04553 1.69732 
v 0.186441 -0.91054 1.72493 
v 0.0972539 -1.05141 1.75306 
v 0.105007 -0.861131 1.73504 
v 0.0972539 -0.92702 1.7785 
v 0.0535154 -0.930056 1.79638 
v -1.45126 -0.98014 0.394221 
v -1.13757 -1.04622 0.160676 
v -1.22725 -1.01248 0.616668 
v -0.000730411 -1.05776 -0.676035 
v -0.831555 -0.312916 -0.676035 
v -0.000732661 0.388192 -0.676178 
v -0.858037 0.407077 -0.67614 
v 0.830378 -0.312916 -0.676035 
v 0.856575 -1.03468 -0.676035 
v 0.856568 0.405959 -0.676208 
v -0.831555 -0.312916 -0.676035 
v -0.000730411 -1.05776 -0.676035 
v -0.85803 -1.03468 -0.676035 
v -0.198906 -1.04553 1.69732 
v -0.155664 -1.10327 1.52351 
v -0.117473 -1.09494 1.68721 
v -0.265055 -1.0369 1.53709 
v 1.45126 -0.966452 0.394221 
v 1.22725 -0.99879 0.616668 
v 1.13757 -1.03254 0.160676 
v -0.000730527 -1.1605 0.652456 
v 0.849075 -1.158 0.764464 
v -0.000730561 -1.14742 1.03857 
v 0.856575 -1.12018 1.03857 
v 0.849075 -1.158 0.764464 
v 0.841905 -1.16907 0.502185 
v -0.000730495 -1.17396 0.283001 
v -0.000730561 -1.14742 1.03857 
v -0.85803 -1.12018 1.03857 
v -0.8502 -1.15854 0.54653 
v -0.8427 -1.17012 0.075718 
v -0.000730447 -1.13152 -0.269714 
v -0.8508 -1.13152 -0.343902 
v 0.849345 -1.13152 -0.195526 
v 0.841905 -1.16907 0.502185 
v -0.000730411 -1.05776 -0.676035 
v -0.85803 -1.03468 -0.676035 
v 0.856575 -1.03468 -0.676035 
v -0.000730447 -1.13152 -0.269714 
v 0.849345 -1.13152 -0.195526 
v -0.84187 -1.03641 0.783725 
v -1.22725 -1.01248 0.616668 
v -0.831481 -1.07166 0.130381 
v -1.13757 -1.04622 0.160676 
v 0.84187 -1.02273 0.783725 
v 0.831481 -1.05797 0.130381 
v 1.22725 -0.99879 0.616668 
v 1.13757 -1.03254 0.160676 
v 0.177776 -1.07927 0.918321 
v 0.143199 -1.10327 1.52351 
v -0.155664 -1.10327 1.52351 
v -0.190241 -1.07927 0.918321 
v 0.105007 -1.09494 1.68721 
v -0.155664 -1.10327 1.52351 
v -0.117473 -1.09494 1.68721 
v 0.143199 -1.10327 1.52351 
v 0.186441 -1.04553 1.69732 
v 0.25259 -1.0369 1.53709 
v -0.385489 -0.928421 1.52053 
v 0.0165682 -0.889329 1.25584 
v 0.0236579 -0.868978 1.27492 
v -0.447604 -0.976955 1.50339 
v -0.380024 -0.877138 1.53523 
v 0.0247004 -0.84495 1.28262 
v -0.265055 -1.0369 1.53709 
v -0.324945 -0.974359 0.93978 
v -0.155664 -1.10327 1.52351 
v -0.190241 -1.07927 0.918321 
v 0.143199 -1.10327 1.52351 
v 0.31248 -0.974359 0.93978 
v 0.25259 -1.0369 1.53709 
v 0.177776 -1.07927 0.918321 
v -0.290218 -0.418175 -0.599641 
v 0.18494 -0.00901571 -1.17516 
v 0.277753 -0.418175 -0.599641 
v -0.197405 -0.00901571 -1.17516 
v -0.891173 -0.334531 1.03857 
v -0.8502 -1.15854 0.54653 
v -0.85803 -1.12018 1.03857 
v -0.8427 -0.384548 0.0757098 
v -0.891173 -0.334531 1.03857 
v -0.84297 0.362092 0.0766128 
v -0.857123 0.480539 1.03419 
v -0.8502 -1.15854 0.54653 
v -0.8427 -0.384548 0.0757098 
v -0.8427 -1.17012 0.075718 
v -0.84297 0.362092 0.0766128 
v -0.831555 -0.312916 -0.676035 
v -0.8427 -0.384548 0.0757098 
v -0.858037 0.407077 -0.67614 
v -0.8508 -1.13152 -0.343902 
v -0.8427 -1.17012 0.075718 
v -0.8427 -0.384548 0.0757098 
v -0.8508 -1.13152 -0.343902 
v -0.8427 -0.384548 0.0757098 
v -0.831555 -0.312916 -0.676035 
v -0.85803 -1.03468 -0.676035 
v 0.661822 0.498306 0.252625 
v 0.665953 0.509858 0.4213 
v 0.705238 0.436743 0.400446 
v 0.713314 0.42796 0.594284 
v 0.849075 -1.158 0.764464 
v 0.882787 -0.334531 1.03857 
v 0.856575 -1.12018 1.03857 
v 0.841905 -0.383423 0.502185 
v 0.841905 -1.16907 0.502185 
v 0.849345 -1.13152 -0.195526 
v 0.830378 -0.312916 -0.676035 
v 0.856575 -1.03468 -0.676035 
v 0.842572 0.369824 0.50027 
v 0.856568 0.405959 -0.676208 
v 0.842572 0.369824 0.50027 
v 0.882787 -0.334531 1.03857 
v 0.856177 0.438291 1.04047 
v 0.610042 0.607993 0.280423 
v 0.661822 0.498306 0.252625 
v 0.632676 0.612372 0.205832 
v 0.665953 0.509858 0.4213 
v 0.605369 0.518269 0.638367 
v 0.665953 0.509858 0.4213 
v 0.540323 0.594504 0.51018 
v 0.610042 0.607993 0.280423 
v 0.605369 0.518269 0.638367 
v 0.713314 0.42796 0.594284 
v 0.633344 0.447116 0.766815 
v 0.288223 0.609729 0.704319 
v 0.389676 0.531296 0.804469 
v 0.633344 0.447116 0.766815 
v 0.501129 0.455101 0.868632 
v 0.164352 0.540152 0.807576 
v 0.0516285 0.641597 0.711648 
v 0.389676 0.531296 0.804469 
v 0.389676 0.531296 0.804469 
v 0.316313 0.451693 0.902418 
v 0.501129 0.455101 0.868632 
v -0.198906 -0.91054 1.72493 
v -0.265055 -0.855565 1.57418 
v -0.198906 -1.04553 1.69732 
v -0.265055 -1.0369 1.53709 
v -0.721363 0.337591 -1.55107 
v -0.507008 0.459727 -1.67402 
v -0.753484 0.318046 -1.79638 
v 0.708898 0.337591 -1.55107 
v 0.741019 0.318046 -1.79638 
v 0.494543 0.459727 -1.67402 
v 0.186441 -1.04553 1.69732 
v 0.25259 -1.0369 1.53709 
v 0.25259 -0.855565 1.57418 
v 0.186441 -0.91054 1.72493 
v -0.117473 -0.861131 1.73504 
v -0.198906 -0.91054 1.72493 
v -0.109719 -0.92702 1.7785 
v -0.0659806 -0.930056 1.79638 
v 0.174486 0.34373 -0.1938 
v -0.186581 0.342677 -0.195718 
v -0.146697 0.603464 -0.176433 
v 0.134628 0.60457 -0.174493 
v -0.00660898 0.974447 0.160988 
v -0.00674095 1.10589 -0.244549 
v -0.0735682 0.943646 0.0287314 
v -0.385489 -0.928421 1.52053 
v -0.468785 -0.961192 1.64395 
v -0.497585 -0.996619 1.57745 
v -0.447604 -0.976955 1.50339 
v -0.00674095 1.10589 -0.244549 
v -0.00660898 0.974447 0.160988 
v 0.0603518 0.944275 0.0294559 
v -0.447604 -0.976955 1.50339 
v -0.538928 -0.973535 1.49917 
v -0.488947 -0.953871 1.42511 
v -0.497585 -0.996619 1.57745 
v -0.538928 -0.973535 1.49917 
v -0.447604 -0.976955 1.50339 
v -0.588909 -0.993199 1.57323 
v -0.538928 -0.973535 1.49917 
v -0.497585 -0.996619 1.57745 
v -0.630253 -0.970114 1.49495 
v -0.538928 -0.973535 1.49917 
v -0.588909 -0.993199 1.57323 
v -0.580271 -0.95045 1.42089 
v -0.538928 -0.973535 1.49917 
v -0.630253 -0.970114 1.49495 
v -0.488947 -0.953871 1.42511 
v -0.538928 -0.973535 1.49917 
v -0.580271 -0.95045 1.42089 
v -0.85803 -1.12018 1.03857 
v -0.000730561 -1.14742 1.03857 
v -0.891173 -0.334531 1.03857 
v -0.000472561 0.486337 1.03733 
v -0.857123 0.480539 1.03419 
v 0.856575 -1.12018 1.03857 
v 0.882787 -0.334531 1.03857 
v 0.882787 -0.334531 1.03857 
v -0.000472561 0.486337 1.03733 
v 0.856177 0.438291 1.04047 
v 0.00181571 0.538167 0.760887 
v 0.0516285 0.641597 0.711648 
v -0.02733 0.652233 0.714093 
v 0.164352 0.540152 0.807576 
v 0.164352 0.540152 0.807576 
v 0.131759 0.47187 0.843015 
v 0.316313 0.451693 0.902418 
v -0.507008 0.459727 -1.67402 
v -0.721363 0.337591 -1.55107 
v -0.507988 0.418374 -1.23318 
v -0.447604 -0.976955 1.50339 
v -0.00294458 -0.878435 1.2189 
v 0.0165682 -0.889329 1.25584 
v -0.488947 -0.953871 1.42511 
v -0.00674095 1.10589 -0.244549 
v 0.134628 0.60457 -0.174493 
v -0.146697 0.603464 -0.176433 
v 0.494543 0.459727 -1.67402 
v 0.495523 0.418374 -1.23318 
v 0.708898 0.337591 -1.55107 
v -0.290218 -0.418175 -0.599641 
v -0.292411 0.342766 -0.644833 
v -0.197405 -0.00901571 -1.17516 
v -0.198991 0.454975 -1.10684 
v -0.857123 0.480539 1.03419 
v -0.000472561 0.486337 1.03733 
v -0.000585745 0.365167 0.281539 
v -0.84297 0.362092 0.0766128 
v -0.000472561 0.486337 1.03733 
v 0.856177 0.438291 1.04047 
v 0.842572 0.369824 0.50027 
v -0.000585745 0.365167 0.281539 
v 0.708216 0.229886 -1.56878 
v 0.494159 0.061944 -1.2859 
v 0.493322 0.1492 -1.72048 
v 0.493322 0.1492 -1.72048 
v 0.741019 0.318046 -1.79638 
v -0.720681 0.229886 -1.56878 
v -0.721363 0.337591 -1.55107 
v -0.753484 0.318046 -1.79638 
v -0.00623233 0.496718 -1.61914 
v -0.507988 0.418374 -1.23318 
v -0.198991 0.454975 -1.10684 
v -0.507008 0.459727 -1.67402 
v 0.279946 0.342766 -0.644833 
v 0.277753 -0.418175 -0.599641 
v 0.18494 -0.00901571 -1.17516 
v 0.186527 0.454975 -1.10684 
v 0.842572 0.369824 0.50027 
v 0.856568 0.405959 -0.676208 
v -0.000585745 0.365167 0.281539 
v -0.000732661 0.388192 -0.676178 
v -0.00623233 0.496718 -1.61914 
v 0.495523 0.418374 -1.23318 
v 0.494543 0.459727 -1.67402 
v 0.186527 0.454975 -1.10684 
v 0.105007 -0.861131 1.73504 
v -0.117473 -0.861131 1.73504 
v 0.0535154 -0.930056 1.79638 
v -0.0659806 -0.930056 1.79638 
v -0.000585745 0.365167 0.281539 
v -0.000732661 0.388192 -0.676178 
v -0.84297 0.362092 0.0766128 
v -0.858037 0.407077 -0.67614 
v -0.112492 0.738832 0.247188 
v -0.00660898 0.974447 0.160988 
v -0.0735682 0.943646 0.0287314 
v -0.00661276 0.750666 0.408836 
v -0.265055 -1.0369 1.53709 
v -0.324945 -0.687732 0.998406 
v -0.324945 -0.974359 0.93978 
v -0.265055 -0.855565 1.57418 
v 0.708216 0.229886 -1.56878 
v 0.741019 0.318046 -1.79638 
v 0.708898 0.337591 -1.55107 
v -0.146697 0.603464 -0.176433 
v -0.0735682 0.943646 0.0287314 
v -0.00674095 1.10589 -0.244549 
v -0.385489 -0.928421 1.52053 
v -0.380024 -0.877138 1.53523 
v -0.468785 -0.961192 1.64395 
v 0.099267 0.740088 0.248636 
v 0.0603518 0.944275 0.0294559 
v -0.00660898 0.974447 0.160988 
v -0.00661276 0.750666 0.408836 
v 0.25259 -1.0369 1.53709 
v 0.31248 -0.974359 0.93978 
v 0.31248 -0.687732 0.998406 
v 0.25259 -0.855565 1.57418 
v 0.0603518 0.944275 0.0294559 
v 0.134628 0.60457 -0.174493 
v -0.00674095 1.10589 -0.244549 
v -0.580271 -0.95045 1.42089 
v -0.630253 -0.970114 1.49495 
v -0.689885 -0.91702 1.50647 
v -0.606588 -0.884248 1.38304 
v -0.0735682 0.943646 0.0287314 
v -0.146697 0.603464 -0.176433 
v -0.112492 0.738832 0.247188 
v -0.00623232 0.0981113 -1.67837 
v 0.494159 0.061944 -1.2859 
v 0.18494 -0.00901571 -1.17516 
v 0.493322 0.1492 -1.72048 
v -0.197405 -0.00901571 -1.17516 
v -0.506623 0.061944 -1.2859 
v -0.505786 0.1492 -1.72048 
v -0.720681 0.229886 -1.56878 
v -0.505786 0.1492 -1.72048 
v -0.753484 0.318046 -1.79638 
v -0.831481 -1.07166 0.130381 
v -1.13757 -1.04622 0.160676 
v -1.13646 -0.844168 0.192148 
v -0.830429 -0.812393 0.171251 
v 0.831481 -1.05797 0.130381 
v 1.13646 -0.83048 0.192148 
v 1.13757 -1.03254 0.160676 
v 0.830429 -0.798706 0.171251 
v 0.186527 0.454975 -1.10684 
v -0.00623233 0.496718 -1.61914 
v -0.198991 0.454975 -1.10684 
v -0.292411 0.342766 -0.644833 
v 0.186527 0.454975 -1.10684 
v 0.279946 0.342766 -0.644833 
v -0.144422 0.349515 0.382379 
v -0.146697 0.603464 -0.176433 
v -0.186581 0.342677 -0.195718 
v -0.112492 0.738832 0.247188 
v -0.00661276 0.750666 0.408836 
v -0.144422 0.349515 0.382379 
v -0.00660377 0.354122 0.585535 
v -0.112492 0.738832 0.247188 
v 0.134628 0.60457 -0.174493 
v 0.0603518 0.944275 0.0294559 
v 0.099267 0.740088 0.248636 
v 0.131214 0.350715 0.383805 
v 0.134628 0.60457 -0.174493 
v 0.174486 0.34373 -0.1938 
v -0.00661276 0.750666 0.408836 
v -0.00660377 0.354122 0.585535 
v 0.131214 0.350715 0.383805 
v 0.099267 0.740088 0.248636 
v 0.186441 -0.91054 1.72493 
v 0.143199 -0.789192 1.58775 
v 0.105007 -0.861131 1.73504 
v 0.25259 -0.855565 1.57418 
v -0.487397 1.15978 0.330965 
v -0.364514 1.1385 -0.0877099 
v -0.395909 0.978197 0.261079 
v -0.296649 0.997402 -0.0660297 
v -0.0256957 0.981037 -0.274686 
v -0.0187919 1.11762 -0.353946 
v -0.364514 1.1385 -0.0877099 
v -0.0187919 1.11762 -0.353946 
v 0.313456 0.935355 -0.285192 
v -0.0256957 0.981037 -0.274686 
v 0.417714 1.10511 -0.366049 
v 0.417714 1.10511 -0.366049 
v 0.591262 0.877804 -0.0935343 
v 0.778275 1.10575 -0.119398 
v 0.925168 1.11929 0.291795 
v 0.778275 1.10575 -0.119398 
v 0.70161 0.830366 0.227081 
v -1.45126 -0.98014 0.394221 
v -1.37381 -0.914105 0.351946 
v -1.59336 -0.933473 0.0918947 
v 1.45126 -0.966452 0.394221 
v 1.59336 -0.919786 0.091895 
v 1.37381 -0.900417 0.351946 
v -0.704638 -0.659027 1.57803 
v -0.606588 -0.884248 1.38304 
v -0.689885 -0.91702 1.50647 
v -0.609827 -0.621725 1.43754 
v -0.00571804 0.871534 0.768939 
v 0.0530842 0.642188 0.707837 
v -0.0251018 0.65272 0.710259 
v 0.0530842 0.642188 0.707837 
v 0.330118 0.826298 0.758535 
v 0.287366 0.610632 0.700579 
v -0.00571804 0.871534 0.768939 
v 1.59336 -0.919786 0.091895 
v 1.13757 -1.03254 0.160676 
v 1.13646 -0.83048 0.192148 
v -0.155664 -0.789192 1.58775 
v -0.190241 -0.58282 1.01986 
v -0.265055 -0.855565 1.57418 
v -0.324945 -0.687732 0.998406 
v -0.265055 -0.855565 1.57418 
v -0.198906 -0.91054 1.72493 
v -0.117473 -0.861131 1.73504 
v -1.59336 -0.933473 0.0918947 
v -1.13646 -0.844168 0.192148 
v -1.13757 -1.04622 0.160676 
v -1.45126 -0.98014 0.394221 
v -1.19948 -0.903832 0.491441 
v -1.37381 -0.914105 0.351946 
v -1.22725 -1.01248 0.616668 
v 0.60235 0.811161 0.55419 
v 0.925168 1.11929 0.291795 
v 0.802285 1.14057 0.710469 
v 0.70161 0.830366 0.227081 
v 1.19949 -0.890145 0.491442 
v 1.45126 -0.966452 0.394221 
v 1.37381 -0.900417 0.351946 
v 1.22725 -0.99879 0.616668 
v 0.330118 0.826298 0.758535 
v 0.537001 0.595556 0.508338 
v 0.287366 0.610632 0.700579 
v 0.598422 0.810094 0.551918 
v 0.25259 -0.855565 1.57418 
v 0.177776 -0.58282 1.01986 
v 0.143199 -0.789192 1.58775 
v 0.31248 -0.687732 0.998406 
v 0.105007 -0.861131 1.73504 
v -0.155664 -0.789192 1.58775 
v -0.117473 -0.861131 1.73504 
v 0.143199 -0.789192 1.58775 
v -0.281051 0.705743 0.53368 
v -0.00571804 0.871534 0.768939 
v -0.0251018 0.65272 0.710259 
v -0.280808 0.928522 0.579154 
v -0.281051 0.705743 0.53368 
v -0.390077 0.975497 0.261674 
v -0.382717 0.749449 0.23829 
v 0.802285 1.14057 0.710469 
v 0.456562 1.16145 0.976705 
v 0.60235 0.811161 0.55419 
v 0.331397 0.827525 0.762846 
v -0.436592 -0.628214 1.44555 
v -0.531402 -0.665515 1.58603 
v -0.358166 -0.672004 1.59403 
v -0.358166 -0.672004 1.59403 
v -0.531402 -0.665515 1.58603 
v -0.452977 -0.709305 1.73452 
v -0.452977 -0.709305 1.73452 
v -0.531402 -0.665515 1.58603 
v -0.626213 -0.702816 1.72652 
v -0.704638 -0.659027 1.57803 
v -0.609827 -0.621725 1.43754 
v -0.609827 -0.621725 1.43754 
v -0.531402 -0.665515 1.58603 
v -0.436592 -0.628214 1.44555 
v 0.598422 0.810094 0.551918 
v 0.606038 0.608912 0.280828 
v 0.537001 0.595556 0.508338 
v 0.696711 0.829111 0.228007 
v 0.628451 0.613249 0.206967 
v 0.606038 0.608912 0.280828 
v 0.696711 0.829111 0.228007 
v -0.155664 -0.789192 1.58775 
v 0.143199 -0.789192 1.58775 
v -0.190241 -0.58282 1.01986 
v 0.177776 -0.58282 1.01986 
v 1.22725 -0.99879 0.616668 
v 0.837264 -0.882694 0.631473 
v 0.84187 -1.02273 0.783725 
v 1.19949 -0.890145 0.491442 
v -1.22725 -1.01248 0.616668 
v -0.837265 -0.896382 0.631473 
v -1.19948 -0.903832 0.491441 
v -0.84187 -1.03641 0.783725 
v -0.452977 -0.709305 1.73452 
v -0.468785 -0.961192 1.64395 
v -0.380024 -0.877138 1.53523 
v -0.358166 -0.672004 1.59403 
v -0.45083 -0.837603 1.40117 
v -0.436592 -0.628214 1.44555 
v -0.380024 -0.877138 1.53523 
v 0.0200557 1.17396 0.988809 
v 0.331397 0.827525 0.762846 
v 0.456562 1.16145 0.976705 
v -0.00775429 0.873207 0.773352 
v -0.285561 0.930759 0.581694 
v -0.340505 1.17332 0.742158 
v -0.00775429 0.873207 0.773352 
v -0.340505 1.17332 0.742158 
v -0.487397 1.15978 0.330965 
v -0.395909 0.978197 0.261079 
v -0.606588 -0.884248 1.38304 
v -0.488947 -0.953871 1.42511 
v -0.580271 -0.95045 1.42089 
v -0.45439 -0.889949 1.39007 
v -0.390077 0.975497 0.261674 
v -0.291267 0.767143 -0.0630822 
v -0.291788 0.994514 -0.0622369 
v -0.382717 0.749449 0.23829 
v 0.312352 0.933074 -0.279258 
v 0.526785 0.656955 -0.0884238 
v 0.587442 0.876085 -0.0894731 
v 0.270836 0.709979 -0.265002 
v 0.526785 0.656955 -0.0884238 
v 0.696711 0.829111 0.228007 
v 0.628451 0.613249 0.206967 
v 1.13646 -0.83048 0.192148 
v 1.37381 -0.900417 0.351946 
v 1.59336 -0.919786 0.091895 
v -1.13646 -0.844168 0.192148 
v -1.59336 -0.933473 0.0918947 
v -1.37381 -0.914105 0.351946 
v -0.00871808 -0.82629 1.21934 
v -0.380024 -0.877138 1.53523 
v 0.0247004 -0.84495 1.28262 
v -0.45083 -0.837603 1.40117 
v 1.37381 -0.900417 0.351946 
v 1.13646 -0.83048 0.192148 
v 1.19949 -0.890145 0.491442 
v -1.37381 -0.914105 0.351946 
v -1.19948 -0.903832 0.491441 
v -1.13646 -0.844168 0.192148 
v -0.506623 0.061944 -1.2859 
v -0.507988 0.418374 -1.23318 
v -0.721363 0.337591 -1.55107 
v -0.720681 0.229886 -1.56878 
v -0.0234839 0.97831 -0.268854 
v -0.291788 0.994514 -0.0622369 
v -0.291267 0.767143 -0.0630822 
v -0.0416317 0.752066 -0.255323 
v 0.494159 0.061944 -1.2859 
v 0.708898 0.337591 -1.55107 
v 0.495523 0.418374 -1.23318 
v 0.708216 0.229886 -1.56878 
v -0.00294458 -0.878435 1.2189 
v -0.488947 -0.953871 1.42511 
v -0.45439 -0.889949 1.39007 
v -0.00886208 -0.850819 1.21335 
v -0.45083 -0.837603 1.40117 
v -0.00871808 -0.82629 1.21934 
v 0.312352 0.933074 -0.279258 
v -0.0234839 0.97831 -0.268854 
v -0.0416317 0.752066 -0.255323 
v 0.270836 0.709979 -0.265002 
v 1.19949 -0.890145 0.491442 
v 0.830429 -0.798706 0.171251 
v 0.837264 -0.882694 0.631473 
v 1.13646 -0.83048 0.192148 
v -1.19948 -0.903832 0.491441 
v -0.837265 -0.896382 0.631473 
v -0.830429 -0.812393 0.171251 
v -1.13646 -0.844168 0.192148 
v 0.537001 0.595556 0.508338 
v 0.606038 0.608912 0.280828 
v 0.661402 0.511737 0.420328 
v 0.601411 0.520066 0.635272 
v 0.708301 0.43064 0.591621 
v 0.629113 0.449609 0.762465 
v 0.661402 0.511737 0.420328 
v 0.700303 0.439337 0.399678 
v 0.657312 0.500298 0.253302 
v 0.601411 0.520066 0.635272 
v 0.287366 0.610632 0.700579 
v 0.164705 0.541735 0.802827 
v 0.0530842 0.642188 0.707837 
v 0.387827 0.532965 0.799751 
v 0.387827 0.532965 0.799751 
v 0.629113 0.449609 0.762465 
v 0.49819 0.457516 0.863286 
v 0.49819 0.457516 0.863286 
v 0.315181 0.454141 0.896742 
v 0.164705 0.541735 0.802827 
v 0.00375896 0.539769 0.756594 
v 0.0530842 0.642188 0.707837 
v -0.0251018 0.65272 0.710259 
v 0.164705 0.541735 0.802827 
v 0.132432 0.474121 0.837919 
v 0.315181 0.454141 0.896742 
v 0.657312 0.500298 0.253302 
v 0.606038 0.608912 0.280828 
v 0.628451 0.613249 0.206967 
v 0.661402 0.511737 0.420328 
v -0.395909 0.978197 0.261079 
v -0.296123 0.767786 -0.0668831 
v -0.388476 0.749918 0.237465 
v -0.285806 0.70578 0.535771 
v -0.296649 0.997402 -0.0660297 
v -0.0256957 0.981037 -0.274686 
v -0.0440227 0.75256 -0.261022 
v -0.285561 0.930759 0.581694 
v -0.00775429 0.873207 0.773352 
v -0.02733 0.652233 0.714093 
v -0.00775429 0.873207 0.773352 
v 0.0516285 0.641597 0.711648 
v 0.331397 0.827525 0.762846 
v 0.288223 0.609729 0.704319 
v 0.540323 0.594504 0.51018 
v 0.60235 0.811161 0.55419 
v 0.610042 0.607993 0.280423 
v 0.70161 0.830366 0.227081 
v 0.632676 0.612372 0.205832 
v 0.530006 0.656509 -0.0924746 
v 0.70161 0.830366 0.227081 
v 0.591262 0.877804 -0.0935343 
v 0.313456 0.935355 -0.285192 
v 0.271531 0.710057 -0.270797 
v -0.0440227 0.75256 -0.261022 
v -0.0256957 0.981037 -0.274686 
v -0.00571804 0.871534 0.768939 
v 0.179631 1.09325 0.264036 
v 0.330118 0.826298 0.758535 
v 0.330118 0.826298 0.758535 
v 0.179631 1.09325 0.264036 
v 0.598422 0.810094 0.551918 
v -0.291788 0.994514 -0.0622369 
v 0.179631 1.09325 0.264036 
v -0.390077 0.975497 0.261674 
v -0.390077 0.975497 0.261674 
v -0.280808 0.928522 0.579154 
v -0.00571804 0.871534 0.768939 
v 0.598422 0.810094 0.551918 
v 0.179631 1.09325 0.264036 
v 0.696711 0.829111 0.228007 
v -0.606588 -0.884248 1.38304 
v -0.45083 -0.837603 1.40117 
v -0.45439 -0.889949 1.39007 
v -0.45083 -0.837603 1.40117 
v -0.609827 -0.621725 1.43754 
v -0.436592 -0.628214 1.44555 
v -0.606588 -0.884248 1.38304 
v 0.312352 0.933074 -0.279258 
v 0.179631 1.09325 0.264036 
v -0.0234839 0.97831 -0.268854 
v 0.696711 0.829111 0.228007 
v 0.587442 0.876085 -0.0894731 
v 0.312352 0.933074 -0.279258 
v -0.0234839 0.97831 -0.268854 
v 0.179631 1.09325 0.264036 
v -0.291788 0.994514 -0.0622369 
v -0.198991 0.454975 -1.10684 
v -0.507988 0.418374 -1.23318 
v -0.506623 0.061944 -1.2859 
v -0.197405 -0.00901571 -1.17516 
v 0.186527 0.454975 -1.10684 
v 0.494159 0.061944 -1.2859 
v 0.495523 0.418374 -1.23318 
v 0.18494 -0.00901571 -1.17516 

vn 0 0.149606 -0.992126 
vn 0 0.149606 -0.992126 
vn -0.23622 0.141732 -0.96063 
vn -0.23622 0.141732 -0.96063 
vn 0 0.149606 -0.992126 
vn 0.23622 0.141732 -0.96063 
vn 0 0.149606 -0.992126 
vn 0.23622 0.141732 -0.96063 
vn -0.377953 0.141732 -0.913386 
vn -0.23622 0.141732 -0.96063 
vn -0.23622 0.141732 -0.96063 
vn 0.377953 0.141732 -0.913386 
vn 0.23622 0.141732 -0.96063 
vn 0.23622 0.141732 -0.96063 
vn 0.448819 -0.322835 0.834646 
vn -0.496063 -0.622047 0.598425 
vn 0.511811 -0.582677 0.629921 
vn -0.543307 -0.291339 0.787402 
vn -0.496063 -0.622047 0.598425 
vn -1 -0.0393701 -0.0629921 
vn -0.897638 -0.401575 -0.165354 
vn -0.448819 -0.393701 0.80315 
vn -0.228346 -0.92126 0.307087 
vn -0.204724 -0.566929 0.795276 
vn -0.653543 -0.527559 0.543307 
vn 0.204724 0.212598 0.952756 
vn -0.204724 0.212598 0.952756 
vn 0.204724 -0.566929 0.795276 
vn -0.204724 -0.566929 0.795276 
vn 0.653543 -0.527559 0.543307 
vn 0.448819 -0.393701 0.80315 
vn 0.228346 -0.92126 0.307087 
vn 0.204724 -0.566929 0.795276 
vn -0.228346 -0.92126 0.307087 
vn 0.228346 -0.92126 0.307087 
vn -0.204724 -0.566929 0.795276 
vn 0.204724 -0.566929 0.795276 
vn -0.448819 0.0472441 0.889764 
vn -0.448819 -0.393701 0.80315 
vn -0.204724 0.212598 0.952756 
vn -0.204724 -0.566929 0.795276 
vn 0.448819 -0.393701 0.80315 
vn 0.448819 0.0472441 0.889764 
vn 0.204724 0.212598 0.952756 
vn 0.204724 -0.566929 0.795276 
vn -0.496063 -0.622047 0.598425 
vn 0.133858 -0.992126 0.0472441 
vn 0.511811 -0.582677 0.629921 
vn -0.212598 -0.976378 0.0314961 
vn -0.653543 0.275591 0.708661 
vn -0.653543 -0.527559 0.543307 
vn -0.448819 0.0472441 0.889764 
vn -0.448819 -0.393701 0.80315 
vn 0.0314961 1 -0.0393701 
vn 0.0314961 1 -0.0393701 
vn 0.0314961 1 -0.0393701 
vn 0.0314961 1 -0.0393701 
vn 0.0314961 1 -0.0393701 
vn 0.0314961 1 -0.0393701 
vn 0.0314961 1 -0.0393701 
vn 0.0314961 1 -0.0393701 
vn 0.0314961 1 -0.0393701 
vn 0.0314961 1 -0.0393701 
vn -0.582677 -0.787402 0.188976 
vn -0.480315 -0.874016 -0.0629921 
vn -0.19685 -0.968504 -0.149606 
vn -0.897638 -0.401575 -0.165354 
vn -0.212598 -0.976378 0.0314961 
vn -0.496063 -0.622047 0.598425 
vn -0.370079 -0.889764 -0.267717 
vn 0.582677 -0.787402 0.188976 
vn 0.19685 -0.968504 -0.149606 
vn 0.480315 -0.874016 -0.0629921 
vn 0.448819 0.0472441 0.889764 
vn 0.653543 -0.527559 0.543307 
vn 0.653543 0.275591 0.708661 
vn 0.448819 -0.393701 0.80315 
vn 0.228346 0.724409 0.645669 
vn 0.448819 0.0472441 0.889764 
vn 0.204724 0.212598 0.952756 
vn -0.582677 -0.787402 0.188976 
vn -0.19685 -0.968504 -0.149606 
vn -0.377953 -0.858268 0.346457 
vn 0 0 -1 
vn 0 0 -1 
vn 0 0 -1 
vn 0 0 -1 
vn 0 0 -1 
vn 0 0 -1 
vn 0 0 -1 
vn 0 0 -1 
vn 0 0 -1 
vn 0 0 -1 
vn -0.653543 -0.527559 0.543307 
vn -0.283465 -0.96063 0.0393701 
vn -0.228346 -0.92126 0.307087 
vn -0.850394 -0.503937 0.173228 
vn 0.582677 -0.787402 0.188976 
vn 0.377953 -0.858268 0.346457 
vn 0.19685 -0.968504 -0.149606 
vn -0.00787402 -1 0.0551181 
vn 0.00787402 -1 0.0551181 
vn -0.00787402 -1 0.0708661 
vn 0.015748 -1 0.0787402 
vn 0.00787402 -1 0.0551181 
vn 0.00787402 -1 -0.015748 
vn 0 -1 -0.023622 
vn -0.00787402 -1 0.0708661 
vn -0.023622 -1 0.0551181 
vn -0.015748 -1 0.0472441 
vn 0 -1 -0.023622 
vn 0.00787402 -0.992126 -0.141732 
vn 0.00787402 -0.984252 -0.15748 
vn 0.015748 -0.992126 -0.125984 
vn 0.00787402 -1 -0.015748 
vn 0.00787402 -0.976378 -0.204724 
vn 0 -0.976378 -0.228346 
vn 0.023622 -0.984252 -0.188976 
vn 0.00787402 -0.992126 -0.141732 
vn 0.015748 -0.992126 -0.125984 
vn -0.244094 -0.88189 0.409449 
vn -0.377953 -0.858268 0.346457 
vn -0.11811 -0.992126 -0.0866142 
vn -0.19685 -0.968504 -0.149606 
vn 0.244094 -0.88189 0.409449 
vn 0.11811 -0.992126 -0.0866142 
vn 0.377953 -0.858268 0.346457 
vn 0.19685 -0.968504 -0.149606 
vn 0.299213 -0.952756 -0.0314961 
vn 0.283465 -0.96063 0.0393701 
vn -0.283465 -0.96063 0.0393701 
vn -0.299213 -0.952756 -0.0314961 
vn 0.228346 -0.92126 0.307087 
vn -0.283465 -0.96063 0.0393701 
vn -0.228346 -0.92126 0.307087 
vn 0.283465 -0.96063 0.0393701 
vn 0.653543 -0.527559 0.543307 
vn 0.850394 -0.503937 0.173228 
vn 0.496063 -0.519685 0.700787 
vn 0.433071 -0.716535 0.543307 
vn 0.496063 -0.519685 0.700787 
vn 0.433071 -0.716535 0.543307 
vn 0.519685 -0.283465 0.80315 
vn 0.519685 -0.283465 0.80315 
vn -0.850394 -0.503937 0.173228 
vn -0.88189 -0.472441 0.0472441 
vn -0.283465 -0.96063 0.0393701 
vn -0.299213 -0.952756 -0.0314961 
vn 0.283465 -0.96063 0.0393701 
vn 0.88189 -0.472441 0.0472441 
vn 0.850394 -0.503937 0.173228 
vn 0.299213 -0.952756 -0.0314961 
vn 0 -0.811024 -0.582677 
vn 0 -0.811024 -0.582677 
vn 0 -0.811024 -0.582677 
vn 0 -0.811024 -0.582677 
vn -1 0 -0.0393701 
vn -1 -0.015748 -0.023622 
vn -1 -0.0314961 -0.0393701 
vn -1 0 -0.00787402 
vn -1 0 -0.0393701 
vn -1 0 -0.015748 
vn -1 0.023622 -0.0314961 
vn -1 -0.015748 -0.023622 
vn -1 0 -0.00787402 
vn -1 0 0 
vn -1 0 -0.015748 
vn -1 0 0 
vn -1 0 -0.00787402 
vn -1 -0.015748 0 
vn -1 0.00787402 0.00787402 
vn -1 0 0 
vn -1 0 -0.00787402 
vn -1 0.00787402 0.00787402 
vn -1 0 -0.00787402 
vn -1 0 0 
vn -1 0.023622 0 
vn 0.905512 0.433071 0.0393701 
vn 0.748031 0.653543 0.11811 
vn 0.874016 0.480315 -0.0314961 
vn 0.700787 0.692913 0.173228 
vn 1 -0.00787402 -0.0393701 
vn 1 0 -0.0551181 
vn 1 -0.023622 -0.0551181 
vn 1 0 -0.023622 
vn 1 0 -0.00787402 
vn 1 0.00787402 0.00787402 
vn 1 0 0 
vn 1 0.023622 0 
vn 1 0 -0.023622 
vn 1 -0.015748 0 
vn 1 0 -0.023622 
vn 1 0 -0.0551181 
vn 1 0.015748 -0.0551181 
vn 0.818898 0.566929 0.11811 
vn 0.905512 0.433071 0.0393701 
vn 0.905512 0.417323 0.0551181 
vn 0.748031 0.653543 0.11811 
vn 0.511811 0.811024 0.283465 
vn 0.748031 0.653543 0.11811 
vn 0.488189 0.826772 0.283465 
vn 0.818898 0.566929 0.11811 
vn 0.511811 0.811024 0.283465 
vn 0.700787 0.692913 0.173228 
vn 0.527559 0.795276 0.299213 
vn 0.204724 0.84252 0.496063 
vn 0.204724 0.826772 0.519685 
vn 0.527559 0.795276 0.299213 
vn 0.212598 0.818898 0.535433 
vn -0.023622 0.692913 0.716535 
vn -0.0472441 0.622047 0.779528 
vn 0.204724 0.826772 0.519685 
vn 0.204724 0.826772 0.519685 
vn 0.0393701 0.732283 0.677165 
vn 0.212598 0.818898 0.535433 
vn -0.653543 0.275591 0.708661 
vn -0.850394 0.393701 0.354331 
vn -0.653543 -0.527559 0.543307 
vn -0.850394 -0.503937 0.173228 
vn -0.503937 0.858268 0.0629921 
vn -0.377953 0.92126 0.0629921 
vn -0.511811 0.858268 0.0472441 
vn 0.503937 0.858268 0.0629921 
vn 0.511811 0.858268 0.0472441 
vn 0.377953 0.92126 0.0629921 
vn 0.653543 -0.527559 0.543307 
vn 0.850394 -0.503937 0.173228 
vn 0.850394 0.393701 0.354331 
vn 0.653543 0.275591 0.708661 
vn -0.228346 0.724409 0.645669 
vn -0.653543 0.275591 0.708661 
vn -0.448819 0.0472441 0.889764 
vn -0.204724 0.212598 0.952756 
vn 0.00787402 0.0708661 -1 
vn 0.00787402 0.0708661 -1 
vn 0.00787402 -0.0314961 -1 
vn 0.00787402 -0.0314961 -1 
vn -0.755906 0.582677 0.299213 
vn -0.874016 0.472441 0.0708661 
vn -0.897638 0.417323 0.141732 
vn 0.755906 -0.551181 0.362205 
vn 0.511811 -0.582677 0.629921 
vn 0.133858 -0.992126 0.0472441 
vn 0.19685 -0.968504 -0.133858 
vn 0.874016 0.480315 0.0708661 
vn 0.755906 0.582677 0.307087 
vn 0.897638 0.425197 0.141732 
vn 0.0944882 -0.976378 -0.212598 
vn -0.023622 -0.96063 -0.267717 
vn 0 -0.92126 -0.401575 
vn 0.133858 -0.992126 0.0472441 
vn -0.023622 -0.96063 -0.267717 
vn 0.19685 -0.968504 -0.133858 
vn -0.212598 -0.976378 0.0314961 
vn -0.023622 -0.96063 -0.267717 
vn 0.133858 -0.992126 0.0472441 
vn -0.370079 -0.889764 -0.267717 
vn -0.023622 -0.96063 -0.267717 
vn -0.212598 -0.976378 0.0314961 
vn -0.181102 -0.811024 -0.551181 
vn -0.023622 -0.96063 -0.267717 
vn -0.370079 -0.889764 -0.267717 
vn 0 -0.858268 -0.511811 
vn -0.023622 -0.96063 -0.267717 
vn -0.181102 -0.811024 -0.551181 
vn 0 0 1 
vn 0 0 1 
vn 0 0 1 
vn 0 0 1 
vn 0 0 1 
vn 0 0 1 
vn 0 0 1 
vn 0 0 1 
vn 0 0 1 
vn 0 0 1 
vn -0.15748 0.488189 0.858268 
vn -0.0472441 0.622047 0.779528 
vn -0.141732 0.480315 0.866142 
vn -0.023622 0.692913 0.716535 
vn -0.023622 0.692913 0.716535 
vn -0.220472 0.527559 0.818898 
vn 0.0393701 0.732283 0.677165 
vn -0.377953 0.92126 0.0629921 
vn -0.503937 0.858268 0.0629921 
vn -0.307087 0.944882 0.0787402 
vn 0.0944882 -0.976378 -0.212598 
vn 0.023622 -0.952756 -0.291339 
vn 0.023622 -0.952756 -0.291339 
vn 0 -0.92126 -0.401575 
vn 0.00787402 -0.133858 -0.992126 
vn 0.00787402 -0.0314961 -1 
vn 0.00787402 -0.0314961 -1 
vn 0.377953 0.92126 0.0629921 
vn 0.307087 0.944882 0.0787402 
vn 0.503937 0.858268 0.0629921 
vn -0.984252 0 -0.173228 
vn -0.984252 0 -0.173228 
vn -0.984252 0 -0.173228 
vn -0.984252 0 -0.173228 
vn 0.015748 0.992126 -0.141732 
vn 0.0314961 0.992126 -0.141732 
vn 0.00787402 1 -0.0551181 
vn 0.00787402 1 -0.0472441 
vn 0.0314961 0.992126 -0.141732 
vn 0.0472441 0.992126 -0.141732 
vn 0.015748 1 -0.0629921 
vn 0.00787402 1 -0.0551181 
vn 0.472441 -0.858268 -0.212598 
vn 0.283465 -0.937008 -0.204724 
vn 0.354331 -0.905512 -0.220472 
vn 0.354331 -0.905512 -0.220472 
vn 0.488189 -0.834646 -0.251969 
vn -0.929134 -0.0629921 0.362205 
vn -0.929134 -0.0629921 0.362205 
vn -0.992126 -0.0314961 0.133858 
vn 0 1 0.0708661 
vn -0.307087 0.944882 0.0787402 
vn -0.0314961 0.992126 0.125984 
vn -0.377953 0.92126 0.0629921 
vn 0.984252 0 -0.173228 
vn 0.984252 0 -0.173228 
vn 0.984252 0 -0.173228 
vn 0.984252 0 -0.173228 
vn 0.015748 1 -0.0629921 
vn -0.015748 1 0.0314961 
vn 0.00787402 1 -0.0551181 
vn -0.00787402 1 0.0314961 
vn 0 1 0.0708661 
vn 0.307087 0.944882 0.0787402 
vn 0.377953 0.92126 0.0629921 
vn 0.0314961 0.992126 0.125984 
vn 0.228346 0.724409 0.645669 
vn -0.228346 0.724409 0.645669 
vn 0.204724 0.212598 0.952756 
vn -0.204724 0.212598 0.952756 
vn 0.00787402 1 -0.0551181 
vn -0.00787402 1 0.0314961 
vn 0.00787402 1 -0.0472441 
vn 0.00787402 1 0.0393701 
vn -0.929134 0.275591 0.259843 
vn -0.755906 0.582677 0.299213 
vn -0.897638 0.417323 0.141732 
vn -0.80315 0.370079 0.464567 
vn -0.850394 -0.503937 0.173228 
vn -0.88189 0.417323 0.220472 
vn -0.88189 -0.472441 0.0472441 
vn -0.850394 0.393701 0.354331 
vn 0.929134 -0.0629921 0.362205 
vn 0.992126 -0.0314961 0.133858 
vn 0.929134 -0.0629921 0.362205 
vn -0.984252 0.19685 0 
vn -0.897638 0.417323 0.141732 
vn -0.874016 0.472441 0.0708661 
vn 0.755906 -0.551181 0.362205 
vn 0.968504 -0.165354 0.204724 
vn 0.511811 -0.582677 0.629921 
vn 0.92126 0.275591 0.259843 
vn 0.897638 0.425197 0.141732 
vn 0.755906 0.582677 0.307087 
vn 0.80315 0.377953 0.464567 
vn 0.850394 -0.503937 0.173228 
vn 0.88189 -0.472441 0.0472441 
vn 0.88189 0.417323 0.220472 
vn 0.850394 0.393701 0.354331 
vn 0.897638 0.425197 0.141732 
vn 0.984252 0.19685 0 
vn 0.874016 0.480315 0.0708661 
vn -0.181102 -0.811024 -0.551181 
vn -0.370079 -0.889764 -0.267717 
vn -0.897638 -0.401575 -0.165354 
vn -0.314961 -0.11811 -0.944882 
vn -0.897638 0.417323 0.141732 
vn -0.984252 0.19685 0 
vn -0.929134 0.275591 0.259843 
vn 0 -0.976378 -0.220472 
vn 0.283465 -0.937008 -0.204724 
vn 0.0551181 -0.976378 -0.212598 
vn 0.354331 -0.905512 -0.220472 
vn -0.0551181 -0.976378 -0.212598 
vn -0.283465 -0.937008 -0.204724 
vn -0.354331 -0.905512 -0.220472 
vn -0.472441 -0.858268 -0.212598 
vn -0.354331 -0.905512 -0.220472 
vn -0.488189 -0.834646 -0.251969 
vn -0.0708661 0.141732 -0.984252 
vn 0.0314961 0.141732 -0.992126 
vn 0.0314961 0.141732 -0.992126 
vn -0.0708661 0.141732 -0.984252 
vn 0.0708661 0.141732 -0.984252 
vn -0.0314961 0.141732 -0.992126 
vn -0.0314961 0.141732 -0.992126 
vn 0.0708661 0.141732 -0.984252 
vn 0.0314961 0.992126 0.125984 
vn 0 1 0.0708661 
vn -0.0314961 0.992126 0.125984 
vn 0 0.968504 0.23622 
vn 0.0314961 0.992126 0.125984 
vn 0 0.968504 0.23622 
vn -0.937008 0.188976 0.307087 
vn -0.984252 0.19685 0 
vn -0.992126 0.11811 0.0551181 
vn -0.929134 0.275591 0.259843 
vn -0.80315 0.370079 0.464567 
vn -0.937008 0.188976 0.307087 
vn -0.811024 0.244094 0.527559 
vn -0.929134 0.275591 0.259843 
vn 0.984252 0.19685 0 
vn 0.897638 0.425197 0.141732 
vn 0.92126 0.275591 0.259843 
vn 0.929134 0.188976 0.307087 
vn 0.984252 0.19685 0 
vn 0.992126 0.11811 0.0629921 
vn 0.80315 0.377953 0.464567 
vn 0.811024 0.244094 0.535433 
vn 0.929134 0.188976 0.307087 
vn 0.92126 0.275591 0.259843 
vn 0.653543 0.275591 0.708661 
vn 0.283465 0.866142 0.409449 
vn 0.228346 0.724409 0.645669 
vn 0.850394 0.393701 0.354331 
vn -0.897638 -0.440945 0.00787402 
vn -0.755906 -0.409449 -0.511811 
vn -0.897638 -0.440945 0.00787402 
vn -0.755906 -0.409449 -0.511811 
vn -0.330709 -0.433071 -0.834646 
vn -0.330709 -0.433071 -0.834646 
vn -0.755906 -0.409449 -0.511811 
vn -0.330709 -0.433071 -0.834646 
vn 0.204724 -0.503937 -0.84252 
vn -0.330709 -0.433071 -0.834646 
vn 0.204724 -0.503937 -0.84252 
vn 0.204724 -0.503937 -0.84252 
vn 0.629921 -0.574803 -0.527559 
vn 0.629921 -0.574803 -0.527559 
vn 0.787402 -0.614173 -0.0314961 
vn 0.629921 -0.574803 -0.527559 
vn 0.787402 -0.614173 -0.0314961 
vn -0.582677 0.700787 0.409449 
vn -0.417323 0.866142 0.267717 
vn -0.472441 0.858268 0.19685 
vn 0.582677 0.700787 0.409449 
vn 0.472441 0.858268 0.19685 
vn 0.417323 0.866142 0.267717 
vn -1 -0.0393701 -0.0629921 
vn -0.314961 -0.11811 -0.944882 
vn -0.897638 -0.401575 -0.165354 
vn -0.448819 0.173228 -0.874016 
vn 0.204724 0.23622 -0.952756 
vn 0.00787402 0.259843 -0.968504 
vn 0.307087 0.220472 -0.929134 
vn 0.00787402 0.259843 -0.968504 
vn -0.291339 0.299213 -0.905512 
vn -0.291339 0.299213 -0.905512 
vn 0.204724 0.23622 -0.952756 
vn -0.133858 0.141732 -0.984252 
vn -0.0314961 0.141732 -0.992126 
vn -0.0314961 0.141732 -0.992126 
vn -0.283465 0.866142 0.409449 
vn -0.299213 0.889764 0.330709 
vn -0.850394 0.393701 0.354331 
vn -0.88189 0.417323 0.220472 
vn -0.850394 0.393701 0.354331 
vn -0.653543 0.275591 0.708661 
vn -0.228346 0.724409 0.645669 
vn 0.133858 0.141732 -0.984252 
vn 0.0314961 0.141732 -0.992126 
vn 0.0314961 0.141732 -0.992126 
vn -0.582677 0.700787 0.409449 
vn -0.275591 0.88189 0.393701 
vn -0.417323 0.866142 0.267717 
vn -0.370079 0.724409 0.574803 
vn 0.637795 -0.622047 0.456693 
vn 0.787402 -0.614173 -0.0314961 
vn 0.637795 -0.622047 0.456693 
vn 0.787402 -0.614173 -0.0314961 
vn 0.275591 0.88189 0.393701 
vn 0.582677 0.700787 0.409449 
vn 0.417323 0.866142 0.267717 
vn 0.370079 0.724409 0.574803 
vn -0.291339 0.299213 -0.905512 
vn -0.779528 0.330709 -0.535433 
vn -0.291339 0.299213 -0.905512 
vn -0.779528 0.330709 -0.535433 
vn 0.850394 0.393701 0.354331 
vn 0.299213 0.889764 0.330709 
vn 0.283465 0.866142 0.409449 
vn 0.88189 0.417323 0.220472 
vn 0.228346 0.724409 0.645669 
vn -0.283465 0.866142 0.409449 
vn -0.228346 0.724409 0.645669 
vn 0.283465 0.866142 0.409449 
vn 0.80315 0.11811 -0.582677 
vn 0.204724 0.23622 -0.952756 
vn 0.307087 0.220472 -0.929134 
vn 0.80315 0.11811 -0.582677 
vn 0.80315 0.11811 -0.582677 
vn 1 0.0314961 -0.015748 
vn 1 0.0314961 -0.015748 
vn 0.637795 -0.622047 0.456693 
vn 0.23622 -0.598425 0.771654 
vn 0.637795 -0.622047 0.456693 
vn 0.23622 -0.598425 0.771654 
vn 0.023622 0.96063 0.267717 
vn 0.023622 0.96063 0.267717 
vn 0.023622 0.96063 0.267717 
vn 0.023622 0.96063 0.267717 
vn 0.023622 0.96063 0.267717 
vn 0.023622 0.96063 0.267717 
vn 0.023622 0.96063 0.267717 
vn 0.023622 0.96063 0.267717 
vn 0.023622 0.96063 0.267717 
vn 0.023622 0.96063 0.267717 
vn 0.023622 0.96063 0.267717 
vn 0.023622 0.96063 0.267717 
vn 0.023622 0.96063 0.267717 
vn 0.023622 0.96063 0.267717 
vn -0.779528 0.330709 -0.535433 
vn -0.913386 0.314961 -0.259843 
vn -0.779528 0.330709 -0.535433 
vn -0.952756 0.307087 -0.0629921 
vn -0.952756 0.299213 0.0472441 
vn -0.913386 0.314961 -0.259843 
vn -0.952756 0.307087 -0.0629921 
vn -0.283465 0.866142 0.409449 
vn 0.283465 0.866142 0.409449 
vn -0.299213 0.889764 0.330709 
vn 0.299213 0.889764 0.330709 
vn 0.370079 0.724409 0.574803 
vn 0.188976 0.88189 0.440945 
vn 0.244094 0.724409 0.645669 
vn 0.275591 0.88189 0.393701 
vn -0.370079 0.724409 0.574803 
vn -0.188976 0.88189 0.440945 
vn -0.275591 0.88189 0.393701 
vn -0.244094 0.724409 0.645669 
vn 0.448819 -0.322835 0.834646 
vn 0.511811 -0.582677 0.629921 
vn 0.968504 -0.165354 0.204724 
vn 0.992126 -0.110236 0.023622 
vn 0.377953 0.165354 -0.913386 
vn 0.543307 0.141732 -0.826772 
vn 0.968504 -0.165354 0.204724 
vn -0.275591 -0.551181 0.787402 
vn 0.23622 -0.598425 0.771654 
vn 0.23622 -0.598425 0.771654 
vn -0.275591 -0.551181 0.787402 
vn -0.708661 -0.488189 0.503937 
vn -0.708661 -0.488189 0.503937 
vn -0.275591 -0.551181 0.787402 
vn -0.708661 -0.488189 0.503937 
vn -0.897638 -0.440945 0.00787402 
vn -0.897638 -0.440945 0.00787402 
vn -0.314961 -0.11811 -0.944882 
vn 0 -0.858268 -0.511811 
vn -0.181102 -0.811024 -0.551181 
vn 0.0393701 -0.149606 -0.984252 
vn 1 0.0314961 -0.015748 
vn 0.826772 0 0.566929 
vn 0.826772 0 0.566929 
vn 1 0.0314961 -0.015748 
vn -0.259843 0.110236 0.96063 
vn -0.755906 0.212598 0.614173 
vn -0.755906 0.212598 0.614173 
vn -0.259843 0.110236 0.96063 
vn -0.755906 0.212598 0.614173 
vn -0.952756 0.307087 -0.0629921 
vn -0.952756 0.299213 0.0472441 
vn 0.19685 0.968504 0.141732 
vn 0.417323 0.866142 0.267717 
vn 0.472441 0.858268 0.19685 
vn -0.19685 0.968504 0.141732 
vn -0.472441 0.858268 0.19685 
vn -0.417323 0.866142 0.267717 
vn 0.0787402 0.968504 0.244094 
vn 0.0787402 0.968504 0.244094 
vn 0.0787402 0.968504 0.244094 
vn 0.0787402 0.968504 0.244094 
vn 0.417323 0.866142 0.267717 
vn 0.19685 0.968504 0.141732 
vn 0.275591 0.88189 0.393701 
vn -0.417323 0.866142 0.267717 
vn -0.275591 0.88189 0.393701 
vn -0.19685 0.968504 0.141732 
vn -0.606299 -0.11811 0.787402 
vn -0.606299 -0.11811 0.787402 
vn -0.929134 -0.0629921 0.362205 
vn -0.929134 -0.0629921 0.362205 
vn 0.338583 0.0314961 0.937008 
vn 0.826772 0 0.566929 
vn 0.826772 0 0.566929 
vn 0.338583 0.0314961 0.937008 
vn 0.606299 -0.11811 0.787402 
vn 0.929134 -0.0629921 0.362205 
vn 0.606299 -0.11811 0.787402 
vn 0.929134 -0.0629921 0.362205 
vn -0.330709 -0.291339 -0.897638 
vn -0.330709 -0.291339 -0.897638 
vn -0.370079 -0.0393701 -0.929134 
vn -0.370079 -0.0393701 -0.929134 
vn -0.377953 0.220472 -0.897638 
vn -0.377953 0.220472 -0.897638 
vn -0.259843 0.110236 0.96063 
vn 0.338583 0.0314961 0.937008 
vn 0.338583 0.0314961 0.937008 
vn -0.259843 0.110236 0.96063 
vn 0.275591 0.88189 0.393701 
vn 0.11811 0.968504 0.204724 
vn 0.188976 0.88189 0.440945 
vn 0.19685 0.968504 0.141732 
vn -0.275591 0.88189 0.393701 
vn -0.188976 0.88189 0.440945 
vn -0.11811 0.968504 0.204724 
vn -0.19685 0.968504 0.141732 
vn -0.488189 -0.826772 -0.283465 
vn -0.818898 -0.566929 -0.11811 
vn -0.748031 -0.653543 -0.11811 
vn -0.511811 -0.811024 -0.283465 
vn -0.700787 -0.692913 -0.173228 
vn -0.527559 -0.795276 -0.299213 
vn -0.748031 -0.653543 -0.11811 
vn -0.874016 -0.480315 0.0314961 
vn -0.905512 -0.433071 -0.0393701 
vn -0.511811 -0.811024 -0.283465 
vn -0.204724 -0.84252 -0.496063 
vn 0.11811 -0.614173 -0.779528 
vn 0.0944882 -0.551181 -0.826772 
vn -0.212598 -0.826772 -0.519685 
vn -0.212598 -0.826772 -0.519685 
vn -0.527559 -0.795276 -0.299213 
vn -0.212598 -0.811024 -0.535433 
vn -0.212598 -0.811024 -0.535433 
vn 0.0944882 -0.637795 -0.76378 
vn 0.11811 -0.614173 -0.779528 
vn 0.15748 -0.488189 -0.858268 
vn 0.0944882 -0.551181 -0.826772 
vn 0.141732 -0.480315 -0.866142 
vn 0.11811 -0.614173 -0.779528 
vn 0.220472 -0.527559 -0.818898 
vn 0.0944882 -0.637795 -0.76378 
vn -0.905512 -0.433071 -0.0393701 
vn -0.818898 -0.566929 -0.11811 
vn -0.905512 -0.417323 -0.0551181 
vn -0.748031 -0.653543 -0.11811 
vn -1 -0.0314961 0.015748 
vn -0.826772 0 -0.566929 
vn -1 -0.0314961 0.015748 
vn -0.80315 -0.11811 0.582677 
vn -0.826772 0 -0.566929 
vn -0.338583 -0.0314961 -0.937008 
vn -0.338583 -0.0314961 -0.937008 
vn -0.80315 -0.11811 0.582677 
vn -0.204724 -0.23622 0.952756 
vn -0.307087 -0.220472 0.92126 
vn -0.204724 -0.23622 0.952756 
vn -0.00787402 -0.259843 0.968504 
vn 0.291339 -0.299213 0.905512 
vn 0.291339 -0.299213 0.905512 
vn 0.779528 -0.330709 0.535433 
vn 0.779528 -0.330709 0.535433 
vn 0.913386 -0.314961 0.259843 
vn 0.952756 -0.307087 0.0629921 
vn 0.952756 -0.299213 -0.0472441 
vn 0.755906 -0.212598 -0.614173 
vn 0.952756 -0.307087 0.0629921 
vn 0.755906 -0.212598 -0.614173 
vn 0.259843 -0.110236 -0.96063 
vn 0.259843 -0.110236 -0.96063 
vn -0.338583 -0.0314961 -0.937008 
vn -0.338583 -0.0314961 -0.937008 
vn -0.0314961 -0.913386 -0.409449 
vn -0.133858 -0.984252 -0.102362 
vn -0.23622 -0.88189 -0.401575 
vn -0.23622 -0.88189 -0.401575 
vn -0.133858 -0.984252 -0.102362 
vn -0.401575 -0.874016 -0.283465 
vn 0.141732 -0.984252 0.0944882 
vn -0.133858 -0.984252 -0.102362 
vn 0.204724 -0.976378 -0.102362 
vn 0.204724 -0.976378 -0.102362 
vn 0.133858 -0.944882 -0.299213 
vn -0.0314961 -0.913386 -0.409449 
vn -0.401575 -0.874016 -0.283465 
vn -0.133858 -0.984252 -0.102362 
vn -0.456693 -0.88189 -0.0866142 
vn -0.314961 -0.11811 -0.944882 
vn 0.377953 0.165354 -0.913386 
vn 0.0393701 -0.149606 -0.984252 
vn 0.377953 0.165354 -0.913386 
vn -0.448819 0.173228 -0.874016 
vn 0.543307 0.141732 -0.826772 
vn -0.314961 -0.11811 -0.944882 
vn -0.220472 -0.944882 0.220472 
vn -0.133858 -0.984252 -0.102362 
vn -0.023622 -0.976378 0.220472 
vn -0.456693 -0.88189 -0.0866142 
vn -0.393701 -0.913386 0.110236 
vn -0.220472 -0.944882 0.220472 
vn -0.023622 -0.976378 0.220472 
vn -0.133858 -0.984252 -0.102362 
vn 0.141732 -0.984252 0.0944882 
vn -0.330709 -0.141732 0.937008 
vn -0.606299 -0.11811 0.787402 
vn -0.606299 -0.11811 0.787402 
vn -0.330709 -0.141732 0.937008 
vn 0.330709 -0.141732 0.937008 
vn 0.606299 -0.11811 0.787402 
vn 0.606299 -0.11811 0.787402 
vn 0.330709 -0.141732 0.937008 

vt 0.520903 0.388476 
vt 0.521428 0.451995 
vt 0.446484 0.390616 
vt 0.446824 0.43773 
vt 0.520903 0.388476 
vt 0.595421 0.389273 
vt 0.521428 0.451995 
vt 0.595912 0.436357 
vt 0.404251 0.417488 
vt 0.446484 0.390616 
vt 0.446824 0.43773 
vt 0.638188 0.415464 
vt 0.595912 0.436357 
vt 0.595421 0.389273 
vt 0.86977 0.095518 
vt 0.938577 0.134421 
vt 0.938995 0.100311 
vt 0.86969 0.142824 
vt 0.938577 0.134421 
vt 0.880418 0.1899 
vt 0.942987 0.16626 
vt 0.501392 0.308598 
vt 0.494853 0.298759 
vt 0.507738 0.306546 
vt 0.486221 0.30961 
vt 0.581173 0.269218 
vt 0.597659 0.268513 
vt 0.578222 0.285789 
vt 0.601707 0.286122 
vt 0.532332 0.27833 
vt 0.525901 0.292185 
vt 0.519115 0.282419 
vt 0.521667 0.297482 
vt 0.494853 0.298759 
vt 0.519115 0.282419 
vt 0.507738 0.306546 
vt 0.521667 0.297482 
vt 0.603916 0.266757 
vt 0.611009 0.282814 
vt 0.597659 0.268513 
vt 0.601707 0.286122 
vt 0.568867 0.282878 
vt 0.574876 0.2677 
vt 0.581173 0.269218 
vt 0.578222 0.285789 
vt 0.938577 0.134421 
vt 0.957529 0.106828 
vt 0.938995 0.100311 
vt 0.959756 0.132945 
vt 0.61626 0.258893 
vt 0.628545 0.271971 
vt 0.603916 0.266757 
vt 0.611009 0.282814 
vt 0.769315 0.193421 
vt 0.730396 0.246712 
vt 0.741036 0.279733 
vt 0.741198 0.213744 
vt 0.769052 0.300194 
vt 0.804007 0.193507 
vt 0.803745 0.300279 
vt 0.831862 0.279956 
vt 0.842663 0.246988 
vt 0.832024 0.213967 
vt 0.873459 0.940395 
vt 0.853006 0.993426 
vt 0.941569 0.954333 
vt 0.942987 0.16626 
vt 0.959756 0.132945 
vt 0.938577 0.134421 
vt 0.960459 0.159324 
vt 0.873459 0.940395 
vt 0.941569 0.954333 
vt 0.853006 0.993426 
vt 0.574876 0.2677 
vt 0.550021 0.274429 
vt 0.562543 0.259944 
vt 0.568867 0.282878 
vt 0.574681 0.256456 
vt 0.574876 0.2677 
vt 0.581173 0.269218 
vt 0.873459 0.940395 
vt 0.941569 0.954333 
vt 0.89014 0.891105 
vt 0.761175 0.420171 
vt 0.797579 0.379108 
vt 0.832306 0.420129 
vt 0.833158 0.377736 
vt 0.797601 0.461193 
vt 0.761877 0.462376 
vt 0.833121 0.46251 
vt 0.797579 0.379108 
vt 0.761175 0.420171 
vt 0.761842 0.378002 
vt 0.486221 0.30961 
vt 0.478008 0.2835 
vt 0.494853 0.298759 
vt 0.465088 0.296858 
vt 0.873459 0.940395 
vt 0.89014 0.891105 
vt 0.941569 0.954333 
vt 0.886008 0.41114 
vt 0.877427 0.478793 
vt 0.855292 0.411217 
vt 0.855444 0.479515 
vt 0.877427 0.478793 
vt 0.898318 0.478142 
vt 0.915378 0.411048 
vt 0.855292 0.411217 
vt 0.855209 0.342927 
vt 0.894435 0.343548 
vt 0.931879 0.344044 
vt 0.959293 0.410922 
vt 0.965443 0.343353 
vt 0.953987 0.478501 
vt 0.898318 0.478142 
vt 0.991966 0.410829 
vt 0.99304 0.34289 
vt 0.993097 0.478827 
vt 0.959293 0.410922 
vt 0.953987 0.478501 
vt 0.916947 0.82506 
vt 0.89014 0.891105 
vt 0.992957 0.929996 
vt 0.941569 0.954333 
vt 0.916947 0.82506 
vt 0.992957 0.929996 
vt 0.89014 0.891105 
vt 0.941569 0.954333 
vt 0.469843 0.188816 
vt 0.511018 0.261006 
vt 0.478008 0.2835 
vt 0.427761 0.217455 
vt 0.519115 0.282419 
vt 0.478008 0.2835 
vt 0.494853 0.298759 
vt 0.511018 0.261006 
vt 0.532332 0.27833 
vt 0.526239 0.255168 
vt 0.696206 0.063106 
vt 0.780611 0.035975 
vt 0.778495 0.031134 
vt 0.691836 0.077257 
vt 0.693243 0.053718 
vt 0.776803 0.026818 
vt 0.465088 0.296858 
vt 0.4091 0.235733 
vt 0.478008 0.2835 
vt 0.427761 0.217455 
vt 0.511018 0.261006 
vt 0.491632 0.174928 
vt 0.526239 0.255168 
vt 0.469843 0.188816 
vt 0.844004 0.543822 
vt 0.757031 0.485522 
vt 0.84388 0.473949 
vt 0.757114 0.532559 
vt 0.355903 0.171636 
vt 0.254673 0.012641 
vt 0.351848 0.017046 
vt 0.165985 0.169129 
vt 0.355903 0.171636 
vt 0.169237 0.320271 
vt 0.362213 0.330025 
vt 0.254673 0.012641 
vt 0.165985 0.169129 
vt 0.162319 0.013066 
vt 0.169237 0.320271 
vt 0.018462 0.183941 
vt 0.165985 0.169129 
vt 0.017859 0.323063 
vt 0.080291 0.022033 
vt 0.162319 0.013066 
vt 0.165985 0.169129 
vt 0.080291 0.022033 
vt 0.165985 0.169129 
vt 0.018462 0.183941 
vt 0.014968 0.042101 
vt 0.72388 0.144609 
vt 0.743193 0.129195 
vt 0.732847 0.122169 
vt 0.75272 0.101929 
vt 0.399182 0.672452 
vt 0.347865 0.831212 
vt 0.346049 0.680053 
vt 0.450833 0.822082 
vt 0.449993 0.670323 
vt 0.585023 0.677583 
vt 0.677959 0.835995 
vt 0.677831 0.696274 
vt 0.449837 0.967866 
vt 0.677702 0.975151 
vt 0.449837 0.967866 
vt 0.347865 0.831212 
vt 0.34442 0.979749 
vt 0.738635 0.155176 
vt 0.72388 0.144609 
vt 0.729637 0.162172 
vt 0.743193 0.129195 
vt 0.771445 0.112439 
vt 0.743193 0.129195 
vt 0.767997 0.13593 
vt 0.738635 0.155176 
vt 0.771445 0.112439 
vt 0.75272 0.101929 
vt 0.779012 0.092002 
vt 0.81462 0.135847 
vt 0.811107 0.1124 
vt 0.779012 0.092002 
vt 0.803483 0.091947 
vt 0.839405 0.129055 
vt 0.843841 0.154887 
vt 0.811107 0.1124 
vt 0.811107 0.1124 
vt 0.829399 0.101566 
vt 0.803483 0.091947 
vt 0.61626 0.258893 
vt 0.626527 0.237623 
vt 0.628545 0.271971 
vt 0.652964 0.251513 
vt 0.632306 0.453533 
vt 0.595912 0.436357 
vt 0.638188 0.415464 
vt 0.410807 0.455425 
vt 0.404251 0.417488 
vt 0.446824 0.43773 
vt 0.550021 0.274429 
vt 0.526239 0.255168 
vt 0.551306 0.239713 
vt 0.562543 0.259944 
vt 0.603824 0.255981 
vt 0.61626 0.258893 
vt 0.603916 0.266757 
vt 0.597659 0.268513 
vt 0.71025 0.861011 
vt 0.700143 0.771625 
vt 0.764823 0.77835 
vt 0.773779 0.846201 
vt 0.857722 0.705726 
vt 0.9032 0.791889 
vt 0.849212 0.737191 
vt 0.950937 0.067394 
vt 0.938995 0.100311 
vt 0.957529 0.106828 
vt 0.968216 0.085913 
vt 0.9032 0.791889 
vt 0.857722 0.705726 
vt 0.888235 0.71487 
vt 0.968216 0.085913 
vt 0.978814 0.110298 
vt 0.992426 0.089895 
vt 0.957529 0.106828 
vt 0.978814 0.110298 
vt 0.968216 0.085913 
vt 0.959756 0.132945 
vt 0.978814 0.110298 
vt 0.957529 0.106828 
vt 0.960459 0.159324 
vt 0.983513 0.158528 
vt 0.959756 0.132945 
vt 0.971926 0.180167 
vt 0.983513 0.158528 
vt 0.960459 0.159324 
vt 0.991509 0.190308 
vt 0.983513 0.158528 
vt 0.971926 0.180167 
vt 0.014233 0.677588 
vt 0.179778 0.673126 
vt 0.006941 0.829242 
vt 0.17801 0.988948 
vt 0.012408 0.986674 
vt 0.346049 0.680053 
vt 0.347865 0.831212 
vt 0.347865 0.831212 
vt 0.17801 0.988948 
vt 0.34442 0.979749 
vt 0.858755 0.144416 
vt 0.843841 0.154887 
vt 0.853052 0.162 
vt 0.839405 0.129055 
vt 0.839405 0.129055 
vt 0.849312 0.121922 
vt 0.829399 0.101566 
vt 0.595912 0.436357 
vt 0.632306 0.453533 
vt 0.596354 0.49998 
vt 0.691836 0.077257 
vt 0.784275 0.043005 
vt 0.780611 0.035975 
vt 0.6996 0.092149 
vt 0.9032 0.791889 
vt 0.773779 0.846201 
vt 0.764823 0.77835 
vt 0.446824 0.43773 
vt 0.447462 0.501542 
vt 0.410807 0.455425 
vt 0.663447 0.661256 
vt 0.558876 0.61329 
vt 0.631222 0.557753 
vt 0.55597 0.534715 
vt 0.362213 0.330025 
vt 0.356964 0.496741 
vt 0.205935 0.491441 
vt 0.169237 0.320271 
vt 0.356964 0.496741 
vt 0.352497 0.665405 
vt 0.245218 0.659681 
vt 0.205935 0.491441 
vt 0.703342 0.417789 
vt 0.741682 0.447138 
vt 0.687153 0.447515 
vt 0.687153 0.447515 
vt 0.67361 0.411965 
vt 0.64801 0.456709 
vt 0.632306 0.453533 
vt 0.638188 0.415464 
vt 0.521428 0.451995 
vt 0.596354 0.49998 
vt 0.55597 0.534715 
vt 0.595912 0.436357 
vt 0.485541 0.610709 
vt 0.383693 0.663338 
vt 0.412237 0.558978 
vt 0.488274 0.536095 
vt 0.245218 0.659681 
vt 0.013892 0.658002 
vt 0.205935 0.491441 
vt 0.017666 0.48936 
vt 0.521428 0.451995 
vt 0.447462 0.501542 
vt 0.446824 0.43773 
vt 0.488274 0.536095 
vt 0.574681 0.256456 
vt 0.603824 0.255981 
vt 0.581173 0.269218 
vt 0.597659 0.268513 
vt 0.205935 0.491441 
vt 0.017666 0.48936 
vt 0.169237 0.320271 
vt 0.017859 0.323063 
vt 0.805998 0.68436 
vt 0.857722 0.705726 
vt 0.849212 0.737191 
vt 0.824376 0.647942 
vt 0.652964 0.251513 
vt 0.642914 0.154069 
vt 0.683675 0.166415 
vt 0.626527 0.237623 
vt 0.395135 0.458767 
vt 0.404251 0.417488 
vt 0.410807 0.455425 
vt 0.764823 0.77835 
vt 0.849212 0.737191 
vt 0.9032 0.791889 
vt 0.950937 0.067394 
vt 0.935547 0.061301 
vt 0.938995 0.100311 
vt 0.865042 0.650298 
vt 0.888235 0.71487 
vt 0.857722 0.705726 
vt 0.824376 0.647942 
vt 0.526239 0.255168 
vt 0.491632 0.174928 
vt 0.53217 0.157264 
vt 0.551306 0.239713 
vt 0.888235 0.71487 
vt 0.969085 0.660117 
vt 0.9032 0.791889 
vt 0.971926 0.180167 
vt 0.960459 0.159324 
vt 0.942987 0.16626 
vt 0.95944 0.195337 
vt 0.849212 0.737191 
vt 0.764823 0.77835 
vt 0.805998 0.68436 
vt 0.693779 0.509153 
vt 0.741682 0.447138 
vt 0.757031 0.485522 
vt 0.687153 0.447515 
vt 0.757114 0.532559 
vt 0.741902 0.570997 
vt 0.687373 0.570814 
vt 0.703667 0.600483 
vt 0.687373 0.570814 
vt 0.673956 0.606412 
vt 0.7453 0.890193 
vt 0.784849 0.931633 
vt 0.810969 0.909516 
vt 0.784755 0.86112 
vt 0.7453 0.890193 
vt 0.810969 0.909516 
vt 0.784849 0.931633 
vt 0.784755 0.86112 
vt 0.488274 0.536095 
vt 0.521428 0.451995 
vt 0.55597 0.534715 
vt 0.558876 0.61329 
vt 0.488274 0.536095 
vt 0.485541 0.610709 
vt 0.734118 0.621422 
vt 0.764823 0.77835 
vt 0.700143 0.771625 
vt 0.805998 0.68436 
vt 0.824376 0.647942 
vt 0.734118 0.621422 
vt 0.776714 0.567744 
vt 0.805998 0.68436 
vt 0.969085 0.660117 
vt 0.888235 0.71487 
vt 0.865042 0.650298 
vt 0.843837 0.556534 
vt 0.969085 0.660117 
vt 0.991472 0.596518 
vt 0.824376 0.647942 
vt 0.776714 0.567744 
vt 0.843837 0.556534 
vt 0.865042 0.650298 
vt 0.562543 0.259944 
vt 0.568211 0.235117 
vt 0.574681 0.256456 
vt 0.551306 0.239713 
vt 0.384055 0.128426 
vt 0.372934 0.188694 
vt 0.407613 0.147261 
vt 0.394583 0.193491 
vt 0.398683 0.241348 
vt 0.378164 0.249756 
vt 0.372934 0.188694 
vt 0.719939 0.183795 
vt 0.684104 0.143357 
vt 0.698433 0.189201 
vt 0.707121 0.123865 
vt 0.707121 0.123865 
vt 0.654943 0.105191 
vt 0.677403 0.070267 
vt 0.631775 0.029352 
vt 0.677403 0.070267 
vt 0.614942 0.078603 
vt 0.873459 0.940395 
vt 0.856942 0.931942 
vt 0.853006 0.993426 
vt 0.873459 0.940395 
vt 0.853006 0.993426 
vt 0.856942 0.931942 
vt 0.880418 0.1899 
vt 0.95944 0.195337 
vt 0.942987 0.16626 
vt 0.903878 0.231673 
vt 0.80555 0.027637 
vt 0.800803 0.016774 
vt 0.797022 0.022384 
vt 0.800803 0.016774 
vt 0.819344 0.017523 
vt 0.816324 0.00715703 
vt 0.80555 0.027637 
vt 0.853006 0.993426 
vt 0.784849 0.931633 
vt 0.810969 0.909516 
vt 0.60934 0.233723 
vt 0.617134 0.150455 
vt 0.626527 0.237623 
vt 0.642914 0.154069 
vt 0.626527 0.237623 
vt 0.61626 0.258893 
vt 0.603824 0.255981 
vt 0.853006 0.993426 
vt 0.810969 0.909516 
vt 0.784849 0.931633 
vt 0.873459 0.940395 
vt 0.862359 0.894117 
vt 0.856942 0.931942 
vt 0.89014 0.891105 
vt 0.568749 0.065441 
vt 0.631775 0.029352 
vt 0.574557 0.00739598 
vt 0.614942 0.078603 
vt 0.862359 0.894117 
vt 0.873459 0.940395 
vt 0.856942 0.931942 
vt 0.89014 0.891105 
vt 0.819344 0.017523 
vt 0.839507 0.00722402 
vt 0.816324 0.00715703 
vt 0.836932 0.016737 
vt 0.551306 0.239713 
vt 0.558508 0.150801 
vt 0.568211 0.235117 
vt 0.53217 0.157264 
vt 0.574681 0.256456 
vt 0.60934 0.233723 
vt 0.603824 0.255981 
vt 0.568211 0.235117 
vt 0.790185 0.04471 
vt 0.80555 0.027637 
vt 0.797022 0.022384 
vt 0.800881 0.04448 
vt 0.790185 0.04471 
vt 0.806658 0.060756 
vt 0.797942 0.067025 
vt 0.574557 0.00739598 
vt 0.513278 0.00826102 
vt 0.568749 0.065441 
vt 0.520722 0.066119 
vt 0.992382 0.508166 
vt 0.954484 0.532516 
vt 0.994522 0.553162 
vt 0.994522 0.553162 
vt 0.954484 0.532516 
vt 0.956624 0.577512 
vt 0.956624 0.577512 
vt 0.954484 0.532516 
vt 0.916586 0.556867 
vt 0.914447 0.511871 
vt 0.952345 0.48752 
vt 0.952345 0.48752 
vt 0.954484 0.532516 
vt 0.992382 0.508166 
vt 0.836932 0.016737 
vt 0.855933 0.015824 
vt 0.839507 0.00722402 
vt 0.850675 0.026749 
vt 0.860217 0.020864 
vt 0.855933 0.015824 
vt 0.850675 0.026749 
vt 0.60934 0.233723 
vt 0.568211 0.235117 
vt 0.617134 0.150455 
vt 0.558508 0.150801 
vt 0.89014 0.891105 
vt 0.875024 0.825853 
vt 0.916947 0.82506 
vt 0.862359 0.894117 
vt 0.89014 0.891105 
vt 0.875024 0.825853 
vt 0.862359 0.894117 
vt 0.916947 0.82506 
vt 0.86977 0.095518 
vt 0.938995 0.100311 
vt 0.935547 0.061301 
vt 0.879837 0.050271 
vt 0.944683 0.021486 
vt 0.890652 0.00650102 
vt 0.935547 0.061301 
vt 0.456703 0.031824 
vt 0.520722 0.066119 
vt 0.513278 0.00826102 
vt 0.474919 0.08058 
vt 0.435685 0.108286 
vt 0.412248 0.074011 
vt 0.474919 0.08058 
vt 0.412248 0.074011 
vt 0.384055 0.128426 
vt 0.407613 0.147261 
vt 0.95944 0.195337 
vt 0.991509 0.190308 
vt 0.971926 0.180167 
vt 0.987836 0.215827 
vt 0.806658 0.060756 
vt 0.817393 0.080657 
vt 0.820838 0.070479 
vt 0.797942 0.067025 
vt 0.851622 0.059533 
vt 0.867311 0.043374 
vt 0.856488 0.04303 
vt 0.860208 0.066025 
vt 0.867311 0.043374 
vt 0.850675 0.026749 
vt 0.860217 0.020864 
vt 0.810969 0.909516 
vt 0.856942 0.931942 
vt 0.853006 0.993426 
vt 0.810969 0.909516 
vt 0.853006 0.993426 
vt 0.856942 0.931942 
vt 0.773776 0.013584 
vt 0.693243 0.053718 
vt 0.776803 0.026818 
vt 0.686831 0.025678 
vt 0.856942 0.931942 
vt 0.810969 0.909516 
vt 0.862359 0.894117 
vt 0.856942 0.931942 
vt 0.862359 0.894117 
vt 0.810969 0.909516 
vt 0.645563 0.517148 
vt 0.596354 0.49998 
vt 0.632306 0.453533 
vt 0.64801 0.456709 
vt 0.838005 0.070005 
vt 0.820838 0.070479 
vt 0.817393 0.080657 
vt 0.841174 0.080279 
vt 0.398277 0.51879 
vt 0.410807 0.455425 
vt 0.447462 0.501542 
vt 0.395135 0.458767 
vt 0.773226 0.00368202 
vt 0.675332 0.00509101 
vt 0.685418 0.015935 
vt 0.773424 0.00896198 
vt 0.686831 0.025678 
vt 0.773776 0.013584 
vt 0.851622 0.059533 
vt 0.838005 0.070005 
vt 0.841174 0.080279 
vt 0.860208 0.066025 
vt 0.862359 0.894117 
vt 0.784755 0.86112 
vt 0.875024 0.825853 
vt 0.810969 0.909516 
vt 0.862359 0.894117 
vt 0.875024 0.825853 
vt 0.784755 0.86112 
vt 0.810969 0.909516 
vt 0.814458 0.16825 
vt 0.828665 0.177582 
vt 0.82647 0.165 
vt 0.8128 0.156875 
vt 0.821871 0.151794 
vt 0.809145 0.146975 
vt 0.82647 0.165 
vt 0.831483 0.161604 
vt 0.835814 0.172472 
vt 0.8128 0.156875 
vt 0.791885 0.168187 
vt 0.779888 0.164887 
vt 0.777728 0.177392 
vt 0.793597 0.156837 
vt 0.793597 0.156837 
vt 0.809145 0.146975 
vt 0.797298 0.146937 
vt 0.797298 0.146937 
vt 0.784746 0.151582 
vt 0.779888 0.164887 
vt 0.770512 0.172316 
vt 0.777728 0.177392 
vt 0.773265 0.180832 
vt 0.779888 0.164887 
vt 0.775095 0.161429 
vt 0.784746 0.151582 
vt 0.835814 0.172472 
vt 0.828665 0.177582 
vt 0.833018 0.180973 
vt 0.82647 0.165 
vt 0.822857 0.345419 
vt 0.854385 0.292897 
vt 0.810157 0.312837 
vt 0.764102 0.328086 
vt 0.870392 0.323988 
vt 0.915451 0.297747 
vt 0.896309 0.268481 
vt 0.773357 0.36181 
vt 0.722425 0.372983 
vt 0.716714 0.338483 
vt 0.722425 0.372983 
vt 0.704651 0.339841 
vt 0.67061 0.37882 
vt 0.668504 0.343913 
vt 0.619991 0.344319 
vt 0.618469 0.379256 
vt 0.583533 0.340829 
vt 0.566563 0.374288 
vt 0.571696 0.339696 
vt 0.524141 0.330095 
vt 0.566563 0.374288 
vt 0.515451 0.363968 
vt 0.465684 0.348408 
vt 0.477837 0.315618 
vt 0.433282 0.296421 
vt 0.417797 0.327776 
vt 0.80555 0.027637 
vt 0.828643 0.043642 
vt 0.819344 0.017523 
vt 0.819344 0.017523 
vt 0.828643 0.043642 
vt 0.836932 0.016737 
vt 0.820838 0.070479 
vt 0.828643 0.043642 
vt 0.806658 0.060756 
vt 0.806658 0.060756 
vt 0.800881 0.04448 
vt 0.80555 0.027637 
vt 0.836932 0.016737 
vt 0.828643 0.043642 
vt 0.850675 0.026749 
vt 0.95944 0.195337 
vt 0.977797 0.22951 
vt 0.987836 0.215827 
vt 0.977797 0.22951 
vt 0.903878 0.231673 
vt 0.933873 0.266586 
vt 0.95944 0.195337 
vt 0.851622 0.059533 
vt 0.828643 0.043642 
vt 0.838005 0.070005 
vt 0.850675 0.026749 
vt 0.856488 0.04303 
vt 0.851622 0.059533 
vt 0.838005 0.070005 
vt 0.828643 0.043642 
vt 0.820838 0.070479 
vt 0.55597 0.534715 
vt 0.596354 0.49998 
vt 0.645563 0.517148 
vt 0.631222 0.557753 
vt 0.488274 0.536095 
vt 0.398277 0.51879 
vt 0.447462 0.501542 
vt 0.412237 0.558978 

usemtl Pet1Mtl

f 1/1/1 2/2/2 3/3/3 
f 3/3/3 2/2/2 4/4/4 
f 5/5/5 6/6/6 7/7/7 
f 6/6/6 8/8/8 7/7/7 
f 9/9/9 10/10/10 11/11/11 
f 12/12/12 13/13/13 14/14/14 
f 15/15/15 16/16/16 17/17/17 
f 16/16/16 15/15/15 18/18/18 
f 19/19/19 18/18/18 20/20/20 
f 19/19/19 20/20/20 21/21/21 
f 22/22/22 23/23/23 24/24/24 
f 23/23/23 22/22/22 25/25/25 
f 26/26/26 27/27/27 28/28/28 
f 27/27/27 29/29/29 28/28/28 
f 30/30/30 31/31/31 32/32/32 
f 33/33/33 32/32/32 31/31/31 
f 34/34/34 35/35/35 36/36/36 
f 36/36/36 35/35/35 37/37/37 
f 38/38/38 39/39/39 40/40/40 
f 40/40/40 39/39/39 41/41/41 
f 42/42/42 43/43/43 44/44/44 
f 44/44/44 45/45/45 42/42/42 
f 46/46/46 47/47/47 48/48/48 
f 47/47/47 46/46/46 49/49/49 
f 50/50/50 51/51/51 52/52/52 
f 52/52/52 51/51/51 53/53/53 
f 54/54/54 55/55/55 56/56/56 
f 54/54/54 57/57/57 55/55/55 
f 54/54/54 56/56/56 58/58/58 
f 58/58/58 59/59/59 54/54/54 
f 59/59/59 58/58/58 60/60/60 
f 60/60/60 61/61/61 59/59/59 
f 61/61/61 62/62/62 59/59/59 
f 62/62/62 63/63/63 59/59/59 
f 64/64/64 65/65/65 66/66/66 
f 67/67/67 68/68/68 69/69/69 
f 68/68/68 67/67/67 70/70/70 
f 71/71/71 72/72/72 73/73/73 
f 74/74/74 75/75/75 76/76/76 
f 75/75/75 74/74/74 77/77/77 
f 78/78/78 79/79/79 76/76/76 
f 79/79/79 78/78/78 80/80/80 
f 81/81/81 82/82/82 83/83/83 
f 84/84/84 85/85/85 86/86/86 
f 85/85/85 87/87/87 86/86/86 
f 88/88/88 84/84/84 86/86/86 
f 84/84/84 88/88/88 89/89/89 
f 88/88/88 86/86/86 90/90/90 
f 91/91/91 92/92/92 93/93/93 
f 94/94/94 95/95/95 96/96/96 
f 95/95/95 94/94/94 97/97/97 
f 98/98/98 99/99/99 100/100/100 
f 101/101/101 102/102/102 103/103/103 
f 104/104/104 103/103/103 102/102/102 
f 105/105/105 101/101/101 106/106/106 
f 107/107/107 106/106/106 101/101/101 
f 108/108/108 109/109/109 101/101/101 
f 110/110/110 101/101/101 109/109/109 
f 101/101/101 110/110/110 107/107/107 
f 111/111/111 107/107/107 110/110/110 
f 107/107/107 111/111/111 112/112/112 
f 113/113/113 112/112/112 111/111/111 
f 107/107/107 112/112/112 114/114/114 
f 115/115/115 107/107/107 114/114/114 
f 112/112/112 113/113/113 116/116/116 
f 117/117/117 116/116/116 113/113/113 
f 116/116/116 118/118/118 119/119/119 
f 120/120/120 119/119/119 118/118/118 
f 121/121/121 122/122/122 123/123/123 
f 122/122/122 124/124/124 123/123/123 
f 125/125/125 126/126/126 127/127/127 
f 127/127/127 126/126/126 128/128/128 
f 129/129/129 130/130/130 131/131/131 
f 131/131/131 132/132/132 129/129/129 
f 133/133/133 134/134/134 130/130/130 
f 134/134/134 133/133/133 135/135/135 
f 133/133/133 136/136/136 137/137/137 
f 136/136/136 138/138/138 137/137/137 
f 139/139/139 140/140/140 141/141/141 
f 140/140/140 139/139/139 142/142/142 
f 141/141/141 143/143/143 139/139/139 
f 143/143/143 141/141/141 144/144/144 
f 145/145/145 146/146/146 147/147/147 
f 147/147/147 146/146/146 148/148/148 
f 149/149/149 150/150/150 151/151/151 
f 150/150/150 149/149/149 152/152/152 
f 153/153/153 154/154/154 155/155/155 
f 154/154/154 153/153/153 156/156/156 
f 157/157/157 158/158/158 159/159/159 
f 158/158/158 157/157/157 160/160/160 
f 161/161/161 162/162/162 160/160/160 
f 161/161/161 163/163/163 162/162/162 
f 164/164/164 165/165/165 166/166/166 
f 167/167/167 168/168/168 169/169/169 
f 168/168/168 167/167/167 170/170/170 
f 171/171/171 172/172/172 173/173/173 
f 174/174/174 175/175/175 176/176/176 
f 174/174/174 176/176/176 177/177/177 
f 178/178/178 179/179/179 180/180/180 
f 181/181/181 180/180/180 179/179/179 
f 182/182/182 183/183/183 184/184/184 
f 183/183/183 182/182/182 185/185/185 
f 182/182/182 186/186/186 185/185/185 
f 187/187/187 185/185/185 186/186/186 
f 185/185/185 187/187/187 188/188/188 
f 187/187/187 189/189/189 188/188/188 
f 185/185/185 188/188/188 190/190/190 
f 190/190/190 188/188/188 191/191/191 
f 192/192/192 193/193/193 185/185/185 
f 193/193/193 192/192/192 194/194/194 
f 195/195/195 196/196/196 197/197/197 
f 196/196/196 195/195/195 198/198/198 
f 199/199/199 200/200/200 201/201/201 
f 202/202/202 201/201/201 200/200/200 
f 200/200/200 203/203/203 204/204/204 
f 203/203/203 205/205/205 204/204/204 
f 201/201/201 206/206/206 203/203/203 
f 206/206/206 207/207/207 203/203/203 
f 203/203/203 207/207/207 208/208/208 
f 207/207/207 209/209/209 208/208/208 
f 210/210/210 206/206/206 211/211/211 
f 212/212/212 206/206/206 210/210/210 
f 213/213/213 210/210/210 214/214/214 
f 213/213/213 214/214/214 215/215/215 
f 216/216/216 217/217/217 218/218/218 
f 218/218/218 217/217/217 219/219/219 
f 220/220/220 221/221/221 222/222/222 
f 223/223/223 224/224/224 225/225/225 
f 226/226/226 227/227/227 228/228/228 
f 226/226/226 228/228/228 229/229/229 
f 230/230/230 231/231/231 232/232/232 
f 230/230/230 232/232/232 233/233/233 
f 234/234/234 235/235/235 236/236/236 
f 234/234/234 236/236/236 237/237/237 
f 238/238/238 239/239/239 240/240/240 
f 241/241/241 242/242/242 243/243/243 
f 241/241/241 243/243/243 244/244/244 
f 245/245/245 246/246/246 247/247/247 
f 248/248/248 249/249/249 250/250/250 
f 251/251/251 252/252/252 253/253/253 
f 254/254/254 255/255/255 256/256/256 
f 257/257/257 258/258/258 259/259/259 
f 260/260/260 261/261/261 262/262/262 
f 263/263/263 264/264/264 265/265/265 
f 266/266/266 267/267/267 268/268/268 
f 269/269/269 268/268/268 267/267/267 
f 268/268/268 269/269/269 270/270/270 
f 267/267/267 271/271/271 272/272/272 
f 273/273/273 274/274/274 267/267/267 
f 274/274/274 273/273/273 275/275/275 
f 276/276/276 277/277/277 278/278/278 
f 277/277/277 276/276/276 279/279/279 
f 280/280/280 276/276/276 281/281/281 
f 281/281/281 282/282/282 280/280/280 
f 283/283/283 284/284/284 285/285/285 
f 286/286/286 287/287/287 288/288/288 
f 287/287/287 286/286/286 289/289/289 
f 290/290/290 291/291/291 292/292/292 
f 293/293/293 294/294/294 295/295/295 
f 296/296/296 297/297/297 298/298/298 
f 298/298/298 297/297/297 299/299/299 
f 300/300/300 301/301/301 302/302/302 
f 300/300/300 302/302/302 303/303/303 
f 304/304/304 305/305/305 306/306/306 
f 304/304/304 306/306/306 307/307/307 
f 308/308/308 309/309/309 310/310/310 
f 311/311/311 312/312/312 308/308/308 
f 313/313/313 314/314/314 315/315/315 
f 316/316/316 317/317/317 318/318/318 
f 317/317/317 316/316/316 319/319/319 
f 320/320/320 321/321/321 322/322/322 
f 322/322/322 323/323/323 320/320/320 
f 324/324/324 325/325/325 326/326/326 
f 326/326/326 325/325/325 327/327/327 
f 328/328/328 329/329/329 330/330/330 
f 329/329/329 328/328/328 331/331/331 
f 332/332/332 333/333/333 334/334/334 
f 334/334/334 333/333/333 335/335/335 
f 336/336/336 337/337/337 338/338/338 
f 338/338/338 337/337/337 339/339/339 
f 340/340/340 341/341/341 342/342/342 
f 341/341/341 340/340/340 343/343/343 
f 344/344/344 345/345/345 346/346/346 
f 345/345/345 344/344/344 347/347/347 
f 348/348/348 349/349/349 350/350/350 
f 351/351/351 352/352/352 353/353/353 
f 354/354/354 355/355/355 356/356/356 
f 357/357/357 358/358/358 359/359/359 
f 359/359/359 360/360/360 357/357/357 
f 361/361/361 362/362/362 363/363/363 
f 361/361/361 363/363/363 364/364/364 
f 365/365/365 366/366/366 367/367/367 
f 368/368/368 369/369/369 370/370/370 
f 370/370/370 371/371/371 368/368/368 
f 372/372/372 373/373/373 374/374/374 
f 375/375/375 376/376/376 377/377/377 
f 376/376/376 375/375/375 378/378/378 
f 377/377/377 379/379/379 375/375/375 
f 380/380/380 375/375/375 379/379/379 
f 375/375/375 380/380/380 381/381/381 
f 382/382/382 381/381/381 380/380/380 
f 383/383/383 382/382/382 384/384/384 
f 385/385/385 386/386/386 387/387/387 
f 385/385/385 387/387/387 388/388/388 
f 389/389/389 390/390/390 391/391/391 
f 390/390/390 389/389/389 392/392/392 
f 393/393/393 394/394/394 395/395/395 
f 396/396/396 397/397/397 395/395/395 
f 397/397/397 396/396/396 398/398/398 
f 399/399/399 400/400/400 401/401/401 
f 400/400/400 399/399/399 402/402/402 
f 403/403/403 404/404/404 405/405/405 
f 404/404/404 403/403/403 406/406/406 
f 407/407/407 408/408/408 409/409/409 
f 410/410/410 411/411/411 409/409/409 
f 411/411/411 410/410/410 412/412/412 
f 413/413/413 414/414/414 415/415/415 
f 413/413/413 415/415/415 416/416/416 
f 417/417/417 418/418/418 419/419/419 
f 418/418/418 417/417/417 420/420/420 
f 421/421/421 422/422/422 423/423/423 
f 423/423/423 422/422/422 424/424/424 
f 425/425/425 424/424/424 426/426/426 
f 427/427/427 426/426/426 424/424/424 
f 428/428/428 429/429/429 430/430/430 
f 429/429/429 428/428/428 431/431/431 
f 432/432/432 433/433/433 429/429/429 
f 433/433/433 432/432/432 434/434/434 
f 435/435/435 433/433/433 436/436/436 
f 435/435/435 437/437/437 433/433/433 
f 438/438/438 439/439/439 440/440/440 
f 441/441/441 442/442/442 443/443/443 
f 444/444/444 445/445/445 446/446/446 
f 445/445/445 444/444/444 447/447/447 
f 448/448/448 449/449/449 450/450/450 
f 451/451/451 452/452/452 453/453/453 
f 452/452/452 451/451/451 454/454/454 
f 455/455/455 456/456/456 457/457/457 
f 458/458/458 459/459/459 460/460/460 
f 459/459/459 461/461/461 460/460/460 
f 458/458/458 462/462/462 463/463/463 
f 464/464/464 458/458/458 463/463/463 
f 465/465/465 466/466/466 467/467/467 
f 468/468/468 469/469/469 470/470/470 
f 469/469/469 468/468/468 471/471/471 
f 472/472/472 473/473/473 474/474/474 
f 473/473/473 472/472/472 475/475/475 
f 476/476/476 477/477/477 478/478/478 
f 477/477/477 476/476/476 479/479/479 
f 480/480/480 481/481/481 482/482/482 
f 481/481/481 480/480/480 483/483/483 
f 484/484/484 485/485/485 486/486/486 
f 485/485/485 484/484/484 487/487/487 
f 488/488/488 489/489/489 490/490/490 
f 489/489/489 488/488/488 491/491/491 
f 492/492/492 493/493/493 494/494/494 
f 493/493/493 492/492/492 495/495/495 
f 496/496/496 497/497/497 495/495/495 
f 496/496/496 498/498/498 497/497/497 
f 499/499/499 500/500/500 501/501/501 
f 501/501/501 500/500/500 502/502/502 
f 503/503/503 504/504/504 505/505/505 
f 506/506/506 507/507/507 508/508/508 
f 509/509/509 510/510/510 511/511/511 
f 511/511/511 510/510/510 512/512/512 
f 512/512/512 510/510/510 513/513/513 
f 514/514/514 515/515/515 516/516/516 
f 517/517/517 518/518/518 519/519/519 
f 518/518/518 517/517/517 520/520/520 
f 521/521/521 522/522/522 523/523/523 
f 524/524/524 525/525/525 526/526/526 
f 525/525/525 527/527/527 526/526/526 
f 528/528/528 529/529/529 530/530/530 
f 529/529/529 528/528/528 531/531/531 
f 532/532/532 533/533/533 534/534/534 
f 533/533/533 532/532/532 535/535/535 
f 536/536/536 537/537/537 538/538/538 
f 538/538/538 539/539/539 536/536/536 
f 540/540/540 541/541/541 539/539/539 
f 539/539/539 542/542/542 540/540/540 
f 543/543/543 544/544/544 545/545/545 
f 544/544/544 543/543/543 546/546/546 
f 547/547/547 543/543/543 548/548/548 
f 543/543/543 547/547/547 549/549/549 
f 550/550/550 551/551/551 547/547/547 
f 552/552/552 547/547/547 551/551/551 
f 553/553/553 554/554/554 555/555/555 
f 554/554/554 553/553/553 556/556/556 
f 557/557/557 558/558/558 559/559/559 
f 558/558/558 557/557/557 560/560/560 
f 561/561/561 562/562/562 563/563/563 
f 562/562/562 561/561/561 564/564/564 
f 565/565/565 566/566/566 563/563/563 
f 566/566/566 565/565/565 567/567/567 
f 568/568/568 569/569/569 570/570/570 
f 571/571/571 572/572/572 573/573/573 
f 574/574/574 575/575/575 576/576/576 
f 575/575/575 574/574/574 577/577/577 
f 578/578/578 579/579/579 580/580/580 
f 581/581/581 582/582/582 583/583/583 
f 584/584/584 585/585/585 586/586/586 
f 584/584/584 586/586/586 587/587/587 
f 588/588/588 589/589/589 590/590/590 
f 588/588/588 590/590/590 591/591/591 
f 592/592/592 593/593/593 594/594/594 
f 593/593/593 592/592/592 595/595/595 
f 596/596/596 597/597/597 598/598/598 
f 596/596/596 598/598/598 599/599/599 
f 599/599/599 598/598/598 600/600/600 
f 599/599/599 600/600/600 601/601/601 
f 602/602/602 603/603/603 604/604/604 
f 602/602/602 604/604/604 605/605/605 
f 606/606/606 607/607/607 608/608/608 
f 607/607/607 606/606/606 609/609/609 
f 610/610/610 611/611/611 612/612/612 
f 610/610/610 612/612/612 613/613/613 
f 614/614/614 615/615/615 616/616/616 
f 614/614/614 616/616/616 617/617/617 
f 616/616/616 618/618/618 617/617/617 
f 617/617/617 618/618/618 619/619/619 
f 620/620/620 621/621/621 618/618/618 
f 621/621/621 620/620/620 622/622/622 
f 623/623/623 624/624/624 614/614/614 
f 625/625/625 626/626/626 624/624/624 
f 627/627/627 625/625/625 624/624/624 
f 624/624/624 623/623/623 628/628/628 
f 629/629/629 628/628/628 623/623/623 
f 628/628/628 629/629/629 630/630/630 
f 631/631/631 632/632/632 628/628/628 
f 632/632/632 633/633/633 628/628/628 
f 634/634/634 635/635/635 633/633/633 
f 635/635/635 634/634/634 636/636/636 
f 637/637/637 638/638/638 634/634/634 
f 638/638/638 637/637/637 639/639/639 
f 640/640/640 641/641/641 642/642/642 
f 641/641/641 640/640/640 643/643/643 
f 644/644/644 645/645/645 646/646/646 
f 647/647/647 644/644/644 646/646/646 
f 645/645/645 644/644/644 648/648/648 
f 645/645/645 648/648/648 649/649/649 
f 650/650/650 645/645/645 649/649/649 
f 651/651/651 644/644/644 647/647/647 
f 647/647/647 652/652/652 651/651/651 
f 652/652/652 647/647/647 653/653/653 
f 654/654/654 653/653/653 655/655/655 
f 655/655/655 656/656/656 654/654/654 
f 656/656/656 655/655/655 657/657/657 
f 658/658/658 656/656/656 657/657/657 
f 656/656/656 658/658/658 659/659/659 
f 660/660/660 659/659/659 658/658/658 
f 659/659/659 660/660/660 661/661/661 
f 662/662/662 661/661/661 660/660/660 
f 662/662/662 663/663/663 664/664/664 
f 663/663/663 665/665/665 664/664/664 
f 663/663/663 666/666/666 665/665/665 
f 666/666/666 663/663/663 667/667/667 
f 668/668/668 666/666/666 667/667/667 
f 669/669/669 666/666/666 668/668/668 
f 670/670/670 671/671/671 672/672/672 
f 673/673/673 674/674/674 675/675/675 
f 676/676/676 677/677/677 678/678/678 
f 679/679/679 677/677/677 680/680/680 
f 680/680/680 677/677/677 681/681/681 
f 682/682/682 683/683/683 684/684/684 
f 685/685/685 686/686/686 687/687/687 
f 688/688/688 689/689/689 690/690/690 
f 689/689/689 688/688/688 691/691/691 
f 692/692/692 693/693/693 694/694/694 
f 695/695/695 693/693/693 696/696/696 
f 696/696/696 693/693/693 697/697/697 
f 698/698/698 699/699/699 700/700/700 
f 701/701/701 702/702/702 703/703/703 
f 701/701/701 703/703/703 704/704/704 
f 705/705/705 706/706/706 707/707/707 
f 706/706/706 705/705/705 708/708/708 

