# This file is brought to you by Roblox Corporation
# Generated by Roblox Studio

mtllib rabbitboxer.mtl

g Pet1

v 0.421554 0.0272267 -1.40324 
v 0.374464 -1.02332 -1.30368 
v -0.0872861 -1.02332 -1.30368 
v -0.134376 0.0272267 -1.40324 
v 0.149091 -1.06666 -0.602236 
v -0.681733 -0.321812 -0.602236 
v 0.149089 0.379296 -0.602379 
v -0.708216 0.398181 -0.602341 
v -0.708208 -1.04358 -0.602236 
v 0.980199 -0.321812 -0.602236 
v 1.0064 -1.04358 -0.602236 
v 1.00639 0.397063 -0.602408 
v 0.526543 0.369487 -0.587124 
v -0.181546 0.247905 -1.00693 
v -0.239365 0.369487 -0.587124 
v 0.468725 0.247905 -1.00693 
v -0.134376 0.0272267 -1.40324 
v 0.421554 0.0272267 -1.40324 
v 0.826604 -1.03777 1.87261 
v 0.946724 -1.34819 1.7708 
v 1.06426 -1.122 1.82396 
v 0.74139 -1.27405 1.81576 
v 1.1276 -0.846469 1.78858 
v 0.534894 -1.19981 1.77165 
v 0.922226 -0.770776 1.82169 
v 0.58986 -0.951006 1.82494 
v 0.71581 -0.697973 1.78943 
v -0.770647 -1.12361 1.82396 
v -0.653109 -1.3498 1.7708 
v -0.532989 -1.03938 1.8726 
v -0.447775 -1.27566 1.81576 
v -0.833985 -0.848079 1.78858 
v -0.241278 -1.20142 1.77165 
v -0.628611 -0.772386 1.82169 
v -0.296245 -0.952616 1.82494 
v -0.422195 -0.699583 1.78943 
v 1.08758 -1.12604 1.31164 
v 0.96946 -1.30755 1.31519 
v 0.975056 -1.02923 1.11152 
v 0.86806 -1.12691 1.11152 
v 1.12566 -1.14661 1.54144 
v 1.00241 -1.37939 1.54347 
v 0.946724 -1.34819 1.7708 
v 1.06426 -1.122 1.82396 
v 1.1276 -0.846469 1.78858 
v 1.18189 -0.846036 1.54318 
v 1.1493 -0.845704 1.31462 
v 1.00532 -0.78974 1.11152 
v 1.13956 -0.701719 1.30908 
v 1.05068 -0.670421 1.50236 
v 1.03859 -0.793797 1.55478 
v -0.707301 0.471643 1.10799 
v 0.149349 0.477441 1.11113 
v 0.149236 0.356271 0.355338 
v -0.693149 0.353196 0.150412 
v 0.992394 0.360928 0.574069 
v 1.006 0.429396 1.11427 
v 1.00639 0.397063 -0.602408 
v 0.149089 0.379296 -0.602379 
v -0.708216 0.398181 -0.602341 
v -0.793969 -1.12765 1.31164 
v -0.68144 -1.03084 1.11152 
v -0.675845 -1.30916 1.31519 
v -0.574445 -1.12852 1.11152 
v -0.832048 -1.14822 1.54144 
v -0.708796 -1.381 1.54347 
v -0.653109 -1.3498 1.7708 
v -0.770647 -1.12361 1.82396 
v -0.833985 -0.848079 1.78858 
v -0.888271 -0.847647 1.54318 
v -0.85568 -0.847314 1.31462 
v -0.711705 -0.79135 1.11152 
v -0.845942 -0.703329 1.30908 
v -0.757067 -0.672031 1.50236 
v -0.744973 -0.795407 1.55478 
v 0.998896 -1.1669 0.838264 
v 1.03261 -0.343427 1.11237 
v 1.0064 -1.12907 1.11237 
v 0.991726 -0.392319 0.575985 
v 0.991726 -1.17796 0.575985 
v 0.999166 -1.14042 -0.121727 
v 0.992394 0.360928 0.574069 
v 1.006 0.429396 1.11427 
v 0.980199 -0.321812 -0.602236 
v 1.0064 -1.04358 -0.602236 
v 1.00639 0.397063 -0.602408 
v 0.255565 -1.38607 0.495517 
v 0.649962 -1.38607 0.0401003 
v 0.690412 -1.38607 0.452908 
v 0.215115 -1.38607 0.0827092 
v -0.385331 -1.38607 0.458945 
v 0.0860767 -1.38607 0.0838079 
v 0.0499364 -1.38607 0.497015 
v -0.349191 -1.38607 0.0457379 
v -0.077231 -1.38366 -1.154 
v 0.143589 -1.38366 -1.8726 
v 0.364409 -1.38366 -1.154 
v -0.741351 -0.343427 1.11237 
v -0.700379 -1.16743 0.620329 
v -0.708209 -1.12907 1.11237 
v -0.692879 -0.393444 0.149509 
v -0.692879 -1.17901 0.149517 
v -0.700979 -1.14042 -0.270102 
v -0.693149 0.353196 0.150412 
v -0.707301 0.471643 1.10799 
v -0.681733 -0.321812 -0.602236 
v -0.708208 -1.04358 -0.602236 
v -0.708216 0.398181 -0.602341 
v 1.05068 -0.670421 1.50236 
v 0.922609 -0.751969 1.55509 
v 1.03859 -0.793797 1.55478 
v 0.967635 -0.643135 1.50538 
v 0.143589 -1.38366 -1.8726 
v -0.0872861 -1.02332 -1.30368 
v 0.374464 -1.02332 -1.30368 
v -0.757067 -0.672031 1.50236 
v -0.628993 -0.75358 1.55509 
v -0.674019 -0.644745 1.50538 
v -0.744973 -0.795407 1.55478 
v 0.149091 -1.1694 0.726255 
v 0.998896 -1.1669 0.838264 
v 0.149091 -1.15631 1.11237 
v 1.0064 -1.12907 1.11237 
v -0.708209 -1.12907 1.11237 
v 0.991726 -1.17796 0.575985 
v -0.700379 -1.16743 0.620329 
v 0.149091 -1.18285 0.3568 
v 0.999166 -1.14042 -0.121727 
v -0.692879 -1.17901 0.149517 
v 0.149091 -1.14042 -0.195915 
v 1.0064 -1.04358 -0.602236 
v -0.700979 -1.14042 -0.270102 
v 0.149091 -1.06666 -0.602236 
v -0.708208 -1.04358 -0.602236 
v 0.526543 -0.394025 -0.587124 
v 0.468725 0.247905 -1.00693 
v 0.526543 0.369487 -0.587124 
v 0.494197 -0.422689 -0.838558 
v 0.421554 0.0272267 -1.40324 
v 0.374464 -1.02332 -1.30368 
v 0.451425 -1.12628 -0.871695 
v 0.364409 -1.38366 -1.154 
v 0.143589 -1.38366 -1.8726 
v -0.349191 -1.38607 0.0457379 
v 0.0491985 -1.23851 0.113155 
v 0.0860767 -1.38607 0.0838079 
v -0.317967 -1.23851 0.0810419 
v 0.0411555 -1.07271 0.119555 
v -0.311158 -1.07271 0.0887406 
v 0.649962 -1.38607 0.0401003 
v 0.215115 -1.38607 0.0827092 
v 0.252298 -1.23851 0.11167 
v 0.619108 -1.23851 0.0757275 
v 0.260407 -1.07271 0.117986 
v 0.612379 -1.07271 0.0834975 
v -0.239365 -0.394025 -0.587124 
v -0.239365 0.369487 -0.587124 
v -0.181546 0.247905 -1.00693 
v -0.207019 -0.422689 -0.838558 
v -0.134376 0.0272267 -1.40324 
v -0.0872861 -1.02332 -1.30368 
v -0.164246 -1.12628 -0.871695 
v -0.077231 -1.38366 -1.154 
v 0.143589 -1.38366 -1.8726 
v 0.619108 -1.23851 0.0757275 
v 0.653229 -1.23851 0.423947 
v 0.690412 -1.38607 0.452908 
v 0.649962 -1.38607 0.0401003 
v 0.612379 -1.07271 0.0834975 
v 0.64512 -1.07271 0.417631 
v -0.385331 -1.38607 0.458945 
v -0.317967 -1.23851 0.0810419 
v -0.349191 -1.38607 0.0457379 
v -0.348453 -1.23851 0.429598 
v -0.311158 -1.07271 0.0887406 
v -0.34041 -1.07271 0.423198 
v -0.574445 -1.12852 1.11152 
v -0.35368 -1.05843 1.11152 
v -0.299466 -1.16947 1.27459 
v -0.675845 -1.30916 1.31519 
v -0.538698 -1.31771 1.5235 
v -0.708796 -1.381 1.54347 
v -0.181601 -1.17467 1.37847 
v -0.653109 -1.3498 1.7708 
v -0.179532 -1.19473 1.58946 
v -0.447775 -1.27566 1.81576 
v -0.241278 -1.20142 1.77165 
v 0.86806 -1.12691 1.11152 
v 0.593081 -1.16786 1.27459 
v 0.647295 -1.05682 1.11152 
v 0.96946 -1.30755 1.31519 
v 0.832313 -1.3161 1.5235 
v 1.00241 -1.37939 1.54347 
v 0.475216 -1.17306 1.37847 
v 0.946724 -1.34819 1.7708 
v 0.473147 -1.19312 1.58946 
v 0.74139 -1.27405 1.81576 
v 0.534894 -1.19981 1.77165 
v -0.708209 -1.12907 1.11237 
v 0.149091 -1.15631 1.11237 
v -0.741351 -0.343427 1.11237 
v 0.149349 0.477441 1.11113 
v -0.707301 0.471643 1.10799 
v 1.03261 -0.343427 1.11237 
v 1.006 0.429396 1.11427 
v 1.0064 -1.12907 1.11237 
v 1.00366 0.777724 1.09129 
v 0.820881 0.432333 1.0897 
v 0.950575 0.4134 1.08816 
v 1.12041 0.472135 1.08721 
v 0.730246 0.788114 1.09337 
v 0.820881 0.432333 1.0897 
v 1.00366 0.777724 1.09129 
v 0.682888 0.443056 1.09026 
v 1.00366 0.777724 1.09129 
v 0.790257 0.977269 1.09481 
v 0.730246 0.788114 1.09337 
v -0.682593 0.822207 1.08992 
v -0.629513 0.438542 1.0868 
v -0.499819 0.454319 1.08833 
v -0.799344 0.516618 1.08584 
v 1.31139 0.893274 1.09048 
v 1.00366 0.777724 1.09129 
v 1.24072 0.616337 1.08801 
v 1.24072 0.616337 1.08801 
v 1.00366 0.777724 1.09129 
v 1.12041 0.472135 1.08721 
v 0.790257 0.977269 1.09481 
v 1.00366 0.777724 1.09129 
v 0.975481 1.16976 1.09547 
v 0.975481 1.16976 1.09547 
v 1.00366 0.777724 1.09129 
v 1.32181 1.34159 1.09498 
v 1.32181 1.34159 1.09498 
v 1.00366 0.777724 1.09129 
v 1.31139 0.893274 1.09048 
v -0.682593 0.822207 1.08992 
v -0.499819 0.454319 1.08833 
v -0.409183 0.832597 1.09201 
v -0.361826 0.463255 1.0889 
v -0.990324 0.937757 1.08911 
v -0.919662 0.66082 1.08664 
v -0.682593 0.822207 1.08992 
v -0.469195 1.02175 1.09344 
v -0.654419 1.21424 1.09411 
v -0.682593 0.822207 1.08992 
v -0.654419 1.21424 1.09411 
v -1.00075 1.38607 1.09362 
v -0.682593 0.822207 1.08992 
v -1.00075 1.38607 1.09362 
v -0.990324 0.937757 1.08911 
v -0.682593 0.822207 1.08992 
v -0.682593 0.822207 1.08992 
v -0.409183 0.832597 1.09201 
v -0.469195 1.02175 1.09344 
v -0.919662 0.66082 1.08664 
v -0.799344 0.516618 1.08584 
v -0.682593 0.822207 1.08992 
v -1.02946 -0.464945 0.977423 
v -0.864845 0.0645345 0.977423 
v -1.27906 -0.0247335 0.977423 
v -0.680783 0.00845924 0.977423 
v -0.680855 0.223199 0.977423 
v -1.08207 0.605232 0.977423 
v -1.32181 0.159577 0.977423 
v 1.1493 -0.845704 1.31462 
v 1.03859 -0.793797 1.55478 
v 1.18189 -0.846036 1.54318 
v 1.1276 -0.846469 1.78858 
v 0.922226 -0.770776 1.82169 
v 0.922609 -0.751969 1.55509 
v 0.71581 -0.697973 1.78943 
v 0.666136 -0.657792 1.58946 
v 0.658205 -0.665472 1.37847 
v 0.757454 -0.705769 1.28803 
v -0.85568 -0.847314 1.31462 
v -0.888271 -0.847647 1.54318 
v -0.744973 -0.795407 1.55478 
v -0.833985 -0.848079 1.78858 
v -0.628611 -0.772386 1.82169 
v -0.628993 -0.75358 1.55509 
v -0.422195 -0.699583 1.78943 
v -0.372521 -0.659402 1.58946 
v -0.36459 -0.667082 1.37847 
v -0.463839 -0.707379 1.28803 
v 0.749628 0.401316 0.853881 
v 0.824967 0.687962 0.792508 
v 0.851989 0.39687 0.853671 
v 0.682888 0.443056 1.09026 
v 0.730246 0.788114 1.09337 
v 0.950575 0.4134 1.08816 
v 1.12041 0.472135 1.08721 
v 1.00825 0.542964 0.78935 
v 1.24072 0.616337 1.08801 
v 1.13422 0.686348 0.783381 
v 1.31139 0.893274 1.09048 
v 0.891924 0.880904 0.787192 
v 0.790257 0.977269 1.09481 
v 0.975481 1.16976 1.09547 
v 1.13535 1.00972 0.832392 
v 1.32181 1.34159 1.09498 
v -0.503905 0.732445 0.791143 
v -0.428565 0.424859 0.852516 
v -0.530926 0.421153 0.852307 
v -0.361826 0.463255 1.0889 
v -0.409183 0.832597 1.09201 
v -0.629513 0.438542 1.0868 
v -0.799344 0.516618 1.08584 
v -0.687188 0.587447 0.787985 
v -0.919662 0.66082 1.08664 
v -0.813159 0.730831 0.782016 
v -0.990324 0.937757 1.08911 
v -0.570862 0.925387 0.785827 
v -0.469195 1.02175 1.09344 
v -0.654419 1.21424 1.09411 
v -0.814287 1.0542 0.831027 
v -1.00075 1.38607 1.09362 
v 0.832928 -0.611741 1.27722 
v 1.00532 -0.78974 1.11152 
v 0.740498 -0.733814 1.11152 
v 1.13956 -0.701719 1.30908 
v 0.967635 -0.643135 1.50538 
v 1.05068 -0.670421 1.50236 
v -0.539312 -0.613351 1.27722 
v -0.446882 -0.735425 1.11152 
v -0.711705 -0.79135 1.11152 
v -0.845942 -0.703329 1.30908 
v -0.674019 -0.644745 1.50538 
v -0.757067 -0.672031 1.50236 
v -1.02946 -0.464945 0.972014 
v -0.864845 0.0645345 0.972015 
v -0.680783 0.00845924 0.972015 
v -1.27906 -0.0247335 0.972014 
v -0.680855 0.223199 0.972015 
v -1.08207 0.605232 0.972014 
v -1.32181 0.159577 0.972014 
v 0.0187124 -1.23851 0.461711 
v 0.0860767 -1.38607 0.0838079 
v 0.0491985 -1.23851 0.113155 
v 0.0499364 -1.38607 0.497015 
v 0.0119032 -1.07271 0.454012 
v 0.0411555 -1.07271 0.119555 
v 0.286419 -1.23851 0.459889 
v 0.215115 -1.38607 0.0827092 
v 0.255565 -1.38607 0.495517 
v 0.252298 -1.23851 0.11167 
v 0.293147 -1.07271 0.452119 
v 0.260407 -1.07271 0.117986 
v -0.207019 -0.422689 -0.838558 
v 0.526543 -0.394025 -0.587124 
v -0.239365 -0.394025 -0.587124 
v 0.494197 -0.422689 -0.838558 
v 0.653229 -1.23851 0.423947 
v 0.286419 -1.23851 0.459889 
v 0.255565 -1.38607 0.495517 
v 0.690412 -1.38607 0.452908 
v 0.64512 -1.07271 0.417631 
v 0.293147 -1.07271 0.452119 
v -0.348453 -1.23851 0.429598 
v 0.0499364 -1.38607 0.497015 
v 0.0187124 -1.23851 0.461711 
v -0.385331 -1.38607 0.458945 
v -0.34041 -1.07271 0.423198 
v 0.0119032 -1.07271 0.454012 
v -0.241278 -1.20142 1.77165 
v -0.229552 -0.932592 1.59457 
v -0.296245 -0.952616 1.82494 
v -0.422195 -0.699583 1.78943 
v -0.179532 -1.19473 1.58946 
v -0.372521 -0.659402 1.58946 
v -0.181601 -1.17467 1.37847 
v -0.36459 -0.667082 1.37847 
v -0.226597 -0.924294 1.35151 
v -0.299466 -1.16947 1.27459 
v -0.325352 -0.956548 1.26298 
v -0.463839 -0.707379 1.28803 
v -0.329207 -0.902413 1.11152 
v -0.299466 -1.16947 1.27459 
v -0.35368 -1.05843 1.11152 
v -0.325352 -0.956548 1.26298 
v -0.463839 -0.707379 1.28803 
v -0.446882 -0.735425 1.11152 
v -0.539312 -0.613351 1.27722 
v -0.674019 -0.644745 1.50538 
v -0.628993 -0.75358 1.55509 
v 0.534894 -1.19981 1.77165 
v 0.58986 -0.951006 1.82494 
v 0.523168 -0.930982 1.59457 
v 0.71581 -0.697973 1.78943 
v 0.473147 -1.19312 1.58946 
v 0.666136 -0.657792 1.58946 
v 0.475216 -1.17306 1.37847 
v 0.658205 -0.665472 1.37847 
v 0.520212 -0.922684 1.35151 
v 0.593081 -1.16786 1.27459 
v 0.618967 -0.954938 1.26298 
v 0.757454 -0.705769 1.28803 
v 0.622823 -0.900803 1.11152 
v 0.647295 -1.05682 1.11152 
v 0.593081 -1.16786 1.27459 
v 0.618967 -0.954938 1.26298 
v 0.757454 -0.705769 1.28803 
v 0.740498 -0.733814 1.11152 
v 0.832928 -0.611741 1.27722 
v 0.967635 -0.643135 1.50538 
v 0.922609 -0.751969 1.55509 
v -0.077231 -1.38366 -1.154 
v 0.364409 -1.38366 -1.154 
v -0.164246 -1.12628 -0.871695 
v 0.451425 -1.12628 -0.871695 
v 0.494197 -0.422689 -0.838558 
v -0.207019 -0.422689 -0.838558 
v 0.451425 -1.12628 -0.871695 
v -0.164246 -1.12628 -0.871695 

vn 0 -0.0944882 -0.992126 
vn 0 -0.0944882 -0.992126 
vn 0 -0.0944882 -0.992126 
vn 0 -0.0944882 -0.992126 
vn 0 0 -1 
vn 0 0 -1 
vn 0 0 -1 
vn 0 0 -1 
vn 0 0 -1 
vn 0 0 -1 
vn 0 0 -1 
vn 0 0 -1 
vn 0 0.96063 -0.275591 
vn 0 0.92126 -0.385827 
vn 0 0.96063 -0.275591 
vn 0 0.92126 -0.385827 
vn 0 0.874016 -0.488189 
vn 0 0.874016 -0.488189 
vn -0.00787402 -0.0314961 1 
vn 0.102362 -0.275591 0.952756 
vn 0.165354 -0.0944882 0.984252 
vn -0.0708661 -0.212598 0.976378 
vn 0.212598 0.0944882 0.976378 
vn -0.251969 -0.141732 0.96063 
vn 0.0551181 0.149606 0.984252 
vn -0.181102 0.0314961 0.984252 
vn -0.102362 0.204724 0.976378 
vn -0.165354 -0.0944882 0.984252 
vn -0.102362 -0.275591 0.952756 
vn 0.00787402 -0.0314961 1 
vn 0.0708661 -0.212598 0.976378 
vn -0.212598 0.0944882 0.976378 
vn 0.251969 -0.141732 0.96063 
vn -0.0551181 0.149606 0.984252 
vn 0.181102 0.0314961 0.984252 
vn 0.102362 0.204724 0.976378 
vn 0.858268 -0.330709 -0.393701 
vn 0.779528 -0.480315 -0.409449 
vn 0.748031 -0.307087 -0.590551 
vn 0.645669 -0.464567 -0.606299 
vn 0.937008 -0.338583 0.0314961 
vn 0.874016 -0.480315 0.0314961 
vn 0.850394 -0.472441 0.244094 
vn 0.913386 -0.330709 0.23622 
vn 0.96063 -0.188976 0.220472 
vn 0.984252 -0.19685 0.0314961 
vn 0.968504 -0.0629921 -0.23622 
vn 0.818898 -0.0551181 -0.566929 
vn 0.992126 0.0551181 -0.0944882 
vn 0.905512 0.0708661 0.409449 
vn 0.905512 0.0708661 0.409449 
vn 0.015748 0.992126 -0.141732 
vn 0.0314961 0.992126 -0.141732 
vn 0.00787402 1 -0.0551181 
vn 0.00787402 1 -0.0472441 
vn 0.015748 1 -0.0629921 
vn 0.0472441 0.992126 -0.141732 
vn -0.015748 1 0.0314961 
vn -0.00787402 1 0.0314961 
vn 0.00787402 1 0.0393701 
vn -0.858268 -0.330709 -0.393701 
vn -0.748031 -0.307087 -0.590551 
vn -0.779528 -0.480315 -0.409449 
vn -0.645669 -0.464567 -0.606299 
vn -0.937008 -0.338583 0.0314961 
vn -0.874016 -0.480315 0.0314961 
vn -0.850394 -0.472441 0.244094 
vn -0.913386 -0.330709 0.23622 
vn -0.96063 -0.188976 0.220472 
vn -0.984252 -0.19685 0.0314961 
vn -0.968504 -0.0629921 -0.23622 
vn -0.818898 -0.0551181 -0.566929 
vn -0.992126 0.0551181 -0.0944882 
vn -0.905512 0.0708661 0.409449 
vn -0.905512 0.0708661 0.409449 
vn 1 -0.00787402 -0.0393701 
vn 1 0 -0.0551181 
vn 1 -0.023622 -0.0551181 
vn 1 0 -0.023622 
vn 1 0 -0.00787402 
vn 1 0.00787402 0.00787402 
vn 1 0 -0.023622 
vn 1 0.015748 -0.0551181 
vn 1 0 0 
vn 1 0.023622 0 
vn 1 -0.015748 0 
vn 0 -1 0 
vn 0 -1 0 
vn 0 -1 0 
vn 0 -1 0 
vn 0 -1 0 
vn 0 -1 0 
vn 0 -1 0 
vn 0 -1 0 
vn 0 -1 0 
vn 0 -1 0 
vn 0 -1 0 
vn -1 0 -0.0393701 
vn -1 -0.015748 -0.023622 
vn -1 -0.0314961 -0.0393701 
vn -1 0 -0.00787402 
vn -1 0 0 
vn -1 0.015748 0.00787402 
vn -1 0 -0.015748 
vn -1 0.023622 -0.0314961 
vn -1 0 0 
vn -1 0.023622 0 
vn -1 -0.015748 0 
vn 0.141732 0.370079 0.92126 
vn 0.141732 0.370079 0.92126 
vn 0.141732 0.370079 0.92126 
vn 0.141732 0.370079 0.92126 
vn 0 0.84252 -0.535433 
vn 0 0.84252 -0.535433 
vn 0 0.84252 -0.535433 
vn -0.141732 0.370079 0.92126 
vn -0.141732 0.370079 0.92126 
vn -0.141732 0.370079 0.92126 
vn -0.141732 0.370079 0.92126 
vn -0.00787402 -1 0.0551181 
vn 0.00787402 -1 0.0551181 
vn -0.00787402 -1 0.0708661 
vn 0.015748 -1 0.0787402 
vn -0.023622 -1 0.0551181 
vn 0.00787402 -1 -0.015748 
vn -0.015748 -1 0.0472441 
vn 0 -1 -0.023622 
vn 0.015748 -0.992126 -0.125984 
vn 0 -1 -0.023622 
vn 0.00787402 -0.992126 -0.141732 
vn 0.023622 -0.984252 -0.188976 
vn 0.00787402 -0.984252 -0.15748 
vn 0.00787402 -0.976378 -0.204724 
vn 0 -0.976378 -0.228346 
vn 0.992126 0 -0.133858 
vn 0.992126 0 -0.133858 
vn 0.992126 0 -0.133858 
vn 0.984252 -0.023622 -0.149606 
vn 0.984252 -0.023622 -0.149606 
vn 0.968504 -0.102362 -0.220472 
vn 0.976378 -0.0866142 -0.188976 
vn 0.96063 -0.125984 -0.244094 
vn 0.944882 -0.149606 -0.291339 
vn 0.0866142 0.212598 -0.976378 
vn 0.0866142 0.125984 -0.984252 
vn 0.0866142 0.212598 -0.976378 
vn 0.0866142 0.125984 -0.984252 
vn 0.0866142 0.0393701 -0.992126 
vn 0.0866142 0.0393701 -0.992126 
vn -0.0944882 0.212598 -0.968504 
vn -0.0944882 0.212598 -0.968504 
vn -0.0944882 0.125984 -0.984252 
vn -0.0944882 0.125984 -0.984252 
vn -0.0944882 0.0393701 -0.992126 
vn -0.0944882 0.0393701 -0.992126 
vn -0.992126 0 -0.133858 
vn -0.992126 0 -0.133858 
vn -0.992126 0 -0.133858 
vn -0.984252 -0.023622 -0.149606 
vn -0.984252 -0.023622 -0.149606 
vn -0.968504 -0.102362 -0.220472 
vn -0.976378 -0.0866142 -0.188976 
vn -0.96063 -0.125984 -0.244094 
vn -0.944882 -0.149606 -0.291339 
vn 0.984252 0.133858 -0.0944882 
vn 0.984252 0.133858 -0.0944882 
vn 0.968504 0.228346 -0.0944882 
vn 0.968504 0.228346 -0.0944882 
vn 0.992126 0.0472441 -0.0944882 
vn 0.992126 0.0472441 -0.0944882 
vn -0.968504 0.228346 -0.0866142 
vn -0.984252 0.133858 -0.0866142 
vn -0.968504 0.228346 -0.0866142 
vn -0.984252 0.133858 -0.0866142 
vn -0.992126 0.0472441 -0.0866142 
vn -0.992126 0.0472441 -0.0866142 
vn 0.23622 -0.787402 -0.574803 
vn 0.244094 -0.779528 -0.582677 
vn 0.299213 -0.889764 -0.346457 
vn 0.314961 -0.913386 -0.259843 
vn 0.338583 -0.937008 -0.0314961 
vn 0.346457 -0.937008 -0.023622 
vn 0.338583 -0.937008 -0.0944882 
vn 0.346457 -0.937008 0.0393701 
vn 0.330709 -0.944882 -0.023622 
vn 0.330709 -0.944882 0.0393701 
vn 0.330709 -0.944882 0.0472441 
vn -0.23622 -0.787402 -0.574803 
vn -0.299213 -0.889764 -0.346457 
vn -0.244094 -0.779528 -0.582677 
vn -0.314961 -0.913386 -0.259843 
vn -0.338583 -0.937008 -0.0314961 
vn -0.346457 -0.937008 -0.023622 
vn -0.338583 -0.937008 -0.0944882 
vn -0.346457 -0.937008 0.0393701 
vn -0.330709 -0.944882 -0.023622 
vn -0.330709 -0.944882 0.0393701 
vn -0.330709 -0.944882 0.0472441 
vn 0 0 1 
vn 0 0 1 
vn 0 0 1 
vn 0 0 1 
vn 0 0 1 
vn 0 0 1 
vn 0 0 1 
vn 0 0 1 
vn 0.00787402 -0.00787402 1 
vn 0.00787402 -0.00787402 1 
vn 0.00787402 -0.00787402 1 
vn 0.00787402 -0.00787402 1 
vn 0.00787402 -0.00787402 1 
vn 0.00787402 -0.00787402 1 
vn 0.00787402 -0.00787402 1 
vn 0.00787402 -0.00787402 1 
vn 0.00787402 -0.00787402 1 
vn 0.00787402 -0.00787402 1 
vn 0.00787402 -0.00787402 1 
vn -0.00787402 -0.00787402 1 
vn -0.00787402 -0.00787402 1 
vn -0.00787402 -0.00787402 1 
vn -0.00787402 -0.00787402 1 
vn 0.00787402 -0.00787402 1 
vn 0.00787402 -0.00787402 1 
vn 0.00787402 -0.00787402 1 
vn 0.00787402 -0.00787402 1 
vn 0.00787402 -0.00787402 1 
vn 0.00787402 -0.00787402 1 
vn 0.00787402 -0.00787402 1 
vn 0.00787402 -0.00787402 1 
vn 0.00787402 -0.00787402 1 
vn 0.00787402 -0.00787402 1 
vn 0.00787402 -0.00787402 1 
vn 0.00787402 -0.00787402 1 
vn 0.00787402 -0.00787402 1 
vn 0.00787402 -0.00787402 1 
vn 0.00787402 -0.00787402 1 
vn -0.00787402 -0.00787402 1 
vn -0.00787402 -0.00787402 1 
vn -0.00787402 -0.00787402 1 
vn -0.00787402 -0.00787402 1 
vn -0.00787402 -0.00787402 1 
vn -0.00787402 -0.00787402 1 
vn -0.00787402 -0.00787402 1 
vn -0.00787402 -0.00787402 1 
vn -0.00787402 -0.00787402 1 
vn -0.00787402 -0.00787402 1 
vn -0.00787402 -0.00787402 1 
vn -0.00787402 -0.00787402 1 
vn -0.00787402 -0.00787402 1 
vn -0.00787402 -0.00787402 1 
vn -0.00787402 -0.00787402 1 
vn -0.00787402 -0.00787402 1 
vn -0.00787402 -0.00787402 1 
vn -0.00787402 -0.00787402 1 
vn -0.00787402 -0.00787402 1 
vn -0.00787402 -0.00787402 1 
vn -0.00787402 -0.00787402 1 
vn -0.00787402 -0.00787402 1 
vn 0 0 1 
vn 0 0 1 
vn 0 0 1 
vn 0 0 1 
vn 0 0 1 
vn 0 0 1 
vn 0 0 1 
vn 0.338583 0.937008 -0.0472441 
vn 0.346457 0.937008 0.0314961 
vn 0.346457 0.937008 0.015748 
vn 0.346457 0.937008 0.0708661 
vn 0.346457 0.937008 0.0787402 
vn 0.338583 0.937008 0.015748 
vn 0.338583 0.937008 0.0787402 
vn 0.338583 0.937008 0.015748 
vn 0.338583 0.937008 -0.0472441 
vn 0.338583 0.937008 -0.0472441 
vn -0.338583 0.937008 -0.0472441 
vn -0.346457 0.937008 0.015748 
vn -0.346457 0.937008 0.0314961 
vn -0.346457 0.937008 0.0708661 
vn -0.346457 0.937008 0.0787402 
vn -0.338583 0.937008 0.015748 
vn -0.338583 0.937008 0.0787402 
vn -0.338583 0.937008 0.015748 
vn -0.338583 0.937008 -0.0472441 
vn -0.338583 0.937008 -0.0472441 
vn -0.598425 -0.220472 -0.771654 
vn -0.590551 -0.102362 -0.80315 
vn 0.354331 -0.551181 -0.755906 
vn -0.937008 -0.0944882 -0.330709 
vn -0.937008 -0.015748 -0.354331 
vn 0.677165 -0.661417 -0.322835 
vn 0.748031 -0.559055 -0.354331 
vn 0.417323 -0.425197 -0.80315 
vn 0.88189 -0.133858 -0.448819 
vn 0.519685 -0.0314961 -0.858268 
vn 0.834646 0.204724 -0.511811 
vn -0.448819 0.251969 -0.858268 
vn -0.811024 0.354331 -0.464567 
vn -0.551181 0.622047 -0.559055 
vn 0.173228 0.503937 -0.850394 
vn 0.204724 0.582677 -0.787402 
vn 0.590551 -0.102362 -0.80315 
vn 0.598425 -0.220472 -0.771654 
vn -0.354331 -0.551181 -0.755906 
vn 0.937008 -0.0944882 -0.330709 
vn 0.937008 -0.015748 -0.354331 
vn -0.677165 -0.661417 -0.322835 
vn -0.748031 -0.559055 -0.354331 
vn -0.417323 -0.425197 -0.80315 
vn -0.88189 -0.133858 -0.448819 
vn -0.519685 -0.0314961 -0.858268 
vn -0.834646 0.204724 -0.511811 
vn 0.448819 0.251969 -0.858268 
vn 0.811024 0.354331 -0.464567 
vn 0.551181 0.622047 -0.559055 
vn -0.173228 0.503937 -0.850394 
vn -0.204724 0.582677 -0.787402 
vn 0.322835 0.84252 -0.433071 
vn 0.283465 0.669291 -0.685039 
vn 0.251969 0.669291 -0.700787 
vn 0.346457 0.897638 -0.259843 
vn 0.307087 0.929134 0.19685 
vn 0.307087 0.929134 0.19685 
vn -0.322835 0.84252 -0.433071 
vn -0.251969 0.669291 -0.700787 
vn -0.283465 0.669291 -0.685039 
vn -0.346457 0.897638 -0.259843 
vn -0.307087 0.929134 0.19685 
vn -0.307087 0.929134 0.19685 
vn 0 0 -1 
vn 0 0 -1 
vn 0 0 -1 
vn 0 0 -1 
vn 0 0 -1 
vn 0 0 -1 
vn 0 0 -1 
vn 0.984252 0.133858 0.0866142 
vn 0.968504 0.228346 0.0866142 
vn 0.984252 0.133858 0.0866142 
vn 0.968504 0.228346 0.0866142 
vn 0.992126 0.0472441 0.0866142 
vn 0.992126 0.0472441 0.0866142 
vn -0.984252 0.133858 0.0944882 
vn -0.968504 0.228346 0.0944882 
vn -0.968504 0.228346 0.0944882 
vn -0.984252 0.133858 0.0944882 
vn -0.992126 0.0472441 0.0944882 
vn -0.992126 0.0472441 0.0944882 
vn 0 -0.992126 0.110236 
vn 0 -0.992126 0.110236 
vn 0 -0.992126 0.110236 
vn 0 -0.992126 0.110236 
vn 0.0944882 0.125984 0.984252 
vn 0.0944882 0.125984 0.984252 
vn 0.0944882 0.212598 0.968504 
vn 0.0944882 0.212598 0.968504 
vn 0.0944882 0.0393701 0.992126 
vn 0.0944882 0.0393701 0.992126 
vn -0.0866142 0.125984 0.984252 
vn -0.0866142 0.212598 0.976378 
vn -0.0866142 0.125984 0.984252 
vn -0.0866142 0.212598 0.976378 
vn -0.0866142 0.0393701 0.992126 
vn -0.0866142 0.0393701 0.992126 
vn 0.937008 0.15748 0.299213 
vn 0.929134 0.322835 0.15748 
vn 0.905512 0.307087 0.299213 
vn 0.84252 0.456693 0.291339 
vn 0.968504 0.173228 0.15748 
vn 0.874016 0.464567 0.15748 
vn 0.905512 0.11811 -0.409449 
vn 0.787402 0.464567 -0.401575 
vn 0.858268 0.299213 -0.409449 
vn 0.661417 0.0393701 -0.755906 
vn 0.606299 0.204724 -0.76378 
vn 0.543307 0.370079 -0.755906 
vn 0.96063 0.251969 -0.11811 
vn 0.976378 -0.023622 -0.212598 
vn 0.905512 -0.141732 -0.393701 
vn 0.952756 0.299213 0 
vn 0.826772 0.551181 0.102362 
vn 0.826772 0.559055 -0.0551181 
vn 0.771654 0.582677 0.23622 
vn 0.677165 0.527559 0.503937 
vn 0.677165 0.527559 0.503937 
vn -0.937008 0.15748 0.299213 
vn -0.905512 0.307087 0.299213 
vn -0.929134 0.322835 0.15748 
vn -0.84252 0.456693 0.291339 
vn -0.968504 0.173228 0.15748 
vn -0.874016 0.464567 0.15748 
vn -0.905512 0.11811 -0.409449 
vn -0.787402 0.464567 -0.401575 
vn -0.858268 0.299213 -0.409449 
vn -0.661417 0.0393701 -0.755906 
vn -0.606299 0.204724 -0.76378 
vn -0.543307 0.370079 -0.755906 
vn -0.96063 0.251969 -0.11811 
vn -0.905512 -0.141732 -0.393701 
vn -0.976378 -0.023622 -0.212598 
vn -0.952756 0.299213 0 
vn -0.826772 0.551181 0.102362 
vn -0.826772 0.559055 -0.0551181 
vn -0.771654 0.582677 0.23622 
vn -0.677165 0.527559 0.503937 
vn -0.677165 0.527559 0.503937 
vn 0 -0.740157 0.677165 
vn 0 -0.740157 0.677165 
vn 0 -0.740157 0.677165 
vn 0 -0.740157 0.677165 
vn 0 -0.0472441 1 
vn 0 -0.0472441 1 
vn 0 -0.0472441 1 
vn 0 -0.0472441 1 

vt 0.848972 0.582642 
vt 0.674245 0.589116 
vt 0.676307 0.494122 
vt 0.843574 0.499301 
vt 0.707272 0.182523 
vt 0.851696 0.019612 
vt 0.989469 0.182357 
vt 0.992848 0.014168 
vt 0.709917 0.015226 
vt 0.851785 0.345268 
vt 0.710056 0.349963 
vt 0.992703 0.350493 
vt 0.980614 0.628011 
vt 0.910635 0.480644 
vt 0.98258 0.453614 
vt 0.912702 0.600611 
vt 0.843574 0.499301 
vt 0.848972 0.582642 
vt 0.511222 0.115229 
vt 0.564366 0.0891077 
vt 0.548151 0.129849 
vt 0.5253 0.0753745 
vt 0.530696 0.174738 
vt 0.486175 0.0618855 
vt 0.495642 0.159876 
vt 0.473129 0.10376 
vt 0.45876 0.149859 
vt 0.548151 0.129849 
vt 0.564366 0.0891077 
vt 0.511222 0.115229 
vt 0.5253 0.0753745 
vt 0.530696 0.174738 
vt 0.486175 0.0618855 
vt 0.495642 0.159876 
vt 0.473129 0.10376 
vt 0.45876 0.149859 
vt 0.626324 0.160339 
vt 0.641303 0.126516 
vt 0.661351 0.184066 
vt 0.675881 0.163886 
vt 0.591335 0.144919 
vt 0.604936 0.103037 
vt 0.564366 0.0891077 
vt 0.548151 0.129849 
vt 0.530696 0.174738 
vt 0.571032 0.192504 
vt 0.608565 0.204963 
vt 0.652149 0.225176 
vt 0.612486 0.22675 
vt 0.585747 0.247236 
vt 0.567515 0.240948 
vt 0.362213 0.330025 
vt 0.356964 0.496741 
vt 0.205935 0.491441 
vt 0.169237 0.320271 
vt 0.245218 0.659681 
vt 0.352497 0.665405 
vt 0.013892 0.658002 
vt 0.017666 0.48936 
vt 0.017859 0.323063 
vt 0.626324 0.160339 
vt 0.661351 0.184066 
vt 0.641303 0.126516 
vt 0.675881 0.163886 
vt 0.591335 0.144919 
vt 0.604936 0.103037 
vt 0.564366 0.0891077 
vt 0.548151 0.129849 
vt 0.530696 0.174738 
vt 0.571032 0.192504 
vt 0.608565 0.204963 
vt 0.652149 0.225176 
vt 0.612486 0.22675 
vt 0.585747 0.247236 
vt 0.567515 0.240948 
vt 0.399182 0.672452 
vt 0.347865 0.831212 
vt 0.346049 0.680053 
vt 0.450833 0.822082 
vt 0.449993 0.670323 
vt 0.585023 0.677583 
vt 0.449837 0.967866 
vt 0.34442 0.979749 
vt 0.677959 0.835995 
vt 0.677831 0.696274 
vt 0.677702 0.975151 
vt 0.901369 0.916183 
vt 0.813021 0.84004 
vt 0.893507 0.833102 
vt 0.821116 0.925618 
vt 0.893507 0.833102 
vt 0.821116 0.925618 
vt 0.901369 0.916183 
vt 0.813044 0.840236 
vt 0.576909 0.3642 
vt 0.689707 0.37706 
vt 0.589152 0.429761 
vt 0.355903 0.171636 
vt 0.254673 0.012641 
vt 0.351848 0.017046 
vt 0.165985 0.169129 
vt 0.162319 0.013066 
vt 0.080291 0.022033 
vt 0.169237 0.320271 
vt 0.362213 0.330025 
vt 0.018462 0.183941 
vt 0.014968 0.042101 
vt 0.017859 0.323063 
vt 0.585747 0.247236 
vt 0.573098 0.270879 
vt 0.567515 0.240948 
vt 0.589173 0.259193 
vt 0.555432 0.540197 
vt 0.676307 0.494122 
vt 0.674245 0.589116 
vt 0.585747 0.247236 
vt 0.573098 0.270879 
vt 0.589173 0.259193 
vt 0.567515 0.240948 
vt 0.626749 0.0476083 
vt 0.621772 0.0868503 
vt 0.608932 0.0476533 
vt 0.609021 0.0872687 
vt 0.608885 0.00804228 
vt 0.63389 0.0864725 
vt 0.631637 0.00840247 
vt 0.643785 0.047555 
vt 0.66618 0.0866805 
vt 0.653356 0.00868988 
vt 0.669258 0.0474823 
vt 0.688865 0.0868699 
vt 0.672825 0.0082894 
vt 0.688209 0.0474283 
vt 0.688832 0.0080204 
vt 0.838968 0.721547 
vt 0.912702 0.600611 
vt 0.980614 0.628011 
vt 0.805822 0.682692 
vt 0.848972 0.582642 
vt 0.674245 0.589116 
vt 0.673612 0.676156 
vt 0.623549 0.642726 
vt 0.555432 0.540197 
vt 0.904609 0.757308 
vt 0.962256 0.697477 
vt 0.937923 0.679496 
vt 0.933036 0.765791 
vt 0.991562 0.710431 
vt 0.964389 0.773823 
vt 0.904609 0.757308 
vt 0.937923 0.679496 
vt 0.962256 0.697477 
vt 0.933036 0.765791 
vt 0.991562 0.710431 
vt 0.964389 0.773823 
vt 0.839062 0.360055 
vt 0.98258 0.453614 
vt 0.910635 0.480644 
vt 0.805268 0.398998 
vt 0.843574 0.499301 
vt 0.676307 0.494122 
vt 0.674898 0.406986 
vt 0.625969 0.440014 
vt 0.555432 0.540197 
vt 0.933036 0.765791 
vt 0.923212 0.834514 
vt 0.893507 0.833102 
vt 0.904609 0.757308 
vt 0.964389 0.773823 
vt 0.955391 0.834961 
vt 0.893507 0.833102 
vt 0.933036 0.765791 
vt 0.904609 0.757308 
vt 0.923212 0.834514 
vt 0.964389 0.773823 
vt 0.955391 0.834961 
vt 0.495161 0.316427 
vt 0.496268 0.281262 
vt 0.471557 0.278455 
vt 0.463467 0.339253 
vt 0.432421 0.319095 
vt 0.42852 0.346572 
vt 0.456296 0.26138 
vt 0.394283 0.335918 
vt 0.424216 0.261108 
vt 0.388496 0.302535 
vt 0.396247 0.269407 
vt 0.495161 0.316427 
vt 0.471557 0.278455 
vt 0.496268 0.281262 
vt 0.463467 0.339253 
vt 0.432421 0.319095 
vt 0.42852 0.346572 
vt 0.456296 0.26138 
vt 0.394283 0.335918 
vt 0.424216 0.261108 
vt 0.388496 0.302535 
vt 0.396247 0.269407 
vt 0.014233 0.677588 
vt 0.179778 0.673126 
vt 0.006941 0.829242 
vt 0.17801 0.988948 
vt 0.012408 0.986674 
vt 0.347865 0.831212 
vt 0.34442 0.979749 
vt 0.346049 0.680053 
vt 0.747967 0.89988 
vt 0.747957 0.851862 
vt 0.77348 0.852054 
vt 0.789823 0.876898 
vt 0.707687 0.878166 
vt 0.747957 0.851862 
vt 0.747967 0.89988 
vt 0.722435 0.851671 
vt 0.747967 0.89988 
vt 0.700855 0.903437 
vt 0.707687 0.878166 
vt 0.747967 0.89988 
vt 0.77348 0.852054 
vt 0.747957 0.851862 
vt 0.789823 0.876898 
vt 0.782885 0.937946 
vt 0.747967 0.89988 
vt 0.795368 0.902386 
vt 0.795368 0.902386 
vt 0.747967 0.89988 
vt 0.789823 0.876898 
vt 0.700855 0.903437 
vt 0.747967 0.89988 
vt 0.711806 0.939517 
vt 0.711806 0.939517 
vt 0.747967 0.89988 
vt 0.747684 0.986833 
vt 0.747684 0.986833 
vt 0.747967 0.89988 
vt 0.782885 0.937946 
vt 0.747967 0.89988 
vt 0.747957 0.851862 
vt 0.707687 0.878166 
vt 0.722435 0.851671 
vt 0.782885 0.937946 
vt 0.795368 0.902386 
vt 0.747967 0.89988 
vt 0.700855 0.903437 
vt 0.711806 0.939517 
vt 0.747967 0.89988 
vt 0.711806 0.939517 
vt 0.747684 0.986833 
vt 0.747967 0.89988 
vt 0.747684 0.986833 
vt 0.782885 0.937946 
vt 0.747967 0.89988 
vt 0.747967 0.89988 
vt 0.707687 0.878166 
vt 0.700855 0.903437 
vt 0.795368 0.902386 
vt 0.789823 0.876898 
vt 0.747967 0.89988 
vt 0.405418 0.519168 
vt 0.426644 0.58744 
vt 0.373234 0.57593 
vt 0.450377 0.569092 
vt 0.450368 0.614557 
vt 0.398634 0.657158 
vt 0.367721 0.599695 
vt 0.507803 0.252652 
vt 0.500847 0.207568 
vt 0.524777 0.217503 
vt 0.530696 0.174738 
vt 0.495642 0.159876 
vt 0.480191 0.200861 
vt 0.45876 0.149859 
vt 0.438362 0.179417 
vt 0.425564 0.212756 
vt 0.437313 0.233356 
vt 0.507803 0.252652 
vt 0.524777 0.217503 
vt 0.500847 0.207568 
vt 0.530696 0.174738 
vt 0.495642 0.159876 
vt 0.480191 0.200861 
vt 0.45876 0.149859 
vt 0.438362 0.179417 
vt 0.425564 0.212756 
vt 0.437313 0.233356 
vt 0.748727 0.831131 
vt 0.740929 0.802227 
vt 0.767355 0.830443 
vt 0.710903 0.830726 
vt 0.698524 0.802917 
vt 0.805307 0.830877 
vt 0.818361 0.804031 
vt 0.775557 0.802648 
vt 0.820822 0.77697 
vt 0.78056 0.778822 
vt 0.806488 0.739361 
vt 0.736249 0.778115 
vt 0.695866 0.775777 
vt 0.709661 0.738132 
vt 0.757938 0.747973 
vt 0.757882 0.698231 
vt 0.740929 0.802227 
vt 0.748727 0.831131 
vt 0.767355 0.830443 
vt 0.710903 0.830726 
vt 0.698524 0.802917 
vt 0.805307 0.830877 
vt 0.818361 0.804031 
vt 0.775557 0.802648 
vt 0.820822 0.77697 
vt 0.78056 0.778822 
vt 0.806488 0.739361 
vt 0.736249 0.778115 
vt 0.695866 0.775777 
vt 0.709661 0.738132 
vt 0.757938 0.747973 
vt 0.757882 0.698231 
vt 0.630295 0.271038 
vt 0.652149 0.225176 
vt 0.663014 0.277434 
vt 0.612486 0.22675 
vt 0.589173 0.259193 
vt 0.585747 0.247236 
vt 0.630295 0.271038 
vt 0.663014 0.277434 
vt 0.652149 0.225176 
vt 0.612486 0.22675 
vt 0.589173 0.259193 
vt 0.585747 0.247236 
vt 0.52433 0.519168 
vt 0.503103 0.58744 
vt 0.47937 0.569092 
vt 0.556512 0.57593 
vt 0.479379 0.614557 
vt 0.531113 0.657158 
vt 0.562025 0.599695 
vt 0.930436 0.908734 
vt 0.928145 0.990732 
vt 0.953234 0.974424 
vt 0.901369 0.916183 
vt 0.962322 0.902212 
vt 0.983516 0.963033 
vt 0.930436 0.908734 
vt 0.928145 0.990732 
vt 0.901369 0.916183 
vt 0.953234 0.974424 
vt 0.962322 0.902212 
vt 0.983516 0.963033 
vt 0.412038 0.37505 
vt 0.394807 0.490961 
vt 0.373575 0.377263 
vt 0.431477 0.479144 
vt 0.923212 0.834514 
vt 0.930436 0.908734 
vt 0.901369 0.916183 
vt 0.893507 0.833102 
vt 0.955391 0.834961 
vt 0.962322 0.902212 
vt 0.923212 0.834514 
vt 0.901369 0.916183 
vt 0.930436 0.908734 
vt 0.893507 0.833102 
vt 0.955391 0.834961 
vt 0.962322 0.902212 
vt 0.486175 0.0618855 
vt 0.437738 0.0909608 
vt 0.473129 0.10376 
vt 0.45876 0.149859 
vt 0.453763 0.0490565 
vt 0.422606 0.140656 
vt 0.417412 0.0399744 
vt 0.388135 0.127581 
vt 0.399934 0.0794073 
vt 0.389839 0.0365727 
vt 0.378455 0.0730444 
vt 0.365102 0.121292 
vt 0.680547 0.307251 
vt 0.677416 0.360751 
vt 0.69431 0.330521 
vt 0.662366 0.327739 
vt 0.632511 0.290029 
vt 0.663014 0.277434 
vt 0.630295 0.271038 
vt 0.589173 0.259193 
vt 0.573098 0.270879 
vt 0.486175 0.0618855 
vt 0.473129 0.10376 
vt 0.437738 0.0909608 
vt 0.45876 0.149859 
vt 0.453763 0.0490565 
vt 0.422606 0.140656 
vt 0.417412 0.0399744 
vt 0.388135 0.127581 
vt 0.399934 0.0794073 
vt 0.389839 0.0365727 
vt 0.378455 0.0730444 
vt 0.365102 0.121292 
vt 0.680547 0.307251 
vt 0.69431 0.330521 
vt 0.677416 0.360751 
vt 0.662366 0.327739 
vt 0.632511 0.290029 
vt 0.663014 0.277434 
vt 0.630295 0.271038 
vt 0.589173 0.259193 
vt 0.573098 0.270879 
vt 0.576909 0.3642 
vt 0.589152 0.429761 
vt 0.517787 0.361873 
vt 0.534854 0.453269 
vt 0.431477 0.479144 
vt 0.412038 0.37505 
vt 0.534854 0.453269 
vt 0.517787 0.361873 

usemtl Pet1Mtl

f 1/1/1 2/2/2 3/3/3 
f 3/3/3 4/4/4 1/1/1 
f 5/5/5 6/6/6 7/7/7 
f 6/6/6 8/8/8 7/7/7 
f 6/6/6 5/5/5 9/9/9 
f 10/10/10 5/5/5 7/7/7 
f 5/5/5 10/10/10 11/11/11 
f 10/10/10 7/7/7 12/12/12 
f 13/13/13 14/14/14 15/15/15 
f 14/14/14 13/13/13 16/16/16 
f 16/16/16 17/17/17 14/14/14 
f 17/17/17 16/16/16 18/18/18 
f 19/19/19 20/20/20 21/21/21 
f 20/20/20 19/19/19 22/22/22 
f 23/23/23 19/19/19 21/21/21 
f 19/19/19 24/24/24 22/22/22 
f 19/19/19 23/23/23 25/25/25 
f 24/24/24 19/19/19 26/26/26 
f 27/27/27 19/19/19 25/25/25 
f 19/19/19 27/27/27 26/26/26 
f 28/28/28 29/29/29 30/30/30 
f 29/29/29 31/31/31 30/30/30 
f 30/30/30 32/32/32 28/28/28 
f 33/33/33 30/30/30 31/31/31 
f 32/32/32 30/30/30 34/34/34 
f 30/30/30 33/33/33 35/35/35 
f 30/30/30 36/36/36 34/34/34 
f 36/36/36 30/30/30 35/35/35 
f 37/37/37 38/38/38 39/39/39 
f 39/39/39 38/38/38 40/40/40 
f 41/41/41 38/38/38 37/37/37 
f 42/42/42 38/38/38 41/41/41 
f 43/43/43 42/42/42 41/41/41 
f 44/44/44 43/43/43 41/41/41 
f 41/41/41 45/45/45 44/44/44 
f 45/45/45 41/41/41 46/46/46 
f 37/37/37 46/46/46 41/41/41 
f 46/46/46 37/37/37 47/47/47 
f 47/47/47 37/37/37 39/39/39 
f 47/47/47 39/39/39 48/48/48 
f 49/49/49 47/47/47 48/48/48 
f 50/50/50 47/47/47 49/49/49 
f 47/47/47 50/50/50 51/51/51 
f 52/52/52 53/53/53 54/54/54 
f 52/52/52 54/54/54 55/55/55 
f 53/53/53 56/56/56 54/54/54 
f 53/53/53 57/57/57 56/56/56 
f 56/56/56 58/58/58 54/54/54 
f 54/54/54 58/58/58 59/59/59 
f 54/54/54 59/59/59 55/55/55 
f 55/55/55 59/59/59 60/60/60 
f 61/61/61 62/62/62 63/63/63 
f 62/62/62 64/64/64 63/63/63 
f 65/65/65 61/61/61 63/63/63 
f 66/66/66 65/65/65 63/63/63 
f 67/67/67 65/65/65 66/66/66 
f 68/68/68 65/65/65 67/67/67 
f 69/69/69 65/65/65 68/68/68 
f 65/65/65 69/69/69 70/70/70 
f 65/65/65 70/70/70 61/61/61 
f 70/70/70 71/71/71 61/61/61 
f 71/71/71 62/62/62 61/61/61 
f 71/71/71 72/72/72 62/62/62 
f 73/73/73 72/72/72 71/71/71 
f 71/71/71 74/74/74 73/73/73 
f 74/74/74 71/71/71 75/75/75 
f 76/76/76 77/77/77 78/78/78 
f 77/77/77 76/76/76 79/79/79 
f 76/76/76 80/80/80 79/79/79 
f 81/81/81 79/79/79 80/80/80 
f 82/82/82 77/77/77 79/79/79 
f 77/77/77 82/82/82 83/83/83 
f 79/79/79 81/81/81 84/84/84 
f 79/79/79 84/84/84 82/82/82 
f 81/81/81 85/85/85 84/84/84 
f 82/82/82 84/84/84 86/86/86 
f 87/87/87 88/88/88 89/89/89 
f 88/88/88 87/87/87 90/90/90 
f 91/91/91 92/92/92 93/93/93 
f 92/92/92 91/91/91 94/94/94 
f 95/95/95 96/96/96 97/97/97 
f 98/98/98 99/99/99 100/100/100 
f 99/99/99 98/98/98 101/101/101 
f 99/99/99 101/101/101 102/102/102 
f 103/103/103 102/102/102 101/101/101 
f 98/98/98 104/104/104 101/101/101 
f 98/98/98 105/105/105 104/104/104 
f 103/103/103 101/101/101 106/106/106 
f 104/104/104 106/106/106 101/101/101 
f 103/103/103 106/106/106 107/107/107 
f 106/106/106 104/104/104 108/108/108 
f 109/109/109 110/110/110 111/111/111 
f 110/110/110 109/109/109 112/112/112 
f 113/113/113 114/114/114 115/115/115 
f 116/116/116 117/117/117 118/118/118 
f 117/117/117 116/116/116 119/119/119 
f 120/120/120 121/121/121 122/122/122 
f 123/123/123 122/122/122 121/121/121 
f 122/122/122 124/124/124 120/120/120 
f 121/121/121 120/120/120 125/125/125 
f 126/126/126 120/120/120 124/124/124 
f 127/127/127 125/125/125 120/120/120 
f 120/120/120 126/126/126 127/127/127 
f 125/125/125 127/127/127 128/128/128 
f 129/129/129 127/127/127 126/126/126 
f 127/127/127 130/130/130 128/128/128 
f 127/127/127 129/129/129 130/130/130 
f 128/128/128 130/130/130 131/131/131 
f 132/132/132 130/130/130 129/129/129 
f 133/133/133 131/131/131 130/130/130 
f 130/130/130 132/132/132 133/133/133 
f 134/134/134 133/133/133 132/132/132 
f 135/135/135 136/136/136 137/137/137 
f 136/136/136 135/135/135 138/138/138 
f 138/138/138 139/139/139 136/136/136 
f 138/138/138 140/140/140 139/139/139 
f 140/140/140 138/138/138 141/141/141 
f 140/140/140 141/141/141 142/142/142 
f 140/140/140 142/142/142 143/143/143 
f 144/144/144 145/145/145 146/146/146 
f 145/145/145 144/144/144 147/147/147 
f 147/147/147 148/148/148 145/145/145 
f 148/148/148 147/147/147 149/149/149 
f 150/150/150 151/151/151 152/152/152 
f 150/150/150 152/152/152 153/153/153 
f 153/153/153 152/152/152 154/154/154 
f 153/153/153 154/154/154 155/155/155 
f 156/156/156 157/157/157 158/158/158 
f 156/156/156 158/158/158 159/159/159 
f 160/160/160 159/159/159 158/158/158 
f 161/161/161 159/159/159 160/160/160 
f 159/159/159 161/161/161 162/162/162 
f 161/161/161 163/163/163 162/162/162 
f 161/161/161 164/164/164 163/163/163 
f 165/165/165 166/166/166 167/167/167 
f 167/167/167 168/168/168 165/165/165 
f 166/166/166 165/165/165 169/169/169 
f 169/169/169 170/170/170 166/166/166 
f 171/171/171 172/172/172 173/173/173 
f 172/172/172 171/171/171 174/174/174 
f 174/174/174 175/175/175 172/172/172 
f 175/175/175 174/174/174 176/176/176 
f 177/177/177 178/178/178 179/179/179 
f 177/177/177 179/179/179 180/180/180 
f 179/179/179 181/181/181 180/180/180 
f 182/182/182 180/180/180 181/181/181 
f 179/179/179 183/183/183 181/181/181 
f 184/184/184 182/182/182 181/181/181 
f 181/181/181 183/183/183 185/185/185 
f 181/181/181 186/186/186 184/184/184 
f 181/181/181 185/185/185 187/187/187 
f 181/181/181 187/187/187 186/186/186 
f 188/188/188 189/189/189 190/190/190 
f 188/188/188 191/191/191 189/189/189 
f 189/189/189 191/191/191 192/192/192 
f 193/193/193 192/192/192 191/191/191 
f 189/189/189 192/192/192 194/194/194 
f 195/195/195 192/192/192 193/193/193 
f 192/192/192 196/196/196 194/194/194 
f 192/192/192 195/195/195 197/197/197 
f 192/192/192 198/198/198 196/196/196 
f 198/198/198 192/192/192 197/197/197 
f 199/199/199 200/200/200 201/201/201 
f 202/202/202 201/201/201 200/200/200 
f 201/201/201 202/202/202 203/203/203 
f 204/204/204 202/202/202 200/200/200 
f 202/202/202 204/204/204 205/205/205 
f 200/200/200 206/206/206 204/204/204 
f 207/207/207 208/208/208 209/209/209 
f 207/207/207 209/209/209 210/210/210 
f 211/211/211 212/212/212 213/213/213 
f 212/212/212 211/211/211 214/214/214 
f 215/215/215 216/216/216 217/217/217 
f 218/218/218 219/219/219 220/220/220 
f 219/219/219 218/218/218 221/221/221 
f 222/222/222 223/223/223 224/224/224 
f 225/225/225 226/226/226 227/227/227 
f 228/228/228 229/229/229 230/230/230 
f 231/231/231 232/232/232 233/233/233 
f 234/234/234 235/235/235 236/236/236 
f 237/237/237 238/238/238 239/239/239 
f 239/239/239 238/238/238 240/240/240 
f 241/241/241 242/242/242 243/243/243 
f 244/244/244 245/245/245 246/246/246 
f 247/247/247 248/248/248 249/249/249 
f 250/250/250 251/251/251 252/252/252 
f 253/253/253 254/254/254 255/255/255 
f 256/256/256 257/257/257 258/258/258 
f 259/259/259 260/260/260 261/261/261 
f 260/260/260 259/259/259 262/262/262 
f 263/263/263 260/260/260 262/262/262 
f 263/263/263 264/264/264 260/260/260 
f 260/260/260 264/264/264 265/265/265 
f 266/266/266 267/267/267 268/268/268 
f 268/268/268 267/267/267 269/269/269 
f 267/267/267 270/270/270 269/269/269 
f 270/270/270 267/267/267 271/271/271 
f 271/271/271 272/272/272 270/270/270 
f 272/272/272 271/271/271 273/273/273 
f 273/273/273 271/271/271 274/274/274 
f 274/274/274 271/271/271 275/275/275 
f 276/276/276 277/277/277 278/278/278 
f 277/277/277 279/279/279 278/278/278 
f 280/280/280 278/278/278 279/279/279 
f 278/278/278 280/280/280 281/281/281 
f 282/282/282 281/281/281 280/280/280 
f 281/281/281 282/282/282 283/283/283 
f 283/283/283 284/284/284 281/281/281 
f 284/284/284 285/285/285 281/281/281 
f 286/286/286 287/287/287 288/288/288 
f 289/289/289 287/287/287 286/286/286 
f 290/290/290 287/287/287 289/289/289 
f 291/291/291 288/288/288 292/292/292 
f 292/292/292 288/288/288 293/293/293 
f 288/288/288 287/287/287 293/293/293 
f 293/293/293 294/294/294 292/292/292 
f 294/294/294 293/293/293 295/295/295 
f 295/295/295 293/293/293 287/287/287 
f 296/296/296 294/294/294 295/295/295 
f 297/297/297 287/287/287 290/290/290 
f 297/297/297 295/295/295 287/287/287 
f 298/298/298 297/297/297 290/290/290 
f 299/299/299 297/297/297 298/298/298 
f 295/295/295 297/297/297 300/300/300 
f 297/297/297 299/299/299 300/300/300 
f 295/295/295 300/300/300 296/296/296 
f 299/299/299 301/301/301 300/300/300 
f 296/296/296 300/300/300 301/301/301 
f 302/302/302 303/303/303 304/304/304 
f 305/305/305 303/303/303 302/302/302 
f 306/306/306 305/305/305 302/302/302 
f 307/307/307 308/308/308 304/304/304 
f 304/304/304 308/308/308 309/309/309 
f 302/302/302 304/304/304 309/309/309 
f 310/310/310 309/309/309 308/308/308 
f 309/309/309 310/310/310 311/311/311 
f 311/311/311 302/302/302 309/309/309 
f 312/312/312 311/311/311 310/310/310 
f 313/313/313 306/306/306 302/302/302 
f 302/302/302 311/311/311 313/313/313 
f 306/306/306 313/313/313 314/314/314 
f 314/314/314 313/313/313 315/315/315 
f 311/311/311 316/316/316 313/313/313 
f 311/311/311 312/312/312 316/316/316 
f 313/313/313 316/316/316 315/315/315 
f 312/312/312 317/317/317 316/316/316 
f 315/315/315 316/316/316 317/317/317 
f 318/318/318 319/319/319 320/320/320 
f 321/321/321 319/319/319 318/318/318 
f 321/321/321 318/318/318 322/322/322 
f 321/321/321 322/322/322 323/323/323 
f 324/324/324 325/325/325 326/326/326 
f 327/327/327 324/324/324 326/326/326 
f 327/327/327 328/328/328 324/324/324 
f 328/328/328 327/327/327 329/329/329 
f 330/330/330 331/331/331 332/332/332 
f 331/331/331 330/330/330 333/333/333 
f 334/334/334 332/332/332 331/331/331 
f 331/331/331 335/335/335 334/334/334 
f 335/335/335 331/331/331 336/336/336 
f 337/337/337 338/338/338 339/339/339 
f 338/338/338 337/337/337 340/340/340 
f 339/339/339 341/341/341 337/337/337 
f 341/341/341 339/339/339 342/342/342 
f 343/343/343 344/344/344 345/345/345 
f 344/344/344 343/343/343 346/346/346 
f 347/347/347 346/346/346 343/343/343 
f 346/346/346 347/347/347 348/348/348 
f 349/349/349 350/350/350 351/351/351 
f 350/350/350 349/349/349 352/352/352 
f 353/353/353 354/354/354 355/355/355 
f 355/355/355 356/356/356 353/353/353 
f 357/357/357 354/354/354 353/353/353 
f 357/357/357 358/358/358 354/354/354 
f 359/359/359 360/360/360 361/361/361 
f 360/360/360 359/359/359 362/362/362 
f 361/361/361 363/363/363 359/359/359 
f 363/363/363 361/361/361 364/364/364 
f 365/365/365 366/366/366 367/367/367 
f 366/366/366 368/368/368 367/367/367 
f 366/366/366 365/365/365 369/369/369 
f 368/368/368 366/366/366 370/370/370 
f 366/366/366 369/369/369 371/371/371 
f 366/366/366 372/372/372 370/370/370 
f 366/366/366 371/371/371 373/373/373 
f 372/372/372 366/366/366 373/373/373 
f 374/374/374 373/373/373 371/371/371 
f 373/373/373 374/374/374 375/375/375 
f 372/372/372 373/373/373 375/375/375 
f 372/372/372 375/375/375 376/376/376 
f 377/377/377 378/378/378 379/379/379 
f 377/377/377 380/380/380 378/378/378 
f 381/381/381 380/380/380 377/377/377 
f 382/382/382 381/381/381 377/377/377 
f 382/382/382 383/383/383 381/381/381 
f 384/384/384 381/381/381 383/383/383 
f 385/385/385 381/381/381 384/384/384 
f 386/386/386 387/387/387 388/388/388 
f 389/389/389 388/388/388 387/387/387 
f 386/386/386 388/388/388 390/390/390 
f 388/388/388 389/389/389 391/391/391 
f 388/388/388 392/392/392 390/390/390 
f 393/393/393 388/388/388 391/391/391 
f 392/392/392 388/388/388 394/394/394 
f 388/388/388 393/393/393 394/394/394 
f 394/394/394 395/395/395 392/392/392 
f 395/395/395 394/394/394 396/396/396 
f 393/393/393 396/396/396 394/394/394 
f 396/396/396 393/393/393 397/397/397 
f 398/398/398 399/399/399 400/400/400 
f 398/398/398 400/400/400 401/401/401 
f 402/402/402 398/398/398 401/401/401 
f 403/403/403 398/398/398 402/402/402 
f 403/403/403 402/402/402 404/404/404 
f 405/405/405 404/404/404 402/402/402 
f 402/402/402 406/406/406 405/405/405 
f 407/407/407 408/408/408 409/409/409 
f 410/410/410 409/409/409 408/408/408 
f 411/411/411 412/412/412 413/413/413 
f 412/412/412 414/414/414 413/413/413 

