# This file is brought to you by Roblox Corporation
# Generated by Roblox Studio

mtllib zebra.mtl

g Pet1

v -0.204108 -0.411639 -1.28948 
v 0.170001 -0.411639 -1.28948 
v -0.0170526 -0.672708 -1.26372 
v -0.204108 -0.411639 -1.28948 
v 0.0839919 -0.178465 -1.13534 
v 0.170001 -0.411639 -1.28948 
v -0.118099 -0.178465 -1.13534 
v 0.0839919 0.184595 -0.876687 
v -0.118099 0.495862 -0.479199 
v 0.0839918 0.495862 -0.479199 
v -0.118099 0.184595 -0.876687 
v 0.0839919 -0.178465 -1.13534 
v -0.118099 0.184595 -0.876687 
v -0.118099 -0.178465 -1.13534 
v 0.0942239 -1.25425 0.904405 
v 0.488621 -1.25425 0.448989 
v 0.529071 -1.25425 0.861796 
v 0.0537742 -1.25425 0.491598 
v -0.546672 -1.25425 0.867833 
v -0.0752641 -1.25425 0.492696 
v -0.111404 -1.25425 0.905904 
v -0.510532 -1.25425 0.454626 
v -0.516208 -1.25425 0.277535 
v -0.0447997 -1.25425 -0.0976024 
v -0.0809401 -1.25425 0.315605 
v -0.480067 -1.25425 -0.135672 
v 0.0708802 -1.25425 0.313926 
v 0.457492 -1.25425 -0.148119 
v 0.504942 -1.25425 0.263943 
v 0.02343 -1.25425 -0.0981349 
v 0.180855 0.928548 1.28948 
v 0.180855 0.850159 0.681212 
v -0.216359 0.928548 1.28948 
v -0.216359 0.850159 0.681212 
v 0.180855 0.742839 0.168498 
v -0.216359 0.742839 0.168498 
v -0.0122497 -0.934842 -0.481893 
v -0.843074 -0.189993 -0.481894 
v -0.0122519 0.511115 -0.482036 
v -0.869557 0.53 -0.481999 
v 0.818858 -0.189993 -0.481893 
v 0.845056 -0.911759 -0.481893 
v 0.845048 0.528882 -0.482066 
v -0.843074 -0.189993 -0.481894 
v -0.0122497 -0.934842 -0.481893 
v -0.869549 -0.911759 -0.481894 
v -0.0122499 -1.03758 0.846598 
v 0.837556 -1.03508 0.958606 
v -0.0122499 -1.02449 1.23271 
v 0.845056 -0.997252 1.23271 
v 0.830386 -1.04614 0.696328 
v -0.0122498 -1.05103 0.477143 
v -0.0122499 -1.02449 1.23271 
v -0.869549 -0.997252 1.23271 
v -0.861719 -1.03562 0.740672 
v -0.854219 -1.04719 0.26986 
v -0.0122497 -1.0086 -0.0755719 
v -0.862319 -1.0086 -0.14976 
v 0.837826 -1.0086 -0.00138398 
v 0.830386 -1.04614 0.696328 
v -0.0122497 -0.934842 -0.481893 
v -0.869549 -0.911759 -0.481894 
v 0.845056 -0.911759 -0.481893 
v -0.0122497 -1.0086 -0.0755719 
v 0.837826 -1.0086 -0.00138398 
v -0.902692 -0.211608 1.23271 
v -0.861719 -1.03562 0.740672 
v -0.869549 -0.997252 1.23271 
v -0.854219 -0.261625 0.269852 
v -0.902692 -0.211608 1.23271 
v -0.854489 0.485015 0.270755 
v -0.868642 0.603462 1.22833 
v 0.837556 -1.03508 0.958606 
v 0.871268 -0.211608 1.23271 
v 0.845056 -0.997252 1.23271 
v 0.830386 -0.2605 0.696328 
v 0.830386 -1.04614 0.696328 
v 0.837826 -1.0086 -0.00138398 
v 0.818858 -0.189993 -0.481893 
v 0.845056 -0.911759 -0.481893 
v 0.831053 0.492747 0.694412 
v 0.845048 0.528882 -0.482066 
v 0.831053 0.492747 0.694412 
v 0.871268 -0.211608 1.23271 
v 0.844658 0.561215 1.23462 
v -0.861719 -1.03562 0.740672 
v -0.854219 -0.261625 0.269852 
v -0.854219 -1.04719 0.26986 
v -0.862319 -1.0086 -0.14976 
v -0.854219 -1.04719 0.26986 
v -0.854219 -0.261625 0.269852 
v -0.862319 -1.0086 -0.14976 
v -0.854219 -0.261625 0.269852 
v -0.843074 -0.189993 -0.481894 
v -0.869549 -0.911759 -0.481894 
v -0.854489 0.485015 0.270755 
v -0.843074 -0.189993 -0.481894 
v -0.854219 -0.261625 0.269852 
v -0.869557 0.53 -0.481999 
v 0.827225 0.555975 1.221 
v 0.913449 0.683193 1.2173 
v 0.698703 0.804894 1.2143 
v 0.695281 0.556783 1.22126 
v -0.700623 0.804894 1.2143 
v -0.835988 0.557593 1.22152 
v -0.704045 0.556783 1.22126 
v -0.910361 0.695516 1.217 
v 0.698703 0.804894 1.2143 
v 0.563338 0.557593 1.22152 
v 0.695281 0.556783 1.22126 
v 0.488965 0.695516 1.217 
v -0.572102 0.555975 1.221 
v -0.485877 0.683193 1.2173 
v -0.700623 0.804894 1.2143 
v -0.704045 0.556783 1.22126 
v 0.881875 0.999154 1.20964 
v 0.698703 0.804894 1.2143 
v 0.943904 0.814518 1.21416 
v 0.455422 0.826579 1.21367 
v 0.698703 0.804894 1.2143 
v 0.514568 1.01226 1.20906 
v 0.514568 1.01226 1.20906 
v 0.698703 0.804894 1.2143 
v 0.703348 1.25425 1.20323 
v 0.703348 1.25425 1.20323 
v 0.698703 0.804894 1.2143 
v 0.881875 0.999154 1.20964 
v 0.698703 0.804894 1.2143 
v 0.455422 0.826579 1.21367 
v 0.488965 0.695516 1.217 
v -0.517451 0.999154 1.20964 
v -0.700623 0.804894 1.2143 
v -0.455422 0.814518 1.21416 
v -0.455422 0.814518 1.21416 
v -0.700623 0.804894 1.2143 
v -0.485877 0.683193 1.2173 
v -0.943904 0.826579 1.21367 
v -0.700623 0.804894 1.2143 
v -0.884758 1.01226 1.20906 
v -0.884758 1.01226 1.20906 
v -0.700623 0.804894 1.2143 
v -0.695978 1.25425 1.20323 
v -0.695978 1.25425 1.20323 
v -0.700623 0.804894 1.2143 
v -0.517451 0.999154 1.20964 
v -0.700623 0.804894 1.2143 
v -0.943904 0.826579 1.21367 
v -0.910361 0.695516 1.217 
v 0.943904 0.814518 1.21416 
v 0.698703 0.804894 1.2143 
v 0.913449 0.683193 1.2173 
v -0.869549 -0.997252 1.23271 
v -0.0122499 -1.02449 1.23271 
v -0.902692 -0.211608 1.23271 
v -0.0119919 0.60926 1.23147 
v -0.868642 0.603462 1.22833 
v 0.845056 -0.997252 1.23271 
v 0.871268 -0.211608 1.23271 
v 0.871268 -0.211608 1.23271 
v -0.0119919 0.60926 1.23147 
v 0.844658 0.561215 1.23462 
v -0.204108 -0.512696 -1.05186 
v -0.204108 -0.411639 -1.28948 
v -0.0170526 -0.672708 -1.26372 
v 0.881875 0.999154 1.20964 
v 0.699043 0.996551 1.02123 
v 0.703348 1.25425 1.20323 
v 0.943904 0.814518 1.21416 
v 0.832237 0.816372 0.992692 
v 0.881875 0.999154 1.20964 
v 0.831053 0.492747 0.694412 
v 0.845048 0.528882 -0.482066 
v -0.0121051 0.48809 0.475681 
v -0.0122519 0.511115 -0.482036 
v -0.868642 0.603462 1.22833 
v -0.0119919 0.60926 1.23147 
v -0.0121051 0.48809 0.475681 
v -0.854489 0.485015 0.270755 
v -0.0119919 0.60926 1.23147 
v 0.844658 0.561215 1.23462 
v 0.831053 0.492747 0.694412 
v -0.0121051 0.48809 0.475681 
v -0.0121051 0.48809 0.475681 
v -0.0122519 0.511115 -0.482036 
v -0.854489 0.485015 0.270755 
v -0.869557 0.53 -0.481999 
v -0.884758 1.01226 1.20906 
v -0.695978 1.25425 1.20323 
v -0.700283 0.996551 1.02123 
v 0.160464 0.759435 1.21443 
v -0.195968 0.759435 1.21443 
v -0.195968 0.585253 1.21621 
v 0.160464 0.585253 1.21621 
v 0.180855 0.928548 1.28948 
v -0.216359 0.928548 1.28948 
v -0.943904 0.826579 1.21367 
v -0.700283 0.996551 1.02123 
v -0.830006 0.823089 0.992526 
v -0.884758 1.01226 1.20906 
v -0.800051 0.686815 1.00086 
v -0.830006 0.823089 0.992526 
v -0.910361 0.695516 1.217 
v -0.448843 -1.10669 -0.100368 
v -0.089721 -0.94089 -0.0618552 
v -0.081678 -1.10669 -0.0682549 
v -0.442034 -0.94089 -0.092669 
v 0.427247 -1.10669 -0.111972 
v 0.0610988 -1.10669 -0.0698096 
v 0.0693143 -0.94089 -0.0636319 
v 0.420651 -0.94089 -0.104089 
v 0.420651 -0.94089 -0.104089 
v 0.459058 -0.94089 0.22944 
v 0.467272 -1.10669 0.235617 
v 0.427247 -1.10669 -0.111972 
v -0.479329 -1.10669 0.248188 
v -0.442034 -0.94089 -0.092669 
v -0.448843 -1.10669 -0.100368 
v -0.471287 -0.94089 0.241788 
v -0.509794 -1.10669 0.838486 
v -0.472499 -0.94089 0.497629 
v -0.479308 -1.10669 0.48993 
v -0.501751 -0.94089 0.832086 
v 0.451039 -0.94089 0.492386 
v 0.483779 -0.94089 0.826519 
v 0.491888 -1.10669 0.832835 
v 0.457768 -1.10669 0.484616 
v 0.483779 -0.94089 0.826519 
v 0.131806 -0.94089 0.861008 
v 0.125078 -1.10669 0.868778 
v 0.491888 -1.10669 0.832835 
v -0.501751 -0.94089 0.832086 
v -0.142628 -1.10669 0.8706 
v -0.149438 -0.94089 0.8629 
v -0.509794 -1.10669 0.838486 
v -0.480067 -1.25425 -0.135672 
v -0.081678 -1.10669 -0.0682549 
v -0.0447997 -1.25425 -0.0976024 
v -0.448843 -1.10669 -0.100368 
v 0.457492 -1.25425 -0.148119 
v 0.02343 -1.25425 -0.0981349 
v 0.0610988 -1.10669 -0.0698096 
v 0.427247 -1.10669 -0.111972 
v 0.427247 -1.10669 -0.111972 
v 0.467272 -1.10669 0.235617 
v 0.504942 -1.25425 0.263943 
v 0.457492 -1.25425 -0.148119 
v -0.516208 -1.25425 0.277535 
v -0.448843 -1.10669 -0.100368 
v -0.480067 -1.25425 -0.135672 
v -0.479329 -1.10669 0.248188 
v 0.943904 0.814518 1.21416 
v 0.797251 0.682956 1.00074 
v 0.832237 0.816372 0.992692 
v 0.913449 0.683193 1.2173 
v -0.546672 -1.25425 0.867833 
v -0.479308 -1.10669 0.48993 
v -0.510532 -1.25425 0.454626 
v -0.509794 -1.10669 0.838486 
v 0.457768 -1.10669 0.484616 
v 0.491888 -1.10669 0.832835 
v 0.529071 -1.25425 0.861796 
v 0.488621 -1.25425 0.448989 
v 0.491888 -1.10669 0.832835 
v 0.125078 -1.10669 0.868778 
v 0.0942239 -1.25425 0.904405 
v 0.529071 -1.25425 0.861796 
v -0.509794 -1.10669 0.838486 
v -0.111404 -1.25425 0.905904 
v -0.142628 -1.10669 0.8706 
v -0.546672 -1.25425 0.867833 
v -0.195968 0.67355 0.705948 
v -0.195968 0.585253 1.21621 
v -0.195968 0.759435 1.21443 
v -0.195968 0.51421 0.725059 
v -0.195968 0.67355 0.705948 
v -0.195968 0.452623 0.299288 
v -0.195968 0.599098 0.265153 
v 0.170001 -0.411639 -1.28948 
v 0.0839919 -0.26339 -0.987756 
v 0.170001 -0.512696 -1.05186 
v 0.0839919 -0.178465 -1.13534 
v 0.170001 -0.512696 -1.05186 
v -0.0170526 -0.672708 -1.26372 
v 0.160464 0.67355 0.705948 
v 0.160464 0.759435 1.21443 
v 0.160464 0.585253 1.21621 
v 0.160464 0.51421 0.725059 
v 0.160464 0.452623 0.299288 
v 0.160464 0.67355 0.705948 
v 0.160464 0.599098 0.265154 
v -0.118099 0.0155607 -0.790852 
v -0.118099 0.261434 -0.478692 
v -0.118099 0.184595 -0.876687 
v -0.118099 0.495862 -0.479199 
v -0.118099 -0.26339 -0.987756 
v -0.118099 0.0155607 -0.790852 
v -0.118099 -0.178465 -1.13534 
v -0.118099 0.184595 -0.876687 
v 0.0839919 0.184595 -0.876687 
v 0.0839918 0.261434 -0.478692 
v 0.0839919 0.0155607 -0.790852 
v 0.0839918 0.495862 -0.479199 
v 0.0839919 -0.178465 -1.13534 
v 0.0839919 0.0155607 -0.790852 
v 0.0839919 -0.26339 -0.987756 
v 0.0839919 0.184595 -0.876687 
v -0.910361 0.695516 1.217 
v -0.751021 0.532069 1.05167 
v -0.835988 0.557593 1.22152 
v -0.800051 0.686815 1.00086 
v -0.216359 0.850159 0.681212 
v -0.195968 0.759435 1.21443 
v -0.216359 0.928548 1.28948 
v -0.195968 0.67355 0.705948 
v -0.216359 0.850159 0.681212 
v -0.195968 0.599098 0.265153 
v -0.216359 0.742839 0.168498 
v 0.180855 0.850159 0.681212 
v 0.180855 0.928548 1.28948 
v 0.160464 0.759435 1.21443 
v 0.160464 0.67355 0.705948 
v 0.160464 0.599098 0.265154 
v 0.180855 0.850159 0.681212 
v 0.180855 0.742839 0.168498 
v 0.913449 0.683193 1.2173 
v 0.74317 0.531059 1.05135 
v 0.797251 0.682956 1.00074 
v 0.827225 0.555975 1.221 
v 0.457768 -1.10669 0.484616 
v 0.0909569 -1.10669 0.520559 
v 0.0990659 -0.94089 0.526875 
v 0.451039 -0.94089 0.492386 
v -0.479308 -1.10669 0.48993 
v -0.120185 -0.94089 0.528444 
v -0.112142 -1.10669 0.522043 
v -0.472499 -0.94089 0.497629 
v -0.204108 -0.411639 -1.28948 
v -0.204108 -0.512696 -1.05186 
v -0.118099 -0.26339 -0.987756 
v -0.118099 -0.178465 -1.13534 
v 0.160464 0.452623 0.299288 
v -0.195968 0.452623 0.299288 
v -0.195968 0.599098 0.265153 
v 0.160464 0.599098 0.265154 
v -0.216359 0.742839 0.168498 
v 0.180855 0.742839 0.168498 
v 0.131806 -0.94089 0.861008 
v 0.0909569 -1.10669 0.520559 
v 0.125078 -1.10669 0.868778 
v 0.0990659 -0.94089 0.526875 
v -0.149438 -0.94089 0.8629 
v -0.112142 -1.10669 0.522043 
v -0.120185 -0.94089 0.528444 
v -0.142628 -1.10669 0.8706 
v -0.118973 -0.94089 0.272602 
v -0.081678 -1.10669 -0.0682549 
v -0.089721 -0.94089 -0.0618552 
v -0.112164 -1.10669 0.280301 
v 0.107721 -0.94089 0.269898 
v 0.0610988 -1.10669 -0.0698096 
v 0.101125 -1.10669 0.277781 
v 0.0693143 -0.94089 -0.0636319 
v 0.459058 -0.94089 0.22944 
v 0.107721 -0.94089 0.269898 
v 0.101125 -1.10669 0.277781 
v 0.467272 -1.10669 0.235617 
v -0.471287 -0.94089 0.241788 
v -0.112164 -1.10669 0.280301 
v -0.118973 -0.94089 0.272602 
v -0.479329 -1.10669 0.248188 
v 0.514568 1.01226 1.20906 
v 0.703348 1.25425 1.20323 
v 0.699043 0.996551 1.02123 
v 0.488621 -1.25425 0.448989 
v 0.0537742 -1.25425 0.491598 
v 0.0909569 -1.10669 0.520559 
v 0.457768 -1.10669 0.484616 
v -0.510532 -1.25425 0.454626 
v -0.112142 -1.10669 0.522043 
v -0.0752641 -1.25425 0.492696 
v -0.479308 -1.10669 0.48993 
v -0.517451 0.999154 1.20964 
v -0.700283 0.996551 1.02123 
v -0.695978 1.25425 1.20323 
v -0.455422 0.814518 1.21416 
v -0.567089 0.816372 0.992691 
v -0.517451 0.999154 1.20964 
v 0.125078 -1.10669 0.868778 
v 0.0537742 -1.25425 0.491598 
v 0.0942239 -1.25425 0.904405 
v 0.0909569 -1.10669 0.520559 
v -0.142628 -1.10669 0.8706 
v -0.0752641 -1.25425 0.492696 
v -0.112142 -1.10669 0.522043 
v -0.111404 -1.25425 0.905904 
v -0.112164 -1.10669 0.280301 
v -0.0447997 -1.25425 -0.0976024 
v -0.081678 -1.10669 -0.0682549 
v -0.0809401 -1.25425 0.315605 
v 0.101125 -1.10669 0.277781 
v 0.02343 -1.25425 -0.0981349 
v 0.0708802 -1.25425 0.313926 
v 0.0610988 -1.10669 -0.0698096 
v 0.467272 -1.10669 0.235617 
v 0.101125 -1.10669 0.277781 
v 0.0708802 -1.25425 0.313926 
v 0.504942 -1.25425 0.263943 
v -0.479329 -1.10669 0.248188 
v -0.0809401 -1.25425 0.315605 
v -0.112164 -1.10669 0.280301 
v -0.516208 -1.25425 0.277535 
v -0.800051 0.686815 1.00086 
v -0.656156 0.531059 1.05135 
v -0.751021 0.532069 1.05167 
v -0.602076 0.682956 1.00074 
v -0.567089 0.816372 0.992691 
v -0.602076 0.682956 1.00074 
v -0.830006 0.823089 0.992526 
v -0.700283 0.996551 1.02123 
v 0.599275 0.686815 1.00086 
v 0.74317 0.531059 1.05135 
v 0.648305 0.532069 1.05167 
v 0.797251 0.682956 1.00074 
v 0.832237 0.816372 0.992692 
v 0.797251 0.682956 1.00074 
v 0.56932 0.823089 0.992526 
v 0.699043 0.996551 1.02123 
v 0.170001 -0.512696 -1.05186 
v -0.204108 -0.512696 -1.05186 
v -0.0170526 -0.672708 -1.26372 
v 0.455422 0.826579 1.21367 
v 0.699043 0.996551 1.02123 
v 0.56932 0.823089 0.992526 
v 0.514568 1.01226 1.20906 
v 0.599275 0.686815 1.00086 
v 0.56932 0.823089 0.992526 
v 0.488965 0.695516 1.217 
v 0.0839918 0.261434 -0.478692 
v -0.118099 0.261434 -0.478692 
v -0.118099 0.0155607 -0.790852 
v 0.0839919 0.0155607 -0.790852 
v -0.455422 0.814518 1.21416 
v -0.602076 0.682956 1.00074 
v -0.567089 0.816372 0.992691 
v -0.485877 0.683193 1.2173 
v 0.488965 0.695516 1.217 
v 0.648305 0.532069 1.05167 
v 0.563338 0.557593 1.22152 
v 0.599275 0.686815 1.00086 
v -0.485877 0.683193 1.2173 
v -0.656156 0.531059 1.05135 
v -0.602076 0.682956 1.00074 
v -0.572102 0.555975 1.221 
v 0.0839919 0.0155607 -0.790852 
v -0.118099 0.0155607 -0.790852 
v -0.118099 -0.26339 -0.987756 
v 0.0839919 -0.26339 -0.987756 
v -0.118099 -0.26339 -0.987756 
v -0.204108 -0.512696 -1.05186 
v 0.0839919 -0.26339 -0.987756 
v 0.170001 -0.512696 -1.05186 

vn 0 0.244094 -0.968504 
vn 0 0.244094 -0.968504 
vn 0 -0.0944882 -0.992126 
vn 0 0.244094 -0.968504 
vn 0 0.551181 -0.834646 
vn 0 0.244094 -0.968504 
vn 0 0.551181 -0.834646 
vn 0 0.692913 -0.724409 
vn 0 0.787402 -0.614173 
vn 0 0.787402 -0.614173 
vn 0 0.692913 -0.724409 
vn 0 0.543307 -0.834646 
vn 0 0.692913 -0.724409 
vn 0 0.543307 -0.834646 
vn 0 -1 0 
vn 0 -1 0 
vn 0 -1 0 
vn 0 -1 0 
vn 0 -1 0 
vn 0 -1 0 
vn 0 -1 0 
vn 0 -1 0 
vn 0 -1 0 
vn 0 -1 0 
vn 0 -1 0 
vn 0 -1 0 
vn 0 -1 0 
vn 0 -1 0 
vn 0 -1 0 
vn 0 -1 0 
vn 0 0.992126 -0.125984 
vn 0 0.984252 -0.165354 
vn 0 0.992126 -0.125984 
vn 0 0.984252 -0.165354 
vn 0 0.976378 -0.204724 
vn 0 0.976378 -0.204724 
vn 0 0 -1 
vn 0 0 -1 
vn 0 0 -1 
vn 0 0 -1 
vn 0 0 -1 
vn 0 0 -1 
vn 0 0 -1 
vn 0 0 -1 
vn 0 0 -1 
vn 0 0 -1 
vn -0.00787402 -1 0.0551181 
vn 0.00787402 -1 0.0551181 
vn -0.00787402 -1 0.0708661 
vn 0.015748 -1 0.0787402 
vn 0.00787402 -1 -0.015748 
vn 0 -1 -0.023622 
vn -0.00787402 -1 0.0708661 
vn -0.023622 -1 0.0551181 
vn -0.015748 -1 0.0472441 
vn 0 -1 -0.023622 
vn 0.00787402 -0.992126 -0.141732 
vn 0.00787402 -0.984252 -0.15748 
vn 0.015748 -0.992126 -0.125984 
vn 0.00787402 -1 -0.015748 
vn 0.00787402 -0.976378 -0.204724 
vn 0 -0.976378 -0.228346 
vn 0.023622 -0.984252 -0.188976 
vn 0.00787402 -0.992126 -0.141732 
vn 0.015748 -0.992126 -0.125984 
vn -1 0 -0.0393701 
vn -1 -0.015748 -0.023622 
vn -1 -0.0314961 -0.0393701 
vn -1 0 -0.00787402 
vn -1 0 -0.0393701 
vn -1 0 -0.015748 
vn -1 0.023622 -0.0314961 
vn 1 -0.00787402 -0.0393701 
vn 1 0 -0.0551181 
vn 1 -0.023622 -0.0551181 
vn 1 0 -0.023622 
vn 1 0 -0.00787402 
vn 1 0.00787402 0.00787402 
vn 1 0 0 
vn 1 0.023622 0 
vn 1 0 -0.023622 
vn 1 -0.015748 0 
vn 1 0 -0.023622 
vn 1 0 -0.0551181 
vn 1 0.015748 -0.0551181 
vn -1 -0.015748 -0.023622 
vn -1 0 -0.00787402 
vn -1 0 0 
vn -1 0.015748 0.00787402 
vn -1 0 0 
vn -1 0 -0.00787402 
vn -1 0.015748 0.00787402 
vn -1 0 -0.00787402 
vn -1 0 0 
vn -1 0.023622 0 
vn -1 0 -0.015748 
vn -1 0 0 
vn -1 0 -0.00787402 
vn -1 -0.015748 0 
vn 0 0.0314961 1 
vn 0 0.0314961 1 
vn 0 0.0314961 1 
vn 0 0.0314961 1 
vn 0 0.0314961 1 
vn 0 0.0314961 1 
vn 0 0.0314961 1 
vn 0 0.0314961 1 
vn 0 0.0314961 1 
vn 0 0.0314961 1 
vn 0 0.0314961 1 
vn 0 0.0314961 1 
vn 0 0.0314961 1 
vn 0 0.0314961 1 
vn 0 0.0314961 1 
vn 0 0.0314961 1 
vn 0 0.023622 1 
vn 0 0.023622 1 
vn 0 0.023622 1 
vn 0 0.023622 1 
vn 0 0.023622 1 
vn 0 0.023622 1 
vn 0 0.023622 1 
vn 0 0.023622 1 
vn 0 0.023622 1 
vn 0 0.023622 1 
vn 0 0.023622 1 
vn 0 0.023622 1 
vn 0 0.023622 1 
vn 0 0.023622 1 
vn 0 0.023622 1 
vn 0 0.023622 1 
vn 0 0.023622 1 
vn 0 0.023622 1 
vn 0 0.023622 1 
vn 0 0.023622 1 
vn 0 0.023622 1 
vn 0 0.023622 1 
vn 0 0.023622 1 
vn 0 0.023622 1 
vn 0 0.023622 1 
vn 0 0.023622 1 
vn 0 0.023622 1 
vn 0 0.023622 1 
vn 0 0.023622 1 
vn 0 0.023622 1 
vn 0 0.023622 1 
vn 0 0.023622 1 
vn 0 0.023622 1 
vn 0 0.023622 1 
vn 0 0.023622 1 
vn 0 0.023622 1 
vn 0 0 1 
vn 0 0 1 
vn 0 0 1 
vn 0 0 1 
vn 0 0 1 
vn 0 0 1 
vn 0 0 1 
vn 0 0 1 
vn 0 0 1 
vn 0 0 1 
vn -0.984252 -0.173228 -0.0629921 
vn -0.984252 -0.173228 -0.0629921 
vn -0.779528 -0.582677 -0.244094 
vn 0.692913 0.433071 -0.582677 
vn 0.00787402 0.496063 -0.866142 
vn 0.023622 0.574803 -0.818898 
vn 0.850394 0.102362 -0.519685 
vn 0.472441 0.0866142 -0.874016 
vn 0.692913 0.433071 -0.582677 
vn 0.015748 1 -0.0629921 
vn -0.015748 1 0.0314961 
vn 0.00787402 1 -0.0551181 
vn -0.00787402 1 0.0314961 
vn 0.015748 0.992126 -0.141732 
vn 0.0314961 0.992126 -0.141732 
vn 0.00787402 1 -0.0551181 
vn 0.00787402 1 -0.0472441 
vn 0.0314961 0.992126 -0.141732 
vn 0.0472441 0.992126 -0.141732 
vn 0.015748 1 -0.0629921 
vn 0.00787402 1 -0.0551181 
vn 0.00787402 1 -0.0551181 
vn -0.00787402 1 0.0314961 
vn 0.00787402 1 -0.0472441 
vn 0.00787402 1 0.0393701 
vn -0.669291 0.440945 -0.598425 
vn 0.023622 0.574803 -0.818898 
vn 0.00787402 0.496063 -0.866142 
vn 0 -0.204724 0.976378 
vn 0 -0.204724 0.976378 
vn 0 0.00787402 1 
vn 0 0.00787402 1 
vn 0 -0.409449 0.913386 
vn 0 -0.409449 0.913386 
vn -0.84252 0.102362 -0.527559 
vn 0.00787402 0.496063 -0.866142 
vn -0.472441 0.0866142 -0.88189 
vn -0.669291 0.440945 -0.598425 
vn -0.496063 -0.299213 -0.811024 
vn -0.472441 0.0866142 -0.88189 
vn -0.850394 -0.322835 -0.409449 
vn 0.0866142 0.125984 -0.984252 
vn 0.0866142 0.0393701 -0.992126 
vn 0.0866142 0.125984 -0.984252 
vn 0.0866142 0.0393701 -0.992126 
vn -0.110236 0.125984 -0.984252 
vn -0.110236 0.125984 -0.984252 
vn -0.110236 0.0393701 -0.992126 
vn -0.110236 0.0393701 -0.992126 
vn 0.992126 0.0472441 -0.110236 
vn 0.992126 0.0472441 -0.110236 
vn 0.984252 0.133858 -0.110236 
vn 0.984252 0.133858 -0.110236 
vn -0.984252 0.133858 -0.0866142 
vn -0.992126 0.0472441 -0.0866142 
vn -0.984252 0.133858 -0.0866142 
vn -0.992126 0.0472441 -0.0866142 
vn -0.984252 0.133858 -0.0866142 
vn -0.992126 0.0472441 -0.0866142 
vn -0.984252 0.133858 -0.0866142 
vn -0.992126 0.0472441 -0.0866142 
vn 0.992126 0.0472441 -0.0944882 
vn 0.992126 0.0472441 -0.0944882 
vn 0.984252 0.133858 -0.0944882 
vn 0.984252 0.133858 -0.0944882 
vn 0.0944882 0.0393701 0.992126 
vn 0.0944882 0.0393701 0.992126 
vn 0.0944882 0.125984 0.984252 
vn 0.0944882 0.125984 0.984252 
vn -0.0866142 0.0393701 0.992126 
vn -0.0866142 0.125984 0.984252 
vn -0.0866142 0.0393701 0.992126 
vn -0.0866142 0.125984 0.984252 
vn 0.0866142 0.212598 -0.976378 
vn 0.0866142 0.125984 -0.984252 
vn 0.0866142 0.212598 -0.976378 
vn 0.0866142 0.125984 -0.984252 
vn -0.110236 0.212598 -0.968504 
vn -0.110236 0.212598 -0.968504 
vn -0.110236 0.125984 -0.984252 
vn -0.110236 0.125984 -0.984252 
vn 0.984252 0.133858 -0.110236 
vn 0.984252 0.133858 -0.110236 
vn 0.968504 0.228346 -0.110236 
vn 0.968504 0.228346 -0.110236 
vn -0.968504 0.228346 -0.0866142 
vn -0.984252 0.133858 -0.0866142 
vn -0.968504 0.228346 -0.0866142 
vn -0.984252 0.133858 -0.0866142 
vn 0.850394 0.102362 -0.519685 
vn 0.480315 -0.314961 -0.818898 
vn 0.472441 0.0866142 -0.874016 
vn 0.834646 -0.354331 -0.417323 
vn -0.968504 0.228346 -0.0866142 
vn -0.984252 0.133858 -0.0866142 
vn -0.968504 0.228346 -0.0866142 
vn -0.984252 0.133858 -0.0866142 
vn 0.984252 0.133858 -0.0944882 
vn 0.984252 0.133858 -0.0944882 
vn 0.968504 0.228346 -0.0944882 
vn 0.968504 0.228346 -0.0944882 
vn 0.0944882 0.125984 0.984252 
vn 0.0944882 0.125984 0.984252 
vn 0.0944882 0.212598 0.968504 
vn 0.0944882 0.212598 0.968504 
vn -0.0866142 0.125984 0.984252 
vn -0.0866142 0.212598 0.976378 
vn -0.0866142 0.125984 0.984252 
vn -0.0866142 0.212598 0.976378 
vn -1 -0.0629921 0.00787402 
vn -1 0 0 
vn -1 -0.0629921 0.00787402 
vn -1 0 0 
vn -1 -0.0629921 0.00787402 
vn -1 0 0 
vn -1 -0.0629921 0.00787402 
vn 0.984252 -0.173228 -0.0629921 
vn 0.952756 0.275591 0.133858 
vn 0.984252 -0.173228 -0.0629921 
vn 0.952756 0.275591 0.133858 
vn 0.984252 -0.173228 -0.0629921 
vn 0.779528 -0.582677 -0.244094 
vn 1 -0.0629921 0.00787402 
vn 1 -0.0629921 0.00787402 
vn 1 0 0 
vn 1 0 0 
vn 1 0 0 
vn 1 -0.0629921 0.00787402 
vn 1 -0.0629921 0.00787402 
vn -1 0 0 
vn -1 0 0 
vn -1 0 0 
vn -1 0 0 
vn -0.992126 0.110236 0.0551181 
vn -1 0 0 
vn -0.992126 0.110236 0.0551181 
vn -1 0 0 
vn 1 0 0 
vn 1 0 0 
vn 1 0 0 
vn 1 0 0 
vn 0.992126 0.110236 0.0551181 
vn 1 0 0 
vn 0.992126 0.110236 0.0551181 
vn 1 0 0 
vn -0.850394 -0.322835 -0.409449 
vn -0.480315 -0.425197 -0.771654 
vn -0.826772 -0.417323 -0.377953 
vn -0.496063 -0.299213 -0.811024 
vn -0.992126 -0.11811 0.023622 
vn -1 -0.0629921 0.00787402 
vn -0.992126 -0.11811 0.015748 
vn -1 -0.0629921 0.00787402 
vn -0.992126 -0.11811 0.023622 
vn -1 -0.0629921 0.00787402 
vn -0.992126 -0.11811 0.023622 
vn 0.992126 -0.11811 0.023622 
vn 0.992126 -0.11811 0.015748 
vn 1 -0.0629921 0.00787402 
vn 1 -0.0629921 0.00787402 
vn 1 -0.0629921 0.00787402 
vn 0.992126 -0.11811 0.023622 
vn 0.992126 -0.11811 0.023622 
vn 0.834646 -0.354331 -0.417323 
vn 0.456693 -0.456693 -0.76378 
vn 0.480315 -0.314961 -0.818898 
vn 0.795276 -0.472441 -0.377953 
vn -0.0944882 0.125984 -0.984252 
vn -0.0944882 0.125984 -0.984252 
vn -0.0944882 0.0393701 -0.992126 
vn -0.0944882 0.0393701 -0.992126 
vn 0.0866142 0.125984 -0.984252 
vn 0.0866142 0.0393701 -0.992126 
vn 0.0866142 0.125984 -0.984252 
vn 0.0866142 0.0393701 -0.992126 
vn -0.984252 -0.173228 -0.0629921 
vn -0.984252 -0.173228 -0.0629921 
vn -0.952756 0.275591 0.133858 
vn -0.952756 0.275591 0.133858 
vn 0 -0.228346 -0.976378 
vn 0 -0.228346 -0.976378 
vn 0 -0.401575 -0.913386 
vn 0 -0.401575 -0.913386 
vn 0 -0.559055 -0.826772 
vn 0 -0.559055 -0.826772 
vn -0.992126 0.0472441 0.0944882 
vn -0.984252 0.133858 0.0944882 
vn -0.984252 0.133858 0.0944882 
vn -0.992126 0.0472441 0.0944882 
vn 0.992126 0.0472441 0.0866142 
vn 0.984252 0.133858 0.0866142 
vn 0.992126 0.0472441 0.0866142 
vn 0.984252 0.133858 0.0866142 
vn 0.992126 0.0472441 0.0866142 
vn 0.984252 0.133858 0.0866142 
vn 0.992126 0.0472441 0.0866142 
vn 0.984252 0.133858 0.0866142 
vn -0.992126 0.0472441 0.110236 
vn -0.984252 0.133858 0.110236 
vn -0.984252 0.133858 0.110236 
vn -0.992126 0.0472441 0.110236 
vn 0.110236 0.0393701 0.992126 
vn 0.110236 0.0393701 0.992126 
vn 0.110236 0.125984 0.984252 
vn 0.110236 0.125984 0.984252 
vn -0.0866142 0.0393701 0.992126 
vn -0.0866142 0.125984 0.984252 
vn -0.0866142 0.0393701 0.992126 
vn -0.0866142 0.125984 0.984252 
vn -0.669291 0.440945 -0.598425 
vn 0.023622 0.574803 -0.818898 
vn 0.00787402 0.496063 -0.866142 
vn -0.0944882 0.212598 -0.968504 
vn -0.0944882 0.212598 -0.968504 
vn -0.0944882 0.125984 -0.984252 
vn -0.0944882 0.125984 -0.984252 
vn 0.0866142 0.212598 -0.976378 
vn 0.0866142 0.125984 -0.984252 
vn 0.0866142 0.212598 -0.976378 
vn 0.0866142 0.125984 -0.984252 
vn 0.692913 0.433071 -0.582677 
vn 0.00787402 0.496063 -0.866142 
vn 0.023622 0.574803 -0.818898 
vn 0.850394 0.102362 -0.519685 
vn 0.472441 0.0866142 -0.874016 
vn 0.692913 0.433071 -0.582677 
vn -0.984252 0.133858 0.0944882 
vn -0.968504 0.228346 0.0944882 
vn -0.968504 0.228346 0.0944882 
vn -0.984252 0.133858 0.0944882 
vn 0.984252 0.133858 0.0866142 
vn 0.968504 0.228346 0.0866142 
vn 0.984252 0.133858 0.0866142 
vn 0.968504 0.228346 0.0866142 
vn 0.984252 0.133858 0.0866142 
vn 0.968504 0.228346 0.0866142 
vn 0.984252 0.133858 0.0866142 
vn 0.968504 0.228346 0.0866142 
vn -0.984252 0.133858 0.110236 
vn -0.968504 0.228346 0.110236 
vn -0.968504 0.228346 0.110236 
vn -0.984252 0.133858 0.110236 
vn 0.110236 0.125984 0.984252 
vn 0.110236 0.125984 0.984252 
vn 0.110236 0.212598 0.968504 
vn 0.110236 0.212598 0.968504 
vn -0.0866142 0.125984 0.984252 
vn -0.0866142 0.212598 0.976378 
vn -0.0866142 0.125984 0.984252 
vn -0.0866142 0.212598 0.976378 
vn -0.496063 -0.299213 -0.811024 
vn 0.456693 -0.456693 -0.76378 
vn -0.480315 -0.425197 -0.771654 
vn 0.480315 -0.314961 -0.818898 
vn 0.472441 0.0866142 -0.874016 
vn 0.480315 -0.314961 -0.818898 
vn -0.472441 0.0866142 -0.88189 
vn 0.00787402 0.496063 -0.866142 
vn -0.496063 -0.299213 -0.811024 
vn 0.456693 -0.456693 -0.76378 
vn -0.480315 -0.425197 -0.771654 
vn 0.480315 -0.314961 -0.818898 
vn 0.472441 0.0866142 -0.874016 
vn 0.480315 -0.314961 -0.818898 
vn -0.472441 0.0866142 -0.88189 
vn 0.00787402 0.496063 -0.866142 
vn 0 -0.551181 0.834646 
vn 0 -0.551181 0.834646 
vn 0 -0.795276 0.606299 
vn -0.84252 0.102362 -0.527559 
vn 0.00787402 0.496063 -0.866142 
vn -0.472441 0.0866142 -0.88189 
vn -0.669291 0.440945 -0.598425 
vn -0.496063 -0.299213 -0.811024 
vn -0.472441 0.0866142 -0.88189 
vn -0.850394 -0.322835 -0.409449 
vn 0 -0.787402 0.622047 
vn 0 -0.787402 0.622047 
vn 0 -0.685039 0.724409 
vn 0 -0.685039 0.724409 
vn 0.850394 0.102362 -0.519685 
vn 0.480315 -0.314961 -0.818898 
vn 0.472441 0.0866142 -0.874016 
vn 0.834646 -0.354331 -0.417323 
vn -0.850394 -0.322835 -0.409449 
vn -0.480315 -0.425197 -0.771654 
vn -0.826772 -0.417323 -0.377953 
vn -0.496063 -0.299213 -0.811024 
vn 0.834646 -0.354331 -0.417323 
vn 0.456693 -0.456693 -0.76378 
vn 0.480315 -0.314961 -0.818898 
vn 0.795276 -0.472441 -0.377953 
vn 0 -0.685039 0.724409 
vn 0 -0.685039 0.724409 
vn 0 -0.433071 0.905512 
vn 0 -0.433071 0.905512 
vn 0 -0.251969 0.968504 
vn 0 -0.551181 0.834646 
vn 0 -0.251969 0.968504 
vn 0 -0.551181 0.834646 

vt 0.677235 0.605152 
vt 0.687257 0.516521 
vt 0.748626 0.568709 
vt 0.677235 0.605152 
vt 0.612635 0.520545 
vt 0.687257 0.516521 
vt 0.609163 0.574507 
vt 0.500202 0.521831 
vt 0.374453 0.57148 
vt 0.37514 0.520264 
vt 0.498282 0.570383 
vt 0.612635 0.520545 
vt 0.498282 0.570383 
vt 0.609163 0.574507 
vt 0.901369 0.916183 
vt 0.813021 0.84004 
vt 0.893507 0.833102 
vt 0.821116 0.925618 
vt 0.893507 0.833102 
vt 0.821116 0.925618 
vt 0.901369 0.916183 
vt 0.813044 0.840236 
vt 0.813021 0.84004 
vt 0.901369 0.916183 
vt 0.821116 0.925618 
vt 0.893507 0.833102 
vt 0.821116 0.925618 
vt 0.893507 0.833102 
vt 0.813021 0.84004 
vt 0.901369 0.916183 
vt 0.894803 0.470704 
vt 0.895225 0.583234 
vt 0.82135 0.471404 
vt 0.822698 0.583684 
vt 0.896488 0.679027 
vt 0.822941 0.679737 
vt 0.707272 0.182523 
vt 0.851696 0.019612 
vt 0.989469 0.182357 
vt 0.992848 0.014168 
vt 0.851785 0.345268 
vt 0.710056 0.349963 
vt 0.992703 0.350493 
vt 0.851696 0.019612 
vt 0.707272 0.182523 
vt 0.709917 0.015226 
vt 0.446358 0.183287 
vt 0.425227 0.34988 
vt 0.37072 0.183478 
vt 0.371095 0.351656 
vt 0.47667 0.348276 
vt 0.518679 0.183061 
vt 0.37072 0.183478 
vt 0.370517 0.015319 
vt 0.467107 0.016848 
vt 0.559311 0.018068 
vt 0.626817 0.182752 
vt 0.64196 0.016368 
vt 0.613751 0.349159 
vt 0.47667 0.348276 
vt 0.707272 0.182523 
vt 0.709917 0.015226 
vt 0.710056 0.349963 
vt 0.626817 0.182752 
vt 0.613751 0.349159 
vt 0.355903 0.171636 
vt 0.254673 0.012641 
vt 0.351848 0.017046 
vt 0.165985 0.169129 
vt 0.355903 0.171636 
vt 0.169237 0.320271 
vt 0.362213 0.330025 
vt 0.399182 0.672452 
vt 0.347865 0.831212 
vt 0.346049 0.680053 
vt 0.450833 0.822082 
vt 0.449993 0.670323 
vt 0.585023 0.677583 
vt 0.677959 0.835995 
vt 0.677831 0.696274 
vt 0.449837 0.967866 
vt 0.677702 0.975151 
vt 0.449837 0.967866 
vt 0.347865 0.831212 
vt 0.34442 0.979749 
vt 0.254673 0.012641 
vt 0.165985 0.169129 
vt 0.162319 0.013066 
vt 0.080291 0.022033 
vt 0.162319 0.013066 
vt 0.165985 0.169129 
vt 0.080291 0.022033 
vt 0.165985 0.169129 
vt 0.018462 0.183941 
vt 0.014968 0.042101 
vt 0.169237 0.320271 
vt 0.018462 0.183941 
vt 0.165985 0.169129 
vt 0.017859 0.323063 
vt 0.992726 0.41136 
vt 0.975376 0.422773 
vt 0.959327 0.393543 
vt 0.99286 0.393536 
vt 0.959327 0.393543 
vt 0.992994 0.375713 
vt 0.99286 0.393536 
vt 0.974491 0.365414 
vt 0.959327 0.393543 
vt 0.992994 0.375713 
vt 0.99286 0.393536 
vt 0.974491 0.365414 
vt 0.992726 0.41136 
vt 0.975376 0.422773 
vt 0.959327 0.393543 
vt 0.99286 0.393536 
vt 0.932744 0.417928 
vt 0.959327 0.393543 
vt 0.957577 0.426645 
vt 0.956843 0.360643 
vt 0.959327 0.393543 
vt 0.931647 0.36829 
vt 0.931647 0.36829 
vt 0.959327 0.393543 
vt 0.898604 0.393345 
vt 0.898604 0.393345 
vt 0.959327 0.393543 
vt 0.932744 0.417928 
vt 0.959327 0.393543 
vt 0.956843 0.360643 
vt 0.974491 0.365414 
vt 0.932744 0.417928 
vt 0.959327 0.393543 
vt 0.957577 0.426645 
vt 0.957577 0.426645 
vt 0.959327 0.393543 
vt 0.975376 0.422773 
vt 0.956843 0.360643 
vt 0.959327 0.393543 
vt 0.931647 0.36829 
vt 0.931647 0.36829 
vt 0.959327 0.393543 
vt 0.898604 0.393345 
vt 0.898604 0.393345 
vt 0.959327 0.393543 
vt 0.932744 0.417928 
vt 0.959327 0.393543 
vt 0.956843 0.360643 
vt 0.974491 0.365414 
vt 0.957577 0.426645 
vt 0.959327 0.393543 
vt 0.975376 0.422773 
vt 0.014233 0.677588 
vt 0.179778 0.673126 
vt 0.006941 0.829242 
vt 0.17801 0.988948 
vt 0.012408 0.986674 
vt 0.346049 0.680053 
vt 0.347865 0.831212 
vt 0.347865 0.831212 
vt 0.17801 0.988948 
vt 0.34442 0.979749 
vt 0.645003 0.660731 
vt 0.677235 0.605152 
vt 0.72568 0.670971 
vt 0.806488 0.739554 
vt 0.757938 0.748166 
vt 0.757882 0.698424 
vt 0.820822 0.777163 
vt 0.78056 0.779015 
vt 0.806488 0.739554 
vt 0.245218 0.659681 
vt 0.013892 0.658002 
vt 0.205935 0.491441 
vt 0.017666 0.48936 
vt 0.362213 0.330025 
vt 0.356964 0.496741 
vt 0.205935 0.491441 
vt 0.169237 0.320271 
vt 0.356964 0.496741 
vt 0.352497 0.665405 
vt 0.245218 0.659681 
vt 0.205935 0.491441 
vt 0.205935 0.491441 
vt 0.017666 0.48936 
vt 0.169237 0.320271 
vt 0.017859 0.323063 
vt 0.709661 0.738325 
vt 0.757882 0.698424 
vt 0.757938 0.748166 
vt 0.890608 0.436707 
vt 0.824913 0.437291 
vt 0.82465 0.405224 
vt 0.8903 0.404649 
vt 0.894803 0.470704 
vt 0.82135 0.471404 
vt 0.695866 0.77597 
vt 0.757938 0.748166 
vt 0.736249 0.778308 
vt 0.709661 0.738325 
vt 0.740929 0.80242 
vt 0.736249 0.778308 
vt 0.698524 0.80311 
vt 0.923212 0.834514 
vt 0.962322 0.902212 
vt 0.930436 0.908734 
vt 0.955391 0.834961 
vt 0.923212 0.834514 
vt 0.930436 0.908734 
vt 0.962322 0.902212 
vt 0.955391 0.834961 
vt 0.955391 0.834961 
vt 0.964389 0.773823 
vt 0.933036 0.765791 
vt 0.923212 0.834514 
vt 0.933036 0.765791 
vt 0.955391 0.834961 
vt 0.923212 0.834514 
vt 0.964389 0.773823 
vt 0.923212 0.834514 
vt 0.964389 0.773823 
vt 0.933036 0.765791 
vt 0.955391 0.834961 
vt 0.964389 0.773823 
vt 0.955391 0.834961 
vt 0.923212 0.834514 
vt 0.933036 0.765791 
vt 0.955391 0.834961 
vt 0.962322 0.902212 
vt 0.930436 0.908734 
vt 0.923212 0.834514 
vt 0.955391 0.834961 
vt 0.930436 0.908734 
vt 0.962322 0.902212 
vt 0.923212 0.834514 
vt 0.893507 0.833102 
vt 0.930436 0.908734 
vt 0.901369 0.916183 
vt 0.923212 0.834514 
vt 0.893507 0.833102 
vt 0.901369 0.916183 
vt 0.930436 0.908734 
vt 0.923212 0.834514 
vt 0.923212 0.834514 
vt 0.933036 0.765791 
vt 0.904609 0.757308 
vt 0.893507 0.833102 
vt 0.904609 0.757308 
vt 0.923212 0.834514 
vt 0.893507 0.833102 
vt 0.933036 0.765791 
vt 0.820822 0.777163 
vt 0.775557 0.802841 
vt 0.78056 0.779015 
vt 0.818361 0.804224 
vt 0.893507 0.833102 
vt 0.933036 0.765791 
vt 0.904609 0.757308 
vt 0.923212 0.834514 
vt 0.933036 0.765791 
vt 0.923212 0.834514 
vt 0.893507 0.833102 
vt 0.904609 0.757308 
vt 0.923212 0.834514 
vt 0.930436 0.908734 
vt 0.901369 0.916183 
vt 0.893507 0.833102 
vt 0.923212 0.834514 
vt 0.901369 0.916183 
vt 0.930436 0.908734 
vt 0.893507 0.833102 
vt 0.790022 0.584828 
vt 0.760102 0.494165 
vt 0.791985 0.48959 
vt 0.760653 0.586421 
vt 0.790022 0.584828 
vt 0.76503 0.666458 
vt 0.792838 0.66747 
vt 0.687257 0.516521 
vt 0.607554 0.476086 
vt 0.676123 0.456916 
vt 0.612635 0.520545 
vt 0.676123 0.456916 
vt 0.75604 0.473559 
vt 0.927915 0.583797 
vt 0.924443 0.488507 
vt 0.956393 0.492598 
vt 0.957305 0.584911 
vt 0.954194 0.664945 
vt 0.927915 0.583797 
vt 0.926405 0.666377 
vt 0.513368 0.61391 
vt 0.411025 0.618346 
vt 0.498282 0.570383 
vt 0.374453 0.57148 
vt 0.59646 0.616086 
vt 0.513368 0.61391 
vt 0.609163 0.574507 
vt 0.498282 0.570383 
vt 0.500202 0.521831 
vt 0.413362 0.474466 
vt 0.517016 0.479016 
vt 0.37514 0.520264 
vt 0.612635 0.520545 
vt 0.517016 0.479016 
vt 0.607554 0.476086 
vt 0.500202 0.521831 
vt 0.698524 0.80311 
vt 0.748727 0.831324 
vt 0.710903 0.830919 
vt 0.740929 0.80242 
vt 0.822698 0.583684 
vt 0.791985 0.48959 
vt 0.82135 0.471404 
vt 0.790022 0.584828 
vt 0.822698 0.583684 
vt 0.792838 0.66747 
vt 0.822941 0.679737 
vt 0.895225 0.583234 
vt 0.894803 0.470704 
vt 0.924443 0.488507 
vt 0.927915 0.583797 
vt 0.926405 0.666377 
vt 0.895225 0.583234 
vt 0.896488 0.679027 
vt 0.818361 0.804224 
vt 0.767355 0.830636 
vt 0.775557 0.802841 
vt 0.805307 0.83107 
vt 0.933036 0.765791 
vt 0.962256 0.697477 
vt 0.991562 0.710431 
vt 0.964389 0.773823 
vt 0.933036 0.765791 
vt 0.991562 0.710431 
vt 0.962256 0.697477 
vt 0.964389 0.773823 
vt 0.677235 0.605152 
vt 0.645003 0.660731 
vt 0.59646 0.616086 
vt 0.609163 0.574507 
vt 0.893098 0.73866 
vt 0.82742 0.739235 
vt 0.827146 0.711557 
vt 0.892879 0.710972 
vt 0.822941 0.679737 
vt 0.896488 0.679027 
vt 0.962322 0.902212 
vt 0.953234 0.974424 
vt 0.930436 0.908734 
vt 0.983516 0.963033 
vt 0.962322 0.902212 
vt 0.953234 0.974424 
vt 0.983516 0.963033 
vt 0.930436 0.908734 
vt 0.983516 0.963033 
vt 0.930436 0.908734 
vt 0.962322 0.902212 
vt 0.953234 0.974424 
vt 0.983516 0.963033 
vt 0.930436 0.908734 
vt 0.953234 0.974424 
vt 0.962322 0.902212 
vt 0.964389 0.773823 
vt 0.991562 0.710431 
vt 0.962256 0.697477 
vt 0.933036 0.765791 
vt 0.964389 0.773823 
vt 0.962256 0.697477 
vt 0.991562 0.710431 
vt 0.933036 0.765791 
vt 0.709661 0.738325 
vt 0.757882 0.698424 
vt 0.757938 0.748166 
vt 0.904609 0.757308 
vt 0.937923 0.679496 
vt 0.962256 0.697477 
vt 0.933036 0.765791 
vt 0.904609 0.757308 
vt 0.962256 0.697477 
vt 0.937923 0.679496 
vt 0.933036 0.765791 
vt 0.806488 0.739554 
vt 0.757938 0.748166 
vt 0.757882 0.698424 
vt 0.820822 0.777163 
vt 0.78056 0.779015 
vt 0.806488 0.739554 
vt 0.930436 0.908734 
vt 0.928145 0.990732 
vt 0.901369 0.916183 
vt 0.953234 0.974424 
vt 0.930436 0.908734 
vt 0.928145 0.990732 
vt 0.953234 0.974424 
vt 0.901369 0.916183 
vt 0.953234 0.974424 
vt 0.901369 0.916183 
vt 0.930436 0.908734 
vt 0.928145 0.990732 
vt 0.953234 0.974424 
vt 0.901369 0.916183 
vt 0.928145 0.990732 
vt 0.930436 0.908734 
vt 0.933036 0.765791 
vt 0.962256 0.697477 
vt 0.937923 0.679496 
vt 0.904609 0.757308 
vt 0.933036 0.765791 
vt 0.937923 0.679496 
vt 0.962256 0.697477 
vt 0.904609 0.757308 
vt 0.740929 0.80242 
vt 0.767355 0.830636 
vt 0.748727 0.831324 
vt 0.775557 0.802841 
vt 0.78056 0.779015 
vt 0.775557 0.802841 
vt 0.736249 0.778308 
vt 0.757938 0.748166 
vt 0.740929 0.80242 
vt 0.767355 0.830636 
vt 0.748727 0.831324 
vt 0.775557 0.802841 
vt 0.78056 0.779015 
vt 0.775557 0.802841 
vt 0.736249 0.778308 
vt 0.757938 0.748166 
vt 0.676123 0.456916 
vt 0.635841 0.375254 
vt 0.716132 0.385684 
vt 0.695866 0.77597 
vt 0.757938 0.748166 
vt 0.736249 0.778308 
vt 0.709661 0.738325 
vt 0.740929 0.80242 
vt 0.736249 0.778308 
vt 0.698524 0.80311 
vt 0.413362 0.474466 
vt 0.415616 0.424634 
vt 0.514696 0.429232 
vt 0.517016 0.479016 
vt 0.820822 0.777163 
vt 0.775557 0.802841 
vt 0.78056 0.779015 
vt 0.818361 0.804224 
vt 0.698524 0.80311 
vt 0.748727 0.831324 
vt 0.710903 0.830919 
vt 0.740929 0.80242 
vt 0.818361 0.804224 
vt 0.767355 0.830636 
vt 0.775557 0.802841 
vt 0.805307 0.83107 
vt 0.517016 0.479016 
vt 0.514696 0.429232 
vt 0.593725 0.426172 
vt 0.607554 0.476086 
vt 0.593725 0.426172 
vt 0.635841 0.375254 
vt 0.607554 0.476086 
vt 0.676123 0.456916 

usemtl Pet1Mtl

f 1/1/1 2/2/2 3/3/3 
f 4/4/4 5/5/5 6/6/6 
f 5/5/5 4/4/4 7/7/7 
f 8/8/8 9/9/9 10/10/10 
f 9/9/9 8/8/8 11/11/11 
f 12/12/12 13/13/13 8/8/8 
f 14/14/14 13/13/13 12/12/12 
f 15/15/15 16/16/16 17/17/17 
f 16/16/16 15/15/15 18/18/18 
f 19/19/19 20/20/20 21/21/21 
f 20/20/20 19/19/19 22/22/22 
f 23/23/23 24/24/24 25/25/25 
f 24/24/24 23/23/23 26/26/26 
f 27/27/27 28/28/28 29/29/29 
f 28/28/28 27/27/27 30/30/30 
f 31/31/31 32/32/32 33/33/33 
f 33/33/33 32/32/32 34/34/34 
f 35/35/35 34/34/34 32/32/32 
f 34/34/34 35/35/35 36/36/36 
f 37/37/37 38/38/38 39/39/39 
f 38/38/38 40/40/40 39/39/39 
f 41/41/41 37/37/37 39/39/39 
f 37/37/37 41/41/41 42/42/42 
f 41/41/41 39/39/39 43/43/43 
f 44/44/44 45/45/45 46/46/46 
f 47/47/47 48/48/48 49/49/49 
f 50/50/50 49/49/49 48/48/48 
f 48/48/48 47/47/47 51/51/51 
f 52/52/52 51/51/51 47/47/47 
f 53/53/53 54/54/54 47/47/47 
f 55/55/55 47/47/47 54/54/54 
f 47/47/47 55/55/55 52/52/52 
f 56/56/56 52/52/52 55/55/55 
f 52/52/52 56/56/56 57/57/57 
f 58/58/58 57/57/57 56/56/56 
f 52/52/52 57/57/57 59/59/59 
f 60/60/60 52/52/52 59/59/59 
f 57/57/57 58/58/58 61/61/61 
f 62/62/62 61/61/61 58/58/58 
f 61/61/61 63/63/63 64/64/64 
f 65/65/65 64/64/64 63/63/63 
f 66/66/66 67/67/67 68/68/68 
f 67/67/67 66/66/66 69/69/69 
f 70/70/70 71/71/71 69/69/69 
f 70/70/70 72/72/72 71/71/71 
f 73/73/73 74/74/74 75/75/75 
f 74/74/74 73/73/73 76/76/76 
f 73/73/73 77/77/77 76/76/76 
f 78/78/78 76/76/76 77/77/77 
f 76/76/76 78/78/78 79/79/79 
f 78/78/78 80/80/80 79/79/79 
f 76/76/76 79/79/79 81/81/81 
f 81/81/81 79/79/79 82/82/82 
f 83/83/83 84/84/84 76/76/76 
f 84/84/84 83/83/83 85/85/85 
f 86/86/86 87/87/87 88/88/88 
f 89/89/89 90/90/90 91/91/91 
f 92/92/92 93/93/93 94/94/94 
f 92/92/92 94/94/94 95/95/95 
f 96/96/96 97/97/97 98/98/98 
f 97/97/97 96/96/96 99/99/99 
f 100/100/100 101/101/101 102/102/102 
f 102/102/102 103/103/103 100/100/100 
f 104/104/104 105/105/105 106/106/106 
f 105/105/105 104/104/104 107/107/107 
f 108/108/108 109/109/109 110/110/110 
f 109/109/109 108/108/108 111/111/111 
f 112/112/112 113/113/113 114/114/114 
f 114/114/114 115/115/115 112/112/112 
f 116/116/116 117/117/117 118/118/118 
f 119/119/119 120/120/120 121/121/121 
f 122/122/122 123/123/123 124/124/124 
f 125/125/125 126/126/126 127/127/127 
f 128/128/128 129/129/129 130/130/130 
f 131/131/131 132/132/132 133/133/133 
f 134/134/134 135/135/135 136/136/136 
f 137/137/137 138/138/138 139/139/139 
f 140/140/140 141/141/141 142/142/142 
f 143/143/143 144/144/144 145/145/145 
f 146/146/146 147/147/147 148/148/148 
f 149/149/149 150/150/150 151/151/151 
f 152/152/152 153/153/153 154/154/154 
f 155/155/155 154/154/154 153/153/153 
f 154/154/154 155/155/155 156/156/156 
f 153/153/153 157/157/157 158/158/158 
f 159/159/159 160/160/160 153/153/153 
f 160/160/160 159/159/159 161/161/161 
f 162/162/162 163/163/163 164/164/164 
f 165/165/165 166/166/166 167/167/167 
f 166/166/166 168/168/168 169/169/169 
f 168/168/168 166/166/166 170/170/170 
f 171/171/171 172/172/172 173/173/173 
f 173/173/173 172/172/172 174/174/174 
f 175/175/175 176/176/176 177/177/177 
f 175/175/175 177/177/177 178/178/178 
f 179/179/179 180/180/180 181/181/181 
f 179/179/179 181/181/181 182/182/182 
f 183/183/183 184/184/184 185/185/185 
f 185/185/185 184/184/184 186/186/186 
f 187/187/187 188/188/188 189/189/189 
f 190/190/190 191/191/191 192/192/192 
f 190/190/190 192/192/192 193/193/193 
f 194/194/194 191/191/191 190/190/190 
f 194/194/194 195/195/195 191/191/191 
f 196/196/196 197/197/197 198/198/198 
f 197/197/197 196/196/196 199/199/199 
f 200/200/200 196/196/196 201/201/201 
f 196/196/196 200/200/200 202/202/202 
f 203/203/203 204/204/204 205/205/205 
f 204/204/204 203/203/203 206/206/206 
f 207/207/207 208/208/208 209/209/209 
f 207/207/207 209/209/209 210/210/210 
f 211/211/211 212/212/212 213/213/213 
f 213/213/213 214/214/214 211/211/211 
f 215/215/215 216/216/216 217/217/217 
f 216/216/216 215/215/215 218/218/218 
f 219/219/219 220/220/220 221/221/221 
f 220/220/220 219/219/219 222/222/222 
f 223/223/223 224/224/224 225/225/225 
f 225/225/225 226/226/226 223/223/223 
f 227/227/227 228/228/228 229/229/229 
f 227/227/227 229/229/229 230/230/230 
f 231/231/231 232/232/232 233/233/233 
f 232/232/232 231/231/231 234/234/234 
f 235/235/235 236/236/236 237/237/237 
f 236/236/236 235/235/235 238/238/238 
f 239/239/239 240/240/240 241/241/241 
f 239/239/239 241/241/241 242/242/242 
f 243/243/243 244/244/244 245/245/245 
f 245/245/245 246/246/246 243/243/243 
f 247/247/247 248/248/248 249/249/249 
f 248/248/248 247/247/247 250/250/250 
f 251/251/251 252/252/252 253/253/253 
f 252/252/252 251/251/251 254/254/254 
f 255/255/255 256/256/256 257/257/257 
f 256/256/256 255/255/255 258/258/258 
f 259/259/259 260/260/260 261/261/261 
f 261/261/261 262/262/262 259/259/259 
f 263/263/263 264/264/264 265/265/265 
f 265/265/265 266/266/266 263/263/263 
f 267/267/267 268/268/268 269/269/269 
f 268/268/268 267/267/267 270/270/270 
f 271/271/271 272/272/272 273/273/273 
f 272/272/272 271/271/271 274/274/274 
f 275/275/275 276/276/276 274/274/274 
f 276/276/276 275/275/275 277/277/277 
f 278/278/278 279/279/279 280/280/280 
f 279/279/279 278/278/278 281/281/281 
f 278/278/278 282/282/282 283/283/283 
f 284/284/284 285/285/285 286/286/286 
f 286/286/286 287/287/287 284/284/284 
f 288/288/288 289/289/289 287/287/287 
f 289/289/289 288/288/288 290/290/290 
f 291/291/291 292/292/292 293/293/293 
f 294/294/294 293/293/293 292/292/292 
f 295/295/295 296/296/296 297/297/297 
f 298/298/298 297/297/297 296/296/296 
f 299/299/299 300/300/300 301/301/301 
f 300/300/300 299/299/299 302/302/302 
f 303/303/303 304/304/304 305/305/305 
f 304/304/304 303/303/303 306/306/306 
f 307/307/307 308/308/308 309/309/309 
f 308/308/308 307/307/307 310/310/310 
f 311/311/311 312/312/312 313/313/313 
f 312/312/312 311/311/311 314/314/314 
f 315/315/315 316/316/316 314/314/314 
f 315/315/315 317/317/317 316/316/316 
f 318/318/318 319/319/319 320/320/320 
f 320/320/320 321/321/321 318/318/318 
f 321/321/321 322/322/322 323/323/323 
f 324/324/324 323/323/323 322/322/322 
f 325/325/325 326/326/326 327/327/327 
f 326/326/326 325/325/325 328/328/328 
f 329/329/329 330/330/330 331/331/331 
f 329/329/329 331/331/331 332/332/332 
f 333/333/333 334/334/334 335/335/335 
f 334/334/334 333/333/333 336/336/336 
f 337/337/337 338/338/338 339/339/339 
f 337/337/337 339/339/339 340/340/340 
f 341/341/341 342/342/342 343/343/343 
f 341/341/341 343/343/343 344/344/344 
f 344/344/344 343/343/343 345/345/345 
f 344/344/344 345/345/345 346/346/346 
f 347/347/347 348/348/348 349/349/349 
f 348/348/348 347/347/347 350/350/350 
f 351/351/351 352/352/352 353/353/353 
f 352/352/352 351/351/351 354/354/354 
f 355/355/355 356/356/356 357/357/357 
f 356/356/356 355/355/355 358/358/358 
f 359/359/359 360/360/360 361/361/361 
f 360/360/360 359/359/359 362/362/362 
f 363/363/363 364/364/364 365/365/365 
f 363/363/363 365/365/365 366/366/366 
f 367/367/367 368/368/368 369/369/369 
f 368/368/368 367/367/367 370/370/370 
f 371/371/371 372/372/372 373/373/373 
f 374/374/374 375/375/375 376/376/376 
f 374/374/374 376/376/376 377/377/377 
f 378/378/378 379/379/379 380/380/380 
f 379/379/379 378/378/378 381/381/381 
f 382/382/382 383/383/383 384/384/384 
f 383/383/383 385/385/385 386/386/386 
f 385/385/385 383/383/383 387/387/387 
f 388/388/388 389/389/389 390/390/390 
f 389/389/389 388/388/388 391/391/391 
f 392/392/392 393/393/393 394/394/394 
f 393/393/393 392/392/392 395/395/395 
f 396/396/396 397/397/397 398/398/398 
f 397/397/397 396/396/396 399/399/399 
f 400/400/400 401/401/401 402/402/402 
f 401/401/401 400/400/400 403/403/403 
f 404/404/404 405/405/405 406/406/406 
f 406/406/406 407/407/407 404/404/404 
f 408/408/408 409/409/409 410/410/410 
f 409/409/409 408/408/408 411/411/411 
f 412/412/412 413/413/413 414/414/414 
f 413/413/413 412/412/412 415/415/415 
f 412/412/412 416/416/416 417/417/417 
f 416/416/416 412/412/412 418/418/418 
f 416/416/416 418/418/418 419/419/419 
f 420/420/420 421/421/421 422/422/422 
f 421/421/421 420/420/420 423/423/423 
f 420/420/420 424/424/424 425/425/425 
f 424/424/424 420/420/420 426/426/426 
f 424/424/424 426/426/426 427/427/427 
f 428/428/428 429/429/429 430/430/430 
f 431/431/431 432/432/432 433/433/433 
f 432/432/432 431/431/431 434/434/434 
f 435/435/435 431/431/431 436/436/436 
f 431/431/431 435/435/435 437/437/437 
f 438/438/438 439/439/439 440/440/440 
f 438/438/438 440/440/440 441/441/441 
f 442/442/442 443/443/443 444/444/444 
f 443/443/443 442/442/442 445/445/445 
f 446/446/446 447/447/447 448/448/448 
f 447/447/447 446/446/446 449/449/449 
f 450/450/450 451/451/451 452/452/452 
f 451/451/451 450/450/450 453/453/453 
f 454/454/454 455/455/455 456/456/456 
f 454/454/454 456/456/456 457/457/457 
f 458/458/458 459/459/459 460/460/460 
f 460/460/460 459/459/459 461/461/461 

