# This file is brought to you by Roblox Corporation
# Generated by Roblox Studio

mtllib pappypoisedon.mtl

g Pet1

v 0.456649 1.08252 -1.30051 
v 0.457483 0.807297 -1.65894 
v 0.223072 1.08276 -1.30182 
v 0.223905 0.807545 -1.66026 
v 0.456649 1.08252 -1.30051 
v 0.720223 1.18712 -1.3108 
v 0.591226 0.734405 -1.22658 
v 0.521886 1.1338 -1.30421 
v 0.424837 1.20666 -1.31972 
v 0.339861 1.08171 -1.3026 
v 0.272928 1.21787 -1.32453 
v 0.351232 1.39258 -1.35624 
v 0.223072 1.08276 -1.30182 
v 0.179375 1.14105 -1.31164 
v -0.0275622 1.20042 -1.32654 
v 0.0832852 0.733825 -1.22875 
v 0.431871 -1.39239 0.757582 
v 0.826268 -1.39239 0.302165 
v 0.866718 -1.39239 0.714973 
v 0.391421 -1.39239 0.344774 
v -0.178561 -1.39239 0.130712 
v 0.292847 -1.39239 -0.244426 
v 0.256707 -1.39239 0.168782 
v -0.142421 -1.39239 -0.282496 
v 0.408527 -1.39239 0.167103 
v 0.795139 -1.39239 -0.294942 
v 0.842589 -1.39239 0.11712 
v 0.361077 -1.39239 -0.244958 
v -0.162756 -1.39351 1.33007 
v -0.111385 -1.32051 1.40301 
v -0.246605 -1.35942 1.4031 
v -0.162756 -1.39351 1.33007 
v -0.246605 -1.35942 1.4031 
v -0.250161 -1.34745 1.26299 
v -1.09246 0.601043 1.52292 
v -1.12347 0.156321 1.58013 
v -1.07949 0.607717 1.59455 
v -1.15043 0.111845 1.48243 
v 0.325397 -1.07298 -0.628717 
v -0.505427 -0.328127 -0.628717 
v 0.325395 0.37298 -0.628859 
v -0.53191 0.391865 -0.628822 
v -0.531902 -1.04989 -0.628717 
v 1.15651 -0.328127 -0.628717 
v 1.1827 -1.04989 -0.628717 
v 1.1827 0.390748 -0.628889 
v -0.947909 0.21752 1.59693 
v -0.875875 0.238327 1.64631 
v -0.896683 0.310362 1.59693 
v 0.325397 -1.17571 0.699775 
v 1.1752 -1.17321 0.811783 
v 0.325397 -1.16263 1.08589 
v 1.1827 -1.13539 1.08589 
v -0.531903 -1.13539 1.08589 
v 1.16803 -1.18428 0.549504 
v -0.524072 -1.17375 0.593849 
v 0.325397 -1.18917 0.33032 
v 1.17547 -1.14673 -0.148207 
v -0.516572 -1.18533 0.123037 
v 0.325397 -1.14673 -0.222395 
v 1.1827 -1.04989 -0.628717 
v -0.524672 -1.14673 -0.296583 
v 0.325397 -1.07298 -0.628717 
v -0.531902 -1.04989 -0.628717 
v -0.772353 0.267701 1.58298 
v -0.659607 0.300266 1.66026 
v -0.692175 0.413012 1.58298 
v -1.09246 0.601043 1.52292 
v -1.1281 0.172399 1.39251 
v -1.15043 0.111845 1.48243 
v -1.08299 0.619854 1.45292 
v -0.343416 -1.21691 1.47332 
v -0.111385 -1.32051 1.40301 
v -0.103723 -1.14704 1.47324 
v -0.246605 -1.35942 1.4031 
v -0.821747 0.396014 1.58523 
v -0.914629 1.20084 1.56993 
v -0.851995 0.455083 1.50448 
v -0.821747 0.396014 1.58523 
v -0.851995 0.455083 1.50448 
v -0.924606 0.342705 1.58368 
v -0.923678 0.40639 1.50208 
v -0.517744 0.343076 1.59693 
v -0.445709 0.363883 1.64631 
v -0.466517 0.435918 1.59693 
v -0.246605 -1.35942 1.4031 
v -0.350782 -1.19197 1.22506 
v -0.250161 -1.34745 1.26299 
v -0.343416 -1.21691 1.47332 
v 1.1752 -1.17321 0.811783 
v 1.20891 -0.349742 1.08589 
v 1.1827 -1.13539 1.08589 
v 1.16803 -0.398635 0.549504 
v 1.16803 -1.18428 0.549504 
v 1.17547 -1.14673 -0.148207 
v 1.1687 0.354613 0.547589 
v 1.1823 0.42308 1.08779 
v 1.15651 -0.328127 -0.628717 
v 1.1827 -1.04989 -0.628717 
v 1.1827 0.390748 -0.628889 
v -0.0124405 -1.37805 1.12881 
v -0.44919 -1.36668 1.13413 
v -0.414091 -1.2757 1.01377 
v -0.0456752 -1.28528 1.00929 
v -0.406437 -1.13607 0.76829 
v -0.052924 -1.14527 0.76399 
v -0.437279 -0.991086 1.30972 
v -0.0124405 -1.37805 1.12881 
v -0.000529023 -1.00245 1.3044 
v -0.44919 -1.36668 1.13413 
v 0.592923 0.459766 -1.55105 
v 0.0849817 0.459185 -1.55322 
v 0.223905 0.807545 -1.66026 
v 0.457483 0.807297 -1.65894 
v 0.638041 0.207336 -1.28987 
v 0.0356362 0.206076 -1.29112 
v 0.490709 0.058663 -0.606757 
v 0.170077 0.0576197 -0.607394 
v -0.947909 0.21752 1.59693 
v -0.855069 0.166293 1.59693 
v -0.875875 0.238327 1.64631 
v -0.450381 0.479149 1.59011 
v -0.182604 0.427026 1.59289 
v -0.464511 0.799217 1.5901 
v -0.375575 0.255746 1.58951 
v -0.658503 0.981201 1.5448 
v -0.34029 0.846385 1.5254 
v -0.565729 0.469675 1.5887 
v -0.602923 0.117516 1.58258 
v -0.693376 0.431879 1.58697 
v -0.914629 1.20084 1.56993 
v -1.01101 0.864938 1.54352 
v -1.20892 0.581622 1.52413 
v -1.07949 0.607717 1.59455 
v -0.924606 0.342705 1.58368 
v -1.12347 0.156321 1.58013 
v -0.869122 0.113743 1.58281 
v -0.821747 0.396014 1.58523 
v -0.602923 0.117516 1.58258 
v -0.693376 0.431879 1.58697 
v -0.914629 1.20084 1.56993 
v -0.111197 -1.24483 -0.247192 
v 0.247926 -1.07902 -0.208678 
v 0.255969 -1.24483 -0.215078 
v -0.104387 -1.07902 -0.239492 
v -0.772353 0.267701 1.58298 
v -0.627042 0.187522 1.58298 
v -0.659607 0.300266 1.66026 
v 0.764893 -1.24483 -0.258796 
v 0.398746 -1.24483 -0.216633 
v 0.406961 -1.07902 -0.210455 
v 0.758298 -1.07902 -0.250912 
v -0.565729 0.469675 1.5887 
v -0.484838 0.532658 1.50208 
v -0.571438 0.535808 1.50448 
v -0.450381 0.479149 1.59011 
v -0.172884 -1.14802 1.40587 
v -0.525291 0.142017 1.54454 
v -0.284068 -1.18011 1.40593 
v -0.674116 0.0990663 1.54463 
v -0.284068 -1.18011 1.40593 
v -0.677834 0.111616 1.3995 
v -0.286847 -1.17073 1.2975 
v -0.674116 0.0990663 1.54463 
v 0.692737 0.533615 0.352748 
v 0.739104 0.457583 0.341379 
v 0.671482 0.45724 0.28233 
v 0.394917 0.460095 0.0710893 
v 0.320712 0.457583 0.00907774 
v 0.318557 0.533615 0.0567694 
v -0.825981 0.410732 1.41348 
v -0.851995 0.455083 1.50448 
v -0.914629 1.20084 1.56993 
v -0.517744 0.343076 1.59693 
v -0.424903 0.291849 1.59693 
v -0.445709 0.363883 1.64631 
v 0.758298 -1.07902 -0.250912 
v 0.796705 -1.07902 0.0826172 
v 0.804919 -1.24483 0.0887942 
v 0.764893 -1.24483 -0.258796 
v -0.565045 -0.349742 1.08589 
v -0.524072 -1.17375 0.593849 
v -0.531903 -1.13539 1.08589 
v -0.516572 -0.39976 0.123029 
v -0.516572 -1.18533 0.123037 
v -0.524672 -1.14673 -0.296583 
v -0.516842 0.34688 0.123932 
v -0.530995 0.465328 1.08151 
v -0.505427 -0.328127 -0.628717 
v -0.531902 -1.04989 -0.628717 
v -0.53191 0.391865 -0.628822 
v 0.432306 0.729678 0.797905 
v 0.583078 0.678973 0.794963 
v 0.528597 0.712508 0.757731 
v 0.421899 0.693288 0.870815 
v -0.466517 0.435918 1.59693 
v -0.445709 0.363883 1.64631 
v -0.373676 0.38469 1.59693 
v 0.788686 -1.07902 0.345563 
v 0.821426 -1.07902 0.679696 
v 0.829535 -1.24483 0.686012 
v 0.795415 -1.24483 0.337793 
v -0.142421 -1.39239 -0.282496 
v 0.255969 -1.24483 -0.215078 
v 0.292847 -1.39239 -0.244426 
v -0.111197 -1.24483 -0.247192 
v 0.566011 0.476908 1.21817 
v 0.651184 0.251642 1.28977 
v 0.65374 0.442028 1.26789 
v 0.748257 0.131252 1.33592 
v 0.811604 0.3498 1.30138 
v 0.805815 0.101344 1.34713 
v 0.861691 0.127251 1.33473 
v 0.975858 0.434369 1.26672 
v 0.966614 0.234001 1.28589 
v 1.06244 0.461789 1.20725 
v -0.00435403 0.251642 1.28622 
v 0.0808188 0.476908 1.21462 
v -0.00690957 0.442028 1.26433 
v -0.101427 0.131252 1.33236 
v -0.164774 0.3498 1.29783 
v -0.158985 0.101344 1.34358 
v -0.214861 0.127251 1.33117 
v -0.329028 0.434369 1.26316 
v -0.319784 0.234001 1.28234 
v -0.415613 0.461789 1.20369 
v 0.651184 0.251642 1.28977 
v 0.566011 0.476908 1.21817 
v 0.431605 0.0532391 1.36629 
v 0.629947 0.102658 1.34526 
v 0.748257 0.131252 1.33592 
v 0.726995 0.0319248 1.36865 
v 0.805815 0.101344 1.34713 
v 0.800593 -0.147043 1.43086 
v 0.878905 0.0198521 1.37025 
v 0.861691 0.127251 1.33473 
v 0.972462 0.092721 1.34274 
v 0.966614 0.234001 1.28589 
v 1.1794 0.0339797 1.35994 
v 1.06244 0.461789 1.20725 
v -0.00435403 0.251642 1.28622 
v 0.215225 0.0532391 1.36274 
v 0.0808188 0.476908 1.21462 
v 0.016883 0.102658 1.3417 
v -0.101427 0.131252 1.33236 
v -0.0801649 0.0319248 1.36509 
v -0.158985 0.101344 1.34358 
v -0.153763 -0.147043 1.4273 
v -0.232075 0.0198521 1.3667 
v -0.214861 0.127251 1.33117 
v -0.325632 0.092721 1.33919 
v -0.319784 0.234001 1.28234 
v -0.53257 0.0339797 1.35638 
v -0.415613 0.461789 1.20369 
v 0.795139 -1.39239 -0.294942 
v 0.361077 -1.39239 -0.244958 
v 0.398746 -1.24483 -0.216633 
v 0.764893 -1.24483 -0.258796 
v 0.711586 0.460095 0.426797 
v 0.739104 0.457583 0.341379 
v 0.692737 0.533615 0.352748 
v 0.496573 0.630556 0.82982 
v 0.513719 0.564836 0.865939 
v 0.55638 0.568066 0.802009 
v -0.0632583 0.533615 0.352748 
v -0.0420026 0.45724 0.28233 
v -0.109625 0.457584 0.341379 
v 0.197591 0.729678 0.797905 
v 0.101301 0.712508 0.757731 
v 0.0468193 0.678973 0.794963 
v 0.207999 0.693288 0.870815 
v 0.318557 0.533615 0.0567694 
v 0.320712 0.457583 0.00907774 
v 0.245003 0.45724 0.0688667 
v -0.692175 0.413012 1.58298 
v -0.659607 0.300266 1.66026 
v -0.546864 0.332833 1.58298 
v 0.610238 0.875693 0.735973 
v 0.702953 0.586272 0.663231 
v 0.631505 0.586271 0.621438 
v 0.581329 0.870369 0.689662 
v -0.658503 0.981201 1.5448 
v -0.484838 0.532658 1.50208 
v -0.450381 0.479149 1.59011 
v -0.162756 -1.39351 1.33007 
v -0.250161 -1.34745 1.26299 
v -0.114938 -1.30853 1.26291 
v 0.702953 0.586272 0.663231 
v 0.664297 0.548443 0.500292 
v 0.631505 0.586271 0.621438 
v 0.732751 0.548443 0.493202 
v -0.162756 -1.39351 1.33007 
v -0.114938 -1.30853 1.26291 
v -0.111385 -1.32051 1.40301 
v 1.17603 0.39761 1.06835 
v 1.06879 0.585728 0.941657 
v 1.14638 0.536388 1.07891 
v 1.03868 0.368696 0.788714 
v 1.08716 0.701068 1.0647 
v 1.11187 0.652711 1.12202 
v 0.809986 0.600588 0.940519 
v 0.795774 0.379709 0.788312 
v 0.821775 0.715374 1.06325 
v 1.08747 0.697976 1.16954 
v 0.543687 0.39114 0.787896 
v 0.545577 0.610943 0.939356 
v 0.408199 0.433991 1.06626 
v 0.459619 0.568502 1.07638 
v 0.546357 0.730222 1.06174 
v 0.516021 0.674824 1.12494 
v 0.546681 0.723449 1.16634 
v 0.516021 0.674824 1.12494 
v 0.566011 0.476909 1.21753 
v 0.822086 0.710477 1.17336 
v 0.659595 0.436577 1.26648 
v 0.657133 0.253137 1.28757 
v 0.750664 0.137141 1.33203 
v 0.813343 0.418276 1.28141 
v 0.806122 0.108324 1.34284 
v 0.859959 0.133285 1.33088 
v 0.969961 0.429197 1.26536 
v 0.961054 0.23614 1.28383 
v 1.11187 0.652711 1.12202 
v 1.06244 0.461789 1.20646 
v -1.12347 0.156321 1.58013 
v -0.851738 0.0510736 1.46985 
v -0.869122 0.113743 1.58281 
v -1.15043 0.111845 1.48243 
v -0.602923 0.117516 1.58258 
v -0.580008 0.0376975 1.46201 
v -0.00160768 0.586271 0.621438 
v -0.0343997 0.548443 0.500292 
v -0.0730557 0.586272 0.663231 
v -0.102854 0.548443 0.493202 
v 0.456649 1.08252 -1.30051 
v 0.591226 0.734405 -1.22658 
v 0.457483 0.807297 -1.65894 
v 0.592923 0.459766 -1.55105 
v 0.636073 0.530414 -1.10041 
v 0.638041 0.207336 -1.28987 
v 0.491338 0.360409 -0.605317 
v 0.490709 0.058663 -0.606757 
v -0.528771 0.39761 1.06469 
v -0.421526 0.585728 0.937998 
v -0.391415 0.368696 0.785055 
v -0.499118 0.536388 1.07525 
v -0.162725 0.600588 0.93686 
v -0.148513 0.379709 0.784654 
v 0.103574 0.39114 0.784238 
v -0.439899 0.701068 1.06104 
v -0.464612 0.652711 1.11836 
v -0.174516 0.715374 1.05959 
v -0.440205 0.697976 1.16588 
v 0.101683 0.610943 0.935698 
v 0.239061 0.433991 1.06261 
v 0.187642 0.568502 1.07272 
v 0.100904 0.730222 1.05808 
v 0.131239 0.674824 1.12129 
v 0.10058 0.723449 1.16268 
v 0.131239 0.674824 1.12129 
v 0.0812487 0.476909 1.21387 
v -0.174826 0.710477 1.1697 
v -0.0123355 0.436577 1.26282 
v -0.00987252 0.253137 1.28391 
v -0.103404 0.137141 1.32837 
v -0.3227 0.429197 1.2617 
v -0.464612 0.652711 1.11836 
v -0.166083 0.418276 1.27775 
v -0.158862 0.108324 1.33918 
v -0.415183 0.461789 1.2028 
v -0.212698 0.133285 1.32722 
v -0.313794 0.23614 1.28017 
v 0.312413 0.661007 0.867723 
v 0.314323 0.560467 0.933943 
v 0.41486 0.562377 0.867724 
v 0.421899 0.693288 0.870815 
v 0.432306 0.729678 0.797905 
v 0.314949 1.19691 0.797905 
v -0.896683 0.310362 1.59693 
v -0.875875 0.238327 1.64631 
v -0.803842 0.259134 1.59693 
v 0.394917 0.460095 0.0710893 
v 0.321363 0.38372 0.0601019 
v 0.320712 0.457583 0.00907774 
v -0.404043 -0.958866 1.16189 
v -0.414091 -1.2757 1.01377 
v -0.44919 -1.36668 1.13413 
v -0.437279 -0.991086 1.30972 
v -0.396795 -0.895249 1.0086 
v -0.406437 -1.13607 0.76829 
v 0.144029 0.520986 0.0882851 
v -0.0268894 0.52368 0.208942 
v 0.17196 0.520986 0.157591 
v 0.0263551 0.523679 0.27083 
v 0.583078 0.678973 0.794963 
v 0.702953 0.586272 0.663231 
v 0.610238 0.875693 0.735973 
v 0.494377 1.01747 0.776613 
v 0.626504 0.878984 0.622232 
v 0.583078 0.379959 0.794963 
v 0.702953 0.324458 0.663231 
v 0.421899 0.423701 0.870815 
v 0.732751 0.548443 0.493202 
v 0.421899 0.693288 0.870815 
v 0.732751 0.314561 0.493202 
v 0.314949 0.692541 0.869482 
v 0.314949 0.422954 0.869482 
v 0.314949 1.19691 0.797905 
v 0.656787 0.52368 0.208942 
v 0.661848 0.744133 0.3437 
v 0.656787 0.314561 0.208942 
v 0.485868 0.520986 0.0882851 
v 0.485868 0.311868 0.0882851 
v 0.314949 0.520986 0.0501725 
v 0.314949 0.701541 0.0932933 
v 0.314949 0.311512 0.0501725 
v 0.764893 -1.24483 -0.258796 
v 0.804919 -1.24483 0.0887942 
v 0.842589 -1.39239 0.11712 
v 0.795139 -1.39239 -0.294942 
v 0.656787 0.52368 0.208942 
v 0.485868 0.520986 0.0882851 
v 0.457938 0.520986 0.157591 
v 0.603543 0.523679 0.27083 
v 0.739104 0.457583 0.341379 
v 0.69033 0.38372 0.356379 
v 0.671482 0.45724 0.28233 
v -0.531903 -1.13539 1.08589 
v 0.325397 -1.16263 1.08589 
v -0.565045 -0.349742 1.08589 
v 0.325655 0.471125 1.08465 
v -0.530995 0.465328 1.08151 
v 1.20891 -0.349742 1.08589 
v 1.1823 0.42308 1.08779 
v 1.1827 -1.13539 1.08589 
v 0.795415 -1.24483 0.337793 
v 0.829535 -1.24483 0.686012 
v 0.866718 -1.39239 0.714973 
v 0.826268 -1.39239 0.302165 
v -0.0268894 0.52368 0.208942 
v -0.031951 0.744133 0.3437 
v 0.0263551 0.523679 0.27083 
v 0.129371 0.62148 0.828259 
v 0.112696 0.557244 0.867161 
v 0.188764 0.558464 0.85577 
v -0.851995 0.455083 1.50448 
v -0.928865 0.357504 1.41098 
v -0.923678 0.40639 1.50208 
v -0.825981 0.410732 1.41348 
v 0.457938 0.520986 0.157591 
v 0.485868 0.520986 0.0882851 
v 0.314949 0.701541 0.0932933 
v -0.0730557 0.586272 0.663231 
v 0.019659 0.875693 0.735973 
v -0.00160768 0.586271 0.621438 
v 0.048569 0.870369 0.689662 
v -0.658503 0.981201 1.5448 
v -0.454953 0.495043 1.40465 
v -0.484838 0.532658 1.50208 
v 0.072192 0.556024 0.801773 
v 0.112696 0.557244 0.867161 
v 0.129371 0.62148 0.828259 
v -0.530995 0.465328 1.08151 
v 0.325655 0.471125 1.08465 
v 0.325542 0.349955 0.328858 
v -0.516842 0.34688 0.123932 
v 1.1687 0.354613 0.547589 
v 1.1823 0.42308 1.08779 
v 1.1827 0.390748 -0.628889 
v 0.325395 0.37298 -0.628859 
v -0.53191 0.391865 -0.628822 
v 0.213783 0.558559 0.867723 
v 0.314323 0.560467 0.933943 
v 0.312413 0.661007 0.867723 
v -0.0821068 0.460095 0.426797 
v -0.0632583 0.533615 0.352748 
v -0.109625 0.457584 0.341379 
v 0.438063 0.564681 0.852011 
v 0.513719 0.564836 0.865939 
v 0.496573 0.630556 0.82982 
v -0.141683 -1.24483 0.101365 
v -0.104387 -1.07902 -0.239492 
v -0.111197 -1.24483 -0.247192 
v -0.13364 -1.07902 0.0949643 
v -0.499118 0.536388 1.07525 
v 0.187642 0.568502 1.07272 
v 0.131239 0.674824 1.12129 
v -0.464612 0.652711 1.11836 
v -0.528771 0.39761 1.06469 
v 0.239061 0.433991 1.06261 
v 1.14638 0.536388 1.07891 
v 0.516021 0.674824 1.12494 
v 0.459619 0.568502 1.07638 
v 1.11187 0.652711 1.12202 
v 1.17603 0.39761 1.06835 
v 0.408199 0.433991 1.06626 
v -0.445709 0.363883 1.64631 
v -0.424903 0.291849 1.59693 
v -0.373676 0.38469 1.59693 
v 0.795415 -1.24483 0.337793 
v 0.428604 -1.24483 0.373736 
v 0.436713 -1.07902 0.380051 
v 0.788686 -1.07902 0.345563 
v 0.711586 0.460095 0.426797 
v 0.69033 0.38372 0.356379 
v 0.739104 0.457583 0.341379 
v 0.320712 0.457583 0.00907774 
v 0.321363 0.38372 0.0601019 
v 0.245003 0.45724 0.0688667 
v -0.109625 0.457584 0.341379 
v -0.0420026 0.45724 0.28233 
v -0.0608513 0.38372 0.356379 
v -0.659607 0.300266 1.66026 
v -0.627042 0.187522 1.58298 
v -0.546864 0.332833 1.58298 
v 0.664297 0.548443 0.500292 
v 0.732751 0.548443 0.493202 
v 0.661848 0.744133 0.3437 
v 0.513719 0.564836 0.865939 
v 0.497871 0.502192 0.8242 
v 0.55638 0.568066 0.802009 
v -0.0343997 0.548443 0.500292 
v -0.031951 0.744133 0.3437 
v -0.102854 0.548443 0.493202 
v -0.182604 0.427026 1.59289 
v -0.449261 0.800947 1.52419 
v -0.464511 0.799217 1.5901 
v -0.136036 0.403019 1.48237 
v 0.223905 0.807545 -1.66026 
v 0.0832852 0.733825 -1.22875 
v 0.223072 1.08276 -1.30182 
v 0.0849817 0.459185 -1.55322 
v 0.0336682 0.529154 -1.10166 
v 0.0356362 0.206076 -1.29112 
v 0.170707 0.359359 -0.605954 
v 0.170077 0.0576197 -0.607394 
v 0.207999 0.693288 0.870815 
v 0.314949 1.19691 0.797905 
v 0.197591 0.729678 0.797905 
v 0.656787 0.52368 0.208942 
v 0.603543 0.523679 0.27083 
v 0.661848 0.744133 0.3437 
v 0.17196 0.520986 0.157591 
v 0.314949 0.701541 0.0932933 
v 0.144029 0.520986 0.0882851 
v -0.484838 0.532658 1.50208 
v -0.570134 0.484983 1.41006 
v -0.571438 0.535808 1.50448 
v -0.454953 0.495043 1.40465 
v 0.0468193 0.678973 0.794963 
v 0.019659 0.875693 0.735973 
v -0.0730557 0.586272 0.663231 
v 0.13552 1.01747 0.776613 
v 0.00339314 0.878984 0.622232 
v 0.0468193 0.379959 0.794963 
v -0.0730557 0.324458 0.663231 
v 0.207999 0.423701 0.870815 
v -0.102854 0.548443 0.493202 
v 0.207999 0.693288 0.870815 
v -0.102854 0.314561 0.493202 
v 0.314949 0.692541 0.869482 
v 0.314949 1.19691 0.797905 
v 0.314949 0.422954 0.869482 
v -0.0268894 0.52368 0.208942 
v -0.031951 0.744133 0.3437 
v -0.0268894 0.314561 0.208942 
v 0.144029 0.520986 0.0882851 
v 0.144029 0.311868 0.0882851 
v 0.314949 0.520986 0.0501725 
v 0.314949 0.311512 0.0501725 
v 0.314949 0.701541 0.0932933 
v 0.13552 1.01747 0.776613 
v 0.101301 0.712508 0.757731 
v 0.048569 0.870369 0.689662 
v 0.00339314 0.878984 0.622232 
v -0.00160768 0.586271 0.621438 
v 0.101301 0.388327 0.757731 
v -0.00160768 0.339792 0.621438 
v 0.197591 0.410652 0.797905 
v -0.0343997 0.548443 0.500292 
v 0.197591 0.729678 0.797905 
v 0.314949 0.378179 0.797905 
v 0.314949 1.19691 0.797905 
v -0.0343997 0.331694 0.500292 
v 0.0263551 0.523679 0.27083 
v -0.031951 0.744133 0.3437 
v 0.0263551 0.333493 0.27083 
v 0.17196 0.520986 0.157591 
v 0.17196 0.330799 0.157591 
v 0.314949 0.520986 0.126897 
v 0.314949 0.701541 0.0932933 
v 0.314949 0.330799 0.126897 
v 0.314323 0.560467 0.933943 
v 0.316231 0.459929 0.867723 
v 0.41486 0.562377 0.867724 
v -0.875875 0.238327 1.64631 
v -0.855069 0.166293 1.59693 
v -0.803842 0.259134 1.59693 
v -0.182604 0.427026 1.59289 
v -0.375575 0.255746 1.58951 
v -0.35694 0.193443 1.46986 
v -0.136036 0.403019 1.48237 
v -0.580008 0.0376975 1.46201 
v -0.602923 0.117516 1.58258 
v -0.178561 -1.39239 0.130712 
v -0.111197 -1.24483 -0.247192 
v -0.142421 -1.39239 -0.282496 
v -0.141683 -1.24483 0.101365 
v 0.826268 -1.39239 0.302165 
v 0.391421 -1.39239 0.344774 
v 0.428604 -1.24483 0.373736 
v 0.795415 -1.24483 0.337793 
v 0.821426 -1.07902 0.679696 
v 0.469453 -1.07902 0.714185 
v 0.462725 -1.24483 0.721955 
v 0.829535 -1.24483 0.686012 
v 0.218674 -1.07902 0.125779 
v 0.255969 -1.24483 -0.215078 
v 0.247926 -1.07902 -0.208678 
v 0.225483 -1.24483 0.133478 
v 0.13552 1.01747 0.776613 
v 0.0468193 0.678973 0.794963 
v 0.101301 0.712508 0.757731 
v -0.0821068 0.460095 0.426797 
v -0.109625 0.457584 0.341379 
v -0.0608513 0.38372 0.356379 
v 0.112696 0.557244 0.867161 
v 0.131584 0.493008 0.829284 
v 0.188764 0.558464 0.85577 
v -0.187854 0.445274 1.37995 
v -0.449261 0.800947 1.52419 
v -0.136036 0.403019 1.48237 
v -0.467724 0.810385 1.45978 
v 0.072192 0.556024 0.801773 
v 0.131584 0.493008 0.829284 
v 0.112696 0.557244 0.867161 
v 0.213783 0.558559 0.867723 
v 0.316231 0.459929 0.867723 
v 0.314323 0.560467 0.933943 
v 0.438063 0.564681 0.852011 
v 0.497871 0.502192 0.8242 
v 0.513719 0.564836 0.865939 
v -0.565729 0.469675 1.5887 
v -0.571438 0.535808 1.50448 
v -0.914629 1.20084 1.56993 
v -0.103723 -1.14704 1.47324 
v -0.114938 -1.30853 1.26291 
v -0.11109 -1.1221 1.22499 
v -0.111385 -1.32051 1.40301 
v -0.0456752 -1.28528 1.00929 
v -0.000529023 -1.00245 1.3044 
v -0.0124405 -1.37805 1.12881 
v -0.0356283 -0.968454 1.15741 
v -0.0432827 -0.90445 1.0043 
v -0.052924 -1.14527 0.76399 
v 0.829535 -1.24483 0.686012 
v 0.462725 -1.24483 0.721955 
v 0.431871 -1.39239 0.757582 
v 0.866718 -1.39239 0.714973 
v 0.225483 -1.24483 0.133478 
v 0.292847 -1.39239 -0.244426 
v 0.255969 -1.24483 -0.215078 
v 0.256707 -1.39239 0.168782 
v -0.350782 -1.19197 1.22506 
v -0.114938 -1.30853 1.26291 
v -0.250161 -1.34745 1.26299 
v -0.11109 -1.1221 1.22499 
v 0.494377 1.01747 0.776613 
v 0.528597 0.712508 0.757731 
v 0.583078 0.678973 0.794963 
v 0.528597 0.712508 0.757731 
v 0.494377 1.01747 0.776613 
v 0.581329 0.870369 0.689662 
v 0.626504 0.878984 0.622232 
v 0.631505 0.586271 0.621438 
v 0.528597 0.388327 0.757731 
v 0.432306 0.410652 0.797905 
v 0.631505 0.339792 0.621438 
v 0.432306 0.729678 0.797905 
v 0.314949 0.378179 0.797905 
v 0.314949 1.19691 0.797905 
v 0.664297 0.548443 0.500292 
v 0.664297 0.331694 0.500292 
v 0.603543 0.523679 0.27083 
v 0.661848 0.744133 0.3437 
v 0.603543 0.333493 0.27083 
v 0.457938 0.520986 0.157591 
v 0.457938 0.330799 0.157591 
v 0.314949 0.520986 0.126897 
v 0.314949 0.330799 0.126897 
v 0.314949 0.701541 0.0932933 
v -0.851738 0.0510736 1.46985 
v -1.15043 0.111845 1.48243 
v -1.1281 0.172399 1.39251 
v -0.874365 0.131964 1.37019 
v -0.60846 0.136759 1.35803 
v -0.580008 0.0376975 1.46201 
v 0.469453 -1.07902 0.714185 
v 0.428604 -1.24483 0.373736 
v 0.462725 -1.24483 0.721955 
v 0.436713 -1.07902 0.380051 
v 0.445368 -1.07902 0.123074 
v 0.398746 -1.24483 -0.216633 
v 0.438772 -1.24483 0.130958 
v 0.406961 -1.07902 -0.210455 
v -0.454953 0.495043 1.40465 
v -0.467724 0.810385 1.45978 
v -0.187854 0.445274 1.37995 
v -0.381145 0.275105 1.3636 
v -0.658503 0.981201 1.5448 
v -0.34029 0.846385 1.5254 
v -0.570134 0.484983 1.41006 
v -0.60846 0.136759 1.35803 
v -0.6977 0.446907 1.41159 
v -0.914629 1.20084 1.56993 
v -1.01101 0.864938 1.54352 
v -1.08299 0.619854 1.45292 
v -1.20892 0.581622 1.52413 
v -0.928865 0.357504 1.41098 
v -1.1281 0.172399 1.39251 
v -0.874365 0.131964 1.37019 
v -0.825981 0.410732 1.41348 
v -0.60846 0.136759 1.35803 
v -0.6977 0.446907 1.41159 
v -0.914629 1.20084 1.56993 
v -0.0103031 0.253137 1.28401 
v 0.0808188 0.476909 1.21397 
v 0.215225 0.0532391 1.35835 
v 0.016883 0.102658 1.33732 
v -0.103834 0.137141 1.32848 
v -0.0801649 0.0319248 1.36071 
v -0.159292 0.108324 1.33928 
v -0.153763 -0.147043 1.42291 
v -0.232075 0.0198521 1.36231 
v -0.213129 0.133285 1.32733 
v -0.325632 0.092721 1.3348 
v -0.314224 0.23614 1.28028 
v -0.53257 0.0339797 1.352 
v -0.415613 0.461789 1.2029 
v 0.0812487 0.476909 1.21387 
v -0.415183 0.461789 1.2028 
v -0.464612 0.652711 1.11836 
v 0.131239 0.674824 1.12129 
v -0.00987252 0.253137 1.28391 
v -0.313794 0.23614 1.28017 
v -0.212698 0.133285 1.32722 
v -0.103404 0.137141 1.32837 
v -0.158862 0.108324 1.33918 
v -0.570134 0.484983 1.41006 
v -0.914629 1.20084 1.56993 
v -0.571438 0.535808 1.50448 
v 0.657133 0.253137 1.28757 
v 0.431605 0.0532391 1.3619 
v 0.566011 0.476909 1.21753 
v 0.629947 0.102658 1.34087 
v 0.750664 0.137141 1.33203 
v 0.726995 0.0319248 1.36426 
v 0.806122 0.108324 1.34284 
v 0.800593 -0.147043 1.42647 
v 0.878905 0.0198521 1.36586 
v 0.859959 0.133285 1.33088 
v 0.972462 0.092721 1.33836 
v 0.961054 0.23614 1.28383 
v 1.1794 0.0339797 1.35555 
v 1.06244 0.461789 1.20646 
v 0.796705 -1.07902 0.0826172 
v 0.445368 -1.07902 0.123074 
v 0.438772 -1.24483 0.130958 
v 0.804919 -1.24483 0.0887942 
v 0.516021 0.674824 1.12494 
v 1.11187 0.652711 1.12202 
v 0.566011 0.476909 1.21753 
v 1.06244 0.461789 1.20646 
v 0.657133 0.253137 1.28757 
v 0.961054 0.23614 1.28383 
v 0.859959 0.133285 1.33088 
v 0.750664 0.137141 1.33203 
v 0.806122 0.108324 1.34284 
v 0.462725 -1.24483 0.721955 
v 0.391421 -1.39239 0.344774 
v 0.431871 -1.39239 0.757582 
v 0.428604 -1.24483 0.373736 
v -0.175662 -1.13864 1.29744 
v -0.529011 0.154566 1.39941 
v -0.172884 -1.14802 1.40587 
v -0.525291 0.142017 1.54454 
v -1.07949 0.607717 1.59455 
v -1.20892 0.581622 1.52413 
v -1.09246 0.601043 1.52292 
v -0.13364 -1.07902 0.0949643 
v 0.225483 -1.24483 0.133478 
v 0.218674 -1.07902 0.125779 
v -0.141683 -1.24483 0.101365 
v 0.438772 -1.24483 0.130958 
v 0.361077 -1.39239 -0.244958 
v 0.408527 -1.39239 0.167103 
v 0.398746 -1.24483 -0.216633 
v 0.610238 0.875693 0.735973 
v 0.581329 0.870369 0.689662 
v 0.626504 0.878984 0.622232 
v -0.286847 -1.17073 1.2975 
v -0.529011 0.154566 1.39941 
v -0.175662 -1.13864 1.29744 
v -0.677834 0.111616 1.3995 
v 0.019659 0.875693 0.735973 
v 0.00339314 0.878984 0.622232 
v 0.048569 0.870369 0.689662 
v -0.381145 0.275105 1.3636 
v -0.187854 0.445274 1.37995 
v -0.35694 0.193443 1.46986 
v -0.136036 0.403019 1.48237 
v -0.60846 0.136759 1.35803 
v -0.580008 0.0376975 1.46201 
v -0.464511 0.799217 1.5901 
v -0.449261 0.800947 1.52419 
v -0.34029 0.846385 1.5254 
v 0.804919 -1.24483 0.0887942 
v 0.438772 -1.24483 0.130958 
v 0.408527 -1.39239 0.167103 
v 0.842589 -1.39239 0.11712 
v -1.08299 0.619854 1.45292 
v -1.09246 0.601043 1.52292 
v -1.20892 0.581622 1.52413 
v -0.141683 -1.24483 0.101365 
v 0.256707 -1.39239 0.168782 
v 0.225483 -1.24483 0.133478 
v -0.178561 -1.39239 0.130712 
v -1.01101 0.864938 1.54352 
v -0.924606 0.342705 1.58368 
v -0.923678 0.40639 1.50208 
v 0.591226 0.734405 -1.22658 
v 0.223072 1.08276 -1.30182 
v 0.0832852 0.733825 -1.22875 
v 0.456649 1.08252 -1.30051 
v 0.636073 0.530414 -1.10041 
v 0.0336682 0.529154 -1.10166 
v 0.491338 0.360409 -0.605317 
v 0.170707 0.359359 -0.605954 
v -0.000529023 -1.00245 1.3044 
v -0.404043 -0.958866 1.16189 
v -0.437279 -0.991086 1.30972 
v -0.0356283 -0.968454 1.15741 
v -0.396795 -0.895249 1.0086 
v -0.0432827 -0.90445 1.0043 
v -0.467724 0.810385 1.45978 
v -0.34029 0.846385 1.5254 
v -0.449261 0.800947 1.52419 
v -0.343416 -1.21691 1.47332 
v -0.103723 -1.14704 1.47324 
v -0.172884 -1.14802 1.40587 
v -0.284068 -1.18011 1.40593 
v -0.286847 -1.17073 1.2975 
v -0.350782 -1.19197 1.22506 
v -0.175662 -1.13864 1.29744 
v -0.11109 -1.1221 1.22499 
v -0.350782 -1.19197 1.22506 
v -0.286847 -1.17073 1.2975 
v -1.01101 0.864938 1.54352 
v -0.923678 0.40639 1.50208 
v -0.928865 0.357504 1.41098 
v 0.456649 1.08252 -1.29823 
v 0.591226 0.734405 -1.2243 
v 0.720223 1.18805 -1.30708 
v 0.521886 1.13473 -1.30049 
v 0.338275 0.87058 -1.25416 
v 0.424837 1.20759 -1.31601 
v 0.272928 1.2188 -1.32082 
v 0.351232 1.39351 -1.35252 
v 0.223072 1.08276 -1.29954 
v 0.0832852 0.733825 -1.22646 
v 0.179375 1.14198 -1.30792 
v -0.0275622 1.20135 -1.32282 

vn 0.00787402 0.795276 -0.606299 
vn 0.00787402 0.795276 -0.606299 
vn 0.00787402 0.795276 -0.606299 
vn 0.00787402 0.795276 -0.606299 
vn 0.023622 -0.133858 -0.992126 
vn 0.00787402 -0.11811 -0.992126 
vn 0.0393701 -0.19685 -0.984252 
vn 0.015748 -0.0944882 -0.992126 
vn 0.0314961 -0.149606 -0.984252 
vn 0.015748 -0.165354 -0.984252 
vn 0.00787402 -0.165354 -0.984252 
vn 0.015748 -0.165354 -0.984252 
vn 0.015748 -0.165354 -0.984252 
vn 0.015748 -0.165354 -0.984252 
vn 0.015748 -0.173228 -0.984252 
vn 0 -0.204724 -0.976378 
vn 0 -1 0 
vn 0 -1 0 
vn 0 -1 0 
vn 0 -1 0 
vn 0 -1 0 
vn 0 -1 0 
vn 0 -1 0 
vn 0 -1 0 
vn 0 -1 0 
vn 0 -1 0 
vn 0 -1 0 
vn 0 -1 0 
vn 0.464567 -0.811024 0.362205 
vn 0.464567 -0.811024 0.362205 
vn 0.464567 -0.811024 0.362205 
vn -0.165354 -0.92126 -0.354331 
vn -0.165354 -0.92126 -0.354331 
vn -0.165354 -0.92126 -0.354331 
vn -0.976378 0.0944882 0.204724 
vn -0.976378 0.0944882 0.204724 
vn -0.976378 0.0944882 0.204724 
vn -0.976378 0.0944882 0.204724 
vn 0 0 -1 
vn 0 0 -1 
vn 0 0 -1 
vn 0 0 -1 
vn 0 0 -1 
vn 0 0 -1 
vn 0 0 -1 
vn 0 0 -1 
vn -0.598425 0.330709 0.732283 
vn -0.598425 0.330709 0.732283 
vn -0.598425 0.330709 0.732283 
vn -0.00787402 -1 0.0551181 
vn 0.00787402 -1 0.0551181 
vn -0.00787402 -1 0.0708661 
vn 0.015748 -1 0.0787402 
vn -0.023622 -1 0.0551181 
vn 0.00787402 -1 -0.015748 
vn -0.015748 -1 0.0472441 
vn 0 -1 -0.023622 
vn 0.015748 -0.992126 -0.125984 
vn 0 -1 -0.023622 
vn 0.00787402 -0.992126 -0.141732 
vn 0.023622 -0.984252 -0.188976 
vn 0.00787402 -0.984252 -0.15748 
vn 0.00787402 -0.976378 -0.204724 
vn 0 -0.976378 -0.228346 
vn -0.598425 0.330709 0.732283 
vn -0.598425 0.330709 0.732283 
vn -0.598425 0.330709 0.732283 
vn -0.984252 0.125984 -0.133858 
vn -0.984252 0.125984 -0.133858 
vn -0.984252 0.125984 -0.133858 
vn -0.984252 0.125984 -0.133858 
vn 0.0551181 -0.354331 0.937008 
vn 0.0551181 -0.354331 0.937008 
vn 0.0551181 -0.354331 0.937008 
vn 0.0551181 -0.354331 0.937008 
vn -0.952756 -0.102362 0.283465 
vn -0.952756 -0.102362 0.283465 
vn -0.952756 -0.102362 0.283465 
vn -0.417323 0.685039 0.598425 
vn -0.417323 0.685039 0.598425 
vn -0.417323 0.685039 0.598425 
vn -0.417323 0.685039 0.598425 
vn -0.598425 0.330709 0.732283 
vn -0.598425 0.330709 0.732283 
vn -0.598425 0.330709 0.732283 
vn -0.811024 -0.566929 -0.173228 
vn -0.811024 -0.566929 -0.173228 
vn -0.811024 -0.566929 -0.173228 
vn -0.811024 -0.566929 -0.173228 
vn 1 -0.00787402 -0.0393701 
vn 1 0 -0.0551181 
vn 1 -0.023622 -0.0551181 
vn 1 0 -0.023622 
vn 1 0 -0.00787402 
vn 1 0.00787402 0.00787402 
vn 1 0 -0.023622 
vn 1 0.015748 -0.0551181 
vn 1 0 0 
vn 1 0.023622 0 
vn 1 -0.015748 0 
vn -0.0314961 -0.929134 -0.370079 
vn -0.0314961 -0.929134 -0.370079 
vn -0.0314961 -0.96063 -0.283465 
vn -0.0314961 -0.96063 -0.283465 
vn -0.0314961 -0.976378 -0.204724 
vn -0.0314961 -0.976378 -0.204724 
vn 0 -0.425197 0.905512 
vn 0 -0.425197 0.905512 
vn 0 -0.425197 0.905512 
vn 0 -0.425197 0.905512 
vn 0.00787402 -0.527559 -0.850394 
vn 0.00787402 -0.535433 -0.850394 
vn 0.00787402 -0.188976 -0.984252 
vn 0.00787402 -0.188976 -0.984252 
vn 0 -0.929134 -0.377953 
vn 0 -0.929134 -0.377953 
vn 0 -0.992126 -0.125984 
vn 0 -0.992126 -0.125984 
vn -0.330709 -0.598425 0.732283 
vn -0.330709 -0.598425 0.732283 
vn -0.330709 -0.598425 0.732283 
vn -0.0944882 0.00787402 0.992126 
vn -0.015748 -0.00787402 1 
vn 0.0393701 0.188976 0.984252 
vn -0.015748 -0.00787402 1 
vn 0.0629921 0.291339 0.952756 
vn 0.377953 0.511811 0.771654 
vn -0.015748 0 1 
vn -0.015748 -0.015748 1 
vn -0.015748 0.00787402 1 
vn -0.015748 0.023622 1 
vn -0.110236 0.291339 0.952756 
vn -0.503937 0.440945 0.740157 
vn -0.0708661 0.173228 0.984252 
vn 0.102362 0.00787402 0.992126 
vn 0 -0.023622 1 
vn -0.00787402 -0.00787402 1 
vn -0.00787402 0 1 
vn -0.015748 -0.015748 1 
vn -0.015748 0.00787402 1 
vn -0.015748 0.023622 1 
vn 0.0866142 0.0393701 -0.992126 
vn 0.0866142 0.0393701 -0.992126 
vn 0.0866142 0.0393701 -0.992126 
vn 0.0866142 0.0393701 -0.992126 
vn -0.330709 -0.598425 0.732283 
vn -0.330709 -0.598425 0.732283 
vn -0.330709 -0.598425 0.732283 
vn -0.110236 0.0393701 -0.992126 
vn -0.110236 0.0393701 -0.992126 
vn -0.110236 0.0393701 -0.992126 
vn -0.110236 0.0393701 -0.992126 
vn -0.023622 0.818898 0.574803 
vn -0.023622 0.818898 0.574803 
vn -0.023622 0.818898 0.574803 
vn -0.023622 0.818898 0.574803 
vn 0.0629921 -0.370079 0.929134 
vn 0.0629921 -0.370079 0.929134 
vn 0.0629921 -0.370079 0.929134 
vn 0.0629921 -0.370079 0.929134 
vn -0.818898 -0.559055 -0.165354 
vn -0.818898 -0.559055 -0.165354 
vn -0.818898 -0.559055 -0.165354 
vn -0.818898 -0.559055 -0.165354 
vn 0.582677 0.456693 -0.669291 
vn 0.582677 0.456693 -0.669291 
vn 0.582677 0.456693 -0.669291 
vn 0.566929 0.448819 -0.692913 
vn 0.566929 0.448819 -0.692913 
vn 0.566929 0.448819 -0.692913 
vn -0.968504 -0.0629921 -0.244094 
vn -0.968504 -0.0629921 -0.244094 
vn -0.968504 -0.0629921 -0.244094 
vn -0.330709 -0.598425 0.732283 
vn -0.330709 -0.598425 0.732283 
vn -0.330709 -0.598425 0.732283 
vn 0.992126 0.0472441 -0.110236 
vn 0.992126 0.0472441 -0.110236 
vn 0.992126 0.0472441 -0.110236 
vn 0.992126 0.0472441 -0.110236 
vn -1 0 -0.0393701 
vn -1 -0.015748 -0.023622 
vn -1 -0.0314961 -0.0393701 
vn -1 0 -0.00787402 
vn -1 0 0 
vn -1 0.015748 0.00787402 
vn -1 0 -0.015748 
vn -1 0.023622 -0.0314961 
vn -1 0 0 
vn -1 0.023622 0 
vn -1 -0.015748 0 
vn 0.299213 0.858268 0.425197 
vn 0.299213 0.858268 0.425197 
vn 0.299213 0.858268 0.425197 
vn 0.299213 0.858268 0.425197 
vn 0.330709 0.598425 0.732283 
vn 0.330709 0.598425 0.732283 
vn 0.330709 0.598425 0.732283 
vn 0.992126 0.0472441 -0.0944882 
vn 0.992126 0.0472441 -0.0944882 
vn 0.992126 0.0472441 -0.0944882 
vn 0.992126 0.0472441 -0.0944882 
vn 0.0866142 0.212598 -0.976378 
vn 0.0866142 0.212598 -0.976378 
vn 0.0866142 0.212598 -0.976378 
vn 0.0866142 0.212598 -0.976378 
vn -0.370079 0.110236 0.92126 
vn -0.370079 0.110236 0.92126 
vn -0.23622 0.149606 0.96063 
vn -0.110236 0.165354 0.976378 
vn 0.00787402 0.181102 0.984252 
vn -0.110236 0.165354 0.976378 
vn 0.283465 0.11811 0.952756 
vn 0.283465 0.11811 0.952756 
vn 0.440945 0.0629921 0.889764 
vn 0.440945 0.0629921 0.889764 
vn 0.370079 0.110236 0.92126 
vn 0.370079 0.110236 0.92126 
vn 0.23622 0.149606 0.96063 
vn 0.110236 0.165354 0.976378 
vn -0.00787402 0.181102 0.984252 
vn 0.110236 0.165354 0.976378 
vn -0.283465 0.11811 0.952756 
vn -0.283465 0.11811 0.952756 
vn -0.440945 0.0629921 0.889764 
vn -0.440945 0.0629921 0.889764 
vn 0.015748 0.338583 0.944882 
vn 0.0472441 0.314961 0.944882 
vn 0.0314961 0.330709 0.944882 
vn 0.00787402 0.338583 0.944882 
vn 0 0.322835 0.944882 
vn -0.00787402 0.314961 0.944882 
vn 0 0.322835 0.944882 
vn 0.015748 0.322835 0.944882 
vn 0.0472441 0.314961 0.944882 
vn 0.0472441 0.338583 0.937008 
vn 0.0314961 0.354331 0.937008 
vn 0.015748 0.362205 0.929134 
vn 0.00787402 0.354331 0.937008 
vn -0.015748 0.330709 0.944882 
vn -0.015748 0.338583 0.944882 
vn -0.0314961 0.330709 0.944882 
vn -0.0472441 0.314961 0.944882 
vn -0.00787402 0.338583 0.944882 
vn 0 0.322835 0.944882 
vn 0.00787402 0.314961 0.944882 
vn 0 0.322835 0.944882 
vn -0.015748 0.322835 0.944882 
vn -0.0472441 0.314961 0.944882 
vn -0.0472441 0.338583 0.937008 
vn -0.0314961 0.354331 0.937008 
vn -0.015748 0.362205 0.929134 
vn -0.00787402 0.354331 0.937008 
vn 0.015748 0.330709 0.944882 
vn -0.110236 0.212598 -0.968504 
vn -0.110236 0.212598 -0.968504 
vn -0.110236 0.212598 -0.968504 
vn -0.110236 0.212598 -0.968504 
vn 0.84252 0.472441 0.259843 
vn 0.84252 0.472441 0.259843 
vn 0.84252 0.472441 0.259843 
vn 0.724409 0.464567 0.503937 
vn 0.724409 0.464567 0.503937 
vn 0.724409 0.464567 0.503937 
vn -0.582677 0.456693 -0.669291 
vn -0.582677 0.456693 -0.669291 
vn -0.582677 0.456693 -0.669291 
vn -0.299213 0.858268 0.425197 
vn -0.299213 0.858268 0.425197 
vn -0.299213 0.858268 0.425197 
vn -0.299213 0.858268 0.425197 
vn -0.559055 0.425197 -0.708661 
vn -0.559055 0.425197 -0.708661 
vn -0.559055 0.425197 -0.708661 
vn 0.330709 0.598425 0.732283 
vn 0.330709 0.598425 0.732283 
vn 0.330709 0.598425 0.732283 
vn 0.614173 0.330709 -0.716535 
vn 0.614173 0.330709 -0.716535 
vn 0.614173 0.330709 -0.716535 
vn 0.614173 0.330709 -0.716535 
vn -0.92126 -0.370079 0.133858 
vn -0.92126 -0.370079 0.133858 
vn -0.92126 -0.370079 0.133858 
vn 0.330709 -0.220472 -0.92126 
vn 0.330709 -0.220472 -0.92126 
vn 0.330709 -0.220472 -0.92126 
vn 0.0629921 0.968504 -0.23622 
vn 0.0629921 0.968504 -0.23622 
vn 0.0629921 0.968504 -0.23622 
vn 0.0629921 0.968504 -0.23622 
vn 0.984252 -0.133858 -0.11811 
vn 0.984252 -0.133858 -0.11811 
vn 0.984252 -0.133858 -0.11811 
vn 0.834646 0.283465 -0.464567 
vn 0.472441 0.511811 -0.716535 
vn 0.818898 0.322835 -0.480315 
vn 0.488189 0.480315 -0.732283 
vn 0.480315 0.795276 -0.370079 
vn 0.795276 0.566929 -0.212598 
vn 0.0314961 0.598425 -0.80315 
vn 0.023622 0.566929 -0.826772 
vn 0.0314961 0.905512 -0.417323 
vn 0.433071 0.685039 0.590551 
vn -0.433071 0.551181 -0.716535 
vn -0.433071 0.582677 -0.685039 
vn -0.795276 0.409449 -0.448819 
vn -0.795276 0.440945 -0.417323 
vn -0.456693 0.834646 -0.322835 
vn -0.708661 0.685039 -0.173228 
vn -0.401575 0.677165 0.614173 
vn -0.669291 0.559055 0.488189 
vn -0.527559 0.149606 0.834646 
vn 0.0314961 0.795276 0.606299 
vn -0.267717 0.188976 0.944882 
vn -0.488189 0.0472441 0.874016 
vn -0.283465 0.11811 0.952756 
vn 0.023622 0.259843 0.968504 
vn 0.023622 0.173228 0.984252 
vn 0.314961 0.11811 0.944882 
vn 0.291339 0.188976 0.937008 
vn 0.496063 0.0551181 0.866142 
vn 0.740157 0.488189 0.464567 
vn 0.519685 0.15748 0.834646 
vn -0.299213 -0.84252 0.456693 
vn -0.228346 -0.84252 0.488189 
vn -0.228346 -0.84252 0.488189 
vn -0.299213 -0.84252 0.456693 
vn -0.149606 -0.84252 0.519685 
vn -0.149606 -0.84252 0.519685 
vn -0.0629921 0.968504 -0.23622 
vn -0.0629921 0.968504 -0.23622 
vn -0.0629921 0.968504 -0.23622 
vn -0.0629921 0.968504 -0.23622 
vn 0.944882 0.220472 -0.23622 
vn 0.968504 0.173228 -0.19685 
vn 0.944882 0.220472 -0.23622 
vn 0.976378 0.133858 -0.165354 
vn 1 0.00787402 0.0472441 
vn 1 0.00787402 0.0472441 
vn 0.968504 -0.0629921 0.228346 
vn 0.968504 -0.0629921 0.228346 
vn -0.834646 0.283465 -0.464567 
vn -0.472441 0.511811 -0.716535 
vn -0.488189 0.480315 -0.732283 
vn -0.818898 0.322835 -0.480315 
vn -0.0314961 0.598425 -0.80315 
vn -0.023622 0.566929 -0.826772 
vn 0.433071 0.551181 -0.716535 
vn -0.480315 0.795276 -0.370079 
vn -0.795276 0.566929 -0.212598 
vn -0.0314961 0.905512 -0.417323 
vn -0.433071 0.685039 0.590551 
vn 0.433071 0.582677 -0.685039 
vn 0.795276 0.409449 -0.448819 
vn 0.795276 0.440945 -0.417323 
vn 0.456693 0.834646 -0.322835 
vn 0.708661 0.685039 -0.173228 
vn 0.401575 0.677165 0.614173 
vn 0.669291 0.559055 0.488189 
vn 0.527559 0.149606 0.834646 
vn -0.0314961 0.795276 0.606299 
vn 0.267717 0.188976 0.944882 
vn 0.488189 0.0472441 0.874016 
vn 0.283465 0.11811 0.952756 
vn -0.291339 0.188976 0.937008 
vn -0.740157 0.488189 0.464567 
vn -0.023622 0.259843 0.968504 
vn -0.023622 0.173228 0.984252 
vn -0.519685 0.15748 0.834646 
vn -0.314961 0.11811 0.944882 
vn -0.496063 0.0551181 0.866142 
vn 0.472441 0.488189 0.732283 
vn 0.472441 0.488189 0.732283 
vn 0.472441 0.488189 0.732283 
vn 0.937008 0.23622 0.251969 
vn 0.937008 0.23622 0.251969 
vn 0.937008 0.23622 0.251969 
vn 0.330709 0.598425 0.732283 
vn 0.330709 0.598425 0.732283 
vn 0.330709 0.598425 0.732283 
vn 0.582677 -0.456693 -0.677165 
vn 0.582677 -0.456693 -0.677165 
vn 0.582677 -0.456693 -0.677165 
vn -0.992126 0.0472441 -0.125984 
vn -0.992126 0.0472441 -0.125984 
vn -0.976378 0.0629921 -0.220472 
vn -0.976378 0.0629921 -0.220472 
vn -1 0.0393701 -0.0393701 
vn -1 0.0393701 -0.0393701 
vn 0.00787402 1 -0.00787402 
vn 0.00787402 1 -0.00787402 
vn 0.00787402 1 -0.00787402 
vn 0.00787402 1 -0.00787402 
vn 0.622047 0.0708661 0.779528 
vn 0.858268 0.0314961 0.511811 
vn 0.748031 0.314961 0.582677 
vn 0.724409 0.433071 0.535433 
vn 0.787402 0.606299 0.125984 
vn 0.590551 0 0.80315 
vn 0.897638 0 0.440945 
vn 0.212598 0 0.976378 
vn 0.992126 0.0472441 -0.11811 
vn 0.133858 0.0472441 0.992126 
vn 1 0 -0.0472441 
vn 0 0.0708661 1 
vn 0 0 1 
vn 0 0.141732 0.992126 
vn 0.88189 0.0472441 -0.472441 
vn 0.952756 0.141732 -0.267717 
vn 0.818898 0 -0.574803 
vn 0.354331 0.0787402 -0.929134 
vn 0.417323 0 -0.905512 
vn 0 0.11811 -0.992126 
vn 0 0.228346 -0.976378 
vn 0 0 -1 
vn 0.968504 0.228346 -0.110236 
vn 0.968504 0.228346 -0.110236 
vn 0.968504 0.228346 -0.110236 
vn 0.968504 0.228346 -0.110236 
vn -0.00787402 1 -0.00787402 
vn -0.00787402 1 -0.00787402 
vn -0.00787402 1 -0.00787402 
vn -0.00787402 1 -0.00787402 
vn 0.566929 -0.503937 -0.645669 
vn 0.566929 -0.503937 -0.645669 
vn 0.566929 -0.503937 -0.645669 
vn 0 0 1 
vn 0 0 1 
vn 0 0 1 
vn 0 0 1 
vn 0 0 1 
vn 0 0 1 
vn 0 0 1 
vn 0 0 1 
vn 0.968504 0.228346 -0.0944882 
vn 0.968504 0.228346 -0.0944882 
vn 0.968504 0.228346 -0.0944882 
vn 0.968504 0.228346 -0.0944882 
vn 0.700787 0.385827 -0.598425 
vn 0.700787 0.385827 -0.598425 
vn 0.700787 0.385827 -0.598425 
vn 0.11811 0.488189 0.866142 
vn 0.11811 0.488189 0.866142 
vn 0.11811 0.488189 0.866142 
vn -0.440945 0.779528 -0.448819 
vn -0.440945 0.779528 -0.448819 
vn -0.440945 0.779528 -0.448819 
vn -0.440945 0.779528 -0.448819 
vn 0.700787 0.653543 0.283465 
vn 0.700787 0.653543 0.283465 
vn 0.700787 0.653543 0.283465 
vn -0.614173 0.330709 -0.716535 
vn -0.614173 0.330709 -0.716535 
vn -0.614173 0.330709 -0.716535 
vn -0.614173 0.330709 -0.716535 
vn -0.929134 -0.346457 -0.149606 
vn -0.929134 -0.346457 -0.149606 
vn -0.929134 -0.346457 -0.149606 
vn -0.755906 0.472441 0.456693 
vn -0.755906 0.472441 0.456693 
vn -0.755906 0.472441 0.456693 
vn 0.015748 0.992126 -0.141732 
vn 0.0314961 0.992126 -0.141732 
vn 0.00787402 1 -0.0551181 
vn 0.00787402 1 -0.0472441 
vn 0.015748 1 -0.0629921 
vn 0.0472441 0.992126 -0.141732 
vn -0.015748 1 0.0314961 
vn -0.00787402 1 0.0314961 
vn 0.00787402 1 0.0393701 
vn -0.488189 0.472441 0.732283 
vn -0.488189 0.472441 0.732283 
vn -0.488189 0.472441 0.732283 
vn -0.84252 0.472441 0.259843 
vn -0.84252 0.472441 0.259843 
vn -0.84252 0.472441 0.259843 
vn -0.165354 0.440945 0.88189 
vn -0.165354 0.440945 0.88189 
vn -0.165354 0.440945 0.88189 
vn -0.992126 0.0472441 -0.0866142 
vn -0.992126 0.0472441 -0.0866142 
vn -0.992126 0.0472441 -0.0866142 
vn -0.992126 0.0472441 -0.0866142 
vn 0.00787402 -0.259843 0.968504 
vn 0.00787402 -0.259843 0.968504 
vn 0.015748 -0.377953 0.92126 
vn 0.015748 -0.377953 0.92126 
vn 0.00787402 -0.141732 0.992126 
vn 0.00787402 -0.141732 0.992126 
vn -0.00787402 -0.259843 0.968504 
vn -0.015748 -0.377953 0.92126 
vn -0.00787402 -0.259843 0.968504 
vn -0.015748 -0.377953 0.92126 
vn -0.00787402 -0.141732 0.992126 
vn -0.00787402 -0.141732 0.992126 
vn 0.598425 -0.330709 0.732283 
vn 0.598425 -0.330709 0.732283 
vn 0.598425 -0.330709 0.732283 
vn -0.0944882 0.0393701 -0.992126 
vn -0.0944882 0.0393701 -0.992126 
vn -0.0944882 0.0393701 -0.992126 
vn -0.0944882 0.0393701 -0.992126 
vn 0.826772 -0.488189 0.283465 
vn 0.826772 -0.488189 0.283465 
vn 0.826772 -0.488189 0.283465 
vn -0.543307 -0.480315 -0.692913 
vn -0.543307 -0.480315 -0.692913 
vn -0.543307 -0.480315 -0.692913 
vn -0.566929 -0.503937 -0.645669 
vn -0.566929 -0.503937 -0.645669 
vn -0.566929 -0.503937 -0.645669 
vn 0.598425 -0.330709 0.732283 
vn 0.598425 -0.330709 0.732283 
vn 0.598425 -0.330709 0.732283 
vn 0.0787402 0.622047 0.779528 
vn 0.0787402 0.622047 0.779528 
vn 0.0787402 0.622047 0.779528 
vn 0.732283 -0.496063 0.464567 
vn 0.732283 -0.496063 0.464567 
vn 0.732283 -0.496063 0.464567 
vn -0.0787402 0.622047 0.779528 
vn -0.0787402 0.622047 0.779528 
vn -0.0787402 0.622047 0.779528 
vn 0.779528 0.590551 0.19685 
vn 0.779528 0.590551 0.19685 
vn 0.779528 0.590551 0.19685 
vn 0.779528 0.590551 0.19685 
vn -0.944882 0.220472 -0.251969 
vn -0.96063 0.173228 -0.212598 
vn -0.944882 0.220472 -0.251969 
vn -0.976378 0.133858 -0.188976 
vn -1 0.00787402 0.0314961 
vn -1 0.00787402 0.0314961 
vn -0.976378 -0.0629921 0.212598 
vn -0.976378 -0.0629921 0.212598 
vn -0.937008 0.23622 0.251969 
vn -0.937008 0.23622 0.251969 
vn -0.937008 0.23622 0.251969 
vn -0.700787 0.385827 -0.598425 
vn -0.700787 0.385827 -0.598425 
vn -0.700787 0.385827 -0.598425 
vn -0.700787 0.653543 0.283465 
vn -0.700787 0.653543 0.283465 
vn -0.700787 0.653543 0.283465 
vn -0.0472441 0.905512 -0.425197 
vn -0.0472441 0.905512 -0.425197 
vn -0.0472441 0.905512 -0.425197 
vn -0.0472441 0.905512 -0.425197 
vn -0.622047 0.0708661 0.779528 
vn -0.748031 0.314961 0.582677 
vn -0.858268 0.0314961 0.511811 
vn -0.724409 0.433071 0.535433 
vn -0.787402 0.606299 0.125984 
vn -0.590551 0 0.80315 
vn -0.897638 0 0.440945 
vn -0.212598 0 0.976378 
vn -0.992126 0.0472441 -0.11811 
vn -0.133858 0.0472441 0.992126 
vn -1 0 -0.0472441 
vn 0 0.0708661 1 
vn 0 0.141732 0.992126 
vn 0 0 1 
vn -0.88189 0.0472441 -0.472441 
vn -0.952756 0.141732 -0.267717 
vn -0.818898 0 -0.574803 
vn -0.354331 0.0787402 -0.929134 
vn -0.417323 0 -0.905512 
vn 0 0.11811 -0.992126 
vn 0 0 -1 
vn 0 0.228346 -0.976378 
vn 0.795276 -0.0787402 -0.598425 
vn 0.669291 -0.00787402 -0.740157 
vn 0.795276 -0.0787402 -0.598425 
vn 0.811024 -0.149606 -0.566929 
vn 0.858268 -0.00787402 -0.511811 
vn 0.614173 0 -0.787402 
vn 0.897638 0 -0.440945 
vn 0.19685 0 -0.984252 
vn 0.992126 0.0629921 0.0787402 
vn 0.133858 0 -0.992126 
vn 0 0 -1 
vn 0 0 -1 
vn 1 0 0 
vn 0.889764 0.0629921 0.448819 
vn 0.952756 0.173228 0.23622 
vn 0.834646 0 0.551181 
vn 0.370079 0.0629921 0.929134 
vn 0.448819 0 0.897638 
vn 0 0.0944882 0.992126 
vn 0 0.181102 0.984252 
vn 0 0 1 
vn 0.488189 -0.472441 0.732283 
vn 0.488189 -0.472441 0.732283 
vn 0.488189 -0.472441 0.732283 
vn 0.598425 -0.330709 0.732283 
vn 0.598425 -0.330709 0.732283 
vn 0.598425 -0.330709 0.732283 
vn 0.480315 -0.76378 0.425197 
vn 0.409449 -0.787402 0.472441 
vn 0.409449 -0.787402 0.472441 
vn 0.480315 -0.76378 0.425197 
vn 0.330709 -0.795276 0.511811 
vn 0.330709 -0.795276 0.511811 
vn -0.968504 0.228346 -0.0866142 
vn -0.968504 0.228346 -0.0866142 
vn -0.968504 0.228346 -0.0866142 
vn -0.968504 0.228346 -0.0866142 
vn -0.0944882 0.212598 -0.968504 
vn -0.0944882 0.212598 -0.968504 
vn -0.0944882 0.212598 -0.968504 
vn -0.0944882 0.212598 -0.968504 
vn 0.0944882 0.0393701 0.992126 
vn 0.0944882 0.0393701 0.992126 
vn 0.0944882 0.0393701 0.992126 
vn 0.0944882 0.0393701 0.992126 
vn 0.992126 0.0472441 0.0866142 
vn 0.992126 0.0472441 0.0866142 
vn 0.992126 0.0472441 0.0866142 
vn 0.992126 0.0472441 0.0866142 
vn 0.606299 -0.11811 0.787402 
vn 0.606299 -0.11811 0.787402 
vn 0.606299 -0.11811 0.787402 
vn -0.826772 -0.488189 0.283465 
vn -0.826772 -0.488189 0.283465 
vn -0.826772 -0.488189 0.283465 
vn 0.141732 -0.472441 0.874016 
vn 0.141732 -0.472441 0.874016 
vn 0.141732 -0.472441 0.874016 
vn 0.771654 0.622047 -0.133858 
vn 0.771654 0.622047 -0.133858 
vn 0.771654 0.622047 -0.133858 
vn 0.771654 0.622047 -0.133858 
vn -0.740157 -0.488189 0.464567 
vn -0.740157 -0.488189 0.464567 
vn -0.740157 -0.488189 0.464567 
vn -0.472441 -0.488189 0.732283 
vn -0.472441 -0.488189 0.732283 
vn -0.472441 -0.488189 0.732283 
vn -0.15748 -0.519685 0.84252 
vn -0.15748 -0.519685 0.84252 
vn -0.15748 -0.519685 0.84252 
vn 0.866142 0.417323 0.267717 
vn 0.866142 0.417323 0.267717 
vn 0.866142 0.417323 0.267717 
vn 0.84252 0.519685 0.149606 
vn 0.84252 0.519685 0.149606 
vn 0.84252 0.519685 0.149606 
vn 0.84252 0.519685 0.149606 
vn 0.992126 -0.00787402 -0.141732 
vn 0.976378 0.00787402 -0.228346 
vn 0.976378 0.00787402 -0.228346 
vn 0.992126 -0.00787402 -0.141732 
vn 1 -0.023622 -0.0472441 
vn 1 -0.023622 -0.0472441 
vn 0.0944882 0.212598 0.968504 
vn 0.0944882 0.212598 0.968504 
vn 0.0944882 0.212598 0.968504 
vn 0.0944882 0.212598 0.968504 
vn 0.968504 0.228346 0.0866142 
vn 0.968504 0.228346 0.0866142 
vn 0.968504 0.228346 0.0866142 
vn 0.968504 0.228346 0.0866142 
vn -0.015748 0.307087 -0.952756 
vn -0.015748 0.307087 -0.952756 
vn -0.015748 0.307087 -0.952756 
vn -0.015748 0.307087 -0.952756 
vn -0.606299 -0.11811 0.787402 
vn -0.606299 -0.11811 0.787402 
vn -0.606299 -0.11811 0.787402 
vn -0.669291 -0.00787402 -0.740157 
vn -0.795276 -0.0787402 -0.598425 
vn -0.795276 -0.0787402 -0.598425 
vn -0.811024 -0.149606 -0.566929 
vn -0.858268 -0.00787402 -0.511811 
vn -0.614173 0 -0.787402 
vn -0.19685 0 -0.984252 
vn -0.897638 0 -0.440945 
vn -0.133858 0 -0.992126 
vn 0 0 -1 
vn 0 0 -1 
vn -0.992126 0.0629921 0.0787402 
vn -1 0 0 
vn -0.889764 0.0629921 0.448819 
vn -0.952756 0.173228 0.23622 
vn -0.834646 0 0.551181 
vn -0.370079 0.0629921 0.929134 
vn -0.448819 0 0.897638 
vn 0 0.0944882 0.992126 
vn 0 0 1 
vn 0 0.181102 0.984252 
vn -0.23622 -0.748031 -0.622047 
vn -0.314961 -0.748031 -0.590551 
vn -0.314961 -0.748031 -0.590551 
vn -0.23622 -0.748031 -0.622047 
vn -0.165354 -0.740157 -0.653543 
vn -0.165354 -0.740157 -0.653543 
vn -0.992126 0.0472441 0.0944882 
vn -0.992126 0.0472441 0.0944882 
vn -0.992126 0.0472441 0.0944882 
vn -0.992126 0.0472441 0.0944882 
vn -0.992126 0.0472441 0.110236 
vn -0.992126 0.0472441 0.110236 
vn -0.992126 0.0472441 0.110236 
vn -0.992126 0.0472441 0.110236 
vn -0.102362 0.181102 -0.976378 
vn 0.00787402 0.330709 -0.944882 
vn -0.0314961 0.173228 -0.984252 
vn -0.0393701 0.165354 -0.984252 
vn 0.0314961 0.409449 -0.913386 
vn 0.314961 0.574803 -0.755906 
vn -0.0393701 0.173228 -0.984252 
vn -0.0314961 0.165354 -0.984252 
vn -0.0314961 0.181102 -0.984252 
vn -0.0314961 0.19685 -0.976378 
vn -0.102362 0.409449 -0.905512 
vn -0.0708661 0.314961 -0.944882 
vn -0.464567 0.511811 -0.724409 
vn 0.0708661 0.188976 -0.976378 
vn -0.023622 0.15748 -0.984252 
vn -0.0314961 0.165354 -0.984252 
vn -0.0314961 0.181102 -0.984252 
vn -0.0314961 0.165354 -0.984252 
vn -0.0314961 0.181102 -0.984252 
vn -0.0314961 0.19685 -0.976378 
vn 0.00787402 -0.322835 -0.944882 
vn 0.0393701 -0.314961 -0.952756 
vn 0.023622 -0.322835 -0.944882 
vn -0.00787402 -0.322835 -0.944882 
vn -0.00787402 -0.314961 -0.952756 
vn -0.0314961 -0.299213 -0.952756 
vn -0.00787402 -0.314961 -0.952756 
vn 0.015748 -0.307087 -0.952756 
vn 0.0629921 -0.307087 -0.952756 
vn 0.0629921 -0.322835 -0.944882 
vn 0.0472441 -0.338583 -0.937008 
vn 0.0314961 -0.346457 -0.937008 
vn 0.00787402 -0.338583 -0.937008 
vn -0.00787402 -0.322835 -0.944882 
vn 0.0314961 -0.401575 -0.913386 
vn 0.0314961 -0.401575 -0.913386 
vn 0.023622 -0.417323 -0.913386 
vn 0.023622 -0.417323 -0.913386 
vn 0.0393701 -0.354331 -0.937008 
vn 0.0393701 -0.354331 -0.937008 
vn 0.0393701 -0.409449 -0.913386 
vn 0.0393701 -0.409449 -0.913386 
vn 0.0393701 -0.472441 -0.88189 
vn 0.850394 0.464567 -0.23622 
vn 0.850394 0.464567 -0.23622 
vn 0.850394 0.464567 -0.23622 
vn -0.00787402 -0.322835 -0.944882 
vn -0.023622 -0.322835 -0.944882 
vn -0.0393701 -0.314961 -0.952756 
vn 0.00787402 -0.322835 -0.944882 
vn 0.00787402 -0.314961 -0.952756 
vn 0.0314961 -0.299213 -0.952756 
vn 0.00787402 -0.314961 -0.952756 
vn -0.015748 -0.307087 -0.952756 
vn -0.0629921 -0.307087 -0.952756 
vn -0.0629921 -0.322835 -0.944882 
vn -0.0472441 -0.338583 -0.937008 
vn -0.0314961 -0.346457 -0.937008 
vn -0.00787402 -0.338583 -0.937008 
vn 0.00787402 -0.322835 -0.944882 
vn 0.110236 0.0393701 0.992126 
vn 0.110236 0.0393701 0.992126 
vn 0.110236 0.0393701 0.992126 
vn 0.110236 0.0393701 0.992126 
vn -0.023622 -0.417323 -0.913386 
vn -0.023622 -0.417323 -0.913386 
vn -0.0314961 -0.401575 -0.913386 
vn -0.0314961 -0.401575 -0.913386 
vn -0.0393701 -0.354331 -0.937008 
vn -0.0393701 -0.354331 -0.937008 
vn -0.0393701 -0.409449 -0.913386 
vn -0.0393701 -0.409449 -0.913386 
vn -0.0393701 -0.472441 -0.88189 
vn -0.968504 0.228346 0.0944882 
vn -0.968504 0.228346 0.0944882 
vn -0.968504 0.228346 0.0944882 
vn -0.968504 0.228346 0.0944882 
vn 0.826772 0.535433 0.15748 
vn 0.826772 0.535433 0.15748 
vn 0.826772 0.535433 0.15748 
vn 0.826772 0.535433 0.15748 
vn 0.165354 -0.984252 0.0629921 
vn 0.165354 -0.984252 0.0629921 
vn 0.165354 -0.984252 0.0629921 
vn -0.0866142 0.0393701 0.992126 
vn -0.0866142 0.0393701 0.992126 
vn -0.0866142 0.0393701 0.992126 
vn -0.0866142 0.0393701 0.992126 
vn -0.968504 0.228346 0.110236 
vn -0.968504 0.228346 0.110236 
vn -0.968504 0.228346 0.110236 
vn -0.968504 0.228346 0.110236 
vn 0.181102 -0.984252 0 
vn 0.181102 -0.984252 0 
vn 0.181102 -0.984252 0 
vn -0.0472441 0.346457 -0.937008 
vn -0.0472441 0.346457 -0.937008 
vn -0.0472441 0.346457 -0.937008 
vn -0.0472441 0.346457 -0.937008 
vn -0.181102 -0.984252 0 
vn -0.181102 -0.984252 0 
vn -0.181102 -0.984252 0 
vn 0.393701 -0.685039 -0.606299 
vn 0.472441 -0.677165 -0.559055 
vn 0.393701 -0.685039 -0.606299 
vn 0.472441 -0.677165 -0.559055 
vn 0.314961 -0.692913 -0.645669 
vn 0.314961 -0.692913 -0.645669 
vn 0.385827 -0.92126 0.0629921 
vn 0.385827 -0.92126 0.0629921 
vn 0.385827 -0.92126 0.0629921 
vn 0.110236 0.212598 0.968504 
vn 0.110236 0.212598 0.968504 
vn 0.110236 0.212598 0.968504 
vn 0.110236 0.212598 0.968504 
vn 0.15748 -0.96063 -0.23622 
vn 0.15748 -0.96063 -0.23622 
vn 0.15748 -0.96063 -0.23622 
vn -0.0866142 0.212598 0.976378 
vn -0.0866142 0.212598 0.976378 
vn -0.0866142 0.212598 0.976378 
vn -0.0866142 0.212598 0.976378 
vn 0.976378 0.173228 0.149606 
vn 0.976378 0.173228 0.149606 
vn 0.976378 0.173228 0.149606 
vn -0.00787402 0.559055 0.826772 
vn -0.00787402 0.393701 0.92126 
vn -0.00787402 0.559055 0.826772 
vn -0.00787402 0.393701 0.92126 
vn 0 0.858268 0.519685 
vn 0 0.858268 0.519685 
vn 0 0.976378 0.220472 
vn 0 0.976378 0.220472 
vn 0.0314961 1 -0.0551181 
vn 0.0314961 1 0.0314961 
vn 0.0314961 1 -0.0551181 
vn 0.0314961 1 0.0314961 
vn 0.0314961 0.992126 0.11811 
vn 0.0314961 0.992126 0.11811 
vn 0.377953 -0.897638 -0.23622 
vn 0.377953 -0.897638 -0.23622 
vn 0.377953 -0.897638 -0.23622 
vn -0.188976 0.96063 0.181102 
vn -0.0314961 0.984252 0.181102 
vn -0.0314961 0.984252 0.181102 
vn -0.188976 0.96063 0.181102 
vn -0.188976 0.984252 0.0314961 
vn -0.188976 0.984252 0.0314961 
vn -0.0393701 1 0.0314961 
vn -0.0393701 1 0.0314961 
vn -0.188976 0.984252 0.0314961 
vn -0.188976 0.984252 0.0314961 
vn 0.968504 0.19685 -0.165354 
vn 0.968504 0.19685 -0.165354 
vn 0.968504 0.19685 -0.165354 
vn -0.015748 0.149606 0.992126 
vn -0.023622 0.19685 0.976378 
vn -0.00787402 0.0944882 0.992126 
vn -0.015748 0.0629921 1 
vn -0.00787402 0.204724 0.976378 
vn -0.0393701 0.141732 0.992126 
vn 0 0.15748 0.984252 
vn -0.015748 0.165354 0.984252 
vn -0.00787402 0.165354 0.984252 
vn 0 0.204724 0.976378 
vn -0.00787402 0.165354 0.984252 
vn -0.015748 0.15748 0.984252 

vt 0.874233 0.491414 
vt 0.881092 0.425234 
vt 0.908274 0.493637 
vt 0.914214 0.428328 
vt 0.383179 0.519706 
vt 0.377012 0.504204 
vt 0.404093 0.511766 
vt 0.380158 0.515869 
vt 0.375795 0.521589 
vt 0.383218 0.526574 
vt 0.375116 0.530524 
vt 0.364665 0.525943 
vt 0.383176 0.533442 
vt 0.379705 0.536017 
vt 0.376141 0.548195 
vt 0.404157 0.541613 
vt 0.91772 0.928192 
vt 0.841173 0.862219 
vt 0.910908 0.856207 
vt 0.848187 0.936366 
vt 0.841173 0.862219 
vt 0.91772 0.928192 
vt 0.848187 0.936366 
vt 0.910908 0.856207 
vt 0.848187 0.936366 
vt 0.910908 0.856207 
vt 0.841173 0.862219 
vt 0.91772 0.928192 
vt 0.949654 0.377282 
vt 0.951753 0.388152 
vt 0.935314 0.388372 
vt 0.949654 0.377282 
vt 0.935314 0.388372 
vt 0.915865 0.386546 
vt 0.458879 0.5903 
vt 0.507681 0.646546 
vt 0.47351 0.578683 
vt 0.499371 0.658513 
vt 0.707272 0.182523 
vt 0.851696 0.019612 
vt 0.989469 0.182357 
vt 0.992848 0.014168 
vt 0.709917 0.015226 
vt 0.851785 0.345268 
vt 0.710056 0.349963 
vt 0.992703 0.350493 
vt 0.877052 0.709402 
vt 0.906422 0.709402 
vt 0.906422 0.738772 
vt 0.446358 0.183287 
vt 0.425227 0.34988 
vt 0.37072 0.183478 
vt 0.371095 0.351656 
vt 0.370517 0.015319 
vt 0.47667 0.348276 
vt 0.467107 0.016848 
vt 0.518679 0.183061 
vt 0.613751 0.349159 
vt 0.559311 0.018068 
vt 0.626817 0.182752 
vt 0.710056 0.349963 
vt 0.64196 0.016368 
vt 0.707272 0.182523 
vt 0.709917 0.015226 
vt 0.877052 0.709402 
vt 0.906422 0.709402 
vt 0.906422 0.738772 
vt 0.458879 0.5903 
vt 0.507681 0.646546 
vt 0.499371 0.658513 
vt 0.47351 0.578683 
vt 0.934649 0.410931 
vt 0.951753 0.388152 
vt 0.952796 0.410656 
vt 0.935314 0.388372 
vt 0.606222 0.612531 
vt 0.725871 0.519547 
vt 0.602663 0.590725 
vt 0.606222 0.612531 
vt 0.602663 0.590725 
vt 0.531033 0.607197 
vt 0.53423 0.58627 
vt 0.877052 0.709402 
vt 0.906422 0.709402 
vt 0.906422 0.738772 
vt 0.935314 0.388372 
vt 0.914521 0.412477 
vt 0.915865 0.386546 
vt 0.934649 0.410931 
vt 0.399182 0.672452 
vt 0.347865 0.831212 
vt 0.346049 0.680053 
vt 0.450833 0.822082 
vt 0.449993 0.670323 
vt 0.585023 0.677583 
vt 0.449837 0.967866 
vt 0.34442 0.979749 
vt 0.677959 0.835995 
vt 0.677831 0.696274 
vt 0.677702 0.975151 
vt 0.949277 0.72356 
vt 0.920403 0.791002 
vt 0.945042 0.798354 
vt 0.970369 0.739143 
vt 0.972217 0.805316 
vt 0.995768 0.750372 
vt 0.910781 0.856696 
vt 0.848037 0.936883 
vt 0.917595 0.928706 
vt 0.841039 0.862878 
vt 0.799238 0.541305 
vt 0.731039 0.535459 
vt 0.767991 0.485082 
vt 0.802715 0.493068 
vt 0.80078 0.585927 
vt 0.723816 0.594319 
vt 0.819101 0.676959 
vt 0.774242 0.689101 
vt 0.877052 0.709402 
vt 0.906422 0.680032 
vt 0.906422 0.709402 
vt 0.531033 0.607197 
vt 0.509027 0.647027 
vt 0.473944 0.57957 
vt 0.597644 0.651326 
vt 0.451612 0.518099 
vt 0.441739 0.585374 
vt 0.606222 0.612531 
vt 0.637767 0.640848 
vt 0.66113 0.608683 
vt 0.725871 0.519547 
vt 0.451612 0.518099 
vt 0.441739 0.585374 
vt 0.47351 0.578683 
vt 0.531033 0.607197 
vt 0.507681 0.646546 
vt 0.597644 0.651326 
vt 0.606222 0.612531 
vt 0.637767 0.640848 
vt 0.66113 0.608683 
vt 0.725871 0.519547 
vt 0.936645 0.85743 
vt 0.970531 0.916086 
vt 0.942904 0.921737 
vt 0.964526 0.857818 
vt 0.877052 0.709402 
vt 0.906422 0.680032 
vt 0.906422 0.709402 
vt 0.936645 0.85743 
vt 0.942904 0.921737 
vt 0.970531 0.916086 
vt 0.964526 0.857818 
vt 0.606222 0.612531 
vt 0.53423 0.58627 
vt 0.602663 0.590725 
vt 0.531033 0.607197 
vt 0.961052 0.475264 
vt 0.961052 0.438344 
vt 0.975819 0.475264 
vt 0.975819 0.438344 
vt 0.975819 0.475264 
vt 0.992052 0.438344 
vt 0.991931 0.475264 
vt 0.975819 0.438344 
vt 0.906422 0.738772 
vt 0.906422 0.709402 
vt 0.935792 0.709402 
vt 0.877052 0.709402 
vt 0.906422 0.709402 
vt 0.906422 0.738772 
vt 0.606222 0.612531 
vt 0.602663 0.590725 
vt 0.725871 0.519547 
vt 0.877052 0.709402 
vt 0.906422 0.680032 
vt 0.906422 0.709402 
vt 0.964526 0.857818 
vt 0.972322 0.804846 
vt 0.945157 0.797887 
vt 0.936645 0.85743 
vt 0.355903 0.171636 
vt 0.254673 0.012641 
vt 0.351848 0.017046 
vt 0.165985 0.169129 
vt 0.162319 0.013066 
vt 0.080291 0.022033 
vt 0.169237 0.320271 
vt 0.362213 0.330025 
vt 0.018462 0.183941 
vt 0.014968 0.042101 
vt 0.017859 0.323063 
vt 0.563637 0.44899 
vt 0.60049 0.443266 
vt 0.584836 0.451113 
vt 0.558235 0.430792 
vt 0.906422 0.738772 
vt 0.906422 0.709402 
vt 0.935792 0.709402 
vt 0.972322 0.804846 
vt 0.964526 0.857818 
vt 0.936645 0.85743 
vt 0.945157 0.797887 
vt 0.910908 0.856207 
vt 0.942904 0.921737 
vt 0.91772 0.928192 
vt 0.936645 0.85743 
vt 0.377731 0.473986 
vt 0.406141 0.434089 
vt 0.398207 0.470602 
vt 0.431111 0.414799 
vt 0.432714 0.459663 
vt 0.443605 0.411549 
vt 0.453008 0.41951 
vt 0.459583 0.484516 
vt 0.468366 0.446224 
vt 0.477293 0.495986 
vt 0.406141 0.434089 
vt 0.377731 0.473986 
vt 0.398207 0.470602 
vt 0.431111 0.414799 
vt 0.432714 0.459663 
vt 0.443605 0.411549 
vt 0.453008 0.41951 
vt 0.459583 0.484516 
vt 0.468366 0.446224 
vt 0.477293 0.495986 
vt 0.406141 0.434089 
vt 0.377731 0.473986 
vt 0.37591 0.382774 
vt 0.410353 0.403139 
vt 0.431111 0.414799 
vt 0.432128 0.39404 
vt 0.443605 0.411549 
vt 0.454778 0.361553 
vt 0.46134 0.398807 
vt 0.453008 0.41951 
vt 0.475577 0.417426 
vt 0.468366 0.446224 
vt 0.517418 0.413964 
vt 0.477293 0.495986 
vt 0.406141 0.434089 
vt 0.37591 0.382774 
vt 0.377731 0.473986 
vt 0.410353 0.403139 
vt 0.431111 0.414799 
vt 0.432128 0.39404 
vt 0.443605 0.411549 
vt 0.454778 0.361553 
vt 0.46134 0.398807 
vt 0.453008 0.41951 
vt 0.475577 0.417426 
vt 0.468366 0.446224 
vt 0.517418 0.413964 
vt 0.477293 0.495986 
vt 0.910908 0.856207 
vt 0.91772 0.928192 
vt 0.942904 0.921737 
vt 0.936645 0.85743 
vt 0.877052 0.709402 
vt 0.906422 0.709402 
vt 0.906422 0.738772 
vt 0.906422 0.738772 
vt 0.906422 0.709402 
vt 0.935792 0.709402 
vt 0.906422 0.738772 
vt 0.935792 0.709402 
vt 0.906422 0.709402 
vt 0.563637 0.44899 
vt 0.584836 0.451113 
vt 0.60049 0.443266 
vt 0.558235 0.430792 
vt 0.906422 0.738772 
vt 0.906422 0.709402 
vt 0.935792 0.709402 
vt 0.906422 0.738772 
vt 0.906422 0.709402 
vt 0.935792 0.709402 
vt 0.603766 0.491642 
vt 0.647306 0.432133 
vt 0.658862 0.447174 
vt 0.615821 0.495427 
vt 0.451612 0.518099 
vt 0.53423 0.58627 
vt 0.531033 0.607197 
vt 0.949654 0.377282 
vt 0.988214 0.384017 
vt 0.969044 0.387014 
vt 0.647306 0.432133 
vt 0.684972 0.443601 
vt 0.658862 0.447174 
vt 0.691478 0.428728 
vt 0.949654 0.377282 
vt 0.969044 0.387014 
vt 0.951753 0.388152 
vt 0.786957 0.703236 
vt 0.811545 0.736996 
vt 0.783938 0.728678 
vt 0.84488 0.705614 
vt 0.791402 0.754204 
vt 0.777832 0.753124 
vt 0.843703 0.767128 
vt 0.877766 0.737053 
vt 0.822635 0.785184 
vt 0.781496 0.764581 
vt 0.907122 0.774011 
vt 0.871591 0.802566 
vt 0.902769 0.831829 
vt 0.876744 0.831335 
vt 0.851731 0.819518 
vt 0.85138 0.83484 
vt 0.840844 0.829037 
vt 0.85138 0.83484 
vt 0.811298 0.856619 
vt 0.809063 0.797547 
vt 0.792194 0.849328 
vt 0.767544 0.870216 
vt 0.740139 0.870364 
vt 0.771099 0.830944 
vt 0.729899 0.866039 
vt 0.727353 0.855756 
vt 0.755724 0.807136 
vt 0.730159 0.8293 
vt 0.777832 0.753124 
vt 0.750674 0.787091 
vt 0.507681 0.646546 
vt 0.60581 0.66416 
vt 0.597644 0.651326 
vt 0.499371 0.658513 
vt 0.637767 0.640848 
vt 0.640441 0.667594 
vt 0.658862 0.447174 
vt 0.684972 0.443601 
vt 0.647306 0.432133 
vt 0.691478 0.428728 
vt 0.874233 0.491414 
vt 0.857321 0.542147 
vt 0.802715 0.493068 
vt 0.799238 0.541305 
vt 0.851538 0.577586 
vt 0.80078 0.585927 
vt 0.86064 0.656545 
vt 0.819101 0.676959 
vt 0.786957 0.703236 
vt 0.811545 0.736996 
vt 0.84488 0.705614 
vt 0.783938 0.728678 
vt 0.843703 0.767128 
vt 0.877766 0.737053 
vt 0.907122 0.774011 
vt 0.791402 0.754204 
vt 0.777832 0.753124 
vt 0.822635 0.785184 
vt 0.781496 0.764581 
vt 0.871591 0.802566 
vt 0.902769 0.831829 
vt 0.876744 0.831335 
vt 0.851731 0.819518 
vt 0.85138 0.83484 
vt 0.840844 0.829037 
vt 0.85138 0.83484 
vt 0.811298 0.856619 
vt 0.809063 0.797547 
vt 0.792194 0.849328 
vt 0.767544 0.870216 
vt 0.740139 0.870364 
vt 0.755724 0.807136 
vt 0.777832 0.753124 
vt 0.771099 0.830944 
vt 0.729899 0.866039 
vt 0.750674 0.787091 
vt 0.727353 0.855756 
vt 0.730159 0.8293 
vt 0.906422 0.738772 
vt 0.906422 0.709402 
vt 0.935792 0.709402 
vt 0.558235 0.430792 
vt 0.563637 0.44899 
vt 0.481736 0.523839 
vt 0.906422 0.738772 
vt 0.906422 0.709402 
vt 0.935792 0.709402 
vt 0.877052 0.709402 
vt 0.906422 0.680032 
vt 0.906422 0.709402 
vt 0.936527 0.857919 
vt 0.945042 0.798354 
vt 0.920403 0.791002 
vt 0.910781 0.856696 
vt 0.964418 0.858306 
vt 0.972217 0.805316 
vt 0.812194 0.415859 
vt 0.762057 0.423221 
vt 0.808939 0.432562 
vt 0.770509 0.440624 
vt 0.60049 0.443266 
vt 0.647306 0.432133 
vt 0.603766 0.491642 
vt 0.570566 0.518189 
vt 0.622314 0.510111 
vt 0.618533 0.376586 
vt 0.658205 0.37311 
vt 0.578555 0.37354 
vt 0.691478 0.428728 
vt 0.558235 0.430792 
vt 0.69513 0.375199 
vt 0.535538 0.420284 
vt 0.555704 0.364186 
vt 0.481736 0.523839 
vt 0.762057 0.423221 
vt 0.730123 0.473191 
vt 0.759384 0.374963 
vt 0.812194 0.415859 
vt 0.804894 0.367922 
vt 0.852044 0.407032 
vt 0.861015 0.447813 
vt 0.843849 0.360064 
vt 0.936645 0.85743 
vt 0.945157 0.797887 
vt 0.920527 0.790537 
vt 0.910908 0.856207 
vt 0.762057 0.423221 
vt 0.812194 0.415859 
vt 0.808939 0.432562 
vt 0.770509 0.440624 
vt 0.906422 0.709402 
vt 0.906422 0.680032 
vt 0.935792 0.709402 
vt 0.014233 0.677588 
vt 0.179778 0.673126 
vt 0.006941 0.829242 
vt 0.17801 0.988948 
vt 0.012408 0.986674 
vt 0.347865 0.831212 
vt 0.34442 0.979749 
vt 0.346049 0.680053 
vt 0.945157 0.797887 
vt 0.936645 0.85743 
vt 0.910908 0.856207 
vt 0.920527 0.790537 
vt 0.762057 0.423221 
vt 0.730123 0.473191 
vt 0.770509 0.440624 
vt 0.906422 0.738772 
vt 0.906422 0.709402 
vt 0.935792 0.709402 
vt 0.602663 0.590725 
vt 0.531033 0.607197 
vt 0.53423 0.58627 
vt 0.606222 0.612531 
vt 0.808939 0.432562 
vt 0.812194 0.415859 
vt 0.861015 0.447813 
vt 0.647306 0.432133 
vt 0.603766 0.491642 
vt 0.658862 0.447174 
vt 0.615821 0.495427 
vt 0.451612 0.518099 
vt 0.531033 0.607197 
vt 0.53423 0.58627 
vt 0.877052 0.709402 
vt 0.906422 0.709402 
vt 0.906422 0.738772 
vt 0.362213 0.330025 
vt 0.356964 0.496741 
vt 0.205935 0.491441 
vt 0.169237 0.320271 
vt 0.245218 0.659681 
vt 0.352497 0.665405 
vt 0.013892 0.658002 
vt 0.017666 0.48936 
vt 0.017859 0.323063 
vt 0.877052 0.709402 
vt 0.906422 0.709402 
vt 0.906422 0.738772 
vt 0.877052 0.709402 
vt 0.906422 0.738772 
vt 0.906422 0.709402 
vt 0.877052 0.709402 
vt 0.906422 0.709402 
vt 0.906422 0.738772 
vt 0.945157 0.797887 
vt 0.964526 0.857818 
vt 0.936645 0.85743 
vt 0.972322 0.804846 
vt 0.720425 0.882323 
vt 0.71876 0.984271 
vt 0.736547 0.976916 
vt 0.738492 0.888507 
vt 0.700099 0.876642 
vt 0.698317 0.99063 
vt 0.720425 0.882323 
vt 0.736547 0.976916 
vt 0.71876 0.984271 
vt 0.738492 0.888507 
vt 0.700099 0.876642 
vt 0.698317 0.99063 
vt 0.906422 0.709402 
vt 0.906422 0.680032 
vt 0.935792 0.709402 
vt 0.945157 0.797887 
vt 0.970474 0.738698 
vt 0.995866 0.749921 
vt 0.972322 0.804846 
vt 0.877052 0.709402 
vt 0.906422 0.680032 
vt 0.906422 0.709402 
vt 0.906422 0.709402 
vt 0.906422 0.680032 
vt 0.935792 0.709402 
vt 0.906422 0.709402 
vt 0.935792 0.709402 
vt 0.906422 0.680032 
vt 0.906422 0.709402 
vt 0.906422 0.680032 
vt 0.935792 0.709402 
vt 0.684972 0.443601 
vt 0.691478 0.428728 
vt 0.730123 0.473191 
vt 0.906422 0.709402 
vt 0.906422 0.680032 
vt 0.935792 0.709402 
vt 0.684972 0.443601 
vt 0.730123 0.473191 
vt 0.691478 0.428728 
vt 0.509027 0.647027 
vt 0.458879 0.5903 
vt 0.473944 0.57957 
vt 0.499371 0.658513 
vt 0.971757 0.492893 
vt 0.929911 0.545778 
vt 0.908274 0.493637 
vt 0.991454 0.54401 
vt 0.936262 0.58227 
vt 0.988589 0.595767 
vt 0.907527 0.657764 
vt 0.941254 0.685252 
vt 0.558235 0.430792 
vt 0.481736 0.523839 
vt 0.563637 0.44899 
vt 0.762057 0.423221 
vt 0.770509 0.440624 
vt 0.730123 0.473191 
vt 0.808939 0.432562 
vt 0.861015 0.447813 
vt 0.812194 0.415859 
vt 0.53423 0.58627 
vt 0.606222 0.612531 
vt 0.602663 0.590725 
vt 0.531033 0.607197 
vt 0.60049 0.443266 
vt 0.603766 0.491642 
vt 0.647306 0.432133 
vt 0.570566 0.518189 
vt 0.622314 0.510111 
vt 0.618533 0.376586 
vt 0.658205 0.37311 
vt 0.578555 0.37354 
vt 0.691478 0.428728 
vt 0.558235 0.430792 
vt 0.69513 0.375199 
vt 0.535538 0.420284 
vt 0.481736 0.523839 
vt 0.555704 0.364186 
vt 0.762057 0.423221 
vt 0.730123 0.473191 
vt 0.759384 0.374963 
vt 0.812194 0.415859 
vt 0.804894 0.367922 
vt 0.852044 0.407032 
vt 0.843849 0.360064 
vt 0.861015 0.447813 
vt 0.695325 0.746769 
vt 0.724758 0.722561 
vt 0.702519 0.724117 
vt 0.696098 0.716298 
vt 0.726552 0.696306 
vt 0.758636 0.700939 
vt 0.752292 0.67984 
vt 0.763262 0.713342 
vt 0.722115 0.680686 
vt 0.729913 0.734605 
vt 0.774562 0.723594 
vt 0.68888 0.778047 
vt 0.744736 0.666187 
vt 0.708803 0.654266 
vt 0.691151 0.678128 
vt 0.728649 0.641534 
vt 0.696735 0.634837 
vt 0.716583 0.622107 
vt 0.686777 0.619306 
vt 0.667239 0.630998 
vt 0.706625 0.606578 
vt 0.906422 0.709402 
vt 0.906422 0.680032 
vt 0.935792 0.709402 
vt 0.906422 0.709402 
vt 0.906422 0.680032 
vt 0.935792 0.709402 
vt 0.509027 0.647027 
vt 0.597644 0.651326 
vt 0.60581 0.66416 
vt 0.499371 0.658513 
vt 0.640441 0.667594 
vt 0.637767 0.640848 
vt 0.920527 0.790537 
vt 0.936645 0.85743 
vt 0.910908 0.856207 
vt 0.945157 0.797887 
vt 0.920527 0.790537 
vt 0.949391 0.723118 
vt 0.970474 0.738698 
vt 0.945157 0.797887 
vt 0.964526 0.857818 
vt 0.970531 0.916086 
vt 0.942904 0.921737 
vt 0.936645 0.85743 
vt 0.988895 0.968784 
vt 0.942904 0.921737 
vt 0.970531 0.916086 
vt 0.962657 0.978653 
vt 0.570566 0.518189 
vt 0.60049 0.443266 
vt 0.584836 0.451113 
vt 0.877052 0.709402 
vt 0.906422 0.709402 
vt 0.906422 0.680032 
vt 0.906422 0.709402 
vt 0.906422 0.680032 
vt 0.935792 0.709402 
vt 0.509027 0.647027 
vt 0.458879 0.5903 
vt 0.499371 0.658513 
vt 0.473944 0.57957 
vt 0.877052 0.709402 
vt 0.906422 0.680032 
vt 0.906422 0.709402 
vt 0.877052 0.709402 
vt 0.906422 0.680032 
vt 0.906422 0.709402 
vt 0.877052 0.709402 
vt 0.906422 0.680032 
vt 0.906422 0.709402 
vt 0.606222 0.612531 
vt 0.602663 0.590725 
vt 0.725871 0.519547 
vt 0.952796 0.410656 
vt 0.969044 0.387014 
vt 0.970743 0.409739 
vt 0.951753 0.388152 
vt 0.962548 0.979186 
vt 0.917595 0.928706 
vt 0.940803 0.99332 
vt 0.942788 0.922248 
vt 0.970425 0.916595 
vt 0.988795 0.969312 
vt 0.936645 0.85743 
vt 0.942904 0.921737 
vt 0.91772 0.928192 
vt 0.910908 0.856207 
vt 0.962657 0.978653 
vt 0.91772 0.928192 
vt 0.942904 0.921737 
vt 0.94092 0.992782 
vt 0.991547 0.409502 
vt 0.969044 0.387014 
vt 0.988214 0.384017 
vt 0.970743 0.409739 
vt 0.570566 0.518189 
vt 0.584836 0.451113 
vt 0.60049 0.443266 
vt 0.724758 0.722561 
vt 0.695325 0.746769 
vt 0.702519 0.724117 
vt 0.696098 0.716298 
vt 0.726552 0.696306 
vt 0.758636 0.700939 
vt 0.763262 0.713342 
vt 0.752292 0.67984 
vt 0.729913 0.734605 
vt 0.774562 0.723594 
vt 0.68888 0.778047 
vt 0.722115 0.680686 
vt 0.744736 0.666187 
vt 0.708803 0.654266 
vt 0.691151 0.678128 
vt 0.728649 0.641534 
vt 0.696735 0.634837 
vt 0.716583 0.622107 
vt 0.686777 0.619306 
vt 0.706625 0.606578 
vt 0.667239 0.630998 
vt 0.60581 0.66416 
vt 0.499371 0.658513 
vt 0.507681 0.646546 
vt 0.597644 0.651326 
vt 0.637767 0.640848 
vt 0.640441 0.667594 
vt 0.970531 0.916086 
vt 0.962657 0.978653 
vt 0.942904 0.921737 
vt 0.988895 0.968784 
vt 0.988895 0.968784 
vt 0.942904 0.921737 
vt 0.962657 0.978653 
vt 0.970531 0.916086 
vt 0.531033 0.607197 
vt 0.473944 0.57957 
vt 0.509027 0.647027 
vt 0.597644 0.651326 
vt 0.451612 0.518099 
vt 0.441739 0.585374 
vt 0.606222 0.612531 
vt 0.637767 0.640848 
vt 0.66113 0.608683 
vt 0.725871 0.519547 
vt 0.451612 0.518099 
vt 0.47351 0.578683 
vt 0.441739 0.585374 
vt 0.531033 0.607197 
vt 0.507681 0.646546 
vt 0.597644 0.651326 
vt 0.606222 0.612531 
vt 0.637767 0.640848 
vt 0.66113 0.608683 
vt 0.725871 0.519547 
vt 0.413937 0.520834 
vt 0.397915 0.527358 
vt 0.428249 0.536981 
vt 0.424711 0.52278 
vt 0.422242 0.514137 
vt 0.429775 0.515832 
vt 0.424305 0.510167 
vt 0.442589 0.510562 
vt 0.43064 0.504955 
vt 0.422518 0.506312 
vt 0.425422 0.498257 
vt 0.415154 0.499074 
vt 0.429628 0.483441 
vt 0.398998 0.491815 
vt 0.76888 0.969196 
vt 0.769526 0.895523 
vt 0.738492 0.888507 
vt 0.736547 0.976916 
vt 0.80347 0.955216 
vt 0.805097 0.910097 
vt 0.822024 0.924919 
vt 0.821735 0.941137 
vt 0.826208 0.932862 
vt 0.606222 0.612531 
vt 0.725871 0.519547 
vt 0.602663 0.590725 
vt 0.413937 0.520834 
vt 0.428249 0.536981 
vt 0.397915 0.527358 
vt 0.424711 0.52278 
vt 0.422242 0.514137 
vt 0.429775 0.515832 
vt 0.424305 0.510167 
vt 0.442589 0.510562 
vt 0.43064 0.504955 
vt 0.422518 0.506312 
vt 0.425422 0.498257 
vt 0.415154 0.499074 
vt 0.429628 0.483441 
vt 0.398998 0.491815 
vt 0.972322 0.804846 
vt 0.995866 0.749921 
vt 0.970474 0.738698 
vt 0.945157 0.797887 
vt 0.736547 0.976916 
vt 0.738492 0.888507 
vt 0.76888 0.969196 
vt 0.769526 0.895523 
vt 0.80347 0.955216 
vt 0.805097 0.910097 
vt 0.822024 0.924919 
vt 0.821735 0.941137 
vt 0.826208 0.932862 
vt 0.942904 0.921737 
vt 0.94092 0.992782 
vt 0.91772 0.928192 
vt 0.962657 0.978653 
vt 0.946297 0.475264 
vt 0.946297 0.438344 
vt 0.961052 0.475264 
vt 0.961052 0.438344 
vt 0.47351 0.578683 
vt 0.441739 0.585374 
vt 0.458879 0.5903 
vt 0.972322 0.804846 
vt 0.970474 0.738698 
vt 0.995866 0.749921 
vt 0.945157 0.797887 
vt 0.962657 0.978653 
vt 0.91772 0.928192 
vt 0.94092 0.992782 
vt 0.942904 0.921737 
vt 0.603766 0.491642 
vt 0.615821 0.495427 
vt 0.622314 0.510111 
vt 0.932385 0.475277 
vt 0.946297 0.438344 
vt 0.946297 0.475264 
vt 0.932281 0.438367 
vt 0.603766 0.491642 
vt 0.622314 0.510111 
vt 0.615821 0.495427 
vt 0.597644 0.651326 
vt 0.509027 0.647027 
vt 0.60581 0.66416 
vt 0.499371 0.658513 
vt 0.637767 0.640848 
vt 0.640441 0.667594 
vt 0.473944 0.57957 
vt 0.458879 0.5903 
vt 0.441739 0.585374 
vt 0.945157 0.797887 
vt 0.970474 0.738698 
vt 0.949391 0.723118 
vt 0.920527 0.790537 
vt 0.47351 0.578683 
vt 0.458879 0.5903 
vt 0.441739 0.585374 
vt 0.945157 0.797887 
vt 0.949391 0.723118 
vt 0.970474 0.738698 
vt 0.920527 0.790537 
vt 0.451612 0.518099 
vt 0.531033 0.607197 
vt 0.53423 0.58627 
vt 0.857321 0.542147 
vt 0.908274 0.493637 
vt 0.929911 0.545778 
vt 0.874233 0.491414 
vt 0.851538 0.577586 
vt 0.936262 0.58227 
vt 0.86064 0.656545 
vt 0.907527 0.657764 
vt 0.917595 0.928706 
vt 0.936527 0.857919 
vt 0.910781 0.856696 
vt 0.942788 0.922248 
vt 0.964418 0.858306 
vt 0.970425 0.916595 
vt 0.473944 0.57957 
vt 0.441739 0.585374 
vt 0.458879 0.5903 
vt 0.934649 0.410931 
vt 0.952796 0.410656 
vt 0.953254 0.417108 
vt 0.936402 0.416867 
vt 0.922267 0.419492 
vt 0.914521 0.412477 
vt 0.970018 0.416878 
vt 0.970743 0.409739 
vt 0.991547 0.409502 
vt 0.984768 0.416871 
vt 0.451612 0.518099 
vt 0.53423 0.58627 
vt 0.531033 0.607197 
vt 0.409914 0.62479 
vt 0.462533 0.618362 
vt 0.414007 0.66416 
vt 0.407712 0.636228 
vt 0.428951 0.596162 
vt 0.392271 0.629058 
vt 0.380966 0.611091 
vt 0.364132 0.632252 
vt 0.394716 0.596017 
vt 0.429613 0.555658 
vt 0.384503 0.594516 
vt 0.363552 0.572948 

usemtl Pet1Mtl

f 1/1/1 2/2/2 3/3/3 
f 3/3/3 2/2/2 4/4/4 
f 5/5/5 6/6/6 7/7/7 
f 8/8/8 6/6/6 5/5/5 
f 9/9/9 8/8/8 5/5/5 
f 10/10/10 9/9/9 5/5/5 
f 9/9/9 10/10/10 11/11/11 
f 12/12/12 9/9/9 11/11/11 
f 10/10/10 13/13/13 11/11/11 
f 13/13/13 14/14/14 11/11/11 
f 13/13/13 15/15/15 14/14/14 
f 16/16/16 15/15/15 13/13/13 
f 17/17/17 18/18/18 19/19/19 
f 18/18/18 17/17/17 20/20/20 
f 21/21/21 22/22/22 23/23/23 
f 22/22/22 21/21/21 24/24/24 
f 25/25/25 26/26/26 27/27/27 
f 26/26/26 25/25/25 28/28/28 
f 29/29/29 30/30/30 31/31/31 
f 32/32/32 33/33/33 34/34/34 
f 35/35/35 36/36/36 37/37/37 
f 36/36/36 35/35/35 38/38/38 
f 39/39/39 40/40/40 41/41/41 
f 40/40/40 42/42/42 41/41/41 
f 40/40/40 39/39/39 43/43/43 
f 44/44/44 39/39/39 41/41/41 
f 39/39/39 44/44/44 45/45/45 
f 44/44/44 41/41/41 46/46/46 
f 47/47/47 48/48/48 49/49/49 
f 50/50/50 51/51/51 52/52/52 
f 53/53/53 52/52/52 51/51/51 
f 52/52/52 54/54/54 50/50/50 
f 51/51/51 50/50/50 55/55/55 
f 56/56/56 50/50/50 54/54/54 
f 57/57/57 55/55/55 50/50/50 
f 50/50/50 56/56/56 57/57/57 
f 55/55/55 57/57/57 58/58/58 
f 59/59/59 57/57/57 56/56/56 
f 57/57/57 60/60/60 58/58/58 
f 57/57/57 59/59/59 60/60/60 
f 58/58/58 60/60/60 61/61/61 
f 62/62/62 60/60/60 59/59/59 
f 63/63/63 61/61/61 60/60/60 
f 60/60/60 62/62/62 63/63/63 
f 64/64/64 63/63/63 62/62/62 
f 65/65/65 66/66/66 67/67/67 
f 68/68/68 69/69/69 70/70/70 
f 69/69/69 68/68/68 71/71/71 
f 72/72/72 73/73/73 74/74/74 
f 73/73/73 72/72/72 75/75/75 
f 76/76/76 77/77/77 78/78/78 
f 79/79/79 80/80/80 81/81/81 
f 81/81/81 80/80/80 82/82/82 
f 83/83/83 84/84/84 85/85/85 
f 86/86/86 87/87/87 88/88/88 
f 87/87/87 86/86/86 89/89/89 
f 90/90/90 91/91/91 92/92/92 
f 91/91/91 90/90/90 93/93/93 
f 90/90/90 94/94/94 93/93/93 
f 95/95/95 93/93/93 94/94/94 
f 96/96/96 91/91/91 93/93/93 
f 91/91/91 96/96/96 97/97/97 
f 93/93/93 95/95/95 98/98/98 
f 93/93/93 98/98/98 96/96/96 
f 95/95/95 99/99/99 98/98/98 
f 96/96/96 98/98/98 100/100/100 
f 101/101/101 102/102/102 103/103/103 
f 101/101/101 103/103/103 104/104/104 
f 104/104/104 103/103/103 105/105/105 
f 104/104/104 105/105/105 106/106/106 
f 107/107/107 108/108/108 109/109/109 
f 108/108/108 107/107/107 110/110/110 
f 111/111/111 112/112/112 113/113/113 
f 111/111/111 113/113/113 114/114/114 
f 115/115/115 112/112/112 111/111/111 
f 115/115/115 116/116/116 112/112/112 
f 116/116/116 115/115/115 117/117/117 
f 116/116/116 117/117/117 118/118/118 
f 119/119/119 120/120/120 121/121/121 
f 122/122/122 123/123/123 124/124/124 
f 122/122/122 125/125/125 123/123/123 
f 122/122/122 124/124/124 126/126/126 
f 126/126/126 124/124/124 127/127/127 
f 128/128/128 125/125/125 122/122/122 
f 128/128/128 129/129/129 125/125/125 
f 129/129/129 128/128/128 130/130/130 
f 130/130/130 128/128/128 131/131/131 
f 132/132/132 133/133/133 134/134/134 
f 135/135/135 132/132/132 134/134/134 
f 134/134/134 136/136/136 135/135/135 
f 137/137/137 135/135/135 136/136/136 
f 135/135/135 137/137/137 138/138/138 
f 139/139/139 138/138/138 137/137/137 
f 138/138/138 139/139/139 140/140/140 
f 138/138/138 140/140/140 141/141/141 
f 142/142/142 143/143/143 144/144/144 
f 143/143/143 142/142/142 145/145/145 
f 146/146/146 147/147/147 148/148/148 
f 149/149/149 150/150/150 151/151/151 
f 149/149/149 151/151/151 152/152/152 
f 153/153/153 154/154/154 155/155/155 
f 154/154/154 153/153/153 156/156/156 
f 157/157/157 158/158/158 159/159/159 
f 160/160/160 159/159/159 158/158/158 
f 161/161/161 162/162/162 163/163/163 
f 162/162/162 161/161/161 164/164/164 
f 165/165/165 166/166/166 167/167/167 
f 168/168/168 169/169/169 170/170/170 
f 171/171/171 172/172/172 173/173/173 
f 174/174/174 175/175/175 176/176/176 
f 177/177/177 178/178/178 179/179/179 
f 179/179/179 180/180/180 177/177/177 
f 181/181/181 182/182/182 183/183/183 
f 182/182/182 181/181/181 184/184/184 
f 182/182/182 184/184/184 185/185/185 
f 186/186/186 185/185/185 184/184/184 
f 181/181/181 187/187/187 184/184/184 
f 181/181/181 188/188/188 187/187/187 
f 186/186/186 184/184/184 189/189/189 
f 187/187/187 189/189/189 184/184/184 
f 186/186/186 189/189/189 190/190/190 
f 189/189/189 187/187/187 191/191/191 
f 192/192/192 193/193/193 194/194/194 
f 195/195/195 193/193/193 192/192/192 
f 196/196/196 197/197/197 198/198/198 
f 199/199/199 200/200/200 201/201/201 
f 201/201/201 202/202/202 199/199/199 
f 203/203/203 204/204/204 205/205/205 
f 204/204/204 203/203/203 206/206/206 
f 207/207/207 208/208/208 209/209/209 
f 210/210/210 209/209/209 208/208/208 
f 210/210/210 211/211/211 209/209/209 
f 211/211/211 210/210/210 212/212/212 
f 213/213/213 211/211/211 212/212/212 
f 211/211/211 213/213/213 214/214/214 
f 215/215/215 214/214/214 213/213/213 
f 214/214/214 215/215/215 216/216/216 
f 217/217/217 218/218/218 219/219/219 
f 219/219/219 220/220/220 217/217/217 
f 221/221/221 220/220/220 219/219/219 
f 220/220/220 221/221/221 222/222/222 
f 221/221/221 223/223/223 222/222/222 
f 223/223/223 221/221/221 224/224/224 
f 224/224/224 225/225/225 223/223/223 
f 225/225/225 224/224/224 226/226/226 
f 227/227/227 228/228/228 229/229/229 
f 230/230/230 227/227/227 229/229/229 
f 231/231/231 227/227/227 230/230/230 
f 232/232/232 231/231/231 230/230/230 
f 231/231/231 232/232/232 233/233/233 
f 234/234/234 233/233/233 232/232/232 
f 235/235/235 233/233/233 234/234/234 
f 233/233/233 235/235/235 236/236/236 
f 236/236/236 235/235/235 237/237/237 
f 238/238/238 236/236/236 237/237/237 
f 238/238/238 237/237/237 239/239/239 
f 240/240/240 238/238/238 239/239/239 
f 241/241/241 242/242/242 243/243/243 
f 244/244/244 242/242/242 241/241/241 
f 245/245/245 244/244/244 241/241/241 
f 246/246/246 244/244/244 245/245/245 
f 247/247/247 246/246/246 245/245/245 
f 247/247/247 248/248/248 246/246/246 
f 247/247/247 249/249/249 248/248/248 
f 249/249/249 247/247/247 250/250/250 
f 250/250/250 251/251/251 249/249/249 
f 252/252/252 251/251/251 250/250/250 
f 252/252/252 253/253/253 251/251/251 
f 254/254/254 253/253/253 252/252/252 
f 255/255/255 256/256/256 257/257/257 
f 255/255/255 257/257/257 258/258/258 
f 259/259/259 260/260/260 261/261/261 
f 262/262/262 263/263/263 264/264/264 
f 265/265/265 266/266/266 267/267/267 
f 268/268/268 269/269/269 270/270/270 
f 270/270/270 271/271/271 268/268/268 
f 272/272/272 273/273/273 274/274/274 
f 275/275/275 276/276/276 277/277/277 
f 278/278/278 279/279/279 280/280/280 
f 280/280/280 281/281/281 278/278/278 
f 282/282/282 283/283/283 284/284/284 
f 285/285/285 286/286/286 287/287/287 
f 288/288/288 289/289/289 290/290/290 
f 289/289/289 288/288/288 291/291/291 
f 292/292/292 293/293/293 294/294/294 
f 295/295/295 296/296/296 297/297/297 
f 296/296/296 295/295/295 298/298/298 
f 296/296/296 299/299/299 297/297/297 
f 297/297/297 299/299/299 300/300/300 
f 298/298/298 301/301/301 296/296/296 
f 301/301/301 298/298/298 302/302/302 
f 296/296/296 303/303/303 299/299/299 
f 303/303/303 296/296/296 301/301/301 
f 300/300/300 299/299/299 304/304/304 
f 303/303/303 304/304/304 299/299/299 
f 305/305/305 301/301/301 302/302/302 
f 301/301/301 305/305/305 306/306/306 
f 306/306/306 305/305/305 307/307/307 
f 306/306/306 307/307/307 308/308/308 
f 309/309/309 301/301/301 306/306/306 
f 308/308/308 309/309/309 306/306/306 
f 301/301/301 309/309/309 303/303/303 
f 309/309/309 308/308/308 310/310/310 
f 311/311/311 303/303/303 309/309/309 
f 309/309/309 312/312/312 311/311/311 
f 313/313/313 311/311/311 312/312/312 
f 303/303/303 311/311/311 314/314/314 
f 304/304/304 303/303/303 314/314/314 
f 315/315/315 311/311/311 313/313/313 
f 315/315/315 314/314/314 311/311/311 
f 313/313/313 316/316/316 315/315/315 
f 317/317/317 315/315/315 316/316/316 
f 317/317/317 318/318/318 315/315/315 
f 314/314/314 315/315/315 318/318/318 
f 318/318/318 317/317/317 319/319/319 
f 320/320/320 318/318/318 319/319/319 
f 321/321/321 314/314/314 318/318/318 
f 318/318/318 320/320/320 321/321/321 
f 314/314/314 321/321/321 304/304/304 
f 322/322/322 321/321/321 320/320/320 
f 304/304/304 321/321/321 323/323/323 
f 321/321/321 322/322/322 324/324/324 
f 323/323/323 321/321/321 324/324/324 
f 325/325/325 326/326/326 327/327/327 
f 326/326/326 325/325/325 328/328/328 
f 326/326/326 329/329/329 327/327/327 
f 329/329/329 326/326/326 330/330/330 
f 331/331/331 332/332/332 333/333/333 
f 332/332/332 334/334/334 333/333/333 
f 335/335/335 336/336/336 337/337/337 
f 337/337/337 336/336/336 338/338/338 
f 338/338/338 336/336/336 339/339/339 
f 340/340/340 338/338/338 339/339/339 
f 340/340/340 339/339/339 341/341/341 
f 342/342/342 340/340/340 341/341/341 
f 343/343/343 344/344/344 345/345/345 
f 344/344/344 343/343/343 346/346/346 
f 347/347/347 345/345/345 344/344/344 
f 345/345/345 347/347/347 348/348/348 
f 349/349/349 348/348/348 347/347/347 
f 344/344/344 346/346/346 350/350/350 
f 346/346/346 351/351/351 350/350/350 
f 344/344/344 352/352/352 347/347/347 
f 352/352/352 344/344/344 350/350/350 
f 351/351/351 353/353/353 350/350/350 
f 353/353/353 352/352/352 350/350/350 
f 349/349/349 347/347/347 354/354/354 
f 355/355/355 349/349/349 354/354/354 
f 355/355/355 354/354/354 356/356/356 
f 347/347/347 357/357/357 354/354/354 
f 356/356/356 354/354/354 357/357/357 
f 357/357/357 347/347/347 352/352/352 
f 356/356/356 357/357/357 358/358/358 
f 352/352/352 359/359/359 357/357/357 
f 357/357/357 359/359/359 360/360/360 
f 359/359/359 361/361/361 360/360/360 
f 359/359/359 352/352/352 362/362/362 
f 352/352/352 353/353/353 362/362/362 
f 359/359/359 363/363/363 361/361/361 
f 362/362/362 363/363/363 359/359/359 
f 364/364/364 361/361/361 363/363/363 
f 363/363/363 365/365/365 364/364/364 
f 366/366/366 362/362/362 353/353/353 
f 367/367/367 366/366/366 353/353/353 
f 363/363/363 362/362/362 368/368/368 
f 368/368/368 365/365/365 363/363/363 
f 362/362/362 366/366/366 368/368/368 
f 365/365/365 368/368/368 369/369/369 
f 367/367/367 370/370/370 366/366/366 
f 368/368/368 371/371/371 369/369/369 
f 371/371/371 368/368/368 366/366/366 
f 372/372/372 366/366/366 370/370/370 
f 366/366/366 372/372/372 371/371/371 
f 373/373/373 374/374/374 375/375/375 
f 376/376/376 377/377/377 378/378/378 
f 379/379/379 380/380/380 381/381/381 
f 382/382/382 383/383/383 384/384/384 
f 385/385/385 386/386/386 387/387/387 
f 387/387/387 388/388/388 385/385/385 
f 386/386/386 385/385/385 389/389/389 
f 390/390/390 386/386/386 389/389/389 
f 391/391/391 392/392/392 393/393/393 
f 393/393/393 392/392/392 394/394/394 
f 395/395/395 396/396/396 397/397/397 
f 395/395/395 397/397/397 398/398/398 
f 398/398/398 397/397/397 399/399/399 
f 395/395/395 400/400/400 396/396/396 
f 396/396/396 400/400/400 401/401/401 
f 395/395/395 402/402/402 400/400/400 
f 401/401/401 403/403/403 396/396/396 
f 404/404/404 402/402/402 395/395/395 
f 403/403/403 401/401/401 405/405/405 
f 406/406/406 402/402/402 404/404/404 
f 402/402/402 406/406/406 407/407/407 
f 406/406/406 404/404/404 408/408/408 
f 405/405/405 409/409/409 403/403/403 
f 403/403/403 409/409/409 410/410/410 
f 409/409/409 405/405/405 411/411/411 
f 411/411/411 412/412/412 409/409/409 
f 412/412/412 411/411/411 413/413/413 
f 413/413/413 414/414/414 412/412/412 
f 412/412/412 414/414/414 415/415/415 
f 414/414/414 413/413/413 416/416/416 
f 417/417/417 418/418/418 419/419/419 
f 419/419/419 420/420/420 417/417/417 
f 421/421/421 422/422/422 423/423/423 
f 423/423/423 424/424/424 421/421/421 
f 425/425/425 426/426/426 427/427/427 
f 428/428/428 429/429/429 430/430/430 
f 431/431/431 430/430/430 429/429/429 
f 430/430/430 431/431/431 432/432/432 
f 433/433/433 431/431/431 429/429/429 
f 431/431/431 433/433/433 434/434/434 
f 429/429/429 435/435/435 433/433/433 
f 436/436/436 437/437/437 438/438/438 
f 438/438/438 439/439/439 436/436/436 
f 440/440/440 441/441/441 442/442/442 
f 443/443/443 444/444/444 445/445/445 
f 446/446/446 447/447/447 448/448/448 
f 447/447/447 446/446/446 449/449/449 
f 450/450/450 451/451/451 452/452/452 
f 453/453/453 454/454/454 455/455/455 
f 455/455/455 454/454/454 456/456/456 
f 457/457/457 458/458/458 459/459/459 
f 460/460/460 461/461/461 462/462/462 
f 463/463/463 464/464/464 465/465/465 
f 463/463/463 465/465/465 466/466/466 
f 464/464/464 467/467/467 465/465/465 
f 464/464/464 468/468/468 467/467/467 
f 467/467/467 469/469/469 465/465/465 
f 465/465/465 469/469/469 470/470/470 
f 465/465/465 470/470/470 466/466/466 
f 466/466/466 470/470/470 471/471/471 
f 472/472/472 473/473/473 474/474/474 
f 475/475/475 476/476/476 477/477/477 
f 478/478/478 479/479/479 480/480/480 
f 481/481/481 482/482/482 483/483/483 
f 482/482/482 481/481/481 484/484/484 
f 485/485/485 486/486/486 487/487/487 
f 485/485/485 487/487/487 488/488/488 
f 486/486/486 485/485/485 489/489/489 
f 489/489/489 490/490/490 486/486/486 
f 491/491/491 492/492/492 493/493/493 
f 492/492/492 491/491/491 494/494/494 
f 493/493/493 495/495/495 491/491/491 
f 495/495/495 493/493/493 496/496/496 
f 497/497/497 498/498/498 499/499/499 
f 500/500/500 501/501/501 502/502/502 
f 500/500/500 502/502/502 503/503/503 
f 504/504/504 505/505/505 506/506/506 
f 507/507/507 508/508/508 509/509/509 
f 510/510/510 511/511/511 512/512/512 
f 513/513/513 514/514/514 515/515/515 
f 516/516/516 517/517/517 518/518/518 
f 519/519/519 520/520/520 521/521/521 
f 522/522/522 523/523/523 524/524/524 
f 525/525/525 526/526/526 527/527/527 
f 526/526/526 525/525/525 528/528/528 
f 529/529/529 530/530/530 531/531/531 
f 530/530/530 529/529/529 532/532/532 
f 532/532/532 533/533/533 530/530/530 
f 533/533/533 532/532/532 534/534/534 
f 534/534/534 535/535/535 533/533/533 
f 535/535/535 534/534/534 536/536/536 
f 537/537/537 538/538/538 539/539/539 
f 540/540/540 541/541/541 542/542/542 
f 543/543/543 544/544/544 545/545/545 
f 546/546/546 547/547/547 548/548/548 
f 547/547/547 546/546/546 549/549/549 
f 550/550/550 551/551/551 552/552/552 
f 550/550/550 553/553/553 551/551/551 
f 553/553/553 554/554/554 551/551/551 
f 555/555/555 550/550/550 552/552/552 
f 552/552/552 556/556/556 555/555/555 
f 550/550/550 555/555/555 557/557/557 
f 558/558/558 556/556/556 552/552/552 
f 559/559/559 550/550/550 557/557/557 
f 556/556/556 558/558/558 560/560/560 
f 557/557/557 561/561/561 559/559/559 
f 561/561/561 562/562/562 559/559/559 
f 561/561/561 557/557/557 563/563/563 
f 564/564/564 560/560/560 558/558/558 
f 558/558/558 565/565/565 564/564/564 
f 560/560/560 564/564/564 566/566/566 
f 567/567/567 566/566/566 564/564/564 
f 566/566/566 567/567/567 568/568/568 
f 569/569/569 568/568/568 567/567/567 
f 568/568/568 569/569/569 570/570/570 
f 567/567/567 571/571/571 569/569/569 
f 572/572/572 573/573/573 574/574/574 
f 575/575/575 572/572/572 574/574/574 
f 574/574/574 573/573/573 576/576/576 
f 577/577/577 576/576/576 573/573/573 
f 576/576/576 577/577/577 578/578/578 
f 573/573/573 579/579/579 577/577/577 
f 576/576/576 578/578/578 580/580/580 
f 579/579/579 573/573/573 581/581/581 
f 582/582/582 579/579/579 581/581/581 
f 581/581/581 583/583/583 582/582/582 
f 578/578/578 584/584/584 580/580/580 
f 580/580/580 584/584/584 585/585/585 
f 585/585/585 586/586/586 580/580/580 
f 584/584/584 587/587/587 585/585/585 
f 588/588/588 585/585/585 587/587/587 
f 588/588/588 587/587/587 589/589/589 
f 590/590/590 588/588/588 589/589/589 
f 590/590/590 591/591/591 588/588/588 
f 590/590/590 589/589/589 592/592/592 
f 593/593/593 594/594/594 595/595/595 
f 596/596/596 597/597/597 598/598/598 
f 599/599/599 600/600/600 601/601/601 
f 601/601/601 602/602/602 599/599/599 
f 600/600/600 603/603/603 601/601/601 
f 600/600/600 604/604/604 603/603/603 
f 605/605/605 606/606/606 607/607/607 
f 606/606/606 605/605/605 608/608/608 
f 609/609/609 610/610/610 611/611/611 
f 609/609/609 611/611/611 612/612/612 
f 613/613/613 614/614/614 615/615/615 
f 613/613/613 615/615/615 616/616/616 
f 617/617/617 618/618/618 619/619/619 
f 618/618/618 617/617/617 620/620/620 
f 621/621/621 622/622/622 623/623/623 
f 624/624/624 625/625/625 626/626/626 
f 627/627/627 628/628/628 629/629/629 
f 630/630/630 631/631/631 632/632/632 
f 631/631/631 630/630/630 633/633/633 
f 634/634/634 635/635/635 636/636/636 
f 637/637/637 638/638/638 639/639/639 
f 640/640/640 641/641/641 642/642/642 
f 643/643/643 644/644/644 645/645/645 
f 646/646/646 647/647/647 648/648/648 
f 647/647/647 646/646/646 649/649/649 
f 650/650/650 651/651/651 652/652/652 
f 651/651/651 650/650/650 653/653/653 
f 650/650/650 654/654/654 653/653/653 
f 654/654/654 650/650/650 655/655/655 
f 656/656/656 657/657/657 658/658/658 
f 658/658/658 659/659/659 656/656/656 
f 660/660/660 661/661/661 662/662/662 
f 661/661/661 660/660/660 663/663/663 
f 664/664/664 665/665/665 666/666/666 
f 665/665/665 664/664/664 667/667/667 
f 668/668/668 669/669/669 670/670/670 
f 671/671/671 672/672/672 673/673/673 
f 674/674/674 673/673/673 672/672/672 
f 673/673/673 675/675/675 671/671/671 
f 675/675/675 676/676/676 671/671/671 
f 677/677/677 671/671/671 676/676/676 
f 676/676/676 675/675/675 678/678/678 
f 671/671/671 677/677/677 679/679/679 
f 680/680/680 679/679/679 677/677/677 
f 679/679/679 680/680/680 681/681/681 
f 675/675/675 682/682/682 678/678/678 
f 678/678/678 682/682/682 683/683/683 
f 682/682/682 684/684/684 683/683/683 
f 684/684/684 682/682/682 685/685/685 
f 683/683/683 684/684/684 686/686/686 
f 687/687/687 686/686/686 684/684/684 
f 686/686/686 687/687/687 688/688/688 
f 689/689/689 688/688/688 687/687/687 
f 688/688/688 689/689/689 690/690/690 
f 689/689/689 687/687/687 691/691/691 
f 692/692/692 693/693/693 694/694/694 
f 692/692/692 694/694/694 695/695/695 
f 696/696/696 692/692/692 695/695/695 
f 692/692/692 696/696/696 697/697/697 
f 698/698/698 699/699/699 700/700/700 
f 699/699/699 698/698/698 701/701/701 
f 702/702/702 703/703/703 704/704/704 
f 703/703/703 702/702/702 705/705/705 
f 706/706/706 707/707/707 708/708/708 
f 709/709/709 706/706/706 708/708/708 
f 706/706/706 710/710/710 707/707/707 
f 710/710/710 711/711/711 707/707/707 
f 706/706/706 709/709/709 712/712/712 
f 713/713/713 712/712/712 709/709/709 
f 712/712/712 713/713/713 714/714/714 
f 714/714/714 715/715/715 712/712/712 
f 716/716/716 717/717/717 718/718/718 
f 719/719/719 717/717/717 716/716/716 
f 717/717/717 719/719/719 720/720/720 
f 721/721/721 720/720/720 719/719/719 
f 719/719/719 722/722/722 721/721/721 
f 722/722/722 723/723/723 721/721/721 
f 723/723/723 722/722/722 724/724/724 
f 722/722/722 725/725/725 724/724/724 
f 726/726/726 727/727/727 728/728/728 
f 729/729/729 726/726/726 728/728/728 
f 730/730/730 726/726/726 729/729/729 
f 731/731/731 730/730/730 729/729/729 
f 731/731/731 732/732/732 730/730/730 
f 731/731/731 733/733/733 732/732/732 
f 734/734/734 732/732/732 733/733/733 
f 732/732/732 734/734/734 735/735/735 
f 735/735/735 734/734/734 736/736/736 
f 737/737/737 735/735/735 736/736/736 
f 737/737/737 736/736/736 738/738/738 
f 739/739/739 737/737/737 738/738/738 
f 740/740/740 741/741/741 742/742/742 
f 740/740/740 742/742/742 743/743/743 
f 744/744/744 741/741/741 740/740/740 
f 744/744/744 745/745/745 741/741/741 
f 744/744/744 746/746/746 745/745/745 
f 746/746/746 744/744/744 747/747/747 
f 748/748/748 746/746/746 747/747/747 
f 749/749/749 750/750/750 751/751/751 
f 752/752/752 753/753/753 754/754/754 
f 755/755/755 753/753/753 752/752/752 
f 756/756/756 755/755/755 752/752/752 
f 757/757/757 755/755/755 756/756/756 
f 757/757/757 756/756/756 758/758/758 
f 758/758/758 759/759/759 757/757/757 
f 758/758/758 760/760/760 759/759/759 
f 760/760/760 758/758/758 761/761/761 
f 761/761/761 762/762/762 760/760/760 
f 763/763/763 762/762/762 761/761/761 
f 763/763/763 764/764/764 762/762/762 
f 765/765/765 764/764/764 763/763/763 
f 766/766/766 767/767/767 768/768/768 
f 766/766/766 768/768/768 769/769/769 
f 770/770/770 771/771/771 772/772/772 
f 772/772/772 771/771/771 773/773/773 
f 772/772/772 773/773/773 774/774/774 
f 774/774/774 773/773/773 775/775/775 
f 776/776/776 774/774/774 775/775/775 
f 774/774/774 776/776/776 777/777/777 
f 778/778/778 777/777/777 776/776/776 
f 779/779/779 780/780/780 781/781/781 
f 780/780/780 779/779/779 782/782/782 
f 783/783/783 784/784/784 785/785/785 
f 786/786/786 785/785/785 784/784/784 
f 787/787/787 788/788/788 789/789/789 
f 790/790/790 791/791/791 792/792/792 
f 791/791/791 790/790/790 793/793/793 
f 794/794/794 795/795/795 796/796/796 
f 795/795/795 794/794/794 797/797/797 
f 798/798/798 799/799/799 800/800/800 
f 801/801/801 802/802/802 803/803/803 
f 802/802/802 801/801/801 804/804/804 
f 805/805/805 806/806/806 807/807/807 
f 808/808/808 809/809/809 810/810/810 
f 811/811/811 810/810/810 809/809/809 
f 810/810/810 812/812/812 808/808/808 
f 812/812/812 810/810/810 813/813/813 
f 814/814/814 815/815/815 816/816/816 
f 817/817/817 818/818/818 819/819/819 
f 819/819/819 820/820/820 817/817/817 
f 821/821/821 822/822/822 823/823/823 
f 824/824/824 825/825/825 826/826/826 
f 825/825/825 824/824/824 827/827/827 
f 828/828/828 829/829/829 830/830/830 
f 831/831/831 832/832/832 833/833/833 
f 832/832/832 831/831/831 834/834/834 
f 833/833/833 835/835/835 831/831/831 
f 835/835/835 833/833/833 836/836/836 
f 836/836/836 837/837/837 835/835/835 
f 837/837/837 836/836/836 838/838/838 
f 839/839/839 840/840/840 841/841/841 
f 840/840/840 839/839/839 842/842/842 
f 842/842/842 843/843/843 840/840/840 
f 843/843/843 842/842/842 844/844/844 
f 845/845/845 846/846/846 847/847/847 
f 848/848/848 849/849/849 850/850/850 
f 848/848/848 850/850/850 851/851/851 
f 852/852/852 848/848/848 851/851/851 
f 848/848/848 852/852/852 853/853/853 
f 849/849/849 854/854/854 850/850/850 
f 849/849/849 855/855/855 854/854/854 
f 856/856/856 854/854/854 855/855/855 
f 854/854/854 856/856/856 857/857/857 
f 858/858/858 859/859/859 860/860/860 
f 861/861/861 862/862/862 863/863/863 
f 864/864/864 861/861/861 863/863/863 
f 861/861/861 865/865/865 862/862/862 
f 866/866/866 861/861/861 864/864/864 
f 866/866/866 867/867/867 861/861/861 
f 867/867/867 866/866/866 868/868/868 
f 861/861/861 869/869/869 865/865/865 
f 867/867/867 869/869/869 861/861/861 
f 870/870/870 865/865/865 869/869/869 
f 869/869/869 867/867/867 871/871/871 
f 870/870/870 869/869/869 872/872/872 
f 869/869/869 871/871/871 872/872/872 

