# This file is brought to you by Roblox Corporation
# Generated by Roblox Studio

mtllib goldenwierdpet.mtl

g Golden1

v 0.524145 0.838571 -1.60027 
v 0.299145 0.838571 -1.60027 
v 0.299145 1.06357 -1.60027 
v 0.524145 1.06357 -1.60027 
v -0.150183 0.539384 -1.52525 
v 0.149591 0.839157 -1.52525 
v 0.149591 0.539384 -1.52525 
v -0.150183 0.839157 -1.52525 
v 0.149591 0.539384 -1.37537 
v 0.299478 0.839157 -1.37537 
v 0.299478 0.539384 -1.37537 
v 0.149591 0.839157 -1.37537 
v -0.150183 0.989044 -1.37537 
v 0.149591 0.989044 -1.37537 
v -0.150183 0.839157 -1.37537 
v 0.149591 0.839157 -1.37537 
v -0.300069 0.539384 -1.37537 
v -0.150183 0.839157 -1.37537 
v -0.150183 0.539384 -1.37537 
v -0.300069 0.839157 -1.37537 
v 0.102642 -1.2516 1.01326 
v 0.499907 -1.2516 0.635728 
v 0.499907 -1.2516 1.01326 
v 0.102642 -1.2516 0.635729 
v -0.499734 -1.2516 1.01679 
v -0.102498 -1.2516 0.639332 
v -0.102499 -1.2516 1.01679 
v -0.499733 -1.2516 0.639332 
v -0.0720345 -1.2516 0.426494 
v -0.469269 -1.2516 0.426493 
v -0.469269 -1.2516 0.0490329 
v -0.0720341 -1.2516 0.0490333 
v 0.472649 -1.2516 0.41948 
v 0.0754276 -1.2516 0.419481 
v 0.0754271 -1.2516 0.0419219 
v 0.472649 -1.2516 0.0419215 
v -0.30007 0.539384 -1.07559 
v 0.299477 0.539384 -1.07559 
v -0.30007 0.389497 -1.07559 
v 0.299477 0.389497 -1.07559 
v -0.858071 -0.769593 1.60027 
v -1.08307 -0.769593 1.60027 
v -1.08307 -0.994593 1.60027 
v -0.858071 -0.994593 1.60027 
v -1.21261 -0.0474671 0.719557 
v -1.21261 -0.272467 0.494557 
v -1.21261 -0.272467 0.719557 
v -1.21261 -0.0474671 0.494557 
v -1.21261 -0.272236 0.494486 
v -1.21261 -0.497236 0.269486 
v -1.21261 -0.497236 0.494486 
v -1.21261 -0.272236 0.269486 
v -0.859697 -0.994593 1.37927 
v 0.854908 -0.993709 -0.334182 
v 0.854908 -0.994593 1.37927 
v -0.859697 -0.993709 -0.334183 
v -0.858071 -0.994593 1.60027 
v -1.08307 -0.994593 1.60027 
v -1.08307 -0.994593 1.37527 
v -0.858071 -0.994593 1.37527 
v 1.07769 -0.994296 -0.331789 
v 0.852691 -0.994296 -0.331789 
v 0.852691 -0.994296 -0.556789 
v 1.07769 -0.994296 -0.556789 
v 1.21261 -0.0152373 0.379987 
v 1.21261 -0.240237 0.379987 
v 1.21261 -0.0152373 0.154987 
v 1.21261 -0.240237 0.154987 
v 1.21261 -0.240119 0.605419 
v 1.21261 -0.465119 0.605419 
v 1.21261 -0.240119 0.380419 
v 1.21261 -0.465119 0.380419 
v 0.844492 -0.924107 0.974936 
v 0.994492 -0.924107 0.0749361 
v 0.994492 -0.924107 0.974936 
v 0.844492 -0.924107 0.074936 
v -1.00026 -0.924107 0.974936 
v -1.00026 -0.924107 0.0749358 
v -0.85026 -0.924107 0.974936 
v -0.85026 -0.924107 0.0749358 
v -1.0847 0.793831 -0.334183 
v -1.0847 0.568831 -0.559183 
v -1.0847 0.568831 -0.334183 
v -1.0847 0.793831 -0.559183 
v -1.08307 -0.769593 1.60027 
v -1.08307 -0.994593 1.37527 
v -1.08307 -0.994593 1.60027 
v -1.08307 -0.769593 1.37527 
v 0.149591 0.23961 -0.775819 
v -0.150183 0.23961 -0.775819 
v -0.150183 0.389497 -0.775819 
v 0.149591 0.389497 -0.775819 
v -0.85879 0.568832 1.37927 
v 0.854908 -0.994593 1.37927 
v 0.85451 0.568831 1.37927 
v -0.859697 -0.994593 1.37927 
v 1.07769 -0.769296 -0.331789 
v 1.07769 -0.994296 -0.331789 
v 1.07769 -0.769296 -0.556789 
v 1.07769 -0.994296 -0.556789 
v -0.401701 1.2516 1.35662 
v -0.551772 1.2516 1.35662 
v -0.551772 1.10152 1.35662 
v -0.401701 1.10152 1.35662 
v -0.701843 0.801382 1.35662 
v -0.701843 1.10152 1.35662 
v -0.25163 0.801382 1.35662 
v -0.25163 1.10152 1.35662 
v -0.101559 0.50124 1.35662 
v -0.101559 0.801382 1.35662 
v -0.851914 0.50124 1.35662 
v -0.851914 0.801382 1.35662 
v 0.541731 1.2516 1.35662 
v 0.39166 1.2516 1.35662 
v 0.39166 1.10152 1.35662 
v 0.541731 1.10152 1.35662 
v 0.241589 0.801382 1.35662 
v 0.241589 1.10152 1.35662 
v 0.691803 0.801382 1.35662 
v 0.691802 1.10152 1.35662 
v 0.841874 0.50124 1.35662 
v 0.841874 0.801382 1.35662 
v 0.0915181 0.50124 1.35662 
v 0.0915181 0.801382 1.35662 
v -0.401701 1.2516 1.20655 
v -0.551772 1.2516 1.35662 
v -0.401701 1.2516 1.35662 
v -0.551772 1.2516 1.20655 
v 0.541731 1.2516 1.35662 
v 0.541731 1.2516 1.20655 
v 0.39166 1.2516 1.35662 
v 0.39166 1.2516 1.20655 
v -1.00026 0.125893 1.12494 
v -1.00026 0.275893 0.0749358 
v -1.00026 0.125893 -0.0750643 
v -1.00026 0.275893 0.974936 
v -1.00026 -0.624107 -0.0750643 
v -1.00026 -0.624107 1.12494 
v -1.00026 -0.624107 1.12494 
v -1.00026 -0.774107 0.0749358 
v -1.00026 -0.774107 0.974936 
v -1.00026 -0.624107 -0.0750643 
v -1.00026 -0.774107 0.974936 
v -1.00026 -0.774107 0.0749358 
v -1.00026 -0.924107 0.974936 
v -1.00026 -0.924107 0.0749358 
v -1.00026 0.425893 0.974936 
v -1.00026 0.425893 0.0749358 
v -1.00026 0.275893 0.974936 
v -1.00026 0.275893 0.0749358 
v -1.00026 0.125893 1.12494 
v -1.00026 0.275893 1.12494 
v -1.00026 0.275893 0.974936 
v -1.00026 0.125893 1.27494 
v -1.00026 -0.624107 1.12494 
v -1.00026 -0.624107 1.27494 
v -1.00026 0.125893 1.12494 
v -1.00026 -0.774107 0.974936 
v -1.00026 -0.774107 1.12494 
v -1.00026 -0.624107 1.12494 
v -1.00026 -0.774107 0.0749358 
v -1.00026 -0.624107 -0.0750643 
v -1.00026 -0.774107 -0.0750643 
v -1.00026 -0.624107 -0.0750643 
v -1.00026 0.125893 -0.225064 
v -1.00026 -0.624107 -0.225064 
v -1.00026 0.125893 -0.0750643 
v -1.00026 0.275893 0.0749358 
v -1.00026 0.275893 -0.0750643 
v -1.00026 0.125893 -0.0750643 
v 0.994492 -0.774107 1.12494 
v 0.844492 -0.774107 1.12494 
v 0.844492 -0.774107 0.974936 
v 0.994493 -0.774107 0.974936 
v 0.844492 -0.774107 0.074936 
v 0.994492 -0.774107 -0.075064 
v 0.994493 -0.774107 0.0749361 
v 0.844492 -0.774107 -0.075064 
v -1.00026 -0.774107 1.12494 
v -0.85026 -0.774107 0.974936 
v -0.85026 -0.774107 1.12494 
v -1.00026 -0.774107 0.974936 
v -0.85026 -0.774107 0.0749358 
v -1.00026 -0.774107 -0.0750643 
v -0.85026 -0.774107 -0.0750642 
v -1.00026 -0.774107 0.0749358 
v 0.994492 0.125893 1.12494 
v 0.994493 0.275893 0.0749361 
v 0.994493 0.275893 0.974936 
v 0.994493 0.125893 -0.075064 
v 0.994492 -0.624107 1.12494 
v 0.994493 -0.774107 0.0749361 
v 0.994493 -0.624107 -0.075064 
v 0.994493 -0.774107 0.974936 
v 0.994492 0.125893 1.12494 
v 0.994493 0.125893 -0.075064 
v 0.994492 -0.924107 0.974936 
v 0.994493 -0.774107 0.0749361 
v 0.994493 -0.774107 0.974936 
v 0.994492 -0.924107 0.0749361 
v 0.994493 0.275893 0.974936 
v 0.994492 0.425893 0.0749361 
v 0.994492 0.425893 0.974936 
v 0.994493 0.275893 0.0749361 
v 0.994492 0.125893 1.12494 
v 0.994493 0.275893 0.974936 
v 0.994492 0.275893 1.12494 
v 0.994492 0.125893 1.27494 
v 0.994492 -0.624107 1.27494 
v 0.994492 -0.624107 1.12494 
v 0.994492 0.125893 1.12494 
v 0.994493 -0.774107 0.974936 
v 0.994492 -0.624107 1.12494 
v 0.994492 -0.774107 1.12494 
v 0.994493 -0.774107 0.0749361 
v 0.994492 -0.774107 -0.075064 
v 0.994493 -0.624107 -0.075064 
v 0.994493 -0.624107 -0.075064 
v 0.994493 0.125893 -0.225064 
v 0.994493 0.125893 -0.075064 
v 0.994493 -0.624107 -0.225064 
v 0.994493 0.275893 0.0749361 
v 0.994493 0.125893 -0.075064 
v 0.994492 0.275893 -0.075064 
v 0.844492 0.125893 1.27494 
v 0.994492 -0.624107 1.27494 
v 0.994492 0.125893 1.27494 
v 0.844492 -0.624107 1.27494 
v -1.00026 0.125893 1.27494 
v -1.00026 -0.624107 1.27494 
v -0.85026 0.125893 1.27494 
v -0.85026 -0.624107 1.27494 
v -0.25163 1.10152 1.35662 
v -0.25163 1.10152 1.20655 
v -0.401701 1.10152 1.35662 
v -0.401701 1.10152 1.20655 
v -0.551772 1.10152 1.35662 
v -0.551772 1.10152 1.20655 
v -0.701843 1.10152 1.35662 
v -0.701843 1.10152 1.20655 
v -0.401701 1.10152 1.05647 
v -0.551772 1.10152 1.20655 
v -0.401701 1.10152 1.20655 
v -0.551772 1.10152 1.05647 
v 0.691802 1.10152 1.35662 
v 0.691802 1.10152 1.20655 
v 0.541731 1.10152 1.35662 
v 0.541731 1.10152 1.20655 
v 0.39166 1.10152 1.35662 
v 0.39166 1.10152 1.20655 
v 0.241589 1.10152 1.35662 
v 0.241589 1.10152 1.20655 
v 0.541731 1.10152 1.20655 
v 0.541731 1.10152 1.05647 
v 0.39166 1.10152 1.20655 
v 0.39166 1.10152 1.05647 
v -0.85879 0.568832 1.37927 
v -0.859697 -0.993709 -0.334183 
v -0.859697 -0.994593 1.37927 
v -0.859705 0.568831 -0.334183 
v -0.859705 0.568831 -0.559183 
v -1.0847 0.568831 -0.559183 
v -1.0847 0.793831 -0.559183 
v -0.859705 0.793831 -0.559183 
v 1.07769 -0.994296 -0.556789 
v 0.852691 -0.994296 -0.556789 
v 0.852691 -0.769296 -0.556789 
v 1.07769 -0.769296 -0.556789 
v -0.851914 0.50124 1.35662 
v -0.851914 0.801382 1.35662 
v -0.851914 0.801382 1.20655 
v -0.851914 0.50124 1.20655 
v 0.573833 -0.283882 -0.54657 
v 0.348833 -0.283882 -0.54657 
v 0.348833 -0.058882 -0.54657 
v 0.573833 -0.058882 -0.54657 
v 0.348431 -0.508819 -0.54657 
v 0.123431 -0.508819 -0.54657 
v 0.123431 -0.283819 -0.54657 
v 0.348431 -0.283819 -0.54657 
v 0.994492 -0.624107 1.27494 
v 0.844492 -0.624107 1.27494 
v 0.844492 -0.624107 1.12494 
v 0.994492 -0.624107 1.12494 
v 0.844492 -0.624107 -0.075064 
v 0.994493 -0.624107 -0.225064 
v 0.994493 -0.624107 -0.075064 
v 0.844492 -0.624107 -0.225064 
v -1.00026 -0.624107 1.27494 
v -0.85026 -0.624107 1.12494 
v -0.85026 -0.624107 1.27494 
v -1.00026 -0.624107 1.12494 
v -0.85026 -0.624107 -0.0750642 
v -1.00026 -0.624107 -0.225064 
v -0.85026 -0.624107 -0.225064 
v -1.00026 -0.624107 -0.0750643 
v 0.85451 0.568831 1.37927 
v 0.854908 -0.994593 1.37927 
v 0.854908 -0.993709 -0.334182 
v 0.8549 0.568831 -0.334182 
v 0.524145 1.06357 -1.37527 
v 0.524145 1.06357 -1.60027 
v 0.299145 1.06357 -1.37527 
v 0.299145 1.06357 -1.60027 
v 0.841874 0.801382 1.35662 
v 0.841874 0.50124 1.35662 
v 0.841874 0.50124 1.20655 
v 0.841874 0.801382 1.20655 
v 0.994492 0.275893 1.12494 
v 0.844492 0.275893 1.12494 
v 0.844492 0.125893 1.12494 
v 0.994492 0.125893 1.12494 
v 0.844492 -0.624107 1.12494 
v 0.994492 -0.774107 1.12494 
v 0.994492 -0.624107 1.12494 
v 0.844492 -0.774107 1.12494 
v -1.00026 0.275893 1.12494 
v -0.85026 0.125893 1.12494 
v -0.85026 0.275893 1.12494 
v -1.00026 0.125893 1.12494 
v -0.85026 -0.624107 1.12494 
v -1.00026 -0.774107 1.12494 
v -0.85026 -0.774107 1.12494 
v -1.00026 -0.624107 1.12494 
v -0.150183 0.989044 -0.925706 
v 0.149591 0.989044 -0.925706 
v -0.150183 0.989044 -1.37537 
v 0.149591 0.989044 -1.37537 
v 0.348431 -0.508819 -0.32157 
v 0.123431 -0.508819 -0.32157 
v 0.123431 -0.508819 -0.54657 
v 0.348431 -0.508819 -0.54657 
v -0.401701 0.951453 1.20655 
v -0.25163 0.951453 1.20655 
v -0.25163 0.951453 1.05647 
v -0.401701 0.951453 1.05647 
v -0.701843 0.951453 1.20655 
v -0.551772 0.951453 1.20655 
v -0.551772 0.951453 1.05647 
v -0.701843 0.951453 1.05647 
v 0.541731 0.951453 1.20655 
v 0.691802 0.951453 1.20655 
v 0.691802 0.951453 1.05647 
v 0.541731 0.951453 1.05647 
v 0.241589 0.951453 1.20655 
v 0.39166 0.951453 1.20655 
v 0.39166 0.951453 1.05647 
v 0.241589 0.951453 1.05647 
v -0.987606 -0.497236 0.494486 
v -1.21261 -0.497236 0.494486 
v -1.21261 -0.497236 0.269486 
v -0.987606 -0.497236 0.269486 
v -0.701843 1.10152 1.35662 
v -0.701843 0.951453 1.20655 
v -0.701843 0.801382 1.35662 
v -0.701843 1.10152 1.20655 
v -0.701843 0.801382 1.20655 
v -0.701843 0.951453 1.05647 
v -0.701843 0.50124 1.05647 
v -0.701843 0.50124 1.20655 
v -0.499733 -0.938231 1.01679 
v -0.102499 -1.2516 1.01679 
v -0.102499 -0.938231 1.01679 
v -0.499734 -1.2516 1.01679 
v 0.499907 -0.938231 1.01326 
v 0.102643 -0.938231 1.01326 
v 0.102642 -1.2516 1.01326 
v 0.499907 -1.2516 1.01326 
v 1.21261 -0.465119 0.605419 
v 0.987606 -0.465119 0.605419 
v 0.987606 -0.465119 0.380419 
v 1.21261 -0.465119 0.380419 
v 0.691803 0.801382 1.35662 
v 0.691802 0.951453 1.20655 
v 0.691802 1.10152 1.35662 
v 0.691802 1.10152 1.20655 
v 0.691803 0.801382 1.35662 
v 0.691802 0.801382 1.20655 
v 0.691802 0.951453 1.20655 
v 0.691802 0.801382 1.20655 
v 0.691803 0.50124 1.20655 
v 0.691802 0.50124 1.05647 
v 0.691802 0.951453 1.05647 
v 0.691802 0.951453 1.05647 
v 0.691802 0.951453 1.20655 
v 0.691802 0.801382 1.20655 
v 0.994492 0.425893 0.974936 
v 0.844492 0.425893 0.974936 
v 0.844492 0.275893 0.974936 
v 0.994493 0.275893 0.974936 
v 0.844492 -0.774107 0.974936 
v 0.994492 -0.924107 0.974936 
v 0.994493 -0.774107 0.974936 
v 0.844492 -0.924107 0.974936 
v -1.00026 0.425893 0.974936 
v -0.85026 0.275893 0.974936 
v -0.85026 0.425893 0.974936 
v -1.00026 0.275893 0.974936 
v -0.85026 -0.774107 0.974936 
v -1.00026 -0.924107 0.974936 
v -0.85026 -0.924107 0.974936 
v -1.00026 -0.774107 0.974936 
v 0.854908 -0.993709 -0.334182 
v -0.859697 -0.993709 -0.334183 
v 0.8549 0.568831 -0.334182 
v -0.859705 0.568831 -0.334183 
v 0.641134 0.785105 0.315268 
v 0.641134 0.560105 0.315268 
v 0.641134 0.785105 0.0902684 
v 0.641134 0.560105 0.0902684 
v 0.149591 0.839157 -0.925706 
v 0.299478 0.839157 -1.37537 
v 0.149591 0.839157 -1.37537 
v 0.299477 0.839157 -0.925706 
v 0.149591 0.839157 -1.37537 
v -0.150183 0.839157 -1.52525 
v -0.150183 0.839157 -1.37537 
v 0.149591 0.839157 -1.52525 
v 0.149591 0.839157 -0.775819 
v -0.150183 0.839157 -0.925706 
v -0.150183 0.839157 -0.775819 
v 0.149591 0.839157 -0.925706 
v -0.150183 0.839157 -0.925706 
v -0.300069 0.839157 -1.37537 
v -0.30007 0.839157 -0.925706 
v -0.150183 0.839157 -1.37537 
v -0.701843 0.801382 1.35662 
v -0.701843 0.801382 1.20655 
v -0.851914 0.801382 1.35662 
v -0.851914 0.801382 1.20655 
v -0.101559 0.801382 1.35662 
v -0.101559 0.801382 1.20655 
v -0.25163 0.801382 1.35662 
v -0.25163 0.801382 1.20655 
v -0.551772 0.801382 1.05647 
v -0.401701 0.801382 1.05647 
v -0.401701 0.801382 0.906403 
v -0.551772 0.801382 0.906403 
v 0.241589 0.801382 1.20655 
v 0.0915181 0.801382 1.35662 
v 0.241589 0.801382 1.35662 
v 0.0915181 0.801382 1.20655 
v 0.841874 0.801382 1.35662 
v 0.841874 0.801382 1.20655 
v 0.691803 0.801382 1.35662 
v 0.691802 0.801382 1.20655 
v 0.39166 0.801382 1.05647 
v 0.541731 0.801382 1.05647 
v 0.541731 0.801382 0.906403 
v 0.39166 0.801382 0.906403 
v -0.859705 0.793831 -0.559183 
v -1.0847 0.793831 -0.334183 
v -0.859705 0.793831 -0.334183 
v -1.0847 0.793831 -0.559183 
v -0.551772 1.2516 1.35662 
v -0.551772 1.2516 1.20655 
v -0.551772 1.10152 1.35662 
v -0.551772 1.10152 1.20655 
v -0.551772 0.801382 1.05647 
v -0.551772 0.50124 0.906403 
v -0.551772 0.50124 1.05647 
v -0.551772 0.801382 0.906403 
v -0.551772 1.10152 1.20655 
v -0.551772 1.10152 1.05647 
v -0.551772 0.951453 1.20655 
v -0.551772 0.951453 1.05647 
v 0.573833 -0.058882 -0.32157 
v 0.573833 -0.283882 -0.32157 
v 0.573833 -0.058882 -0.54657 
v 0.573833 -0.283882 -0.54657 
v 0.641134 0.785105 0.0902684 
v 0.416134 0.785105 0.315268 
v 0.641134 0.785105 0.315268 
v 0.416134 0.785105 0.0902684 
v 0.416837 0.785105 -0.134509 
v 0.191837 0.785105 0.0904915 
v 0.416837 0.785105 0.0904915 
v 0.191837 0.785105 -0.134509 
v 0.844492 -0.624107 -0.225064 
v 0.844492 0.125893 -0.225064 
v 0.994493 -0.624107 -0.225064 
v 0.994493 0.125893 -0.225064 
v -0.85026 0.125893 -0.225064 
v -0.85026 -0.624107 -0.225064 
v -1.00026 -0.624107 -0.225064 
v -1.00026 0.125893 -0.225064 
v 0.541731 1.10152 1.35662 
v 0.541731 1.10152 1.20655 
v 0.541731 1.2516 1.35662 
v 0.541731 1.2516 1.20655 
v 0.541731 0.801382 1.05647 
v 0.541731 0.50124 1.05647 
v 0.541731 0.50124 0.906403 
v 0.541731 0.801382 0.906403 
v 0.541731 0.951453 1.20655 
v 0.541731 0.951453 1.05647 
v 0.541731 1.10152 1.20655 
v 0.541731 1.10152 1.05647 
v -0.499734 -1.2516 1.01679 
v -0.499733 -0.938231 0.639332 
v -0.499733 -1.2516 0.639332 
v -0.499733 -0.938231 1.01679 
v 0.524145 1.06357 -1.37527 
v 0.524145 0.838571 -1.37527 
v 0.524145 1.06357 -1.60027 
v 0.524145 0.838571 -1.60027 
v 0.573833 -0.283882 -0.32157 
v 0.348833 -0.283882 -0.32157 
v 0.348833 -0.283882 -0.54657 
v 0.573833 -0.283882 -0.54657 
v -0.987606 -0.272467 0.719557 
v -1.21261 -0.272467 0.719557 
v -1.21261 -0.272467 0.494557 
v -0.987606 -0.272467 0.494557 
v 0.499907 -0.938231 1.01326 
v 0.499907 -1.2516 1.01326 
v 0.499906 -0.938231 0.635729 
v 0.499907 -1.2516 0.635728 
v -0.469269 -1.2516 0.426493 
v -0.469269 -0.938231 0.0490333 
v -0.469269 -1.2516 0.0490329 
v -0.469269 -0.938231 0.426493 
v 1.21261 -0.240237 0.379987 
v 0.987606 -0.240237 0.379987 
v 0.987606 -0.240237 0.154987 
v 1.21261 -0.240237 0.154987 
v 0.299477 0.689271 -0.775819 
v 0.299477 0.68927 -0.925706 
v 0.149591 0.689271 -0.775819 
v 0.149591 0.68927 -0.925706 
v 0.149591 0.689271 -0.625932 
v -0.150183 0.68927 -0.775819 
v -0.150183 0.689271 -0.625932 
v 0.149591 0.689271 -0.775819 
v -0.150183 0.68927 -0.775819 
v -0.150183 0.68927 -0.925706 
v -0.30007 0.689271 -0.775819 
v -0.30007 0.689271 -0.925706 
v 0.472649 -0.938231 0.41948 
v 0.472649 -1.2516 0.41948 
v 0.472648 -0.938231 0.0419219 
v 0.472649 -1.2516 0.0419215 
v 0.416837 0.560105 -0.134509 
v 0.191837 0.560105 -0.134509 
v 0.191837 0.785105 -0.134509 
v 0.416837 0.785105 -0.134509 
v -0.987606 -0.0474671 0.719557 
v -1.21261 -0.0474671 0.719557 
v -1.21261 -0.272467 0.719557 
v -0.987606 -0.272467 0.719557 
v 0.416837 0.785105 0.0904915 
v 0.416837 0.560105 0.0904915 
v 0.416837 0.785105 -0.134509 
v 0.416837 0.560105 -0.134509 
v 0.994492 -0.774107 -0.075064 
v 0.844492 -0.774107 -0.075064 
v 0.844492 -0.624107 -0.075064 
v 0.994493 -0.624107 -0.075064 
v 0.844492 0.125893 -0.075064 
v 0.994492 0.275893 -0.075064 
v 0.994493 0.125893 -0.075064 
v 0.844492 0.275893 -0.075064 
v -1.00026 -0.774107 -0.0750643 
v -0.85026 -0.624107 -0.0750642 
v -0.85026 -0.774107 -0.0750642 
v -1.00026 -0.624107 -0.0750643 
v -0.85026 0.125893 -0.0750642 
v -1.00026 0.275893 -0.0750643 
v -0.85026 0.275893 -0.0750642 
v -1.00026 0.125893 -0.0750643 
v 0.85451 0.568831 1.37927 
v 0.8549 0.568831 -0.334182 
v -0.85879 0.568832 1.37927 
v -0.859705 0.568831 -0.334183 
v 0.348431 -0.283819 -0.32157 
v 0.348431 -0.508819 -0.32157 
v 0.348431 -0.283819 -0.54657 
v 0.348431 -0.508819 -0.54657 
v -0.30007 0.38964 -0.476046 
v -0.30007 0.539527 -0.476046 
v -0.30007 0.539384 -0.775819 
v -0.150183 0.53942 -0.625932 
v -0.30007 0.539527 -0.476046 
v -0.150183 0.539479 -0.476046 
v 0.149591 0.539479 -0.476045 
v -0.150183 0.53942 -0.625932 
v -0.150183 0.539479 -0.476046 
v 0.149591 0.53942 -0.625932 
v -0.30007 0.839157 -0.925706 
v -0.300069 0.839157 -1.37537 
v -0.30007 0.689271 -0.925706 
v -0.300069 0.539384 -1.37537 
v 0.299477 0.539384 -0.775819 
v 0.149591 0.53942 -0.625932 
v 0.299477 0.539527 -0.476045 
v 0.149591 0.539384 -0.775819 
v 0.149591 0.539527 -0.326159 
v -0.150183 0.539479 -0.476046 
v -0.150183 0.539527 -0.326159 
v 0.149591 0.539479 -0.476045 
v -0.30007 0.389497 -1.07559 
v -0.30007 0.38964 -0.476046 
v -0.30007 0.539384 -0.775819 
v -0.30007 0.539384 -1.07559 
v -0.30007 0.539384 -1.07559 
v -0.30007 0.689271 -0.775819 
v -0.30007 0.689271 -0.925706 
v -0.300069 0.539384 -1.37537 
v -0.30007 0.689271 -0.775819 
v -0.30007 0.539384 -1.07559 
v -0.30007 0.539384 -0.775819 
v -0.30007 0.539527 -0.476046 
v -0.150183 0.53942 -0.625932 
v -0.30007 0.539384 -0.775819 
v -0.150183 0.539384 -0.775819 
v 0.299477 0.539527 -0.476045 
v 0.149591 0.53942 -0.625932 
v 0.149591 0.539479 -0.476045 
v 1.21261 -0.240119 0.605419 
v 0.987606 -0.240119 0.605419 
v 0.987606 -0.465119 0.605419 
v 1.21261 -0.465119 0.605419 
v 0.299478 0.539384 -1.37537 
v 0.299477 0.68927 -0.925706 
v 0.299477 0.539384 -1.07559 
v 0.299478 0.839157 -1.37537 
v 0.299477 0.839157 -0.925706 
v 0.299477 0.689271 -0.775819 
v 0.299477 0.539384 -0.775819 
v 0.299477 0.38964 -0.476045 
v 0.299477 0.389497 -1.07559 
v 0.299477 0.539384 -0.775819 
v 0.299477 0.539384 -1.07559 
v 0.299477 0.539384 -0.775819 
v 0.299477 0.539527 -0.476045 
v 0.299477 0.38964 -0.476045 
v 0.0754276 -0.938231 0.0419223 
v 0.472649 -1.2516 0.0419215 
v 0.0754271 -1.2516 0.0419219 
v 0.472648 -0.938231 0.0419219 
v -0.469269 -1.2516 0.0490329 
v -0.0720345 -0.938231 0.0490337 
v -0.0720341 -1.2516 0.0490333 
v -0.469269 -0.938231 0.0490333 
v 0.994492 -0.924107 0.0749361 
v 0.844492 -0.924107 0.074936 
v 0.844492 -0.774107 0.074936 
v 0.994493 -0.774107 0.0749361 
v 0.844492 0.275893 0.074936 
v 0.994492 0.425893 0.0749361 
v 0.994493 0.275893 0.0749361 
v 0.844492 0.425893 0.074936 
v -1.00026 -0.924107 0.0749358 
v -0.85026 -0.774107 0.0749358 
v -0.85026 -0.924107 0.0749358 
v -1.00026 -0.774107 0.0749358 
v -0.85026 0.275893 0.0749358 
v -1.00026 0.425893 0.0749358 
v -0.85026 0.425893 0.0749358 
v -1.00026 0.275893 0.0749358 
v 0.641134 0.560105 0.0902684 
v 0.416134 0.560105 0.0902684 
v 0.416134 0.785105 0.0902684 
v 0.641134 0.785105 0.0902684 
v 0.994492 0.425893 0.974936 
v 0.994492 0.425893 0.0749361 
v 0.844492 0.425893 0.974936 
v 0.844492 0.425893 0.074936 
v -0.85026 0.425893 0.974936 
v -1.00026 0.425893 0.0749358 
v -1.00026 0.425893 0.974936 
v -0.85026 0.425893 0.0749358 
v -0.987606 -0.272236 0.494486 
v -1.21261 -0.272236 0.494486 
v -1.21261 -0.497236 0.494486 
v -0.987606 -0.497236 0.494486 
v -0.150183 0.839157 -1.37537 
v -0.150183 0.539384 -1.52525 
v -0.150183 0.539384 -1.37537 
v -0.150183 0.839157 -1.52525 
v -0.150183 0.989044 -0.925706 
v -0.150183 0.989044 -1.37537 
v -0.150183 0.839157 -0.925706 
v -0.150183 0.839157 -1.37537 
v -0.150183 0.53942 -0.625932 
v -0.150183 0.68927 -0.775819 
v -0.150183 0.539384 -0.775819 
v -0.150183 0.689271 -0.625932 
v -0.150183 0.839157 -0.775819 
v -0.150183 0.68927 -0.925706 
v -0.150183 0.68927 -0.775819 
v -0.150183 0.839157 -0.925706 
v -0.150183 0.389604 -0.476046 
v -0.150183 0.239753 -0.326159 
v -0.150183 0.539527 -0.326159 
v -0.150183 0.389604 -0.476046 
v -0.150183 0.539527 -0.326159 
v -0.150183 0.539479 -0.476046 
v -0.150183 0.23961 -0.775819 
v -0.150183 0.239753 -0.326159 
v -0.150183 0.389604 -0.476046 
v -0.150183 0.389497 -0.775819 
v 1.21261 -0.240237 0.154987 
v 0.987606 -0.240237 0.154987 
v 0.987606 -0.0152373 0.154987 
v 1.21261 -0.0152373 0.154987 
v 0.149591 0.539527 -0.326159 
v 0.149591 0.389604 -0.476045 
v 0.149591 0.539479 -0.476045 
v 0.149591 0.239753 -0.326159 
v 0.149591 0.839157 -1.37537 
v 0.149591 0.539384 -1.37537 
v 0.149591 0.539384 -1.52525 
v 0.149591 0.839157 -1.52525 
v 0.149591 0.689271 -0.625932 
v 0.149591 0.53942 -0.625932 
v 0.149591 0.689271 -0.775819 
v 0.149591 0.539384 -0.775819 
v 0.149591 0.839157 -0.775819 
v 0.149591 0.689271 -0.775819 
v 0.149591 0.839157 -0.925706 
v 0.149591 0.68927 -0.925706 
v 0.149591 0.989044 -1.37537 
v 0.149591 0.989044 -0.925706 
v 0.149591 0.839157 -0.925706 
v 0.149591 0.839157 -1.37537 
v 0.149591 0.239753 -0.326159 
v 0.149591 0.23961 -0.775819 
v 0.149591 0.389604 -0.476045 
v 0.149591 0.389497 -0.775819 
v -0.469269 -0.938231 0.426493 
v -0.0720345 -1.2516 0.426494 
v -0.0720349 -0.938231 0.426493 
v -0.469269 -1.2516 0.426493 
v 0.472649 -0.938231 0.41948 
v 0.0754279 -0.938231 0.41948 
v 0.0754276 -1.2516 0.419481 
v 0.472649 -1.2516 0.41948 
v 1.21261 -0.0152373 0.379987 
v 0.987606 -0.0152373 0.379987 
v 0.987606 -0.240237 0.379987 
v 1.21261 -0.240237 0.379987 
v 0.994492 0.275893 1.12494 
v 0.844492 0.275893 0.974936 
v 0.844492 0.275893 1.12494 
v 0.994493 0.275893 0.974936 
v 0.994492 0.275893 -0.075064 
v 0.844492 0.275893 0.074936 
v 0.994493 0.275893 0.0749361 
v 0.844492 0.275893 -0.075064 
v -1.00026 0.275893 1.12494 
v -0.85026 0.275893 0.974936 
v -1.00026 0.275893 0.974936 
v -0.85026 0.275893 1.12494 
v -1.00026 0.275893 0.0749358 
v -0.85026 0.275893 0.0749358 
v -1.00026 0.275893 -0.0750643 
v -0.85026 0.275893 -0.0750642 
v -0.987606 -0.497236 0.269486 
v -1.21261 -0.497236 0.269486 
v -1.21261 -0.272236 0.269486 
v -0.987606 -0.272236 0.269486 
v 0.641134 0.785105 0.315268 
v 0.416134 0.785105 0.315268 
v 0.416134 0.560105 0.315268 
v 0.641134 0.560105 0.315268 
v 0.149591 0.239753 -0.326159 
v -0.150183 0.23961 -0.775819 
v 0.149591 0.23961 -0.775819 
v -0.150183 0.239753 -0.326159 
v 0.0754279 -0.938231 0.41948 
v 0.0754271 -1.2516 0.0419219 
v 0.0754276 -1.2516 0.419481 
v 0.0754276 -0.938231 0.0419223 
v 1.21261 -0.465119 0.380419 
v 0.987606 -0.465119 0.380419 
v 0.987606 -0.240119 0.380419 
v 1.21261 -0.240119 0.380419 
v 0.0915181 0.50124 1.35662 
v 0.0915181 0.801382 1.35662 
v 0.0915181 0.801382 1.20655 
v 0.0915181 0.50124 1.20655 
v -0.0720349 -0.938231 0.426493 
v -0.0720341 -1.2516 0.0490333 
v -0.0720345 -0.938231 0.0490337 
v -0.0720345 -1.2516 0.426494 
v 0.102643 -0.938231 1.01326 
v 0.102642 -1.2516 0.635729 
v 0.102642 -1.2516 1.01326 
v 0.102642 -0.938231 0.635729 
v 0.994492 0.125893 1.27494 
v 0.844492 0.125893 1.12494 
v 0.844492 0.125893 1.27494 
v 0.994492 0.125893 1.12494 
v 0.994493 0.125893 -0.225064 
v 0.844492 0.125893 -0.075064 
v 0.994493 0.125893 -0.075064 
v 0.844492 0.125893 -0.225064 
v -1.00026 0.125893 1.27494 
v -0.85026 0.125893 1.12494 
v -1.00026 0.125893 1.12494 
v -0.85026 0.125893 1.27494 
v -1.00026 0.125893 -0.0750643 
v -0.85026 0.125893 -0.0750642 
v -1.00026 0.125893 -0.225064 
v -0.85026 0.125893 -0.225064 
v 0.123431 -0.283819 -0.32157 
v 0.123431 -0.508819 -0.54657 
v 0.123431 -0.508819 -0.32157 
v 0.123431 -0.283819 -0.54657 
v -0.102499 -0.938231 1.01679 
v -0.102498 -1.2516 0.639332 
v -0.102499 -0.938231 0.639332 
v -0.102499 -1.2516 1.01679 
v -0.101559 0.801382 1.35662 
v -0.101559 0.50124 1.35662 
v -0.101559 0.50124 1.20655 
v -0.101559 0.801382 1.20655 
v -0.150183 0.389497 -0.775819 
v -0.150183 0.389604 -0.476046 
v -0.30007 0.38964 -0.476046 
v 0.149591 0.389497 -0.775819 
v 0.299477 0.38964 -0.476045 
v 0.149591 0.389604 -0.476045 
v -0.30007 0.389497 -1.07559 
v 0.149591 0.389497 -0.775819 
v -0.150183 0.389497 -0.775819 
v 0.299477 0.389497 -1.07559 
v 0.149591 0.389497 -0.775819 
v 0.299477 0.389497 -1.07559 
v 0.299477 0.38964 -0.476045 
v -0.150183 0.389497 -0.775819 
v -0.30007 0.38964 -0.476046 
v -0.30007 0.389497 -1.07559 
v 0.191837 0.785105 0.0904915 
v 0.191837 0.560105 -0.134509 
v 0.191837 0.560105 0.0904915 
v 0.191837 0.785105 -0.134509 
v -0.987606 -0.272467 0.494557 
v -1.21261 -0.272467 0.494557 
v -1.21261 -0.0474671 0.494557 
v -0.987606 -0.0474671 0.494557 
v 0.416837 0.785105 0.0904915 
v 0.191837 0.785105 0.0904915 
v 0.191837 0.560105 0.0904915 
v 0.416837 0.560105 0.0904915 
v 0.241589 1.10152 1.35662 
v 0.241589 0.951453 1.20655 
v 0.241589 0.801382 1.35662 
v 0.241589 1.10152 1.20655 
v 0.241589 0.801382 1.20655 
v 0.241589 0.951453 1.05647 
v 0.241589 0.50124 1.05647 
v 0.241589 0.50124 1.20655 
v 1.21261 -0.0152373 0.154987 
v 0.987606 -0.0152373 0.379987 
v 1.21261 -0.0152373 0.379987 
v 0.987606 -0.0152373 0.154987 
v -0.25163 0.801382 1.35662 
v -0.25163 0.951453 1.20655 
v -0.25163 1.10152 1.35662 
v -0.25163 1.10152 1.20655 
v -0.25163 0.801382 1.35662 
v -0.25163 0.801382 1.20655 
v -0.25163 0.951453 1.20655 
v -0.25163 0.801382 1.20655 
v -0.25163 0.50124 1.20655 
v -0.25163 0.50124 1.05647 
v -0.25163 0.951453 1.05647 
v -0.25163 0.951453 1.05647 
v -0.25163 0.951453 1.20655 
v -0.25163 0.801382 1.20655 
v -0.987606 -0.0474671 0.494557 
v -1.21261 -0.0474671 0.719557 
v -0.987606 -0.0474671 0.719557 
v -1.21261 -0.0474671 0.494557 
v 0.573833 -0.058882 -0.32157 
v 0.573833 -0.058882 -0.54657 
v 0.348833 -0.058882 -0.32157 
v 0.348833 -0.058882 -0.54657 
v 0.299145 1.06357 -1.37527 
v 0.299145 0.838571 -1.60027 
v 0.299145 0.838571 -1.37527 
v 0.299145 1.06357 -1.60027 
v -0.150183 0.539384 -1.52525 
v 0.149591 0.539384 -1.52525 
v -0.150183 0.539384 -1.37537 
v 0.149591 0.539384 -1.37537 
v -0.30007 0.539384 -1.07559 
v -0.300069 0.539384 -1.37537 
v 0.299477 0.539384 -1.07559 
v 0.299478 0.539384 -1.37537 
v -0.30007 0.539384 -1.07559 
v 0.149591 0.539384 -1.37537 
v 0.299477 0.539384 -1.07559 
v -0.150183 0.539384 -1.37537 
v 0.102642 -1.2516 0.635729 
v 0.102642 -0.938231 0.635729 
v 0.499907 -1.2516 0.635728 
v 0.499906 -0.938231 0.635729 
v -0.499733 -1.2516 0.639332 
v -0.102499 -0.938231 0.639332 
v -0.102498 -1.2516 0.639332 
v -0.499733 -0.938231 0.639332 
v 0.348833 -0.058882 -0.32157 
v 0.348833 -0.283882 -0.54657 
v 0.348833 -0.283882 -0.32157 
v 0.348833 -0.058882 -0.54657 
v -0.859705 0.568831 -0.334183 
v -1.0847 0.568831 -0.334183 
v -1.0847 0.568831 -0.559183 
v -0.859705 0.568831 -0.559183 
v 0.39166 1.2516 1.35662 
v 0.39166 1.2516 1.20655 
v 0.39166 1.10152 1.35662 
v 0.39166 1.10152 1.20655 
v 0.39166 0.801382 1.05647 
v 0.39166 0.50124 0.906403 
v 0.39166 0.50124 1.05647 
v 0.39166 0.801382 0.906403 
v 0.39166 1.10152 1.20655 
v 0.39166 1.10152 1.05647 
v 0.39166 0.951453 1.20655 
v 0.39166 0.951453 1.05647 
v 0.416134 0.785105 0.315268 
v 0.416134 0.560105 0.0902684 
v 0.416134 0.560105 0.315268 
v 0.416134 0.785105 0.0902684 
v -0.401701 1.10152 1.35662 
v -0.401701 1.10152 1.20655 
v -0.401701 1.2516 1.35662 
v -0.401701 1.2516 1.20655 
v -0.401701 0.801382 1.05647 
v -0.401701 0.50124 1.05647 
v -0.401701 0.50124 0.906403 
v -0.401701 0.801382 0.906403 
v -0.401701 0.951453 1.20655 
v -0.401701 0.951453 1.05647 
v -0.401701 1.10152 1.20655 
v -0.401701 1.10152 1.05647 
v 1.21261 -0.240119 0.380419 
v 0.987606 -0.240119 0.605419 
v 1.21261 -0.240119 0.605419 
v 0.987606 -0.240119 0.380419 
v -0.987606 -0.272236 0.494486 
v -0.987606 -0.272236 0.269486 
v -1.21261 -0.272236 0.494486 
v -1.21261 -0.272236 0.269486 
v 0.348431 -0.283819 -0.54657 
v 0.123431 -0.283819 -0.32157 
v 0.348431 -0.283819 -0.32157 
v 0.123431 -0.283819 -0.54657 
v -0.551772 0.50124 0.906403 
v -0.551772 0.801382 0.906403 
v -0.401701 0.50124 0.906403 
v -0.401701 0.801382 0.906403 
v 0.39166 0.50124 0.906403 
v 0.39166 0.801382 0.906403 
v 0.541731 0.50124 0.906403 
v 0.541731 0.801382 0.906403 
v 0.524145 0.838571 -1.37527 
v 0.299145 0.838571 -1.37527 
v 0.299145 0.838571 -1.60027 
v 0.524145 0.838571 -1.60027 
v 1.07769 -0.769296 -0.331789 
v 0.852691 -0.769296 -0.331789 
v 0.852691 -0.994296 -0.331789 
v 1.07769 -0.994296 -0.331789 
v -0.859705 0.793831 -0.334183 
v -1.0847 0.793831 -0.334183 
v -1.0847 0.568831 -0.334183 
v -0.859705 0.568831 -0.334183 
v -0.701843 0.951453 1.05647 
v -0.551772 0.951453 1.05647 
v -0.551772 0.801382 1.05647 
v -0.701843 0.50124 1.05647 
v -0.551772 0.50124 1.05647 
v -0.401701 0.951453 1.05647 
v -0.551772 1.10152 1.05647 
v -0.401701 1.10152 1.05647 
v -0.25163 0.951453 1.05647 
v -0.401701 0.801382 1.05647 
v -0.25163 0.50124 1.05647 
v -0.401701 0.801382 1.05647 
v -0.25163 0.951453 1.05647 
v -0.401701 0.50124 1.05647 
v -0.401701 0.801382 1.05647 
v -0.551772 0.951453 1.05647 
v -0.401701 0.951453 1.05647 
v -0.551772 0.801382 1.05647 
v 0.241589 0.951453 1.05647 
v 0.39166 0.951453 1.05647 
v 0.39166 0.801382 1.05647 
v 0.241589 0.50124 1.05647 
v 0.39166 0.50124 1.05647 
v 0.541731 0.951453 1.05647 
v 0.39166 1.10152 1.05647 
v 0.541731 1.10152 1.05647 
v 0.691802 0.951453 1.05647 
v 0.541731 0.801382 1.05647 
v 0.691802 0.50124 1.05647 
v 0.541731 0.801382 1.05647 
v 0.691802 0.951453 1.05647 
v 0.541731 0.50124 1.05647 
v 0.541731 0.801382 1.05647 
v 0.39166 0.951453 1.05647 
v 0.541731 0.951453 1.05647 
v 0.39166 0.801382 1.05647 
v -0.150183 0.539479 -0.476046 
v -0.30007 0.539527 -0.476046 
v -0.30007 0.38964 -0.476046 
v -0.150183 0.389604 -0.476046 
v 0.149591 0.539479 -0.476045 
v 0.299477 0.38964 -0.476045 
v 0.299477 0.539527 -0.476045 
v 0.149591 0.389604 -0.476045 
v 0.852691 -0.769296 -0.331789 
v 0.852691 -0.994296 -0.556789 
v 0.852691 -0.994296 -0.331789 
v 0.852691 -0.769296 -0.556789 
v -0.858071 -0.769593 1.60027 
v -0.858071 -0.994593 1.60027 
v -0.858071 -0.769593 1.37527 
v -0.858071 -0.994593 1.37527 
v -0.859705 0.793831 -0.334183 
v -0.859705 0.568831 -0.334183 
v -0.859705 0.793831 -0.559183 
v -0.859705 0.568831 -0.559183 
v -0.401701 1.10152 1.20655 
v -0.551772 1.10152 1.20655 
v -0.551772 1.2516 1.20655 
v -0.401701 1.2516 1.20655 
v -0.25163 0.951453 1.20655 
v -0.401701 0.951453 1.20655 
v -0.401701 1.10152 1.20655 
v -0.25163 1.10152 1.20655 
v -0.551772 0.951453 1.20655 
v -0.701843 0.951453 1.20655 
v -0.701843 1.10152 1.20655 
v -0.551772 1.10152 1.20655 
v -0.851914 0.50124 1.20655 
v -0.851914 0.801382 1.20655 
v -0.701843 0.50124 1.20655 
v -0.701843 0.801382 1.20655 
v -0.25163 0.50124 1.20655 
v -0.101559 0.801382 1.20655 
v -0.101559 0.50124 1.20655 
v -0.25163 0.801382 1.20655 
v 0.541731 1.10152 1.20655 
v 0.39166 1.10152 1.20655 
v 0.39166 1.2516 1.20655 
v 0.541731 1.2516 1.20655 
v 0.691802 0.951453 1.20655 
v 0.541731 0.951453 1.20655 
v 0.541731 1.10152 1.20655 
v 0.691802 1.10152 1.20655 
v 0.39166 0.951453 1.20655 
v 0.241589 0.951453 1.20655 
v 0.241589 1.10152 1.20655 
v 0.39166 1.10152 1.20655 
v 0.0915181 0.801382 1.20655 
v 0.241589 0.50124 1.20655 
v 0.0915181 0.50124 1.20655 
v 0.241589 0.801382 1.20655 
v 0.691803 0.50124 1.20655 
v 0.841874 0.801382 1.20655 
v 0.841874 0.50124 1.20655 
v 0.691802 0.801382 1.20655 
v -0.150183 0.53942 -0.625932 
v 0.149591 0.53942 -0.625932 
v -0.150183 0.689271 -0.625932 
v 0.149591 0.689271 -0.625932 
v -0.858071 -0.769593 1.60027 
v -0.858071 -0.769593 1.37527 
v -1.08307 -0.769593 1.60027 
v -1.08307 -0.769593 1.37527 
v 1.07769 -0.769296 -0.331789 
v 1.07769 -0.769296 -0.556789 
v 0.852691 -0.769296 -0.331789 
v 0.852691 -0.769296 -0.556789 
v -0.858071 -0.994593 1.37527 
v -1.08307 -0.994593 1.37527 
v -1.08307 -0.769593 1.37527 
v -0.858071 -0.769593 1.37527 
v 0.299477 0.689271 -0.775819 
v 0.149591 0.689271 -0.775819 
v 0.149591 0.539384 -0.775819 
v 0.299477 0.539384 -0.775819 
v -0.150183 0.68927 -0.775819 
v 0.149591 0.689271 -0.775819 
v -0.150183 0.839157 -0.775819 
v 0.149591 0.839157 -0.775819 
v -0.150183 0.68927 -0.775819 
v -0.30007 0.689271 -0.775819 
v -0.30007 0.539384 -0.775819 
v -0.150183 0.539384 -0.775819 
v 0.299477 0.839157 -0.925706 
v 0.149591 0.839157 -0.925706 
v 0.149591 0.68927 -0.925706 
v 0.299477 0.68927 -0.925706 
v -0.150183 0.839157 -0.925706 
v -0.30007 0.839157 -0.925706 
v -0.30007 0.689271 -0.925706 
v -0.150183 0.68927 -0.925706 
v 0.149591 0.989044 -0.925706 
v -0.150183 0.989044 -0.925706 
v -0.150183 0.839157 -0.925706 
v 0.149591 0.839157 -0.925706 
v 0.524145 1.06357 -1.37527 
v 0.299145 1.06357 -1.37527 
v 0.299145 0.838571 -1.37527 
v 0.524145 0.838571 -1.37527 

vn 0 0 -1 
vn 0 0 -1 
vn 0 0 -1 
vn 0 0 -1 
vn 0 0 -1 
vn 0 0 -1 
vn 0 0 -1 
vn 0 0 -1 
vn 0 0 -1 
vn 0 0 -1 
vn 0 0 -1 
vn 0 0 -1 
vn 0 0 -1 
vn 0 0 -1 
vn 0 0 -1 
vn 0 0 -1 
vn 0 0 -1 
vn 0 0 -1 
vn 0 0 -1 
vn 0 0 -1 
vn 0 -1 0 
vn 0 -1 0 
vn 0 -1 0 
vn 0 -1 0 
vn 0 -1 0 
vn 0 -1 0 
vn 0 -1 0 
vn 0 -1 0 
vn 0 -1 0 
vn 0 -1 0 
vn 0 -1 0 
vn 0 -1 0 
vn 0 -1 0 
vn 0 -1 0 
vn 0 -1 0 
vn 0 -1 0 
vn 0 0 -1 
vn 0 0 -1 
vn 0 0 -1 
vn 0 0 -1 
vn 0 0 1 
vn 0 0 1 
vn 0 0 1 
vn 0 0 1 
vn -1 0 0 
vn -1 0 0 
vn -1 0 0 
vn -1 0 0 
vn -1 0 0 
vn -1 0 0 
vn -1 0 0 
vn -1 0 0 
vn 0 -1 0 
vn 0 -1 0 
vn 0 -1 0 
vn 0 -1 0 
vn 0 -1 0 
vn 0 -1 0 
vn 0 -1 0 
vn 0 -1 0 
vn 0 -1 0 
vn 0 -1 0 
vn 0 -1 0 
vn 0 -1 0 
vn 1 0 0 
vn 1 0 0 
vn 1 0 0 
vn 1 0 0 
vn 1 0 0 
vn 1 0 0 
vn 1 0 0 
vn 1 0 0 
vn 0 -1 0 
vn 0 -1 0 
vn 0 -1 0 
vn 0 -1 0 
vn 0 -1 0 
vn 0 -1 0 
vn 0 -1 0 
vn 0 -1 0 
vn -1 0 0 
vn -1 0 0 
vn -1 0 0 
vn -1 0 0 
vn -1 0 0 
vn -1 0 0 
vn -1 0 0 
vn -1 0 0 
vn 0 0 -1 
vn 0 0 -1 
vn 0 0 -1 
vn 0 0 -1 
vn 0 0 1 
vn 0 0 1 
vn 0 0 1 
vn 0 0 1 
vn 1 0 0 
vn 1 0 0 
vn 1 0 0 
vn 1 0 0 
vn 0 0 1 
vn 0 0 1 
vn 0 0 1 
vn 0 0 1 
vn 0 0 1 
vn 0 0 1 
vn 0 0 1 
vn 0 0 1 
vn 0 0 1 
vn 0 0 1 
vn 0 0 1 
vn 0 0 1 
vn 0 0 1 
vn 0 0 1 
vn 0 0 1 
vn 0 0 1 
vn 0 0 1 
vn 0 0 1 
vn 0 0 1 
vn 0 0 1 
vn 0 0 1 
vn 0 0 1 
vn 0 0 1 
vn 0 0 1 
vn 0 1 0 
vn 0 1 0 
vn 0 1 0 
vn 0 1 0 
vn 0 1 0 
vn 0 1 0 
vn 0 1 0 
vn 0 1 0 
vn -1 0 0 
vn -1 0 0 
vn -1 0 0 
vn -1 0 0 
vn -1 0 0 
vn -1 0 0 
vn -1 0 0 
vn -1 0 0 
vn -1 0 0 
vn -1 0 0 
vn -1 0 0 
vn -1 0 0 
vn -1 0 0 
vn -1 0 0 
vn -1 0 0 
vn -1 0 0 
vn -1 0 0 
vn -1 0 0 
vn -1 0 0 
vn -1 0 0 
vn -1 0 0 
vn -1 0 0 
vn -1 0 0 
vn -1 0 0 
vn -1 0 0 
vn -1 0 0 
vn -1 0 0 
vn -1 0 0 
vn -1 0 0 
vn -1 0 0 
vn -1 0 0 
vn -1 0 0 
vn -1 0 0 
vn -1 0 0 
vn -1 0 0 
vn -1 0 0 
vn -1 0 0 
vn -1 0 0 
vn 0 -1 0 
vn 0 -1 0 
vn 0 -1 0 
vn 0 -1 0 
vn 0 -1 0 
vn 0 -1 0 
vn 0 -1 0 
vn 0 -1 0 
vn 0 -1 0 
vn 0 -1 0 
vn 0 -1 0 
vn 0 -1 0 
vn 0 -1 0 
vn 0 -1 0 
vn 0 -1 0 
vn 0 -1 0 
vn 1 0 0 
vn 1 0 0 
vn 1 0 0 
vn 1 0 0 
vn 1 0 0 
vn 1 0 0 
vn 1 0 0 
vn 1 0 0 
vn 1 0 0 
vn 1 0 0 
vn 1 0 0 
vn 1 0 0 
vn 1 0 0 
vn 1 0 0 
vn 1 0 0 
vn 1 0 0 
vn 1 0 0 
vn 1 0 0 
vn 1 0 0 
vn 1 0 0 
vn 1 0 0 
vn 1 0 0 
vn 1 0 0 
vn 1 0 0 
vn 1 0 0 
vn 1 0 0 
vn 1 0 0 
vn 1 0 0 
vn 1 0 0 
vn 1 0 0 
vn 1 0 0 
vn 1 0 0 
vn 1 0 0 
vn 1 0 0 
vn 1 0 0 
vn 1 0 0 
vn 1 0 0 
vn 1 0 0 
vn 0 0 1 
vn 0 0 1 
vn 0 0 1 
vn 0 0 1 
vn 0 0 1 
vn 0 0 1 
vn 0 0 1 
vn 0 0 1 
vn 0 1 0 
vn 0 1 0 
vn 0 1 0 
vn 0 1 0 
vn 0 1 0 
vn 0 1 0 
vn 0 1 0 
vn 0 1 0 
vn 0 1 0 
vn 0 1 0 
vn 0 1 0 
vn 0 1 0 
vn 0 1 0 
vn 0 1 0 
vn 0 1 0 
vn 0 1 0 
vn 0 1 0 
vn 0 1 0 
vn 0 1 0 
vn 0 1 0 
vn 0 1 0 
vn 0 1 0 
vn 0 1 0 
vn 0 1 0 
vn -1 0 0 
vn -1 0 0 
vn -1 0 0 
vn -1 0 0 
vn 0 0 -1 
vn 0 0 -1 
vn 0 0 -1 
vn 0 0 -1 
vn 0 0 -1 
vn 0 0 -1 
vn 0 0 -1 
vn 0 0 -1 
vn -1 0 0 
vn -1 0 0 
vn -1 0 0 
vn -1 0 0 
vn 0 0 -1 
vn 0 0 -1 
vn 0 0 -1 
vn 0 0 -1 
vn 0 0 -1 
vn 0 0 -1 
vn 0 0 -1 
vn 0 0 -1 
vn 0 -1 0 
vn 0 -1 0 
vn 0 -1 0 
vn 0 -1 0 
vn 0 -1 0 
vn 0 -1 0 
vn 0 -1 0 
vn 0 -1 0 
vn 0 -1 0 
vn 0 -1 0 
vn 0 -1 0 
vn 0 -1 0 
vn 0 -1 0 
vn 0 -1 0 
vn 0 -1 0 
vn 0 -1 0 
vn 1 0 0 
vn 1 0 0 
vn 1 0 0 
vn 1 0 0 
vn 0 1 0 
vn 0 1 0 
vn 0 1 0 
vn 0 1 0 
vn 1 0 0 
vn 1 0 0 
vn 1 0 0 
vn 1 0 0 
vn 0 0 1 
vn 0 0 1 
vn 0 0 1 
vn 0 0 1 
vn 0 0 1 
vn 0 0 1 
vn 0 0 1 
vn 0 0 1 
vn 0 0 1 
vn 0 0 1 
vn 0 0 1 
vn 0 0 1 
vn 0 0 1 
vn 0 0 1 
vn 0 0 1 
vn 0 0 1 
vn 0 1 0 
vn 0 1 0 
vn 0 1 0 
vn 0 1 0 
vn 0 -1 0 
vn 0 -1 0 
vn 0 -1 0 
vn 0 -1 0 
vn 0 1 0 
vn 0 1 0 
vn 0 1 0 
vn 0 1 0 
vn 0 1 0 
vn 0 1 0 
vn 0 1 0 
vn 0 1 0 
vn 0 1 0 
vn 0 1 0 
vn 0 1 0 
vn 0 1 0 
vn 0 1 0 
vn 0 1 0 
vn 0 1 0 
vn 0 1 0 
vn 0 -1 0 
vn 0 -1 0 
vn 0 -1 0 
vn 0 -1 0 
vn -1 0 0 
vn -1 0 0 
vn -1 0 0 
vn -1 0 0 
vn -1 0 0 
vn -1 0 0 
vn -1 0 0 
vn -1 0 0 
vn 0 0 1 
vn 0 0 1 
vn 0 0 1 
vn 0 0 1 
vn 0 0 1 
vn 0 0 1 
vn 0 0 1 
vn 0 0 1 
vn 0 -1 0 
vn 0 -1 0 
vn 0 -1 0 
vn 0 -1 0 
vn 1 0 0 
vn 1 0 0 
vn 1 0 0 
vn 1 0 0 
vn 1 0 0 
vn 1 0 0 
vn 1 0 0 
vn 1 0 0 
vn 1 0 0 
vn 1 0 0 
vn 1 0 0 
vn 1 0 0 
vn 1 0 0 
vn 1 0 0 
vn 0 0 1 
vn 0 0 1 
vn 0 0 1 
vn 0 0 1 
vn 0 0 1 
vn 0 0 1 
vn 0 0 1 
vn 0 0 1 
vn 0 0 1 
vn 0 0 1 
vn 0 0 1 
vn 0 0 1 
vn 0 0 1 
vn 0 0 1 
vn 0 0 1 
vn 0 0 1 
vn 0 0 -1 
vn 0 0 -1 
vn 0 0 -1 
vn 0 0 -1 
vn 1 0 0 
vn 1 0 0 
vn 1 0 0 
vn 1 0 0 
vn 0 1 0 
vn 0 1 0 
vn 0 1 0 
vn 0 1 0 
vn 0 1 0 
vn 0 1 0 
vn 0 1 0 
vn 0 1 0 
vn 0 1 0 
vn 0 1 0 
vn 0 1 0 
vn 0 1 0 
vn 0 1 0 
vn 0 1 0 
vn 0 1 0 
vn 0 1 0 
vn 0 1 0 
vn 0 1 0 
vn 0 1 0 
vn 0 1 0 
vn 0 1 0 
vn 0 1 0 
vn 0 1 0 
vn 0 1 0 
vn 0 1 0 
vn 0 1 0 
vn 0 1 0 
vn 0 1 0 
vn 0 1 0 
vn 0 1 0 
vn 0 1 0 
vn 0 1 0 
vn 0 1 0 
vn 0 1 0 
vn 0 1 0 
vn 0 1 0 
vn 0 1 0 
vn 0 1 0 
vn 0 1 0 
vn 0 1 0 
vn 0 1 0 
vn 0 1 0 
vn 0 1 0 
vn 0 1 0 
vn -1 0 0 
vn -1 0 0 
vn -1 0 0 
vn -1 0 0 
vn -1 0 0 
vn -1 0 0 
vn -1 0 0 
vn -1 0 0 
vn -1 0 0 
vn -1 0 0 
vn -1 0 0 
vn -1 0 0 
vn 1 0 0 
vn 1 0 0 
vn 1 0 0 
vn 1 0 0 
vn 0 1 0 
vn 0 1 0 
vn 0 1 0 
vn 0 1 0 
vn 0 1 0 
vn 0 1 0 
vn 0 1 0 
vn 0 1 0 
vn 0 0 -1 
vn 0 0 -1 
vn 0 0 -1 
vn 0 0 -1 
vn 0 0 -1 
vn 0 0 -1 
vn 0 0 -1 
vn 0 0 -1 
vn 1 0 0 
vn 1 0 0 
vn 1 0 0 
vn 1 0 0 
vn 1 0 0 
vn 1 0 0 
vn 1 0 0 
vn 1 0 0 
vn 1 0 0 
vn 1 0 0 
vn 1 0 0 
vn 1 0 0 
vn -1 0 0 
vn -1 0 0 
vn -1 0 0 
vn -1 0 0 
vn 1 0 0 
vn 1 0 0 
vn 1 0 0 
vn 1 0 0 
vn 0 -1 0 
vn 0 -1 0 
vn 0 -1 0 
vn 0 -1 0 
vn 0 -1 0 
vn 0 -1 0 
vn 0 -1 0 
vn 0 -1 0 
vn 1 0 0 
vn 1 0 0 
vn 1 0 0 
vn 1 0 0 
vn -1 0 0 
vn -1 0 0 
vn -1 0 0 
vn -1 0 0 
vn 0 -1 0 
vn 0 -1 0 
vn 0 -1 0 
vn 0 -1 0 
vn 0 1 0 
vn 0 1 0 
vn 0 1 0 
vn 0 1 0 
vn 0 1 0 
vn 0 1 0 
vn 0 1 0 
vn 0 1 0 
vn 0 1 0 
vn 0 1 0 
vn 0 1 0 
vn 0 1 0 
vn 1 0 0 
vn 1 0 0 
vn 1 0 0 
vn 1 0 0 
vn 0 0 -1 
vn 0 0 -1 
vn 0 0 -1 
vn 0 0 -1 
vn 0 0 1 
vn 0 0 1 
vn 0 0 1 
vn 0 0 1 
vn 1 0 0 
vn 1 0 0 
vn 1 0 0 
vn 1 0 0 
vn 0 0 -1 
vn 0 0 -1 
vn 0 0 -1 
vn 0 0 -1 
vn 0 0 -1 
vn 0 0 -1 
vn 0 0 -1 
vn 0 0 -1 
vn 0 0 -1 
vn 0 0 -1 
vn 0 0 -1 
vn 0 0 -1 
vn 0 0 -1 
vn 0 0 -1 
vn 0 0 -1 
vn 0 0 -1 
vn 0 1 0 
vn 0 1 0 
vn 0 1 0 
vn 0 1 0 
vn 1 0 0 
vn 1 0 0 
vn 1 0 0 
vn 1 0 0 
vn -1 0 0 
vn -1 0 0 
vn -1 0 0 
vn 0 1 0 
vn 0 1 0 
vn 0 1 0 
vn 0 1 0 
vn 0 1 0 
vn 0 1 0 
vn 0 1 0 
vn -1 0 0 
vn -1 0 0 
vn -1 0 0 
vn -1 0 0 
vn 0 1 0 
vn 0 1 0 
vn 0 1 0 
vn 0 1 0 
vn 0 1 0 
vn 0 1 0 
vn 0 1 0 
vn 0 1 0 
vn -1 0 0 
vn -1 0 0 
vn -1 0 0 
vn -1 0 0 
vn -1 0 0 
vn -1 0 0 
vn -1 0 0 
vn -1 0 0 
vn -1 0 0 
vn -1 0 0 
vn -1 0 0 
vn 0 1 0 
vn 0 1 0 
vn 0 1 0 
vn 0 1 0 
vn 0 1 0 
vn 0 1 0 
vn 0 1 0 
vn 0 0 1 
vn 0 0 1 
vn 0 0 1 
vn 0 0 1 
vn 1 0 0 
vn 1 0 0 
vn 1 0 0 
vn 1 0 0 
vn 1 0 0 
vn 1 0 0 
vn 1 0 0 
vn 1 0 0 
vn 1 0 0 
vn 1 0 0 
vn 1 0 0 
vn 1 0 0 
vn 1 0 0 
vn 1 0 0 
vn 0 0 -1 
vn 0 0 -1 
vn 0 0 -1 
vn 0 0 -1 
vn 0 0 -1 
vn 0 0 -1 
vn 0 0 -1 
vn 0 0 -1 
vn 0 0 -1 
vn 0 0 -1 
vn 0 0 -1 
vn 0 0 -1 
vn 0 0 -1 
vn 0 0 -1 
vn 0 0 -1 
vn 0 0 -1 
vn 0 0 -1 
vn 0 0 -1 
vn 0 0 -1 
vn 0 0 -1 
vn 0 0 -1 
vn 0 0 -1 
vn 0 0 -1 
vn 0 0 -1 
vn 0 0 -1 
vn 0 0 -1 
vn 0 0 -1 
vn 0 0 -1 
vn 0 1 0 
vn 0 1 0 
vn 0 1 0 
vn 0 1 0 
vn 0 1 0 
vn 0 1 0 
vn 0 1 0 
vn 0 1 0 
vn 0 0 1 
vn 0 0 1 
vn 0 0 1 
vn 0 0 1 
vn -1 0 0 
vn -1 0 0 
vn -1 0 0 
vn -1 0 0 
vn -1 0 0 
vn -1 0 0 
vn -1 0 0 
vn -1 0 0 
vn -1 0 0 
vn -1 0 0 
vn -1 0 0 
vn -1 0 0 
vn -1 0 0 
vn -1 0 0 
vn -1 0 0 
vn -1 0 0 
vn -1 0 0 
vn -1 0 0 
vn -1 0 0 
vn -1 0 0 
vn -1 0 0 
vn -1 0 0 
vn -1 0 0 
vn -1 0 0 
vn -1 0 0 
vn -1 0 0 
vn 0 0 -1 
vn 0 0 -1 
vn 0 0 -1 
vn 0 0 -1 
vn 1 0 0 
vn 1 0 0 
vn 1 0 0 
vn 1 0 0 
vn 1 0 0 
vn 1 0 0 
vn 1 0 0 
vn 1 0 0 
vn 1 0 0 
vn 1 0 0 
vn 1 0 0 
vn 1 0 0 
vn 1 0 0 
vn 1 0 0 
vn 1 0 0 
vn 1 0 0 
vn 1 0 0 
vn 1 0 0 
vn 1 0 0 
vn 1 0 0 
vn 1 0 0 
vn 1 0 0 
vn 1 0 0 
vn 1 0 0 
vn 0 0 1 
vn 0 0 1 
vn 0 0 1 
vn 0 0 1 
vn 0 0 1 
vn 0 0 1 
vn 0 0 1 
vn 0 0 1 
vn 0 0 1 
vn 0 0 1 
vn 0 0 1 
vn 0 0 1 
vn 0 1 0 
vn 0 1 0 
vn 0 1 0 
vn 0 1 0 
vn 0 1 0 
vn 0 1 0 
vn 0 1 0 
vn 0 1 0 
vn 0 1 0 
vn 0 1 0 
vn 0 1 0 
vn 0 1 0 
vn 0 1 0 
vn 0 1 0 
vn 0 1 0 
vn 0 1 0 
vn 0 0 -1 
vn 0 0 -1 
vn 0 0 -1 
vn 0 0 -1 
vn 0 0 1 
vn 0 0 1 
vn 0 0 1 
vn 0 0 1 
vn 0 -1 0 
vn 0 -1 0 
vn 0 -1 0 
vn 0 -1 0 
vn -1 0 0 
vn -1 0 0 
vn -1 0 0 
vn -1 0 0 
vn 0 0 -1 
vn 0 0 -1 
vn 0 0 -1 
vn 0 0 -1 
vn -1 0 0 
vn -1 0 0 
vn -1 0 0 
vn -1 0 0 
vn 1 0 0 
vn 1 0 0 
vn 1 0 0 
vn 1 0 0 
vn -1 0 0 
vn -1 0 0 
vn -1 0 0 
vn -1 0 0 
vn 0 1 0 
vn 0 1 0 
vn 0 1 0 
vn 0 1 0 
vn 0 1 0 
vn 0 1 0 
vn 0 1 0 
vn 0 1 0 
vn 0 1 0 
vn 0 1 0 
vn 0 1 0 
vn 0 1 0 
vn 0 1 0 
vn 0 1 0 
vn 0 1 0 
vn 0 1 0 
vn -1 0 0 
vn -1 0 0 
vn -1 0 0 
vn -1 0 0 
vn 1 0 0 
vn 1 0 0 
vn 1 0 0 
vn 1 0 0 
vn 1 0 0 
vn 1 0 0 
vn 1 0 0 
vn 1 0 0 
vn 0 -1 0 
vn 0 -1 0 
vn 0 -1 0 
vn 0 -1 0 
vn 0 -1 0 
vn 0 -1 0 
vn 0 -1 0 
vn 0 -1 0 
vn 0 -1 0 
vn 0 -1 0 
vn 0 -1 0 
vn 0 -1 0 
vn 0 -1 0 
vn 0 -1 0 
vn 0 -1 0 
vn 0 -1 0 
vn -1 0 0 
vn -1 0 0 
vn -1 0 0 
vn -1 0 0 
vn 0 0 -1 
vn 0 0 -1 
vn 0 0 -1 
vn 0 0 -1 
vn 0 0 1 
vn 0 0 1 
vn 0 0 1 
vn 0 0 1 
vn -1 0 0 
vn -1 0 0 
vn -1 0 0 
vn -1 0 0 
vn -1 0 0 
vn -1 0 0 
vn -1 0 0 
vn -1 0 0 
vn 0 1 0 
vn 0 1 0 
vn 0 1 0 
vn 0 1 0 
vn 1 0 0 
vn 1 0 0 
vn 1 0 0 
vn 1 0 0 
vn 1 0 0 
vn 1 0 0 
vn 1 0 0 
vn 1 0 0 
vn 1 0 0 
vn 1 0 0 
vn 1 0 0 
vn 1 0 0 
vn 1 0 0 
vn 1 0 0 
vn 0 1 0 
vn 0 1 0 
vn 0 1 0 
vn 0 1 0 
vn 0 1 0 
vn 0 1 0 
vn 0 1 0 
vn 0 1 0 
vn -1 0 0 
vn -1 0 0 
vn -1 0 0 
vn -1 0 0 
vn 0 -1 0 
vn 0 -1 0 
vn 0 -1 0 
vn 0 -1 0 
vn 0 -1 0 
vn 0 -1 0 
vn 0 -1 0 
vn 0 -1 0 
vn 0 -1 0 
vn 0 -1 0 
vn 0 -1 0 
vn 0 -1 0 
vn 0 0 -1 
vn 0 0 -1 
vn 0 0 -1 
vn 0 0 -1 
vn 0 0 -1 
vn 0 0 -1 
vn 0 0 -1 
vn 0 0 -1 
vn -1 0 0 
vn -1 0 0 
vn -1 0 0 
vn -1 0 0 
vn 0 -1 0 
vn 0 -1 0 
vn 0 -1 0 
vn 0 -1 0 
vn -1 0 0 
vn -1 0 0 
vn -1 0 0 
vn -1 0 0 
vn -1 0 0 
vn -1 0 0 
vn -1 0 0 
vn -1 0 0 
vn -1 0 0 
vn -1 0 0 
vn -1 0 0 
vn -1 0 0 
vn -1 0 0 
vn -1 0 0 
vn -1 0 0 
vn -1 0 0 
vn 1 0 0 
vn 1 0 0 
vn 1 0 0 
vn 1 0 0 
vn 1 0 0 
vn 1 0 0 
vn 1 0 0 
vn 1 0 0 
vn 1 0 0 
vn 1 0 0 
vn 1 0 0 
vn 1 0 0 
vn 0 1 0 
vn 0 1 0 
vn 0 1 0 
vn 0 1 0 
vn 0 1 0 
vn 0 1 0 
vn 0 1 0 
vn 0 1 0 
vn 0 1 0 
vn 0 1 0 
vn 0 1 0 
vn 0 1 0 
vn 0 0 -1 
vn 0 0 -1 
vn 0 0 -1 
vn 0 0 -1 
vn 0 0 -1 
vn 0 0 -1 
vn 0 0 -1 
vn 0 0 -1 
vn 0 -1 0 
vn 0 -1 0 
vn 0 -1 0 
vn 0 -1 0 
vn 0 0 1 
vn 0 0 1 
vn 0 0 1 
vn 0 0 1 
vn 0 0 1 
vn 0 0 1 
vn 0 0 1 
vn 0 0 1 
vn 0 0 -1 
vn 0 0 -1 
vn 0 0 -1 
vn 0 0 -1 
vn 0 0 -1 
vn 0 0 -1 
vn 0 0 -1 
vn 0 0 -1 
vn 0 0 -1 
vn 0 0 -1 
vn 0 0 -1 
vn 0 0 -1 
vn 0 0 -1 
vn 0 0 -1 
vn 0 0 -1 
vn 0 0 -1 
vn 0 0 -1 
vn 0 0 -1 
vn 0 0 -1 
vn 0 0 -1 
vn 0 0 -1 
vn 0 0 -1 
vn 0 0 -1 
vn 0 0 -1 
vn 0 0 -1 
vn 0 0 -1 
vn 0 0 -1 
vn 0 0 -1 
vn 0 0 -1 
vn 0 0 -1 
vn 0 0 -1 
vn 0 0 -1 
vn 0 0 -1 
vn 0 0 -1 
vn 0 0 -1 
vn 0 0 -1 
vn 0 0 1 
vn 0 0 1 
vn 0 0 1 
vn 0 0 1 
vn 0 0 1 
vn 0 0 1 
vn 0 0 1 
vn 0 0 1 
vn -1 0 0 
vn -1 0 0 
vn -1 0 0 
vn -1 0 0 
vn 1 0 0 
vn 1 0 0 
vn 1 0 0 
vn 1 0 0 
vn 1 0 0 
vn 1 0 0 
vn 1 0 0 
vn 1 0 0 
vn 0 0 -1 
vn 0 0 -1 
vn 0 0 -1 
vn 0 0 -1 
vn 0 0 -1 
vn 0 0 -1 
vn 0 0 -1 
vn 0 0 -1 
vn 0 0 -1 
vn 0 0 -1 
vn 0 0 -1 
vn 0 0 -1 
vn 0 0 -1 
vn 0 0 -1 
vn 0 0 -1 
vn 0 0 -1 
vn 0 0 -1 
vn 0 0 -1 
vn 0 0 -1 
vn 0 0 -1 
vn 0 0 -1 
vn 0 0 -1 
vn 0 0 -1 
vn 0 0 -1 
vn 0 0 -1 
vn 0 0 -1 
vn 0 0 -1 
vn 0 0 -1 
vn 0 0 -1 
vn 0 0 -1 
vn 0 0 -1 
vn 0 0 -1 
vn 0 0 -1 
vn 0 0 -1 
vn 0 0 -1 
vn 0 0 -1 
vn 0 0 -1 
vn 0 0 -1 
vn 0 0 -1 
vn 0 0 -1 
vn 0 0 1 
vn 0 0 1 
vn 0 0 1 
vn 0 0 1 
vn 0 1 0 
vn 0 1 0 
vn 0 1 0 
vn 0 1 0 
vn 0 1 0 
vn 0 1 0 
vn 0 1 0 
vn 0 1 0 
vn 0 0 -1 
vn 0 0 -1 
vn 0 0 -1 
vn 0 0 -1 
vn 0 0 1 
vn 0 0 1 
vn 0 0 1 
vn 0 0 1 
vn 0 0 1 
vn 0 0 1 
vn 0 0 1 
vn 0 0 1 
vn 0 0 1 
vn 0 0 1 
vn 0 0 1 
vn 0 0 1 
vn 0 0 1 
vn 0 0 1 
vn 0 0 1 
vn 0 0 1 
vn 0 0 1 
vn 0 0 1 
vn 0 0 1 
vn 0 0 1 
vn 0 0 1 
vn 0 0 1 
vn 0 0 1 
vn 0 0 1 
vn 0 0 1 
vn 0 0 1 
vn 0 0 1 
vn 0 0 1 

vt 0.751516 0.642511 
vt 0.751516 0.668342 
vt 0.725685 0.668342 
vt 0.725685 0.642511 
vt 0.720396 0.677869 
vt 0.774071 0.624194 
vt 0.774071 0.677869 
vt 0.720396 0.624194 
vt 0.745191 0.677869 
vt 0.772029 0.624194 
vt 0.772029 0.677869 
vt 0.745191 0.624194 
vt 0.745158 0.680037 
vt 0.745158 0.626362 
vt 0.771995 0.680037 
vt 0.771995 0.626362 
vt 0.748334 0.676113 
vt 0.775172 0.622439 
vt 0.775172 0.676113 
vt 0.748334 0.622439 
vt 0.928145 0.915415 
vt 0.853548 0.836882 
vt 0.928145 0.836882 
vt 0.853548 0.915415 
vt 0.928145 0.836882 
vt 0.853548 0.915415 
vt 0.928145 0.915415 
vt 0.853548 0.836882 
vt 0.853548 0.915415 
vt 0.853548 0.836882 
vt 0.928145 0.836882 
vt 0.928145 0.915415 
vt 0.853548 0.836882 
vt 0.853548 0.915415 
vt 0.928145 0.915415 
vt 0.928145 0.836882 
vt 0.747093 0.729702 
vt 0.747093 0.622352 
vt 0.773931 0.729702 
vt 0.773931 0.622352 
vt 0.777285 0.408423 
vt 0.777285 0.452269 
vt 0.733439 0.452269 
vt 0.733439 0.408423 
vt 0.777285 0.452269 
vt 0.733439 0.496114 
vt 0.733439 0.452269 
vt 0.777285 0.496114 
vt 0.777285 0.452269 
vt 0.733439 0.496114 
vt 0.733439 0.452269 
vt 0.777285 0.496114 
vt 0.375945 0.0171362 
vt 0.690992 0.332395 
vt 0.375945 0.332395 
vt 0.690992 0.0171362 
vt 0.908821 0.408423 
vt 0.908821 0.452269 
vt 0.864976 0.452269 
vt 0.864976 0.408423 
vt 0.908821 0.408423 
vt 0.908821 0.452269 
vt 0.864976 0.452269 
vt 0.864976 0.408423 
vt 0.777285 0.408423 
vt 0.733439 0.408423 
vt 0.777285 0.364578 
vt 0.733439 0.364578 
vt 0.777285 0.408423 
vt 0.733439 0.408423 
vt 0.777285 0.364578 
vt 0.733439 0.364578 
vt 0.614967 0.381403 
vt 0.467221 0.356778 
vt 0.614967 0.356778 
vt 0.467221 0.381403 
vt 0.614967 0.356778 
vt 0.467221 0.356778 
vt 0.614967 0.381403 
vt 0.467221 0.381403 
vt 0.777285 0.452269 
vt 0.733439 0.496114 
vt 0.733439 0.452269 
vt 0.777285 0.496114 
vt 0.777285 0.452269 
vt 0.733439 0.496114 
vt 0.733439 0.452269 
vt 0.777285 0.496114 
vt 0.774808 0.622439 
vt 0.774808 0.676113 
vt 0.74797 0.676113 
vt 0.74797 0.622439 
vt 0.0157963 0.986108 
vt 0.34463 0.68624 
vt 0.34463 0.986108 
vt 0.0157963 0.68624 
vt 0.777285 0.408423 
vt 0.733439 0.408423 
vt 0.777285 0.364578 
vt 0.733439 0.364578 
vt 0.776179 0.982178 
vt 0.751865 0.982178 
vt 0.751865 0.957865 
vt 0.776179 0.957865 
vt 0.727552 0.909238 
vt 0.727552 0.957865 
vt 0.800492 0.909238 
vt 0.800492 0.957865 
vt 0.824805 0.860612 
vt 0.824805 0.909238 
vt 0.703239 0.860612 
vt 0.703239 0.909238 
vt 0.776179 0.982178 
vt 0.751865 0.982178 
vt 0.751865 0.957865 
vt 0.776179 0.957865 
vt 0.727552 0.909238 
vt 0.727552 0.957865 
vt 0.800492 0.909238 
vt 0.800492 0.957865 
vt 0.824805 0.860612 
vt 0.824805 0.909238 
vt 0.703239 0.860612 
vt 0.703239 0.909238 
vt 0.767785 0.810436 
vt 0.743472 0.834749 
vt 0.743472 0.810436 
vt 0.767785 0.834749 
vt 0.743472 0.810436 
vt 0.767785 0.810436 
vt 0.743472 0.834749 
vt 0.767785 0.834749 
vt 0.437901 0.574211 
vt 0.610271 0.598835 
vt 0.634896 0.574211 
vt 0.462525 0.598835 
vt 0.634896 0.451089 
vt 0.437901 0.451089 
vt 0.437901 0.451089 
vt 0.610271 0.426465 
vt 0.462525 0.426465 
vt 0.634896 0.451089 
vt 0.462525 0.426465 
vt 0.610271 0.426465 
vt 0.462525 0.40184 
vt 0.610271 0.40184 
vt 0.462525 0.62346 
vt 0.610271 0.62346 
vt 0.462525 0.598835 
vt 0.610271 0.598835 
vt 0.437901 0.574211 
vt 0.437901 0.598835 
vt 0.462525 0.598835 
vt 0.413276 0.574211 
vt 0.437901 0.451089 
vt 0.413276 0.451089 
vt 0.437901 0.574211 
vt 0.462525 0.426465 
vt 0.437901 0.426465 
vt 0.437901 0.451089 
vt 0.610271 0.426465 
vt 0.634896 0.451089 
vt 0.634896 0.426465 
vt 0.634896 0.451089 
vt 0.65952 0.574211 
vt 0.65952 0.451089 
vt 0.634896 0.574211 
vt 0.610271 0.598835 
vt 0.634896 0.598835 
vt 0.634896 0.574211 
vt 0.496793 0.358004 
vt 0.496793 0.382629 
vt 0.472168 0.382629 
vt 0.472168 0.358004 
vt 0.497854 0.38159 
vt 0.473229 0.356966 
vt 0.497854 0.356966 
vt 0.473229 0.38159 
vt 0.496793 0.358004 
vt 0.472168 0.382629 
vt 0.496793 0.382629 
vt 0.472168 0.358004 
vt 0.497854 0.38159 
vt 0.473229 0.356966 
vt 0.473229 0.38159 
vt 0.497854 0.356966 
vt 0.437901 0.574211 
vt 0.610271 0.598835 
vt 0.462525 0.598835 
vt 0.634896 0.574211 
vt 0.437901 0.451089 
vt 0.610271 0.426465 
vt 0.634896 0.451089 
vt 0.462525 0.426465 
vt 0.437901 0.574211 
vt 0.634896 0.574211 
vt 0.462525 0.40184 
vt 0.610271 0.426465 
vt 0.462525 0.426465 
vt 0.610271 0.40184 
vt 0.462525 0.598835 
vt 0.610271 0.62346 
vt 0.462525 0.62346 
vt 0.610271 0.598835 
vt 0.437901 0.574211 
vt 0.462525 0.598835 
vt 0.437901 0.598835 
vt 0.413276 0.574211 
vt 0.413276 0.451089 
vt 0.437901 0.451089 
vt 0.437901 0.574211 
vt 0.462525 0.426465 
vt 0.437901 0.451089 
vt 0.437901 0.426465 
vt 0.610271 0.426465 
vt 0.634896 0.426465 
vt 0.634896 0.451089 
vt 0.634896 0.451089 
vt 0.65952 0.574211 
vt 0.634896 0.574211 
vt 0.65952 0.451089 
vt 0.610271 0.598835 
vt 0.634896 0.574211 
vt 0.634896 0.598835 
vt 0.368967 0.575391 
vt 0.393591 0.452269 
vt 0.393591 0.575391 
vt 0.368967 0.452269 
vt 0.393591 0.575391 
vt 0.393591 0.452269 
vt 0.368967 0.575391 
vt 0.368967 0.452269 
vt 0.74209 0.810421 
vt 0.766403 0.810421 
vt 0.74209 0.834734 
vt 0.766403 0.834734 
vt 0.740621 0.810781 
vt 0.764935 0.810781 
vt 0.740621 0.835094 
vt 0.764935 0.835094 
vt 0.766737 0.810848 
vt 0.742424 0.835162 
vt 0.742424 0.810848 
vt 0.766737 0.835162 
vt 0.74209 0.810421 
vt 0.766403 0.810421 
vt 0.74209 0.834734 
vt 0.766403 0.834734 
vt 0.740621 0.810781 
vt 0.764935 0.810781 
vt 0.740621 0.835094 
vt 0.764935 0.835094 
vt 0.742424 0.810848 
vt 0.766737 0.810848 
vt 0.742424 0.835162 
vt 0.766737 0.835162 
vt 0.350379 0.321245 
vt 0.0145399 0.0148972 
vt 0.350379 0.0148972 
vt 0.0145399 0.321245 
vt 0.864976 0.408423 
vt 0.864976 0.452269 
vt 0.82113 0.452269 
vt 0.82113 0.408423 
vt 0.864976 0.408423 
vt 0.864976 0.452269 
vt 0.82113 0.452269 
vt 0.82113 0.408423 
vt 0.881986 0.655403 
vt 0.881986 0.704029 
vt 0.857673 0.704029 
vt 0.857673 0.655403 
vt 0.864976 0.408423 
vt 0.864976 0.452269 
vt 0.82113 0.452269 
vt 0.82113 0.408423 
vt 0.864976 0.408423 
vt 0.864976 0.452269 
vt 0.82113 0.452269 
vt 0.82113 0.408423 
vt 0.497826 0.357048 
vt 0.497826 0.381672 
vt 0.473201 0.381672 
vt 0.473201 0.357048 
vt 0.497739 0.383503 
vt 0.473115 0.358879 
vt 0.497739 0.358878 
vt 0.473115 0.383503 
vt 0.497826 0.357048 
vt 0.473201 0.381672 
vt 0.497826 0.381672 
vt 0.473201 0.357048 
vt 0.497739 0.383503 
vt 0.473115 0.358879 
vt 0.473115 0.383503 
vt 0.497739 0.358878 
vt 0.34463 0.986108 
vt 0.34463 0.68624 
vt 0.67337 0.68624 
vt 0.67337 0.986108 
vt 0.741166 0.782118 
vt 0.766997 0.782118 
vt 0.741166 0.807949 
vt 0.766997 0.807949 
vt 0.856685 0.704029 
vt 0.856685 0.655403 
vt 0.880998 0.655403 
vt 0.880998 0.704029 
vt 0.391746 0.550025 
vt 0.391746 0.57465 
vt 0.367122 0.57465 
vt 0.367122 0.550025 
vt 0.392501 0.57465 
vt 0.367876 0.550025 
vt 0.392501 0.550025 
vt 0.367876 0.57465 
vt 0.391746 0.550025 
vt 0.367122 0.57465 
vt 0.391746 0.57465 
vt 0.367122 0.550025 
vt 0.392501 0.57465 
vt 0.367876 0.550025 
vt 0.367876 0.57465 
vt 0.392501 0.550025 
vt 0.713702 0.810162 
vt 0.713702 0.756487 
vt 0.794214 0.810162 
vt 0.794214 0.756487 
vt 0.908821 0.408423 
vt 0.908821 0.452269 
vt 0.864976 0.452269 
vt 0.864976 0.408423 
vt 0.741603 0.834809 
vt 0.741603 0.810496 
vt 0.765916 0.810496 
vt 0.765916 0.834809 
vt 0.766737 0.83567 
vt 0.742424 0.83567 
vt 0.742424 0.811357 
vt 0.766737 0.811357 
vt 0.741603 0.834809 
vt 0.741603 0.810496 
vt 0.765916 0.810496 
vt 0.765916 0.834809 
vt 0.766737 0.83567 
vt 0.742424 0.83567 
vt 0.742424 0.811357 
vt 0.766737 0.811357 
vt 0.908821 0.408423 
vt 0.908821 0.452269 
vt 0.864976 0.452269 
vt 0.864976 0.408423 
vt 0.879391 0.753303 
vt 0.855078 0.72899 
vt 0.879391 0.704677 
vt 0.855078 0.753303 
vt 0.855078 0.704677 
vt 0.830765 0.72899 
vt 0.830765 0.65605 
vt 0.855078 0.65605 
vt 0.990011 0.836882 
vt 0.928145 0.915415 
vt 0.990011 0.915415 
vt 0.928145 0.836882 
vt 0.990011 0.836882 
vt 0.990011 0.915415 
vt 0.928145 0.915415 
vt 0.928145 0.836882 
vt 0.908821 0.408423 
vt 0.908821 0.452269 
vt 0.864976 0.452269 
vt 0.864976 0.408423 
vt 0.880339 0.705411 
vt 0.856026 0.729724 
vt 0.880339 0.754037 
vt 0.856026 0.754037 
vt 0.880339 0.705411 
vt 0.856026 0.705411 
vt 0.856026 0.729724 
vt 0.856026 0.705411 
vt 0.856026 0.656784 
vt 0.831712 0.656784 
vt 0.831712 0.729724 
vt 0.831712 0.729724 
vt 0.856026 0.729724 
vt 0.856026 0.705411 
vt 0.391372 0.549283 
vt 0.391372 0.573907 
vt 0.366748 0.573907 
vt 0.366748 0.549283 
vt 0.392507 0.57465 
vt 0.367883 0.550025 
vt 0.392507 0.550025 
vt 0.367883 0.57465 
vt 0.391372 0.549283 
vt 0.366748 0.573907 
vt 0.391372 0.573907 
vt 0.366748 0.549283 
vt 0.392507 0.57465 
vt 0.367883 0.550025 
vt 0.367883 0.57465 
vt 0.392507 0.550025 
vt 0.690992 0.332395 
vt 0.690992 0.0171362 
vt 0.978291 0.332395 
vt 0.978291 0.0171362 
vt 0.777285 0.408423 
vt 0.733439 0.408423 
vt 0.777285 0.364578 
vt 0.733439 0.364578 
vt 0.716289 0.783566 
vt 0.796802 0.756728 
vt 0.796802 0.783566 
vt 0.716289 0.756728 
vt 0.728219 0.782527 
vt 0.781894 0.755689 
vt 0.781894 0.782527 
vt 0.728219 0.755689 
vt 0.728031 0.781654 
vt 0.781706 0.754816 
vt 0.781706 0.781654 
vt 0.728031 0.754816 
vt 0.715245 0.756456 
vt 0.795757 0.783294 
vt 0.715245 0.783294 
vt 0.795757 0.756456 
vt 0.742424 0.80986 
vt 0.766737 0.80986 
vt 0.742424 0.834173 
vt 0.766737 0.834173 
vt 0.742424 0.8343 
vt 0.742424 0.809987 
vt 0.766737 0.8343 
vt 0.766737 0.809987 
vt 0.742424 0.834329 
vt 0.742424 0.810016 
vt 0.766737 0.810016 
vt 0.766737 0.834329 
vt 0.766737 0.80986 
vt 0.742424 0.834173 
vt 0.742424 0.80986 
vt 0.766737 0.834173 
vt 0.742424 0.8343 
vt 0.742424 0.809987 
vt 0.766737 0.8343 
vt 0.766737 0.809987 
vt 0.742424 0.834329 
vt 0.742424 0.810016 
vt 0.766737 0.810016 
vt 0.766737 0.834329 
vt 0.82113 0.408423 
vt 0.777285 0.452269 
vt 0.777285 0.408423 
vt 0.82113 0.452269 
vt 0.879276 0.753551 
vt 0.854963 0.753551 
vt 0.879276 0.729237 
vt 0.854963 0.729237 
vt 0.880183 0.702982 
vt 0.85587 0.654355 
vt 0.880183 0.654355 
vt 0.85587 0.702982 
vt 0.879703 0.754619 
vt 0.85539 0.754619 
vt 0.879703 0.730306 
vt 0.85539 0.730306 
vt 0.777285 0.408423 
vt 0.733439 0.408423 
vt 0.777285 0.364578 
vt 0.733439 0.364578 
vt 0.82113 0.408423 
vt 0.777285 0.452269 
vt 0.777285 0.408423 
vt 0.82113 0.452269 
vt 0.82113 0.408423 
vt 0.777285 0.452269 
vt 0.777285 0.408423 
vt 0.82113 0.452269 
vt 0.678708 0.574485 
vt 0.678708 0.451363 
vt 0.703332 0.574485 
vt 0.703332 0.451363 
vt 0.678708 0.451363 
vt 0.678708 0.574485 
vt 0.703332 0.574485 
vt 0.703332 0.451363 
vt 0.855884 0.729324 
vt 0.880197 0.729324 
vt 0.855884 0.753637 
vt 0.880197 0.753637 
vt 0.856368 0.70445 
vt 0.856368 0.655824 
vt 0.880682 0.655824 
vt 0.880682 0.70445 
vt 0.855517 0.729658 
vt 0.87983 0.729658 
vt 0.855517 0.753971 
vt 0.87983 0.753971 
vt 0.928145 0.836882 
vt 0.990011 0.763126 
vt 0.928145 0.763126 
vt 0.990011 0.836882 
vt 0.862253 0.679549 
vt 0.836422 0.679549 
vt 0.862253 0.653718 
vt 0.836422 0.653718 
vt 0.908821 0.408423 
vt 0.908821 0.452269 
vt 0.864976 0.452269 
vt 0.864976 0.408423 
vt 0.908821 0.408423 
vt 0.908821 0.452269 
vt 0.864976 0.452269 
vt 0.864976 0.408423 
vt 0.990011 0.836882 
vt 0.928145 0.836882 
vt 0.990011 0.763126 
vt 0.928145 0.763126 
vt 0.928145 0.763126 
vt 0.990011 0.836882 
vt 0.928145 0.836882 
vt 0.990011 0.763126 
vt 0.908821 0.408423 
vt 0.908821 0.452269 
vt 0.864976 0.452269 
vt 0.864976 0.408423 
vt 0.754869 0.836851 
vt 0.754869 0.810014 
vt 0.781706 0.836851 
vt 0.781706 0.810014 
vt 0.728224 0.781629 
vt 0.781899 0.754792 
vt 0.781899 0.781629 
vt 0.728224 0.754792 
vt 0.727843 0.837191 
vt 0.727843 0.810353 
vt 0.754681 0.837191 
vt 0.754681 0.810353 
vt 0.990011 0.763126 
vt 0.928145 0.763126 
vt 0.990011 0.836882 
vt 0.928145 0.836882 
vt 0.864976 0.408423 
vt 0.864976 0.452269 
vt 0.82113 0.452269 
vt 0.82113 0.408423 
vt 0.777285 0.408423 
vt 0.777285 0.452269 
vt 0.733439 0.452269 
vt 0.733439 0.408423 
vt 0.777285 0.408423 
vt 0.733439 0.408423 
vt 0.777285 0.364578 
vt 0.733439 0.364578 
vt 0.702806 0.550735 
vt 0.702806 0.575359 
vt 0.678181 0.575359 
vt 0.678181 0.550735 
vt 0.702231 0.574403 
vt 0.677607 0.549778 
vt 0.702231 0.549778 
vt 0.677607 0.574403 
vt 0.702806 0.550735 
vt 0.678181 0.575359 
vt 0.702806 0.575359 
vt 0.678181 0.550735 
vt 0.702231 0.574403 
vt 0.677607 0.549778 
vt 0.677607 0.574403 
vt 0.702231 0.549778 
vt 0.350379 0.657181 
vt 0.0145399 0.657181 
vt 0.350379 0.321245 
vt 0.0145399 0.321245 
vt 0.777285 0.408423 
vt 0.733439 0.408423 
vt 0.777285 0.364578 
vt 0.733439 0.364578 
vt 0.827994 0.65128 
vt 0.854831 0.65128 
vt 0.854806 0.704955 
vt 0.779674 0.783775 
vt 0.806511 0.810612 
vt 0.779674 0.810612 
vt 0.725999 0.810612 
vt 0.779674 0.783775 
vt 0.779674 0.810612 
vt 0.725999 0.783775 
vt 0.908481 0.731792 
vt 0.908481 0.812305 
vt 0.881643 0.731792 
vt 0.854806 0.812305 
vt 0.699161 0.756937 
vt 0.725999 0.783775 
vt 0.699161 0.810612 
vt 0.725999 0.756937 
vt 0.725999 0.83745 
vt 0.779674 0.810612 
vt 0.779674 0.83745 
vt 0.725999 0.810612 
vt 0.827968 0.75863 
vt 0.827994 0.65128 
vt 0.854806 0.704955 
vt 0.854806 0.75863 
vt 0.854806 0.75863 
vt 0.881643 0.704955 
vt 0.881643 0.731792 
vt 0.854806 0.812305 
vt 0.881643 0.704955 
vt 0.854806 0.75863 
vt 0.854806 0.704955 
vt 0.806511 0.810612 
vt 0.779674 0.783775 
vt 0.806511 0.756937 
vt 0.779674 0.756937 
vt 0.699161 0.810612 
vt 0.725999 0.783775 
vt 0.725999 0.810612 
vt 0.777285 0.408423 
vt 0.777285 0.452269 
vt 0.733439 0.452269 
vt 0.733439 0.408423 
vt 0.854675 0.650414 
vt 0.881513 0.730927 
vt 0.854675 0.704089 
vt 0.90835 0.650414 
vt 0.90835 0.730927 
vt 0.881513 0.757764 
vt 0.854675 0.757764 
vt 0.827863 0.811439 
vt 0.827838 0.704089 
vt 0.854675 0.757764 
vt 0.854675 0.704089 
vt 0.854675 0.757764 
vt 0.854701 0.811439 
vt 0.827863 0.811439 
vt 0.990011 0.915415 
vt 0.928145 0.836882 
vt 0.928145 0.915415 
vt 0.990011 0.836882 
vt 0.928145 0.836882 
vt 0.990011 0.915415 
vt 0.928145 0.915415 
vt 0.990011 0.836882 
vt 0.702866 0.549778 
vt 0.702866 0.574403 
vt 0.678242 0.574403 
vt 0.678242 0.549778 
vt 0.702116 0.575359 
vt 0.677492 0.550735 
vt 0.702116 0.550735 
vt 0.677492 0.575359 
vt 0.702866 0.549778 
vt 0.678242 0.574403 
vt 0.702866 0.574403 
vt 0.678242 0.549778 
vt 0.702116 0.575359 
vt 0.677492 0.550735 
vt 0.677492 0.575359 
vt 0.702116 0.550735 
vt 0.864976 0.408423 
vt 0.864976 0.452269 
vt 0.82113 0.452269 
vt 0.82113 0.408423 
vt 0.610807 0.665227 
vt 0.46306 0.665227 
vt 0.610807 0.640602 
vt 0.46306 0.640602 
vt 0.610807 0.640602 
vt 0.46306 0.665227 
vt 0.610807 0.665227 
vt 0.46306 0.640602 
vt 0.777285 0.408423 
vt 0.777285 0.452269 
vt 0.733439 0.452269 
vt 0.733439 0.408423 
vt 0.861191 0.710651 
vt 0.834353 0.656976 
vt 0.861191 0.656976 
vt 0.834353 0.710651 
vt 0.860574 0.656507 
vt 0.860574 0.736046 
vt 0.834061 0.656507 
vt 0.834061 0.736046 
vt 0.859861 0.785259 
vt 0.833348 0.811765 
vt 0.833348 0.785252 
vt 0.859861 0.811765 
vt 0.857534 0.81177 
vt 0.831021 0.785257 
vt 0.857534 0.785257 
vt 0.831021 0.81177 
vt 0.856973 0.678808 
vt 0.830142 0.651971 
vt 0.883817 0.651971 
vt 0.856973 0.678808 
vt 0.883817 0.651971 
vt 0.883809 0.678808 
vt 0.830117 0.732483 
vt 0.830142 0.651971 
vt 0.856973 0.678808 
vt 0.856954 0.732483 
vt 0.864976 0.408423 
vt 0.864976 0.452269 
vt 0.82113 0.452269 
vt 0.82113 0.408423 
vt 0.881155 0.734205 
vt 0.854311 0.707368 
vt 0.881147 0.707368 
vt 0.82748 0.734205 
vt 0.832485 0.711048 
vt 0.832485 0.658023 
vt 0.858998 0.658023 
vt 0.858998 0.711048 
vt 0.832115 0.81177 
vt 0.832115 0.785263 
vt 0.858628 0.81177 
vt 0.858628 0.785257 
vt 0.833208 0.81006 
vt 0.833208 0.783547 
vt 0.859721 0.81006 
vt 0.859721 0.783547 
vt 0.859311 0.656507 
vt 0.859311 0.736046 
vt 0.832798 0.736046 
vt 0.832798 0.656507 
vt 0.82748 0.734205 
vt 0.827455 0.653693 
vt 0.854311 0.707368 
vt 0.854292 0.653693 
vt 0.990011 0.763126 
vt 0.928145 0.684702 
vt 0.990011 0.684702 
vt 0.928145 0.763126 
vt 0.990011 0.763126 
vt 0.990011 0.684702 
vt 0.928145 0.684702 
vt 0.928145 0.763126 
vt 0.777285 0.408423 
vt 0.777285 0.452269 
vt 0.733439 0.452269 
vt 0.733439 0.408423 
vt 0.466261 0.64376 
vt 0.490885 0.668384 
vt 0.466261 0.668384 
vt 0.490885 0.64376 
vt 0.490244 0.642787 
vt 0.46562 0.667411 
vt 0.46562 0.642787 
vt 0.490244 0.667411 
vt 0.466261 0.64376 
vt 0.490885 0.668384 
vt 0.490885 0.64376 
vt 0.466261 0.668384 
vt 0.46562 0.642787 
vt 0.46562 0.667411 
vt 0.490244 0.642787 
vt 0.490244 0.667411 
vt 0.864976 0.408423 
vt 0.864976 0.452269 
vt 0.82113 0.452269 
vt 0.82113 0.408423 
vt 0.777285 0.408423 
vt 0.777285 0.452269 
vt 0.733439 0.452269 
vt 0.733439 0.408423 
vt 0.85959 0.589831 
vt 0.805915 0.509319 
vt 0.85959 0.509319 
vt 0.805915 0.589831 
vt 0.990011 0.99059 
vt 0.928145 0.915415 
vt 0.928145 0.99059 
vt 0.990011 0.915415 
vt 0.864976 0.408423 
vt 0.864976 0.452269 
vt 0.82113 0.452269 
vt 0.82113 0.408423 
vt 0.881986 0.655403 
vt 0.881986 0.704029 
vt 0.857673 0.704029 
vt 0.857673 0.655403 
vt 0.990011 0.99059 
vt 0.928145 0.915415 
vt 0.990011 0.915415 
vt 0.928145 0.99059 
vt 0.990011 0.915415 
vt 0.928145 0.99059 
vt 0.928145 0.915415 
vt 0.990011 0.99059 
vt 0.488102 0.641863 
vt 0.463477 0.666488 
vt 0.463477 0.641863 
vt 0.488102 0.666488 
vt 0.488332 0.666264 
vt 0.463708 0.64164 
vt 0.488332 0.64164 
vt 0.463708 0.666264 
vt 0.488102 0.641863 
vt 0.463477 0.666488 
vt 0.488102 0.666488 
vt 0.463477 0.641863 
vt 0.488332 0.64164 
vt 0.463708 0.64164 
vt 0.488332 0.666264 
vt 0.463708 0.666264 
vt 0.777285 0.452269 
vt 0.733439 0.496114 
vt 0.733439 0.452269 
vt 0.777285 0.496114 
vt 0.990011 0.915415 
vt 0.928145 0.99059 
vt 0.990011 0.99059 
vt 0.928145 0.915415 
vt 0.856685 0.704029 
vt 0.856685 0.655403 
vt 0.880998 0.655403 
vt 0.880998 0.704029 
vt 0.860141 0.5784 
vt 0.913816 0.578401 
vt 0.913816 0.605238 
vt 0.860141 0.524725 
vt 0.913816 0.497888 
vt 0.913816 0.524725 
vt 0.806466 0.605238 
vt 0.860141 0.524725 
vt 0.860141 0.5784 
vt 0.806466 0.497888 
vt 0.860141 0.524725 
vt 0.806466 0.497888 
vt 0.913816 0.497888 
vt 0.860141 0.5784 
vt 0.913816 0.605238 
vt 0.806466 0.605238 
vt 0.777285 0.452269 
vt 0.733439 0.496114 
vt 0.733439 0.452269 
vt 0.777285 0.496114 
vt 0.864976 0.408423 
vt 0.864976 0.452269 
vt 0.82113 0.452269 
vt 0.82113 0.408423 
vt 0.777285 0.408423 
vt 0.777285 0.452269 
vt 0.733439 0.452269 
vt 0.733439 0.408423 
vt 0.879391 0.753303 
vt 0.855078 0.72899 
vt 0.879391 0.704677 
vt 0.855078 0.753303 
vt 0.855078 0.704677 
vt 0.830765 0.72899 
vt 0.830765 0.65605 
vt 0.855078 0.65605 
vt 0.82113 0.408423 
vt 0.777285 0.452269 
vt 0.777285 0.408423 
vt 0.82113 0.452269 
vt 0.880339 0.705411 
vt 0.856026 0.729724 
vt 0.880339 0.754037 
vt 0.856026 0.754037 
vt 0.880339 0.705411 
vt 0.856026 0.705411 
vt 0.856026 0.729724 
vt 0.856026 0.705411 
vt 0.856026 0.656784 
vt 0.831712 0.656784 
vt 0.831712 0.729724 
vt 0.831712 0.729724 
vt 0.856026 0.729724 
vt 0.856026 0.705411 
vt 0.82113 0.408423 
vt 0.777285 0.452269 
vt 0.777285 0.408423 
vt 0.82113 0.452269 
vt 0.777285 0.408423 
vt 0.82113 0.408423 
vt 0.777285 0.452269 
vt 0.82113 0.452269 
vt 0.862253 0.705381 
vt 0.836422 0.731212 
vt 0.836422 0.705381 
vt 0.862253 0.731212 
vt 0.833515 0.579064 
vt 0.833515 0.525389 
vt 0.860353 0.579064 
vt 0.860353 0.525389 
vt 0.914028 0.605902 
vt 0.860353 0.605902 
vt 0.914028 0.498552 
vt 0.860353 0.498552 
vt 0.914028 0.605902 
vt 0.860353 0.525389 
vt 0.914028 0.498552 
vt 0.860353 0.579064 
vt 0.928145 0.684702 
vt 0.990011 0.684702 
vt 0.928145 0.763126 
vt 0.990011 0.763126 
vt 0.928145 0.763126 
vt 0.990011 0.684702 
vt 0.928145 0.684702 
vt 0.990011 0.763126 
vt 0.777285 0.452269 
vt 0.733439 0.496114 
vt 0.733439 0.452269 
vt 0.777285 0.496114 
vt 0.908821 0.408423 
vt 0.908821 0.452269 
vt 0.864976 0.452269 
vt 0.864976 0.408423 
vt 0.879276 0.753551 
vt 0.854963 0.753551 
vt 0.879276 0.729237 
vt 0.854963 0.729237 
vt 0.880183 0.702982 
vt 0.85587 0.654355 
vt 0.880183 0.654355 
vt 0.85587 0.702982 
vt 0.879703 0.754619 
vt 0.85539 0.754619 
vt 0.879703 0.730306 
vt 0.85539 0.730306 
vt 0.777285 0.452269 
vt 0.733439 0.496114 
vt 0.733439 0.452269 
vt 0.777285 0.496114 
vt 0.855884 0.729324 
vt 0.880197 0.729324 
vt 0.855884 0.753637 
vt 0.880197 0.753637 
vt 0.856368 0.70445 
vt 0.856368 0.655824 
vt 0.880682 0.655824 
vt 0.880682 0.70445 
vt 0.855517 0.729658 
vt 0.87983 0.729658 
vt 0.855517 0.753971 
vt 0.87983 0.753971 
vt 0.82113 0.408423 
vt 0.777285 0.452269 
vt 0.777285 0.408423 
vt 0.82113 0.452269 
vt 0.777285 0.408423 
vt 0.82113 0.408423 
vt 0.777285 0.452269 
vt 0.82113 0.452269 
vt 0.82113 0.408423 
vt 0.777285 0.452269 
vt 0.777285 0.408423 
vt 0.82113 0.452269 
vt 0.741063 0.671657 
vt 0.741063 0.62303 
vt 0.765376 0.671657 
vt 0.765376 0.62303 
vt 0.741063 0.671657 
vt 0.741063 0.62303 
vt 0.765376 0.671657 
vt 0.765376 0.62303 
vt 0.862821 0.541367 
vt 0.862821 0.567199 
vt 0.83699 0.567199 
vt 0.83699 0.541367 
vt 0.777285 0.408423 
vt 0.777285 0.452269 
vt 0.733439 0.452269 
vt 0.733439 0.408423 
vt 0.777285 0.408423 
vt 0.777285 0.452269 
vt 0.733439 0.452269 
vt 0.733439 0.408423 
vt 0.788745 0.695289 
vt 0.764431 0.695289 
vt 0.764431 0.670976 
vt 0.788745 0.62235 
vt 0.764431 0.62235 
vt 0.740118 0.695289 
vt 0.764431 0.719602 
vt 0.740118 0.719602 
vt 0.715805 0.695289 
vt 0.740118 0.670976 
vt 0.715805 0.62235 
vt 0.740118 0.670976 
vt 0.715805 0.695289 
vt 0.740118 0.62235 
vt 0.740118 0.670976 
vt 0.764431 0.695289 
vt 0.740118 0.695289 
vt 0.764431 0.670976 
vt 0.788745 0.695289 
vt 0.764431 0.695289 
vt 0.764431 0.670976 
vt 0.788745 0.62235 
vt 0.764431 0.62235 
vt 0.740118 0.695289 
vt 0.764431 0.719602 
vt 0.740118 0.719602 
vt 0.715805 0.695289 
vt 0.740118 0.670976 
vt 0.715805 0.62235 
vt 0.740118 0.670976 
vt 0.715805 0.695289 
vt 0.740118 0.62235 
vt 0.740118 0.670976 
vt 0.764431 0.695289 
vt 0.740118 0.695289 
vt 0.764431 0.670976 
vt 0.958919 0.635351 
vt 0.958928 0.662188 
vt 0.93209 0.662188 
vt 0.932084 0.635351 
vt 0.961088 0.661255 
vt 0.934259 0.634417 
vt 0.961097 0.634417 
vt 0.934252 0.661255 
vt 0.777285 0.452269 
vt 0.733439 0.496114 
vt 0.733439 0.452269 
vt 0.777285 0.496114 
vt 0.777285 0.408423 
vt 0.733439 0.408423 
vt 0.777285 0.364578 
vt 0.733439 0.364578 
vt 0.777285 0.408423 
vt 0.733439 0.408423 
vt 0.777285 0.364578 
vt 0.733439 0.364578 
vt 0.76653 0.696951 
vt 0.742217 0.696951 
vt 0.742217 0.672638 
vt 0.76653 0.672638 
vt 0.740116 0.69557 
vt 0.715803 0.69557 
vt 0.715803 0.671256 
vt 0.740116 0.671256 
vt 0.790539 0.694435 
vt 0.766226 0.694435 
vt 0.766226 0.670122 
vt 0.790539 0.670122 
vt 0.740837 0.671657 
vt 0.740837 0.62303 
vt 0.76515 0.671657 
vt 0.76515 0.62303 
vt 0.741317 0.670922 
vt 0.76563 0.622296 
vt 0.76563 0.670922 
vt 0.741317 0.622296 
vt 0.76653 0.696951 
vt 0.742217 0.696951 
vt 0.742217 0.672638 
vt 0.76653 0.672638 
vt 0.740116 0.69557 
vt 0.715803 0.69557 
vt 0.715803 0.671256 
vt 0.740116 0.671256 
vt 0.790539 0.694435 
vt 0.766226 0.694435 
vt 0.766226 0.670122 
vt 0.790539 0.670122 
vt 0.740837 0.62303 
vt 0.76515 0.671657 
vt 0.740837 0.671657 
vt 0.76515 0.62303 
vt 0.741317 0.670922 
vt 0.76563 0.622296 
vt 0.76563 0.670922 
vt 0.741317 0.622296 
vt 0.98522 0.658377 
vt 0.931545 0.658377 
vt 0.98522 0.631545 
vt 0.931545 0.631545 
vt 0.777285 0.408423 
vt 0.82113 0.408423 
vt 0.777285 0.452269 
vt 0.82113 0.452269 
vt 0.777285 0.408423 
vt 0.82113 0.408423 
vt 0.777285 0.452269 
vt 0.82113 0.452269 
vt 0.864976 0.408423 
vt 0.864976 0.452269 
vt 0.82113 0.452269 
vt 0.82113 0.408423 
vt 0.962331 0.633666 
vt 0.962331 0.660503 
vt 0.935493 0.660503 
vt 0.935493 0.633666 
vt 0.98522 0.656648 
vt 0.931545 0.656648 
vt 0.98522 0.62981 
vt 0.931545 0.62981 
vt 0.959523 0.63465 
vt 0.959523 0.661487 
vt 0.932685 0.661487 
vt 0.932685 0.63465 
vt 0.960099 0.634599 
vt 0.960099 0.661437 
vt 0.933262 0.661437 
vt 0.933262 0.634599 
vt 0.960638 0.634709 
vt 0.960638 0.661547 
vt 0.933801 0.661547 
vt 0.933801 0.634709 
vt 0.932084 0.632756 
vt 0.985759 0.632756 
vt 0.985759 0.659593 
vt 0.932084 0.659593 
vt 0.960548 0.631114 
vt 0.960548 0.656946 
vt 0.934716 0.656946 
vt 0.934716 0.631114 

usemtl Golden1Mtl

f 1/1/1 2/2/2 3/3/3 
f 1/1/1 3/3/3 4/4/4 
f 5/5/5 6/6/6 7/7/7 
f 6/6/6 5/5/5 8/8/8 
f 9/9/9 10/10/10 11/11/11 
f 10/10/10 9/9/9 12/12/12 
f 13/13/13 14/14/14 15/15/15 
f 16/16/16 15/15/15 14/14/14 
f 17/17/17 18/18/18 19/19/19 
f 18/18/18 17/17/17 20/20/20 
f 21/21/21 22/22/22 23/23/23 
f 22/22/22 21/21/21 24/24/24 
f 25/25/25 26/26/26 27/27/27 
f 26/26/26 25/25/25 28/28/28 
f 29/29/29 30/30/30 31/31/31 
f 29/29/29 31/31/31 32/32/32 
f 33/33/33 34/34/34 35/35/35 
f 33/33/33 35/35/35 36/36/36 
f 37/37/37 38/38/38 39/39/39 
f 40/40/40 39/39/39 38/38/38 
f 41/41/41 42/42/42 43/43/43 
f 41/41/41 43/43/43 44/44/44 
f 45/45/45 46/46/46 47/47/47 
f 46/46/46 45/45/45 48/48/48 
f 49/49/49 50/50/50 51/51/51 
f 50/50/50 49/49/49 52/52/52 
f 53/53/53 54/54/54 55/55/55 
f 54/54/54 53/53/53 56/56/56 
f 57/57/57 58/58/58 59/59/59 
f 57/57/57 59/59/59 60/60/60 
f 61/61/61 62/62/62 63/63/63 
f 61/61/61 63/63/63 64/64/64 
f 65/65/65 66/66/66 67/67/67 
f 66/66/66 68/68/68 67/67/67 
f 69/69/69 70/70/70 71/71/71 
f 70/70/70 72/72/72 71/71/71 
f 73/73/73 74/74/74 75/75/75 
f 74/74/74 73/73/73 76/76/76 
f 77/77/77 78/78/78 79/79/79 
f 79/79/79 78/78/78 80/80/80 
f 81/81/81 82/82/82 83/83/83 
f 82/82/82 81/81/81 84/84/84 
f 85/85/85 86/86/86 87/87/87 
f 86/86/86 85/85/85 88/88/88 
f 89/89/89 90/90/90 91/91/91 
f 89/89/89 91/91/91 92/92/92 
f 93/93/93 94/94/94 95/95/95 
f 94/94/94 93/93/93 96/96/96 
f 97/97/97 98/98/98 99/99/99 
f 98/98/98 100/100/100 99/99/99 
f 101/101/101 102/102/102 103/103/103 
f 101/101/101 103/103/103 104/104/104 
f 103/103/103 105/105/105 104/104/104 
f 105/105/105 103/103/103 106/106/106 
f 104/104/104 105/105/105 107/107/107 
f 104/104/104 107/107/107 108/108/108 
f 105/105/105 109/109/109 107/107/107 
f 110/110/110 107/107/107 109/109/109 
f 109/109/109 105/105/105 111/111/111 
f 105/105/105 112/112/112 111/111/111 
f 113/113/113 114/114/114 115/115/115 
f 113/113/113 115/115/115 116/116/116 
f 115/115/115 117/117/117 116/116/116 
f 117/117/117 115/115/115 118/118/118 
f 116/116/116 117/117/117 119/119/119 
f 116/116/116 119/119/119 120/120/120 
f 117/117/117 121/121/121 119/119/119 
f 122/122/122 119/119/119 121/121/121 
f 121/121/121 117/117/117 123/123/123 
f 117/117/117 124/124/124 123/123/123 
f 125/125/125 126/126/126 127/127/127 
f 126/126/126 125/125/125 128/128/128 
f 129/129/129 130/130/130 131/131/131 
f 131/131/131 130/130/130 132/132/132 
f 133/133/133 134/134/134 135/135/135 
f 134/134/134 133/133/133 136/136/136 
f 137/137/137 133/133/133 135/135/135 
f 133/133/133 137/137/137 138/138/138 
f 139/139/139 140/140/140 141/141/141 
f 139/139/139 142/142/142 140/140/140 
f 143/143/143 144/144/144 145/145/145 
f 145/145/145 144/144/144 146/146/146 
f 147/147/147 148/148/148 149/149/149 
f 149/149/149 148/148/148 150/150/150 
f 151/151/151 152/152/152 153/153/153 
f 154/154/154 155/155/155 156/156/156 
f 155/155/155 154/154/154 157/157/157 
f 158/158/158 159/159/159 160/160/160 
f 161/161/161 162/162/162 163/163/163 
f 164/164/164 165/165/165 166/166/166 
f 165/165/165 164/164/164 167/167/167 
f 168/168/168 169/169/169 170/170/170 
f 171/171/171 172/172/172 173/173/173 
f 171/171/171 173/173/173 174/174/174 
f 175/175/175 176/176/176 177/177/177 
f 176/176/176 175/175/175 178/178/178 
f 179/179/179 180/180/180 181/181/181 
f 180/180/180 179/179/179 182/182/182 
f 183/183/183 184/184/184 185/185/185 
f 184/184/184 183/183/183 186/186/186 
f 187/187/187 188/188/188 189/189/189 
f 187/187/187 190/190/190 188/188/188 
f 191/191/191 192/192/192 193/193/193 
f 192/192/192 191/191/191 194/194/194 
f 195/195/195 191/191/191 193/193/193 
f 195/195/195 193/193/193 196/196/196 
f 197/197/197 198/198/198 199/199/199 
f 198/198/198 197/197/197 200/200/200 
f 201/201/201 202/202/202 203/203/203 
f 202/202/202 201/201/201 204/204/204 
f 205/205/205 206/206/206 207/207/207 
f 208/208/208 209/209/209 210/210/210 
f 208/208/208 210/210/210 211/211/211 
f 212/212/212 213/213/213 214/214/214 
f 215/215/215 216/216/216 217/217/217 
f 218/218/218 219/219/219 220/220/220 
f 219/219/219 218/218/218 221/221/221 
f 222/222/222 223/223/223 224/224/224 
f 225/225/225 226/226/226 227/227/227 
f 226/226/226 225/225/225 228/228/228 
f 229/229/229 230/230/230 231/231/231 
f 231/231/231 230/230/230 232/232/232 
f 233/233/233 234/234/234 235/235/235 
f 235/235/235 234/234/234 236/236/236 
f 237/237/237 238/238/238 239/239/239 
f 239/239/239 238/238/238 240/240/240 
f 241/241/241 242/242/242 243/243/243 
f 242/242/242 241/241/241 244/244/244 
f 245/245/245 246/246/246 247/247/247 
f 247/247/247 246/246/246 248/248/248 
f 249/249/249 250/250/250 251/251/251 
f 251/251/251 250/250/250 252/252/252 
f 253/253/253 254/254/254 255/255/255 
f 255/255/255 254/254/254 256/256/256 
f 257/257/257 258/258/258 259/259/259 
f 258/258/258 257/257/257 260/260/260 
f 261/261/261 262/262/262 263/263/263 
f 261/261/261 263/263/263 264/264/264 
f 265/265/265 266/266/266 267/267/267 
f 265/265/265 267/267/267 268/268/268 
f 269/269/269 270/270/270 271/271/271 
f 269/269/269 271/271/271 272/272/272 
f 273/273/273 274/274/274 275/275/275 
f 273/273/273 275/275/275 276/276/276 
f 277/277/277 278/278/278 279/279/279 
f 277/277/277 279/279/279 280/280/280 
f 281/281/281 282/282/282 283/283/283 
f 281/281/281 283/283/283 284/284/284 
f 285/285/285 286/286/286 287/287/287 
f 286/286/286 285/285/285 288/288/288 
f 289/289/289 290/290/290 291/291/291 
f 290/290/290 289/289/289 292/292/292 
f 293/293/293 294/294/294 295/295/295 
f 294/294/294 293/293/293 296/296/296 
f 297/297/297 298/298/298 299/299/299 
f 297/297/297 299/299/299 300/300/300 
f 301/301/301 302/302/302 303/303/303 
f 303/303/303 302/302/302 304/304/304 
f 305/305/305 306/306/306 307/307/307 
f 305/305/305 307/307/307 308/308/308 
f 309/309/309 310/310/310 311/311/311 
f 309/309/309 311/311/311 312/312/312 
f 313/313/313 314/314/314 315/315/315 
f 314/314/314 313/313/313 316/316/316 
f 317/317/317 318/318/318 319/319/319 
f 318/318/318 317/317/317 320/320/320 
f 321/321/321 322/322/322 323/323/323 
f 322/322/322 321/321/321 324/324/324 
f 325/325/325 326/326/326 327/327/327 
f 326/326/326 328/328/328 327/327/327 
f 329/329/329 330/330/330 331/331/331 
f 329/329/329 331/331/331 332/332/332 
f 333/333/333 334/334/334 335/335/335 
f 333/333/333 335/335/335 336/336/336 
f 337/337/337 338/338/338 339/339/339 
f 337/337/337 339/339/339 340/340/340 
f 341/341/341 342/342/342 343/343/343 
f 341/341/341 343/343/343 344/344/344 
f 345/345/345 346/346/346 347/347/347 
f 345/345/345 347/347/347 348/348/348 
f 349/349/349 350/350/350 351/351/351 
f 349/349/349 351/351/351 352/352/352 
f 353/353/353 354/354/354 355/355/355 
f 354/354/354 353/353/353 356/356/356 
f 355/355/355 354/354/354 357/357/357 
f 358/358/358 357/357/357 354/354/354 
f 359/359/359 357/357/357 358/358/358 
f 357/357/357 359/359/359 360/360/360 
f 361/361/361 362/362/362 363/363/363 
f 362/362/362 361/361/361 364/364/364 
f 365/365/365 366/366/366 367/367/367 
f 365/365/365 367/367/367 368/368/368 
f 369/369/369 370/370/370 371/371/371 
f 369/369/369 371/371/371 372/372/372 
f 373/373/373 374/374/374 375/375/375 
f 375/375/375 374/374/374 376/376/376 
f 377/377/377 378/378/378 379/379/379 
f 380/380/380 381/381/381 382/382/382 
f 380/380/380 382/382/382 383/383/383 
f 384/384/384 385/385/385 386/386/386 
f 387/387/387 388/388/388 389/389/389 
f 387/387/387 389/389/389 390/390/390 
f 391/391/391 392/392/392 393/393/393 
f 392/392/392 391/391/391 394/394/394 
f 395/395/395 396/396/396 397/397/397 
f 396/396/396 395/395/395 398/398/398 
f 399/399/399 400/400/400 401/401/401 
f 400/400/400 399/399/399 402/402/402 
f 403/403/403 404/404/404 405/405/405 
f 404/404/404 406/406/406 405/405/405 
f 407/407/407 408/408/408 409/409/409 
f 408/408/408 410/410/410 409/409/409 
f 411/411/411 412/412/412 413/413/413 
f 412/412/412 411/411/411 414/414/414 
f 415/415/415 416/416/416 417/417/417 
f 416/416/416 415/415/415 418/418/418 
f 419/419/419 420/420/420 421/421/421 
f 420/420/420 419/419/419 422/422/422 
f 423/423/423 424/424/424 425/425/425 
f 424/424/424 423/423/423 426/426/426 
f 427/427/427 428/428/428 429/429/429 
f 429/429/429 428/428/428 430/430/430 
f 431/431/431 432/432/432 433/433/433 
f 433/433/433 432/432/432 434/434/434 
f 435/435/435 436/436/436 437/437/437 
f 435/435/435 437/437/437 438/438/438 
f 439/439/439 440/440/440 441/441/441 
f 440/440/440 439/439/439 442/442/442 
f 443/443/443 444/444/444 445/445/445 
f 445/445/445 444/444/444 446/446/446 
f 447/447/447 448/448/448 449/449/449 
f 447/447/447 449/449/449 450/450/450 
f 451/451/451 452/452/452 453/453/453 
f 452/452/452 451/451/451 454/454/454 
f 455/455/455 456/456/456 457/457/457 
f 457/457/457 456/456/456 458/458/458 
f 459/459/459 460/460/460 461/461/461 
f 460/460/460 459/459/459 462/462/462 
f 463/463/463 464/464/464 465/465/465 
f 465/465/465 464/464/464 466/466/466 
f 467/467/467 468/468/468 469/469/469 
f 468/468/468 470/470/470 469/469/469 
f 471/471/471 472/472/472 473/473/473 
f 472/472/472 471/471/471 474/474/474 
f 475/475/475 476/476/476 477/477/477 
f 476/476/476 475/475/475 478/478/478 
f 479/479/479 480/480/480 481/481/481 
f 481/481/481 480/480/480 482/482/482 
f 483/483/483 484/484/484 485/485/485 
f 485/485/485 486/486/486 483/483/483 
f 487/487/487 488/488/488 489/489/489 
f 489/489/489 488/488/488 490/490/490 
f 491/491/491 492/492/492 493/493/493 
f 491/491/491 493/493/493 494/494/494 
f 495/495/495 496/496/496 497/497/497 
f 497/497/497 496/496/496 498/498/498 
f 499/499/499 500/500/500 501/501/501 
f 500/500/500 499/499/499 502/502/502 
f 503/503/503 504/504/504 505/505/505 
f 504/504/504 506/506/506 505/505/505 
f 507/507/507 508/508/508 509/509/509 
f 507/507/507 509/509/509 510/510/510 
f 511/511/511 512/512/512 513/513/513 
f 511/511/511 513/513/513 514/514/514 
f 515/515/515 516/516/516 517/517/517 
f 516/516/516 518/518/518 517/517/517 
f 519/519/519 520/520/520 521/521/521 
f 520/520/520 519/519/519 522/522/522 
f 523/523/523 524/524/524 525/525/525 
f 523/523/523 525/525/525 526/526/526 
f 527/527/527 528/528/528 529/529/529 
f 529/529/529 528/528/528 530/530/530 
f 531/531/531 532/532/532 533/533/533 
f 532/532/532 531/531/531 534/534/534 
f 535/535/535 536/536/536 537/537/537 
f 537/537/537 536/536/536 538/538/538 
f 539/539/539 540/540/540 541/541/541 
f 540/540/540 542/542/542 541/541/541 
f 543/543/543 544/544/544 545/545/545 
f 543/543/543 545/545/545 546/546/546 
f 547/547/547 548/548/548 549/549/549 
f 547/547/547 549/549/549 550/550/550 
f 551/551/551 552/552/552 553/553/553 
f 552/552/552 554/554/554 553/553/553 
f 555/555/555 556/556/556 557/557/557 
f 555/555/555 557/557/557 558/558/558 
f 559/559/559 560/560/560 561/561/561 
f 560/560/560 559/559/559 562/562/562 
f 563/563/563 564/564/564 565/565/565 
f 564/564/564 563/563/563 566/566/566 
f 567/567/567 568/568/568 569/569/569 
f 568/568/568 567/567/567 570/570/570 
f 571/571/571 572/572/572 573/573/573 
f 573/573/573 572/572/572 574/574/574 
f 575/575/575 576/576/576 577/577/577 
f 576/576/576 578/578/578 577/577/577 
f 579/579/579 580/580/580 581/581/581 
f 582/582/582 583/583/583 584/584/584 
f 585/585/585 586/586/586 587/587/587 
f 586/586/586 585/585/585 588/588/588 
f 589/589/589 590/590/590 591/591/591 
f 591/591/591 590/590/590 592/592/592 
f 593/593/593 594/594/594 595/595/595 
f 594/594/594 593/593/593 596/596/596 
f 597/597/597 598/598/598 599/599/599 
f 598/598/598 597/597/597 600/600/600 
f 601/601/601 602/602/602 603/603/603 
f 603/603/603 604/604/604 601/601/601 
f 605/605/605 606/606/606 607/607/607 
f 607/607/607 608/608/608 605/605/605 
f 609/609/609 610/610/610 611/611/611 
f 612/612/612 613/613/613 614/614/614 
f 613/613/613 615/615/615 614/614/614 
f 616/616/616 617/617/617 618/618/618 
f 619/619/619 620/620/620 621/621/621 
f 619/619/619 621/621/621 622/622/622 
f 623/623/623 624/624/624 625/625/625 
f 624/624/624 623/623/623 626/626/626 
f 626/626/626 627/627/627 624/624/624 
f 628/628/628 625/625/625 624/624/624 
f 625/625/625 628/628/628 629/629/629 
f 630/630/630 631/631/631 632/632/632 
f 632/632/632 631/631/631 633/633/633 
f 634/634/634 635/635/635 636/636/636 
f 637/637/637 638/638/638 639/639/639 
f 638/638/638 637/637/637 640/640/640 
f 641/641/641 642/642/642 643/643/643 
f 642/642/642 641/641/641 644/644/644 
f 645/645/645 646/646/646 647/647/647 
f 645/645/645 647/647/647 648/648/648 
f 649/649/649 650/650/650 651/651/651 
f 650/650/650 649/649/649 652/652/652 
f 653/653/653 654/654/654 655/655/655 
f 654/654/654 653/653/653 656/656/656 
f 657/657/657 658/658/658 659/659/659 
f 658/658/658 657/657/657 660/660/660 
f 661/661/661 662/662/662 663/663/663 
f 661/661/661 663/663/663 664/664/664 
f 665/665/665 666/666/666 667/667/667 
f 667/667/667 666/666/666 668/668/668 
f 669/669/669 670/670/670 671/671/671 
f 670/670/670 669/669/669 672/672/672 
f 673/673/673 674/674/674 675/675/675 
f 673/673/673 675/675/675 676/676/676 
f 677/677/677 678/678/678 679/679/679 
f 678/678/678 677/677/677 680/680/680 
f 681/681/681 682/682/682 683/683/683 
f 683/683/683 682/682/682 684/684/684 
f 685/685/685 686/686/686 687/687/687 
f 686/686/686 685/685/685 688/688/688 
f 689/689/689 690/690/690 691/691/691 
f 690/690/690 689/689/689 692/692/692 
f 693/693/693 694/694/694 695/695/695 
f 696/696/696 697/697/697 698/698/698 
f 699/699/699 700/700/700 701/701/701 
f 701/701/701 702/702/702 699/699/699 
f 703/703/703 704/704/704 705/705/705 
f 703/703/703 705/705/705 706/706/706 
f 707/707/707 708/708/708 709/709/709 
f 707/707/707 710/710/710 708/708/708 
f 711/711/711 712/712/712 713/713/713 
f 711/711/711 713/713/713 714/714/714 
f 715/715/715 716/716/716 717/717/717 
f 716/716/716 718/718/718 717/717/717 
f 719/719/719 720/720/720 721/721/721 
f 720/720/720 722/722/722 721/721/721 
f 723/723/723 724/724/724 725/725/725 
f 725/725/725 726/726/726 723/723/723 
f 727/727/727 728/728/728 729/729/729 
f 729/729/729 728/728/728 730/730/730 
f 731/731/731 732/732/732 733/733/733 
f 732/732/732 731/731/731 734/734/734 
f 735/735/735 736/736/736 737/737/737 
f 735/735/735 737/737/737 738/738/738 
f 739/739/739 740/740/740 741/741/741 
f 739/739/739 741/741/741 742/742/742 
f 743/743/743 744/744/744 745/745/745 
f 744/744/744 743/743/743 746/746/746 
f 747/747/747 748/748/748 749/749/749 
f 748/748/748 747/747/747 750/750/750 
f 751/751/751 752/752/752 753/753/753 
f 752/752/752 751/751/751 754/754/754 
f 755/755/755 756/756/756 757/757/757 
f 756/756/756 758/758/758 757/757/757 
f 759/759/759 760/760/760 761/761/761 
f 759/759/759 761/761/761 762/762/762 
f 763/763/763 764/764/764 765/765/765 
f 763/763/763 765/765/765 766/766/766 
f 767/767/767 768/768/768 769/769/769 
f 768/768/768 767/767/767 770/770/770 
f 771/771/771 772/772/772 773/773/773 
f 772/772/772 771/771/771 774/774/774 
f 775/775/775 776/776/776 777/777/777 
f 775/775/775 777/777/777 778/778/778 
f 779/779/779 780/780/780 781/781/781 
f 779/779/779 781/781/781 782/782/782 
f 783/783/783 784/784/784 785/785/785 
f 784/784/784 783/783/783 786/786/786 
f 787/787/787 788/788/788 789/789/789 
f 788/788/788 787/787/787 790/790/790 
f 791/791/791 792/792/792 793/793/793 
f 792/792/792 791/791/791 794/794/794 
f 795/795/795 796/796/796 797/797/797 
f 796/796/796 795/795/795 798/798/798 
f 799/799/799 800/800/800 801/801/801 
f 800/800/800 799/799/799 802/802/802 
f 803/803/803 804/804/804 805/805/805 
f 804/804/804 806/806/806 805/805/805 
f 807/807/807 808/808/808 809/809/809 
f 808/808/808 807/807/807 810/810/810 
f 811/811/811 812/812/812 813/813/813 
f 812/812/812 811/811/811 814/814/814 
f 815/815/815 816/816/816 817/817/817 
f 815/815/815 817/817/817 818/818/818 
f 819/819/819 820/820/820 821/821/821 
f 822/822/822 823/823/823 824/824/824 
f 825/825/825 826/826/826 827/827/827 
f 826/826/826 825/825/825 828/828/828 
f 829/829/829 830/830/830 831/831/831 
f 832/832/832 833/833/833 834/834/834 
f 835/835/835 836/836/836 837/837/837 
f 836/836/836 835/835/835 838/838/838 
f 839/839/839 840/840/840 841/841/841 
f 839/839/839 841/841/841 842/842/842 
f 843/843/843 844/844/844 845/845/845 
f 843/843/843 845/845/845 846/846/846 
f 847/847/847 848/848/848 849/849/849 
f 848/848/848 847/847/847 850/850/850 
f 849/849/849 848/848/848 851/851/851 
f 852/852/852 851/851/851 848/848/848 
f 853/853/853 851/851/851 852/852/852 
f 851/851/851 853/853/853 854/854/854 
f 855/855/855 856/856/856 857/857/857 
f 856/856/856 855/855/855 858/858/858 
f 859/859/859 860/860/860 861/861/861 
f 861/861/861 860/860/860 862/862/862 
f 863/863/863 864/864/864 865/865/865 
f 866/866/866 867/867/867 868/868/868 
f 866/866/866 868/868/868 869/869/869 
f 870/870/870 871/871/871 872/872/872 
f 873/873/873 874/874/874 875/875/875 
f 874/874/874 873/873/873 876/876/876 
f 877/877/877 878/878/878 879/879/879 
f 879/879/879 878/878/878 880/880/880 
f 881/881/881 882/882/882 883/883/883 
f 882/882/882 881/881/881 884/884/884 
f 885/885/885 886/886/886 887/887/887 
f 888/888/888 887/887/887 886/886/886 
f 887/887/887 889/889/889 890/890/890 
f 891/891/891 888/888/888 892/892/892 
f 893/893/893 894/894/894 895/895/895 
f 894/894/894 893/893/893 896/896/896 
f 897/897/897 898/898/898 899/899/899 
f 899/899/899 898/898/898 900/900/900 
f 901/901/901 902/902/902 903/903/903 
f 902/902/902 901/901/901 904/904/904 
f 905/905/905 906/906/906 907/907/907 
f 906/906/906 905/905/905 908/908/908 
f 909/909/909 910/910/910 911/911/911 
f 909/909/909 911/911/911 912/912/912 
f 913/913/913 914/914/914 915/915/915 
f 915/915/915 914/914/914 916/916/916 
f 917/917/917 918/918/918 919/919/919 
f 918/918/918 917/917/917 920/920/920 
f 921/921/921 922/922/922 923/923/923 
f 923/923/923 922/922/922 924/924/924 
f 925/925/925 926/926/926 927/927/927 
f 926/926/926 925/925/925 928/928/928 
f 929/929/929 930/930/930 931/931/931 
f 931/931/931 930/930/930 932/932/932 
f 933/933/933 934/934/934 935/935/935 
f 933/933/933 935/935/935 936/936/936 
f 937/937/937 938/938/938 939/939/939 
f 939/939/939 938/938/938 940/940/940 
f 941/941/941 942/942/942 943/943/943 
f 942/942/942 941/941/941 944/944/944 
f 945/945/945 946/946/946 947/947/947 
f 947/947/947 946/946/946 948/948/948 
f 949/949/949 950/950/950 951/951/951 
f 950/950/950 949/949/949 952/952/952 
f 953/953/953 954/954/954 955/955/955 
f 955/955/955 954/954/954 956/956/956 
f 957/957/957 958/958/958 959/959/959 
f 959/959/959 958/958/958 960/960/960 
f 961/961/961 962/962/962 963/963/963 
f 961/961/961 963/963/963 964/964/964 
f 965/965/965 966/966/966 967/967/967 
f 965/965/965 967/967/967 968/968/968 
f 969/969/969 970/970/970 971/971/971 
f 969/969/969 971/971/971 972/972/972 
f 973/973/973 974/974/974 975/975/975 
f 975/975/975 976/976/976 973/973/973 
f 976/976/976 975/975/975 977/977/977 
f 978/978/978 974/974/974 979/979/979 
f 978/978/978 979/979/979 980/980/980 
f 978/978/978 981/981/981 982/982/982 
f 983/983/983 984/984/984 985/985/985 
f 984/984/984 983/983/983 986/986/986 
f 987/987/987 988/988/988 989/989/989 
f 988/988/988 987/987/987 990/990/990 
f 991/991/991 992/992/992 993/993/993 
f 993/993/993 994/994/994 991/991/991 
f 994/994/994 993/993/993 995/995/995 
f 996/996/996 992/992/992 997/997/997 
f 996/996/996 997/997/997 998/998/998 
f 996/996/996 999/999/999 1000/1000/1000 
f 1001/1001/1001 1002/1002/1002 1003/1003/1003 
f 1002/1002/1002 1001/1001/1001 1004/1004/1004 
f 1005/1005/1005 1006/1006/1006 1007/1007/1007 
f 1006/1006/1006 1005/1005/1005 1008/1008/1008 
f 1009/1009/1009 1010/1010/1010 1011/1011/1011 
f 1009/1009/1009 1011/1011/1011 1012/1012/1012 
f 1013/1013/1013 1014/1014/1014 1015/1015/1015 
f 1014/1014/1014 1013/1013/1013 1016/1016/1016 
f 1017/1017/1017 1018/1018/1018 1019/1019/1019 
f 1018/1018/1018 1017/1017/1017 1020/1020/1020 
f 1021/1021/1021 1022/1022/1022 1023/1023/1023 
f 1022/1022/1022 1024/1024/1024 1023/1023/1023 
f 1025/1025/1025 1026/1026/1026 1027/1027/1027 
f 1026/1026/1026 1028/1028/1028 1027/1027/1027 
f 1029/1029/1029 1030/1030/1030 1031/1031/1031 
f 1029/1029/1029 1031/1031/1031 1032/1032/1032 
f 1033/1033/1033 1034/1034/1034 1035/1035/1035 
f 1033/1033/1033 1035/1035/1035 1036/1036/1036 
f 1037/1037/1037 1038/1038/1038 1039/1039/1039 
f 1037/1037/1037 1039/1039/1039 1040/1040/1040 
f 1041/1041/1041 1042/1042/1042 1043/1043/1043 
f 1043/1043/1043 1042/1042/1042 1044/1044/1044 
f 1045/1045/1045 1046/1046/1046 1047/1047/1047 
f 1046/1046/1046 1045/1045/1045 1048/1048/1048 
f 1049/1049/1049 1050/1050/1050 1051/1051/1051 
f 1049/1049/1049 1051/1051/1051 1052/1052/1052 
f 1053/1053/1053 1054/1054/1054 1055/1055/1055 
f 1053/1053/1053 1055/1055/1055 1056/1056/1056 
f 1057/1057/1057 1058/1058/1058 1059/1059/1059 
f 1057/1057/1057 1059/1059/1059 1060/1060/1060 
f 1061/1061/1061 1062/1062/1062 1063/1063/1063 
f 1062/1062/1062 1061/1061/1061 1064/1064/1064 
f 1065/1065/1065 1066/1066/1066 1067/1067/1067 
f 1066/1066/1066 1065/1065/1065 1068/1068/1068 
f 1069/1069/1069 1070/1070/1070 1071/1071/1071 
f 1072/1072/1072 1071/1071/1071 1070/1070/1070 
f 1073/1073/1073 1074/1074/1074 1075/1075/1075 
f 1075/1075/1075 1074/1074/1074 1076/1076/1076 
f 1077/1077/1077 1078/1078/1078 1079/1079/1079 
f 1079/1079/1079 1078/1078/1078 1080/1080/1080 
f 1081/1081/1081 1082/1082/1082 1083/1083/1083 
f 1081/1081/1081 1083/1083/1083 1084/1084/1084 
f 1085/1085/1085 1086/1086/1086 1087/1087/1087 
f 1085/1085/1085 1087/1087/1087 1088/1088/1088 
f 1089/1089/1089 1090/1090/1090 1091/1091/1091 
f 1092/1092/1092 1091/1091/1091 1090/1090/1090 
f 1093/1093/1093 1094/1094/1094 1095/1095/1095 
f 1093/1093/1093 1095/1095/1095 1096/1096/1096 
f 1097/1097/1097 1098/1098/1098 1099/1099/1099 
f 1097/1097/1097 1099/1099/1099 1100/1100/1100 
f 1101/1101/1101 1102/1102/1102 1103/1103/1103 
f 1101/1101/1101 1103/1103/1103 1104/1104/1104 
f 1105/1105/1105 1106/1106/1106 1107/1107/1107 
f 1105/1105/1105 1107/1107/1107 1108/1108/1108 
f 1109/1109/1109 1110/1110/1110 1111/1111/1111 
f 1109/1109/1109 1111/1111/1111 1112/1112/1112 

