# This file is brought to you by Roblox Corporation
# Generated by Roblox Studio

mtllib scorpion.mtl

g Pet1

v -0.167011 1.2789 -1.13102 
v 0.167012 1.2789 -1.13102 
v 0.184776 1.3469 -1.27355 
v -0.184776 1.3469 -1.27355 
v -0.196617 1.28319 -1.42675 
v 0.196617 1.28319 -1.42675 
v 0.196617 1.07392 -1.53009 
v -0.196617 1.07392 -1.53009 
v -0.184776 0.930624 -1.4705 
v 0.184776 0.930624 -1.4705 
v 0.196811 0.863263 -1.32931 
v -0.19681 0.863263 -1.32931 
v 1.09367 -1.50598 1.52449 
v 1.09367 -1.59446 1.40094 
v 1.25495 -1.50598 1.52449 
v 1.25495 -1.59446 1.40094 
v -1.09367 -1.50598 1.52449 
v -1.25495 -1.50598 1.52449 
v -1.09367 -1.59446 1.40094 
v -1.25495 -1.59446 1.40094 
v 0.265667 1.39353 -1.10848 
v 0.164887 1.09976 -1.21454 
v -0.000240003 1.57451 -1.04327 
v -0.163307 1.09917 -1.21488 
v -0.265361 1.39258 -1.10903 
v -1.25495 -1.59446 1.40094 
v -1.30979 -1.32183 1.30829 
v -1.30996 -1.47207 1.00406 
v -1.25495 -1.50598 1.52449 
v 1.30979 -1.32183 1.30829 
v 1.25495 -1.59446 1.40094 
v 1.30996 -1.47207 1.00406 
v 1.25495 -1.50598 1.52449 
v 0.429478 1.27956 -0.63461 
v -0.000329038 1.23507 -0.420543 
v 0.15205 1.13137 -0.457911 
v -5.60735e-05 0.953877 -0.145972 
v -0.000768945 1.57238 -0.529098 
v -0.000671086 1.66327 -0.780948 
v 0.429576 1.37045 -0.886459 
v 0.265667 1.39353 -1.10848 
v -0.000240003 1.57451 -1.04327 
v -0.000329038 1.23507 -0.420543 
v -0.429743 1.27801 -0.6355 
v -0.152257 1.13082 -0.458226 
v -5.60735e-05 0.953877 -0.145972 
v -0.000768945 1.57238 -0.529098 
v -0.000671086 1.66327 -0.780948 
v -0.429645 1.36891 -0.88735 
v -0.265361 1.39258 -1.10903 
v -0.000240003 1.57451 -1.04327 
v 1.25873 -1.15321 1.5816 
v 1.08989 -1.15321 1.5816 
v 1.08989 -1.2946 1.64805 
v 1.25873 -1.2946 1.64805 
v -1.25873 -1.15321 1.5816 
v -1.08989 -1.2946 1.64805 
v -1.08989 -1.15321 1.5816 
v -1.25873 -1.2946 1.64805 
v -1.48041 -1.47553 1.00974 
v -1.27719 -1.22844 0.440508 
v -1.27719 -1.52035 0.46451 
v -1.48041 -0.847844 0.95813 
v -1.30979 -1.05073 1.33154 
v -1.30979 -1.33566 1.35496 
v -1.25873 -1.15321 1.5816 
v -1.25873 -1.2946 1.64805 
v 1.48041 -1.47553 1.00974 
v 1.27719 -1.22844 0.440509 
v 1.48041 -0.847844 0.958131 
v 1.27719 -1.52035 0.46451 
v 1.30979 -1.05073 1.33154 
v 1.30979 -1.33566 1.35496 
v 1.25873 -1.15321 1.5816 
v 1.25873 -1.2946 1.64805 
v 0.218278 0.864343 -1.51338 
v -0.197293 0.864343 -1.32682 
v 0.197293 0.864343 -1.32682 
v -0.218278 0.864343 -1.51338 
v -0.232265 0.718502 -1.64431 
v 0.232266 0.718502 -1.64431 
v 0.232266 0.442808 -1.64805 
v -0.232265 0.442808 -1.64805 
v -0.218278 0.320336 -1.51163 
v 0.218278 0.320336 -1.51163 
v 0.232495 0.320336 -1.32682 
v -0.232494 0.320336 -1.32682 
v 0.868216 -1.47553 1.00974 
v 1.48041 -1.47553 1.00974 
v 1.30979 -1.33566 1.35496 
v 1.03883 -1.33566 1.35496 
v -0.868216 -1.47553 1.00974 
v -1.30979 -1.33566 1.35496 
v -1.48041 -1.47553 1.00974 
v -1.03883 -1.33566 1.35496 
v -1.16415 -1.20642 -1.12113 
v -1.33743 -1.66277 -1.1728 
v -1.22056 -1.20681 -0.972135 
v -1.30171 -1.66281 -1.2291 
v 1.33743 -1.66277 -1.1728 
v 1.16415 -1.20642 -1.12113 
v 1.22056 -1.20681 -0.972134 
v 1.30171 -1.66281 -1.22909 
v -0.835528 -1.55593 0.190532 
v -1.21294 -1.40785 0.141519 
v -1.18802 -1.40665 0.00127541 
v -0.83576 -1.57875 -0.121455 
v 0.835528 -1.55593 0.190532 
v 1.18802 -1.40665 0.00127577 
v 1.21294 -1.40785 0.141519 
v 0.83576 -1.57875 -0.121455 
v 0.83576 -1.57875 -0.286629 
v 0.835529 -1.55593 -0.598616 
v 1.18802 -1.40665 -0.40936 
v 1.21294 -1.40785 -0.549603 
v -0.83576 -1.57875 -0.286629 
v -1.18802 -1.40665 -0.40936 
v -0.835528 -1.55593 -0.598617 
v -1.21294 -1.40785 -0.549603 
v -1.13674 -1.40785 -1.08798 
v -0.824217 -1.45873 -1.03992 
v -1.15978 -1.40665 -0.947409 
v -0.824449 -1.53007 -0.727933 
v 1.15978 -1.40665 -0.947409 
v 0.82445 -1.53007 -0.727933 
v 0.824217 -1.45873 -1.03992 
v 1.13674 -1.40785 -1.08798 
v -1.2498 -1.20642 0.163694 
v -1.43684 -1.66277 0.139865 
v -1.42088 -1.66281 0.204597 
v -1.25356 -1.20681 0.00442163 
v 1.2498 -1.20642 0.163694 
v 1.43684 -1.66277 0.139865 
v 1.25356 -1.20681 0.00442201 
v 1.42088 -1.66281 0.204598 
v -1.2498 -1.20642 -0.571779 
v -1.43684 -1.66277 -0.54795 
v -1.25356 -1.20681 -0.412506 
v -1.42088 -1.66281 -0.612682 
v 1.43684 -1.66277 -0.547949 
v 1.2498 -1.20642 -0.571778 
v 1.25356 -1.20681 -0.412506 
v 1.42088 -1.66281 -0.612682 
v 1.33743 -1.66277 -1.1728 
v 1.23645 -1.66327 -1.18881 
v 1.30171 -1.66281 -1.22909 
v 1.27626 -1.66323 -1.12758 
v -1.33743 -1.66277 -1.1728 
v -1.23645 -1.66327 -1.18881 
v -1.27626 -1.66323 -1.12758 
v -1.30171 -1.66281 -1.2291 
v 1.34619 -1.66327 0.187163 
v 1.43684 -1.66277 0.139865 
v 1.42088 -1.66281 0.204598 
v 1.36445 -1.66323 0.116455 
v 1.43684 -1.66277 -0.547949 
v 1.34619 -1.66327 -0.595246 
v 1.42088 -1.66281 -0.612682 
v 1.36445 -1.66323 -0.524539 
v -1.34619 -1.66327 0.187162 
v -1.43684 -1.66277 0.139865 
v -1.36445 -1.66323 0.116454 
v -1.42088 -1.66281 0.204597 
v -1.43684 -1.66277 -0.54795 
v -1.34619 -1.66327 -0.595247 
v -1.36445 -1.66323 -0.524539 
v -1.42088 -1.66281 -0.612682 
v 1.27719 -1.52035 0.46451 
v 0.865001 -1.51002 0.590162 
v 0.845289 -1.53643 0.269045 
v 0.950922 -1.50022 0.709418 
v 1.48041 -1.47553 1.00974 
v 0.950922 -1.50022 0.709418 
v 1.27719 -1.52035 0.46451 
v 0.868216 -1.47553 1.00974 
v -0.865001 -1.51002 0.590161 
v -1.27719 -1.52035 0.46451 
v -0.84529 -1.53643 0.269045 
v -0.950922 -1.50022 0.709418 
v -1.48041 -1.47553 1.00974 
v -0.950922 -1.50022 0.709418 
v -0.868216 -1.47553 1.00974 
v -1.27719 -1.52035 0.46451 
v -0.851798 -1.54634 0.64138 
v 0.0055019 -1.57358 0.64138 
v -0.88494 -0.760699 0.64138 
v 0.0057599 0.0601682 0.640143 
v -0.85089 0.0543707 0.637 
v 0.88902 -0.760699 0.64138 
v 0.86241 0.0121232 0.643286 
v 0.862807 -1.54634 0.64138 
v 0.00550196 -1.58667 0.255267 
v 0.855307 -1.58417 0.367275 
v 0.0055019 -1.57358 0.64138 
v 0.862807 -1.54634 0.64138 
v -0.851798 -1.54634 0.64138 
v 0.848137 -1.59523 0.104996 
v -0.843968 -1.58471 0.14934 
v 0.00550202 -1.60012 -0.114188 
v 0.855578 -1.55769 -0.592715 
v -0.836467 -1.59629 -0.321471 
v 0.0055021 -1.55769 -0.666903 
v 0.862808 -1.46085 -1.07322 
v -0.844567 -1.55769 -0.741091 
v 0.00550216 -1.48393 -1.07322 
v -0.851797 -1.46085 -1.07322 
v 0.855307 -1.58417 0.367275 
v 0.88902 -0.760699 0.64138 
v 0.862807 -1.54634 0.64138 
v 0.848137 -0.809592 0.104996 
v 0.848137 -1.59523 0.104996 
v 0.855578 -1.55769 -0.592715 
v 0.848805 -0.0563443 0.103081 
v 0.86241 0.0121232 0.643286 
v 0.83661 -0.739084 -1.07322 
v 0.862808 -1.46085 -1.07322 
v 0.8628 -0.0202092 -1.0734 
v 1.03883 -1.33566 1.35496 
v 1.30979 -1.33566 1.35496 
v 1.25873 -1.2946 1.64805 
v 1.08989 -1.2946 1.64805 
v -1.03883 -1.33566 1.35496 
v -1.25873 -1.2946 1.64805 
v -1.30979 -1.33566 1.35496 
v -1.08989 -1.2946 1.64805 
v -0.88494 -0.760699 0.64138 
v -0.843968 -1.58471 0.14934 
v -0.851798 -1.54634 0.64138 
v -0.836467 -0.810717 -0.32148 
v -0.836467 -1.59629 -0.321471 
v -0.844567 -1.55769 -0.741091 
v -0.836737 -0.0640767 -0.320577 
v -0.85089 0.0543707 0.637 
v -0.825322 -0.739084 -1.07322 
v -0.851797 -1.46085 -1.07322 
v -0.851805 -0.0190918 -1.07333 
v 0.00550216 -1.48393 -1.07322 
v -0.825322 -0.739084 -1.07322 
v 0.00549991 -0.0379767 -1.07337 
v -0.851805 -0.0190918 -1.07333 
v -0.851797 -1.46085 -1.07322 
v 0.83661 -0.739084 -1.07322 
v 0.862808 -1.46085 -1.07322 
v 0.8628 -0.0202092 -1.0734 
v -0.85089 0.0543707 0.637 
v 0.0057599 0.0601682 0.640143 
v 0.00564677 -0.0610018 -0.11565 
v -0.836737 -0.0640767 -0.320577 
v 0.848805 -0.0563443 0.103081 
v 0.86241 0.0121232 0.643286 
v 0.8628 -0.0202092 -1.0734 
v 0.00549991 -0.0379767 -1.07337 
v -0.851805 -0.0190918 -1.07333 
v -0.228375 0.321823 -1.32637 
v 0.228375 0.321823 -1.32637 
v 0.252667 0.202776 -1.50654 
v -0.252666 0.202776 -1.50654 
v -0.268858 -0.0216263 -1.53992 
v 0.268858 -0.0216263 -1.53992 
v 0.268858 -0.290264 -1.3676 
v -0.268858 -0.290264 -1.3676 
v -0.252666 -0.321492 -1.1577 
v 0.252667 -0.321492 -1.1577 
v 0.269123 -0.203559 -0.979221 
v -0.269123 -0.203559 -0.979221 
v 0.824217 -1.45873 -1.03992 
v 0.824217 -1.14097 -1.05962 
v 1.13674 -1.40785 -1.08798 
v 1.16415 -1.20642 -1.12113 
v 1.30171 -1.66281 -1.22909 
v 1.23645 -1.66327 -1.18881 
v -0.824217 -1.45873 -1.03992 
v -1.13674 -1.40785 -1.08798 
v -0.824217 -1.14097 -1.05962 
v -1.16415 -1.20642 -1.12113 
v -1.30171 -1.66281 -1.2291 
v -1.23645 -1.66327 -1.18881 
v 1.03883 -1.32183 1.30829 
v 1.25495 -1.50598 1.52449 
v 1.30979 -1.32183 1.30829 
v 1.09367 -1.50598 1.52449 
v -1.03883 -1.32183 1.30829 
v -1.25495 -1.50598 1.52449 
v -1.09367 -1.50598 1.52449 
v -1.30979 -1.32183 1.30829 
v 0.835528 -1.1898 0.210229 
v 1.21294 -1.40785 0.141519 
v 1.2498 -1.20642 0.163694 
v 0.835528 -1.55593 0.190532 
v 1.42088 -1.66281 0.204598 
v 1.34619 -1.66327 0.187163 
v -0.835529 -1.1898 0.210229 
v -1.2498 -1.20642 0.163694 
v -1.21294 -1.40785 0.141519 
v -0.835528 -1.55593 0.190532 
v -1.42088 -1.66281 0.204597 
v -1.34619 -1.66327 0.187162 
v 0.835529 -1.55593 -0.598616 
v 0.835529 -1.1898 -0.618314 
v 1.21294 -1.40785 -0.549603 
v 1.2498 -1.20642 -0.571778 
v 1.42088 -1.66281 -0.612682 
v 1.34619 -1.66327 -0.595246 
v -0.835528 -1.55593 -0.598617 
v -1.21294 -1.40785 -0.549603 
v -0.835528 -1.1898 -0.618314 
v -1.2498 -1.20642 -0.571779 
v -1.42088 -1.66281 -0.612682 
v -1.34619 -1.66327 -0.595247 
v 0.835554 -1.19048 -0.219836 
v 1.18802 -1.40665 -0.40936 
v 1.25356 -1.20681 -0.412506 
v 0.83576 -1.57875 -0.286629 
v 1.43684 -1.66277 -0.547949 
v 1.36445 -1.66323 -0.524539 
v -0.835554 -1.19048 -0.219837 
v -1.18802 -1.40665 -0.40936 
v -0.83576 -1.57875 -0.286629 
v -1.25356 -1.20681 -0.412506 
v -1.43684 -1.66277 -0.54795 
v -1.36445 -1.66323 -0.524539 
v 1.09367 -1.59446 1.40094 
v 1.03899 -1.47207 1.00406 
v 1.25495 -1.59446 1.40094 
v 1.30996 -1.47207 1.00406 
v -1.03899 -1.47207 1.00406 
v -1.25495 -1.59446 1.40094 
v -1.30996 -1.47207 1.00406 
v -1.09367 -1.59446 1.40094 
v -1.18802 -1.40665 0.00127541 
v -0.835554 -1.19048 -0.188248 
v -0.83576 -1.57875 -0.121455 
v -1.25356 -1.20681 0.00442163 
v -1.43684 -1.66277 0.139865 
v -1.36445 -1.66323 0.116454 
v 0.835554 -1.19048 -0.188248 
v 1.18802 -1.40665 0.00127577 
v 0.83576 -1.57875 -0.121455 
v 1.25356 -1.20681 0.00442201 
v 1.43684 -1.66277 0.139865 
v 1.36445 -1.66323 0.116455 
v 0.269123 -0.203559 -0.979221 
v 0.268858 -0.0216263 -1.53992 
v 0.252667 0.202776 -1.50654 
v 0.228375 0.321823 -1.32637 
v 0.268858 -0.290264 -1.3676 
v 0.252667 -0.321492 -1.1577 
v -0.268858 -0.0216263 -1.53992 
v -0.269123 -0.203559 -0.979221 
v -0.252666 0.202776 -1.50654 
v -0.228375 0.321823 -1.32637 
v -0.268858 -0.290264 -1.3676 
v -0.252666 -0.321492 -1.1577 
v 0.824243 -1.17591 -0.66114 
v 1.15978 -1.40665 -0.947409 
v 1.22056 -1.20681 -0.972134 
v 0.82445 -1.53007 -0.727933 
v 1.33743 -1.66277 -1.1728 
v 1.27626 -1.66323 -1.12758 
v -0.824242 -1.17591 -0.66114 
v -1.15978 -1.40665 -0.947409 
v -0.824449 -1.53007 -0.727933 
v -1.22056 -1.20681 -0.972135 
v -1.33743 -1.66277 -1.1728 
v -1.27626 -1.66323 -1.12758 
v 0.232495 0.320336 -1.32682 
v 0.232266 0.718502 -1.64431 
v 0.218278 0.864343 -1.51338 
v 0.197293 0.864343 -1.32682 
v 0.232266 0.442808 -1.64805 
v 0.218278 0.320336 -1.51163 
v -0.232265 0.718502 -1.64431 
v -0.232494 0.320336 -1.32682 
v -0.218278 0.864343 -1.51338 
v -0.197293 0.864343 -1.32682 
v -0.232265 0.442808 -1.64805 
v -0.218278 0.320336 -1.51163 
v -0.196617 1.28319 -1.42675 
v -0.19681 0.863263 -1.32931 
v -0.184776 1.3469 -1.27355 
v -0.167011 1.2789 -1.13102 
v -0.196617 1.07392 -1.53009 
v -0.184776 0.930624 -1.4705 
v 0.196811 0.863263 -1.32931 
v 0.196617 1.28319 -1.42675 
v 0.184776 1.3469 -1.27355 
v 0.167012 1.2789 -1.13102 
v 0.196617 1.07392 -1.53009 
v 0.184776 0.930624 -1.4705 
v -0.84529 -1.53643 0.269045 
v -1.27719 -1.22844 0.440508 
v -0.84529 -1.19812 0.241229 
v -1.27719 -1.52035 0.46451 
v 0.845289 -1.53643 0.269045 
v 1.27719 -1.22844 0.440509 
v 1.27719 -1.52035 0.46451 
v 0.845289 -1.19812 0.24123 
v 0.950922 -1.50022 0.709418 
v 0.865001 -1.17172 0.562346 
v 0.865001 -1.51002 0.590162 
v 0.950922 -1.1151 0.677753 
v -0.950922 -1.50022 0.709418 
v -0.865001 -1.17172 0.562346 
v -0.950922 -1.1151 0.677753 
v -0.865001 -1.51002 0.590161 
v 0.0942971 0.963016 -0.51869 
v 0.429478 1.27956 -0.63461 
v 0.15205 1.13137 -0.457911 
v -5.60735e-05 0.953877 -0.145972 
v 0.266412 0.804214 -0.806222 
v 0.429576 1.37045 -0.886459 
v 0.26651 0.895105 -1.05807 
v 0.164887 1.09976 -1.21454 
v 0.265667 1.39353 -1.10848 
v -0.0937746 0.962679 -0.518885 
v -0.152257 1.13082 -0.458226 
v -0.429743 1.27801 -0.6355 
v -5.60735e-05 0.953877 -0.145972 
v -0.264616 0.803261 -0.806772 
v -0.264518 0.894152 -1.05862 
v -0.429645 1.36891 -0.88735 
v -0.163307 1.09917 -1.21488 
v -0.265361 1.39258 -1.10903 
v 1.22056 -1.20681 -0.972134 
v 0.824217 -1.14097 -1.05962 
v 0.824243 -1.17591 -0.66114 
v 1.16415 -1.20642 -1.12113 
v 0.228375 0.321823 -1.32637 
v -0.228375 0.321823 -1.32637 
v -0.269123 -0.203559 -0.979221 
v 0.269123 -0.203559 -0.979221 
v -1.22056 -1.20681 -0.972135 
v -0.824217 -1.14097 -1.05962 
v -1.16415 -1.20642 -1.12113 
v -0.824242 -1.17591 -0.66114 
v 1.27719 -1.22844 0.440509 
v 0.868216 -0.847844 0.95813 
v 1.48041 -0.847844 0.958131 
v 0.950922 -1.1151 0.677753 
v 1.30979 -1.05073 1.33154 
v 1.03883 -1.05073 1.33154 
v 1.08989 -1.15321 1.5816 
v 1.25873 -1.15321 1.5816 
v -1.27719 -1.22844 0.440508 
v -1.48041 -0.847844 0.95813 
v -0.868216 -0.847844 0.95813 
v -0.950922 -1.1151 0.677753 
v -1.30979 -1.05073 1.33154 
v -1.03883 -1.05073 1.33154 
v -1.08989 -1.15321 1.5816 
v -1.25873 -1.15321 1.5816 
v 0.835528 -1.1898 0.210229 
v 1.25356 -1.20681 0.00442201 
v 0.835554 -1.19048 -0.188248 
v 1.2498 -1.20642 0.163694 
v 1.25356 -1.20681 -0.412506 
v 0.835529 -1.1898 -0.618314 
v 0.835554 -1.19048 -0.219836 
v 1.2498 -1.20642 -0.571778 
v -0.835529 -1.1898 0.210229 
v -1.25356 -1.20681 0.00442163 
v -1.2498 -1.20642 0.163694 
v -0.835554 -1.19048 -0.188248 
v -1.25356 -1.20681 -0.412506 
v -0.835528 -1.1898 -0.618314 
v -1.2498 -1.20642 -0.571779 
v -0.835554 -1.19048 -0.219837 
v 0.865001 -1.17172 0.562346 
v 0.950922 -1.1151 0.677753 
v 0.845289 -1.19812 0.24123 
v 1.27719 -1.22844 0.440509 
v -0.865001 -1.17172 0.562346 
v -0.84529 -1.19812 0.241229 
v -0.950922 -1.1151 0.677753 
v -1.27719 -1.22844 0.440508 
v 1.18802 -1.40665 0.00127577 
v 1.36445 -1.66323 0.116455 
v 1.21294 -1.40785 0.141519 
v 1.34619 -1.66327 0.187163 
v 1.36445 -1.66323 -0.524539 
v 1.18802 -1.40665 -0.40936 
v 1.21294 -1.40785 -0.549603 
v 1.34619 -1.66327 -0.595246 
v -1.21294 -1.40785 0.141519 
v -1.34619 -1.66327 0.187162 
v -1.36445 -1.66323 0.116454 
v -1.18802 -1.40665 0.00127541 
v -1.36445 -1.66323 -0.524539 
v -1.21294 -1.40785 -0.549603 
v -1.18802 -1.40665 -0.40936 
v -1.34619 -1.66327 -0.595247 
v 1.03899 -1.47207 1.00406 
v 1.09367 -1.59446 1.40094 
v 1.03883 -1.32183 1.30829 
v 1.09367 -1.50598 1.52449 
v -1.09367 -1.59446 1.40094 
v -1.03899 -1.47207 1.00406 
v -1.03883 -1.32183 1.30829 
v -1.09367 -1.50598 1.52449 
v 0.868216 -1.47553 1.00974 
v 0.868216 -0.847844 0.95813 
v 0.950922 -1.1151 0.677753 
v 0.950922 -1.50022 0.709418 
v 1.03883 -1.05073 1.33154 
v 1.03883 -1.33566 1.35496 
v 1.08989 -1.15321 1.5816 
v 1.08989 -1.2946 1.64805 
v -0.868216 -0.847844 0.95813 
v -0.868216 -1.47553 1.00974 
v -0.950922 -1.1151 0.677753 
v -0.950922 -1.50022 0.709418 
v -1.03883 -1.05073 1.33154 
v -1.03883 -1.33566 1.35496 
v -1.08989 -1.15321 1.5816 
v -1.08989 -1.2946 1.64805 
v 1.27626 -1.66323 -1.12758 
v 1.15978 -1.40665 -0.947409 
v 1.13674 -1.40785 -1.08798 
v 1.23645 -1.66327 -1.18881 
v -1.23645 -1.66327 -1.18881 
v -1.13674 -1.40785 -1.08798 
v -1.27626 -1.66323 -1.12758 
v -1.15978 -1.40665 -0.947409 
v 0.197293 0.864343 -1.32682 
v -0.197293 0.864343 -1.32682 
v -0.232494 0.320336 -1.32682 
v 0.232495 0.320336 -1.32682 
v -0.264616 0.803261 -0.806772 
v 0.0942971 0.963016 -0.51869 
v -0.0937746 0.962679 -0.518885 
v -5.60735e-05 0.953877 -0.145972 
v 0.266412 0.804214 -0.806222 
v 0.26651 0.895105 -1.05807 
v -0.264518 0.894152 -1.05862 
v -0.163307 1.09917 -1.21488 
v 0.164887 1.09976 -1.21454 
v 0.167012 1.2789 -1.13102 
v -0.167011 1.2789 -1.13102 
v -0.19681 0.863263 -1.32931 
v 0.196811 0.863263 -1.32931 

vn 0 0.905512 0.433071 
vn 0 0.905512 0.433071 
vn 0 1 0.023622 
vn 0 1 0.023622 
vn 0 0.732283 -0.685039 
vn 0 0.732283 -0.685039 
vn 0 0.0314961 -1 
vn 0 0.0314961 -1 
vn 0 -0.692913 -0.724409 
vn 0 -0.692913 -0.724409 
vn 0 -0.905512 -0.433071 
vn 0 -0.905512 -0.433071 
vn 0 -0.811024 0.582677 
vn 0 -0.811024 0.582677 
vn 0 -0.811024 0.582677 
vn 0 -0.811024 0.582677 
vn 0 -0.811024 0.582677 
vn 0 -0.811024 0.582677 
vn 0 -0.811024 0.582677 
vn 0 -0.811024 0.582677 
vn 0.519685 0.543307 -0.653543 
vn 0.228346 0.015748 -0.976378 
vn 0 0.574803 -0.818898 
vn -0.228346 0.015748 -0.976378 
vn -0.590551 0.338583 -0.732283 
vn -0.984252 -0.165354 0.0944882 
vn -0.984252 -0.165354 0.0944882 
vn -0.984252 -0.165354 0.0944882 
vn -0.984252 -0.165354 0.0944882 
vn 0.984252 -0.165354 0.0944882 
vn 0.984252 -0.165354 0.0944882 
vn 0.984252 -0.165354 0.0944882 
vn 0.984252 -0.165354 0.0944882 
vn 0.535433 0.559055 0.629921 
vn 0.488189 0.440945 0.755906 
vn 0.488189 0.440945 0.755906 
vn 0.543307 0.582677 0.598425 
vn 0.535433 0.559055 0.629921 
vn 0.559055 0.826772 -0.00787402 
vn 0.559055 0.826772 -0.00787402 
vn 0.519685 0.543307 -0.653543 
vn 0.267717 0.653543 -0.708661 
vn -0.488189 0.440945 0.755906 
vn -0.543307 0.559055 0.629921 
vn -0.488189 0.440945 0.755906 
vn -0.551181 0.582677 0.598425 
vn -0.543307 0.559055 0.629921 
vn -0.566929 0.826772 -0.00787402 
vn -0.566929 0.826772 -0.00787402 
vn -0.275591 0.653543 -0.708661 
vn -0.275591 0.653543 -0.708661 
vn 0 0.425197 0.905512 
vn 0 0.425197 0.905512 
vn 0 0.425197 0.905512 
vn 0 0.425197 0.905512 
vn 0 0.425197 0.905512 
vn 0 0.425197 0.905512 
vn 0 0.425197 0.905512 
vn 0 0.425197 0.905512 
vn -1 0 0.0314961 
vn -0.937008 -0.0314961 -0.346457 
vn -0.937008 -0.0314961 -0.346457 
vn -1 0 0.0314961 
vn -0.96063 0.0393701 0.291339 
vn -0.96063 0.0393701 0.291339 
vn -0.984252 0.0393701 0.173228 
vn -0.984252 0.0393701 0.173228 
vn 1 0 0.0314961 
vn 0.937008 -0.0314961 -0.346457 
vn 1 0 0.0314961 
vn 0.937008 -0.0314961 -0.346457 
vn 0.96063 0.0393701 0.291339 
vn 0.96063 0.0393701 0.291339 
vn 0.984252 0.0393701 0.173228 
vn 0.984252 0.0393701 0.173228 
vn 0 0.913386 -0.409449 
vn 0 1 0 
vn 0 1 0 
vn 0 0.913386 -0.409449 
vn 0 0.362205 -0.929134 
vn 0 0.362205 -0.929134 
vn 0 -0.401575 -0.913386 
vn 0 -0.401575 -0.913386 
vn 0 -0.937008 -0.354331 
vn 0 -0.937008 -0.354331 
vn 0 -1 0 
vn 0 -1 0 
vn 0 -0.929134 0.377953 
vn 0 -0.929134 0.377953 
vn 0 -0.929134 0.377953 
vn 0 -0.929134 0.377953 
vn 0 -0.929134 0.377953 
vn 0 -0.929134 0.377953 
vn 0 -0.929134 0.377953 
vn 0 -0.929134 0.377953 
vn -0.818898 0.440945 -0.370079 
vn -0.850394 0.362205 -0.377953 
vn -0.818898 0.440945 -0.370079 
vn -0.527559 0.330709 -0.787402 
vn 0.850394 0.362205 -0.377953 
vn 0.818898 0.440945 -0.370079 
vn 0.818898 0.440945 -0.370079 
vn 0.527559 0.330709 -0.787402 
vn -0.409449 -0.905512 0.0629921 
vn -0.409449 -0.905512 0.0629921 
vn -0.409449 -0.905512 0.0629921 
vn -0.409449 -0.905512 0.0629921 
vn 0.409449 -0.905512 0.0629921 
vn 0.409449 -0.905512 0.0629921 
vn 0.409449 -0.905512 0.0629921 
vn 0.409449 -0.905512 0.0629921 
vn 0.409449 -0.905512 -0.0629921 
vn 0.409449 -0.905512 -0.0629921 
vn 0.409449 -0.905512 -0.0629921 
vn 0.409449 -0.905512 -0.0629921 
vn -0.409449 -0.905512 -0.0629921 
vn -0.409449 -0.905512 -0.0629921 
vn -0.409449 -0.905512 -0.0629921 
vn -0.409449 -0.905512 -0.0629921 
vn -0.409449 -0.905512 -0.0629921 
vn -0.409449 -0.905512 -0.0629921 
vn -0.409449 -0.905512 -0.0629921 
vn -0.409449 -0.905512 -0.0629921 
vn 0.409449 -0.905512 -0.0629921 
vn 0.409449 -0.905512 -0.0629921 
vn 0.409449 -0.905512 -0.0629921 
vn 0.409449 -0.905512 -0.0629921 
vn -0.818898 0.440945 0.370079 
vn -0.850394 0.362205 0.377953 
vn -0.527559 0.330709 0.787402 
vn -0.818898 0.440945 0.370079 
vn 0.818898 0.440945 0.370079 
vn 0.850394 0.362205 0.377953 
vn 0.818898 0.440945 0.370079 
vn 0.527559 0.330709 0.787402 
vn -0.818898 0.440945 -0.370079 
vn -0.850394 0.362205 -0.377953 
vn -0.818898 0.440945 -0.370079 
vn -0.527559 0.330709 -0.787402 
vn 0.850394 0.362205 -0.377953 
vn 0.818898 0.440945 -0.370079 
vn 0.818898 0.440945 -0.370079 
vn 0.527559 0.330709 -0.787402 
vn 0.00787402 -1 0 
vn 0.00787402 -1 0 
vn 0.00787402 -1 0 
vn 0.00787402 -1 0 
vn -0.00787402 -1 0 
vn -0.00787402 -1 0 
vn -0.00787402 -1 0 
vn -0.00787402 -1 0 
vn 0.00787402 -1 0 
vn 0.00787402 -1 0 
vn 0.00787402 -1 0 
vn 0.00787402 -1 0 
vn 0.00787402 -1 0 
vn 0.00787402 -1 0 
vn 0.00787402 -1 0 
vn 0.00787402 -1 0 
vn -0.00787402 -1 0 
vn -0.00787402 -1 0 
vn -0.00787402 -1 0 
vn -0.00787402 -1 0 
vn -0.00787402 -1 0 
vn -0.00787402 -1 0 
vn -0.00787402 -1 0 
vn -0.00787402 -1 0 
vn 0 -1 0.0787402 
vn 0 -1 0.0787402 
vn 0 -1 0.0787402 
vn 0 -1 0.0787402 
vn 0 -1 0.0787402 
vn 0 -1 0.0787402 
vn 0 -1 0.0787402 
vn 0 -1 0.0787402 
vn 0 -1 0.0787402 
vn 0 -1 0.0787402 
vn 0 -1 0.0787402 
vn 0 -1 0.0787402 
vn 0 -1 0.0787402 
vn 0 -1 0.0787402 
vn 0 -1 0.0787402 
vn 0 -1 0.0787402 
vn 0 0 1 
vn 0 0 1 
vn 0 0 1 
vn 0 0 1 
vn 0 0 1 
vn 0 0 1 
vn 0 0 1 
vn 0 0 1 
vn -0.00787402 -1 0.0551181 
vn 0.00787402 -1 0.0551181 
vn -0.00787402 -1 0.0708661 
vn 0.015748 -1 0.0787402 
vn -0.023622 -1 0.0551181 
vn 0.00787402 -1 -0.015748 
vn -0.015748 -1 0.0472441 
vn 0 -1 -0.023622 
vn 0.015748 -0.992126 -0.125984 
vn 0 -1 -0.023622 
vn 0.00787402 -0.992126 -0.141732 
vn 0.023622 -0.984252 -0.188976 
vn 0.00787402 -0.984252 -0.15748 
vn 0.00787402 -0.976378 -0.204724 
vn 0 -0.976378 -0.228346 
vn 1 -0.00787402 -0.0393701 
vn 1 0 -0.0551181 
vn 1 -0.023622 -0.0551181 
vn 1 0 -0.023622 
vn 1 0 -0.00787402 
vn 1 0.00787402 0.00787402 
vn 1 0 -0.023622 
vn 1 0.015748 -0.0551181 
vn 1 0 0 
vn 1 0.023622 0 
vn 1 -0.015748 0 
vn 0 -0.992126 0.141732 
vn 0 -0.992126 0.141732 
vn 0 -0.992126 0.141732 
vn 0 -0.992126 0.141732 
vn 0 -0.992126 0.141732 
vn 0 -0.992126 0.141732 
vn 0 -0.992126 0.141732 
vn 0 -0.992126 0.141732 
vn -1 0 -0.0393701 
vn -1 -0.015748 -0.023622 
vn -1 -0.0314961 -0.0393701 
vn -1 0 -0.00787402 
vn -1 0 0 
vn -1 0.015748 0.00787402 
vn -1 0 -0.015748 
vn -1 0.023622 -0.0314961 
vn -1 0 0 
vn -1 0.023622 0 
vn -1 -0.015748 0 
vn 0 0 -1 
vn 0 0 -1 
vn 0 0 -1 
vn 0 0 -1 
vn 0 0 -1 
vn 0 0 -1 
vn 0 0 -1 
vn 0 0 -1 
vn 0.015748 0.992126 -0.141732 
vn 0.0314961 0.992126 -0.141732 
vn 0.00787402 1 -0.0551181 
vn 0.00787402 1 -0.0472441 
vn 0.015748 1 -0.0629921 
vn 0.0472441 0.992126 -0.141732 
vn -0.015748 1 0.0314961 
vn -0.00787402 1 0.0314961 
vn 0.00787402 1 0.0393701 
vn 0 0.834646 -0.551181 
vn 0 0.834646 -0.551181 
vn 0 0.535433 -0.84252 
vn 0 0.535433 -0.84252 
vn 0 -0.212598 -0.976378 
vn 0 -0.212598 -0.976378 
vn 0 -0.84252 -0.543307 
vn 0 -0.84252 -0.543307 
vn 0 -0.976378 0.212598 
vn 0 -0.976378 0.212598 
vn 0 -0.834646 0.551181 
vn 0 -0.834646 0.551181 
vn -0.165354 -0.0866142 -0.984252 
vn -0.165354 -0.0866142 -0.984252 
vn -0.377953 -0.0629921 -0.92126 
vn -0.377953 -0.0629921 -0.92126 
vn -0.566929 -0.204724 -0.795276 
vn -0.779528 -0.362205 -0.511811 
vn 0.165354 -0.0866142 -0.984252 
vn 0.377953 -0.0629921 -0.92126 
vn 0.165354 -0.0866142 -0.984252 
vn 0.377953 -0.0629921 -0.92126 
vn 0.566929 -0.204724 -0.795276 
vn 0.779528 -0.362205 -0.511811 
vn 0 0.76378 0.645669 
vn 0 0.76378 0.645669 
vn 0 0.76378 0.645669 
vn 0 0.76378 0.645669 
vn 0 0.76378 0.645669 
vn 0 0.76378 0.645669 
vn 0 0.76378 0.645669 
vn 0 0.76378 0.645669 
vn -0.165354 -0.0866142 0.984252 
vn -0.377953 -0.0629921 0.92126 
vn -0.377953 -0.0629921 0.92126 
vn -0.165354 -0.0866142 0.984252 
vn -0.566929 -0.204724 0.795276 
vn -0.779528 -0.362205 0.511811 
vn 0.165354 -0.0866142 0.984252 
vn 0.377953 -0.0629921 0.92126 
vn 0.377953 -0.0629921 0.92126 
vn 0.165354 -0.0866142 0.984252 
vn 0.566929 -0.204724 0.795276 
vn 0.779528 -0.362205 0.511811 
vn -0.165354 -0.0866142 -0.984252 
vn -0.165354 -0.0866142 -0.984252 
vn -0.377953 -0.0629921 -0.92126 
vn -0.377953 -0.0629921 -0.92126 
vn -0.566929 -0.204724 -0.795276 
vn -0.779528 -0.362205 -0.511811 
vn 0.165354 -0.0866142 -0.984252 
vn 0.377953 -0.0629921 -0.92126 
vn 0.165354 -0.0866142 -0.984252 
vn 0.377953 -0.0629921 -0.92126 
vn 0.566929 -0.204724 -0.795276 
vn 0.779528 -0.362205 -0.511811 
vn 0.622047 -0.11811 0.779528 
vn 0.629921 -0.11811 0.771654 
vn 0.629921 -0.11811 0.771654 
vn 0.622047 -0.11811 0.779528 
vn 0.968504 0.23622 0.0393701 
vn 0.228346 -0.472441 0.850394 
vn -0.622047 -0.11811 0.779528 
vn -0.629921 -0.11811 0.771654 
vn -0.622047 -0.11811 0.779528 
vn -0.629921 -0.11811 0.771654 
vn -0.968504 0.23622 0.0393701 
vn -0.228346 -0.472441 0.850394 
vn 0 -0.952756 -0.291339 
vn 0 -0.952756 -0.291339 
vn 0 -0.952756 -0.291339 
vn 0 -0.952756 -0.291339 
vn 0 -0.952756 -0.291339 
vn 0 -0.952756 -0.291339 
vn 0 -0.952756 -0.291339 
vn 0 -0.952756 -0.291339 
vn -0.629921 -0.11811 -0.771654 
vn -0.622047 -0.11811 -0.779528 
vn -0.622047 -0.11811 -0.779528 
vn -0.629921 -0.11811 -0.771654 
vn -0.968504 0.23622 -0.0393701 
vn -0.228346 -0.472441 -0.850394 
vn 0.622047 -0.11811 -0.779528 
vn 0.629921 -0.11811 -0.771654 
vn 0.622047 -0.11811 -0.779528 
vn 0.629921 -0.11811 -0.771654 
vn 0.968504 0.23622 -0.0393701 
vn 0.228346 -0.472441 -0.850394 
vn 1 0.00787402 0.023622 
vn 1 0.0314961 0.015748 
vn 0.992126 0.0944882 0.0393701 
vn 0.992126 0.11811 0.0551181 
vn 1 -0.0393701 0.00787402 
vn 1 -0.0393701 0.00787402 
vn -1 0.0314961 0.015748 
vn -1 0.00787402 0.023622 
vn -0.992126 0.0944882 0.0393701 
vn -0.992126 0.11811 0.0551181 
vn -1 -0.0393701 0.00787402 
vn -1 -0.0393701 0.00787402 
vn 0.622047 -0.11811 0.779528 
vn 0.629921 -0.11811 0.771654 
vn 0.629921 -0.11811 0.771654 
vn 0.622047 -0.11811 0.779528 
vn 0.968504 0.23622 0.0393701 
vn 0.228346 -0.472441 0.850394 
vn -0.622047 -0.11811 0.779528 
vn -0.629921 -0.11811 0.771654 
vn -0.622047 -0.11811 0.779528 
vn -0.629921 -0.11811 0.771654 
vn -0.968504 0.23622 0.0393701 
vn -0.228346 -0.472441 0.850394 
vn 1 0 0.023622 
vn 1 0.015748 0.0314961 
vn 0.992126 0.0551181 0.0866142 
vn 0.992126 0.0629921 0.110236 
vn 1 -0.0393701 -0.015748 
vn 1 -0.0393701 -0.015748 
vn -1 0.015748 0.0314961 
vn -1 0 0.023622 
vn -0.992126 0.0551181 0.0866142 
vn -0.992126 0.0629921 0.110236 
vn -1 -0.0393701 -0.015748 
vn -1 -0.0393701 -0.015748 
vn -1 0 0.0393701 
vn -1 -0.015748 0.023622 
vn -0.992126 0.015748 0.102362 
vn -0.992126 0.00787402 0.125984 
vn -1 -0.0314961 -0.0314961 
vn -1 -0.0314961 -0.0314961 
vn 1 -0.015748 0.023622 
vn 1 0 0.0393701 
vn 0.992126 0.015748 0.102362 
vn 0.992126 0.00787402 0.125984 
vn 1 -0.0314961 -0.0314961 
vn 1 -0.0314961 -0.0314961 
vn -0.417323 -0.0708661 -0.905512 
vn -0.417323 -0.0708661 -0.905512 
vn -0.417323 -0.0708661 -0.905512 
vn -0.417323 -0.0708661 -0.905512 
vn 0.417323 -0.0708661 -0.905512 
vn 0.417323 -0.0708661 -0.905512 
vn 0.417323 -0.0708661 -0.905512 
vn 0.417323 -0.0708661 -0.905512 
vn -0.811024 0.0472441 0.582677 
vn -0.811024 0.0472441 0.582677 
vn -0.811024 0.0472441 0.582677 
vn -0.811024 0.0472441 0.582677 
vn 0.811024 0.0472441 0.582677 
vn 0.811024 0.0472441 0.582677 
vn 0.811024 0.0472441 0.582677 
vn 0.811024 0.0472441 0.582677 
vn 0.787402 -0.433071 0.440945 
vn 0.866142 -0.401575 0.299213 
vn 0.787402 -0.433071 0.440945 
vn 0.897638 -0.385827 0.220472 
vn 0.866142 -0.401575 0.299213 
vn 0.913386 -0.181102 -0.370079 
vn 0.913386 -0.181102 -0.370079 
vn 0.440945 0.165354 -0.88189 
vn 0.440945 0.165354 -0.88189 
vn -0.787402 -0.433071 0.440945 
vn -0.787402 -0.433071 0.440945 
vn -0.866142 -0.409449 0.291339 
vn -0.897638 -0.385827 0.212598 
vn -0.866142 -0.409449 0.291339 
vn -0.913386 -0.181102 -0.370079 
vn -0.913386 -0.181102 -0.370079 
vn -0.440945 0.165354 -0.88189 
vn -0.590551 0.338583 -0.732283 
vn 0.0708661 1 -0.00787402 
vn 0.0708661 1 -0.00787402 
vn 0.0708661 1 -0.00787402 
vn 0.0708661 1 -0.00787402 
vn 0 0.551181 0.834646 
vn 0 0.551181 0.834646 
vn 0 0.551181 0.834646 
vn 0 0.551181 0.834646 
vn -0.0708661 1 -0.00787402 
vn -0.0708661 1 -0.00787402 
vn -0.0708661 1 -0.00787402 
vn -0.0708661 1 -0.00787402 
vn -0.0629921 0.779528 -0.622047 
vn -0.0393701 0.992126 -0.110236 
vn -0.0393701 0.992126 -0.110236 
vn -0.0629921 0.779528 -0.622047 
vn 0 0.92126 0.393701 
vn 0 0.92126 0.393701 
vn 0 0.937008 0.346457 
vn 0 0.937008 0.346457 
vn 0.0629921 0.779528 -0.622047 
vn 0.0393701 0.992126 -0.110236 
vn 0.0393701 0.992126 -0.110236 
vn 0.0629921 0.779528 -0.622047 
vn 0 0.92126 0.393701 
vn 0 0.92126 0.393701 
vn 0 0.937008 0.346457 
vn 0 0.937008 0.346457 
vn 0.0708661 1 0.00787402 
vn 0.0708661 1 0.00787402 
vn 0.0708661 1 0.00787402 
vn 0.0708661 1 0.00787402 
vn 0.0708661 1 -0.00787402 
vn 0.0708661 1 -0.00787402 
vn 0.0708661 1 -0.00787402 
vn 0.0708661 1 -0.00787402 
vn -0.0708661 1 0.00787402 
vn -0.0708661 1 0.00787402 
vn -0.0708661 1 0.00787402 
vn -0.0708661 1 0.00787402 
vn -0.0708661 1 -0.00787402 
vn -0.0708661 1 -0.00787402 
vn -0.0708661 1 -0.00787402 
vn -0.0708661 1 -0.00787402 
vn -0.511811 0.858268 -0.0393701 
vn 0.133858 0.968504 -0.204724 
vn 0.149606 0.968504 -0.204724 
vn 0.173228 0.96063 -0.212598 
vn 0.511811 0.858268 -0.0393701 
vn -0.149606 0.968504 -0.204724 
vn -0.133858 0.968504 -0.204724 
vn -0.173228 0.96063 -0.212598 
vn -0.76378 -0.598425 -0.244094 
vn -0.700787 -0.677165 -0.220472 
vn -0.76378 -0.598425 -0.244094 
vn -0.692913 -0.685039 -0.220472 
vn -0.700787 -0.677165 0.220472 
vn -0.76378 -0.598425 0.244094 
vn -0.76378 -0.598425 0.244094 
vn -0.692913 -0.685039 0.220472 
vn 0.76378 -0.598425 -0.244094 
vn 0.692913 -0.685039 -0.220472 
vn 0.700787 -0.677165 -0.220472 
vn 0.76378 -0.598425 -0.244094 
vn 0.700787 -0.677165 0.220472 
vn 0.76378 -0.598425 0.244094 
vn 0.76378 -0.598425 0.244094 
vn 0.692913 -0.685039 0.220472 
vn -0.984252 -0.165354 0.0944882 
vn -0.984252 -0.165354 0.0944882 
vn -0.984252 -0.165354 0.0944882 
vn -0.984252 -0.165354 0.0944882 
vn 0.984252 -0.165354 0.0944882 
vn 0.984252 -0.165354 0.0944882 
vn 0.984252 -0.165354 0.0944882 
vn 0.984252 -0.165354 0.0944882 
vn -1 0.00787402 0.0708661 
vn -1 0.00787402 0.0708661 
vn -0.96063 -0.023622 -0.259843 
vn -0.96063 -0.023622 -0.259843 
vn -0.96063 0.0393701 0.291339 
vn -0.96063 0.0393701 0.291339 
vn -0.984252 0.0393701 0.173228 
vn -0.984252 0.0393701 0.173228 
vn 1 0.00787402 0.0708661 
vn 1 0.00787402 0.0708661 
vn 0.96063 -0.023622 -0.259843 
vn 0.96063 -0.023622 -0.259843 
vn 0.96063 0.0393701 0.291339 
vn 0.96063 0.0393701 0.291339 
vn 0.984252 0.0393701 0.173228 
vn 0.984252 0.0393701 0.173228 
vn -0.700787 -0.677165 0.220472 
vn -0.76378 -0.598425 0.244094 
vn -0.76378 -0.598425 0.244094 
vn -0.692913 -0.685039 0.220472 
vn 0.692913 -0.685039 0.220472 
vn 0.76378 -0.598425 0.244094 
vn 0.700787 -0.677165 0.220472 
vn 0.76378 -0.598425 0.244094 
vn 0 0 1 
vn 0 0 1 
vn 0 0 1 
vn 0 0 1 
vn 0 -0.992126 0.0866142 
vn 0 -0.968504 0.244094 
vn 0 -0.968504 0.244094 
vn 0 -1 -0.023622 
vn 0 -0.992126 0.0866142 
vn 0 -0.80315 -0.590551 
vn 0 -0.80315 -0.590551 
vn 0 -0.133858 -0.992126 
vn 0 -0.133858 -0.992126 
vn 0 -0.433071 0.905512 
vn 0 -0.433071 0.905512 
vn 0 -0.433071 0.905512 
vn 0 -0.433071 0.905512 

vt 0.840007 0.426784 
vt 0.891273 0.426942 
vt 0.893925 0.451188 
vt 0.837206 0.451013 
vt 0.83531 0.476472 
vt 0.895664 0.476658 
vt 0.895553 0.512481 
vt 0.835199 0.512295 
vt 0.836943 0.536119 
vt 0.893663 0.536294 
vt 0.895436 0.560311 
vt 0.835022 0.560125 
vt 0.96135 0.935861 
vt 0.982302 0.94092 
vt 0.9523 0.947225 
vt 0.962466 0.966078 
vt 0.96135 0.935861 
vt 0.9523 0.947225 
vt 0.982302 0.94092 
vt 0.962466 0.966078 
vt 0.373204 0.407989 
vt 0.387276 0.36435 
vt 0.410596 0.434946 
vt 0.435567 0.364291 
vt 0.448538 0.408764 
vt 0.962466 0.966078 
vt 0.916558 0.939884 
vt 0.893098 0.991205 
vt 0.9523 0.947225 
vt 0.916558 0.939884 
vt 0.962466 0.966078 
vt 0.893098 0.991205 
vt 0.9523 0.947225 
vt 0.634268 0.537298 
vt 0.573929 0.467063 
vt 0.622779 0.463476 
vt 0.598676 0.370927 
vt 0.561006 0.534096 
vt 0.553943 0.594992 
vt 0.641531 0.596831 
vt 0.643656 0.649393 
vt 0.54806 0.649242 
vt 0.573929 0.467063 
vt 0.483701 0.514101 
vt 0.529021 0.451483 
vt 0.598676 0.370927 
vt 0.561006 0.534096 
vt 0.553943 0.594992 
vt 0.466308 0.572201 
vt 0.458256 0.629985 
vt 0.54806 0.649242 
vt 0.807586 0.954864 
vt 0.844824 0.954109 
vt 0.853994 0.988564 
vt 0.799159 0.990361 
vt 0.807586 0.954864 
vt 0.853994 0.988564 
vt 0.844824 0.954109 
vt 0.799159 0.990361 
vt 0.693976 0.828879 
vt 0.787456 0.7061 
vt 0.721643 0.700099 
vt 0.788862 0.825501 
vt 0.791659 0.899539 
vt 0.739079 0.924589 
vt 0.807586 0.954864 
vt 0.799159 0.990361 
vt 0.693976 0.828879 
vt 0.787456 0.7061 
vt 0.788862 0.825501 
vt 0.721643 0.700099 
vt 0.791659 0.899539 
vt 0.739079 0.924589 
vt 0.807586 0.954864 
vt 0.799159 0.990361 
vt 0.893925 0.451188 
vt 0.840007 0.426784 
vt 0.891273 0.426942 
vt 0.837206 0.451013 
vt 0.83531 0.476472 
vt 0.895664 0.476658 
vt 0.895553 0.512481 
vt 0.835199 0.512295 
vt 0.836943 0.536119 
vt 0.893663 0.536294 
vt 0.895436 0.560311 
vt 0.835022 0.560125 
vt 0.928759 0.446208 
vt 0.980136 0.47849 
vt 0.946176 0.500753 
vt 0.923436 0.486465 
vt 0.928759 0.446208 
vt 0.946176 0.500753 
vt 0.980136 0.47849 
vt 0.923436 0.486465 
vt 0.936754 0.58918 
vt 0.883697 0.609734 
vt 0.942953 0.607702 
vt 0.881568 0.601203 
vt 0.883697 0.609734 
vt 0.936754 0.58918 
vt 0.942953 0.607702 
vt 0.881568 0.601203 
vt 0.9423 0.684715 
vt 0.916355 0.641914 
vt 0.930959 0.629987 
vt 0.974323 0.663113 
vt 0.9423 0.684715 
vt 0.930959 0.629987 
vt 0.916355 0.641914 
vt 0.974323 0.663113 
vt 0.974323 0.663114 
vt 0.9423 0.684715 
vt 0.930959 0.629987 
vt 0.916355 0.641915 
vt 0.974323 0.663114 
vt 0.930959 0.629987 
vt 0.9423 0.684715 
vt 0.916355 0.641915 
vt 0.916355 0.641914 
vt 0.9423 0.684715 
vt 0.930959 0.629987 
vt 0.974323 0.663113 
vt 0.930959 0.629987 
vt 0.974323 0.663113 
vt 0.9423 0.684715 
vt 0.916355 0.641914 
vt 0.936754 0.58918 
vt 0.883697 0.609734 
vt 0.881568 0.601203 
vt 0.942953 0.607702 
vt 0.936754 0.58918 
vt 0.883697 0.609734 
vt 0.942953 0.607702 
vt 0.881568 0.601203 
vt 0.936754 0.58918 
vt 0.883697 0.609734 
vt 0.942953 0.607702 
vt 0.881568 0.601203 
vt 0.883697 0.609734 
vt 0.936754 0.58918 
vt 0.942953 0.607702 
vt 0.881568 0.601203 
vt 0.883697 0.609734 
vt 0.881666 0.623355 
vt 0.876794 0.614794 
vt 0.888936 0.618093 
vt 0.883697 0.609734 
vt 0.881666 0.623355 
vt 0.888936 0.618093 
vt 0.876794 0.614794 
vt 0.881666 0.623355 
vt 0.883697 0.609734 
vt 0.876794 0.614794 
vt 0.888936 0.618093 
vt 0.883697 0.609734 
vt 0.881666 0.623355 
vt 0.876794 0.614794 
vt 0.888936 0.618093 
vt 0.881666 0.623355 
vt 0.883697 0.609734 
vt 0.888936 0.618093 
vt 0.876794 0.614794 
vt 0.883697 0.609734 
vt 0.881666 0.623355 
vt 0.888936 0.618093 
vt 0.876794 0.614794 
vt 0.99193 0.421862 
vt 0.950689 0.410707 
vt 0.966025 0.382628 
vt 0.95159 0.42528 
vt 0.980136 0.47849 
vt 0.95159 0.42528 
vt 0.99193 0.421862 
vt 0.928759 0.446208 
vt 0.950689 0.410707 
vt 0.99193 0.421862 
vt 0.966025 0.382628 
vt 0.95159 0.42528 
vt 0.980136 0.47849 
vt 0.95159 0.42528 
vt 0.928759 0.446208 
vt 0.99193 0.421862 
vt 0.014233 0.677588 
vt 0.179778 0.673126 
vt 0.006941 0.829242 
vt 0.17801 0.988948 
vt 0.012408 0.986674 
vt 0.347865 0.831212 
vt 0.34442 0.979749 
vt 0.346049 0.680053 
vt 0.447729 0.181896 
vt 0.426598 0.348489 
vt 0.372091 0.182087 
vt 0.372466 0.350265 
vt 0.371888 0.013928 
vt 0.478041 0.346885 
vt 0.468478 0.015457 
vt 0.52005 0.18167 
vt 0.615122 0.347768 
vt 0.560682 0.016677 
vt 0.628188 0.181361 
vt 0.711427 0.348572 
vt 0.643331 0.014977 
vt 0.708643 0.181132 
vt 0.711288 0.013835 
vt 0.399182 0.672452 
vt 0.347865 0.831212 
vt 0.346049 0.680053 
vt 0.450833 0.822082 
vt 0.449993 0.670323 
vt 0.585023 0.677583 
vt 0.449837 0.967866 
vt 0.34442 0.979749 
vt 0.677959 0.835995 
vt 0.677831 0.696274 
vt 0.677702 0.975151 
vt 0.923436 0.486465 
vt 0.946176 0.500753 
vt 0.926285 0.522897 
vt 0.912116 0.513994 
vt 0.923436 0.486465 
vt 0.926285 0.522897 
vt 0.946176 0.500753 
vt 0.912116 0.513994 
vt 0.355903 0.171636 
vt 0.254673 0.012641 
vt 0.351848 0.017046 
vt 0.165985 0.169129 
vt 0.162319 0.013066 
vt 0.080291 0.022033 
vt 0.169237 0.320271 
vt 0.362213 0.330025 
vt 0.018462 0.183941 
vt 0.014968 0.042101 
vt 0.017859 0.323063 
vt 0.708643 0.181132 
vt 0.853067 0.018221 
vt 0.99084 0.180966 
vt 0.994219 0.012777 
vt 0.711288 0.013835 
vt 0.853156 0.343877 
vt 0.711427 0.348572 
vt 0.994074 0.349102 
vt 0.362213 0.330025 
vt 0.356964 0.496741 
vt 0.205935 0.491441 
vt 0.169237 0.320271 
vt 0.245218 0.659681 
vt 0.352497 0.665405 
vt 0.013892 0.658002 
vt 0.017666 0.48936 
vt 0.017859 0.323063 
vt 0.840007 0.426784 
vt 0.891273 0.426942 
vt 0.893925 0.451188 
vt 0.837206 0.451013 
vt 0.83531 0.476472 
vt 0.895664 0.476658 
vt 0.895553 0.512481 
vt 0.835199 0.512295 
vt 0.836943 0.536119 
vt 0.893663 0.536294 
vt 0.895436 0.560311 
vt 0.835022 0.560125 
vt 0.945352 0.529583 
vt 0.978539 0.562954 
vt 0.917135 0.575475 
vt 0.936754 0.58918 
vt 0.881568 0.601203 
vt 0.882317 0.591119 
vt 0.945352 0.529583 
vt 0.917135 0.575475 
vt 0.978539 0.562954 
vt 0.936754 0.58918 
vt 0.881568 0.601203 
vt 0.882317 0.591119 
vt 0.947127 0.900291 
vt 0.9523 0.947225 
vt 0.916558 0.939884 
vt 0.96135 0.935861 
vt 0.947127 0.900291 
vt 0.9523 0.947225 
vt 0.96135 0.935861 
vt 0.916558 0.939884 
vt 0.978539 0.562954 
vt 0.917135 0.575475 
vt 0.936754 0.58918 
vt 0.945352 0.529583 
vt 0.881568 0.601203 
vt 0.882317 0.591119 
vt 0.978539 0.562954 
vt 0.936754 0.58918 
vt 0.917135 0.575475 
vt 0.945352 0.529583 
vt 0.881568 0.601203 
vt 0.882317 0.591119 
vt 0.945352 0.529583 
vt 0.978539 0.562954 
vt 0.917135 0.575475 
vt 0.936754 0.58918 
vt 0.881568 0.601203 
vt 0.882317 0.591119 
vt 0.945352 0.529583 
vt 0.917135 0.575475 
vt 0.978539 0.562954 
vt 0.936754 0.58918 
vt 0.881568 0.601203 
vt 0.882317 0.591119 
vt 0.994318 0.617538 
vt 0.930959 0.629987 
vt 0.942953 0.607702 
vt 0.974323 0.663114 
vt 0.883697 0.609734 
vt 0.888936 0.618093 
vt 0.994318 0.617538 
vt 0.930959 0.629987 
vt 0.974323 0.663114 
vt 0.942953 0.607702 
vt 0.883697 0.609734 
vt 0.888936 0.618093 
vt 0.715725 0.930831 
vt 0.744662 0.973968 
vt 0.694361 0.941636 
vt 0.714231 0.990107 
vt 0.744662 0.973968 
vt 0.694361 0.941636 
vt 0.714231 0.990107 
vt 0.715725 0.930831 
vt 0.930959 0.629987 
vt 0.994434 0.617458 
vt 0.974323 0.663113 
vt 0.942953 0.607702 
vt 0.883697 0.609734 
vt 0.888936 0.618093 
vt 0.994434 0.617458 
vt 0.930959 0.629987 
vt 0.974323 0.663113 
vt 0.942953 0.607702 
vt 0.883697 0.609734 
vt 0.888936 0.618093 
vt 0.896065 0.356276 
vt 0.933877 0.410571 
vt 0.91562 0.428416 
vt 0.891273 0.426942 
vt 0.936682 0.374858 
vt 0.920108 0.357655 
vt 0.797505 0.410151 
vt 0.835651 0.356089 
vt 0.815652 0.428108 
vt 0.840007 0.426784 
vt 0.794921 0.374421 
vt 0.811601 0.35732 
vt 0.994434 0.617458 
vt 0.930959 0.629987 
vt 0.942953 0.607702 
vt 0.974323 0.663113 
vt 0.883697 0.609734 
vt 0.888936 0.618093 
vt 0.994434 0.617458 
vt 0.930959 0.629987 
vt 0.974323 0.663113 
vt 0.942953 0.607702 
vt 0.883697 0.609734 
vt 0.888936 0.618093 
vt 0.896065 0.356276 
vt 0.933877 0.410571 
vt 0.91562 0.428416 
vt 0.891273 0.426942 
vt 0.936682 0.374858 
vt 0.920108 0.357655 
vt 0.797505 0.410151 
vt 0.835651 0.356089 
vt 0.815652 0.428108 
vt 0.840007 0.426784 
vt 0.794921 0.374421 
vt 0.811601 0.35732 
vt 0.797505 0.410151 
vt 0.835651 0.356089 
vt 0.815652 0.428108 
vt 0.840007 0.426784 
vt 0.794921 0.374421 
vt 0.811601 0.35732 
vt 0.896065 0.356276 
vt 0.933877 0.410571 
vt 0.91562 0.428416 
vt 0.891273 0.426942 
vt 0.936682 0.374858 
vt 0.920108 0.357655 
vt 0.852671 0.605272 
vt 0.787456 0.7061 
vt 0.885612 0.669721 
vt 0.760581 0.650206 
vt 0.852671 0.605272 
vt 0.787456 0.7061 
vt 0.760581 0.650206 
vt 0.885612 0.669721 
vt 0.958217 0.776103 
vt 0.887013 0.7353 
vt 0.962107 0.745278 
vt 0.868191 0.762817 
vt 0.958217 0.776103 
vt 0.887013 0.7353 
vt 0.868191 0.762817 
vt 0.962107 0.745278 
vt 0.668143 0.450159 
vt 0.634268 0.537298 
vt 0.622779 0.463476 
vt 0.598676 0.370927 
vt 0.711032 0.516317 
vt 0.641531 0.596831 
vt 0.729737 0.572557 
vt 0.733971 0.626792 
vt 0.643656 0.649393 
vt 0.494592 0.425735 
vt 0.529021 0.451483 
vt 0.483701 0.514101 
vt 0.598676 0.370927 
vt 0.400669 0.466149 
vt 0.369315 0.534755 
vt 0.466308 0.572201 
vt 0.380827 0.609545 
vt 0.458256 0.629985 
vt 0.942953 0.607702 
vt 0.978539 0.562954 
vt 0.994434 0.617458 
vt 0.936754 0.58918 
vt 0.891273 0.426942 
vt 0.840007 0.426784 
vt 0.835651 0.356089 
vt 0.896065 0.356276 
vt 0.942953 0.607702 
vt 0.978539 0.562954 
vt 0.936754 0.58918 
vt 0.994434 0.617458 
vt 0.787456 0.7061 
vt 0.863921 0.82322 
vt 0.788862 0.825501 
vt 0.868191 0.762817 
vt 0.791659 0.899539 
vt 0.856987 0.902643 
vt 0.844824 0.954109 
vt 0.807586 0.954864 
vt 0.787456 0.7061 
vt 0.788862 0.825501 
vt 0.863921 0.82322 
vt 0.868191 0.762817 
vt 0.791659 0.899539 
vt 0.856987 0.902643 
vt 0.844824 0.954109 
vt 0.807586 0.954864 
vt 0.978539 0.562954 
vt 0.942953 0.607702 
vt 0.994434 0.617458 
vt 0.936754 0.58918 
vt 0.942953 0.607702 
vt 0.978539 0.562954 
vt 0.994318 0.617538 
vt 0.936754 0.58918 
vt 0.978539 0.562954 
vt 0.942953 0.607702 
vt 0.936754 0.58918 
vt 0.994434 0.617458 
vt 0.942953 0.607702 
vt 0.978539 0.562954 
vt 0.936754 0.58918 
vt 0.994318 0.617538 
vt 0.887013 0.7353 
vt 0.868191 0.762817 
vt 0.885612 0.669721 
vt 0.787456 0.7061 
vt 0.887013 0.7353 
vt 0.885612 0.669721 
vt 0.868191 0.762817 
vt 0.787456 0.7061 
vt 0.930959 0.629987 
vt 0.888936 0.618093 
vt 0.916355 0.641914 
vt 0.881666 0.623355 
vt 0.888936 0.618093 
vt 0.930959 0.629987 
vt 0.916355 0.641915 
vt 0.881666 0.623355 
vt 0.916355 0.641914 
vt 0.881666 0.623355 
vt 0.888936 0.618093 
vt 0.930959 0.629987 
vt 0.888936 0.618093 
vt 0.916355 0.641915 
vt 0.930959 0.629987 
vt 0.881666 0.623355 
vt 0.991972 0.866371 
vt 0.982302 0.94092 
vt 0.947127 0.900291 
vt 0.96135 0.935861 
vt 0.982302 0.94092 
vt 0.991972 0.866371 
vt 0.947127 0.900291 
vt 0.96135 0.935861 
vt 0.95172 0.84291 
vt 0.863921 0.82322 
vt 0.868191 0.762817 
vt 0.958217 0.776103 
vt 0.856987 0.902643 
vt 0.907693 0.925265 
vt 0.844824 0.954109 
vt 0.853994 0.988564 
vt 0.863921 0.82322 
vt 0.95172 0.84291 
vt 0.868191 0.762817 
vt 0.958217 0.776103 
vt 0.856987 0.902643 
vt 0.907693 0.925265 
vt 0.844824 0.954109 
vt 0.853994 0.988564 
vt 0.888936 0.618093 
vt 0.930959 0.629987 
vt 0.916355 0.641914 
vt 0.881666 0.623355 
vt 0.881666 0.623355 
vt 0.916355 0.641914 
vt 0.888936 0.618093 
vt 0.930959 0.629987 
vt 0.891273 0.426942 
vt 0.840007 0.426784 
vt 0.835651 0.356089 
vt 0.896065 0.356276 
vt 0.79739 0.469159 
vt 0.668143 0.450159 
vt 0.703314 0.425256 
vt 0.598676 0.370927 
vt 0.711032 0.516317 
vt 0.729737 0.572557 
vt 0.823448 0.539141 
vt 0.806225 0.608732 
vt 0.733971 0.626792 
vt 0.891273 0.426942 
vt 0.840007 0.426784 
vt 0.835651 0.356089 
vt 0.896065 0.356276 

usemtl Pet1Mtl

f 1/1/1 2/2/2 3/3/3 
f 1/1/1 3/3/3 4/4/4 
f 3/3/3 5/5/5 4/4/4 
f 5/5/5 3/3/3 6/6/6 
f 7/7/7 5/5/5 6/6/6 
f 7/7/7 8/8/8 5/5/5 
f 8/8/8 7/7/7 9/9/9 
f 10/10/10 9/9/9 7/7/7 
f 11/11/11 9/9/9 10/10/10 
f 11/11/11 12/12/12 9/9/9 
f 13/13/13 14/14/14 15/15/15 
f 15/15/15 14/14/14 16/16/16 
f 17/17/17 18/18/18 19/19/19 
f 18/18/18 20/20/20 19/19/19 
f 21/21/21 22/22/22 23/23/23 
f 22/22/22 24/24/24 23/23/23 
f 24/24/24 25/25/25 23/23/23 
f 26/26/26 27/27/27 28/28/28 
f 27/27/27 26/26/26 29/29/29 
f 30/30/30 31/31/31 32/32/32 
f 31/31/31 30/30/30 33/33/33 
f 34/34/34 35/35/35 36/36/36 
f 36/36/36 35/35/35 37/37/37 
f 34/34/34 38/38/38 35/35/35 
f 34/34/34 39/39/39 38/38/38 
f 39/39/39 34/34/34 40/40/40 
f 41/41/41 39/39/39 40/40/40 
f 39/39/39 41/41/41 42/42/42 
f 43/43/43 44/44/44 45/45/45 
f 43/43/43 45/45/45 46/46/46 
f 44/44/44 43/43/43 47/47/47 
f 44/44/44 47/47/47 48/48/48 
f 44/44/44 48/48/48 49/49/49 
f 48/48/48 50/50/50 49/49/49 
f 50/50/50 48/48/48 51/51/51 
f 52/52/52 53/53/53 54/54/54 
f 52/52/52 54/54/54 55/55/55 
f 56/56/56 57/57/57 58/58/58 
f 57/57/57 56/56/56 59/59/59 
f 60/60/60 61/61/61 62/62/62 
f 61/61/61 60/60/60 63/63/63 
f 60/60/60 64/64/64 63/63/63 
f 64/64/64 60/60/60 65/65/65 
f 65/65/65 66/66/66 64/64/64 
f 66/66/66 65/65/65 67/67/67 
f 68/68/68 69/69/69 70/70/70 
f 69/69/69 68/68/68 71/71/71 
f 68/68/68 70/70/70 72/72/72 
f 68/68/68 72/72/72 73/73/73 
f 73/73/73 72/72/72 74/74/74 
f 74/74/74 75/75/75 73/73/73 
f 76/76/76 77/77/77 78/78/78 
f 77/77/77 76/76/76 79/79/79 
f 79/79/79 76/76/76 80/80/80 
f 81/81/81 80/80/80 76/76/76 
f 82/82/82 80/80/80 81/81/81 
f 82/82/82 83/83/83 80/80/80 
f 83/83/83 82/82/82 84/84/84 
f 85/85/85 84/84/84 82/82/82 
f 86/86/86 84/84/84 85/85/85 
f 86/86/86 87/87/87 84/84/84 
f 88/88/88 89/89/89 90/90/90 
f 88/88/88 90/90/90 91/91/91 
f 92/92/92 93/93/93 94/94/94 
f 93/93/93 92/92/92 95/95/95 
f 96/96/96 97/97/97 98/98/98 
f 97/97/97 96/96/96 99/99/99 
f 100/100/100 101/101/101 102/102/102 
f 101/101/101 100/100/100 103/103/103 
f 104/104/104 105/105/105 106/106/106 
f 104/104/104 106/106/106 107/107/107 
f 108/108/108 109/109/109 110/110/110 
f 109/109/109 108/108/108 111/111/111 
f 112/112/112 113/113/113 114/114/114 
f 114/114/114 113/113/113 115/115/115 
f 116/116/116 117/117/117 118/118/118 
f 117/117/117 119/119/119 118/118/118 
f 120/120/120 121/121/121 122/122/122 
f 123/123/123 122/122/122 121/121/121 
f 124/124/124 125/125/125 126/126/126 
f 124/124/124 126/126/126 127/127/127 
f 128/128/128 129/129/129 130/130/130 
f 129/129/129 128/128/128 131/131/131 
f 132/132/132 133/133/133 134/134/134 
f 133/133/133 132/132/132 135/135/135 
f 136/136/136 137/137/137 138/138/138 
f 137/137/137 136/136/136 139/139/139 
f 140/140/140 141/141/141 142/142/142 
f 141/141/141 140/140/140 143/143/143 
f 144/144/144 145/145/145 146/146/146 
f 145/145/145 144/144/144 147/147/147 
f 148/148/148 149/149/149 150/150/150 
f 149/149/149 148/148/148 151/151/151 
f 152/152/152 153/153/153 154/154/154 
f 153/153/153 152/152/152 155/155/155 
f 156/156/156 157/157/157 158/158/158 
f 157/157/157 156/156/156 159/159/159 
f 160/160/160 161/161/161 162/162/162 
f 161/161/161 160/160/160 163/163/163 
f 164/164/164 165/165/165 166/166/166 
f 165/165/165 164/164/164 167/167/167 
f 168/168/168 169/169/169 170/170/170 
f 169/169/169 168/168/168 171/171/171 
f 172/172/172 173/173/173 174/174/174 
f 172/172/172 175/175/175 173/173/173 
f 176/176/176 177/177/177 178/178/178 
f 177/177/177 176/176/176 179/179/179 
f 180/180/180 181/181/181 182/182/182 
f 180/180/180 183/183/183 181/181/181 
f 184/184/184 185/185/185 186/186/186 
f 187/187/187 186/186/186 185/185/185 
f 186/186/186 187/187/187 188/188/188 
f 189/189/189 187/187/187 185/185/185 
f 187/187/187 189/189/189 190/190/190 
f 185/185/185 191/191/191 189/189/189 
f 192/192/192 193/193/193 194/194/194 
f 195/195/195 194/194/194 193/193/193 
f 194/194/194 196/196/196 192/192/192 
f 193/193/193 192/192/192 197/197/197 
f 198/198/198 192/192/192 196/196/196 
f 199/199/199 197/197/197 192/192/192 
f 192/192/192 198/198/198 199/199/199 
f 197/197/197 199/199/199 200/200/200 
f 201/201/201 199/199/199 198/198/198 
f 199/199/199 202/202/202 200/200/200 
f 199/199/199 201/201/201 202/202/202 
f 200/200/200 202/202/202 203/203/203 
f 204/204/204 202/202/202 201/201/201 
f 205/205/205 203/203/203 202/202/202 
f 202/202/202 204/204/204 205/205/205 
f 206/206/206 205/205/205 204/204/204 
f 207/207/207 208/208/208 209/209/209 
f 208/208/208 207/207/207 210/210/210 
f 207/207/207 211/211/211 210/210/210 
f 212/212/212 210/210/210 211/211/211 
f 213/213/213 208/208/208 210/210/210 
f 208/208/208 213/213/213 214/214/214 
f 210/210/210 212/212/212 215/215/215 
f 210/210/210 215/215/215 213/213/213 
f 212/212/212 216/216/216 215/215/215 
f 213/213/213 215/215/215 217/217/217 
f 218/218/218 219/219/219 220/220/220 
f 218/218/218 220/220/220 221/221/221 
f 222/222/222 223/223/223 224/224/224 
f 223/223/223 222/222/222 225/225/225 
f 226/226/226 227/227/227 228/228/228 
f 227/227/227 226/226/226 229/229/229 
f 227/227/227 229/229/229 230/230/230 
f 231/231/231 230/230/230 229/229/229 
f 226/226/226 232/232/232 229/229/229 
f 226/226/226 233/233/233 232/232/232 
f 231/231/231 229/229/229 234/234/234 
f 232/232/232 234/234/234 229/229/229 
f 231/231/231 234/234/234 235/235/235 
f 234/234/234 232/232/232 236/236/236 
f 237/237/237 238/238/238 239/239/239 
f 238/238/238 240/240/240 239/239/239 
f 238/238/238 237/237/237 241/241/241 
f 242/242/242 237/237/237 239/239/239 
f 237/237/237 242/242/242 243/243/243 
f 242/242/242 239/239/239 244/244/244 
f 245/245/245 246/246/246 247/247/247 
f 245/245/245 247/247/247 248/248/248 
f 246/246/246 249/249/249 247/247/247 
f 246/246/246 250/250/250 249/249/249 
f 249/249/249 251/251/251 247/247/247 
f 247/247/247 251/251/251 252/252/252 
f 247/247/247 252/252/252 248/248/248 
f 248/248/248 252/252/252 253/253/253 
f 254/254/254 255/255/255 256/256/256 
f 254/254/254 256/256/256 257/257/257 
f 257/257/257 256/256/256 258/258/258 
f 259/259/259 258/258/258 256/256/256 
f 260/260/260 258/258/258 259/259/259 
f 260/260/260 261/261/261 258/258/258 
f 261/261/261 260/260/260 262/262/262 
f 263/263/263 262/262/262 260/260/260 
f 264/264/264 262/262/262 263/263/263 
f 264/264/264 265/265/265 262/262/262 
f 266/266/266 267/267/267 268/268/268 
f 268/268/268 267/267/267 269/269/269 
f 270/270/270 268/268/268 269/269/269 
f 268/268/268 270/270/270 271/271/271 
f 272/272/272 273/273/273 274/274/274 
f 273/273/273 275/275/275 274/274/274 
f 273/273/273 276/276/276 275/275/275 
f 276/276/276 273/273/273 277/277/277 
f 278/278/278 279/279/279 280/280/280 
f 279/279/279 278/278/278 281/281/281 
f 282/282/282 283/283/283 284/284/284 
f 283/283/283 282/282/282 285/285/285 
f 286/286/286 287/287/287 288/288/288 
f 287/287/287 286/286/286 289/289/289 
f 287/287/287 290/290/290 288/288/288 
f 290/290/290 287/287/287 291/291/291 
f 292/292/292 293/293/293 294/294/294 
f 292/292/292 294/294/294 295/295/295 
f 296/296/296 294/294/294 293/293/293 
f 294/294/294 296/296/296 297/297/297 
f 298/298/298 299/299/299 300/300/300 
f 300/300/300 299/299/299 301/301/301 
f 302/302/302 300/300/300 301/301/301 
f 300/300/300 302/302/302 303/303/303 
f 304/304/304 305/305/305 306/306/306 
f 305/305/305 307/307/307 306/306/306 
f 305/305/305 308/308/308 307/307/307 
f 308/308/308 305/305/305 309/309/309 
f 310/310/310 311/311/311 312/312/312 
f 311/311/311 310/310/310 313/313/313 
f 311/311/311 314/314/314 312/312/312 
f 314/314/314 311/311/311 315/315/315 
f 316/316/316 317/317/317 318/318/318 
f 317/317/317 316/316/316 319/319/319 
f 319/319/319 320/320/320 317/317/317 
f 317/317/317 320/320/320 321/321/321 
f 322/322/322 323/323/323 324/324/324 
f 323/323/323 325/325/325 324/324/324 
f 326/326/326 327/327/327 328/328/328 
f 327/327/327 326/326/326 329/329/329 
f 330/330/330 331/331/331 332/332/332 
f 331/331/331 330/330/330 333/333/333 
f 334/334/334 333/333/333 330/330/330 
f 334/334/334 330/330/330 335/335/335 
f 336/336/336 337/337/337 338/338/338 
f 337/337/337 336/336/336 339/339/339 
f 339/339/339 340/340/340 337/337/337 
f 337/337/337 340/340/340 341/341/341 
f 342/342/342 343/343/343 344/344/344 
f 342/342/342 344/344/344 345/345/345 
f 343/343/343 342/342/342 346/346/346 
f 346/346/346 342/342/342 347/347/347 
f 348/348/348 349/349/349 350/350/350 
f 350/350/350 349/349/349 351/351/351 
f 349/349/349 348/348/348 352/352/352 
f 349/349/349 352/352/352 353/353/353 
f 354/354/354 355/355/355 356/356/356 
f 355/355/355 354/354/354 357/357/357 
f 358/358/358 356/356/356 355/355/355 
f 355/355/355 359/359/359 358/358/358 
f 360/360/360 361/361/361 362/362/362 
f 361/361/361 360/360/360 363/363/363 
f 363/363/363 364/364/364 361/361/361 
f 361/361/361 364/364/364 365/365/365 
f 366/366/366 367/367/367 368/368/368 
f 366/366/366 368/368/368 369/369/369 
f 366/366/366 370/370/370 367/367/367 
f 370/370/370 366/366/366 371/371/371 
f 372/372/372 373/373/373 374/374/374 
f 374/374/374 373/373/373 375/375/375 
f 376/376/376 373/373/373 372/372/372 
f 373/373/373 376/376/376 377/377/377 
f 378/378/378 379/379/379 380/380/380 
f 380/380/380 379/379/379 381/381/381 
f 379/379/379 378/378/378 382/382/382 
f 379/379/379 382/382/382 383/383/383 
f 384/384/384 385/385/385 386/386/386 
f 384/384/384 386/386/386 387/387/387 
f 385/385/385 384/384/384 388/388/388 
f 388/388/388 384/384/384 389/389/389 
f 390/390/390 391/391/391 392/392/392 
f 391/391/391 390/390/390 393/393/393 
f 394/394/394 395/395/395 396/396/396 
f 395/395/395 394/394/394 397/397/397 
f 398/398/398 399/399/399 400/400/400 
f 399/399/399 398/398/398 401/401/401 
f 402/402/402 403/403/403 404/404/404 
f 403/403/403 402/402/402 405/405/405 
f 406/406/406 407/407/407 408/408/408 
f 406/406/406 408/408/408 409/409/409 
f 407/407/407 406/406/406 410/410/410 
f 410/410/410 411/411/411 407/407/407 
f 411/411/411 410/410/410 412/412/412 
f 413/413/413 411/411/411 412/412/412 
f 411/411/411 413/413/413 414/414/414 
f 415/415/415 416/416/416 417/417/417 
f 416/416/416 415/415/415 418/418/418 
f 415/415/415 417/417/417 419/419/419 
f 417/417/417 420/420/420 419/419/419 
f 420/420/420 417/417/417 421/421/421 
f 421/421/421 422/422/422 420/420/420 
f 422/422/422 421/421/421 423/423/423 
f 424/424/424 425/425/425 426/426/426 
f 425/425/425 424/424/424 427/427/427 
f 428/428/428 429/429/429 430/430/430 
f 428/428/428 430/430/430 431/431/431 
f 432/432/432 433/433/433 434/434/434 
f 433/433/433 432/432/432 435/435/435 
f 436/436/436 437/437/437 438/438/438 
f 436/436/436 439/439/439 437/437/437 
f 437/437/437 440/440/440 438/438/438 
f 440/440/440 437/437/437 441/441/441 
f 440/440/440 441/441/441 442/442/442 
f 440/440/440 442/442/442 443/443/443 
f 444/444/444 445/445/445 446/446/446 
f 444/444/444 446/446/446 447/447/447 
f 448/448/448 446/446/446 445/445/445 
f 446/446/446 448/448/448 449/449/449 
f 448/448/448 450/450/450 449/449/449 
f 450/450/450 448/448/448 451/451/451 
f 452/452/452 453/453/453 454/454/454 
f 453/453/453 452/452/452 455/455/455 
f 456/456/456 457/457/457 458/458/458 
f 457/457/457 456/456/456 459/459/459 
f 460/460/460 461/461/461 462/462/462 
f 461/461/461 460/460/460 463/463/463 
f 464/464/464 465/465/465 466/466/466 
f 465/465/465 464/464/464 467/467/467 
f 468/468/468 469/469/469 470/470/470 
f 470/470/470 469/469/469 471/471/471 
f 472/472/472 473/473/473 474/474/474 
f 473/473/473 475/475/475 474/474/474 
f 476/476/476 477/477/477 478/478/478 
f 479/479/479 478/478/478 477/477/477 
f 480/480/480 481/481/481 482/482/482 
f 480/480/480 482/482/482 483/483/483 
f 484/484/484 485/485/485 486/486/486 
f 484/484/484 486/486/486 487/487/487 
f 488/488/488 489/489/489 490/490/490 
f 489/489/489 488/488/488 491/491/491 
f 492/492/492 493/493/493 494/494/494 
f 494/494/494 493/493/493 495/495/495 
f 496/496/496 497/497/497 498/498/498 
f 498/498/498 499/499/499 496/496/496 
f 500/500/500 501/501/501 502/502/502 
f 500/500/500 502/502/502 503/503/503 
f 500/500/500 504/504/504 501/501/501 
f 504/504/504 500/500/500 505/505/505 
f 505/505/505 506/506/506 504/504/504 
f 506/506/506 505/505/505 507/507/507 
f 508/508/508 509/509/509 510/510/510 
f 510/510/510 509/509/509 511/511/511 
f 512/512/512 509/509/509 508/508/508 
f 509/509/509 512/512/512 513/513/513 
f 514/514/514 513/513/513 512/512/512 
f 513/513/513 514/514/514 515/515/515 
f 516/516/516 517/517/517 518/518/518 
f 516/516/516 518/518/518 519/519/519 
f 520/520/520 521/521/521 522/522/522 
f 521/521/521 523/523/523 522/522/522 
f 524/524/524 525/525/525 526/526/526 
f 524/524/524 526/526/526 527/527/527 
f 528/528/528 529/529/529 530/530/530 
f 530/530/530 529/529/529 531/531/531 
f 529/529/529 528/528/528 532/532/532 
f 528/528/528 533/533/533 532/532/532 
f 533/533/533 528/528/528 534/534/534 
f 533/533/533 534/534/534 535/535/535 
f 533/533/533 535/535/535 536/536/536 
f 537/537/537 538/538/538 539/539/539 
f 537/537/537 539/539/539 540/540/540 

