# This file is brought to you by Roblox Corporation
# Generated by Roblox Studio

mtllib goldendevil.mtl

g Golden1

v 0.474878 -1.38468 0.997526 
v 0.14347 -1.38468 0.622055 
v 0.47604 -1.38468 0.622055 
v 0.142309 -1.38468 0.997525 
v -0.474878 -1.38468 0.997525 
v -0.143471 -1.38468 0.622055 
v -0.142309 -1.38468 0.997525 
v -0.47604 -1.38468 0.622055 
v -0.143471 -1.38468 0.418465 
v -0.474878 -1.38468 0.0429943 
v -0.142309 -1.38468 0.0429944 
v -0.47604 -1.38468 0.418465 
v 0.14347 -1.38468 0.418465 
v 0.474878 -1.38468 0.0429944 
v 0.47604 -1.38468 0.418465 
v 0.142309 -1.38468 0.0429944 
v 0.218945 1.36828 0.465246 
v 0.261665 1.36828 0.465286 
v 0.239778 1.38468 0.416841 
v 0.299303 1.22029 0.572397 
v 0.178736 1.22029 0.572316 
v 0.390501 0.735299 1.26278 
v 0.0790059 0.735299 1.26365 
v 0.671622 0.735299 1.26278 
v 0.493671 1.03003 0.757716 
v 0.570879 1.03003 0.757717 
v 0.519683 1.12801 0.648937 
v 0.545145 1.12801 0.648937 
v 0.532587 1.1351 0.615823 
v -0.218945 1.36828 0.465246 
v -0.239778 1.38468 0.416841 
v -0.261665 1.36828 0.465286 
v -0.299303 1.22029 0.572397 
v -0.178737 1.22029 0.572316 
v -0.390501 0.735299 1.26278 
v -0.0790062 0.735299 1.26365 
v -0.493671 1.03003 0.757716 
v -0.671623 0.735299 1.26278 
v -0.57088 1.03003 0.757716 
v -0.519684 1.12801 0.648937 
v -0.545146 1.12801 0.648937 
v -0.532587 1.1351 0.615823 
v -0.774909 0.435747 1.3511 
v 0.786799 -1.08493 1.3511 
v 0.786412 0.435746 1.3511 
v -0.775781 -1.08493 1.3511 
v -0.824203 0.412053 1.3511 
v -0.851752 -1.00892 1.3511 
v -0.825082 -1.06124 1.3511 
v -0.850935 0.359765 1.3511 
v 0.86243 0.359747 1.3511 
v 0.836093 -1.06124 1.3511 
v 0.862788 -1.00892 1.3511 
v 0.835708 0.412053 1.3511 
v -0.824203 0.412053 1.3511 
v -0.775781 -1.08493 1.3511 
v -0.774909 0.435747 1.3511 
v -0.825082 -1.06124 1.3511 
v 0.786412 0.435746 1.3511 
v 0.786799 -1.08493 1.3511 
v 0.835708 0.412053 1.3511 
v 0.836093 -1.06124 1.3511 
v 0.417884 1.07158 -1.32805 
v 0.35544 1.07139 -1.3511 
v 0.383129 1.11906 -1.33032 
v 0.500398 0.569147 -1.16382 
v 0.18818 0.568204 -1.27904 
v -0.417884 1.07158 -1.32805 
v -0.383129 1.11906 -1.33032 
v -0.35544 1.07139 -1.3511 
v -0.500398 0.569147 -1.16382 
v -0.188179 0.568204 -1.27904 
v 0.390501 0.735299 1.26278 
v 0.0790059 0.735299 1.26365 
v 0.00412761 0.430113 1.26278 
v 0.772992 0.430113 1.26278 
v 0.671622 0.735299 1.26278 
v -0.390501 0.735299 1.26278 
v -0.00412792 0.430113 1.26278 
v -0.0790062 0.735299 1.26365 
v -0.772992 0.430113 1.26278 
v -0.671623 0.735299 1.26278 
v 0.786799 -1.08493 1.3511 
v -0.775781 -1.08493 1.3511 
v 0.786804 -1.08493 -0.33566 
v -0.775795 -1.08493 -0.33566 
v -1.28576 0.475503 0.0400453 
v -1.13286 0.231615 0.207897 
v -1.22525 0.736487 0.105728 
v -1.43476 0.316101 -0.122715 
v -1.51553 0.392305 -0.211279 
v -1.51264 0.626505 -0.2086 
v -1.47101 0.0781933 -0.161897 
v -1.66797 0.652298 -0.378662 
v -1.72113 0.873685 -0.437306 
v -1.83251 0.827476 -0.559117 
v -1.74187 0.997619 -0.459634 
v -1.3745 -0.0995057 -0.0558985 
v -1.53987 -0.144527 -0.236806 
v -1.64478 0.0549688 -0.352044 
v -1.76142 -0.0698567 -0.479451 
v -1.85144 0.0674608 -0.578264 
v -1.83424 0.164189 -0.55964 
v -1.94781 0.163113 -0.68394 
v -1.30943 -0.172344 0.0154768 
v -0.995673 -0.0818327 0.358705 
v -1.03759 -0.376031 0.31343 
v -0.906903 -0.176341 0.456063 
v -1.15134 -0.412549 0.18901 
v -0.904398 -0.449725 0.459371 
v -0.818083 -0.196829 0.553375 
v -0.817727 -0.574829 0.554253 
v -1.30802 -0.343698 0.0173781 
v -1.28398 -0.560441 0.0441395 
v -1.38637 -0.466325 -0.0681287 
v -1.46647 -0.609934 -0.155507 
v -1.57498 -0.512383 -0.274475 
v -1.57513 -0.587667 -0.27448 
v -1.67442 -0.586283 -0.383154 
v -1.83521 0.527152 -0.561452 
v -1.83251 0.827476 -0.559117 
v -2.1202 0.541118 -0.873413 
v -1.66797 0.652298 -0.378662 
v -1.51553 0.392305 -0.211279 
v -1.81034 0.262273 -0.533687 
v -1.53987 -0.144527 -0.236806 
v -1.58088 -0.414591 -0.281133 
v -1.3745 -0.0995057 -0.0558985 
v -1.66995 -0.347014 -0.378764 
v -1.76142 -0.0698567 -0.479451 
v -1.99881 -0.599636 -0.738182 
v -1.85144 0.0674608 -0.578264 
v -1.15134 -0.412549 0.18901 
v -1.28398 -0.560441 0.0441395 
v -1.2193 -0.692931 0.115209 
v -1.32283 -0.704576 0.00190702 
v -1.46647 -0.609934 -0.155507 
v -1.4667 -1.12343 -0.154692 
v -1.57513 -0.587667 -0.27448 
v 1.28576 0.475503 0.0400455 
v 1.22525 0.736487 0.105728 
v 1.13286 0.231615 0.207897 
v 1.43476 0.316101 -0.122715 
v 1.51553 0.392305 -0.211279 
v 1.51264 0.626505 -0.2086 
v 1.47101 0.0781933 -0.161896 
v 1.66797 0.652298 -0.378661 
v 1.72113 0.873685 -0.437306 
v 1.74187 0.997619 -0.459634 
v 1.83251 0.827476 -0.559117 
v 1.3745 -0.0995057 -0.0558982 
v 1.53987 -0.144527 -0.236806 
v 1.64478 0.0549688 -0.352044 
v 1.76142 -0.0698567 -0.479451 
v 1.85144 0.0674608 -0.578263 
v 1.83424 0.164189 -0.559639 
v 1.94781 0.163113 -0.68394 
v 1.30943 -0.172344 0.015477 
v 0.995673 -0.0818327 0.358705 
v 1.03759 -0.376031 0.31343 
v 0.906903 -0.176341 0.456063 
v 1.15134 -0.412549 0.189011 
v 0.904398 -0.449725 0.459371 
v 0.818083 -0.196829 0.553375 
v 0.817727 -0.574829 0.554253 
v 1.30802 -0.343698 0.0173783 
v 1.28398 -0.560441 0.0441398 
v 1.38637 -0.466325 -0.0681285 
v 1.46647 -0.609934 -0.155507 
v 1.57498 -0.512383 -0.274475 
v 1.57513 -0.587667 -0.27448 
v 1.67442 -0.586283 -0.383154 
v 1.83521 0.527152 -0.561451 
v 2.1202 0.541118 -0.873413 
v 1.83251 0.827476 -0.559117 
v 1.66797 0.652298 -0.378661 
v 1.51553 0.392305 -0.211279 
v 1.81034 0.262273 -0.533686 
v 1.53987 -0.144527 -0.236806 
v 1.3745 -0.0995057 -0.0558982 
v 1.58088 -0.414591 -0.281133 
v 1.66995 -0.347014 -0.378763 
v 1.76142 -0.0698567 -0.479451 
v 1.99881 -0.599636 -0.738181 
v 1.85144 0.0674608 -0.578263 
v 1.15134 -0.412549 0.189011 
v 1.2193 -0.692931 0.115209 
v 1.28398 -0.560441 0.0441398 
v 1.32283 -0.704576 0.00190726 
v 1.46647 -0.609934 -0.155507 
v 1.4667 -1.12343 -0.154692 
v 1.57513 -0.587667 -0.27448 
v 0.505583 -1.36637 0.997526 
v 0.111593 -1.36637 0.997525 
v 0.142309 -1.38468 0.997525 
v 0.474878 -1.38468 0.997526 
v 0.520424 -1.33513 0.997526 
v 0.0966644 -1.33513 0.997525 
v 0.520737 -1.07132 0.997525 
v 0.0963494 -1.07132 0.997525 
v -0.111593 -1.36637 0.997525 
v -0.505583 -1.36637 0.997525 
v -0.142309 -1.38468 0.997525 
v -0.474878 -1.38468 0.997525 
v -0.520424 -1.33513 0.997525 
v -0.0966646 -1.33513 0.997525 
v -0.520737 -1.07132 0.997525 
v -0.0963496 -1.07132 0.997525 
v -0.671623 0.735299 1.26278 
v -0.772992 0.430113 0.862959 
v -0.772992 0.430113 1.26278 
v -0.671623 0.735298 0.86296 
v -0.57088 1.03003 0.757716 
v -0.592695 0.955516 0.661806 
v -0.552335 1.09741 0.607769 
v -0.545146 1.12801 0.648937 
v -0.532587 1.1351 0.615823 
v 0.671622 0.735299 1.26278 
v 0.772991 0.430113 0.862959 
v 0.671622 0.735298 0.86296 
v 0.772992 0.430113 1.26278 
v 0.570879 1.03003 0.757717 
v 0.592695 0.955516 0.661806 
v 0.552335 1.09741 0.607769 
v 0.545145 1.12801 0.648937 
v 0.532587 1.1351 0.615823 
v -0.506756 -1.36637 0.622055 
v -0.505583 -1.36637 0.997525 
v -0.520424 -1.33513 0.997525 
v -0.47604 -1.38468 0.622055 
v -0.474878 -1.38468 0.997525 
v -0.521684 -1.33513 0.622055 
v -0.520737 -1.07132 0.997525 
v -0.522 -1.07132 0.622056 
v 0.505583 -1.36637 0.997526 
v 0.506755 -1.36637 0.622055 
v 0.520424 -1.33513 0.997526 
v 0.47604 -1.38468 0.622055 
v 0.474878 -1.38468 0.997526 
v 0.521684 -1.33513 0.622055 
v 0.520737 -1.07132 0.997525 
v 0.522 -1.07132 0.622056 
v -0.521684 -1.33513 0.418465 
v -0.520424 -1.33513 0.0429943 
v -0.506756 -1.36637 0.418465 
v -0.520737 -1.07132 0.0429951 
v -0.522 -1.07132 0.418464 
v -0.505583 -1.36637 0.0429943 
v -0.47604 -1.38468 0.418465 
v -0.474878 -1.38468 0.0429943 
v 0.506755 -1.36637 0.418465 
v 0.520424 -1.33513 0.0429944 
v 0.521684 -1.33513 0.418465 
v 0.520737 -1.07132 0.0429952 
v 0.522 -1.07132 0.418464 
v 0.505583 -1.36637 0.0429944 
v 0.47604 -1.38468 0.418465 
v 0.474878 -1.38468 0.0429944 
v 0.383129 1.11906 -1.33032 
v 0.35544 1.07139 -1.3511 
v 0.33724 1.10204 -1.30204 
v 0.0971783 0.721456 -1.03374 
v 0.18818 0.568204 -1.27904 
v -0.383129 1.11906 -1.33032 
v -0.33724 1.10204 -1.30204 
v -0.35544 1.07139 -1.3511 
v -0.0971782 0.721456 -1.03374 
v -0.188179 0.568204 -1.27904 
v 6.66203e-08 0.0620278 -0.762047 
v 0.233279 0.497903 -1.18663 
v 0.357522 0.0624051 -0.730655 
v 0.405712 0.499025 -1.12242 
v 6.66203e-08 0.0620278 -0.762047 
v -0.357522 0.0624051 -0.730655 
v -0.233279 0.497903 -1.18663 
v -0.405712 0.499025 -1.12242 
v 0.261665 1.36828 0.465286 
v 0.269638 1.33658 0.39607 
v 0.239778 1.38468 0.416841 
v 0.299303 1.22029 0.572397 
v 0.313563 1.1569 0.433965 
v 0.392806 0.735298 0.86296 
v 0.390501 0.735299 1.26278 
v -0.261665 1.36828 0.465286 
v -0.239778 1.38468 0.416841 
v -0.269638 1.33658 0.39607 
v -0.299303 1.22029 0.572397 
v -0.313563 1.1569 0.433965 
v -0.392806 0.735298 0.86296 
v -0.390501 0.735299 1.26278 
v 0.233279 0.497903 -1.18663 
v 0.500398 0.569147 -1.16382 
v 0.405712 0.499025 -1.12242 
v 0.18818 0.568204 -1.27904 
v -0.500398 0.569147 -1.16382 
v -0.233279 0.497903 -1.18663 
v -0.405712 0.499025 -1.12242 
v -0.188179 0.568204 -1.27904 
v -0.825082 -1.06124 -0.33566 
v -0.851805 0.359742 -0.33566 
v -0.82509 0.412052 -0.33566 
v -0.851798 -1.00893 -0.33566 
v 0.836093 -1.06124 -0.33566 
v 0.786792 0.435746 -0.33566 
v 0.836085 0.412052 -0.33566 
v 0.786804 -1.08493 -0.33566 
v -0.775795 -1.08493 -0.33566 
v 0.786792 0.435746 -0.33566 
v 0.786804 -1.08493 -0.33566 
v -0.775801 0.435746 -0.33566 
v 0.836093 -1.06124 -0.33566 
v 0.862801 0.359737 -0.33566 
v 0.862808 -1.00893 -0.33566 
v 0.836085 0.412052 -0.33566 
v -0.825082 -1.06124 -0.33566 
v -0.775801 0.435746 -0.33566 
v -0.775795 -1.08493 -0.33566 
v -0.82509 0.412052 -0.33566 
v 0.233279 0.497903 -1.18663 
v 6.66203e-08 0.0620278 -0.762047 
v 6.02919e-08 0.44044 -0.689659 
v 0.157061 0.629793 -0.979755 
v -0.233279 0.497903 -1.18663 
v 6.02919e-08 0.44044 -0.689659 
v 6.66203e-08 0.0620278 -0.762047 
v -0.15706 0.629793 -0.979755 
v -0.399684 1.10223 -1.27899 
v -0.383129 1.11906 -1.33032 
v -0.417884 1.07158 -1.32805 
v -0.409399 0.722398 -0.918521 
v -0.500398 0.569147 -1.16382 
v 0.399684 1.10223 -1.27899 
v 0.417884 1.07158 -1.32805 
v 0.383129 1.11906 -1.33032 
v 0.409399 0.722398 -0.91852 
v 0.500398 0.569147 -1.16382 
v -0.0979245 -1.33513 0.418465 
v -0.521684 -1.33513 0.418465 
v -0.506756 -1.36637 0.418465 
v -0.0976118 -1.07132 0.418464 
v -0.522 -1.07132 0.418464 
v -0.112766 -1.36637 0.418465 
v -0.47604 -1.38468 0.418465 
v -0.143471 -1.38468 0.418465 
v 0.506755 -1.36637 0.418465 
v 0.0979245 -1.33513 0.418465 
v 0.112765 -1.36637 0.418465 
v 0.47604 -1.38468 0.418465 
v 0.14347 -1.38468 0.418465 
v 0.521684 -1.33513 0.418465 
v 0.0976117 -1.07132 0.418464 
v 0.522 -1.07132 0.418464 
v 6.02919e-08 0.44044 -0.689659 
v 0.314396 0.430798 -0.667641 
v 0.157061 0.629793 -0.979755 
v 0.329495 0.630912 -0.915549 
v 0.202368 0.371359 -0.320495 
v 2.80185e-08 0.371359 -0.320495 
v 6.02919e-08 0.44044 -0.689659 
v -0.15706 0.629793 -0.979755 
v -0.314396 0.430798 -0.667641 
v -0.329494 0.630912 -0.915549 
v -0.202368 0.371359 -0.320495 
v 2.80185e-08 0.371359 -0.320495 
v -0.405712 0.499025 -1.12242 
v -0.357522 0.0624051 -0.730655 
v -0.314396 0.430798 -0.667641 
v -0.329494 0.630912 -0.915549 
v -0.202368 0.371359 -0.320495 
v -0.214755 0.0422924 -0.320875 
v 0.329495 0.630912 -0.915549 
v 0.314396 0.430798 -0.667641 
v 0.405712 0.499025 -1.12242 
v 0.357522 0.0624051 -0.730655 
v 0.202368 0.371359 -0.320495 
v 0.214755 0.0422924 -0.320875 
v 0.210972 1.33658 0.39607 
v 0.218945 1.36828 0.465246 
v 0.239778 1.38468 0.416841 
v 0.178736 1.22029 0.572316 
v 0.165014 1.1569 0.433965 
v 0.0790057 0.735298 0.862958 
v 0.0790059 0.735299 1.26365 
v 0.00412761 0.430113 1.26278 
v 0.00413017 0.430113 0.862959 
v -0.210972 1.33658 0.39607 
v -0.239778 1.38468 0.416841 
v -0.218945 1.36828 0.465246 
v -0.178737 1.22029 0.572316 
v -0.165014 1.1569 0.433965 
v -0.0790059 0.735298 0.862958 
v -0.0790062 0.735299 1.26365 
v -0.00412792 0.430113 1.26278 
v -0.00413041 0.430113 0.862959 
v -0.505583 -1.36637 0.0429943 
v -0.111593 -1.36637 0.0429944 
v -0.142309 -1.38468 0.0429944 
v -0.474878 -1.38468 0.0429943 
v -0.520424 -1.33513 0.0429943 
v -0.0966645 -1.33513 0.0429944 
v -0.520737 -1.07132 0.0429951 
v -0.0963495 -1.07132 0.0429951 
v 0.112765 -1.36637 0.418465 
v 0.142309 -1.38468 0.0429944 
v 0.14347 -1.38468 0.418465 
v 0.111593 -1.36637 0.0429944 
v 0.0979245 -1.33513 0.418465 
v 0.0966645 -1.33513 0.0429944 
v 0.0963495 -1.07132 0.0429951 
v 0.0976117 -1.07132 0.418464 
v 0.111593 -1.36637 0.0429944 
v 0.505583 -1.36637 0.0429944 
v 0.142309 -1.38468 0.0429944 
v 0.474878 -1.38468 0.0429944 
v 0.520424 -1.33513 0.0429944 
v 0.0966645 -1.33513 0.0429944 
v 0.520737 -1.07132 0.0429952 
v 0.0963495 -1.07132 0.0429951 
v -0.143471 -1.38468 0.418465 
v -0.142309 -1.38468 0.0429944 
v -0.112766 -1.36637 0.418465 
v -0.111593 -1.36637 0.0429944 
v -0.0979245 -1.33513 0.418465 
v -0.0966645 -1.33513 0.0429944 
v -0.0963495 -1.07132 0.0429951 
v -0.0976118 -1.07132 0.418464 
v 0.111593 -1.36637 0.997525 
v 0.112765 -1.36637 0.622055 
v 0.142309 -1.38468 0.997525 
v 0.14347 -1.38468 0.622055 
v 0.0979244 -1.33513 0.622055 
v 0.0966644 -1.33513 0.997525 
v 0.0963494 -1.07132 0.997525 
v 0.0976117 -1.07132 0.622056 
v -0.112766 -1.36637 0.622055 
v -0.111593 -1.36637 0.997525 
v -0.142309 -1.38468 0.997525 
v -0.143471 -1.38468 0.622055 
v -0.0979246 -1.33513 0.622055 
v -0.0966646 -1.33513 0.997525 
v -0.0963496 -1.07132 0.997525 
v -0.0976118 -1.07132 0.622056 
v -0.825082 -1.06124 1.3511 
v -0.775795 -1.08493 -0.33566 
v -0.775781 -1.08493 1.3511 
v -0.825082 -1.06124 -0.33566 
v -0.851798 -1.00893 -0.33566 
v -0.851752 -1.00892 1.3511 
v -0.851805 0.359742 -0.33566 
v -0.850935 0.359765 1.3511 
v -0.82509 0.412052 -0.33566 
v -0.824203 0.412053 1.3511 
v -0.775801 0.435746 -0.33566 
v -0.774909 0.435747 1.3511 
v 0.786792 0.435746 -0.33566 
v 0.786412 0.435746 1.3511 
v 0.835708 0.412053 1.3511 
v 0.836085 0.412052 -0.33566 
v 0.86243 0.359747 1.3511 
v 0.862801 0.359737 -0.33566 
v 0.862788 -1.00892 1.3511 
v 0.862808 -1.00893 -0.33566 
v 0.836093 -1.06124 1.3511 
v 0.836093 -1.06124 -0.33566 
v 0.786804 -1.08493 -0.33566 
v 0.786799 -1.08493 1.3511 
v 0.214755 0.0422924 -0.320875 
v 6.66203e-08 0.0620278 -0.762047 
v 0.357522 0.0624051 -0.730655 
v -0.214755 0.0422924 -0.320875 
v -0.357522 0.0624051 -0.730655 
v 6.66203e-08 0.0620278 -0.762047 
v 2.80518e-08 0.0422924 -0.320875 
v 6.66203e-08 0.0620278 -0.762047 
v 0.214755 0.0422924 -0.320875 
v 2.80518e-08 0.0422924 -0.320875 
v -0.214755 0.0422924 -0.320875 
v 6.66203e-08 0.0620278 -0.762047 
v 0.512494 1.09799 0.607769 
v 0.519683 1.12801 0.648937 
v 0.532587 1.1351 0.615823 
v 0.493671 1.03003 0.757716 
v 0.471855 0.955516 0.661806 
v 0.392806 0.735298 0.86296 
v 0.390501 0.735299 1.26278 
v -0.512494 1.09799 0.607769 
v -0.532587 1.1351 0.615823 
v -0.519684 1.12801 0.648937 
v -0.493671 1.03003 0.757716 
v -0.471856 0.955516 0.661806 
v -0.392806 0.735298 0.86296 
v -0.390501 0.735299 1.26278 
v 0.33724 1.10204 -1.30204 
v 0.399684 1.10223 -1.27899 
v 0.383129 1.11906 -1.33032 
v 0.409399 0.722398 -0.91852 
v 0.0971783 0.721456 -1.03374 
v -0.33724 1.10204 -1.30204 
v -0.383129 1.11906 -1.33032 
v -0.399684 1.10223 -1.27899 
v -0.409399 0.722398 -0.918521 
v -0.0971782 0.721456 -1.03374 
v 0.0979244 -1.33513 0.622055 
v 0.521684 -1.33513 0.622055 
v 0.506755 -1.36637 0.622055 
v 0.0976117 -1.07132 0.622056 
v 0.522 -1.07132 0.622056 
v 0.112765 -1.36637 0.622055 
v 0.47604 -1.38468 0.622055 
v 0.14347 -1.38468 0.622055 
v -0.0979246 -1.33513 0.622055 
v -0.506756 -1.36637 0.622055 
v -0.521684 -1.33513 0.622055 
v -0.0976118 -1.07132 0.622056 
v -0.522 -1.07132 0.622056 
v -0.112766 -1.36637 0.622055 
v -0.47604 -1.38468 0.622055 
v -0.143471 -1.38468 0.622055 
v 0.0971783 0.721456 -1.03374 
v 0.18818 0.568204 -1.27904 
v 0.233279 0.497903 -1.18663 
v 0.157061 0.629793 -0.979755 
v -0.0971782 0.721456 -1.03374 
v -0.233279 0.497903 -1.18663 
v -0.188179 0.568204 -1.27904 
v -0.15706 0.629793 -0.979755 
v 0.500398 0.569147 -1.16382 
v 0.329495 0.630912 -0.915549 
v 0.405712 0.499025 -1.12242 
v 0.409399 0.722398 -0.91852 
v -0.500398 0.569147 -1.16382 
v -0.329494 0.630912 -0.915549 
v -0.409399 0.722398 -0.918521 
v -0.405712 0.499025 -1.12242 
v 0.392806 0.735298 0.86296 
v 0.00413017 0.430113 0.862959 
v 0.0790057 0.735298 0.862958 
v 0.00413017 0.430113 0.862959 
v 0.392806 0.735298 0.86296 
v 0.772991 0.430113 0.862959 
v 0.671622 0.735298 0.86296 
v -0.392806 0.735298 0.86296 
v -0.0790059 0.735298 0.862958 
v -0.00413041 0.430113 0.862959 
v -0.00413041 0.430113 0.862959 
v -0.772992 0.430113 0.862959 
v -0.392806 0.735298 0.86296 
v -0.671623 0.735298 0.86296 
v 0.0971783 0.721456 -1.03374 
v 0.329495 0.630912 -0.915549 
v 0.409399 0.722398 -0.91852 
v 0.157061 0.629793 -0.979755 
v -0.0971782 0.721456 -1.03374 
v -0.329494 0.630912 -0.915549 
v -0.15706 0.629793 -0.979755 
v -0.409399 0.722398 -0.918521 
v 1.27586 0.475503 0.0346084 
v 1.12297 0.231615 0.20246 
v 1.21536 0.736487 0.100291 
v 1.42487 0.316101 -0.128152 
v 1.50564 0.392305 -0.216716 
v 1.50275 0.626505 -0.214037 
v 1.46111 0.0781933 -0.167334 
v 1.65807 0.652298 -0.384099 
v 1.71123 0.873685 -0.442743 
v 1.82261 0.827476 -0.564554 
v 1.73197 0.997619 -0.465071 
v 1.36461 -0.0995057 -0.0613353 
v 1.52997 -0.144527 -0.242243 
v 1.63488 0.0549688 -0.357481 
v 1.75152 -0.0698567 -0.484888 
v 1.84154 0.0674608 -0.583701 
v 1.82434 0.164189 -0.565077 
v 1.93791 0.163113 -0.689377 
v 1.29953 -0.172344 0.0100399 
v 0.985777 -0.0818327 0.353268 
v 1.0277 -0.376031 0.307993 
v 0.897006 -0.176341 0.450626 
v 1.14144 -0.412549 0.183573 
v 0.894501 -0.449725 0.453934 
v 0.808186 -0.196829 0.547938 
v 0.80783 -0.574829 0.548816 
v 1.29812 -0.343698 0.0119412 
v 1.27408 -0.560441 0.0387026 
v 1.37647 -0.466325 -0.0735656 
v 1.45658 -0.609934 -0.160944 
v 1.56509 -0.512383 -0.279912 
v 1.56523 -0.587667 -0.279917 
v 1.66452 -0.586283 -0.388591 
v 1.82531 0.527152 -0.566889 
v 1.82261 0.827476 -0.564554 
v 2.1103 0.541118 -0.87885 
v 1.65807 0.652298 -0.384099 
v 1.50564 0.392305 -0.216716 
v 1.80044 0.262273 -0.539124 
v 1.52997 -0.144527 -0.242243 
v 1.57098 -0.414591 -0.28657 
v 1.36461 -0.0995057 -0.0613353 
v 1.66005 -0.347014 -0.384201 
v 1.75152 -0.0698567 -0.484888 
v 1.98891 -0.599636 -0.743619 
v 1.84154 0.0674608 -0.583701 
v 1.14144 -0.412549 0.183573 
v 1.27408 -0.560441 0.0387026 
v 1.2094 -0.692931 0.109772 
v 1.31294 -0.704576 -0.00352985 
v 1.45658 -0.609934 -0.160944 
v 1.4568 -1.12343 -0.160129 
v 1.56523 -0.587667 -0.279917 
v -1.27586 0.475503 0.0346082 
v -1.21536 0.736487 0.100291 
v -1.12297 0.231615 0.20246 
v -1.42487 0.316101 -0.128152 
v -1.50564 0.392305 -0.216716 
v -1.50275 0.626505 -0.214037 
v -1.46111 0.0781933 -0.167334 
v -1.65807 0.652298 -0.384099 
v -1.71123 0.873685 -0.442744 
v -1.73197 0.997619 -0.465071 
v -1.82261 0.827476 -0.564554 
v -1.36461 -0.0995057 -0.0613356 
v -1.52997 -0.144527 -0.242243 
v -1.63488 0.0549688 -0.357481 
v -1.75152 -0.0698567 -0.484888 
v -1.84154 0.0674608 -0.583701 
v -1.82434 0.164189 -0.565077 
v -1.93791 0.163113 -0.689377 
v -1.29953 -0.172344 0.0100397 
v -0.985777 -0.0818327 0.353268 
v -1.0277 -0.376031 0.307993 
v -0.897006 -0.176341 0.450626 
v -1.14144 -0.412549 0.183573 
v -0.894501 -0.449725 0.453934 
v -0.808187 -0.196829 0.547937 
v -0.80783 -0.574829 0.548816 
v -1.29812 -0.343698 0.0119409 
v -1.27408 -0.560441 0.0387024 
v -1.37647 -0.466325 -0.0735658 
v -1.45658 -0.609934 -0.160945 
v -1.56509 -0.512383 -0.279913 
v -1.56523 -0.587667 -0.279917 
v -1.66452 -0.586283 -0.388591 
v -1.82531 0.527152 -0.566889 
v -2.1103 0.541118 -0.878851 
v -1.82261 0.827476 -0.564554 
v -1.65807 0.652298 -0.384099 
v -1.50564 0.392305 -0.216716 
v -1.80044 0.262273 -0.539124 
v -1.52997 -0.144527 -0.242243 
v -1.36461 -0.0995057 -0.0613356 
v -1.57098 -0.414591 -0.28657 
v -1.66005 -0.347014 -0.384201 
v -1.75152 -0.0698567 -0.484888 
v -1.98891 -0.599636 -0.743619 
v -1.84154 0.0674608 -0.583701 
v -1.14144 -0.412549 0.183573 
v -1.2094 -0.692931 0.109772 
v -1.27408 -0.560441 0.0387024 
v -1.31294 -0.704576 -0.00353008 
v -1.45658 -0.609934 -0.160945 
v -1.4568 -1.12343 -0.160129 
v -1.56523 -0.587667 -0.279917 
v 0.269638 1.33658 0.39607 
v 0.210972 1.33658 0.39607 
v 0.239778 1.38468 0.416841 
v 0.313563 1.1569 0.433965 
v 0.165014 1.1569 0.433965 
v 0.392806 0.735298 0.86296 
v 0.0790057 0.735298 0.862958 
v -0.269638 1.33658 0.39607 
v -0.239778 1.38468 0.416841 
v -0.210972 1.33658 0.39607 
v -0.313563 1.1569 0.433965 
v -0.165014 1.1569 0.433965 
v -0.392806 0.735298 0.86296 
v -0.0790059 0.735298 0.862958 
v 0.552335 1.09741 0.607769 
v 0.512494 1.09799 0.607769 
v 0.532587 1.1351 0.615823 
v 0.471855 0.955516 0.661806 
v 0.592695 0.955516 0.661806 
v 0.671622 0.735298 0.86296 
v 0.392806 0.735298 0.86296 
v -0.552335 1.09741 0.607769 
v -0.532587 1.1351 0.615823 
v -0.512494 1.09799 0.607769 
v -0.471856 0.955516 0.661806 
v -0.592695 0.955516 0.661806 
v -0.671623 0.735298 0.86296 
v -0.392806 0.735298 0.86296 

vn 0.267717 -0.96063 0 
vn -0.267717 -0.96063 0 
vn 0.267717 -0.96063 0 
vn -0.267717 -0.96063 0 
vn -0.267717 -0.96063 0 
vn 0.267717 -0.96063 0 
vn 0.267717 -0.96063 0 
vn -0.267717 -0.96063 0 
vn 0.267717 -0.96063 0 
vn -0.267717 -0.96063 0 
vn 0.267717 -0.96063 0 
vn -0.267717 -0.96063 0 
vn -0.267717 -0.96063 0 
vn 0.267717 -0.96063 0 
vn 0.267717 -0.96063 0 
vn -0.267717 -0.96063 0 
vn 0 0.80315 0.590551 
vn 0 0.80315 0.590551 
vn 0 0.944882 0.322835 
vn 0 0.708661 0.700787 
vn 0 0.708661 0.700787 
vn 0 0.84252 0.543307 
vn 0 0.818898 0.574803 
vn 0 0.866142 0.503937 
vn 0 0.811024 0.590551 
vn 0 0.811024 0.590551 
vn 0 0.889764 0.456693 
vn 0 0.889764 0.456693 
vn 0 0.976378 0.212598 
vn 0 0.80315 0.590551 
vn 0 0.944882 0.322835 
vn 0 0.80315 0.590551 
vn 0 0.708661 0.700787 
vn 0 0.708661 0.700787 
vn 0 0.84252 0.543307 
vn 0 0.818898 0.574803 
vn 0 0.811024 0.590551 
vn 0 0.866142 0.503937 
vn 0 0.811024 0.590551 
vn 0 0.889764 0.456693 
vn 0 0.889764 0.456693 
vn 0 0.976378 0.212598 
vn 0 0 1 
vn 0 0 1 
vn 0 0 1 
vn 0 0 1 
vn 0 0 1 
vn 0 0 1 
vn 0 0 1 
vn 0 0 1 
vn 0 0 1 
vn 0 0 1 
vn 0 0 1 
vn 0 0 1 
vn 0 0 1 
vn 0 0 1 
vn 0 0 1 
vn 0 0 1 
vn 0 0 1 
vn 0 0 1 
vn 0 0 1 
vn 0 0 1 
vn 0.346457 -0.023622 -0.937008 
vn 0.346457 -0.023622 -0.937008 
vn 0.338583 0.204724 -0.92126 
vn 0.338583 -0.244094 -0.913386 
vn 0.338583 -0.244094 -0.913386 
vn -0.346457 -0.023622 -0.937008 
vn -0.338583 0.204724 -0.92126 
vn -0.346457 -0.023622 -0.937008 
vn -0.338583 -0.244094 -0.913386 
vn -0.338583 -0.244094 -0.913386 
vn 0 0 1 
vn 0 0 1 
vn 0 0 1 
vn 0 0 1 
vn 0 0 1 
vn 0 0 1 
vn 0 0 1 
vn 0 0 1 
vn 0 0 1 
vn 0 0 1 
vn 0.220472 -0.976378 0 
vn -0.220472 -0.976378 0 
vn 0.220472 -0.976378 0 
vn -0.220472 -0.976378 0 
vn -0.740157 0 0.677165 
vn -0.740157 0 0.677165 
vn -0.740157 0 0.677165 
vn -0.740157 0 0.677165 
vn -0.740157 0 0.677165 
vn -0.740157 0 0.677165 
vn -0.740157 0 0.677165 
vn -0.740157 0 0.677165 
vn -0.740157 0 0.677165 
vn -0.740157 0 0.677165 
vn -0.740157 0 0.669291 
vn -0.740157 0 0.677165 
vn -0.740157 0 0.677165 
vn -0.740157 0 0.677165 
vn -0.740157 0 0.677165 
vn -0.740157 0 0.677165 
vn -0.740157 0 0.677165 
vn -0.740157 0 0.677165 
vn -0.740157 0 0.677165 
vn -0.740157 0 0.677165 
vn -0.740157 0 0.677165 
vn -0.740157 0 0.677165 
vn -0.740157 0 0.677165 
vn -0.740157 0 0.677165 
vn -0.740157 0 0.677165 
vn -0.740157 0 0.677165 
vn -0.740157 0 0.677165 
vn -0.740157 0 0.677165 
vn -0.740157 0 0.677165 
vn -0.740157 0 0.677165 
vn -0.740157 0 0.677165 
vn -0.740157 0 0.677165 
vn -0.740157 0 0.677165 
vn -0.740157 0 0.677165 
vn -0.740157 0 0.677165 
vn -0.740157 0 0.677165 
vn -0.740157 0 0.677165 
vn -0.740157 0 0.677165 
vn -0.740157 0 0.677165 
vn -0.740157 0 0.677165 
vn -0.740157 0 0.677165 
vn -0.740157 0 0.677165 
vn -0.740157 0 0.677165 
vn -0.740157 0 0.677165 
vn -0.740157 0 0.677165 
vn -0.740157 0 0.677165 
vn -0.740157 0 0.677165 
vn -0.740157 0 0.677165 
vn -0.740157 0 0.677165 
vn -0.740157 0 0.677165 
vn -0.740157 0 0.677165 
vn -0.740157 0 0.677165 
vn -0.740157 0 0.677165 
vn 0.740157 0 0.677165 
vn 0.740157 0 0.677165 
vn 0.740157 0 0.677165 
vn 0.740157 0 0.677165 
vn 0.740157 0 0.677165 
vn 0.740157 0 0.677165 
vn 0.740157 0 0.677165 
vn 0.740157 0 0.677165 
vn 0.740157 0 0.677165 
vn 0.740157 0 0.669291 
vn 0.740157 0 0.677165 
vn 0.740157 0 0.677165 
vn 0.740157 0 0.677165 
vn 0.740157 0 0.677165 
vn 0.740157 0 0.677165 
vn 0.740157 0 0.677165 
vn 0.740157 0 0.677165 
vn 0.740157 0 0.677165 
vn 0.740157 0 0.677165 
vn 0.740157 0 0.677165 
vn 0.740157 0 0.677165 
vn 0.740157 0 0.677165 
vn 0.740157 0 0.677165 
vn 0.740157 0 0.677165 
vn 0.740157 0 0.677165 
vn 0.740157 0 0.677165 
vn 0.740157 0 0.677165 
vn 0.740157 0 0.677165 
vn 0.740157 0 0.677165 
vn 0.740157 0 0.677165 
vn 0.740157 0 0.677165 
vn 0.740157 0 0.677165 
vn 0.740157 0 0.677165 
vn 0.740157 0 0.677165 
vn 0.740157 0 0.677165 
vn 0.740157 0 0.677165 
vn 0.740157 0 0.677165 
vn 0.740157 0 0.677165 
vn 0.740157 0 0.677165 
vn 0.740157 0 0.677165 
vn 0.740157 0 0.677165 
vn 0.740157 0 0.677165 
vn 0.740157 0 0.677165 
vn 0.740157 0 0.677165 
vn 0.740157 0 0.677165 
vn 0.740157 0 0.677165 
vn 0.740157 0 0.677165 
vn 0.740157 0 0.677165 
vn 0.740157 0 0.677165 
vn 0.740157 0 0.677165 
vn 0.740157 0 0.677165 
vn 0.740157 0 0.677165 
vn 0.740157 0 0.677165 
vn 0 0 1 
vn 0 0 1 
vn 0 0 1 
vn 0 0 1 
vn 0 0 1 
vn 0 0 1 
vn 0 0 1 
vn 0 0 1 
vn 0 0 1 
vn 0 0 1 
vn 0 0 1 
vn 0 0 1 
vn 0 0 1 
vn 0 0 1 
vn 0 0 1 
vn 0 0 1 
vn -0.944882 0.314961 0 
vn -0.952756 0.314961 0 
vn -0.952756 0.314961 0 
vn -0.944882 0.314961 0 
vn -0.952756 0.291339 0 
vn -0.952756 0.291339 0 
vn -0.92126 0.385827 -0.110236 
vn -0.92126 0.385827 -0.110236 
vn -0.84252 0.488189 -0.212598 
vn 0.944882 0.314961 0 
vn 0.952756 0.314961 0 
vn 0.944882 0.314961 0 
vn 0.952756 0.314961 0 
vn 0.952756 0.291339 0 
vn 0.952756 0.291339 0 
vn 0.92126 0.385827 -0.110236 
vn 0.92126 0.385827 -0.110236 
vn 0.84252 0.488189 -0.212598 
vn -0.740157 -0.677165 0 
vn -0.740157 -0.677165 0 
vn -0.984252 -0.15748 0 
vn -0.267717 -0.96063 0 
vn -0.267717 -0.96063 0 
vn -0.984252 -0.15748 0 
vn -0.992126 0.133858 0 
vn -0.992126 0.133858 0 
vn 0.740157 -0.677165 0 
vn 0.740157 -0.677165 0 
vn 0.984252 -0.15748 0 
vn 0.267717 -0.96063 0 
vn 0.267717 -0.96063 0 
vn 0.984252 -0.15748 0 
vn 0.992126 0.133858 0 
vn 0.992126 0.133858 0 
vn -0.984252 -0.15748 0 
vn -0.984252 -0.15748 0 
vn -0.740157 -0.677165 0 
vn -0.992126 0.133858 0 
vn -0.992126 0.133858 0 
vn -0.740157 -0.677165 0 
vn -0.267717 -0.96063 0 
vn -0.267717 -0.96063 0 
vn 0.740157 -0.677165 0 
vn 0.984252 -0.15748 0 
vn 0.984252 -0.15748 0 
vn 0.992126 0.133858 0 
vn 0.992126 0.133858 0 
vn 0.740157 -0.677165 0 
vn 0.267717 -0.96063 0 
vn 0.267717 -0.96063 0 
vn -0.574803 0.582677 -0.574803 
vn -0.740157 0.417323 -0.535433 
vn -0.740157 0.417323 -0.535433 
vn -0.858268 0.220472 -0.456693 
vn -0.858268 0.220472 -0.456693 
vn 0.574803 0.582677 -0.574803 
vn 0.740157 0.417323 -0.535433 
vn 0.740157 0.417323 -0.535433 
vn 0.858268 0.220472 -0.456693 
vn 0.858268 0.220472 -0.456693 
vn 0.125984 -0.700787 -0.700787 
vn 0.125984 -0.700787 -0.700787 
vn 0.125984 -0.700787 -0.700787 
vn 0.125984 -0.700787 -0.700787 
vn -0.125984 -0.700787 -0.700787 
vn -0.125984 -0.700787 -0.700787 
vn -0.125984 -0.700787 -0.700787 
vn -0.125984 -0.700787 -0.700787 
vn 0.905512 0.417323 -0.0866142 
vn 0.905512 0.417323 -0.0866142 
vn 0.80315 0.574803 -0.173228 
vn 0.976378 0.212598 0 
vn 0.976378 0.212598 0 
vn 0.984252 0.19685 0.00787402 
vn 0.984252 0.19685 0.00787402 
vn -0.905512 0.417323 -0.0866142 
vn -0.80315 0.574803 -0.173228 
vn -0.905512 0.417323 -0.0866142 
vn -0.976378 0.212598 0 
vn -0.976378 0.212598 0 
vn -0.984252 0.19685 0.00787402 
vn -0.984252 0.19685 0.00787402 
vn 0.244094 -0.716535 -0.653543 
vn 0.244094 -0.716535 -0.653543 
vn 0.244094 -0.716535 -0.653543 
vn 0.244094 -0.716535 -0.653543 
vn -0.244094 -0.708661 -0.653543 
vn -0.244094 -0.708661 -0.653543 
vn -0.244094 -0.708661 -0.653543 
vn -0.244094 -0.708661 -0.653543 
vn 0 0 -1 
vn 0 0 -1 
vn 0 0 -1 
vn 0 0 -1 
vn 0 0 -1 
vn 0 0 -1 
vn 0 0 -1 
vn 0 0 -1 
vn 0 0 -1 
vn 0 0 -1 
vn 0 0 -1 
vn 0 0 -1 
vn 0 0 -1 
vn 0 0 -1 
vn 0 0 -1 
vn 0 0 -1 
vn 0 0 -1 
vn 0 0 -1 
vn 0 0 -1 
vn 0 0 -1 
vn -0.905512 0.0944882 -0.417323 
vn -0.905512 0.0944882 -0.417323 
vn -0.905512 0.0944882 -0.417323 
vn -0.905512 0.0944882 -0.417323 
vn 0.905512 0.0944882 -0.417323 
vn 0.905512 0.0944882 -0.417323 
vn 0.905512 0.0944882 -0.417323 
vn 0.905512 0.0944882 -0.417323 
vn -0.905512 0.417323 0.0708661 
vn -0.80315 0.590551 -0.0708661 
vn -0.905512 0.417323 0.0708661 
vn -0.952756 0.228346 0.212598 
vn -0.952756 0.228346 0.212598 
vn 0.905512 0.417323 0.0708661 
vn 0.905512 0.417323 0.0708661 
vn 0.80315 0.590551 -0.0708661 
vn 0.952756 0.228346 0.212598 
vn 0.952756 0.228346 0.212598 
vn 0 0 1 
vn 0 0 1 
vn 0 0 1 
vn 0 0 1 
vn 0 0 1 
vn 0 0 1 
vn 0 0 1 
vn 0 0 1 
vn 0 0 1 
vn 0 0 1 
vn 0 0 1 
vn 0 0 1 
vn 0 0 1 
vn 0 0 1 
vn 0 0 1 
vn 0 0 1 
vn 0 0.952756 0.314961 
vn -0.0314961 0.92126 0.377953 
vn -0.0866142 0.818898 0.566929 
vn -0.0866142 0.818898 0.566929 
vn 0.00787402 0.984252 0.181102 
vn 0 0.984252 0.181102 
vn 0 0.952756 0.314961 
vn 0.0866142 0.818898 0.566929 
vn 0.0314961 0.92126 0.377953 
vn 0.0866142 0.818898 0.566929 
vn -0.00787402 0.984252 0.181102 
vn 0 0.984252 0.181102 
vn -0.968504 0.11811 0.212598 
vn -0.96063 0.0787402 0.267717 
vn -0.96063 0.0787402 0.267717 
vn -0.968504 0.11811 0.212598 
vn -0.944882 0.0472441 0.322835 
vn -0.944882 0.0472441 0.322835 
vn 0.968504 0.11811 0.212598 
vn 0.96063 0.0787402 0.267717 
vn 0.968504 0.11811 0.212598 
vn 0.96063 0.0787402 0.267717 
vn 0.944882 0.0472441 0.322835 
vn 0.944882 0.0472441 0.322835 
vn -0.905512 0.409449 -0.0866142 
vn -0.905512 0.409449 -0.0866142 
vn -0.811024 0.559055 -0.165354 
vn -0.976378 0.228346 -0.00787402 
vn -0.976378 0.228346 -0.00787402 
vn -0.976378 0.220472 0 
vn -0.976378 0.220472 0 
vn -0.968504 0.23622 0 
vn -0.968504 0.23622 0 
vn 0.905512 0.409449 -0.0866142 
vn 0.811024 0.559055 -0.165354 
vn 0.905512 0.409449 -0.0866142 
vn 0.976378 0.228346 -0.00787402 
vn 0.976378 0.228346 -0.00787402 
vn 0.976378 0.220472 0 
vn 0.976378 0.220472 0 
vn 0.968504 0.23622 0 
vn 0.968504 0.23622 0 
vn 0 0 -1 
vn 0 0 -1 
vn 0 0 -1 
vn 0 0 -1 
vn 0 0 -1 
vn 0 0 -1 
vn 0 0 -1 
vn 0 0 -1 
vn -0.740157 -0.677165 0 
vn -0.267717 -0.96063 0 
vn -0.267717 -0.96063 0 
vn -0.740157 -0.677165 0 
vn -0.984252 -0.15748 0 
vn -0.984252 -0.15748 0 
vn -0.992126 0.133858 0 
vn -0.992126 0.133858 0 
vn 0 0 -1 
vn 0 0 -1 
vn 0 0 -1 
vn 0 0 -1 
vn 0 0 -1 
vn 0 0 -1 
vn 0 0 -1 
vn 0 0 -1 
vn 0.267717 -0.96063 0 
vn 0.267717 -0.96063 0 
vn 0.740157 -0.677165 0 
vn 0.740157 -0.677165 0 
vn 0.984252 -0.15748 0 
vn 0.984252 -0.15748 0 
vn 0.992126 0.133858 0 
vn 0.992126 0.133858 0 
vn -0.740157 -0.677165 0 
vn -0.740157 -0.677165 0 
vn -0.267717 -0.96063 0 
vn -0.267717 -0.96063 0 
vn -0.984252 -0.15748 0 
vn -0.984252 -0.15748 0 
vn -0.992126 0.133858 0 
vn -0.992126 0.133858 0 
vn 0.740157 -0.677165 0 
vn 0.740157 -0.677165 0 
vn 0.267717 -0.96063 0 
vn 0.267717 -0.96063 0 
vn 0.984252 -0.15748 0 
vn 0.984252 -0.15748 0 
vn 0.992126 0.133858 0 
vn 0.992126 0.133858 0 
vn -0.700787 -0.716535 0 
vn -0.220472 -0.976378 0 
vn -0.220472 -0.976378 0 
vn -0.700787 -0.716535 0 
vn -0.968504 -0.23622 0 
vn -0.968504 -0.23622 0 
vn -0.968504 0.23622 0 
vn -0.968504 0.23622 0 
vn -0.700787 0.716535 0 
vn -0.700787 0.716535 0 
vn -0.220472 0.976378 0 
vn -0.220472 0.976378 0 
vn 0.220472 0.976378 0 
vn 0.220472 0.976378 0 
vn 0.700787 0.716535 0 
vn 0.700787 0.716535 0 
vn 0.968504 0.23622 0 
vn 0.968504 0.23622 0 
vn 0.968504 -0.23622 0 
vn 0.968504 -0.23622 0 
vn 0.700787 -0.716535 0 
vn 0.700787 -0.716535 0 
vn 0.220472 -0.976378 0 
vn 0.220472 -0.976378 0 
vn 0.00787402 -1 -0.0472441 
vn 0.00787402 -1 -0.0472441 
vn 0.00787402 -1 -0.0472441 
vn -0.00787402 -1 -0.0472441 
vn -0.00787402 -1 -0.0472441 
vn -0.00787402 -1 -0.0472441 
vn 0 -1 -0.0472441 
vn 0 -1 -0.0472441 
vn 0 -1 -0.0472441 
vn 0 -1 -0.0472441 
vn 0 -1 -0.0472441 
vn 0 -1 -0.0472441 
vn -0.913386 0.385827 -0.110236 
vn -0.913386 0.385827 -0.110236 
vn -0.834646 0.503937 -0.220472 
vn -0.952756 0.291339 -0.00787402 
vn -0.952756 0.291339 -0.00787402 
vn -0.944882 0.322835 -0.00787402 
vn -0.944882 0.322835 -0.00787402 
vn 0.913386 0.385827 -0.110236 
vn 0.834646 0.503937 -0.220472 
vn 0.913386 0.385827 -0.110236 
vn 0.952756 0.291339 -0.00787402 
vn 0.952756 0.291339 -0.00787402 
vn 0.944882 0.322835 -0.00787402 
vn 0.944882 0.322835 -0.00787402 
vn -0.204724 0.818898 0.543307 
vn -0.204724 0.818898 0.543307 
vn -0.133858 0.929134 0.346457 
vn -0.259843 0.661417 0.700787 
vn -0.259843 0.661417 0.700787 
vn 0.204724 0.818898 0.543307 
vn 0.133858 0.929134 0.346457 
vn 0.204724 0.818898 0.543307 
vn 0.259843 0.661417 0.700787 
vn 0.259843 0.661417 0.700787 
vn 0 0 -1 
vn 0 0 -1 
vn 0 0 -1 
vn 0 0 -1 
vn 0 0 -1 
vn 0 0 -1 
vn 0 0 -1 
vn 0 0 -1 
vn 0 0 -1 
vn 0 0 -1 
vn 0 0 -1 
vn 0 0 -1 
vn 0 0 -1 
vn 0 0 -1 
vn 0 0 -1 
vn 0 0 -1 
vn -0.850394 -0.527559 0.023622 
vn -0.850394 -0.527559 0.023622 
vn -0.850394 -0.527559 0.023622 
vn -0.850394 -0.527559 0.023622 
vn 0.850394 -0.527559 0.023622 
vn 0.850394 -0.527559 0.023622 
vn 0.850394 -0.527559 0.023622 
vn 0.850394 -0.527559 0.023622 
vn 0.629921 -0.527559 0.566929 
vn 0.629921 -0.527559 0.566929 
vn 0.629921 -0.527559 0.566929 
vn 0.629921 -0.527559 0.566929 
vn -0.629921 -0.527559 0.566929 
vn -0.629921 -0.527559 0.566929 
vn -0.629921 -0.527559 0.566929 
vn -0.629921 -0.527559 0.566929 
vn 0 0 -1 
vn 0 0 -1 
vn 0 0 -1 
vn 0 0 -1 
vn 0 0 -1 
vn 0 0 -1 
vn 0 0 -1 
vn 0 0 -1 
vn 0 0 -1 
vn 0 0 -1 
vn 0 0 -1 
vn 0 0 -1 
vn 0 0 -1 
vn 0 0 -1 
vn -0.330709 0.314961 0.889764 
vn -0.330709 0.314961 0.889764 
vn -0.330709 0.314961 0.889764 
vn -0.330709 0.314961 0.889764 
vn 0.330709 0.314961 0.889764 
vn 0.330709 0.314961 0.889764 
vn 0.330709 0.314961 0.889764 
vn 0.330709 0.314961 0.889764 
vn -0.740157 0 -0.677165 
vn -0.740157 0 -0.677165 
vn -0.740157 0 -0.677165 
vn -0.740157 0 -0.677165 
vn -0.740157 0 -0.677165 
vn -0.740157 0 -0.677165 
vn -0.740157 0 -0.677165 
vn -0.740157 0 -0.677165 
vn -0.740157 0 -0.677165 
vn -0.740157 0 -0.677165 
vn -0.740157 0 -0.669291 
vn -0.740157 0 -0.677165 
vn -0.740157 0 -0.677165 
vn -0.740157 0 -0.677165 
vn -0.740157 0 -0.677165 
vn -0.740157 0 -0.677165 
vn -0.740157 0 -0.677165 
vn -0.740157 0 -0.677165 
vn -0.740157 0 -0.677165 
vn -0.740157 0 -0.677165 
vn -0.740157 0 -0.677165 
vn -0.740157 0 -0.677165 
vn -0.740157 0 -0.677165 
vn -0.740157 0 -0.677165 
vn -0.740157 0 -0.677165 
vn -0.740157 0 -0.677165 
vn -0.740157 0 -0.677165 
vn -0.740157 0 -0.677165 
vn -0.740157 0 -0.677165 
vn -0.740157 0 -0.677165 
vn -0.740157 0 -0.677165 
vn -0.740157 0 -0.677165 
vn -0.740157 0 -0.677165 
vn -0.740157 0 -0.677165 
vn -0.740157 0 -0.677165 
vn -0.740157 0 -0.677165 
vn -0.740157 0 -0.677165 
vn -0.740157 0 -0.677165 
vn -0.740157 0 -0.677165 
vn -0.740157 0 -0.677165 
vn -0.740157 0 -0.677165 
vn -0.740157 0 -0.677165 
vn -0.740157 0 -0.677165 
vn -0.740157 0 -0.677165 
vn -0.740157 0 -0.677165 
vn -0.740157 0 -0.677165 
vn -0.740157 0 -0.677165 
vn -0.740157 0 -0.677165 
vn -0.740157 0 -0.677165 
vn -0.740157 0 -0.677165 
vn -0.740157 0 -0.677165 
vn -0.740157 0 -0.677165 
vn -0.740157 0 -0.677165 
vn 0.740157 0 -0.677165 
vn 0.740157 0 -0.677165 
vn 0.740157 0 -0.677165 
vn 0.740157 0 -0.677165 
vn 0.740157 0 -0.677165 
vn 0.740157 0 -0.677165 
vn 0.740157 0 -0.677165 
vn 0.740157 0 -0.677165 
vn 0.740157 0 -0.677165 
vn 0.740157 0 -0.669291 
vn 0.740157 0 -0.677165 
vn 0.740157 0 -0.677165 
vn 0.740157 0 -0.677165 
vn 0.740157 0 -0.677165 
vn 0.740157 0 -0.677165 
vn 0.740157 0 -0.677165 
vn 0.740157 0 -0.677165 
vn 0.740157 0 -0.677165 
vn 0.740157 0 -0.677165 
vn 0.740157 0 -0.677165 
vn 0.740157 0 -0.677165 
vn 0.740157 0 -0.677165 
vn 0.740157 0 -0.677165 
vn 0.740157 0 -0.677165 
vn 0.740157 0 -0.677165 
vn 0.740157 0 -0.677165 
vn 0.740157 0 -0.677165 
vn 0.740157 0 -0.677165 
vn 0.740157 0 -0.677165 
vn 0.740157 0 -0.677165 
vn 0.740157 0 -0.677165 
vn 0.740157 0 -0.677165 
vn 0.740157 0 -0.677165 
vn 0.740157 0 -0.677165 
vn 0.740157 0 -0.677165 
vn 0.740157 0 -0.677165 
vn 0.740157 0 -0.677165 
vn 0.740157 0 -0.677165 
vn 0.740157 0 -0.677165 
vn 0.740157 0 -0.677165 
vn 0.740157 0 -0.677165 
vn 0.740157 0 -0.677165 
vn 0.740157 0 -0.677165 
vn 0.740157 0 -0.677165 
vn 0.740157 0 -0.677165 
vn 0.740157 0 -0.677165 
vn 0.740157 0 -0.677165 
vn 0.740157 0 -0.677165 
vn 0.740157 0 -0.677165 
vn 0.740157 0 -0.677165 
vn 0.740157 0 -0.677165 
vn 0.740157 0 -0.677165 
vn 0.740157 0 -0.677165 
vn 0 0.102362 -0.992126 
vn 0 0.102362 -0.992126 
vn 0 0.393701 -0.92126 
vn 0 -0.480315 -0.874016 
vn 0 -0.480315 -0.874016 
vn 0 -0.716535 -0.700787 
vn 0 -0.716535 -0.700787 
vn 0 0.102362 -0.992126 
vn 0 0.393701 -0.92126 
vn 0 0.102362 -0.992126 
vn 0 -0.480315 -0.874016 
vn 0 -0.480315 -0.874016 
vn 0 -0.716535 -0.700787 
vn 0 -0.716535 -0.700787 
vn 0 -0.0787402 -1 
vn 0 -0.0787402 -1 
vn 0 0.212598 -0.976378 
vn 0 -0.527559 -0.850394 
vn 0 -0.527559 -0.850394 
vn 0 -0.677165 -0.740157 
vn 0 -0.677165 -0.740157 
vn 0 -0.0787402 -1 
vn 0 0.212598 -0.976378 
vn 0 -0.0787402 -1 
vn 0 -0.527559 -0.850394 
vn 0 -0.527559 -0.850394 
vn 0 -0.677165 -0.740157 
vn 0 -0.677165 -0.740157 

vt 0.995092 0.03094 
vt 0.941859 0.078167 
vt 0.941739 0.030911 
vt 0.995212 0.078196 
vt 0.995092 0.03094 
vt 0.941859 0.078167 
vt 0.995212 0.078196 
vt 0.941739 0.030911 
vt 0.941859 0.078167 
vt 0.995092 0.03094 
vt 0.995212 0.078196 
vt 0.941739 0.030911 
vt 0.941859 0.078167 
vt 0.995092 0.03094 
vt 0.941739 0.030911 
vt 0.995212 0.078196 
vt 0.789459 0.979169 
vt 0.798209 0.979231 
vt 0.793643 0.989671 
vt 0.806202 0.941873 
vt 0.781509 0.941695 
vt 0.826221 0.769216 
vt 0.762424 0.768576 
vt 0.883797 0.769795 
vt 0.846148 0.889194 
vt 0.861961 0.889353 
vt 0.851174 0.919231 
vt 0.856389 0.919284 
vt 0.853747 0.926194 
vt 0.789459 0.979169 
vt 0.793643 0.989671 
vt 0.798209 0.979231 
vt 0.806202 0.941873 
vt 0.781509 0.941695 
vt 0.826221 0.769216 
vt 0.762424 0.768576 
vt 0.846148 0.889194 
vt 0.883797 0.769795 
vt 0.861961 0.889353 
vt 0.851174 0.919231 
vt 0.856389 0.919284 
vt 0.853747 0.926194 
vt 0.028355 0.991248 
vt 0.352339 0.675802 
vt 0.352245 0.991261 
vt 0.028187 0.675789 
vt 0.01813 0.986332 
vt 0.012427 0.691557 
vt 0.01796 0.680703 
vt 0.012585 0.975485 
vt 0.368016 0.975496 
vt 0.362564 0.680717 
vt 0.368102 0.69157 
vt 0.362472 0.986346 
vt 0.01813 0.986332 
vt 0.028187 0.675789 
vt 0.028355 0.991248 
vt 0.01796 0.680703 
vt 0.352245 0.991261 
vt 0.352339 0.675802 
vt 0.362472 0.986346 
vt 0.362564 0.680717 
vt 0.981072 0.435184 
vt 0.974344 0.435207 
vt 0.977693 0.430284 
vt 0.994685 0.487514 
vt 0.961048 0.487633 
vt 0.981072 0.435184 
vt 0.977693 0.430284 
vt 0.974344 0.435207 
vt 0.994685 0.487514 
vt 0.961048 0.487633 
vt 0.826221 0.769216 
vt 0.762424 0.768576 
vt 0.747716 0.705917 
vt 0.905186 0.707499 
vt 0.883797 0.769795 
vt 0.826221 0.769216 
vt 0.747716 0.705917 
vt 0.762424 0.768576 
vt 0.905186 0.707499 
vt 0.883797 0.769795 
vt 0.017447 0.333649 
vt 0.017447 0.00949597 
vt 0.367358 0.333649 
vt 0.367358 0.00949597 
vt 0.807966 0.331997 
vt 0.790651 0.273556 
vt 0.772077 0.367464 
vt 0.857092 0.32387 
vt 0.870514 0.346116 
vt 0.85079 0.384152 
vt 0.885217 0.289255 
vt 0.886409 0.407141 
vt 0.881335 0.449847 
vt 0.912132 0.455727 
vt 0.876229 0.472628 
vt 0.876218 0.248474 
vt 0.920027 0.261069 
vt 0.929296 0.306438 
vt 0.967755 0.300068 
vt 0.978459 0.333448 
vt 0.966426 0.347224 
vt 0.994089 0.360765 
vt 0.866334 0.228675 
vt 0.7828 0.205611 
vt 0.816875 0.162456 
vt 0.768922 0.179399 
vt 0.847458 0.17021 
vt 0.790519 0.134289 
vt 0.749014 0.165309 
vt 0.779665 0.10333 
vt 0.879909 0.20042 
vt 0.891676 0.161992 
vt 0.908894 0.189785 
vt 0.940007 0.175924 
vt 0.958431 0.205019 
vt 0.964581 0.192698 
vt 0.988576 0.204917 
vt 0.80634 0.431445 
vt 0.840049 0.388062 
vt 0.746295 0.38271 
vt 0.856284 0.440585 
vt 0.860548 0.503502 
vt 0.782499 0.474172 
vt 0.951785 0.449674 
vt 0.903799 0.433555 
vt 0.955317 0.49512 
vt 0.918605 0.410796 
vt 0.971614 0.391316 
vt 0.881904 0.317365 
vt 0.999137 0.369607 
vt 0.99875 0.158762 
vt 0.95629 0.143932 
vt 0.945914 0.172015 
vt 0.928538 0.149861 
vt 0.921262 0.107834 
vt 0.843225 0.160113 
vt 0.908265 0.0810695 
vt 0.807966 0.331997 
vt 0.772077 0.367464 
vt 0.790651 0.273556 
vt 0.857092 0.32387 
vt 0.870514 0.346116 
vt 0.85079 0.384152 
vt 0.885217 0.289255 
vt 0.886409 0.407141 
vt 0.881335 0.449847 
vt 0.876229 0.472628 
vt 0.912132 0.455727 
vt 0.876218 0.248474 
vt 0.920027 0.261069 
vt 0.929296 0.306438 
vt 0.967755 0.300068 
vt 0.978459 0.333448 
vt 0.966426 0.347224 
vt 0.994089 0.360765 
vt 0.866334 0.228675 
vt 0.7828 0.205611 
vt 0.816875 0.162456 
vt 0.768922 0.179399 
vt 0.847458 0.17021 
vt 0.790519 0.134289 
vt 0.749014 0.165309 
vt 0.779665 0.10333 
vt 0.879909 0.20042 
vt 0.891676 0.161992 
vt 0.908894 0.189785 
vt 0.940007 0.175924 
vt 0.958431 0.205019 
vt 0.964581 0.192698 
vt 0.988576 0.204917 
vt 0.80634 0.431445 
vt 0.746295 0.38271 
vt 0.840049 0.388062 
vt 0.856284 0.440585 
vt 0.860548 0.503502 
vt 0.782499 0.474172 
vt 0.951785 0.449674 
vt 0.955317 0.49512 
vt 0.903799 0.433555 
vt 0.918605 0.410796 
vt 0.971614 0.391316 
vt 0.881904 0.317365 
vt 0.999137 0.369607 
vt 0.99875 0.158762 
vt 0.945914 0.172015 
vt 0.95629 0.143932 
vt 0.928538 0.149861 
vt 0.921262 0.107834 
vt 0.843225 0.160113 
vt 0.908265 0.0810695 
vt 0.837976 0.015437 
vt 0.756245 0.015207 
vt 0.762627 0.011426 
vt 0.831617 0.011621 
vt 0.841037 0.021926 
vt 0.75313 0.021679 
vt 0.840948 0.076653 
vt 0.75291 0.076406 
vt 0.756245 0.015207 
vt 0.837976 0.015437 
vt 0.762627 0.011426 
vt 0.831617 0.011621 
vt 0.841037 0.021926 
vt 0.75313 0.021679 
vt 0.840948 0.076653 
vt 0.75291 0.076406 
vt 0.99675 0.807366 
vt 0.897683 0.772293 
vt 0.974965 0.745207 
vt 0.919469 0.834451 
vt 0.893191 0.947935 
vt 0.862802 0.943906 
vt 0.866919 0.982603 
vt 0.881318 0.984562 
vt 0.874522 0.99208 
vt 0.99675 0.807366 
vt 0.897683 0.772293 
vt 0.919469 0.834451 
vt 0.974965 0.745207 
vt 0.893191 0.947935 
vt 0.862802 0.943906 
vt 0.866919 0.982603 
vt 0.881318 0.984562 
vt 0.874522 0.99208 
vt 0.930119 0.015749 
vt 0.85223 0.015282 
vt 0.852197 0.022456 
vt 0.930144 0.008331 
vt 0.852255 0.00786501 
vt 0.930086 0.022931 
vt 0.851863 0.077182 
vt 0.929752 0.077657 
vt 0.85223 0.015282 
vt 0.930119 0.015749 
vt 0.852197 0.022456 
vt 0.930144 0.008331 
vt 0.852255 0.00786501 
vt 0.930086 0.022931 
vt 0.851863 0.077182 
vt 0.929752 0.077657 
vt 0.930086 0.022931 
vt 0.852197 0.022456 
vt 0.930119 0.015749 
vt 0.851863 0.077182 
vt 0.929752 0.077657 
vt 0.85223 0.015282 
vt 0.930144 0.008331 
vt 0.852255 0.00786501 
vt 0.930119 0.015749 
vt 0.852197 0.022456 
vt 0.930086 0.022931 
vt 0.851863 0.077182 
vt 0.929752 0.077657 
vt 0.85223 0.015282 
vt 0.930144 0.008331 
vt 0.852255 0.00786501 
vt 0.996073 0.672944 
vt 0.993735 0.661988 
vt 0.985671 0.670232 
vt 0.902808 0.614914 
vt 0.94313 0.573692 
vt 0.996073 0.672944 
vt 0.985671 0.670232 
vt 0.993735 0.661988 
vt 0.902808 0.614914 
vt 0.94313 0.573692 
vt 0.960798 0.563103 
vt 0.968574 0.497726 
vt 0.996376 0.556429 
vt 0.987171 0.497656 
vt 0.960798 0.563103 
vt 0.996376 0.556429 
vt 0.968574 0.497726 
vt 0.987171 0.497656 
vt 0.978218 0.865261 
vt 0.990913 0.868368 
vt 0.985743 0.859464 
vt 0.965506 0.894461 
vt 0.990882 0.900607 
vt 0.96971 0.963018 
vt 0.893401 0.993754 
vt 0.978218 0.865261 
vt 0.985743 0.859464 
vt 0.990913 0.868368 
vt 0.965506 0.894461 
vt 0.990882 0.900607 
vt 0.96971 0.963018 
vt 0.893401 0.993754 
vt 0.968574 0.497726 
vt 0.994685 0.487514 
vt 0.987171 0.497656 
vt 0.961048 0.487633 
vt 0.994685 0.487514 
vt 0.968574 0.497726 
vt 0.987171 0.497656 
vt 0.961048 0.487633 
vt 0.361105 0.351325 
vt 0.367486 0.646085 
vt 0.361975 0.656953 
vt 0.366678 0.362161 
vt 0.016502 0.352305 
vt 0.027612 0.662818 
vt 0.017372 0.657932 
vt 0.026713 0.34736 
vt 0.350867 0.346439 
vt 0.027612 0.662818 
vt 0.026713 0.34736 
vt 0.351765 0.661897 
vt 0.016502 0.352305 
vt 0.011799 0.647095 
vt 0.010991 0.363172 
vt 0.017372 0.657932 
vt 0.361105 0.351325 
vt 0.351765 0.661897 
vt 0.350867 0.346439 
vt 0.361975 0.656953 
vt 0.923144 0.560976 
vt 0.829202 0.500123 
vt 0.835503 0.573122 
vt 0.889192 0.59611 
vt 0.923144 0.560976 
vt 0.835503 0.573122 
vt 0.829202 0.500123 
vt 0.889192 0.59611 
vt 0.985905 0.670503 
vt 0.996312 0.673171 
vt 0.993938 0.662228 
vt 0.902854 0.615519 
vt 0.943017 0.574144 
vt 0.985905 0.670503 
vt 0.993938 0.662228 
vt 0.996312 0.673171 
vt 0.902854 0.615519 
vt 0.943017 0.574144 
vt 0.841217 0.021665 
vt 0.753309 0.021696 
vt 0.756404 0.015215 
vt 0.841301 0.076392 
vt 0.753264 0.076423 
vt 0.838136 0.015185 
vt 0.762774 0.011414 
vt 0.831765 0.011389 
vt 0.756404 0.015215 
vt 0.841217 0.021665 
vt 0.838136 0.015185 
vt 0.762774 0.011414 
vt 0.831765 0.011389 
vt 0.753309 0.021696 
vt 0.841301 0.076392 
vt 0.753264 0.076423 
vt 0.941456 0.653334 
vt 0.903991 0.700155 
vt 0.872895 0.630271 
vt 0.857204 0.66155 
vt 0.967553 0.730156 
vt 0.993761 0.701973 
vt 0.941456 0.653334 
vt 0.872895 0.630271 
vt 0.903991 0.700155 
vt 0.857204 0.66155 
vt 0.967553 0.730156 
vt 0.993761 0.701973 
vt 0.922857 0.561589 
vt 0.829537 0.499774 
vt 0.83421 0.571171 
vt 0.889126 0.596932 
vt 0.764276 0.578198 
vt 0.748848 0.517503 
vt 0.889126 0.596932 
vt 0.83421 0.571171 
vt 0.922857 0.561589 
vt 0.829537 0.499774 
vt 0.764276 0.578198 
vt 0.748848 0.517503 
vt 0.866615 0.982697 
vt 0.882158 0.984692 
vt 0.873971 0.992487 
vt 0.893327 0.948048 
vt 0.862272 0.944169 
vt 0.918615 0.833205 
vt 0.996669 0.807852 
vt 0.976617 0.746693 
vt 0.898731 0.771992 
vt 0.866615 0.982697 
vt 0.873971 0.992487 
vt 0.882158 0.984692 
vt 0.893327 0.948048 
vt 0.862272 0.944169 
vt 0.918615 0.833205 
vt 0.996669 0.807852 
vt 0.976617 0.746693 
vt 0.898731 0.771992 
vt 0.837976 0.015437 
vt 0.756245 0.015207 
vt 0.762627 0.011426 
vt 0.831617 0.011621 
vt 0.841037 0.021926 
vt 0.75313 0.021679 
vt 0.840948 0.076653 
vt 0.75291 0.076406 
vt 0.852147 0.015293 
vt 0.930077 0.00853401 
vt 0.85219 0.00787598 
vt 0.930034 0.015952 
vt 0.852096 0.022467 
vt 0.929983 0.023134 
vt 0.929515 0.077859 
vt 0.851627 0.077192 
vt 0.756245 0.015207 
vt 0.837976 0.015437 
vt 0.762627 0.011426 
vt 0.831617 0.011621 
vt 0.841037 0.021926 
vt 0.75313 0.021679 
vt 0.840948 0.076653 
vt 0.75291 0.076406 
vt 0.85219 0.00787598 
vt 0.930077 0.00853401 
vt 0.852147 0.015293 
vt 0.930034 0.015952 
vt 0.852096 0.022467 
vt 0.929983 0.023134 
vt 0.929515 0.077859 
vt 0.851627 0.077192 
vt 0.930034 0.015952 
vt 0.852147 0.015293 
vt 0.930077 0.00853401 
vt 0.85219 0.00787598 
vt 0.852096 0.022467 
vt 0.929983 0.023134 
vt 0.929515 0.077859 
vt 0.851627 0.077192 
vt 0.852147 0.015293 
vt 0.930034 0.015952 
vt 0.930077 0.00853401 
vt 0.85219 0.00787598 
vt 0.852096 0.022467 
vt 0.929983 0.023134 
vt 0.929515 0.077859 
vt 0.851627 0.077192 
vt 0.74044 0.017939 
vt 0.390529 0.00659299 
vt 0.74044 0.00659299 
vt 0.390529 0.017939 
vt 0.390529 0.030123 
vt 0.74044 0.030123 
vt 0.390529 0.314049 
vt 0.74044 0.314049 
vt 0.390529 0.326233 
vt 0.74044 0.326233 
vt 0.390529 0.337578 
vt 0.74044 0.337578 
vt 0.390529 0.6616 
vt 0.74044 0.6616 
vt 0.74044 0.672946 
vt 0.390529 0.672946 
vt 0.74044 0.685131 
vt 0.390529 0.685131 
vt 0.74044 0.969057 
vt 0.390529 0.969057 
vt 0.74044 0.981241 
vt 0.390529 0.981241 
vt 0.390529 0.992586 
vt 0.74044 0.992586 
vt 0.993664 0.60025 
vt 0.960798 0.563103 
vt 0.996376 0.556429 
vt 0.993664 0.60025 
vt 0.996376 0.556429 
vt 0.960798 0.563103 
vt 0.972763 0.606104 
vt 0.960798 0.563103 
vt 0.993664 0.60025 
vt 0.972763 0.606104 
vt 0.993664 0.60025 
vt 0.960798 0.563103 
vt 0.989534 0.867679 
vt 0.979338 0.86501 
vt 0.984959 0.860161 
vt 0.966548 0.892649 
vt 0.990743 0.899957 
vt 0.970636 0.959871 
vt 0.894844 0.990885 
vt 0.989534 0.867679 
vt 0.984959 0.860161 
vt 0.979338 0.86501 
vt 0.966548 0.892649 
vt 0.990743 0.899957 
vt 0.970636 0.959871 
vt 0.894844 0.990885 
vt 0.765248 0.58906 
vt 0.759597 0.600387 
vt 0.754649 0.590851 
vt 0.834531 0.666005 
vt 0.862787 0.609371 
vt 0.765248 0.58906 
vt 0.754649 0.590851 
vt 0.759597 0.600387 
vt 0.834531 0.666005 
vt 0.862787 0.609371 
vt 0.841217 0.021665 
vt 0.753309 0.021696 
vt 0.756404 0.015215 
vt 0.841301 0.076392 
vt 0.753264 0.076423 
vt 0.838136 0.015185 
vt 0.762774 0.011414 
vt 0.831765 0.011389 
vt 0.841217 0.021665 
vt 0.756404 0.015215 
vt 0.753309 0.021696 
vt 0.841301 0.076392 
vt 0.753264 0.076423 
vt 0.838136 0.015185 
vt 0.762774 0.011414 
vt 0.831765 0.011389 
vt 0.902808 0.614914 
vt 0.94313 0.573692 
vt 0.923144 0.560976 
vt 0.889192 0.59611 
vt 0.902808 0.614914 
vt 0.923144 0.560976 
vt 0.94313 0.573692 
vt 0.889192 0.59611 
vt 0.943017 0.574144 
vt 0.889126 0.596932 
vt 0.922857 0.561589 
vt 0.902854 0.615519 
vt 0.943017 0.574144 
vt 0.889126 0.596932 
vt 0.902854 0.615519 
vt 0.922857 0.561589 
vt 0.826664 0.769489 
vt 0.747684 0.706189 
vt 0.762394 0.768846 
vt 0.747684 0.706189 
vt 0.826664 0.769489 
vt 0.905154 0.707762 
vt 0.883767 0.770059 
vt 0.826664 0.769489 
vt 0.762394 0.768846 
vt 0.747684 0.706189 
vt 0.747684 0.706189 
vt 0.905154 0.707762 
vt 0.826664 0.769489 
vt 0.883767 0.770059 
vt 0.862787 0.609371 
vt 0.857204 0.66155 
vt 0.834531 0.666005 
vt 0.872895 0.630271 
vt 0.862787 0.609371 
vt 0.857204 0.66155 
vt 0.872895 0.630271 
vt 0.834531 0.666005 
vt 0.807966 0.331997 
vt 0.790651 0.273556 
vt 0.772077 0.367464 
vt 0.857092 0.32387 
vt 0.870514 0.346116 
vt 0.85079 0.384152 
vt 0.885217 0.289255 
vt 0.886409 0.407141 
vt 0.881335 0.449847 
vt 0.912132 0.455727 
vt 0.876229 0.472628 
vt 0.876218 0.248474 
vt 0.920027 0.261069 
vt 0.929296 0.306438 
vt 0.967755 0.300068 
vt 0.978459 0.333448 
vt 0.966426 0.347224 
vt 0.994089 0.360765 
vt 0.866334 0.228675 
vt 0.7828 0.205611 
vt 0.816875 0.162456 
vt 0.768922 0.179399 
vt 0.847458 0.17021 
vt 0.790519 0.134289 
vt 0.749014 0.165309 
vt 0.779665 0.10333 
vt 0.879909 0.20042 
vt 0.891676 0.161992 
vt 0.908894 0.189785 
vt 0.940007 0.175924 
vt 0.958431 0.205019 
vt 0.964581 0.192698 
vt 0.988576 0.204917 
vt 0.80634 0.431445 
vt 0.840049 0.388062 
vt 0.746295 0.38271 
vt 0.856284 0.440585 
vt 0.860548 0.503502 
vt 0.782499 0.474172 
vt 0.951785 0.449674 
vt 0.903799 0.433555 
vt 0.955317 0.49512 
vt 0.918605 0.410796 
vt 0.971614 0.391316 
vt 0.881904 0.317365 
vt 0.999137 0.369607 
vt 0.99875 0.158762 
vt 0.95629 0.143932 
vt 0.945914 0.172015 
vt 0.928538 0.149861 
vt 0.921262 0.107834 
vt 0.843225 0.160113 
vt 0.908265 0.0810695 
vt 0.807966 0.331997 
vt 0.772077 0.367464 
vt 0.790651 0.273556 
vt 0.857092 0.32387 
vt 0.870514 0.346116 
vt 0.85079 0.384152 
vt 0.885217 0.289255 
vt 0.886409 0.407141 
vt 0.881335 0.449847 
vt 0.876229 0.472628 
vt 0.912132 0.455727 
vt 0.876218 0.248474 
vt 0.920027 0.261069 
vt 0.929296 0.306438 
vt 0.967755 0.300068 
vt 0.978459 0.333448 
vt 0.966426 0.347224 
vt 0.994089 0.360765 
vt 0.866334 0.228675 
vt 0.7828 0.205611 
vt 0.816875 0.162456 
vt 0.768922 0.179399 
vt 0.847458 0.17021 
vt 0.790519 0.134289 
vt 0.749014 0.165309 
vt 0.779665 0.10333 
vt 0.879909 0.20042 
vt 0.891676 0.161992 
vt 0.908894 0.189785 
vt 0.940007 0.175924 
vt 0.958431 0.205019 
vt 0.964581 0.192698 
vt 0.988576 0.204917 
vt 0.80634 0.431445 
vt 0.746295 0.38271 
vt 0.840049 0.388062 
vt 0.856284 0.440585 
vt 0.860548 0.503502 
vt 0.782499 0.474172 
vt 0.951785 0.449674 
vt 0.955317 0.49512 
vt 0.903799 0.433555 
vt 0.918605 0.410796 
vt 0.971614 0.391316 
vt 0.881904 0.317365 
vt 0.999137 0.369607 
vt 0.99875 0.158762 
vt 0.945914 0.172015 
vt 0.95629 0.143932 
vt 0.928538 0.149861 
vt 0.921262 0.107834 
vt 0.843225 0.160113 
vt 0.908265 0.0810695 
vt 0.798657 0.979512 
vt 0.789056 0.979392 
vt 0.793684 0.990181 
vt 0.806147 0.941992 
vt 0.781835 0.941688 
vt 0.826664 0.769489 
vt 0.762394 0.768846 
vt 0.798657 0.979512 
vt 0.793684 0.990181 
vt 0.789056 0.979392 
vt 0.806147 0.941992 
vt 0.781835 0.941688 
vt 0.826664 0.769489 
vt 0.762394 0.768846 
vt 0.856416 0.919423 
vt 0.851096 0.919451 
vt 0.853725 0.927025 
vt 0.845873 0.889153 
vt 0.862008 0.889393 
vt 0.883767 0.770059 
vt 0.826664 0.769489 
vt 0.856416 0.919423 
vt 0.853725 0.927025 
vt 0.851096 0.919451 
vt 0.845873 0.889153 
vt 0.862008 0.889393 
vt 0.883767 0.770059 
vt 0.826664 0.769489 

usemtl Golden1Mtl

f 1/1/1 2/2/2 3/3/3 
f 2/2/2 1/1/1 4/4/4 
f 5/5/5 6/6/6 7/7/7 
f 6/6/6 5/5/5 8/8/8 
f 9/9/9 10/10/10 11/11/11 
f 10/10/10 9/9/9 12/12/12 
f 13/13/13 14/14/14 15/15/15 
f 14/14/14 13/13/13 16/16/16 
f 17/17/17 18/18/18 19/19/19 
f 17/17/17 20/20/20 18/18/18 
f 20/20/20 17/17/17 21/21/21 
f 21/21/21 22/22/22 20/20/20 
f 22/22/22 21/21/21 23/23/23 
f 24/24/24 25/25/25 22/22/22 
f 25/25/25 24/24/24 26/26/26 
f 26/26/26 27/27/27 25/25/25 
f 27/27/27 26/26/26 28/28/28 
f 27/27/27 28/28/28 29/29/29 
f 30/30/30 31/31/31 32/32/32 
f 33/33/33 30/30/30 32/32/32 
f 30/30/30 33/33/33 34/34/34 
f 35/35/35 34/34/34 33/33/33 
f 34/34/34 35/35/35 36/36/36 
f 37/37/37 38/38/38 35/35/35 
f 38/38/38 37/37/37 39/39/39 
f 40/40/40 39/39/39 37/37/37 
f 39/39/39 40/40/40 41/41/41 
f 40/40/40 42/42/42 41/41/41 
f 43/43/43 44/44/44 45/45/45 
f 44/44/44 43/43/43 46/46/46 
f 47/47/47 48/48/48 49/49/49 
f 48/48/48 47/47/47 50/50/50 
f 51/51/51 52/52/52 53/53/53 
f 52/52/52 51/51/51 54/54/54 
f 55/55/55 56/56/56 57/57/57 
f 56/56/56 55/55/55 58/58/58 
f 59/59/59 60/60/60 61/61/61 
f 61/61/61 60/60/60 62/62/62 
f 63/63/63 64/64/64 65/65/65 
f 66/66/66 64/64/64 63/63/63 
f 67/67/67 64/64/64 66/66/66 
f 68/68/68 69/69/69 70/70/70 
f 71/71/71 68/68/68 70/70/70 
f 70/70/70 72/72/72 71/71/71 
f 73/73/73 74/74/74 75/75/75 
f 76/76/76 73/73/73 75/75/75 
f 73/73/73 76/76/76 77/77/77 
f 78/78/78 79/79/79 80/80/80 
f 81/81/81 79/79/79 78/78/78 
f 81/81/81 78/78/78 82/82/82 
f 83/83/83 84/84/84 85/85/85 
f 84/84/84 86/86/86 85/85/85 
f 87/87/87 88/88/88 89/89/89 
f 90/90/90 88/88/88 87/87/87 
f 87/87/87 91/91/91 90/90/90 
f 91/91/91 87/87/87 92/92/92 
f 93/93/93 88/88/88 90/90/90 
f 92/92/92 94/94/94 91/91/91 
f 95/95/95 94/94/94 92/92/92 
f 94/94/94 95/95/95 96/96/96 
f 95/95/95 92/92/92 97/97/97 
f 98/98/98 88/88/88 93/93/93 
f 93/93/93 99/99/99 98/98/98 
f 93/93/93 100/100/100 99/99/99 
f 101/101/101 99/99/99 100/100/100 
f 100/100/100 102/102/102 101/101/101 
f 102/102/102 100/100/100 103/103/103 
f 103/103/103 104/104/104 102/102/102 
f 105/105/105 88/88/88 98/98/98 
f 105/105/105 106/106/106 88/88/88 
f 106/106/106 105/105/105 107/107/107 
f 108/108/108 106/106/106 107/107/107 
f 107/107/107 105/105/105 109/109/109 
f 110/110/110 108/108/108 107/107/107 
f 108/108/108 110/110/110 111/111/111 
f 111/111/111 110/110/110 112/112/112 
f 109/109/109 105/105/105 113/113/113 
f 113/113/113 114/114/114 109/109/109 
f 114/114/114 113/113/113 115/115/115 
f 115/115/115 116/116/116 114/114/114 
f 115/115/115 117/117/117 116/116/116 
f 116/116/116 117/117/117 118/118/118 
f 117/117/117 119/119/119 118/118/118 
f 120/120/120 121/121/121 122/122/122 
f 121/121/121 120/120/120 123/123/123 
f 120/120/120 124/124/124 123/123/123 
f 124/124/124 120/120/120 125/125/125 
f 126/126/126 127/127/127 128/128/128 
f 129/129/129 127/127/127 126/126/126 
f 126/126/126 130/130/130 129/129/129 
f 129/129/129 130/130/130 131/131/131 
f 131/131/131 130/130/130 132/132/132 
f 133/133/133 134/134/134 135/135/135 
f 136/136/136 135/135/135 134/134/134 
f 134/134/134 137/137/137 136/136/136 
f 137/137/137 138/138/138 136/136/136 
f 138/138/138 137/137/137 139/139/139 
f 140/140/140 141/141/141 142/142/142 
f 143/143/143 140/140/140 142/142/142 
f 144/144/144 140/140/140 143/143/143 
f 140/140/140 144/144/144 145/145/145 
f 146/146/146 143/143/143 142/142/142 
f 145/145/145 144/144/144 147/147/147 
f 148/148/148 145/145/145 147/147/147 
f 148/148/148 149/149/149 145/145/145 
f 147/147/147 150/150/150 148/148/148 
f 151/151/151 146/146/146 142/142/142 
f 152/152/152 146/146/146 151/151/151 
f 146/146/146 152/152/152 153/153/153 
f 154/154/154 153/153/153 152/152/152 
f 155/155/155 153/153/153 154/154/154 
f 153/153/153 155/155/155 156/156/156 
f 156/156/156 155/155/155 157/157/157 
f 158/158/158 151/151/151 142/142/142 
f 159/159/159 158/158/158 142/142/142 
f 158/158/158 159/159/159 160/160/160 
f 161/161/161 160/160/160 159/159/159 
f 162/162/162 158/158/158 160/160/160 
f 163/163/163 160/160/160 161/161/161 
f 163/163/163 161/161/161 164/164/164 
f 164/164/164 165/165/165 163/163/163 
f 162/162/162 166/166/166 158/158/158 
f 166/166/166 162/162/162 167/167/167 
f 167/167/167 168/168/168 166/166/166 
f 168/168/168 167/167/167 169/169/169 
f 168/168/168 169/169/169 170/170/170 
f 169/169/169 171/171/171 170/170/170 
f 170/170/170 171/171/171 172/172/172 
f 173/173/173 174/174/174 175/175/175 
f 175/175/175 176/176/176 173/173/173 
f 177/177/177 173/173/173 176/176/176 
f 173/173/173 177/177/177 178/178/178 
f 179/179/179 180/180/180 181/181/181 
f 182/182/182 179/179/179 181/181/181 
f 179/179/179 182/182/182 183/183/183 
f 182/182/182 184/184/184 183/183/183 
f 184/184/184 185/185/185 183/183/183 
f 186/186/186 187/187/187 188/188/188 
f 189/189/189 188/188/188 187/187/187 
f 188/188/188 189/189/189 190/190/190 
f 190/190/190 189/189/189 191/191/191 
f 191/191/191 192/192/192 190/190/190 
f 193/193/193 194/194/194 195/195/195 
f 193/193/193 195/195/195 196/196/196 
f 197/197/197 194/194/194 193/193/193 
f 194/194/194 197/197/197 198/198/198 
f 199/199/199 198/198/198 197/197/197 
f 198/198/198 199/199/199 200/200/200 
f 201/201/201 202/202/202 203/203/203 
f 203/203/203 202/202/202 204/204/204 
f 201/201/201 205/205/205 202/202/202 
f 206/206/206 205/205/205 201/201/201 
f 206/206/206 207/207/207 205/205/205 
f 207/207/207 206/206/206 208/208/208 
f 209/209/209 210/210/210 211/211/211 
f 210/210/210 209/209/209 212/212/212 
f 212/212/212 209/209/209 213/213/213 
f 214/214/214 212/212/212 213/213/213 
f 213/213/213 215/215/215 214/214/214 
f 215/215/215 213/213/213 216/216/216 
f 216/216/216 217/217/217 215/215/215 
f 218/218/218 219/219/219 220/220/220 
f 219/219/219 218/218/218 221/221/221 
f 222/222/222 218/218/218 220/220/220 
f 222/222/222 220/220/220 223/223/223 
f 222/222/222 223/223/223 224/224/224 
f 222/222/222 224/224/224 225/225/225 
f 225/225/225 224/224/224 226/226/226 
f 227/227/227 228/228/228 229/229/229 
f 228/228/228 227/227/227 230/230/230 
f 230/230/230 231/231/231 228/228/228 
f 229/229/229 232/232/232 227/227/227 
f 233/233/233 232/232/232 229/229/229 
f 232/232/232 233/233/233 234/234/234 
f 235/235/235 236/236/236 237/237/237 
f 235/235/235 238/238/238 236/236/236 
f 239/239/239 238/238/238 235/235/235 
f 237/237/237 236/236/236 240/240/240 
f 240/240/240 241/241/241 237/237/237 
f 241/241/241 240/240/240 242/242/242 
f 243/243/243 244/244/244 245/245/245 
f 243/243/243 246/246/246 244/244/244 
f 246/246/246 243/243/243 247/247/247 
f 245/245/245 244/244/244 248/248/248 
f 245/245/245 248/248/248 249/249/249 
f 249/249/249 248/248/248 250/250/250 
f 251/251/251 252/252/252 253/253/253 
f 254/254/254 253/253/253 252/252/252 
f 253/253/253 254/254/254 255/255/255 
f 252/252/252 251/251/251 256/256/256 
f 257/257/257 256/256/256 251/251/251 
f 256/256/256 257/257/257 258/258/258 
f 259/259/259 260/260/260 261/261/261 
f 260/260/260 262/262/262 261/261/261 
f 262/262/262 260/260/260 263/263/263 
f 264/264/264 265/265/265 266/266/266 
f 267/267/267 266/266/266 265/265/265 
f 266/266/266 267/267/267 268/268/268 
f 269/269/269 270/270/270 271/271/271 
f 271/271/271 270/270/270 272/272/272 
f 273/273/273 274/274/274 275/275/275 
f 275/275/275 274/274/274 276/276/276 
f 277/277/277 278/278/278 279/279/279 
f 277/277/277 280/280/280 278/278/278 
f 280/280/280 281/281/281 278/278/278 
f 280/280/280 282/282/282 281/281/281 
f 280/280/280 283/283/283 282/282/282 
f 284/284/284 285/285/285 286/286/286 
f 286/286/286 287/287/287 284/284/284 
f 287/287/287 286/286/286 288/288/288 
f 288/288/288 289/289/289 287/287/287 
f 290/290/290 287/287/287 289/289/289 
f 291/291/291 292/292/292 293/293/293 
f 292/292/292 291/291/291 294/294/294 
f 295/295/295 296/296/296 297/297/297 
f 296/296/296 295/295/295 298/298/298 
f 299/299/299 300/300/300 301/301/301 
f 300/300/300 299/299/299 302/302/302 
f 303/303/303 304/304/304 305/305/305 
f 304/304/304 303/303/303 306/306/306 
f 307/307/307 308/308/308 309/309/309 
f 308/308/308 307/307/307 310/310/310 
f 311/311/311 312/312/312 313/313/313 
f 311/311/311 314/314/314 312/312/312 
f 315/315/315 316/316/316 317/317/317 
f 316/316/316 315/315/315 318/318/318 
f 319/319/319 320/320/320 321/321/321 
f 319/319/319 321/321/321 322/322/322 
f 323/323/323 324/324/324 325/325/325 
f 324/324/324 323/323/323 326/326/326 
f 327/327/327 328/328/328 329/329/329 
f 329/329/329 330/330/330 327/327/327 
f 330/330/330 329/329/329 331/331/331 
f 332/332/332 333/333/333 334/334/334 
f 335/335/335 333/333/333 332/332/332 
f 333/333/333 335/335/335 336/336/336 
f 337/337/337 338/338/338 339/339/339 
f 340/340/340 338/338/338 337/337/337 
f 341/341/341 338/338/338 340/340/340 
f 337/337/337 339/339/339 342/342/342 
f 342/342/342 339/339/339 343/343/343 
f 342/342/342 343/343/343 344/344/344 
f 345/345/345 346/346/346 347/347/347 
f 345/345/345 347/347/347 348/348/348 
f 348/348/348 347/347/347 349/349/349 
f 350/350/350 346/346/346 345/345/345 
f 351/351/351 346/346/346 350/350/350 
f 352/352/352 351/351/351 350/350/350 
f 353/353/353 354/354/354 355/355/355 
f 355/355/355 354/354/354 356/356/356 
f 353/353/353 357/357/357 354/354/354 
f 353/353/353 358/358/358 357/357/357 
f 359/359/359 360/360/360 361/361/361 
f 361/361/361 360/360/360 362/362/362 
f 359/359/359 361/361/361 363/363/363 
f 359/359/359 363/363/363 364/364/364 
f 365/365/365 366/366/366 367/367/367 
f 365/365/365 367/367/367 368/368/368 
f 366/366/366 369/369/369 367/367/367 
f 369/369/369 366/366/366 370/370/370 
f 371/371/371 372/372/372 373/373/373 
f 374/374/374 373/373/373 372/372/372 
f 375/375/375 374/374/374 372/372/372 
f 374/374/374 375/375/375 376/376/376 
f 377/377/377 378/378/378 379/379/379 
f 377/377/377 380/380/380 378/378/378 
f 380/380/380 377/377/377 381/381/381 
f 381/381/381 382/382/382 380/380/380 
f 383/383/383 380/380/380 382/382/382 
f 384/384/384 383/383/383 382/382/382 
f 384/384/384 382/382/382 385/385/385 
f 386/386/386 387/387/387 388/388/388 
f 389/389/389 386/386/386 388/388/388 
f 386/386/386 389/389/389 390/390/390 
f 389/389/389 391/391/391 390/390/390 
f 389/389/389 392/392/392 391/391/391 
f 393/393/393 391/391/391 392/392/392 
f 391/391/391 393/393/393 394/394/394 
f 395/395/395 396/396/396 397/397/397 
f 395/395/395 397/397/397 398/398/398 
f 399/399/399 396/396/396 395/395/395 
f 399/399/399 400/400/400 396/396/396 
f 401/401/401 400/400/400 399/399/399 
f 400/400/400 401/401/401 402/402/402 
f 403/403/403 404/404/404 405/405/405 
f 404/404/404 403/403/403 406/406/406 
f 407/407/407 406/406/406 403/403/403 
f 406/406/406 407/407/407 408/408/408 
f 407/407/407 409/409/409 408/408/408 
f 407/407/407 410/410/410 409/409/409 
f 411/411/411 412/412/412 413/413/413 
f 413/413/413 412/412/412 414/414/414 
f 411/411/411 415/415/415 412/412/412 
f 415/415/415 411/411/411 416/416/416 
f 416/416/416 417/417/417 415/415/415 
f 417/417/417 416/416/416 418/418/418 
f 419/419/419 420/420/420 421/421/421 
f 421/421/421 420/420/420 422/422/422 
f 421/421/421 422/422/422 423/423/423 
f 423/423/423 422/422/422 424/424/424 
f 425/425/425 423/423/423 424/424/424 
f 423/423/423 425/425/425 426/426/426 
f 427/427/427 428/428/428 429/429/429 
f 429/429/429 428/428/428 430/430/430 
f 427/427/427 431/431/431 428/428/428 
f 432/432/432 431/431/431 427/427/427 
f 432/432/432 433/433/433 431/431/431 
f 433/433/433 434/434/434 431/431/431 
f 435/435/435 436/436/436 437/437/437 
f 437/437/437 438/438/438 435/435/435 
f 436/436/436 435/435/435 439/439/439 
f 439/439/439 440/440/440 436/436/436 
f 440/440/440 439/439/439 441/441/441 
f 441/441/441 439/439/439 442/442/442 
f 443/443/443 444/444/444 445/445/445 
f 444/444/444 443/443/443 446/446/446 
f 443/443/443 447/447/447 446/446/446 
f 447/447/447 443/443/443 448/448/448 
f 448/448/448 449/449/449 447/447/447 
f 449/449/449 448/448/448 450/450/450 
f 450/450/450 451/451/451 449/449/449 
f 452/452/452 451/451/451 450/450/450 
f 452/452/452 453/453/453 451/451/451 
f 454/454/454 453/453/453 452/452/452 
f 454/454/454 455/455/455 453/453/453 
f 455/455/455 454/454/454 456/456/456 
f 457/457/457 455/455/455 456/456/456 
f 455/455/455 457/457/457 458/458/458 
f 459/459/459 458/458/458 457/457/457 
f 458/458/458 459/459/459 460/460/460 
f 459/459/459 461/461/461 460/460/460 
f 461/461/461 462/462/462 460/460/460 
f 463/463/463 462/462/462 461/461/461 
f 462/462/462 463/463/463 464/464/464 
f 463/463/463 465/465/465 464/464/464 
f 466/466/466 465/465/465 463/463/463 
f 467/467/467 468/468/468 469/469/469 
f 470/470/470 471/471/471 472/472/472 
f 473/473/473 474/474/474 475/475/475 
f 476/476/476 477/477/477 478/478/478 
f 479/479/479 480/480/480 481/481/481 
f 479/479/479 482/482/482 480/480/480 
f 482/482/482 479/479/479 483/483/483 
f 483/483/483 484/484/484 482/482/482 
f 484/484/484 485/485/485 482/482/482 
f 486/486/486 487/487/487 488/488/488 
f 489/489/489 486/486/486 488/488/488 
f 489/489/489 490/490/490 486/486/486 
f 489/489/489 491/491/491 490/490/490 
f 489/489/489 492/492/492 491/491/491 
f 493/493/493 494/494/494 495/495/495 
f 493/493/493 496/496/496 494/494/494 
f 496/496/496 493/493/493 497/497/497 
f 498/498/498 499/499/499 500/500/500 
f 501/501/501 498/498/498 500/500/500 
f 498/498/498 501/501/501 502/502/502 
f 503/503/503 504/504/504 505/505/505 
f 504/504/504 503/503/503 506/506/506 
f 504/504/504 506/506/506 507/507/507 
f 503/503/503 505/505/505 508/508/508 
f 508/508/508 505/505/505 509/509/509 
f 508/508/508 509/509/509 510/510/510 
f 511/511/511 512/512/512 513/513/513 
f 513/513/513 514/514/514 511/511/511 
f 514/514/514 513/513/513 515/515/515 
f 512/512/512 511/511/511 516/516/516 
f 512/512/512 516/516/516 517/517/517 
f 517/517/517 516/516/516 518/518/518 
f 519/519/519 520/520/520 521/521/521 
f 519/519/519 521/521/521 522/522/522 
f 523/523/523 524/524/524 525/525/525 
f 524/524/524 523/523/523 526/526/526 
f 527/527/527 528/528/528 529/529/529 
f 528/528/528 527/527/527 530/530/530 
f 531/531/531 532/532/532 533/533/533 
f 532/532/532 531/531/531 534/534/534 
f 535/535/535 536/536/536 537/537/537 
f 538/538/538 539/539/539 540/540/540 
f 540/540/540 539/539/539 541/541/541 
f 542/542/542 543/543/543 544/544/544 
f 545/545/545 546/546/546 547/547/547 
f 546/546/546 548/548/548 547/547/547 
f 549/549/549 550/550/550 551/551/551 
f 550/550/550 549/549/549 552/552/552 
f 553/553/553 554/554/554 555/555/555 
f 554/554/554 553/553/553 556/556/556 
f 557/557/557 558/558/558 559/559/559 
f 560/560/560 558/558/558 557/557/557 
f 557/557/557 561/561/561 560/560/560 
f 561/561/561 557/557/557 562/562/562 
f 563/563/563 558/558/558 560/560/560 
f 562/562/562 564/564/564 561/561/561 
f 565/565/565 564/564/564 562/562/562 
f 564/564/564 565/565/565 566/566/566 
f 565/565/565 562/562/562 567/567/567 
f 568/568/568 558/558/558 563/563/563 
f 563/563/563 569/569/569 568/568/568 
f 563/563/563 570/570/570 569/569/569 
f 571/571/571 569/569/569 570/570/570 
f 570/570/570 572/572/572 571/571/571 
f 572/572/572 570/570/570 573/573/573 
f 573/573/573 574/574/574 572/572/572 
f 575/575/575 558/558/558 568/568/568 
f 575/575/575 576/576/576 558/558/558 
f 576/576/576 575/575/575 577/577/577 
f 578/578/578 576/576/576 577/577/577 
f 577/577/577 575/575/575 579/579/579 
f 580/580/580 578/578/578 577/577/577 
f 578/578/578 580/580/580 581/581/581 
f 581/581/581 580/580/580 582/582/582 
f 579/579/579 575/575/575 583/583/583 
f 583/583/583 584/584/584 579/579/579 
f 584/584/584 583/583/583 585/585/585 
f 585/585/585 586/586/586 584/584/584 
f 585/585/585 587/587/587 586/586/586 
f 586/586/586 587/587/587 588/588/588 
f 587/587/587 589/589/589 588/588/588 
f 590/590/590 591/591/591 592/592/592 
f 591/591/591 590/590/590 593/593/593 
f 590/590/590 594/594/594 593/593/593 
f 594/594/594 590/590/590 595/595/595 
f 596/596/596 597/597/597 598/598/598 
f 599/599/599 597/597/597 596/596/596 
f 596/596/596 600/600/600 599/599/599 
f 599/599/599 600/600/600 601/601/601 
f 601/601/601 600/600/600 602/602/602 
f 603/603/603 604/604/604 605/605/605 
f 606/606/606 605/605/605 604/604/604 
f 604/604/604 607/607/607 606/606/606 
f 607/607/607 608/608/608 606/606/606 
f 608/608/608 607/607/607 609/609/609 
f 610/610/610 611/611/611 612/612/612 
f 613/613/613 610/610/610 612/612/612 
f 614/614/614 610/610/610 613/613/613 
f 610/610/610 614/614/614 615/615/615 
f 616/616/616 613/613/613 612/612/612 
f 615/615/615 614/614/614 617/617/617 
f 618/618/618 615/615/615 617/617/617 
f 618/618/618 619/619/619 615/615/615 
f 617/617/617 620/620/620 618/618/618 
f 621/621/621 616/616/616 612/612/612 
f 622/622/622 616/616/616 621/621/621 
f 616/616/616 622/622/622 623/623/623 
f 624/624/624 623/623/623 622/622/622 
f 625/625/625 623/623/623 624/624/624 
f 623/623/623 625/625/625 626/626/626 
f 626/626/626 625/625/625 627/627/627 
f 628/628/628 621/621/621 612/612/612 
f 629/629/629 628/628/628 612/612/612 
f 628/628/628 629/629/629 630/630/630 
f 631/631/631 630/630/630 629/629/629 
f 632/632/632 628/628/628 630/630/630 
f 633/633/633 630/630/630 631/631/631 
f 633/633/633 631/631/631 634/634/634 
f 634/634/634 635/635/635 633/633/633 
f 632/632/632 636/636/636 628/628/628 
f 636/636/636 632/632/632 637/637/637 
f 637/637/637 638/638/638 636/636/636 
f 638/638/638 637/637/637 639/639/639 
f 638/638/638 639/639/639 640/640/640 
f 639/639/639 641/641/641 640/640/640 
f 640/640/640 641/641/641 642/642/642 
f 643/643/643 644/644/644 645/645/645 
f 645/645/645 646/646/646 643/643/643 
f 647/647/647 643/643/643 646/646/646 
f 643/643/643 647/647/647 648/648/648 
f 649/649/649 650/650/650 651/651/651 
f 652/652/652 649/649/649 651/651/651 
f 649/649/649 652/652/652 653/653/653 
f 652/652/652 654/654/654 653/653/653 
f 654/654/654 655/655/655 653/653/653 
f 656/656/656 657/657/657 658/658/658 
f 659/659/659 658/658/658 657/657/657 
f 658/658/658 659/659/659 660/660/660 
f 660/660/660 659/659/659 661/661/661 
f 661/661/661 662/662/662 660/660/660 
f 663/663/663 664/664/664 665/665/665 
f 666/666/666 664/664/664 663/663/663 
f 667/667/667 664/664/664 666/666/666 
f 668/668/668 667/667/667 666/666/666 
f 667/667/667 668/668/668 669/669/669 
f 670/670/670 671/671/671 672/672/672 
f 673/673/673 670/670/670 672/672/672 
f 674/674/674 673/673/673 672/672/672 
f 675/675/675 673/673/673 674/674/674 
f 674/674/674 676/676/676 675/675/675 
f 677/677/677 678/678/678 679/679/679 
f 677/677/677 680/680/680 678/678/678 
f 680/680/680 677/677/677 681/681/681 
f 682/682/682 680/680/680 681/681/681 
f 683/683/683 680/680/680 682/682/682 
f 684/684/684 685/685/685 686/686/686 
f 687/687/687 684/684/684 686/686/686 
f 684/684/684 687/687/687 688/688/688 
f 689/689/689 688/688/688 687/687/687 
f 690/690/690 689/689/689 687/687/687 

