# This file is brought to you by Roblox Corporation
# Generated by Roblox Studio

mtllib anonimpet.mtl

g Pet1

v -0.85293 0.92596 0.852056 
v 0.00371993 0.931757 0.855199 
v 0.00360674 0.810587 0.0994057 
v -0.838778 0.807512 -0.105521 
v 0.846765 0.815245 0.318137 
v 0.86037 0.883712 0.858341 
v 0.86076 0.85138 -0.858341 
v 0.00345983 0.833612 -0.858311 
v -0.853845 0.852497 -0.858274 
v 0.00346208 -0.612344 -0.858169 
v -0.827362 0.132505 -0.858169 
v 0.00345983 0.833612 -0.858311 
v -0.853845 0.852497 -0.858274 
v -0.853837 -0.589261 -0.858169 
v 0.83457 0.132505 -0.858169 
v 0.860768 -0.589261 -0.858169 
v 0.86076 0.85138 -0.858341 
v -0.88698 0.11089 0.856436 
v -0.846008 -0.713118 0.364396 
v -0.853838 -0.674755 0.856436 
v -0.838508 0.0608723 -0.106424 
v -0.838508 -0.724697 -0.106415 
v -0.846608 -0.686102 -0.526035 
v -0.838778 0.807512 -0.105521 
v -0.85293 0.92596 0.852056 
v -0.827362 0.132505 -0.858169 
v -0.853837 -0.589261 -0.858169 
v -0.853845 0.852497 -0.858274 
v 0.853267 -0.712582 0.582331 
v 0.88698 0.11089 0.856436 
v 0.860767 -0.674755 0.856436 
v 0.846097 0.0619973 0.320052 
v 0.846097 -0.723646 0.320052 
v 0.853537 -0.686102 -0.377659 
v 0.846765 0.815245 0.318137 
v 0.86037 0.883712 0.858341 
v 0.83457 0.132505 -0.858169 
v 0.860768 -0.589261 -0.858169 
v 0.86076 0.85138 -0.858341 
v -0.853838 -0.674755 0.856436 
v 0.00346193 -0.701995 0.856436 
v -0.88698 0.11089 0.856436 
v 0.00371993 0.931757 0.855199 
v -0.85293 0.92596 0.852056 
v 0.88698 0.11089 0.856436 
v 0.86037 0.883712 0.858341 
v 0.860767 -0.674755 0.856436 
v 0.436363 -0.618393 -0.480364 
v 0.47477 -0.618393 -0.146835 
v 0.482984 -0.784196 -0.140658 
v 0.442958 -0.784196 -0.488248 
v 0.499491 -0.618393 0.450244 
v 0.147518 -0.618393 0.484732 
v 0.14079 -0.784196 0.492502 
v 0.5076 -0.784196 0.45656 
v -0.486039 -0.618393 0.455811 
v -0.126917 -0.784196 0.494324 
v -0.133726 -0.618393 0.486625 
v -0.494082 -0.784196 0.462211 
v -0.463618 -0.784196 -0.128087 
v -0.426322 -0.618393 -0.468944 
v -0.433132 -0.784196 -0.476644 
v -0.455575 -0.618393 -0.134488 
v 0.109936 -0.931757 0.52813 
v 0.504333 -0.931757 0.0727133 
v 0.544783 -0.931757 0.485521 
v 0.069486 -0.931757 0.115322 
v -0.53096 -0.931757 0.491558 
v -0.0595523 -0.931757 0.116421 
v -0.0956925 -0.931757 0.529628 
v -0.49482 -0.931757 0.0783509 
v -0.500496 -0.931757 -0.0987406 
v -0.029088 -0.931757 -0.473878 
v -0.0652282 -0.931757 -0.0606705 
v -0.464356 -0.931757 -0.511948 
v 0.086592 -0.931757 -0.062349 
v 0.473204 -0.931757 -0.524394 
v 0.520654 -0.931757 -0.112332 
v 0.0391418 -0.931757 -0.47441 
v -0.494082 -0.784196 0.462211 
v -0.456787 -0.618393 0.121354 
v -0.463596 -0.784196 0.113655 
v -0.486039 -0.618393 0.455811 
v 0.466751 -0.618393 0.116111 
v 0.499491 -0.618393 0.450244 
v 0.5076 -0.784196 0.45656 
v 0.47348 -0.784196 0.108341 
v -0.433132 -0.784196 -0.476644 
v -0.0740092 -0.618393 -0.438131 
v -0.0659662 -0.784196 -0.44453 
v -0.426322 -0.618393 -0.468944 
v 0.442958 -0.784196 -0.488248 
v 0.0768105 -0.784196 -0.446085 
v 0.085026 -0.618393 -0.439907 
v 0.436363 -0.618393 -0.480364 
v 0.442958 -0.784196 -0.488248 
v 0.482984 -0.784196 -0.140658 
v 0.520654 -0.931757 -0.112332 
v 0.473204 -0.931757 -0.524394 
v 0.5076 -0.784196 0.45656 
v 0.14079 -0.784196 0.492502 
v 0.109936 -0.931757 0.52813 
v 0.544783 -0.931757 0.485521 
v -0.494082 -0.784196 0.462211 
v -0.0956925 -0.931757 0.529628 
v -0.126917 -0.784196 0.494324 
v -0.53096 -0.931757 0.491558 
v -0.500496 -0.931757 -0.0987406 
v -0.433132 -0.784196 -0.476644 
v -0.464356 -0.931757 -0.511948 
v -0.463618 -0.784196 -0.128087 
v -0.53096 -0.931757 0.491558 
v -0.463596 -0.784196 0.113655 
v -0.49482 -0.931757 0.0783509 
v -0.494082 -0.784196 0.462211 
v -0.464356 -0.931757 -0.511948 
v -0.0659662 -0.784196 -0.44453 
v -0.029088 -0.931757 -0.473878 
v -0.433132 -0.784196 -0.476644 
v 0.47348 -0.784196 0.108341 
v 0.5076 -0.784196 0.45656 
v 0.544783 -0.931757 0.485521 
v 0.504333 -0.931757 0.0727133 
v 0.473204 -0.931757 -0.524394 
v 0.0391418 -0.931757 -0.47441 
v 0.0768105 -0.784196 -0.446085 
v 0.442958 -0.784196 -0.488248 
v 0.00346196 -0.71508 0.470323 
v 0.853267 -0.712582 0.582331 
v 0.00346193 -0.701995 0.856436 
v 0.860767 -0.674755 0.856436 
v -0.853838 -0.674755 0.856436 
v 0.846097 -0.723646 0.320052 
v -0.846008 -0.713118 0.364396 
v 0.00346199 -0.728535 0.100867 
v 0.853537 -0.686102 -0.377659 
v -0.838508 -0.724697 -0.106415 
v 0.00346204 -0.686102 -0.451847 
v 0.860768 -0.589261 -0.858169 
v -0.846608 -0.686102 -0.526035 
v 0.00346208 -0.612344 -0.858169 
v -0.853837 -0.589261 -0.858169 
v 0.147518 -0.618393 0.484732 
v 0.106669 -0.784196 0.144283 
v 0.14079 -0.784196 0.492502 
v 0.114778 -0.618393 0.150599 
v -0.133726 -0.618393 0.486625 
v -0.0964305 -0.784196 0.145768 
v -0.104474 -0.618393 0.152168 
v -0.126917 -0.784196 0.494324 
v 0.47477 -0.618393 -0.146835 
v 0.123433 -0.618393 -0.106378 
v 0.116837 -0.784196 -0.0984945 
v 0.482984 -0.784196 -0.140658 
v -0.455575 -0.618393 -0.134488 
v -0.0964522 -0.784196 -0.0959745 
v -0.103261 -0.618393 -0.103673 
v -0.463618 -0.784196 -0.128087 
v -0.103261 -0.618393 -0.103673 
v -0.0659662 -0.784196 -0.44453 
v -0.0740092 -0.618393 -0.438131 
v -0.0964522 -0.784196 -0.0959745 
v 0.123433 -0.618393 -0.106378 
v 0.0768105 -0.784196 -0.446085 
v 0.116837 -0.784196 -0.0984945 
v 0.085026 -0.618393 -0.439907 
v 0.47348 -0.784196 0.108341 
v 0.106669 -0.784196 0.144283 
v 0.114778 -0.618393 0.150599 
v 0.466751 -0.618393 0.116111 
v -0.463596 -0.784196 0.113655 
v -0.104474 -0.618393 0.152168 
v -0.0964305 -0.784196 0.145768 
v -0.456787 -0.618393 0.121354 
v 0.14079 -0.784196 0.492502 
v 0.069486 -0.931757 0.115322 
v 0.109936 -0.931757 0.52813 
v 0.106669 -0.784196 0.144283 
v -0.126917 -0.784196 0.494324 
v -0.0595523 -0.931757 0.116421 
v -0.0964305 -0.784196 0.145768 
v -0.0956925 -0.931757 0.529628 
v 0.482984 -0.784196 -0.140658 
v 0.116837 -0.784196 -0.0984945 
v 0.086592 -0.931757 -0.062349 
v 0.520654 -0.931757 -0.112332 
v -0.463618 -0.784196 -0.128087 
v -0.0652282 -0.931757 -0.0606705 
v -0.0964522 -0.784196 -0.0959745 
v -0.500496 -0.931757 -0.0987406 
v -0.0964522 -0.784196 -0.0959745 
v -0.029088 -0.931757 -0.473878 
v -0.0659662 -0.784196 -0.44453 
v -0.0652282 -0.931757 -0.0606705 
v 0.116837 -0.784196 -0.0984945 
v 0.0391418 -0.931757 -0.47441 
v 0.086592 -0.931757 -0.062349 
v 0.0768105 -0.784196 -0.446085 
v 0.504333 -0.931757 0.0727133 
v 0.069486 -0.931757 0.115322 
v 0.106669 -0.784196 0.144283 
v 0.47348 -0.784196 0.108341 
v -0.49482 -0.931757 0.0783509 
v -0.0964305 -0.784196 0.145768 
v -0.0595523 -0.931757 0.116421 
v -0.463596 -0.784196 0.113655 

vn 0.015748 0.992126 -0.141732 
vn 0.0314961 0.992126 -0.141732 
vn 0.00787402 1 -0.0551181 
vn 0.00787402 1 -0.0472441 
vn 0.015748 1 -0.0629921 
vn 0.0472441 0.992126 -0.141732 
vn -0.015748 1 0.0314961 
vn -0.00787402 1 0.0314961 
vn 0.00787402 1 0.0393701 
vn 0 0 -1 
vn 0 0 -1 
vn 0 0 -1 
vn 0 0 -1 
vn 0 0 -1 
vn 0 0 -1 
vn 0 0 -1 
vn 0 0 -1 
vn -1 0 -0.0393701 
vn -1 -0.015748 -0.023622 
vn -1 -0.0314961 -0.0393701 
vn -1 0 -0.00787402 
vn -1 0 0 
vn -1 0.015748 0.00787402 
vn -1 0 -0.015748 
vn -1 0.023622 -0.0314961 
vn -1 0 0 
vn -1 0.023622 0 
vn -1 -0.015748 0 
vn 1 -0.00787402 -0.0393701 
vn 1 0 -0.0551181 
vn 1 -0.023622 -0.0551181 
vn 1 0 -0.023622 
vn 1 0 -0.00787402 
vn 1 0.00787402 0.00787402 
vn 1 0 -0.023622 
vn 1 0.015748 -0.0551181 
vn 1 0 0 
vn 1 0.023622 0 
vn 1 -0.015748 0 
vn 0 0 1 
vn 0 0 1 
vn 0 0 1 
vn 0 0 1 
vn 0 0 1 
vn 0 0 1 
vn 0 0 1 
vn 0 0 1 
vn 0.992126 0.0472441 -0.110236 
vn 0.992126 0.0472441 -0.110236 
vn 0.992126 0.0472441 -0.110236 
vn 0.992126 0.0472441 -0.110236 
vn 0.0944882 0.0393701 0.992126 
vn 0.0944882 0.0393701 0.992126 
vn 0.0944882 0.0393701 0.992126 
vn 0.0944882 0.0393701 0.992126 
vn -0.0866142 0.0393701 0.992126 
vn -0.0866142 0.0393701 0.992126 
vn -0.0866142 0.0393701 0.992126 
vn -0.0866142 0.0393701 0.992126 
vn -0.992126 0.0472441 -0.0866142 
vn -0.992126 0.0472441 -0.0866142 
vn -0.992126 0.0472441 -0.0866142 
vn -0.992126 0.0472441 -0.0866142 
vn 0 -1 0 
vn 0 -1 0 
vn 0 -1 0 
vn 0 -1 0 
vn 0 -1 0 
vn 0 -1 0 
vn 0 -1 0 
vn 0 -1 0 
vn 0 -1 0 
vn 0 -1 0 
vn 0 -1 0 
vn 0 -1 0 
vn 0 -1 0 
vn 0 -1 0 
vn 0 -1 0 
vn 0 -1 0 
vn -0.992126 0.0472441 -0.0866142 
vn -0.992126 0.0472441 -0.0866142 
vn -0.992126 0.0472441 -0.0866142 
vn -0.992126 0.0472441 -0.0866142 
vn 0.992126 0.0472441 -0.0944882 
vn 0.992126 0.0472441 -0.0944882 
vn 0.992126 0.0472441 -0.0944882 
vn 0.992126 0.0472441 -0.0944882 
vn 0.0866142 0.0393701 -0.992126 
vn 0.0866142 0.0393701 -0.992126 
vn 0.0866142 0.0393701 -0.992126 
vn 0.0866142 0.0393701 -0.992126 
vn -0.110236 0.0393701 -0.992126 
vn -0.110236 0.0393701 -0.992126 
vn -0.110236 0.0393701 -0.992126 
vn -0.110236 0.0393701 -0.992126 
vn 0.968504 0.228346 -0.110236 
vn 0.968504 0.228346 -0.110236 
vn 0.968504 0.228346 -0.110236 
vn 0.968504 0.228346 -0.110236 
vn 0.0944882 0.212598 0.968504 
vn 0.0944882 0.212598 0.968504 
vn 0.0944882 0.212598 0.968504 
vn 0.0944882 0.212598 0.968504 
vn -0.0866142 0.212598 0.976378 
vn -0.0866142 0.212598 0.976378 
vn -0.0866142 0.212598 0.976378 
vn -0.0866142 0.212598 0.976378 
vn -0.968504 0.228346 -0.0866142 
vn -0.968504 0.228346 -0.0866142 
vn -0.968504 0.228346 -0.0866142 
vn -0.968504 0.228346 -0.0866142 
vn -0.968504 0.228346 -0.0866142 
vn -0.968504 0.228346 -0.0866142 
vn -0.968504 0.228346 -0.0866142 
vn -0.968504 0.228346 -0.0866142 
vn 0.0866142 0.212598 -0.976378 
vn 0.0866142 0.212598 -0.976378 
vn 0.0866142 0.212598 -0.976378 
vn 0.0866142 0.212598 -0.976378 
vn 0.968504 0.228346 -0.0944882 
vn 0.968504 0.228346 -0.0944882 
vn 0.968504 0.228346 -0.0944882 
vn 0.968504 0.228346 -0.0944882 
vn -0.110236 0.212598 -0.968504 
vn -0.110236 0.212598 -0.968504 
vn -0.110236 0.212598 -0.968504 
vn -0.110236 0.212598 -0.968504 
vn -0.00787402 -1 0.0551181 
vn 0.00787402 -1 0.0551181 
vn -0.00787402 -1 0.0708661 
vn 0.015748 -1 0.0787402 
vn -0.023622 -1 0.0551181 
vn 0.00787402 -1 -0.015748 
vn -0.015748 -1 0.0472441 
vn 0 -1 -0.023622 
vn 0.015748 -0.992126 -0.125984 
vn 0 -1 -0.023622 
vn 0.00787402 -0.992126 -0.141732 
vn 0.023622 -0.984252 -0.188976 
vn 0.00787402 -0.984252 -0.15748 
vn 0.00787402 -0.976378 -0.204724 
vn 0 -0.976378 -0.228346 
vn -0.992126 0.0472441 0.0944882 
vn -0.992126 0.0472441 0.0944882 
vn -0.992126 0.0472441 0.0944882 
vn -0.992126 0.0472441 0.0944882 
vn 0.992126 0.0472441 0.0866142 
vn 0.992126 0.0472441 0.0866142 
vn 0.992126 0.0472441 0.0866142 
vn 0.992126 0.0472441 0.0866142 
vn 0.110236 0.0393701 0.992126 
vn 0.110236 0.0393701 0.992126 
vn 0.110236 0.0393701 0.992126 
vn 0.110236 0.0393701 0.992126 
vn -0.0866142 0.0393701 0.992126 
vn -0.0866142 0.0393701 0.992126 
vn -0.0866142 0.0393701 0.992126 
vn -0.0866142 0.0393701 0.992126 
vn 0.992126 0.0472441 0.0866142 
vn 0.992126 0.0472441 0.0866142 
vn 0.992126 0.0472441 0.0866142 
vn 0.992126 0.0472441 0.0866142 
vn -0.992126 0.0472441 0.110236 
vn -0.992126 0.0472441 0.110236 
vn -0.992126 0.0472441 0.110236 
vn -0.992126 0.0472441 0.110236 
vn -0.0944882 0.0393701 -0.992126 
vn -0.0944882 0.0393701 -0.992126 
vn -0.0944882 0.0393701 -0.992126 
vn -0.0944882 0.0393701 -0.992126 
vn 0.0866142 0.0393701 -0.992126 
vn 0.0866142 0.0393701 -0.992126 
vn 0.0866142 0.0393701 -0.992126 
vn 0.0866142 0.0393701 -0.992126 
vn -0.968504 0.228346 0.0944882 
vn -0.968504 0.228346 0.0944882 
vn -0.968504 0.228346 0.0944882 
vn -0.968504 0.228346 0.0944882 
vn 0.968504 0.228346 0.0866142 
vn 0.968504 0.228346 0.0866142 
vn 0.968504 0.228346 0.0866142 
vn 0.968504 0.228346 0.0866142 
vn 0.110236 0.212598 0.968504 
vn 0.110236 0.212598 0.968504 
vn 0.110236 0.212598 0.968504 
vn 0.110236 0.212598 0.968504 
vn -0.0866142 0.212598 0.976378 
vn -0.0866142 0.212598 0.976378 
vn -0.0866142 0.212598 0.976378 
vn -0.0866142 0.212598 0.976378 
vn 0.968504 0.228346 0.0866142 
vn 0.968504 0.228346 0.0866142 
vn 0.968504 0.228346 0.0866142 
vn 0.968504 0.228346 0.0866142 
vn -0.968504 0.228346 0.110236 
vn -0.968504 0.228346 0.110236 
vn -0.968504 0.228346 0.110236 
vn -0.968504 0.228346 0.110236 
vn -0.0944882 0.212598 -0.968504 
vn -0.0944882 0.212598 -0.968504 
vn -0.0944882 0.212598 -0.968504 
vn -0.0944882 0.212598 -0.968504 
vn 0.0866142 0.212598 -0.976378 
vn 0.0866142 0.212598 -0.976378 
vn 0.0866142 0.212598 -0.976378 
vn 0.0866142 0.212598 -0.976378 

vt 0.362213 0.330025 
vt 0.356964 0.496741 
vt 0.205935 0.491441 
vt 0.169237 0.320271 
vt 0.245218 0.659681 
vt 0.352497 0.665405 
vt 0.013892 0.658002 
vt 0.017666 0.48936 
vt 0.017859 0.323063 
vt 0.707272 0.182523 
vt 0.851696 0.019612 
vt 0.989469 0.182357 
vt 0.992848 0.014168 
vt 0.709917 0.015226 
vt 0.851785 0.345268 
vt 0.710056 0.349963 
vt 0.992703 0.350493 
vt 0.355903 0.171636 
vt 0.254673 0.012641 
vt 0.351848 0.017046 
vt 0.165985 0.169129 
vt 0.162319 0.013066 
vt 0.080291 0.022033 
vt 0.169237 0.320271 
vt 0.362213 0.330025 
vt 0.018462 0.183941 
vt 0.014968 0.042101 
vt 0.017859 0.323063 
vt 0.399182 0.672452 
vt 0.347865 0.831212 
vt 0.346049 0.680053 
vt 0.450833 0.822082 
vt 0.449993 0.670323 
vt 0.585023 0.677583 
vt 0.449837 0.967866 
vt 0.34442 0.979749 
vt 0.677959 0.835995 
vt 0.677831 0.696274 
vt 0.677702 0.975151 
vt 0.014233 0.677588 
vt 0.179778 0.673126 
vt 0.006941 0.829242 
vt 0.17801 0.988948 
vt 0.012408 0.986674 
vt 0.347865 0.831212 
vt 0.34442 0.979749 
vt 0.346049 0.680053 
vt 0.955391 0.834961 
vt 0.964389 0.773823 
vt 0.933036 0.765791 
vt 0.923212 0.834514 
vt 0.955391 0.834961 
vt 0.962322 0.902212 
vt 0.930436 0.908734 
vt 0.923212 0.834514 
vt 0.955391 0.834961 
vt 0.930436 0.908734 
vt 0.962322 0.902212 
vt 0.923212 0.834514 
vt 0.933036 0.765791 
vt 0.955391 0.834961 
vt 0.923212 0.834514 
vt 0.964389 0.773823 
vt 0.901369 0.916183 
vt 0.813021 0.84004 
vt 0.893507 0.833102 
vt 0.821116 0.925618 
vt 0.893507 0.833102 
vt 0.821116 0.925618 
vt 0.901369 0.916183 
vt 0.813044 0.840236 
vt 0.813021 0.84004 
vt 0.901369 0.916183 
vt 0.821116 0.925618 
vt 0.893507 0.833102 
vt 0.821116 0.925618 
vt 0.893507 0.833102 
vt 0.813021 0.84004 
vt 0.901369 0.916183 
vt 0.923212 0.834514 
vt 0.964389 0.773823 
vt 0.933036 0.765791 
vt 0.955391 0.834961 
vt 0.964389 0.773823 
vt 0.955391 0.834961 
vt 0.923212 0.834514 
vt 0.933036 0.765791 
vt 0.923212 0.834514 
vt 0.962322 0.902212 
vt 0.930436 0.908734 
vt 0.955391 0.834961 
vt 0.923212 0.834514 
vt 0.930436 0.908734 
vt 0.962322 0.902212 
vt 0.955391 0.834961 
vt 0.923212 0.834514 
vt 0.933036 0.765791 
vt 0.904609 0.757308 
vt 0.893507 0.833102 
vt 0.923212 0.834514 
vt 0.930436 0.908734 
vt 0.901369 0.916183 
vt 0.893507 0.833102 
vt 0.923212 0.834514 
vt 0.901369 0.916183 
vt 0.930436 0.908734 
vt 0.893507 0.833102 
vt 0.904609 0.757308 
vt 0.923212 0.834514 
vt 0.893507 0.833102 
vt 0.933036 0.765791 
vt 0.893507 0.833102 
vt 0.933036 0.765791 
vt 0.904609 0.757308 
vt 0.923212 0.834514 
vt 0.893507 0.833102 
vt 0.930436 0.908734 
vt 0.901369 0.916183 
vt 0.923212 0.834514 
vt 0.933036 0.765791 
vt 0.923212 0.834514 
vt 0.893507 0.833102 
vt 0.904609 0.757308 
vt 0.893507 0.833102 
vt 0.901369 0.916183 
vt 0.930436 0.908734 
vt 0.923212 0.834514 
vt 0.446358 0.183287 
vt 0.425227 0.34988 
vt 0.37072 0.183478 
vt 0.371095 0.351656 
vt 0.370517 0.015319 
vt 0.47667 0.348276 
vt 0.467107 0.016848 
vt 0.518679 0.183061 
vt 0.613751 0.349159 
vt 0.559311 0.018068 
vt 0.626817 0.182752 
vt 0.710056 0.349963 
vt 0.64196 0.016368 
vt 0.707272 0.182523 
vt 0.709917 0.015226 
vt 0.962322 0.902212 
vt 0.953234 0.974424 
vt 0.930436 0.908734 
vt 0.983516 0.963033 
vt 0.962322 0.902212 
vt 0.953234 0.974424 
vt 0.983516 0.963033 
vt 0.930436 0.908734 
vt 0.964389 0.773823 
vt 0.991562 0.710431 
vt 0.962256 0.697477 
vt 0.933036 0.765791 
vt 0.964389 0.773823 
vt 0.962256 0.697477 
vt 0.991562 0.710431 
vt 0.933036 0.765791 
vt 0.983516 0.963033 
vt 0.930436 0.908734 
vt 0.962322 0.902212 
vt 0.953234 0.974424 
vt 0.983516 0.963033 
vt 0.930436 0.908734 
vt 0.953234 0.974424 
vt 0.962322 0.902212 
vt 0.933036 0.765791 
vt 0.962256 0.697477 
vt 0.991562 0.710431 
vt 0.964389 0.773823 
vt 0.933036 0.765791 
vt 0.991562 0.710431 
vt 0.962256 0.697477 
vt 0.964389 0.773823 
vt 0.930436 0.908734 
vt 0.928145 0.990732 
vt 0.901369 0.916183 
vt 0.953234 0.974424 
vt 0.930436 0.908734 
vt 0.928145 0.990732 
vt 0.953234 0.974424 
vt 0.901369 0.916183 
vt 0.933036 0.765791 
vt 0.962256 0.697477 
vt 0.937923 0.679496 
vt 0.904609 0.757308 
vt 0.933036 0.765791 
vt 0.937923 0.679496 
vt 0.962256 0.697477 
vt 0.904609 0.757308 
vt 0.953234 0.974424 
vt 0.901369 0.916183 
vt 0.930436 0.908734 
vt 0.928145 0.990732 
vt 0.953234 0.974424 
vt 0.901369 0.916183 
vt 0.928145 0.990732 
vt 0.930436 0.908734 
vt 0.904609 0.757308 
vt 0.937923 0.679496 
vt 0.962256 0.697477 
vt 0.933036 0.765791 
vt 0.904609 0.757308 
vt 0.962256 0.697477 
vt 0.937923 0.679496 
vt 0.933036 0.765791 

usemtl Pet1Mtl

f 1/1/1 2/2/2 3/3/3 
f 1/1/1 3/3/3 4/4/4 
f 2/2/2 5/5/5 3/3/3 
f 2/2/2 6/6/6 5/5/5 
f 5/5/5 7/7/7 3/3/3 
f 3/3/3 7/7/7 8/8/8 
f 3/3/3 8/8/8 4/4/4 
f 4/4/4 8/8/8 9/9/9 
f 10/10/10 11/11/11 12/12/12 
f 11/11/11 13/13/13 12/12/12 
f 11/11/11 10/10/10 14/14/14 
f 15/15/15 10/10/10 12/12/12 
f 10/10/10 15/15/15 16/16/16 
f 15/15/15 12/12/12 17/17/17 
f 18/18/18 19/19/19 20/20/20 
f 19/19/19 18/18/18 21/21/21 
f 19/19/19 21/21/21 22/22/22 
f 23/23/23 22/22/22 21/21/21 
f 18/18/18 24/24/24 21/21/21 
f 18/18/18 25/25/25 24/24/24 
f 23/23/23 21/21/21 26/26/26 
f 24/24/24 26/26/26 21/21/21 
f 23/23/23 26/26/26 27/27/27 
f 26/26/26 24/24/24 28/28/28 
f 29/29/29 30/30/30 31/31/31 
f 30/30/30 29/29/29 32/32/32 
f 29/29/29 33/33/33 32/32/32 
f 34/34/34 32/32/32 33/33/33 
f 35/35/35 30/30/30 32/32/32 
f 30/30/30 35/35/35 36/36/36 
f 32/32/32 34/34/34 37/37/37 
f 32/32/32 37/37/37 35/35/35 
f 34/34/34 38/38/38 37/37/37 
f 35/35/35 37/37/37 39/39/39 
f 40/40/40 41/41/41 42/42/42 
f 43/43/43 42/42/42 41/41/41 
f 42/42/42 43/43/43 44/44/44 
f 45/45/45 43/43/43 41/41/41 
f 43/43/43 45/45/45 46/46/46 
f 41/41/41 47/47/47 45/45/45 
f 48/48/48 49/49/49 50/50/50 
f 50/50/50 51/51/51 48/48/48 
f 52/52/52 53/53/53 54/54/54 
f 52/52/52 54/54/54 55/55/55 
f 56/56/56 57/57/57 58/58/58 
f 57/57/57 56/56/56 59/59/59 
f 60/60/60 61/61/61 62/62/62 
f 61/61/61 60/60/60 63/63/63 
f 64/64/64 65/65/65 66/66/66 
f 65/65/65 64/64/64 67/67/67 
f 68/68/68 69/69/69 70/70/70 
f 69/69/69 68/68/68 71/71/71 
f 72/72/72 73/73/73 74/74/74 
f 73/73/73 72/72/72 75/75/75 
f 76/76/76 77/77/77 78/78/78 
f 77/77/77 76/76/76 79/79/79 
f 80/80/80 81/81/81 82/82/82 
f 81/81/81 80/80/80 83/83/83 
f 84/84/84 85/85/85 86/86/86 
f 86/86/86 87/87/87 84/84/84 
f 88/88/88 89/89/89 90/90/90 
f 89/89/89 88/88/88 91/91/91 
f 92/92/92 93/93/93 94/94/94 
f 92/92/92 94/94/94 95/95/95 
f 96/96/96 97/97/97 98/98/98 
f 98/98/98 99/99/99 96/96/96 
f 100/100/100 101/101/101 102/102/102 
f 102/102/102 103/103/103 100/100/100 
f 104/104/104 105/105/105 106/106/106 
f 105/105/105 104/104/104 107/107/107 
f 108/108/108 109/109/109 110/110/110 
f 109/109/109 108/108/108 111/111/111 
f 112/112/112 113/113/113 114/114/114 
f 113/113/113 112/112/112 115/115/115 
f 116/116/116 117/117/117 118/118/118 
f 117/117/117 116/116/116 119/119/119 
f 120/120/120 121/121/121 122/122/122 
f 122/122/122 123/123/123 120/120/120 
f 124/124/124 125/125/125 126/126/126 
f 124/124/124 126/126/126 127/127/127 
f 128/128/128 129/129/129 130/130/130 
f 131/131/131 130/130/130 129/129/129 
f 130/130/130 132/132/132 128/128/128 
f 129/129/129 128/128/128 133/133/133 
f 134/134/134 128/128/128 132/132/132 
f 135/135/135 133/133/133 128/128/128 
f 128/128/128 134/134/134 135/135/135 
f 133/133/133 135/135/135 136/136/136 
f 137/137/137 135/135/135 134/134/134 
f 135/135/135 138/138/138 136/136/136 
f 135/135/135 137/137/137 138/138/138 
f 136/136/136 138/138/138 139/139/139 
f 140/140/140 138/138/138 137/137/137 
f 141/141/141 139/139/139 138/138/138 
f 138/138/138 140/140/140 141/141/141 
f 142/142/142 141/141/141 140/140/140 
f 143/143/143 144/144/144 145/145/145 
f 144/144/144 143/143/143 146/146/146 
f 147/147/147 148/148/148 149/149/149 
f 148/148/148 147/147/147 150/150/150 
f 151/151/151 152/152/152 153/153/153 
f 151/151/151 153/153/153 154/154/154 
f 155/155/155 156/156/156 157/157/157 
f 156/156/156 155/155/155 158/158/158 
f 159/159/159 160/160/160 161/161/161 
f 160/160/160 159/159/159 162/162/162 
f 163/163/163 164/164/164 165/165/165 
f 164/164/164 163/163/163 166/166/166 
f 167/167/167 168/168/168 169/169/169 
f 167/167/167 169/169/169 170/170/170 
f 171/171/171 172/172/172 173/173/173 
f 172/172/172 171/171/171 174/174/174 
f 175/175/175 176/176/176 177/177/177 
f 176/176/176 175/175/175 178/178/178 
f 179/179/179 180/180/180 181/181/181 
f 180/180/180 179/179/179 182/182/182 
f 183/183/183 184/184/184 185/185/185 
f 185/185/185 186/186/186 183/183/183 
f 187/187/187 188/188/188 189/189/189 
f 188/188/188 187/187/187 190/190/190 
f 191/191/191 192/192/192 193/193/193 
f 192/192/192 191/191/191 194/194/194 
f 195/195/195 196/196/196 197/197/197 
f 196/196/196 195/195/195 198/198/198 
f 199/199/199 200/200/200 201/201/201 
f 199/199/199 201/201/201 202/202/202 
f 203/203/203 204/204/204 205/205/205 
f 204/204/204 203/203/203 206/206/206 

