# This file is brought to you by Roblox Corporation
# Generated by Roblox Studio

mtllib lackyblock.mtl

g Golden1

v 0.747661 0.747661 0.747661 
v -0.747661 0.747661 0.747661 
v -0.747661 -0.747661 0.747661 
v 0.747661 -0.747661 0.747661 
v 0.747661 0.747661 0.747661 
v 0.747661 0.747661 -0.747661 
v -0.747661 0.747661 0.747661 
v -0.747661 0.747661 -0.747661 
v 0.747661 -0.747661 -0.747661 
v -0.747661 -0.747661 -0.747661 
v -0.747661 0.747661 -0.747661 
v 0.747661 0.747661 -0.747661 
v 0.747661 -0.747661 0.747661 
v -0.747661 -0.747661 0.747661 
v -0.747661 -0.747661 -0.747661 
v 0.747661 -0.747661 -0.747661 
v 0.747661 0.747661 0.747661 
v 0.747661 -0.747661 0.747661 
v 0.747661 0.747661 -0.747661 
v 0.747661 -0.747661 -0.747661 
v -0.747661 0.747661 0.747661 
v -0.747661 -0.747661 -0.747661 
v -0.747661 -0.747661 0.747661 
v -0.747661 0.747661 -0.747661 

vn 0 0 1 
vn 0 0 1 
vn 0 0 1 
vn 0 0 1 
vn 0 1 0 
vn 0 1 0 
vn 0 1 0 
vn 0 1 0 
vn 0 0 -1 
vn 0 0 -1 
vn 0 0 -1 
vn 0 0 -1 
vn 0 -1 0 
vn 0 -1 0 
vn 0 -1 0 
vn 0 -1 0 
vn 1 0 0 
vn 1 0 0 
vn 1 0 0 
vn 1 0 0 
vn -1 0 0 
vn -1 0 0 
vn -1 0 0 
vn -1 0 0 

vt 0.994273 0.994228 
vt 0.00672036 0.994228 
vt 0.00672036 0.00667512 
vt 0.994273 0.00667512 
vt 0.994273 0.006675 
vt 0.994273 0.994228 
vt 0.00672024 0.00667536 
vt 0.0067206 0.994228 
vt 0.0067203 0.00667524 
vt 0.994273 0.00667512 
vt 0.994273 0.994228 
vt 0.00672042 0.994228 
vt 0.994273 0.994228 
vt 0.00672036 0.994228 
vt 0.00672036 0.00667512 
vt 0.994273 0.00667512 
vt 0.00672036 0.994228 
vt 0.00672036 0.00667512 
vt 0.994273 0.994228 
vt 0.994273 0.00667512 
vt 0.994273 0.994228 
vt 0.00672038 0.00667512 
vt 0.994273 0.00667512 
vt 0.00672038 0.994228 

usemtl Golden1Mtl

f 1/1/1 2/2/2 3/3/3 
f 1/1/1 3/3/3 4/4/4 
f 5/5/5 6/6/6 7/7/7 
f 7/7/7 6/6/6 8/8/8 
f 9/9/9 10/10/10 11/11/11 
f 9/9/9 11/11/11 12/12/12 
f 13/13/13 14/14/14 15/15/15 
f 13/13/13 15/15/15 16/16/16 
f 17/17/17 18/18/18 19/19/19 
f 18/18/18 20/20/20 19/19/19 
f 21/21/21 22/22/22 23/23/23 
f 22/22/22 21/21/21 24/24/24 

