# This file is brought to you by Roblox Corporation
# Generated by Roblox Studio

mtllib octopus.mtl

g Pet1

v -0.830504 1.13405 -0.0938288 
v -0.844657 1.2525 0.863748 
v 0.0118802 1.13713 0.111098 
v 0.0119934 1.2583 0.86689 
v 0.0117334 1.16015 -0.846619 
v -0.845571 1.17904 -0.846582 
v 0.869034 1.17792 -0.846649 
v 0.855038 1.14178 0.329828 
v 0.868643 1.21025 0.870033 
v -0.674935 -0.963219 -1.03285 
v -0.500576 -1.17618 -0.99925 
v -0.737701 -1.18257 -0.880055 
v -0.466551 -1.05727 -1.08208 
v 0.981318 -1.25191 0.34093 
v 1.11449 -1.03895 0.223474 
v 1.02607 -1.133 0.418489 
v 1.03193 -1.2583 0.0804028 
v 0.631296 -0.963219 -1.03452 
v 0.699309 -1.17618 -0.870495 
v 0.469201 -1.18257 -1.00273 
v 0.787182 -1.05727 -0.887729 
v -1.11449 -1.03208 0.179974 
v -1.01409 -1.24505 0.0335178 
v -0.999444 -1.25143 0.29851 
v -1.07645 -1.12613 -0.030741 
v 0.121894 -1.20027 0.99732 
v 0.0930114 -1.08136 1.08208 
v -0.233265 -1.07999 0.986115 
v 0.121894 -1.20027 0.99732 
v 0.297984 -0.987311 1.02016 
v 0.0930114 -1.08136 1.08208 
v 0.351263 -1.20666 0.863808 
v -0.755288 -0.81485 -0.934261 
v -0.737701 -1.18257 -0.880055 
v -0.905167 -0.868955 -0.598116 
v -0.674935 -0.963219 -1.03285 
v 0.981318 -1.25191 0.34093 
v 1.02607 -1.133 0.418489 
v 0.738966 -1.13162 0.600793 
v 0.699309 -1.17618 -0.870495 
v 0.787182 -1.05727 -0.887729 
v 0.866709 -1.0559 -0.557061 
v -1.05616 -0.883712 0.293 
v -0.999444 -1.25143 0.29851 
v -0.807781 -0.937817 0.564593 
v -1.11449 -1.03208 0.179974 
v -1.01409 -1.24505 0.0335178 
v -1.07645 -1.12613 -0.030741 
v -0.842645 -1.12476 -0.277724 
v 0.504751 -0.81485 -1.04727 
v 0.469201 -1.18257 -1.00273 
v 0.141645 -0.868955 -0.987173 
v 0.631296 -0.963219 -1.03452 
v -0.500576 -1.17618 -0.99925 
v -0.466551 -1.05727 -1.08208 
v -0.146773 -1.0559 -0.966288 
v 1.08558 -0.890576 0.0996174 
v 1.03193 -1.2583 0.0804028 
v 0.911156 -0.944681 -0.224472 
v 1.11449 -1.03895 0.223474 
v -0.845564 -0.348215 0.868128 
v 0.0117354 -0.375455 0.868128 
v -0.878707 0.437429 0.868128 
v 0.0119934 1.2583 0.86689 
v -0.844657 1.2525 0.863748 
v 0.895253 0.437429 0.868128 
v 0.868643 1.21025 0.870033 
v 0.869041 -0.348215 0.868128 
v 0.869041 -0.348215 0.868128 
v 0.861541 -0.386042 0.594023 
v 0.895253 0.437429 0.868128 
v 0.854371 0.388537 0.331744 
v 0.854371 -0.397106 0.331744 
v 0.861811 -0.359563 -0.365968 
v 0.855038 1.14178 0.329828 
v 0.868643 1.21025 0.870033 
v 0.842844 0.459045 -0.846477 
v 0.869041 -0.262722 -0.846477 
v 0.869034 1.17792 -0.846649 
v -0.830234 0.387412 -0.0947318 
v -0.837734 -0.386578 0.376088 
v -0.878707 0.437429 0.868128 
v -0.845564 -0.348215 0.868128 
v -0.830234 -0.398157 -0.0947236 
v -0.838334 -0.359563 -0.514343 
v -0.830504 1.13405 -0.0938288 
v -0.844657 1.2525 0.863748 
v -0.819089 0.459045 -0.846477 
v -0.845564 -0.262722 -0.846477 
v -0.845571 1.17904 -0.846582 
v -0.845571 1.17904 -0.846582 
v 0.0117334 1.16015 -0.846619 
v -0.819089 0.459045 -0.846477 
v 0.0117356 -0.285805 -0.846477 
v -0.845564 -0.262722 -0.846477 
v 0.842844 0.459045 -0.846477 
v 0.869041 -0.262722 -0.846477 
v 0.869034 1.17792 -0.846649 
v 0.0999519 -0.378604 0.779195 
v -0.35087 -0.372694 0.629763 
v -0.203943 -0.733881 0.657808 
v 0.109214 -0.597782 0.762519 
v 0.122373 -0.880088 0.849744 
v 0.372141 -0.838941 0.916833 
v -0.502319 -0.57369 -0.764114 
v -0.675104 -0.671003 -0.343495 
v -0.486215 -0.284386 -0.780429 
v -0.619298 -0.359563 -0.495227 
v -0.684043 -0.378874 -0.283589 
v 0.372141 -0.838941 0.916833 
v 0.351263 -1.20666 0.863808 
v 0.501126 -0.893046 0.572131 
v 0.297984 -0.987311 1.02016 
v -0.799188 -0.642552 0.128968 
v -0.482494 -0.739865 0.455281 
v -0.812811 -0.393362 0.109127 
v -0.419779 -0.382093 0.498292 
v 0.83883 -1.25266 0.179951 
v 1.03193 -1.2583 0.0804028 
v 0.981318 -1.25191 0.34093 
v 0.526887 -0.291108 -0.740854 
v 0.623385 -0.368061 -0.276079 
v 0.567515 -0.70979 -0.418757 
v 0.502111 -0.57369 -0.742413 
v 0.571154 -0.855997 -0.797317 
v 0.504751 -0.81485 -1.04727 
v 0.806121 -0.391897 0.22025 
v 0.373082 -0.390092 0.467785 
v 0.511241 -0.785516 0.362494 
v 0.796289 -0.649416 0.195823 
v 0.870588 -0.931723 0.243371 
v 1.08558 -0.890576 0.0996174 
v 0.502111 -0.57369 -0.742413 
v 0.0558865 -0.671003 -0.654899 
v 0.526887 -0.291108 -0.740854 
v -0.0120132 -0.326861 -0.622376 
v 0.149176 -1.20102 0.784076 
v 0.351263 -1.20666 0.863808 
v 0.121894 -1.20027 0.99732 
v -0.233265 -1.07999 0.986115 
v 0.796289 -0.649416 0.195823 
v 0.569013 -0.746729 -0.198031 
v 0.806121 -0.391897 0.22025 
v 0.512946 -0.371677 -0.238611 
v -0.836556 -1.24579 0.154762 
v -0.999444 -1.25143 0.29851 
v -1.01409 -1.24505 0.0335178 
v -0.842645 -1.12476 -0.277724 
v 0.83883 -1.25266 0.179951 
v 0.981318 -1.25191 0.34093 
v 0.738966 -1.13162 0.600793 
v 0.500868 -1.17693 -0.787802 
v 0.469201 -1.18257 -1.00273 
v 0.699309 -1.17618 -0.870495 
v 0.866709 -1.0559 -0.557061 
v -0.486215 -0.284386 -0.780429 
v -0.0310632 -0.332181 -0.594734 
v -0.196172 -0.70979 -0.640397 
v -0.502319 -0.57369 -0.764114 
v -0.510104 -0.855997 -0.851982 
v -0.755288 -0.81485 -0.934261 
v -0.540884 -1.17693 -0.788081 
v -0.737701 -1.18257 -0.880055 
v -0.500576 -1.17618 -0.99925 
v -0.146773 -1.0559 -0.966288 
v -0.812811 -0.393362 0.109127 
v -0.463547 -0.383605 -0.21578 
v -0.563557 -0.778652 -0.102353 
v -0.799188 -0.642552 0.128968 
v -0.88286 -0.924859 0.101035 
v -1.05616 -0.883712 0.293 
v 0.239422 -1.03571 0.573397 
v -0.203943 -0.733881 0.657808 
v -0.0885479 -0.889573 0.319163 
v 0.122373 -0.880088 0.849744 
v -0.502319 -0.57369 -0.764114 
v -0.905167 -0.868955 -0.598116 
v -0.675104 -0.671003 -0.343495 
v -0.755288 -0.81485 -0.934261 
v 0.109214 -0.597782 0.762519 
v 0.255882 -0.695095 0.332096 
v 0.0999519 -0.378604 0.779195 
v 0.178381 -0.38805 0.503979 
v 0.245897 -0.397021 0.269988 
v 0.739741 -1.08735 -0.0267165 
v 0.511241 -0.785516 0.362494 
v 0.332427 -0.941208 0.0526201 
v 0.870588 -0.931723 0.243371 
v -0.799188 -0.642552 0.128968 
v -0.807781 -0.937817 0.564593 
v -0.482494 -0.739865 0.455281 
v -1.05616 -0.883712 0.293 
v 0.297984 -0.987311 1.02016 
v 0.0969542 -0.964285 0.91743 
v 0.0930114 -1.08136 1.08208 
v -0.233265 -1.07999 0.986115 
v 0.372141 -0.838941 0.916833 
v 0.122373 -0.880088 0.849744 
v 0.502111 -0.57369 -0.742413 
v 0.141645 -0.868955 -0.987173 
v 0.0558865 -0.671003 -0.654899 
v 0.504751 -0.81485 -1.04727 
v 0.27325 -1.01162 -0.760964 
v 0.567515 -0.70979 -0.418757 
v 0.216437 -0.865482 -0.349902 
v 0.571154 -0.855997 -0.797317 
v 0.631296 -0.963219 -1.03452 
v 0.642499 -0.940194 -0.809038 
v 0.787182 -1.05727 -0.887729 
v 0.866709 -1.0559 -0.557061 
v 0.504751 -0.81485 -1.04727 
v 0.571154 -0.855997 -0.797317 
v 1.11449 -1.03895 0.223474 
v 0.904778 -1.01592 0.307078 
v 1.02607 -1.133 0.418489 
v 1.08558 -0.890576 0.0996174 
v 0.870588 -0.931723 0.243371 
v -0.689934 -1.08048 0.330921 
v -0.563557 -0.778652 -0.102353 
v -0.314391 -0.934344 0.154382 
v -0.88286 -0.924859 0.101035 
v 0.796289 -0.649416 0.195823 
v 0.911156 -0.944681 -0.224472 
v 0.569013 -0.746729 -0.198031 
v 1.08558 -0.890576 0.0996174 
v -0.674935 -0.963219 -1.03285 
v -0.480583 -0.940194 -0.917982 
v -0.466551 -1.05727 -1.08208 
v -0.146773 -1.0559 -0.966288 
v -0.755288 -0.81485 -0.934261 
v -0.510104 -0.855997 -0.851982 
v -0.643879 -1.01162 -0.583333 
v -0.196172 -0.70979 -0.640397 
v -0.332116 -0.865482 -0.309465 
v -0.510104 -0.855997 -0.851982 
v 1.02607 -1.133 0.418489 
v 0.904778 -1.01592 0.307078 
v 0.738966 -1.13162 0.600793 
v 0.109214 -0.597782 0.762519 
v 0.501126 -0.893046 0.572131 
v 0.255882 -0.695095 0.332096 
v 0.372141 -0.838941 0.916833 
v -0.35087 -0.372694 0.629763 
v -0.173448 -0.397933 0.189287 
v -0.0885479 -0.889573 0.319163 
v -0.203943 -0.733881 0.657808 
v -1.11449 -1.03208 0.179974 
v -0.931592 -1.00906 0.0476237 
v -1.07645 -1.12613 -0.030741 
v -0.842645 -1.12476 -0.277724 
v -1.05616 -0.883712 0.293 
v -0.88286 -0.924859 0.101035 
v -0.135834 -0.400425 0.112979 
v -0.419779 -0.382093 0.498292 
v -0.482494 -0.739865 0.455281 
v -0.314391 -0.934344 0.154382 
v -0.807781 -0.937817 0.564593 
v -0.689934 -1.08048 0.330921 
v -0.999444 -1.25143 0.29851 
v -0.836556 -1.24579 0.154762 
v -0.231781 -0.383389 -0.175289 
v -0.684043 -0.378874 -0.283589 
v -0.675104 -0.671003 -0.343495 
v -0.332116 -0.865482 -0.309465 
v -0.905167 -0.868955 -0.598116 
v -0.643879 -1.01162 -0.583333 
v -0.737701 -1.18257 -0.880055 
v -0.540884 -1.17693 -0.788081 
v 0.373082 -0.390092 0.467785 
v 0.134907 -0.395929 0.0481283 
v 0.332427 -0.941208 0.0526201 
v 0.511241 -0.785516 0.362494 
v 0.623385 -0.368061 -0.276079 
v 0.149936 -0.379731 -0.165393 
v 0.216437 -0.865482 -0.349902 
v 0.567515 -0.70979 -0.418757 
v 0.134907 -0.395929 0.0481283 
v 0.512946 -0.371677 -0.238611 
v 0.569013 -0.746729 -0.198031 
v 0.332427 -0.941208 0.0526201 
v 0.911156 -0.944681 -0.224472 
v 0.739741 -1.08735 -0.0267165 
v 1.03193 -1.2583 0.0804028 
v 0.83883 -1.25266 0.179951 
v -0.419779 -0.382093 0.498292 
v -0.135834 -0.400425 0.112979 
v -0.173448 -0.397933 0.189287 
v -0.684043 -0.378874 -0.283589 
v -0.231781 -0.383389 -0.175289 
v -0.463547 -0.383605 -0.21578 
v 0.149936 -0.379731 -0.165393 
v -0.0120132 -0.326861 -0.622376 
v 0.0558865 -0.671003 -0.654899 
v 0.216437 -0.865482 -0.349902 
v 0.141645 -0.868955 -0.987173 
v 0.27325 -1.01162 -0.760964 
v 0.469201 -1.18257 -1.00273 
v 0.500868 -1.17693 -0.787802 
v -0.486215 -0.284386 -0.780429 
v -0.619298 -0.359563 -0.495227 
v -0.845564 -0.262722 -0.846477 
v -0.838334 -0.359563 -0.514343 
v -0.684043 -0.378874 -0.283589 
v 0.0117356 -0.285805 -0.846477 
v -0.830234 -0.398157 -0.0947236 
v -0.463547 -0.383605 -0.21578 
v -0.812811 -0.393362 0.109127 
v -0.837734 -0.386578 0.376088 
v -0.419779 -0.382093 0.498292 
v -0.35087 -0.372694 0.629763 
v -0.173448 -0.397933 0.189287 
v -0.845564 -0.348215 0.868128 
v 0.0117354 -0.375455 0.868128 
v 0.0999519 -0.378604 0.779195 
v 0.869041 -0.348215 0.868128 
v 0.178381 -0.38805 0.503979 
v 0.861541 -0.386042 0.594023 
v 0.373082 -0.390092 0.467785 
v 0.854371 -0.397106 0.331744 
v 0.245897 -0.397021 0.269988 
v 0.806121 -0.391897 0.22025 
v 0.861811 -0.359563 -0.365968 
v 0.134907 -0.395929 0.0481283 
v 0.623385 -0.368061 -0.276079 
v 0.0117355 -0.397904 0.224895 
v 0.512946 -0.371677 -0.238611 
v 0.526887 -0.291108 -0.740854 
v 0.869041 -0.262722 -0.846477 
v 0.149936 -0.379731 -0.165393 
v 0.0117355 -0.401995 0.112559 
v -0.0120132 -0.326861 -0.622376 
v -0.0310632 -0.332181 -0.594734 
v -0.0310632 -0.332181 -0.594734 
v -0.231781 -0.383389 -0.175289 
v -0.135834 -0.400425 0.112979 
v -0.173448 -0.397933 0.189287 
v -0.463547 -0.383605 -0.21578 
v -0.135834 -0.400425 0.112979 
v -0.314391 -0.934344 0.154382 
v -0.563557 -0.778652 -0.102353 
v 0.255882 -0.695095 0.332096 
v 0.0117355 -0.397904 0.224895 
v 0.245897 -0.397021 0.269988 
v -0.173448 -0.397933 0.189287 
v -0.0885479 -0.889573 0.319163 
v 0.501126 -0.893046 0.572131 
v 0.239422 -1.03571 0.573397 
v 0.351263 -1.20666 0.863808 
v 0.149176 -1.20102 0.784076 
v -0.0310632 -0.332181 -0.594734 
v -0.231781 -0.383389 -0.175289 
v -0.332116 -0.865482 -0.309465 
v -0.196172 -0.70979 -0.640397 
v 0.122373 -0.880088 0.849744 
v 0.149176 -1.20102 0.784076 
v 0.0969542 -0.964285 0.91743 
v 0.239422 -1.03571 0.573397 
v 0.870588 -0.931723 0.243371 
v 0.83883 -1.25266 0.179951 
v 0.904778 -1.01592 0.307078 
v 0.739741 -1.08735 -0.0267165 
v 0.571154 -0.855997 -0.797317 
v 0.500868 -1.17693 -0.787802 
v 0.642499 -0.940194 -0.809038 
v 0.27325 -1.01162 -0.760964 
v -0.88286 -0.924859 0.101035 
v -0.836556 -1.24579 0.154762 
v -0.931592 -1.00906 0.0476237 
v -0.689934 -1.08048 0.330921 
v -0.510104 -0.855997 -0.851982 
v -0.540884 -1.17693 -0.788081 
v -0.480583 -0.940194 -0.917982 
v -0.643879 -1.01162 -0.583333 
v 0.0969542 -0.964285 0.91743 
v 0.149176 -1.20102 0.784076 
v -0.233265 -1.07999 0.986115 
v -0.931592 -1.00906 0.0476237 
v -0.836556 -1.24579 0.154762 
v -0.842645 -1.12476 -0.277724 
v -0.480583 -0.940194 -0.917982 
v -0.540884 -1.17693 -0.788081 
v -0.146773 -1.0559 -0.966288 
v 0.642499 -0.940194 -0.809038 
v 0.500868 -1.17693 -0.787802 
v 0.866709 -1.0559 -0.557061 
v 0.904778 -1.01592 0.307078 
v 0.83883 -1.25266 0.179951 
v 0.738966 -1.13162 0.600793 

vn 0.00787402 1 -0.0472441 
vn 0.015748 0.992126 -0.141732 
vn 0.00787402 1 -0.0551181 
vn 0.0314961 0.992126 -0.141732 
vn -0.00787402 1 0.0314961 
vn 0.00787402 1 0.0393701 
vn -0.015748 1 0.0314961 
vn 0.015748 1 -0.0629921 
vn 0.0472441 0.992126 -0.141732 
vn -0.393701 -0.448819 -0.80315 
vn -0.393701 -0.448819 -0.80315 
vn -0.393701 -0.448819 -0.80315 
vn -0.393701 -0.448819 -0.80315 
vn 0.874016 -0.448819 0.181102 
vn 0.874016 -0.448819 0.181102 
vn 0.874016 -0.448819 0.181102 
vn 0.874016 -0.448819 0.181102 
vn 0.456693 -0.448819 -0.771654 
vn 0.456693 -0.448819 -0.771654 
vn 0.456693 -0.448819 -0.771654 
vn 0.456693 -0.448819 -0.771654 
vn -0.889764 -0.448819 0.0393701 
vn -0.889764 -0.448819 0.0393701 
vn -0.889764 -0.448819 0.0393701 
vn -0.889764 -0.448819 0.0393701 
vn -0.228346 -0.598425 0.76378 
vn -0.228346 -0.598425 0.76378 
vn -0.228346 -0.598425 0.76378 
vn 0.440945 -0.448819 0.779528 
vn 0.440945 -0.448819 0.779528 
vn 0.440945 -0.448819 0.779528 
vn 0.440945 -0.448819 0.779528 
vn -0.874016 -0.110236 -0.464567 
vn -0.874016 -0.110236 -0.464567 
vn -0.905512 -0.102362 -0.417323 
vn -0.850394 -0.11811 -0.519685 
vn 0.425197 -0.598425 0.677165 
vn 0.425197 -0.598425 0.677165 
vn 0.425197 -0.598425 0.677165 
vn 0.779528 -0.598425 -0.181102 
vn 0.779528 -0.598425 -0.181102 
vn 0.779528 -0.598425 -0.181102 
vn -0.779528 -0.110236 0.614173 
vn -0.779528 -0.110236 0.614173 
vn -0.740157 -0.102362 0.661417 
vn -0.811024 -0.11811 0.574803 
vn -0.574803 -0.598425 -0.551181 
vn -0.574803 -0.598425 -0.551181 
vn -0.574803 -0.598425 -0.551181 
vn -0.0944882 -0.110236 -0.992126 
vn -0.0944882 -0.110236 -0.992126 
vn -0.149606 -0.102362 -0.984252 
vn -0.0393701 -0.11811 -0.992126 
vn 0.275591 -0.598425 -0.748031 
vn 0.275591 -0.598425 -0.748031 
vn 0.275591 -0.598425 -0.748031 
vn 0.905512 -0.110236 -0.409449 
vn 0.905512 -0.110236 -0.409449 
vn 0.88189 -0.102362 -0.456693 
vn 0.929134 -0.11811 -0.354331 
vn 0 0 1 
vn 0 0 1 
vn 0 0 1 
vn 0 0 1 
vn 0 0 1 
vn 0 0 1 
vn 0 0 1 
vn 0 0 1 
vn 1 -0.0314961 -0.023622 
vn 1 -0.015748 -0.0393701 
vn 1 -0.00787402 -0.0472441 
vn 1 0 -0.0314961 
vn 1 0 -0.00787402 
vn 1 0.015748 0.00787402 
vn 1 0 -0.023622 
vn 1 0.0314961 -0.0314961 
vn 1 0.00787402 0 
vn 1 0.0393701 0.023622 
vn 1 -0.0393701 0.00787402 
vn -1 0 -0.00787402 
vn -1 -0.015748 -0.023622 
vn -1 0 -0.0393701 
vn -1 -0.0314961 -0.0393701 
vn -1 0 0 
vn -1 0.00787402 0.00787402 
vn -1 0 -0.015748 
vn -1 0.023622 -0.0314961 
vn -1 0 0 
vn -1 0.023622 0 
vn -1 -0.015748 0 
vn 0 0 -1 
vn 0 0 -1 
vn 0 0 -1 
vn 0 0 -1 
vn 0 0 -1 
vn 0 0 -1 
vn 0 0 -1 
vn 0 0 -1 
vn -0.307087 -0.0708661 0.952756 
vn -0.322835 -0.0472441 0.944882 
vn -0.338583 0.0393701 0.937008 
vn -0.330709 0.149606 0.929134 
vn -0.346457 0.259843 0.897638 
vn -0.291339 0.267717 0.92126 
vn -0.929134 0.015748 -0.377953 
vn -0.929134 0.0314961 -0.362205 
vn -0.929134 0.0314961 -0.362205 
vn -0.913386 -0.0314961 -0.401575 
vn -0.937008 0.0472441 -0.354331 
vn 0.905512 -0.110236 0.417323 
vn 0.905512 -0.110236 0.417323 
vn 0.929134 -0.102362 0.362205 
vn 0.88189 -0.11811 0.464567 
vn -0.716535 0.015748 0.700787 
vn -0.708661 0.0314961 0.708661 
vn -0.708661 0.0314961 0.708661 
vn -0.700787 0.0472441 0.716535 
vn -0.133858 -0.984252 0.11811 
vn -0.015748 -1 0.023622 
vn -0.133858 -0.984252 0.11811 
vn 0.976378 -0.0708661 -0.212598 
vn 0.984252 -0.0472441 -0.188976 
vn 0.984252 0.0393701 -0.173228 
vn 0.976378 0.149606 -0.181102 
vn 0.952756 0.259843 -0.149606 
vn 0.937008 0.267717 -0.204724 
vn 0.519685 -0.0787402 0.850394 
vn 0.496063 -0.0551181 0.866142 
vn 0.480315 0.0314961 0.874016 
vn 0.488189 0.141732 0.866142 
vn 0.448819 0.259843 0.858268 
vn 0.496063 0.267717 0.826772 
vn -0.19685 0.015748 -0.984252 
vn -0.204724 0.0314961 -0.976378 
vn -0.204724 0.0314961 -0.976378 
vn -0.220472 0.0472441 -0.976378 
vn -0.173228 -0.984252 -0.015748 
vn -0.0314961 -1 0 
vn -0.173228 -0.984252 -0.015748 
vn -0.322835 -0.944882 -0.0393701 
vn 0.866142 0.015748 -0.503937 
vn 0.858268 0.0314961 -0.511811 
vn 0.858268 0.0314961 -0.511811 
vn 0.850394 0.0472441 -0.519685 
vn 0.0944882 -0.984252 -0.149606 
vn 0.015748 -1 -0.023622 
vn 0.0944882 -0.984252 -0.149606 
vn 0.181102 -0.944882 -0.267717 
vn -0.23622 -0.944882 0.212598 
vn -0.23622 -0.944882 0.212598 
vn -0.23622 -0.944882 0.212598 
vn 0.0708661 -0.984252 0.165354 
vn 0.015748 -1 0.023622 
vn 0.0708661 -0.984252 0.165354 
vn 0.125984 -0.944882 0.299213 
vn 0.362205 -0.0708661 -0.929134 
vn 0.385827 -0.0472441 -0.92126 
vn 0.401575 0.0393701 -0.913386 
vn 0.385827 0.149606 -0.913386 
vn 0.401575 0.259843 -0.874016 
vn 0.346457 0.267717 -0.897638 
vn 0.173228 -0.984252 0.0314961 
vn 0.0314961 -1 0 
vn 0.173228 -0.984252 0.0314961 
vn 0.314961 -0.944882 0.0551181 
vn -0.700787 -0.0629921 -0.708661 
vn -0.677165 -0.0393701 -0.732283 
vn -0.677165 0.0393701 -0.732283 
vn -0.677165 0.141732 -0.716535 
vn -0.645669 0.259843 -0.716535 
vn -0.685039 0.267717 -0.677165 
vn -0.519685 -0.826772 0.220472 
vn -0.519685 -0.826772 0.220472 
vn -0.527559 -0.826772 0.204724 
vn -0.511811 -0.818898 0.244094 
vn -0.614173 0.779528 -0.110236 
vn -0.614173 0.779528 -0.110236 
vn -0.606299 0.795276 -0.0629921 
vn -0.622047 0.76378 -0.15748 
vn 0.944882 0.015748 0.322835 
vn 0.952756 0.0314961 0.307087 
vn 0.952756 0.0314961 0.307087 
vn 0.96063 0.0866142 0.267717 
vn 0.952756 0.0472441 0.299213 
vn -0.173228 -0.826772 0.535433 
vn -0.173228 -0.826772 0.535433 
vn -0.19685 -0.826772 0.527559 
vn -0.149606 -0.818898 0.551181 
vn -0.346457 0.779528 0.519685 
vn -0.346457 0.779528 0.519685 
vn -0.307087 0.795276 0.527559 
vn -0.393701 0.76378 0.511811 
vn -0.220472 0.76378 0.606299 
vn -0.212598 0.771654 0.606299 
vn -0.181102 0.80315 0.566929 
vn -0.165354 0.80315 0.566929 
vn -0.291339 0.645669 0.708661 
vn -0.299213 0.653543 0.700787 
vn -0.244094 0.779528 -0.574803 
vn -0.244094 0.779528 -0.574803 
vn -0.275591 0.795276 -0.543307 
vn -0.212598 0.76378 -0.606299 
vn 0.456693 -0.826772 0.338583 
vn 0.456693 -0.826772 0.338583 
vn 0.433071 -0.826772 0.354331 
vn 0.472441 -0.818898 0.322835 
vn 0.677165 0.724409 -0.110236 
vn 0.677165 0.732283 -0.110236 
vn 0.582677 0.80315 -0.125984 
vn 0.574803 0.80315 -0.141732 
vn 0.755906 0.645669 -0.0944882 
vn 0.755906 0.653543 -0.0944882 
vn 0.322835 0.724409 0.606299 
vn 0.322835 0.732283 0.598425 
vn 0.307087 0.80315 0.511811 
vn 0.338583 0.645669 0.685039 
vn 0.330709 0.653543 0.685039 
vn 0.0393701 -0.826772 -0.566929 
vn 0.0393701 -0.826772 -0.566929 
vn 0.0629921 -0.826772 -0.559055 
vn 0.015748 -0.818898 -0.566929 
vn 0.464567 0.779528 -0.417323 
vn 0.464567 0.779528 -0.417323 
vn 0.425197 0.795276 -0.440945 
vn 0.503937 0.76378 -0.401575 
vn 0.283465 0.724409 -0.629921 
vn 0.275591 0.732283 -0.622047 
vn 0.212598 0.80315 -0.559055 
vn 0.19685 0.80315 -0.559055 
vn 0.338583 0.645669 -0.685039 
vn 0.338583 0.653543 -0.677165 
vn 0.535433 -0.826772 -0.188976 
vn 0.535433 -0.826772 -0.188976 
vn 0.535433 -0.826772 -0.165354 
vn 0.527559 -0.818898 -0.212598 
vn 0.322835 0.80315 0.496063 
vn 0.322835 0.80315 0.496063 
vn 0.322835 0.80315 0.496063 
vn 0.622047 0.779528 0.0708661 
vn 0.622047 0.779528 0.0708661 
vn 0.614173 0.795276 0.0314961 
vn 0.629921 0.76378 0.11811 
vn -0.913386 -0.330709 -0.228346 
vn -0.905512 -0.283465 -0.314961 
vn -0.913386 -0.330709 -0.228346 
vn -0.913386 -0.377953 -0.133858 
vn -0.464567 0.724409 -0.511811 
vn -0.464567 0.732283 -0.503937 
vn -0.425197 0.80315 -0.417323 
vn -0.433071 0.80315 -0.401575 
vn -0.496063 0.645669 -0.582677 
vn -0.488189 0.653543 -0.582677 
vn 0.787402 -0.212598 0.582677 
vn 0.779528 -0.204724 0.590551 
vn 0.716535 -0.322835 0.614173 
vn 0.629921 -0.456693 0.629921 
vn 0.472441 -0.614173 0.629921 
vn 0.425197 -0.716535 0.559055 
vn 0.370079 -0.771654 0.519685 
vn 0.401575 -0.811024 0.425197 
vn -0.220472 -0.212598 0.952756 
vn -0.228346 -0.204724 0.952756 
vn -0.275591 -0.322835 0.905512 
vn -0.322835 -0.456693 0.826772 
vn -0.393701 -0.622047 0.685039 
vn -0.338583 -0.716535 0.614173 
vn -0.330709 -0.771654 0.551181 
vn -0.228346 -0.811024 0.535433 
vn -0.771654 -0.330709 0.535433 
vn -0.834646 -0.283465 0.472441 
vn -0.771654 -0.330709 0.535433 
vn -0.708661 -0.377953 0.598425 
vn 0.259843 -0.330709 0.905512 
vn 0.173228 -0.283465 0.944882 
vn 0.259843 -0.330709 0.905512 
vn 0.338583 -0.377953 0.858268 
vn -0.614173 -0.212598 -0.755906 
vn -0.614173 -0.204724 -0.76378 
vn -0.543307 -0.322835 -0.771654 
vn -0.456693 -0.464567 -0.755906 
vn -0.275591 -0.645669 -0.708661 
vn -0.267717 -0.677165 -0.685039 
vn -0.204724 -0.748031 -0.629921 
vn -0.283465 -0.811024 -0.511811 
vn -0.015748 -1 0.0393701 
vn -0.015748 -1 -0.00787402 
vn -0.015748 -1 0.0314961 
vn 0.015748 -0.992126 -0.110236 
vn 0.015748 -0.992126 -0.0944882 
vn 0.023622 -1 -0.0787402 
vn -0.913386 -0.212598 0.338583 
vn -0.92126 -0.204724 0.338583 
vn -0.905512 -0.322835 0.267717 
vn -0.874016 -0.456693 0.181102 
vn -0.787402 -0.622047 0.0472441 
vn -0.700787 -0.716535 0.0551181 
vn -0.637795 -0.771654 0.0314961 
vn -0.574803 -0.811024 0.102362 
vn -0.023622 -0.976378 -0.204724 
vn 0.00787402 -0.976378 -0.212598 
vn -0.00787402 -0.968504 -0.23622 
vn 0.015748 -0.984252 -0.15748 
vn 0.015748 -0.992126 -0.110236 
vn 0 -0.984252 -0.181102 
vn 0.015748 -1 -0.0393701 
vn 0.023622 -1 -0.0787402 
vn 0.015748 -1 0.023622 
vn -0.00787402 -1 0.0551181 
vn -0.015748 -1 0.0393701 
vn -0.015748 -1 0.0551181 
vn -0.015748 -1 0.0314961 
vn -0.023622 -1 0.0551181 
vn -0.00787402 -1 0.0393701 
vn 0.015748 -1 0.0393701 
vn 0.015748 -1 0.0787402 
vn 0 -1 0.0629921 
vn -0.00787402 -1 0.0708661 
vn 0.0472441 -1 -0.00787402 
vn 0 -1 -0.015748 
vn 0.0866142 -0.992126 -0.0393701 
vn 0.00787402 -1 -0.0472441 
vn 0.212598 -0.968504 -0.110236 
vn 0.0708661 -0.992126 -0.0551181 
vn 0.00787402 -1 -0.0629921 
vn 0.015748 -1 0.023622 
vn 0.00787402 -1 -0.0708661 
vn 0.023622 -0.984252 -0.188976 
vn 0.472441 -0.866142 -0.15748 
vn -0.00787402 -1 -0.0787402 
vn 0.023622 -1 -0.0551181 
vn 0.015748 -0.984252 -0.15748 
vn 0.0472441 -0.992126 -0.133858 
vn 0.0472441 -0.992126 -0.133858 
vn 0.015748 -0.992126 -0.0944882 
vn -0.015748 -1 -0.00787402 
vn -0.015748 -1 0.0314961 
vn 0.622047 -0.330709 -0.708661 
vn 0.692913 -0.283465 -0.661417 
vn 0.622047 -0.330709 -0.708661 
vn 0.535433 -0.377953 -0.755906 
vn 0.204724 -0.299213 -0.929134 
vn 0.188976 -0.19685 -0.96063 
vn 0.165354 -0.204724 -0.96063 
vn 0.165354 -0.212598 -0.96063 
vn 0.275591 -0.456693 -0.850394 
vn 0.346457 -0.614173 -0.708661 
vn 0.307087 -0.716535 -0.629921 
vn 0.291339 -0.771654 -0.566929 
vn 0.19685 -0.811024 -0.551181 
vn 0.897638 -0.330709 0.283465 
vn 0.88189 -0.283465 0.370079 
vn 0.897638 -0.330709 0.283465 
vn 0.905512 -0.377953 0.188976 
vn -0.929134 0 -0.377953 
vn -0.929134 0 -0.377953 
vn -0.937008 -0.00787402 -0.354331 
vn -0.92126 0 -0.393701 
vn -0.889764 0 0.448819 
vn -0.889764 0 0.448819 
vn -0.88189 -0.00787402 0.464567 
vn -0.897638 0 0.433071 
vn 0.141732 0 0.992126 
vn 0.141732 0 0.992126 
vn 0.15748 -0.00787402 0.984252 
vn 0.11811 0 0.992126 
vn 0.755906 0 -0.653543 
vn 0.755906 0 -0.653543 
vn 0.740157 -0.00787402 -0.669291 
vn 0.76378 0 -0.637795 
vn 0.905512 0 0.433071 
vn 0.905512 0 0.433071 
vn 0.913386 -0.00787402 0.417323 
vn 0.897638 0 0.448819 
vn -0.322835 0.409449 -0.850394 
vn -0.322835 0.409449 -0.850394 
vn -0.322835 0.409449 -0.850394 
vn 0.905512 0.409449 0.102362 
vn 0.905512 0.409449 0.102362 
vn 0.905512 0.409449 0.102362 
vn 0.267717 0.409449 0.874016 
vn 0.267717 0.409449 0.874016 
vn 0.267717 0.409449 0.874016 
vn -0.582677 0.409449 0.700787 
vn -0.582677 0.409449 0.700787 
vn -0.582677 0.409449 0.700787 
vn -0.850394 0.409449 -0.322835 
vn -0.850394 0.409449 -0.322835 
vn -0.850394 0.409449 -0.322835 

vt 0.169237 0.320271 
vt 0.362213 0.330025 
vt 0.205935 0.491441 
vt 0.356964 0.496741 
vt 0.017666 0.48936 
vt 0.017859 0.323063 
vt 0.013892 0.658002 
vt 0.245218 0.659681 
vt 0.352497 0.665405 
vt 0.786971 0.826355 
vt 0.796617 0.784632 
vt 0.828664 0.801512 
vt 0.772023 0.798055 
vt 0.796617 0.784632 
vt 0.786971 0.826355 
vt 0.772023 0.798055 
vt 0.828664 0.801512 
vt 0.786971 0.826355 
vt 0.796617 0.784632 
vt 0.828664 0.801512 
vt 0.772023 0.798055 
vt 0.786971 0.826355 
vt 0.796617 0.784632 
vt 0.828664 0.801512 
vt 0.772023 0.798055 
vt 0.796617 0.784632 
vt 0.772023 0.798055 
vt 0.738533 0.742394 
vt 0.796617 0.784632 
vt 0.786971 0.826355 
vt 0.772023 0.798055 
vt 0.828664 0.801512 
vt 0.792926 0.855127 
vt 0.828664 0.801512 
vt 0.850623 0.862358 
vt 0.786971 0.826355 
vt 0.796617 0.784632 
vt 0.772023 0.798055 
vt 0.738533 0.742394 
vt 0.796617 0.784632 
vt 0.772023 0.798055 
vt 0.738533 0.742394 
vt 0.792926 0.855127 
vt 0.828664 0.801512 
vt 0.850623 0.862358 
vt 0.786971 0.826355 
vt 0.796617 0.784632 
vt 0.772023 0.798055 
vt 0.738533 0.742394 
vt 0.792926 0.855127 
vt 0.828664 0.801512 
vt 0.850623 0.862358 
vt 0.786971 0.826355 
vt 0.796617 0.784632 
vt 0.772023 0.798055 
vt 0.738533 0.742394 
vt 0.792926 0.855127 
vt 0.828664 0.801512 
vt 0.850623 0.862358 
vt 0.786971 0.826355 
vt 0.012897 0.679013 
vt 0.178442 0.674551 
vt 0.005605 0.830667 
vt 0.176674 0.990373 
vt 0.011072 0.988099 
vt 0.346529 0.832637 
vt 0.343084 0.981174 
vt 0.344713 0.681478 
vt 0.344713 0.681478 
vt 0.397846 0.673877 
vt 0.346529 0.832637 
vt 0.449497 0.823507 
vt 0.448657 0.671748 
vt 0.583687 0.679008 
vt 0.448501 0.969291 
vt 0.343084 0.981174 
vt 0.676623 0.83742 
vt 0.676495 0.697699 
vt 0.676366 0.976576 
vt 0.165985 0.169129 
vt 0.254673 0.012641 
vt 0.355903 0.171636 
vt 0.351848 0.017046 
vt 0.162319 0.013066 
vt 0.080291 0.022033 
vt 0.169237 0.320271 
vt 0.362213 0.330025 
vt 0.018462 0.183941 
vt 0.014968 0.042101 
vt 0.017859 0.323063 
vt 0.991865 0.0148413 
vt 0.988497 0.182468 
vt 0.851185 0.0202671 
vt 0.707243 0.182634 
vt 0.709879 0.0158958 
vt 0.851274 0.344835 
vt 0.710018 0.349515 
vt 0.991721 0.350043 
vt 0.776918 0.977352 
vt 0.685408 0.992628 
vt 0.709666 0.910241 
vt 0.778919 0.923676 
vt 0.754318 0.860374 
vt 0.792926 0.855127 
vt 0.778919 0.923676 
vt 0.879131 0.917967 
vt 0.776918 0.977352 
vt 0.828931 0.985444 
vt 0.881149 0.993567 
vt 0.792926 0.855127 
vt 0.828664 0.801512 
vt 0.850623 0.862358 
vt 0.786971 0.826355 
vt 0.778919 0.923676 
vt 0.879131 0.917967 
vt 0.776918 0.977352 
vt 0.881149 0.993567 
vt 0.840387 0.770314 
vt 0.828664 0.801512 
vt 0.796617 0.784632 
vt 0.776918 0.977352 
vt 0.685408 0.992628 
vt 0.709666 0.910241 
vt 0.778919 0.923676 
vt 0.754318 0.860374 
vt 0.792926 0.855127 
vt 0.776918 0.977352 
vt 0.685408 0.992628 
vt 0.709666 0.910241 
vt 0.778919 0.923676 
vt 0.754318 0.860374 
vt 0.792926 0.855127 
vt 0.778919 0.923676 
vt 0.879131 0.917967 
vt 0.776918 0.977352 
vt 0.881151 0.993551 
vt 0.840387 0.770314 
vt 0.828664 0.801512 
vt 0.796617 0.784632 
vt 0.738533 0.742394 
vt 0.778919 0.923676 
vt 0.879131 0.917967 
vt 0.776918 0.977352 
vt 0.881149 0.993567 
vt 0.840387 0.770314 
vt 0.828664 0.801512 
vt 0.796617 0.784632 
vt 0.738533 0.742394 
vt 0.840387 0.770314 
vt 0.796617 0.784632 
vt 0.738533 0.742394 
vt 0.840387 0.770314 
vt 0.828664 0.801512 
vt 0.796617 0.784632 
vt 0.738533 0.742394 
vt 0.776918 0.977352 
vt 0.685408 0.992628 
vt 0.709666 0.910241 
vt 0.778919 0.923676 
vt 0.754318 0.860374 
vt 0.792926 0.855127 
vt 0.840387 0.770314 
vt 0.828664 0.801512 
vt 0.796617 0.784632 
vt 0.738533 0.742394 
vt 0.776918 0.977352 
vt 0.685408 0.992628 
vt 0.709666 0.910241 
vt 0.778919 0.923676 
vt 0.754318 0.860374 
vt 0.792926 0.855127 
vt 0.971526 0.744446 
vt 0.867568 0.746919 
vt 0.910865 0.68601 
vt 0.929607 0.793786 
vt 0.778919 0.923676 
vt 0.850623 0.862358 
vt 0.879131 0.917967 
vt 0.792926 0.855127 
vt 0.778919 0.923676 
vt 0.879131 0.917967 
vt 0.776918 0.977352 
vt 0.833212 0.986232 
vt 0.881149 0.993567 
vt 0.971526 0.744446 
vt 0.867568 0.746919 
vt 0.910865 0.68601 
vt 0.929607 0.793786 
vt 0.778919 0.923676 
vt 0.850623 0.862358 
vt 0.879131 0.917967 
vt 0.792926 0.855127 
vt 0.786971 0.826355 
vt 0.746039 0.830587 
vt 0.772023 0.798055 
vt 0.738533 0.742394 
vt 0.792926 0.855127 
vt 0.754318 0.860374 
vt 0.778919 0.923676 
vt 0.850623 0.862358 
vt 0.879131 0.917967 
vt 0.792926 0.855127 
vt 0.971526 0.744446 
vt 0.867568 0.746919 
vt 0.910865 0.68601 
vt 0.929607 0.793786 
vt 0.786971 0.826355 
vt 0.746039 0.830587 
vt 0.772023 0.798055 
vt 0.738533 0.742394 
vt 0.792926 0.855127 
vt 0.754318 0.860374 
vt 0.786971 0.826355 
vt 0.746039 0.830587 
vt 0.772023 0.798055 
vt 0.792926 0.855127 
vt 0.754318 0.860374 
vt 0.971526 0.744446 
vt 0.867568 0.746919 
vt 0.910865 0.68601 
vt 0.929607 0.793786 
vt 0.778919 0.923676 
vt 0.850623 0.862358 
vt 0.879131 0.917967 
vt 0.792926 0.855127 
vt 0.786971 0.826355 
vt 0.746039 0.830587 
vt 0.772023 0.798055 
vt 0.738533 0.742394 
vt 0.792926 0.855127 
vt 0.754318 0.860374 
vt 0.971526 0.744446 
vt 0.867568 0.746919 
vt 0.910865 0.68601 
vt 0.929607 0.793786 
vt 0.772023 0.798055 
vt 0.746039 0.830587 
vt 0.738533 0.742394 
vt 0.778919 0.923676 
vt 0.850623 0.862358 
vt 0.879131 0.917967 
vt 0.792926 0.855127 
vt 0.781786 0.730058 
vt 0.803236 0.640405 
vt 0.910865 0.68601 
vt 0.867568 0.746919 
vt 0.786971 0.826355 
vt 0.746039 0.830587 
vt 0.772023 0.798055 
vt 0.738533 0.742394 
vt 0.792926 0.855127 
vt 0.754318 0.860374 
vt 0.972968 0.994815 
vt 0.881149 0.993567 
vt 0.879131 0.917967 
vt 0.947687 0.882059 
vt 0.850623 0.862358 
vt 0.887287 0.829255 
vt 0.828664 0.801512 
vt 0.840387 0.770314 
vt 0.972968 0.994815 
vt 0.881149 0.993567 
vt 0.879131 0.917967 
vt 0.947687 0.882059 
vt 0.850623 0.862358 
vt 0.887287 0.829255 
vt 0.828664 0.801512 
vt 0.840387 0.770314 
vt 0.781786 0.730058 
vt 0.803236 0.640405 
vt 0.910865 0.68601 
vt 0.867568 0.746919 
vt 0.781786 0.730058 
vt 0.803236 0.640405 
vt 0.910865 0.68601 
vt 0.867568 0.746919 
vt 0.972968 0.994815 
vt 0.881149 0.993567 
vt 0.879131 0.917967 
vt 0.947687 0.882059 
vt 0.850623 0.862358 
vt 0.887287 0.829255 
vt 0.828664 0.801512 
vt 0.840387 0.770314 
vt 0.418125 0.112811 
vt 0.444358 0.0991575 
vt 0.444894 0.132218 
vt 0.589393 0.0816255 
vt 0.579272 0.127595 
vt 0.582919 0.104063 
vt 0.972968 0.994815 
vt 0.881151 0.993551 
vt 0.879131 0.917967 
vt 0.947687 0.882059 
vt 0.850623 0.862358 
vt 0.887287 0.829255 
vt 0.828664 0.801512 
vt 0.840387 0.770314 
vt 0.695706 0.0856997 
vt 0.638261 0.0597625 
vt 0.709879 0.0158958 
vt 0.64215 0.0170338 
vt 0.596798 0.0472002 
vt 0.707243 0.182634 
vt 0.559777 0.0187282 
vt 0.583547 0.0902761 
vt 0.519987 0.0222362 
vt 0.467881 0.0175122 
vt 0.444176 0.099144 
vt 0.4182 0.1127 
vt 0.444894 0.132218 
vt 0.371613 0.0159883 
vt 0.371816 0.183586 
vt 0.389237 0.200771 
vt 0.372189 0.351202 
vt 0.443058 0.215946 
vt 0.42614 0.349432 
vt 0.45032 0.253957 
vt 0.477412 0.347833 
vt 0.488801 0.228993 
vt 0.499176 0.338325 
vt 0.614035 0.348713 
vt 0.531983 0.207171 
vt 0.596102 0.302258 
vt 0.497433 0.183246 
vt 0.588602 0.280738 
vt 0.688066 0.282971 
vt 0.710018 0.349515 
vt 0.573714 0.209972 
vt 0.51928 0.18317 
vt 0.663128 0.178121 
vt 0.657601 0.17444 
vt 0.657601 0.17444 
vt 0.575504 0.135501 
vt 0.519206 0.154369 
vt 0.504314 0.147069 
vt 0.781786 0.730058 
vt 0.803236 0.640405 
vt 0.910865 0.68601 
vt 0.867568 0.746919 
vt 0.879131 0.917967 
vt 0.932423 0.994165 
vt 0.881149 0.993567 
vt 0.972968 0.994815 
vt 0.947687 0.882059 
vt 0.850623 0.862358 
vt 0.887287 0.829255 
vt 0.828664 0.801512 
vt 0.840387 0.770314 
vt 0.781786 0.730058 
vt 0.803236 0.640405 
vt 0.910865 0.68601 
vt 0.867568 0.746919 
vt 0.929607 0.793786 
vt 0.992561 0.794279 
vt 0.942244 0.810892 
vt 0.971526 0.744446 
vt 0.929607 0.793786 
vt 0.992561 0.794279 
vt 0.942244 0.810892 
vt 0.971526 0.744446 
vt 0.929607 0.793786 
vt 0.992561 0.794279 
vt 0.942244 0.810892 
vt 0.971526 0.744446 
vt 0.929607 0.793786 
vt 0.992561 0.794279 
vt 0.942244 0.810892 
vt 0.971526 0.744446 
vt 0.929607 0.793786 
vt 0.992561 0.794279 
vt 0.942244 0.810892 
vt 0.971526 0.744446 
vt 0.942244 0.810892 
vt 0.992561 0.794279 
vt 0.964326 0.875516 
vt 0.942244 0.810892 
vt 0.992561 0.794279 
vt 0.964326 0.875516 
vt 0.942244 0.810892 
vt 0.992561 0.794279 
vt 0.964326 0.875516 
vt 0.942244 0.810892 
vt 0.992561 0.794279 
vt 0.964326 0.875516 
vt 0.942244 0.810892 
vt 0.992561 0.794279 
vt 0.964326 0.875516 

usemtl Pet1Mtl

f 1/1/1 2/2/2 3/3/3 
f 3/3/3 2/2/2 4/4/4 
f 3/3/3 5/5/5 1/1/1 
f 1/1/1 5/5/5 6/6/6 
f 3/3/3 7/7/7 5/5/5 
f 8/8/8 7/7/7 3/3/3 
f 3/3/3 4/4/4 8/8/8 
f 8/8/8 4/4/4 9/9/9 
f 10/10/10 11/11/11 12/12/12 
f 11/11/11 10/10/10 13/13/13 
f 14/14/14 15/15/15 16/16/16 
f 15/15/15 14/14/14 17/17/17 
f 18/18/18 19/19/19 20/20/20 
f 19/19/19 18/18/18 21/21/21 
f 22/22/22 23/23/23 24/24/24 
f 23/23/23 22/22/22 25/25/25 
f 26/26/26 27/27/27 28/28/28 
f 29/29/29 30/30/30 31/31/31 
f 30/30/30 29/29/29 32/32/32 
f 33/33/33 34/34/34 35/35/35 
f 33/33/33 36/36/36 34/34/34 
f 37/37/37 38/38/38 39/39/39 
f 40/40/40 41/41/41 42/42/42 
f 43/43/43 44/44/44 45/45/45 
f 43/43/43 46/46/46 44/44/44 
f 47/47/47 48/48/48 49/49/49 
f 50/50/50 51/51/51 52/52/52 
f 50/50/50 53/53/53 51/51/51 
f 54/54/54 55/55/55 56/56/56 
f 57/57/57 58/58/58 59/59/59 
f 57/57/57 60/60/60 58/58/58 
f 61/61/61 62/62/62 63/63/63 
f 64/64/64 63/63/63 62/62/62 
f 65/65/65 63/63/63 64/64/64 
f 62/62/62 66/66/66 64/64/64 
f 64/64/64 66/66/66 67/67/67 
f 62/62/62 68/68/68 66/66/66 
f 69/69/69 70/70/70 71/71/71 
f 71/71/71 70/70/70 72/72/72 
f 70/70/70 73/73/73 72/72/72 
f 74/74/74 72/72/72 73/73/73 
f 72/72/72 75/75/75 71/71/71 
f 71/71/71 75/75/75 76/76/76 
f 74/74/74 77/77/77 72/72/72 
f 72/72/72 77/77/77 75/75/75 
f 78/78/78 77/77/77 74/74/74 
f 75/75/75 77/77/77 79/79/79 
f 80/80/80 81/81/81 82/82/82 
f 82/82/82 81/81/81 83/83/83 
f 81/81/81 80/80/80 84/84/84 
f 85/85/85 84/84/84 80/80/80 
f 80/80/80 82/82/82 86/86/86 
f 86/86/86 82/82/82 87/87/87 
f 88/88/88 85/85/85 80/80/80 
f 80/80/80 86/86/86 88/88/88 
f 89/89/89 85/85/85 88/88/88 
f 88/88/88 86/86/86 90/90/90 
f 91/91/91 92/92/92 93/93/93 
f 93/93/93 92/92/92 94/94/94 
f 93/93/93 94/94/94 95/95/95 
f 92/92/92 96/96/96 94/94/94 
f 94/94/94 96/96/96 97/97/97 
f 98/98/98 96/96/96 92/92/92 
f 99/99/99 100/100/100 101/101/101 
f 99/99/99 101/101/101 102/102/102 
f 102/102/102 101/101/101 103/103/103 
f 102/102/102 103/103/103 104/104/104 
f 105/105/105 106/106/106 107/107/107 
f 107/107/107 106/106/106 108/108/108 
f 108/108/108 106/106/106 109/109/109 
f 110/110/110 111/111/111 112/112/112 
f 110/110/110 113/113/113 111/111/111 
f 114/114/114 115/115/115 116/116/116 
f 116/116/116 115/115/115 117/117/117 
f 118/118/118 119/119/119 120/120/120 
f 121/121/121 122/122/122 123/123/123 
f 121/121/121 123/123/123 124/124/124 
f 124/124/124 123/123/123 125/125/125 
f 124/124/124 125/125/125 126/126/126 
f 127/127/127 128/128/128 129/129/129 
f 127/127/127 129/129/129 130/130/130 
f 130/130/130 129/129/129 131/131/131 
f 130/130/130 131/131/131 132/132/132 
f 133/133/133 134/134/134 135/135/135 
f 135/135/135 134/134/134 136/136/136 
f 137/137/137 138/138/138 139/139/139 
f 137/137/137 139/139/139 140/140/140 
f 141/141/141 142/142/142 143/143/143 
f 143/143/143 142/142/142 144/144/144 
f 145/145/145 146/146/146 147/147/147 
f 145/145/145 147/147/147 148/148/148 
f 149/149/149 150/150/150 151/151/151 
f 152/152/152 153/153/153 154/154/154 
f 152/152/152 154/154/154 155/155/155 
f 156/156/156 157/157/157 158/158/158 
f 156/156/156 158/158/158 159/159/159 
f 159/159/159 158/158/158 160/160/160 
f 159/159/159 160/160/160 161/161/161 
f 162/162/162 163/163/163 164/164/164 
f 162/162/162 164/164/164 165/165/165 
f 166/166/166 167/167/167 168/168/168 
f 166/166/166 168/168/168 169/169/169 
f 169/169/169 168/168/168 170/170/170 
f 169/169/169 170/170/170 171/171/171 
f 172/172/172 173/173/173 174/174/174 
f 175/175/175 173/173/173 172/172/172 
f 176/176/176 177/177/177 178/178/178 
f 179/179/179 177/177/177 176/176/176 
f 180/180/180 181/181/181 182/182/182 
f 182/182/182 181/181/181 183/183/183 
f 183/183/183 181/181/181 184/184/184 
f 185/185/185 186/186/186 187/187/187 
f 188/188/188 186/186/186 185/185/185 
f 189/189/189 190/190/190 191/191/191 
f 192/192/192 190/190/190 189/189/189 
f 193/193/193 194/194/194 195/195/195 
f 195/195/195 194/194/194 196/196/196 
f 197/197/197 194/194/194 193/193/193 
f 197/197/197 198/198/198 194/194/194 
f 199/199/199 200/200/200 201/201/201 
f 202/202/202 200/200/200 199/199/199 
f 203/203/203 204/204/204 205/205/205 
f 206/206/206 204/204/204 203/203/203 
f 207/207/207 208/208/208 209/209/209 
f 209/209/209 208/208/208 210/210/210 
f 211/211/211 208/208/208 207/207/207 
f 211/211/211 212/212/212 208/208/208 
f 213/213/213 214/214/214 215/215/215 
f 216/216/216 214/214/214 213/213/213 
f 216/216/216 217/217/217 214/214/214 
f 218/218/218 219/219/219 220/220/220 
f 221/221/221 219/219/219 218/218/218 
f 222/222/222 223/223/223 224/224/224 
f 225/225/225 223/223/223 222/222/222 
f 226/226/226 227/227/227 228/228/228 
f 228/228/228 227/227/227 229/229/229 
f 230/230/230 227/227/227 226/226/226 
f 230/230/230 231/231/231 227/227/227 
f 232/232/232 233/233/233 234/234/234 
f 235/235/235 233/233/233 232/232/232 
f 236/236/236 237/237/237 238/238/238 
f 239/239/239 240/240/240 241/241/241 
f 242/242/242 240/240/240 239/239/239 
f 243/243/243 244/244/244 245/245/245 
f 243/243/243 245/245/245 246/246/246 
f 247/247/247 248/248/248 249/249/249 
f 249/249/249 248/248/248 250/250/250 
f 251/251/251 248/248/248 247/247/247 
f 251/251/251 252/252/252 248/248/248 
f 253/253/253 254/254/254 255/255/255 
f 253/253/253 255/255/255 256/256/256 
f 257/257/257 256/256/256 255/255/255 
f 258/258/258 256/256/256 257/257/257 
f 258/258/258 257/257/257 259/259/259 
f 258/258/258 259/259/259 260/260/260 
f 261/261/261 262/262/262 263/263/263 
f 261/261/261 263/263/263 264/264/264 
f 265/265/265 264/264/264 263/263/263 
f 266/266/266 264/264/264 265/265/265 
f 266/266/266 265/265/265 267/267/267 
f 266/266/266 267/267/267 268/268/268 
f 269/269/269 270/270/270 271/271/271 
f 269/269/269 271/271/271 272/272/272 
f 273/273/273 274/274/274 275/275/275 
f 273/273/273 275/275/275 276/276/276 
f 277/277/277 278/278/278 279/279/279 
f 277/277/277 279/279/279 280/280/280 
f 281/281/281 280/280/280 279/279/279 
f 282/282/282 280/280/280 281/281/281 
f 282/282/282 281/281/281 283/283/283 
f 282/282/282 283/283/283 284/284/284 
f 285/285/285 286/286/286 287/287/287 
f 288/288/288 289/289/289 290/290/290 
f 291/291/291 292/292/292 293/293/293 
f 291/291/291 293/293/293 294/294/294 
f 295/295/295 294/294/294 293/293/293 
f 296/296/296 294/294/294 295/295/295 
f 296/296/296 295/295/295 297/297/297 
f 296/296/296 297/297/297 298/298/298 
f 299/299/299 300/300/300 301/301/301 
f 301/301/301 300/300/300 302/302/302 
f 303/303/303 302/302/302 300/300/300 
f 301/301/301 304/304/304 299/299/299 
f 305/305/305 302/302/302 303/303/303 
f 303/303/303 306/306/306 305/305/305 
f 305/305/305 306/306/306 307/307/307 
f 305/305/305 307/307/307 308/308/308 
f 307/307/307 309/309/309 308/308/308 
f 310/310/310 308/308/308 309/309/309 
f 310/310/310 309/309/309 311/311/311 
f 312/312/312 308/308/308 310/310/310 
f 310/310/310 313/313/313 312/312/312 
f 314/314/314 313/313/313 310/310/310 
f 313/313/313 314/314/314 315/315/315 
f 314/314/314 316/316/316 315/315/315 
f 315/315/315 316/316/316 317/317/317 
f 316/316/316 318/318/318 317/317/317 
f 317/317/317 318/318/318 319/319/319 
f 316/316/316 320/320/320 318/318/318 
f 319/319/319 318/318/318 321/321/321 
f 321/321/321 322/322/322 319/319/319 
f 323/323/323 318/318/318 320/320/320 
f 324/324/324 322/322/322 321/321/321 
f 320/320/320 325/325/325 323/323/323 
f 321/321/321 326/326/326 324/324/324 
f 324/324/324 327/327/327 322/322/322 
f 322/322/322 327/327/327 328/328/328 
f 326/326/326 329/329/329 324/324/324 
f 323/323/323 329/329/329 326/326/326 
f 328/328/328 327/327/327 304/304/304 
f 330/330/330 329/329/329 323/323/323 
f 323/323/323 325/325/325 330/330/330 
f 327/327/327 331/331/331 304/304/304 
f 331/331/331 329/329/329 330/330/330 
f 304/304/304 331/331/331 299/299/299 
f 332/332/332 299/299/299 331/331/331 
f 331/331/331 330/330/330 333/333/333 
f 334/334/334 333/333/333 330/330/330 
f 325/325/325 335/335/335 330/330/330 
f 330/330/330 335/335/335 334/334/334 
f 336/336/336 335/335/335 325/325/325 
f 334/334/334 335/335/335 306/306/306 
f 337/337/337 338/338/338 339/339/339 
f 337/337/337 339/339/339 340/340/340 
f 341/341/341 342/342/342 343/343/343 
f 344/344/344 342/342/342 341/341/341 
f 344/344/344 341/341/341 345/345/345 
f 346/346/346 345/345/345 341/341/341 
f 347/347/347 345/345/345 346/346/346 
f 347/347/347 346/346/346 348/348/348 
f 347/347/347 348/348/348 349/349/349 
f 350/350/350 351/351/351 352/352/352 
f 350/350/350 352/352/352 353/353/353 
f 354/354/354 355/355/355 356/356/356 
f 354/354/354 357/357/357 355/355/355 
f 358/358/358 359/359/359 360/360/360 
f 358/358/358 361/361/361 359/359/359 
f 362/362/362 363/363/363 364/364/364 
f 362/362/362 365/365/365 363/363/363 
f 366/366/366 367/367/367 368/368/368 
f 366/366/366 369/369/369 367/367/367 
f 370/370/370 371/371/371 372/372/372 
f 370/370/370 373/373/373 371/371/371 
f 374/374/374 375/375/375 376/376/376 
f 377/377/377 378/378/378 379/379/379 
f 380/380/380 381/381/381 382/382/382 
f 383/383/383 384/384/384 385/385/385 
f 386/386/386 387/387/387 388/388/388 

