# This file is brought to you by Roblox Corporation
# Generated by Roblox Studio

mtllib icecream.mtl

g Pet1

v -0.213693 -0.660426 -1.50642 
v -0.133729 -0.370332 -1.70035 
v 0.210222 -0.660387 -1.50776 
v 0.13113 -0.36983 -1.70073 
v -0.133729 -0.370332 -1.70035 
v 0.0837504 -0.128266 -1.53561 
v 0.13113 -0.36983 -1.70073 
v -0.0874941 -0.128113 -1.53665 
v 0.109634 -1.60223 1.12643 
v 0.504031 -1.60223 0.671012 
v 0.544481 -1.60223 1.08382 
v 0.0691845 -1.60223 0.71362 
v -0.531262 -1.60223 1.08986 
v -0.0598538 -1.60223 0.714719 
v -0.0959941 -1.60223 1.12793 
v -0.495122 -1.60223 0.676649 
v -0.500798 -1.60223 0.499558 
v -0.0293895 -1.60223 0.12442 
v -0.0655298 -1.60223 0.537628 
v -0.464657 -1.60223 0.0863504 
v 0.0862905 -1.60223 0.535949 
v 0.472902 -1.60223 0.0739042 
v 0.520352 -1.60223 0.485966 
v 0.0388403 -1.60223 0.123888 
v 0.355187 0.0786529 -0.872173 
v -0.355141 0.0774956 -0.870645 
v -0.361451 0.310037 -0.74153 
v 0.361491 0.311717 -0.742747 
v 0.34846 -0.170025 -0.956001 
v -0.348407 -0.170625 -0.954139 
v 0.340756 -0.454814 -1.00114 
v -0.340696 -0.454775 -0.998893 
v 0.332002 1.17801 0.911197 
v -0.104916 1.38038 0.677582 
v -0.31077 1.19331 0.907016 
v 0.2356 1.3735 0.679798 
v -0.0437663 1.59183 0.605115 
v -0.601025 0.80571 1.20354 
v 0.610775 0.776861 1.21143 
v 0.483904 1.07708 1.06458 
v -0.46296 1.09962 1.05842 
v 0.332002 1.17801 0.911197 
v -0.31077 1.19331 0.907016 
v 0.00316043 -1.38555 1.06862 
v 0.852966 -1.38306 1.18063 
v 0.00316039 -1.37247 1.45473 
v 0.860466 -1.34523 1.45473 
v -0.854139 -1.34523 1.45473 
v 0.845796 -1.39412 0.91835 
v -0.846309 -1.38359 0.962695 
v 0.00316046 -1.39901 0.699166 
v 0.853236 -1.35658 0.220639 
v -0.838809 -1.39517 0.491883 
v 0.00316051 -1.35658 0.146451 
v 0.860466 -1.25974 -0.25987 
v -0.846909 -1.35658 0.0722632 
v 0.00316054 -1.28282 -0.259871 
v -0.854139 -1.25974 -0.259871 
v -0.773132 0.635806 1.3755 
v 0.610775 0.776861 1.21143 
v -0.601025 0.80571 1.20354 
v 0.777029 0.601891 1.38087 
v 0.00341839 0.261282 1.4535 
v 0.860068 0.213237 1.45664 
v -0.853232 0.255485 1.45035 
v 0.332555 1.16179 0.264877 
v 0.2356 1.3735 0.679798 
v 0.332002 1.17801 0.911197 
v 0.235894 1.3662 0.337401 
v -0.0437663 1.59183 0.605115 
v 0.483904 1.07708 1.06458 
v 0.61182 0.746282 -0.00706421 
v 0.484721 1.05318 0.112487 
v 0.610775 0.776861 1.21143 
v 0.332002 1.17801 0.911197 
v 0.332555 1.16179 0.264877 
v -0.312852 1.1641 0.26542 
v -0.31077 1.19331 0.907016 
v -0.104916 1.38038 0.677582 
v -0.106019 1.36724 0.337688 
v -0.0437663 1.59183 0.605115 
v -0.601025 0.80571 1.20354 
v -0.466028 1.05659 0.113287 
v -0.60495 0.750639 -0.00604057 
v -0.46296 1.09962 1.05842 
v -0.312852 1.1641 0.26542 
v -0.31077 1.19331 0.907016 
v -0.854139 -1.34523 1.45473 
v 0.00316039 -1.37247 1.45473 
v -0.887282 -0.559585 1.45473 
v 0.00341839 0.261282 1.4535 
v -0.853232 0.255485 1.45035 
v 0.886678 -0.559585 1.45473 
v 0.860068 0.213237 1.45664 
v 0.860466 -1.34523 1.45473 
v 0.777029 0.601891 1.38087 
v 0.61182 0.746282 -0.00706421 
v 0.610775 0.776861 1.21143 
v 0.780918 0.575283 -0.175601 
v 0.846463 0.14477 0.916435 
v 0.860459 0.180905 -0.260043 
v 0.860068 0.213237 1.45664 
v -0.60495 0.750639 -0.00604057 
v -0.773132 0.635806 1.3755 
v -0.601025 0.80571 1.20354 
v -0.775239 0.575417 -0.173603 
v -0.839079 0.137037 0.492778 
v -0.854146 0.182022 -0.259976 
v -0.853232 0.255485 1.45035 
v 0.852966 -1.38306 1.18063 
v 0.886678 -0.559585 1.45473 
v 0.860466 -1.34523 1.45473 
v 0.845796 -0.608478 0.91835 
v 0.845796 -1.39412 0.91835 
v 0.853236 -1.35658 0.220639 
v 0.846463 0.14477 0.916435 
v 0.860068 0.213237 1.45664 
v 0.834268 -0.53797 -0.25987 
v 0.860466 -1.25974 -0.25987 
v 0.860459 0.180905 -0.260043 
v -0.466028 1.05659 0.113287 
v 0.61182 0.746282 -0.00706421 
v -0.60495 0.750639 -0.00604057 
v 0.484721 1.05318 0.112487 
v -0.312852 1.1641 0.26542 
v 0.332555 1.16179 0.264877 
v -0.106019 1.36724 0.337688 
v 0.332555 1.16179 0.264877 
v -0.312852 1.1641 0.26542 
v 0.235894 1.3662 0.337401 
v -0.0437663 1.59183 0.605115 
v 0.780918 0.575283 -0.175601 
v -0.775239 0.575417 -0.173603 
v 0.61182 0.746282 -0.00706421 
v -0.60495 0.750639 -0.00604057 
v 0.00315829 0.163137 -0.260013 
v -0.854146 0.182022 -0.259976 
v 0.860459 0.180905 -0.260043 
v -0.887282 -0.559585 1.45473 
v -0.846309 -1.38359 0.962695 
v -0.854139 -1.34523 1.45473 
v -0.838809 -0.609603 0.491875 
v -0.838809 -1.39517 0.491883 
v -0.846909 -1.35658 0.0722632 
v -0.839079 0.137037 0.492778 
v -0.853232 0.255485 1.45035 
v -0.827664 -0.53797 -0.259871 
v -0.854139 -1.25974 -0.259871 
v -0.854146 0.182022 -0.259976 
v 0.821561 0.309532 1.48239 
v 0.606815 0.422028 1.52892 
v 0.735337 0.191709 1.43427 
v 0.603393 0.192343 1.43483 
v 0.606815 0.422028 1.52892 
v 0.47145 0.192979 1.4354 
v 0.603393 0.192343 1.43483 
v 0.397077 0.320923 1.4871 
v 0.789986 0.60154 1.60331 
v 0.606815 0.422028 1.52892 
v 0.852016 0.430883 1.53269 
v 0.852016 0.430883 1.53269 
v 0.606815 0.422028 1.52892 
v 0.821561 0.309532 1.48239 
v 0.363534 0.442112 1.53712 
v 0.606815 0.422028 1.52892 
v 0.42268 0.613759 1.60809 
v 0.42268 0.613759 1.60809 
v 0.606815 0.422028 1.52892 
v 0.61146 0.837393 1.70073 
v 0.61146 0.837393 1.70073 
v 0.606815 0.422028 1.52892 
v 0.789986 0.60154 1.60331 
v 0.606815 0.422028 1.52892 
v 0.363534 0.442112 1.53712 
v 0.397077 0.320923 1.4871 
v -0.605784 0.422028 1.50321 
v -0.741148 0.192979 1.40969 
v -0.609205 0.192343 1.40913 
v -0.815521 0.320923 1.4614 
v -0.391038 0.309532 1.45668 
v -0.605784 0.422028 1.50321 
v -0.477262 0.191709 1.40856 
v -0.609205 0.192343 1.40913 
v -0.849065 0.442112 1.51142 
v -0.605784 0.422028 1.50321 
v -0.789918 0.613759 1.58238 
v -0.605784 0.422028 1.50321 
v -0.849065 0.442112 1.51142 
v -0.815521 0.320923 1.4614 
v -0.422612 0.60154 1.57761 
v -0.605784 0.422028 1.50321 
v -0.360582 0.430883 1.50698 
v -0.360582 0.430883 1.50698 
v -0.605784 0.422028 1.50321 
v -0.391038 0.309532 1.45668 
v -0.789918 0.613759 1.58238 
v -0.605784 0.422028 1.50321 
v -0.601138 0.837393 1.67502 
v -0.601138 0.837393 1.67502 
v -0.605784 0.422028 1.50321 
v -0.422612 0.60154 1.57761 
v 0.00316054 -1.28282 -0.259871 
v -0.827664 -0.53797 -0.259871 
v 0.00315829 0.163137 -0.260013 
v -0.854146 0.182022 -0.259976 
v -0.854139 -1.25974 -0.259871 
v 0.834268 -0.53797 -0.25987 
v 0.860466 -1.25974 -0.25987 
v 0.860459 0.180905 -0.260043 
v -0.373161 -0.743466 -0.804515 
v -0.213693 -0.660426 -1.50642 
v 0.373451 -0.743505 -0.806754 
v 0.210222 -0.660387 -1.50776 
v 0.507298 -1.45467 1.05486 
v 0.140488 -1.45467 1.0908 
v 0.109634 -1.60223 1.12643 
v 0.544481 -1.60223 1.08382 
v 0.499189 -1.28887 1.04854 
v 0.147217 -1.28887 1.08303 
v -0.494384 -1.45467 1.06051 
v -0.0959941 -1.60223 1.12793 
v -0.127218 -1.45467 1.09262 
v -0.531262 -1.60223 1.08986 
v -0.486341 -1.28887 1.05411 
v -0.134027 -1.28887 1.08492 
v 0.340756 -0.454814 -1.00114 
v 0.210222 -0.660387 -1.50776 
v 0.207756 -0.455434 -1.33478 
v 0.13079 -0.338718 -1.52302 
v 0.373451 -0.743505 -0.806754 
v 0.13113 -0.36983 -1.70073 
v 0.381587 -0.505208 -0.73686 
v 0.109856 -0.245566 -1.49157 
v 0.34846 -0.170025 -0.956001 
v 0.0837504 -0.128266 -1.53561 
v 0.388691 -0.264826 -0.643975 
v 0.0280471 -0.190677 -1.34456 
v 0.0504639 -0.232029 -1.36156 
v -0.00397937 -0.287972 -1.29959 
v 0.355187 0.0786529 -0.872173 
v 0.395348 -0.105275 -0.536078 
v 0.361491 0.311717 -0.742747 
v 0.246873 0.141215 -0.247929 
v 0.276933 -0.0788516 -0.246842 
v 0.442657 -1.45467 0.11005 
v 0.482683 -1.45467 0.45764 
v 0.520352 -1.60223 0.485966 
v 0.472902 -1.60223 0.0739042 
v 0.436061 -1.28887 0.117934 
v 0.474468 -1.28887 0.451463 
v 0.473178 -1.45467 0.706639 
v 0.507298 -1.45467 1.05486 
v 0.544481 -1.60223 1.08382 
v 0.504031 -1.60223 0.671012 
v 0.466449 -1.28887 0.714409 
v 0.499189 -1.28887 1.04854 
v -0.340696 -0.454775 -0.998893 
v -0.213693 -0.660426 -1.50642 
v -0.373161 -0.743466 -0.804515 
v -0.381295 -0.505807 -0.735001 
v -0.212516 -0.455475 -1.33344 
v -0.348407 -0.170625 -0.954139 
v -0.13407 -0.339222 -1.52264 
v -0.388399 -0.265983 -0.642448 
v -0.133729 -0.370332 -1.70035 
v -0.355141 0.0774956 -0.870645 
v -0.114041 -0.245413 -1.49262 
v -0.395055 -0.106953 -0.534862 
v -0.0874941 -0.128113 -1.53665 
v -0.361451 0.310037 -0.74153 
v -0.246818 0.139998 -0.248037 
v -0.27679 -0.0800741 -0.246953 
v -0.0352604 -0.190437 -1.34487 
v -0.0578399 -0.231789 -1.36187 
v -0.00397937 -0.287972 -1.29959 
v -0.500798 -1.60223 0.499558 
v -0.433433 -1.45467 0.121654 
v -0.464657 -1.60223 0.0863504 
v -0.463919 -1.45467 0.470211 
v -0.426624 -1.28887 0.129354 
v -0.455876 -1.28887 0.46381 
v -0.531262 -1.60223 1.08986 
v -0.463898 -1.45467 0.711953 
v -0.495122 -1.60223 0.676649 
v -0.494384 -1.45467 1.06051 
v -0.457088 -1.28887 0.719652 
v -0.486341 -1.28887 1.05411 
v -0.584014 1.60223 0.659043 
v -0.63515 1.59049 0.659043 
v -0.654416 1.55503 0.659043 
v -0.555866 1.49339 0.659043 
v -0.503573 1.52084 0.659043 
v -0.432174 1.31363 0.659043 
v -0.464657 -1.60223 0.0863504 
v -0.0662677 -1.45467 0.153768 
v -0.0293895 -1.60223 0.12442 
v -0.433433 -1.45467 0.121654 
v -0.0743107 -1.28887 0.160168 
v -0.426624 -1.28887 0.129354 
v 0.472902 -1.60223 0.0739042 
v 0.0388403 -1.60223 0.123888 
v 0.076509 -1.45467 0.152213 
v 0.442657 -1.45467 0.11005 
v 0.0847245 -1.28887 0.158391 
v 0.436061 -1.28887 0.117934 
v -0.114041 -0.245413 -1.49262 
v 0.109856 -0.245566 -1.49157 
v 0.0504639 -0.232029 -1.36156 
v -0.0578399 -0.231789 -1.36187 
v -0.00397937 -0.287972 -1.29959 
v 0.246873 0.141215 -0.247929 
v -0.361451 0.310037 -0.74153 
v -0.246818 0.139998 -0.248037 
v 0.361491 0.311717 -0.742747 
v 1.42841 -0.756168 0.382725 
v 1.64755 -0.84247 0.507841 
v 1.52309 -0.795684 0.0937058 
v 1.39605 -0.742131 0.563573 
v 1.49945 -0.779154 1.19135 
v 1.63368 -0.834906 0.823259 
v 1.64755 -0.84247 0.507841 
v 1.42841 -0.756168 0.382725 
v 1.34706 -0.71787 1.30044 
v 1.13779 -0.640398 0.420511 
v 1.18516 -0.654234 1.18893 
v 1.37317 -0.734532 0.333037 
v 1.02006 -0.590598 0.882407 
v 1.19699 -0.664959 0.262329 
v 1.30569 -0.709649 0.0344798 
v 0.831754 -0.519585 0.290969 
v 0.84059 -0.518865 0.94224 
v 0.898044 -0.546473 0.208319 
v 1.12344 -0.635748 0.25845 
v 1.0595 -0.611644 0.0562988 
v 0.831754 -0.519585 0.290969 
v 1.13779 -0.640398 0.420511 
v 1.12344 -0.635748 0.25845 
v 0.898044 -0.546473 0.208319 
v -1.4254 -0.763732 0.382774 
v -1.64455 -0.850034 0.50789 
v -1.52008 -0.803248 0.0937543 
v -1.39304 -0.749694 0.563622 
v -1.49644 -0.786718 1.1914 
v -1.63067 -0.842469 0.823307 
v -1.34406 -0.725433 1.30049 
v -1.13478 -0.647961 0.42056 
v -1.18215 -0.661797 1.18898 
v -1.01706 -0.598162 0.882455 
v -0.828748 -0.527148 0.291018 
v -0.837584 -0.526429 0.942289 
v -1.19399 -0.672523 0.262378 
v -1.37016 -0.742096 0.333085 
v -1.30268 -0.717213 0.0345284 
v -1.39304 -0.749694 0.563622 
v -1.64455 -0.850034 0.50789 
v -1.4254 -0.763732 0.382774 
v -1.63067 -0.842469 0.823307 
v -0.895037 -0.554037 0.208367 
v -1.12044 -0.643311 0.258499 
v -1.0565 -0.619208 0.0563474 
v -1.13478 -0.647961 0.42056 
v -1.37016 -0.742096 0.333085 
v -1.19399 -0.672523 0.262378 
v -1.39304 -0.749694 0.563622 
v -0.828748 -0.527148 0.291018 
v -1.12044 -0.643311 0.258499 
v -0.895037 -0.554037 0.208367 
v -1.42841 -0.756168 0.382725 
v -1.52309 -0.795684 0.0937056 
v -1.64755 -0.84247 0.507841 
v -1.39605 -0.742131 0.563572 
v -1.63368 -0.834906 0.823258 
v -1.49945 -0.779154 1.19135 
v -1.64755 -0.84247 0.507841 
v -1.42841 -0.756168 0.382725 
v -1.34706 -0.71787 1.30044 
v -1.13779 -0.640398 0.420511 
v -1.18516 -0.654234 1.18893 
v -1.37317 -0.734532 0.333037 
v -1.19699 -0.664959 0.262329 
v -1.30569 -0.709649 0.0344796 
v -0.831754 -0.519585 0.290968 
v -1.02006 -0.590598 0.882406 
v -0.84059 -0.518865 0.94224 
v -1.02006 -0.590598 0.882406 
v -0.831754 -0.519585 0.290968 
v -1.13779 -0.640398 0.420511 
v -1.18516 -0.654234 1.18893 
v -0.898044 -0.546473 0.208318 
v -1.0595 -0.611644 0.0562986 
v -1.12344 -0.635748 0.25845 
v -0.831754 -0.519585 0.290968 
v -1.12344 -0.635748 0.25845 
v -1.13779 -0.640398 0.420511 
v -0.898044 -0.546473 0.208318 
v 1.4254 -0.763732 0.382775 
v 1.52008 -0.803248 0.0937546 
v 1.64455 -0.850034 0.50789 
v 1.39304 -0.749694 0.563622 
v 1.63067 -0.842469 0.823307 
v 1.49644 -0.786718 1.1914 
v 1.64455 -0.850034 0.50789 
v 1.4254 -0.763732 0.382775 
v 1.19399 -0.672523 0.262378 
v 1.30268 -0.717213 0.0345286 
v 1.37016 -0.742096 0.333086 
v 0.828747 -0.527148 0.291018 
v 1.01706 -0.598162 0.882455 
v 0.837583 -0.526429 0.942289 
v 1.13478 -0.647961 0.42056 
v 1.18215 -0.661797 1.18898 
v 1.34406 -0.725433 1.30049 
v 0.895037 -0.554037 0.208367 
v 1.0565 -0.619208 0.0563476 
v 1.12044 -0.643311 0.2585 
v 1.34406 -0.725433 1.30049 
v 1.39304 -0.749694 0.563622 
v 1.49644 -0.786718 1.1914 
v 1.13478 -0.647961 0.42056 
v 1.13478 -0.647961 0.42056 
v 1.37016 -0.742096 0.333086 
v 1.39304 -0.749694 0.563622 
v 1.19399 -0.672523 0.262378 
v 0.828747 -0.527148 0.291018 
v 1.12044 -0.643311 0.2585 
v 0.895037 -0.554037 0.208367 
v 0.482683 -1.45467 0.45764 
v 0.116536 -1.45467 0.499804 
v 0.0862905 -1.60223 0.535949 
v 0.520352 -1.60223 0.485966 
v 0.474468 -1.28887 0.451463 
v 0.123131 -1.28887 0.49192 
v -0.463919 -1.45467 0.470211 
v -0.0655298 -1.60223 0.537628 
v -0.0967538 -1.45467 0.502324 
v -0.500798 -1.60223 0.499558 
v -0.455876 -1.28887 0.46381 
v -0.103563 -1.28887 0.494625 
v -0.395055 -0.106953 -0.534862 
v 0.276933 -0.0788516 -0.246842 
v -0.27679 -0.0800741 -0.246953 
v 0.395348 -0.105275 -0.536078 
v -0.127218 -1.45467 1.09262 
v -0.0598538 -1.60223 0.714719 
v -0.096732 -1.45467 0.744066 
v -0.0959941 -1.60223 1.12793 
v -0.134027 -1.28887 1.08492 
v -0.104775 -1.28887 0.750466 
v -0.0967538 -1.45467 0.502324 
v -0.0293895 -1.60223 0.12442 
v -0.0662677 -1.45467 0.153768 
v -0.0655298 -1.60223 0.537628 
v -0.103563 -1.28887 0.494625 
v -0.0743107 -1.28887 0.160168 
v -0.584014 1.60223 0.655961 
v -0.654416 1.55503 0.655961 
v -0.63515 1.59049 0.655961 
v -0.555866 1.49339 0.655961 
v -0.503573 1.52084 0.655961 
v -0.432174 1.31363 0.655961 
v 0.207756 -0.455434 -1.33478 
v -0.340696 -0.454775 -0.998893 
v 0.340756 -0.454814 -1.00114 
v -0.212516 -0.455475 -1.33344 
v 0.140488 -1.45467 1.0908 
v 0.0691845 -1.60223 0.71362 
v 0.109634 -1.60223 1.12643 
v 0.106367 -1.45467 0.742582 
v 0.147217 -1.28887 1.08303 
v 0.114476 -1.28887 0.748897 
v 0.116536 -1.45467 0.499804 
v 0.0388403 -1.60223 0.123888 
v 0.0862905 -1.60223 0.535949 
v 0.076509 -1.45467 0.152213 
v 0.123131 -1.28887 0.49192 
v 0.0847245 -1.28887 0.158391 
v -0.400715 1.17482 0.484648 
v -0.27166 1.1312 0.605146 
v -0.368766 1.10003 0.54323 
v -0.349307 1.06999 0.642784 
v -0.243595 1.22525 0.584829 
v -0.295627 1.11663 0.72111 
v -0.349307 1.06999 0.642784 
v -0.275831 1.31622 0.589595 
v -0.432952 1.2658 0.489413 
v -0.282374 1.20168 0.772464 
v -0.356057 1.36937 0.617621 
v -0.453162 1.3382 0.555706 
v -0.453627 1.36439 0.658205 
v -0.31461 1.29265 0.77723 
v -0.463461 1.13669 0.788248 
v -0.380024 1.3548 0.733586 
v -0.453627 1.36439 0.658205 
v -0.495698 1.22766 0.793013 
v -0.491942 1.31464 0.743341 
v -0.453627 1.36439 0.658205 
v -0.568837 1.21106 0.615133 
v -0.453627 1.36439 0.658205 
v -0.537144 1.30438 0.633405 
v -0.453627 1.36439 0.658205 
v -0.453162 1.3382 0.555706 
v -0.432952 1.2658 0.489413 
v -0.400715 1.17482 0.484648 
v -0.5366 1.12009 0.610367 
v -0.452747 1.0662 0.620929 
v -0.368766 1.10003 0.54323 
v -0.349307 1.06999 0.642784 
v -0.407545 1.07646 0.730865 
v -0.349307 1.06999 0.642784 
v -0.349307 1.06999 0.642784 
v -0.495122 -1.60223 0.676649 
v -0.096732 -1.45467 0.744066 
v -0.0598538 -1.60223 0.714719 
v -0.463898 -1.45467 0.711953 
v -0.104775 -1.28887 0.750466 
v -0.457088 -1.28887 0.719652 
v 0.504031 -1.60223 0.671012 
v 0.0691845 -1.60223 0.71362 
v 0.106367 -1.45467 0.742582 
v 0.473178 -1.45467 0.706639 
v 0.114476 -1.28887 0.748897 
v 0.466449 -1.28887 0.714409 
v -0.705212 0.400474 1.26024 
v -0.561317 0.237613 1.24335 
v -0.656181 0.238406 1.24405 
v -0.815521 0.320923 1.4614 
v -0.741148 0.192979 1.40969 
v -0.849065 0.442112 1.51142 
v -0.391038 0.309532 1.45668 
v -0.477262 0.191709 1.40856 
v -0.507237 0.396994 1.25857 
v -0.360582 0.430883 1.50698 
v -0.735167 0.528454 1.3078 
v -0.47225 0.522245 1.30523 
v -0.605444 0.675444 1.40427 
v -0.422612 0.60154 1.57761 
v -0.789918 0.613759 1.58238 
v -0.601138 0.837393 1.67502 
v 0.507386 0.400474 1.28595 
v 0.651282 0.237613 1.26906 
v 0.556417 0.238406 1.26976 
v 0.397077 0.320923 1.4871 
v 0.47145 0.192979 1.4354 
v 0.363534 0.442112 1.53712 
v 0.821561 0.309532 1.48239 
v 0.735337 0.191709 1.43427 
v 0.705362 0.396994 1.28428 
v 0.852016 0.430883 1.53269 
v 0.477431 0.528454 1.3335 
v 0.740348 0.522245 1.33094 
v 0.607154 0.675444 1.42998 
v 0.789986 0.60154 1.60331 
v 0.42268 0.613759 1.60809 
v 0.61146 0.837393 1.70073 
v -0.0874941 -0.128113 -1.53665 
v 0.0280471 -0.190677 -1.34456 
v 0.0837504 -0.128266 -1.53561 
v -0.0352604 -0.190437 -1.34487 
v -0.00397937 -0.287972 -1.29959 
v -0.395055 -0.106953 -0.534862 
v 0.388691 -0.264826 -0.643975 
v 0.395348 -0.105275 -0.536078 
v -0.388399 -0.265983 -0.642448 
v 0.381587 -0.505208 -0.73686 
v -0.381295 -0.505807 -0.735001 
v 0.373451 -0.743505 -0.806754 
v -0.373161 -0.743466 -0.804515 
v 0.207756 -0.455434 -1.33478 
v -0.13407 -0.339222 -1.52264 
v -0.212516 -0.455475 -1.33344 
v 0.13079 -0.338718 -1.52302 
v 0.109856 -0.245566 -1.49157 
v -0.114041 -0.245413 -1.49262 
v -0.13407 -0.339222 -1.52264 
v 0.13079 -0.338718 -1.52302 

vn 0 -0.551181 -0.834646 
vn 0 -0.551181 -0.834646 
vn 0 -0.551181 -0.834646 
vn 0 -0.551181 -0.834646 
vn 0 0.559055 -0.826772 
vn 0 0.559055 -0.826772 
vn 0 0.559055 -0.826772 
vn 0 0.559055 -0.826772 
vn 0 -1 0 
vn 0 -1 0 
vn 0 -1 0 
vn 0 -1 0 
vn 0 -1 0 
vn 0 -1 0 
vn 0 -1 0 
vn 0 -1 0 
vn 0 -1 0 
vn 0 -1 0 
vn 0 -1 0 
vn 0 -1 0 
vn 0 -1 0 
vn 0 -1 0 
vn 0 -1 0 
vn 0 -1 0 
vn 0 0.401575 -0.913386 
vn 0 0.401575 -0.913386 
vn 0 0.488189 -0.874016 
vn 0 0.488189 -0.874016 
vn 0 0.23622 -0.968504 
vn 0 0.23622 -0.968504 
vn 0 0.15748 -0.984252 
vn 0 0.15748 -0.984252 
vn 0.00787402 0.637795 0.771654 
vn 0.00787402 0.456693 0.889764 
vn 0.00787402 0.637795 0.771654 
vn 0.00787402 0.456693 0.889764 
vn 0 0.251969 0.968504 
vn 0 0.338583 0.937008 
vn 0 0.338583 0.937008 
vn 0.00787402 0.559055 0.826772 
vn 0.00787402 0.559055 0.826772 
vn 0.015748 0.740157 0.669291 
vn 0.015748 0.740157 0.669291 
vn -0.00787402 -1 0.0551181 
vn 0.00787402 -1 0.0551181 
vn -0.00787402 -1 0.0708661 
vn 0.015748 -1 0.0787402 
vn -0.023622 -1 0.0551181 
vn 0.00787402 -1 -0.015748 
vn -0.015748 -1 0.0472441 
vn 0 -1 -0.023622 
vn 0.015748 -0.992126 -0.125984 
vn 0 -1 -0.023622 
vn 0.00787402 -0.992126 -0.141732 
vn 0.023622 -0.984252 -0.188976 
vn 0.00787402 -0.984252 -0.15748 
vn 0.00787402 -0.976378 -0.204724 
vn 0 -0.976378 -0.228346 
vn 0 0.322835 0.944882 
vn 0.00787402 0.622047 0.779528 
vn 0.00787402 0.622047 0.779528 
vn 0.00787402 0.322835 0.944882 
vn 0 0 1 
vn 0 0 1 
vn 0 0 1 
vn 0.944882 0.314961 -0.00787402 
vn 0.850394 0.519685 -0.00787402 
vn 0.944882 0.314961 -0.00787402 
vn 0.850394 0.519685 -0.00787402 
vn 0.708661 0.700787 -0.015748 
vn 0.850394 0.527559 -0.015748 
vn 0.952756 0.299213 -0.00787402 
vn 0.850394 0.527559 -0.015748 
vn 0.952756 0.299213 -0.00787402 
vn 0.692913 0.724409 -0.015748 
vn 0.692913 0.724409 -0.015748 
vn -0.811024 0.590551 -0.023622 
vn -0.811024 0.590551 -0.023622 
vn -0.913386 0.409449 -0.015748 
vn -0.913386 0.409449 -0.015748 
vn -0.976378 0.212598 -0.00787402 
vn -0.944882 0.322835 -0.00787402 
vn -0.834646 0.543307 -0.023622 
vn -0.944882 0.322835 -0.00787402 
vn -0.834646 0.543307 -0.023622 
vn -0.677165 0.732283 -0.0314961 
vn -0.677165 0.732283 -0.0314961 
vn 0 0 1 
vn 0 0 1 
vn 0 0 1 
vn 0 0 1 
vn 0 0 1 
vn 0 0 1 
vn 0 0 1 
vn 0 0 1 
vn 0.952756 0.307087 -0.00787402 
vn 0.787402 0.614173 -0.00787402 
vn 0.787402 0.614173 -0.00787402 
vn 0.952756 0.314961 0 
vn 1 0 -0.023622 
vn 1 -0.015748 0 
vn 1 0.015748 -0.0551181 
vn -0.779528 0.629921 -0.023622 
vn -0.952756 0.314961 -0.023622 
vn -0.779528 0.629921 -0.023622 
vn -0.952756 0.307087 0 
vn -1 0 -0.015748 
vn -1 -0.015748 0 
vn -1 0.023622 -0.0314961 
vn 1 -0.00787402 -0.0393701 
vn 1 0 -0.0551181 
vn 1 -0.023622 -0.0551181 
vn 1 0 -0.023622 
vn 1 0 -0.00787402 
vn 1 0.00787402 0.00787402 
vn 1 0 -0.023622 
vn 1 0.015748 -0.0551181 
vn 1 0 0 
vn 1 0.023622 0 
vn 1 -0.015748 0 
vn 0 0.511811 -0.858268 
vn 0 0.283465 -0.96063 
vn 0 0.283465 -0.96063 
vn 0 0.511811 -0.858268 
vn 0 0.716535 -0.700787 
vn 0 0.716535 -0.700787 
vn 0 0.472441 -0.88189 
vn 0 0.244094 -0.968504 
vn 0 0.244094 -0.968504 
vn 0 0.472441 -0.88189 
vn 0 0.677165 -0.732283 
vn 0 0.330709 -0.944882 
vn 0 0.330709 -0.944882 
vn 0 0.614173 -0.787402 
vn 0 0.614173 -0.787402 
vn 0 0 -1 
vn 0 0 -1 
vn 0 0 -1 
vn -1 0 -0.0393701 
vn -1 -0.015748 -0.023622 
vn -1 -0.0314961 -0.0393701 
vn -1 0 -0.00787402 
vn -1 0 0 
vn -1 0.015748 0.00787402 
vn -1 0 -0.015748 
vn -1 0.023622 -0.0314961 
vn -1 0 0 
vn -1 0.023622 0 
vn -1 -0.015748 0 
vn 0 -0.377953 0.929134 
vn 0 -0.377953 0.929134 
vn 0 -0.377953 0.929134 
vn 0 -0.377953 0.929134 
vn 0 -0.377953 0.929134 
vn 0 -0.377953 0.929134 
vn 0 -0.377953 0.929134 
vn 0 -0.377953 0.929134 
vn 0 -0.385827 0.92126 
vn 0 -0.385827 0.92126 
vn 0 -0.385827 0.92126 
vn 0 -0.385827 0.92126 
vn 0 -0.385827 0.92126 
vn 0 -0.385827 0.92126 
vn 0 -0.377953 0.92126 
vn 0 -0.377953 0.92126 
vn 0 -0.377953 0.92126 
vn 0 -0.385827 0.92126 
vn 0 -0.385827 0.92126 
vn 0 -0.385827 0.92126 
vn 0 -0.385827 0.92126 
vn 0 -0.385827 0.92126 
vn 0 -0.385827 0.92126 
vn 0 -0.377953 0.92126 
vn 0 -0.377953 0.92126 
vn 0 -0.377953 0.92126 
vn 0 -0.377953 0.929134 
vn 0 -0.377953 0.929134 
vn 0 -0.377953 0.929134 
vn 0 -0.377953 0.929134 
vn 0 -0.377953 0.929134 
vn 0 -0.377953 0.929134 
vn 0 -0.377953 0.929134 
vn 0 -0.377953 0.929134 
vn 0 -0.377953 0.92126 
vn 0 -0.377953 0.92126 
vn 0 -0.377953 0.92126 
vn 0 -0.377953 0.92126 
vn 0 -0.377953 0.92126 
vn 0 -0.377953 0.92126 
vn 0 -0.385827 0.92126 
vn 0 -0.385827 0.92126 
vn 0 -0.385827 0.92126 
vn 0 -0.385827 0.92126 
vn 0 -0.385827 0.92126 
vn 0 -0.385827 0.92126 
vn 0 -0.385827 0.92126 
vn 0 -0.385827 0.92126 
vn 0 -0.385827 0.92126 
vn 0 -0.385827 0.92126 
vn 0 -0.385827 0.92126 
vn 0 -0.385827 0.92126 
vn 0 0 -1 
vn 0 0 -1 
vn 0 0 -1 
vn 0 0 -1 
vn 0 0 -1 
vn 0 0 -1 
vn 0 0 -1 
vn 0 0 -1 
vn 0 -0.992126 -0.11811 
vn 0 -0.992126 -0.11811 
vn 0 -0.992126 -0.11811 
vn 0 -0.992126 -0.11811 
vn 0.0944882 0.125984 0.984252 
vn 0.0944882 0.125984 0.984252 
vn 0.0944882 0.212598 0.968504 
vn 0.0944882 0.212598 0.968504 
vn 0.0944882 0.0393701 0.992126 
vn 0.0944882 0.0393701 0.992126 
vn -0.0866142 0.125984 0.984252 
vn -0.0866142 0.212598 0.976378 
vn -0.0866142 0.125984 0.984252 
vn -0.0866142 0.212598 0.976378 
vn -0.0866142 0.0393701 0.992126 
vn -0.0866142 0.0393701 0.992126 
vn 0.976378 0.0314961 -0.212598 
vn 0.968504 0.141732 -0.212598 
vn 0.968504 0.141732 -0.212598 
vn 0.968504 0.220472 -0.0866142 
vn 0.976378 0.0314961 -0.212598 
vn 0.968504 0.220472 -0.0866142 
vn 0.992126 0.00787402 -0.133858 
vn 0.944882 0.275591 0.173228 
vn 0.992126 0.00787402 -0.133858 
vn 0.944882 0.275591 0.173228 
vn 0.992126 0.023622 -0.110236 
vn 0.811024 0.212598 0.543307 
vn 0.811024 0.212598 0.543307 
vn 0.708661 0.0944882 0.700787 
vn 0.992126 0.023622 -0.110236 
vn 0.984252 0.11811 0.110236 
vn 0.984252 0.11811 0.110236 
vn 0.929134 0.19685 0.314961 
vn 0.929134 0.19685 0.314961 
vn 0.984252 0.133858 -0.110236 
vn 0.984252 0.133858 -0.110236 
vn 0.968504 0.228346 -0.110236 
vn 0.968504 0.228346 -0.110236 
vn 0.992126 0.0472441 -0.110236 
vn 0.992126 0.0472441 -0.110236 
vn 0.984252 0.133858 -0.0944882 
vn 0.984252 0.133858 -0.0944882 
vn 0.968504 0.228346 -0.0944882 
vn 0.968504 0.228346 -0.0944882 
vn 0.992126 0.0472441 -0.0944882 
vn 0.992126 0.0472441 -0.0944882 
vn -0.976378 0.0314961 -0.204724 
vn -0.968504 0.141732 -0.204724 
vn -0.976378 0.0314961 -0.204724 
vn -0.992126 0.00787402 -0.133858 
vn -0.968504 0.141732 -0.204724 
vn -0.992126 0.00787402 -0.133858 
vn -0.968504 0.220472 -0.0944882 
vn -0.992126 0.023622 -0.110236 
vn -0.968504 0.220472 -0.0944882 
vn -0.992126 0.023622 -0.110236 
vn -0.944882 0.275591 0.15748 
vn -0.984252 0.11811 0.110236 
vn -0.944882 0.275591 0.15748 
vn -0.984252 0.11811 0.110236 
vn -0.929134 0.19685 0.314961 
vn -0.929134 0.19685 0.314961 
vn -0.811024 0.220472 0.535433 
vn -0.811024 0.220472 0.535433 
vn -0.708661 0.0944882 0.700787 
vn -0.968504 0.228346 -0.0866142 
vn -0.984252 0.133858 -0.0866142 
vn -0.968504 0.228346 -0.0866142 
vn -0.984252 0.133858 -0.0866142 
vn -0.992126 0.0472441 -0.0866142 
vn -0.992126 0.0472441 -0.0866142 
vn -0.968504 0.228346 -0.0866142 
vn -0.984252 0.133858 -0.0866142 
vn -0.968504 0.228346 -0.0866142 
vn -0.984252 0.133858 -0.0866142 
vn -0.992126 0.0472441 -0.0866142 
vn -0.992126 0.0472441 -0.0866142 
vn 0 0 1 
vn 0 0 1 
vn 0 0 1 
vn 0 0 1 
vn 0 0 1 
vn 0 0 1 
vn 0.0866142 0.212598 -0.976378 
vn 0.0866142 0.125984 -0.984252 
vn -0.015748 0.212598 -0.976378 
vn 0.0866142 0.125984 -0.984252 
vn 0.0866142 0.0393701 -0.992126 
vn 0.0866142 0.0393701 -0.992126 
vn -0.110236 0.212598 -0.968504 
vn -0.015748 0.212598 -0.976378 
vn -0.110236 0.125984 -0.984252 
vn -0.110236 0.125984 -0.984252 
vn -0.110236 0.0393701 -0.992126 
vn -0.110236 0.0393701 -0.992126 
vn 0 -0.992126 0.102362 
vn 0 -0.992126 0.102362 
vn 0 -0.952756 -0.307087 
vn 0 -0.952756 -0.307087 
vn 0 -0.740157 -0.669291 
vn 0 0.944882 0.322835 
vn 0 0.944882 0.322835 
vn 0 0.944882 0.322835 
vn 0 0.944882 0.322835 
vn 0.370079 0.929134 -0.00787402 
vn 0.370079 0.929134 -0.00787402 
vn 0.370079 0.929134 -0.00787402 
vn 0.370079 0.929134 -0.00787402 
vn 0.370079 0.929134 -0.00787402 
vn 0.370079 0.929134 -0.00787402 
vn 0.370079 0.929134 -0.00787402 
vn 0.370079 0.929134 -0.00787402 
vn 0.370079 0.929134 -0.00787402 
vn 0.370079 0.929134 -0.00787402 
vn 0.370079 0.929134 -0.00787402 
vn 0.370079 0.929134 -0.00787402 
vn 0.370079 0.929134 -0.00787402 
vn 0.370079 0.929134 -0.00787402 
vn 0.370079 0.929134 -0.00787402 
vn 0.370079 0.929134 -0.00787402 
vn 0.370079 0.929134 -0.00787402 
vn 0.370079 0.929134 -0.00787402 
vn 0.370079 0.929134 -0.00787402 
vn 0.370079 0.929134 -0.00787402 
vn 0.370079 0.929134 -0.00787402 
vn 0.370079 0.929134 -0.00787402 
vn 0.370079 0.929134 -0.00787402 
vn 0.370079 0.929134 -0.00787402 
vn 0.370079 -0.929134 0.00787402 
vn 0.370079 -0.929134 0.00787402 
vn 0.370079 -0.929134 0.00787402 
vn 0.370079 -0.929134 0.00787402 
vn 0.370079 -0.929134 0.00787402 
vn 0.370079 -0.929134 0.00787402 
vn 0.370079 -0.929134 0.00787402 
vn 0.370079 -0.929134 0.00787402 
vn 0.370079 -0.929134 0.00787402 
vn 0.370079 -0.929134 0.00787402 
vn 0.370079 -0.929134 0.00787402 
vn 0.370079 -0.929134 0.00787402 
vn 0.370079 -0.929134 0.00787402 
vn 0.370079 -0.929134 0.00787402 
vn 0.370079 -0.929134 0.00787402 
vn 0.370079 -0.929134 0.00787402 
vn 0.370079 -0.929134 0.00787402 
vn 0.370079 -0.929134 0.00787402 
vn 0.370079 -0.929134 0.00787402 
vn 0.370079 -0.929134 0.00787402 
vn 0.370079 -0.929134 0.00787402 
vn 0.370079 -0.929134 0.00787402 
vn 0.370079 -0.929134 0.00787402 
vn 0.370079 -0.929134 0.00787402 
vn 0.370079 -0.929134 0.00787402 
vn 0.370079 -0.929134 0.00787402 
vn 0.370079 -0.929134 0.00787402 
vn 0.370079 -0.929134 0.00787402 
vn 0.370079 -0.929134 0.00787402 
vn -0.370079 0.929134 -0.00787402 
vn -0.370079 0.929134 -0.00787402 
vn -0.370079 0.929134 -0.00787402 
vn -0.370079 0.929134 -0.00787402 
vn -0.370079 0.929134 -0.00787402 
vn -0.370079 0.929134 -0.00787402 
vn -0.370079 0.929134 -0.00787402 
vn -0.370079 0.929134 -0.00787402 
vn -0.370079 0.929134 -0.00787402 
vn -0.370079 0.929134 -0.00787402 
vn -0.370079 0.929134 -0.00787402 
vn -0.370079 0.929134 -0.00787402 
vn -0.370079 0.929134 -0.00787402 
vn -0.370079 0.929134 -0.00787402 
vn -0.370079 0.929134 -0.00787402 
vn -0.370079 0.929134 -0.00787402 
vn -0.370079 0.929134 -0.00787402 
vn -0.370079 0.929134 -0.00787402 
vn -0.370079 0.929134 -0.00787402 
vn -0.370079 0.929134 -0.00787402 
vn -0.370079 0.929134 -0.00787402 
vn -0.370079 0.929134 -0.00787402 
vn -0.370079 0.929134 -0.00787402 
vn -0.370079 0.929134 -0.00787402 
vn -0.370079 0.929134 -0.00787402 
vn -0.370079 0.929134 -0.00787402 
vn -0.370079 0.929134 -0.00787402 
vn -0.370079 0.929134 -0.00787402 
vn -0.370079 -0.929134 0.00787402 
vn -0.370079 -0.929134 0.00787402 
vn -0.370079 -0.929134 0.00787402 
vn -0.370079 -0.929134 0.00787402 
vn -0.370079 -0.929134 0.00787402 
vn -0.370079 -0.929134 0.00787402 
vn -0.370079 -0.929134 0.00787402 
vn -0.370079 -0.929134 0.00787402 
vn -0.370079 -0.929134 0.00787402 
vn -0.370079 -0.929134 0.00787402 
vn -0.370079 -0.929134 0.00787402 
vn -0.370079 -0.929134 0.00787402 
vn -0.370079 -0.929134 0.00787402 
vn -0.370079 -0.929134 0.00787402 
vn -0.370079 -0.929134 0.00787402 
vn -0.370079 -0.929134 0.00787402 
vn -0.370079 -0.929134 0.00787402 
vn -0.370079 -0.929134 0.00787402 
vn -0.370079 -0.929134 0.00787402 
vn -0.370079 -0.929134 0.00787402 
vn -0.370079 -0.929134 0.00787402 
vn -0.370079 -0.929134 0.00787402 
vn -0.370079 -0.929134 0.00787402 
vn -0.370079 -0.929134 0.00787402 
vn -0.370079 -0.929134 0.00787402 
vn -0.370079 -0.929134 0.00787402 
vn -0.370079 -0.929134 0.00787402 
vn -0.370079 -0.929134 0.00787402 
vn -0.370079 -0.929134 0.00787402 
vn -0.370079 -0.929134 0.00787402 
vn -0.370079 -0.929134 0.00787402 
vn 0.110236 0.125984 0.984252 
vn 0.110236 0.125984 0.984252 
vn 0.110236 0.212598 0.968504 
vn 0.110236 0.212598 0.968504 
vn 0.110236 0.0393701 0.992126 
vn 0.110236 0.0393701 0.992126 
vn -0.0866142 0.125984 0.984252 
vn -0.0866142 0.212598 0.976378 
vn -0.0866142 0.125984 0.984252 
vn -0.0866142 0.212598 0.976378 
vn -0.0866142 0.0393701 0.992126 
vn -0.0866142 0.0393701 0.992126 
vn 0 -0.992126 0.0944882 
vn 0 -0.992126 0.0944882 
vn 0 -0.992126 0.0944882 
vn 0 -0.992126 0.0944882 
vn 0.984252 0.133858 0.0866142 
vn 0.968504 0.228346 0.0866142 
vn 0.984252 0.133858 0.0866142 
vn 0.968504 0.228346 0.0866142 
vn 0.992126 0.0472441 0.0866142 
vn 0.992126 0.0472441 0.0866142 
vn 0.984252 0.133858 0.0866142 
vn 0.968504 0.228346 0.0866142 
vn 0.984252 0.133858 0.0866142 
vn 0.968504 0.228346 0.0866142 
vn 0.992126 0.0472441 0.0866142 
vn 0.992126 0.0472441 0.0866142 
vn 0 0 1 
vn 0 0 1 
vn 0 0 1 
vn 0 0 1 
vn 0 0 1 
vn 0 0 1 
vn 0 1 0 
vn 0 1 0 
vn 0 1 0 
vn 0 1 0 
vn -0.984252 0.133858 0.0944882 
vn -0.968504 0.228346 0.0944882 
vn -0.968504 0.228346 0.0944882 
vn -0.984252 0.133858 0.0944882 
vn -0.992126 0.0472441 0.0944882 
vn -0.992126 0.0472441 0.0944882 
vn -0.984252 0.133858 0.110236 
vn -0.968504 0.228346 0.110236 
vn -0.968504 0.228346 0.110236 
vn -0.984252 0.133858 0.110236 
vn -0.992126 0.0472441 0.110236 
vn -0.992126 0.0472441 0.110236 
vn 0.023622 -0.307087 -0.952756 
vn 0.748031 -0.614173 -0.251969 
vn 0.228346 -0.779528 -0.582677 
vn 0.330709 -0.944882 -0.0472441 
vn 0.929134 -0.015748 -0.377953 
vn 0.622047 -0.692913 0.370079 
vn 0.330709 -0.944882 -0.0472441 
vn 0.692913 0.629921 -0.346457 
vn -0.204724 0.338583 -0.92126 
vn 0.700787 -0.149606 0.692913 
vn 0.188976 0.968504 -0.165354 
vn -0.330709 0.80315 -0.496063 
vn -0.330709 0.944882 0.0472441 
vn 0.472441 0.496063 0.724409 
vn -0.330709 -0.527559 0.787402 
vn 0.0629921 0.889764 0.448819 
vn -0.330709 0.944882 0.0472441 
vn -0.559055 0.125984 0.818898 
vn -0.535433 0.677165 0.503937 
vn -0.330709 0.944882 0.0472441 
vn -0.976378 0.0314961 -0.19685 
vn -0.330709 0.944882 0.0472441 
vn -0.779528 0.622047 -0.0787402 
vn -0.330709 0.944882 0.0472441 
vn -0.330709 0.80315 -0.496063 
vn -0.204724 0.338583 -0.92126 
vn 0.023622 -0.307087 -0.952756 
vn -0.748031 -0.622047 -0.23622 
vn -0.220472 -0.96063 -0.165354 
vn 0.228346 -0.779528 -0.582677 
vn 0.330709 -0.944882 -0.0472441 
vn 0.023622 -0.905512 0.417323 
vn 0.330709 -0.944882 -0.0472441 
vn 0.330709 -0.944882 -0.0472441 
vn 0.0866142 0.212598 -0.976378 
vn 0.0866142 0.125984 -0.984252 
vn 0.0866142 0.212598 -0.976378 
vn 0.0866142 0.125984 -0.984252 
vn 0.0866142 0.0393701 -0.992126 
vn 0.0866142 0.0393701 -0.992126 
vn -0.0944882 0.212598 -0.968504 
vn -0.0944882 0.212598 -0.968504 
vn -0.0944882 0.125984 -0.984252 
vn -0.0944882 0.125984 -0.984252 
vn -0.0944882 0.0393701 -0.992126 
vn -0.0944882 0.0393701 -0.992126 
vn -0.496063 0.0551181 -0.866142 
vn 0.456693 -0.102362 -0.88189 
vn -0.480315 -0.0787402 -0.874016 
vn -0.850394 -0.125984 -0.503937 
vn -0.826772 -0.228346 -0.519685 
vn -0.84252 0.307087 -0.440945 
vn 0.834646 -0.15748 -0.527559 
vn 0.795276 -0.275591 -0.543307 
vn 0.480315 0.0393701 -0.874016 
vn 0.850394 0.307087 -0.433071 
vn -0.472441 0.433071 -0.771654 
vn 0.472441 0.433071 -0.76378 
vn 0.00787402 0.80315 -0.590551 
vn 0.692913 0.629921 -0.354331 
vn -0.669291 0.645669 -0.362205 
vn 0.023622 0.858268 -0.511811 
vn -0.496063 0.0551181 -0.866142 
vn 0.456693 -0.102362 -0.88189 
vn -0.480315 -0.0787402 -0.874016 
vn -0.850394 -0.125984 -0.503937 
vn -0.826772 -0.228346 -0.519685 
vn -0.84252 0.307087 -0.440945 
vn 0.834646 -0.15748 -0.527559 
vn 0.795276 -0.275591 -0.543307 
vn 0.480315 0.0393701 -0.874016 
vn 0.850394 0.307087 -0.433071 
vn -0.472441 0.433071 -0.771654 
vn 0.472441 0.433071 -0.76378 
vn 0.00787402 0.80315 -0.590551 
vn 0.692913 0.629921 -0.354331 
vn -0.669291 0.645669 -0.362205 
vn 0.023622 0.858268 -0.511811 
vn 0 0.952756 0.307087 
vn 0 0.748031 0.661417 
vn 0 0.952756 0.307087 
vn 0 0.748031 0.661417 
vn 0 0.417323 0.905512 
vn 0 -0.559055 0.826772 
vn 0 -0.464567 0.889764 
vn 0 -0.559055 0.826772 
vn 0 -0.464567 0.889764 
vn 0 -0.322835 0.944882 
vn 0 -0.322835 0.944882 
vn 0 -0.283465 0.96063 
vn 0 -0.283465 0.96063 
vn 0 0.850394 0.527559 
vn 0 0.850394 0.527559 
vn 0 0.850394 0.527559 
vn 0 0.850394 0.527559 
vn 0 -0.314961 0.952756 
vn 0 -0.314961 0.952756 
vn 0 -0.314961 0.952756 
vn 0 -0.314961 0.952756 

vt 0.883453 0.725582 
vt 0.883451 0.761203 
vt 0.842335 0.735069 
vt 0.857773 0.767163 
vt 0.883451 0.761203 
vt 0.868947 0.794482 
vt 0.857773 0.767163 
vt 0.885542 0.790583 
vt 0.901369 0.916183 
vt 0.813021 0.84004 
vt 0.893507 0.833102 
vt 0.821116 0.925618 
vt 0.893507 0.833102 
vt 0.821116 0.925618 
vt 0.901369 0.916183 
vt 0.813044 0.840236 
vt 0.813021 0.84004 
vt 0.901369 0.916183 
vt 0.821116 0.925618 
vt 0.893507 0.833102 
vt 0.821116 0.925618 
vt 0.893507 0.833102 
vt 0.813021 0.84004 
vt 0.901369 0.916183 
vt 0.694658 0.363593 
vt 0.696297 0.46026 
vt 0.732508 0.460492 
vt 0.730923 0.362107 
vt 0.658962 0.365144 
vt 0.660654 0.459977 
vt 0.619743 0.36691 
vt 0.62149 0.459644 
vt 0.297251 0.530773 
vt 0.265129 0.600396 
vt 0.225472 0.565817 
vt 0.304178 0.576861 
vt 0.294912 0.626429 
vt 0.160299 0.509792 
vt 0.296859 0.444375 
vt 0.29721 0.499989 
vt 0.203023 0.547417 
vt 0.297251 0.530773 
vt 0.225472 0.565817 
vt 0.446358 0.183287 
vt 0.425227 0.34988 
vt 0.37072 0.183478 
vt 0.371095 0.351656 
vt 0.370517 0.015319 
vt 0.47667 0.348276 
vt 0.467107 0.016848 
vt 0.518679 0.183061 
vt 0.613751 0.349159 
vt 0.559311 0.018068 
vt 0.626817 0.182752 
vt 0.710056 0.349963 
vt 0.64196 0.016368 
vt 0.707272 0.182523 
vt 0.709917 0.015226 
vt 0.13162 0.484679 
vt 0.296859 0.444375 
vt 0.160299 0.509792 
vt 0.296562 0.405574 
vt 0.188794 0.390063 
vt 0.297772 0.347021 
vt 0.086463 0.448534 
vt 0.371263 0.56691 
vt 0.304178 0.576861 
vt 0.297251 0.530773 
vt 0.342092 0.593102 
vt 0.294912 0.626429 
vt 0.29721 0.499989 
vt 0.436736 0.508007 
vt 0.394528 0.546609 
vt 0.296859 0.444375 
vt 0.297251 0.530773 
vt 0.371263 0.56691 
vt 0.203429 0.642703 
vt 0.225472 0.565817 
vt 0.265129 0.600396 
vt 0.250197 0.642507 
vt 0.294912 0.626429 
vt 0.160299 0.509792 
vt 0.170607 0.655197 
vt 0.113345 0.654361 
vt 0.203023 0.547417 
vt 0.203429 0.642703 
vt 0.225472 0.565817 
vt 0.014233 0.677588 
vt 0.179778 0.673126 
vt 0.006941 0.829242 
vt 0.17801 0.988948 
vt 0.012408 0.986674 
vt 0.347865 0.831212 
vt 0.34442 0.979749 
vt 0.346049 0.680053 
vt 0.296562 0.405574 
vt 0.436736 0.508007 
vt 0.296859 0.444375 
vt 0.46457 0.482196 
vt 0.373674 0.362634 
vt 0.508752 0.440779 
vt 0.297772 0.347021 
vt 0.113345 0.654361 
vt 0.13162 0.484679 
vt 0.160299 0.509792 
vt 0.07359 0.664323 
vt 0.029995 0.564633 
vt 0.010781 0.658423 
vt 0.086463 0.448534 
vt 0.399182 0.672452 
vt 0.347865 0.831212 
vt 0.346049 0.680053 
vt 0.450833 0.822082 
vt 0.449993 0.670323 
vt 0.585023 0.677583 
vt 0.449837 0.967866 
vt 0.34442 0.979749 
vt 0.677959 0.835995 
vt 0.677831 0.696274 
vt 0.677702 0.975151 
vt 0.429592 0.655411 
vt 0.436736 0.508007 
vt 0.486384 0.653058 
vt 0.394528 0.546609 
vt 0.397186 0.645197 
vt 0.371263 0.56691 
vt 0.351403 0.632918 
vt 0.371263 0.56691 
vt 0.397186 0.645197 
vt 0.342092 0.593102 
vt 0.294912 0.626429 
vt 0.46457 0.482196 
vt 0.526521 0.661339 
vt 0.436736 0.508007 
vt 0.486384 0.653058 
vt 0.556989 0.547186 
vt 0.588669 0.651036 
vt 0.508752 0.440779 
vt 0.355903 0.171636 
vt 0.254673 0.012641 
vt 0.351848 0.017046 
vt 0.165985 0.169129 
vt 0.162319 0.013066 
vt 0.080291 0.022033 
vt 0.169237 0.320271 
vt 0.362213 0.330025 
vt 0.018462 0.183941 
vt 0.014968 0.042101 
vt 0.017859 0.323063 
vt 0.789823 0.876898 
vt 0.747967 0.89988 
vt 0.77348 0.852054 
vt 0.747957 0.851862 
vt 0.747967 0.89988 
vt 0.722435 0.851671 
vt 0.747957 0.851862 
vt 0.707687 0.878166 
vt 0.782885 0.937946 
vt 0.747967 0.89988 
vt 0.795368 0.902386 
vt 0.795368 0.902386 
vt 0.747967 0.89988 
vt 0.789823 0.876898 
vt 0.700855 0.903437 
vt 0.747967 0.89988 
vt 0.711806 0.939517 
vt 0.711806 0.939517 
vt 0.747967 0.89988 
vt 0.747684 0.986833 
vt 0.747684 0.986833 
vt 0.747967 0.89988 
vt 0.782885 0.937946 
vt 0.747967 0.89988 
vt 0.700855 0.903437 
vt 0.707687 0.878166 
vt 0.747967 0.89988 
vt 0.722435 0.851671 
vt 0.747957 0.851862 
vt 0.707687 0.878166 
vt 0.789823 0.876898 
vt 0.747967 0.89988 
vt 0.77348 0.852054 
vt 0.747957 0.851862 
vt 0.700855 0.903437 
vt 0.747967 0.89988 
vt 0.711806 0.939517 
vt 0.747967 0.89988 
vt 0.700855 0.903437 
vt 0.707687 0.878166 
vt 0.782885 0.937946 
vt 0.747967 0.89988 
vt 0.795368 0.902386 
vt 0.795368 0.902386 
vt 0.747967 0.89988 
vt 0.789823 0.876898 
vt 0.711806 0.939517 
vt 0.747967 0.89988 
vt 0.747684 0.986833 
vt 0.747684 0.986833 
vt 0.747967 0.89988 
vt 0.782885 0.937946 
vt 0.707272 0.182523 
vt 0.851696 0.019612 
vt 0.989469 0.182357 
vt 0.992848 0.014168 
vt 0.709917 0.015226 
vt 0.851785 0.345268 
vt 0.710056 0.349963 
vt 0.992703 0.350493 
vt 0.883355 0.653469 
vt 0.883453 0.725582 
vt 0.810926 0.670127 
vt 0.842335 0.735069 
vt 0.923212 0.834514 
vt 0.930436 0.908734 
vt 0.901369 0.916183 
vt 0.893507 0.833102 
vt 0.955391 0.834961 
vt 0.962322 0.902212 
vt 0.923212 0.834514 
vt 0.901369 0.916183 
vt 0.930436 0.908734 
vt 0.893507 0.833102 
vt 0.955391 0.834961 
vt 0.962322 0.902212 
vt 0.935951 0.563755 
vt 0.971813 0.631109 
vt 0.940638 0.61228 
vt 0.927952 0.641496 
vt 0.971892 0.532778 
vt 0.936537 0.664444 
vt 0.938656 0.526894 
vt 0.914403 0.639753 
vt 0.896821 0.561957 
vt 0.899505 0.648717 
vt 0.904767 0.518033 
vt 0.900118 0.620408 
vt 0.906768 0.621797 
vt 0.909962 0.609164 
vt 0.861966 0.554464 
vt 0.881544 0.505934 
vt 0.828495 0.540628 
vt 0.840488 0.468855 
vt 0.870385 0.464814 
vt 0.923212 0.834514 
vt 0.933036 0.765791 
vt 0.904609 0.757308 
vt 0.893507 0.833102 
vt 0.955391 0.834961 
vt 0.964389 0.773823 
vt 0.933036 0.765791 
vt 0.923212 0.834514 
vt 0.893507 0.833102 
vt 0.904609 0.757308 
vt 0.964389 0.773823 
vt 0.955391 0.834961 
vt 0.746122 0.556576 
vt 0.817677 0.529973 
vt 0.752453 0.603608 
vt 0.723778 0.58598 
vt 0.78182 0.523536 
vt 0.715742 0.531989 
vt 0.791782 0.493147 
vt 0.69262 0.570149 
vt 0.813362 0.481547 
vt 0.684778 0.514487 
vt 0.780551 0.485377 
vt 0.667294 0.563811 
vt 0.775215 0.468812 
vt 0.650629 0.502647 
vt 0.612066 0.564155 
vt 0.631759 0.587019 
vt 0.757199 0.490655 
vt 0.76314 0.493976 
vt 0.757307 0.505625 
vt 0.904609 0.757308 
vt 0.923212 0.834514 
vt 0.893507 0.833102 
vt 0.933036 0.765791 
vt 0.955391 0.834961 
vt 0.964389 0.773823 
vt 0.893507 0.833102 
vt 0.933036 0.765791 
vt 0.904609 0.757308 
vt 0.923212 0.834514 
vt 0.964389 0.773823 
vt 0.955391 0.834961 
vt 0.73325 0.708859 
vt 0.736336 0.702073 
vt 0.733994 0.696837 
vt 0.718534 0.702647 
vt 0.71712 0.710918 
vt 0.687567 0.701102 
vt 0.893507 0.833102 
vt 0.930436 0.908734 
vt 0.901369 0.916183 
vt 0.923212 0.834514 
vt 0.962322 0.902212 
vt 0.955391 0.834961 
vt 0.893507 0.833102 
vt 0.901369 0.916183 
vt 0.930436 0.908734 
vt 0.923212 0.834514 
vt 0.962322 0.902212 
vt 0.955391 0.834961 
vt 0.53185 0.430215 
vt 0.531311 0.399745 
vt 0.513627 0.408062 
vt 0.513859 0.4228 
vt 0.502171 0.415611 
vt 0.802365 0.376726 
vt 0.732508 0.460492 
vt 0.803329 0.443913 
vt 0.730923 0.362107 
vt 0.0437637 0.361413 
vt 0.0184547 0.363832 
vt 0.045282 0.332215 
vt 0.0402656 0.378626 
vt 0.00767978 0.429904 
vt 0.00832011 0.392183 
vt 0.0184547 0.363832 
vt 0.0437637 0.361413 
vt 0.0181611 0.445507 
vt 0.0699326 0.376161 
vt 0.0375518 0.442038 
vt 0.0508017 0.359203 
vt 0.0643231 0.421504 
vt 0.0700636 0.359892 
vt 0.0680332 0.335536 
vt 0.103636 0.376765 
vt 0.0791595 0.433829 
vt 0.100355 0.366875 
vt 0.0771745 0.362439 
vt 0.0905712 0.347131 
vt 0.103636 0.376765 
vt 0.0699326 0.376161 
vt 0.0771745 0.362439 
vt 0.100355 0.366875 
vt 0.966658 0.406732 
vt 0.956503 0.424082 
vt 0.988108 0.415357 
vt 0.953146 0.403514 
vt 0.905521 0.409832 
vt 0.932794 0.421921 
vt 0.897815 0.397123 
vt 0.964783 0.383052 
vt 0.906754 0.384367 
vt 0.93039 0.371993 
vt 0.975561 0.358673 
vt 0.926483 0.35725 
vt 0.976498 0.38837 
vt 0.970585 0.402417 
vt 0.993295 0.397928 
vt 0.953146 0.403514 
vt 0.956503 0.424082 
vt 0.966658 0.406732 
vt 0.932794 0.421921 
vt 0.981565 0.364317 
vt 0.977036 0.382421 
vt 0.992474 0.377903 
vt 0.964783 0.383052 
vt 0.970585 0.402417 
vt 0.976498 0.38837 
vt 0.953146 0.403514 
vt 0.975561 0.358673 
vt 0.977036 0.382421 
vt 0.981565 0.364317 
vt 0.0437637 0.361413 
vt 0.045282 0.332215 
vt 0.0184547 0.363832 
vt 0.0402656 0.378626 
vt 0.00832011 0.392183 
vt 0.00767978 0.429904 
vt 0.0184547 0.363832 
vt 0.0437637 0.361413 
vt 0.0181611 0.445507 
vt 0.0699326 0.376161 
vt 0.0375518 0.442038 
vt 0.0508017 0.359203 
vt 0.0700636 0.359892 
vt 0.0680332 0.335536 
vt 0.103636 0.376765 
vt 0.0643231 0.421504 
vt 0.0791595 0.433829 
vt 0.0643231 0.421504 
vt 0.103636 0.376765 
vt 0.0699326 0.376161 
vt 0.0375518 0.442038 
vt 0.100355 0.366875 
vt 0.0905712 0.347131 
vt 0.0771745 0.362439 
vt 0.103636 0.376765 
vt 0.0771745 0.362439 
vt 0.0699326 0.376161 
vt 0.100355 0.366875 
vt 0.966658 0.406732 
vt 0.988108 0.415357 
vt 0.956503 0.424082 
vt 0.953146 0.403514 
vt 0.932794 0.421921 
vt 0.905521 0.409832 
vt 0.956503 0.424082 
vt 0.966658 0.406732 
vt 0.976498 0.38837 
vt 0.993295 0.397928 
vt 0.970585 0.402417 
vt 0.975561 0.358673 
vt 0.93039 0.371993 
vt 0.926483 0.35725 
vt 0.964783 0.383052 
vt 0.906754 0.384367 
vt 0.897815 0.397123 
vt 0.981565 0.364317 
vt 0.992474 0.377903 
vt 0.977036 0.382421 
vt 0.897815 0.397123 
vt 0.953146 0.403514 
vt 0.905521 0.409832 
vt 0.964783 0.383052 
vt 0.964783 0.383052 
vt 0.970585 0.402417 
vt 0.953146 0.403514 
vt 0.976498 0.38837 
vt 0.975561 0.358673 
vt 0.977036 0.382421 
vt 0.981565 0.364317 
vt 0.933036 0.765791 
vt 0.962256 0.697477 
vt 0.937923 0.679496 
vt 0.904609 0.757308 
vt 0.964389 0.773823 
vt 0.991562 0.710431 
vt 0.933036 0.765791 
vt 0.937923 0.679496 
vt 0.962256 0.697477 
vt 0.904609 0.757308 
vt 0.964389 0.773823 
vt 0.991562 0.710431 
vt 0.87003 0.585383 
vt 0.79844 0.572012 
vt 0.852212 0.559897 
vt 0.793305 0.602811 
vt 0.930436 0.908734 
vt 0.928145 0.990732 
vt 0.953234 0.974424 
vt 0.901369 0.916183 
vt 0.962322 0.902212 
vt 0.983516 0.963033 
vt 0.953234 0.974424 
vt 0.901369 0.916183 
vt 0.930436 0.908734 
vt 0.928145 0.990732 
vt 0.983516 0.963033 
vt 0.962322 0.902212 
vt 0.73325 0.708859 
vt 0.733994 0.696837 
vt 0.736336 0.702073 
vt 0.718534 0.702647 
vt 0.71712 0.710918 
vt 0.687567 0.701102 
vt 0.574617 0.385715 
vt 0.62149 0.459644 
vt 0.619743 0.36691 
vt 0.57569 0.442908 
vt 0.930436 0.908734 
vt 0.928145 0.990732 
vt 0.901369 0.916183 
vt 0.953234 0.974424 
vt 0.962322 0.902212 
vt 0.983516 0.963033 
vt 0.953234 0.974424 
vt 0.901369 0.916183 
vt 0.928145 0.990732 
vt 0.930436 0.908734 
vt 0.983516 0.963033 
vt 0.962322 0.902212 
vt 0.650812 0.631182 
vt 0.667541 0.614453 
vt 0.650812 0.614453 
vt 0.659176 0.597724 
vt 0.667541 0.631182 
vt 0.68427 0.614453 
vt 0.675906 0.597724 
vt 0.667541 0.647912 
vt 0.650812 0.647912 
vt 0.68427 0.631182 
vt 0.667541 0.664641 
vt 0.650812 0.664641 
vt 0.659176 0.68137 
vt 0.68427 0.647912 
vt 0.701 0.631182 
vt 0.68427 0.664641 
vt 0.675906 0.68137 
vt 0.701 0.647912 
vt 0.701 0.664641 
vt 0.692635 0.68137 
vt 0.717729 0.647912 
vt 0.709365 0.68137 
vt 0.717729 0.664641 
vt 0.726094 0.68137 
vt 0.734458 0.664641 
vt 0.734458 0.647912 
vt 0.734458 0.631182 
vt 0.717729 0.631182 
vt 0.717729 0.614453 
vt 0.734458 0.614453 
vt 0.726094 0.597724 
vt 0.701 0.614453 
vt 0.709365 0.597724 
vt 0.692635 0.597724 
vt 0.904609 0.757308 
vt 0.962256 0.697477 
vt 0.937923 0.679496 
vt 0.933036 0.765791 
vt 0.991562 0.710431 
vt 0.964389 0.773823 
vt 0.904609 0.757308 
vt 0.937923 0.679496 
vt 0.962256 0.697477 
vt 0.933036 0.765791 
vt 0.991562 0.710431 
vt 0.964389 0.773823 
vt 0.740929 0.802227 
vt 0.767355 0.830443 
vt 0.748727 0.831131 
vt 0.698524 0.802917 
vt 0.710903 0.830726 
vt 0.695866 0.775777 
vt 0.818361 0.804031 
vt 0.805307 0.830877 
vt 0.775557 0.802648 
vt 0.820822 0.77697 
vt 0.736249 0.778115 
vt 0.78056 0.778822 
vt 0.757938 0.747973 
vt 0.806488 0.739361 
vt 0.709661 0.738132 
vt 0.757882 0.698231 
vt 0.740929 0.802227 
vt 0.767355 0.830443 
vt 0.748727 0.831131 
vt 0.698524 0.802917 
vt 0.710903 0.830726 
vt 0.695866 0.775777 
vt 0.818361 0.804031 
vt 0.805307 0.830877 
vt 0.775557 0.802648 
vt 0.820822 0.77697 
vt 0.736249 0.778115 
vt 0.78056 0.778822 
vt 0.757938 0.747973 
vt 0.806488 0.739361 
vt 0.709661 0.738132 
vt 0.757882 0.698231 
vt 0.885542 0.790583 
vt 0.878818 0.812751 
vt 0.868947 0.794482 
vt 0.884952 0.811306 
vt 0.884347 0.822555 
vt 0.87003 0.585383 
vt 0.798212 0.621357 
vt 0.793305 0.602811 
vt 0.873631 0.604165 
vt 0.804619 0.646209 
vt 0.878644 0.629265 
vt 0.810926 0.670127 
vt 0.883355 0.653469 
vt 0.574617 0.385715 
vt 0.5453 0.432714 
vt 0.57569 0.442908 
vt 0.544643 0.396671 
vt 0.531311 0.399745 
vt 0.53185 0.430215 
vt 0.5453 0.432714 
vt 0.544643 0.396671 

usemtl Pet1Mtl

f 1/1/1 2/2/2 3/3/3 
f 3/3/3 2/2/2 4/4/4 
f 5/5/5 6/6/6 7/7/7 
f 6/6/6 5/5/5 8/8/8 
f 9/9/9 10/10/10 11/11/11 
f 10/10/10 9/9/9 12/12/12 
f 13/13/13 14/14/14 15/15/15 
f 14/14/14 13/13/13 16/16/16 
f 17/17/17 18/18/18 19/19/19 
f 18/18/18 17/17/17 20/20/20 
f 21/21/21 22/22/22 23/23/23 
f 22/22/22 21/21/21 24/24/24 
f 25/25/25 26/26/26 27/27/27 
f 25/25/25 27/27/27 28/28/28 
f 29/29/29 26/26/26 25/25/25 
f 29/29/29 30/30/30 26/26/26 
f 31/31/31 30/30/30 29/29/29 
f 30/30/30 31/31/31 32/32/32 
f 33/33/33 34/34/34 35/35/35 
f 34/34/34 33/33/33 36/36/36 
f 34/34/34 36/36/36 37/37/37 
f 38/38/38 39/39/39 40/40/40 
f 38/38/38 40/40/40 41/41/41 
f 41/41/41 40/40/40 42/42/42 
f 41/41/41 42/42/42 43/43/43 
f 44/44/44 45/45/45 46/46/46 
f 47/47/47 46/46/46 45/45/45 
f 46/46/46 48/48/48 44/44/44 
f 45/45/45 44/44/44 49/49/49 
f 50/50/50 44/44/44 48/48/48 
f 51/51/51 49/49/49 44/44/44 
f 44/44/44 50/50/50 51/51/51 
f 49/49/49 51/51/51 52/52/52 
f 53/53/53 51/51/51 50/50/50 
f 51/51/51 54/54/54 52/52/52 
f 51/51/51 53/53/53 54/54/54 
f 52/52/52 54/54/54 55/55/55 
f 56/56/56 54/54/54 53/53/53 
f 57/57/57 55/55/55 54/54/54 
f 54/54/54 56/56/56 57/57/57 
f 58/58/58 57/57/57 56/56/56 
f 59/59/59 60/60/60 61/61/61 
f 60/60/60 59/59/59 62/62/62 
f 59/59/59 63/63/63 62/62/62 
f 63/63/63 64/64/64 62/62/62 
f 65/65/65 63/63/63 59/59/59 
f 66/66/66 67/67/67 68/68/68 
f 67/67/67 66/66/66 69/69/69 
f 67/67/67 69/69/69 70/70/70 
f 71/71/71 72/72/72 73/73/73 
f 72/72/72 71/71/71 74/74/74 
f 73/73/73 75/75/75 71/71/71 
f 75/75/75 73/73/73 76/76/76 
f 77/77/77 78/78/78 79/79/79 
f 77/77/77 79/79/79 80/80/80 
f 80/80/80 79/79/79 81/81/81 
f 82/82/82 83/83/83 84/84/84 
f 83/83/83 82/82/82 85/85/85 
f 85/85/85 86/86/86 83/83/83 
f 86/86/86 85/85/85 87/87/87 
f 88/88/88 89/89/89 90/90/90 
f 91/91/91 90/90/90 89/89/89 
f 90/90/90 91/91/91 92/92/92 
f 93/93/93 91/91/91 89/89/89 
f 91/91/91 93/93/93 94/94/94 
f 89/89/89 95/95/95 93/93/93 
f 96/96/96 97/97/97 98/98/98 
f 97/97/97 96/96/96 99/99/99 
f 96/96/96 100/100/100 99/99/99 
f 100/100/100 101/101/101 99/99/99 
f 102/102/102 100/100/100 96/96/96 
f 103/103/103 104/104/104 105/105/105 
f 106/106/106 104/104/104 103/103/103 
f 104/104/104 106/106/106 107/107/107 
f 108/108/108 107/107/107 106/106/106 
f 107/107/107 109/109/109 104/104/104 
f 110/110/110 111/111/111 112/112/112 
f 111/111/111 110/110/110 113/113/113 
f 110/110/110 114/114/114 113/113/113 
f 115/115/115 113/113/113 114/114/114 
f 116/116/116 111/111/111 113/113/113 
f 111/111/111 116/116/116 117/117/117 
f 113/113/113 115/115/115 118/118/118 
f 113/113/113 118/118/118 116/116/116 
f 115/115/115 119/119/119 118/118/118 
f 116/116/116 118/118/118 120/120/120 
f 121/121/121 122/122/122 123/123/123 
f 122/122/122 121/121/121 124/124/124 
f 124/124/124 121/121/121 125/125/125 
f 124/124/124 125/125/125 126/126/126 
f 127/127/127 128/128/128 129/129/129 
f 128/128/128 127/127/127 130/130/130 
f 130/130/130 127/127/127 131/131/131 
f 132/132/132 133/133/133 134/134/134 
f 134/134/134 133/133/133 135/135/135 
f 132/132/132 136/136/136 133/133/133 
f 136/136/136 137/137/137 133/133/133 
f 138/138/138 136/136/136 132/132/132 
f 139/139/139 140/140/140 141/141/141 
f 140/140/140 139/139/139 142/142/142 
f 140/140/140 142/142/142 143/143/143 
f 144/144/144 143/143/143 142/142/142 
f 139/139/139 145/145/145 142/142/142 
f 139/139/139 146/146/146 145/145/145 
f 144/144/144 142/142/142 147/147/147 
f 145/145/145 147/147/147 142/142/142 
f 144/144/144 147/147/147 148/148/148 
f 147/147/147 145/145/145 149/149/149 
f 150/150/150 151/151/151 152/152/152 
f 151/151/151 153/153/153 152/152/152 
f 154/154/154 155/155/155 156/156/156 
f 155/155/155 154/154/154 157/157/157 
f 158/158/158 159/159/159 160/160/160 
f 161/161/161 162/162/162 163/163/163 
f 164/164/164 165/165/165 166/166/166 
f 167/167/167 168/168/168 169/169/169 
f 170/170/170 171/171/171 172/172/172 
f 173/173/173 174/174/174 175/175/175 
f 176/176/176 177/177/177 178/178/178 
f 177/177/177 176/176/176 179/179/179 
f 180/180/180 181/181/181 182/182/182 
f 181/181/181 183/183/183 182/182/182 
f 184/184/184 185/185/185 186/186/186 
f 187/187/187 188/188/188 189/189/189 
f 190/190/190 191/191/191 192/192/192 
f 193/193/193 194/194/194 195/195/195 
f 196/196/196 197/197/197 198/198/198 
f 199/199/199 200/200/200 201/201/201 
f 202/202/202 203/203/203 204/204/204 
f 203/203/203 205/205/205 204/204/204 
f 203/203/203 202/202/202 206/206/206 
f 207/207/207 202/202/202 204/204/204 
f 202/202/202 207/207/207 208/208/208 
f 207/207/207 204/204/204 209/209/209 
f 210/210/210 211/211/211 212/212/212 
f 212/212/212 211/211/211 213/213/213 
f 214/214/214 215/215/215 216/216/216 
f 216/216/216 217/217/217 214/214/214 
f 218/218/218 215/215/215 214/214/214 
f 218/218/218 219/219/219 215/215/215 
f 220/220/220 221/221/221 222/222/222 
f 221/221/221 220/220/220 223/223/223 
f 222/222/222 224/224/224 220/220/220 
f 224/224/224 222/222/222 225/225/225 
f 226/226/226 227/227/227 228/228/228 
f 227/227/227 229/229/229 228/228/228 
f 227/227/227 226/226/226 230/230/230 
f 229/229/229 227/227/227 231/231/231 
f 226/226/226 232/232/232 230/230/230 
f 231/231/231 233/233/233 229/229/229 
f 232/232/232 226/226/226 234/234/234 
f 233/233/233 231/231/231 235/235/235 
f 234/234/234 236/236/236 232/232/232 
f 233/233/233 235/235/235 237/237/237 
f 238/238/238 233/233/233 237/237/237 
f 238/238/238 237/237/237 239/239/239 
f 236/236/236 234/234/234 240/240/240 
f 240/240/240 241/241/241 236/236/236 
f 241/241/241 240/240/240 242/242/242 
f 243/243/243 241/241/241 242/242/242 
f 241/241/241 243/243/243 244/244/244 
f 245/245/245 246/246/246 247/247/247 
f 247/247/247 248/248/248 245/245/245 
f 246/246/246 245/245/245 249/249/249 
f 249/249/249 250/250/250 246/246/246 
f 251/251/251 252/252/252 253/253/253 
f 253/253/253 254/254/254 251/251/251 
f 252/252/252 251/251/251 255/255/255 
f 255/255/255 256/256/256 252/252/252 
f 257/257/257 258/258/258 259/259/259 
f 257/257/257 259/259/259 260/260/260 
f 258/258/258 257/257/257 261/261/261 
f 260/260/260 262/262/262 257/257/257 
f 258/258/258 261/261/261 263/263/263 
f 262/262/262 260/260/260 264/264/264 
f 265/265/265 258/258/258 263/263/263 
f 264/264/264 266/266/266 262/262/262 
f 267/267/267 265/265/265 263/263/263 
f 268/268/268 266/266/266 264/264/264 
f 269/269/269 265/265/265 267/267/267 
f 266/266/266 268/268/268 270/270/270 
f 268/268/268 271/271/271 270/270/270 
f 271/271/271 268/268/268 272/272/272 
f 267/267/267 273/273/273 269/269/269 
f 273/273/273 267/267/267 274/274/274 
f 273/273/273 274/274/274 275/275/275 
f 276/276/276 277/277/277 278/278/278 
f 277/277/277 276/276/276 279/279/279 
f 279/279/279 280/280/280 277/277/277 
f 280/280/280 279/279/279 281/281/281 
f 282/282/282 283/283/283 284/284/284 
f 283/283/283 282/282/282 285/285/285 
f 285/285/285 286/286/286 283/283/283 
f 286/286/286 285/285/285 287/287/287 
f 288/288/288 289/289/289 290/290/290 
f 290/290/290 291/291/291 288/288/288 
f 292/292/292 288/288/288 291/291/291 
f 291/291/291 293/293/293 292/292/292 
f 294/294/294 295/295/295 296/296/296 
f 295/295/295 294/294/294 297/297/297 
f 297/297/297 298/298/298 295/295/295 
f 298/298/298 297/297/297 299/299/299 
f 300/300/300 301/301/301 302/302/302 
f 300/300/300 302/302/302 303/303/303 
f 303/303/303 302/302/302 304/304/304 
f 303/303/303 304/304/304 305/305/305 
f 306/306/306 307/307/307 308/308/308 
f 306/306/306 308/308/308 309/309/309 
f 309/309/309 308/308/308 310/310/310 
f 311/311/311 312/312/312 313/313/313 
f 312/312/312 311/311/311 314/314/314 
f 315/315/315 316/316/316 317/317/317 
f 318/318/318 319/319/319 320/320/320 
f 318/318/318 320/320/320 321/321/321 
f 318/318/318 321/321/321 322/322/322 
f 319/319/319 318/318/318 323/323/323 
f 318/318/318 324/324/324 323/323/323 
f 324/324/324 325/325/325 323/323/323 
f 324/324/324 318/318/318 326/326/326 
f 325/325/325 324/324/324 327/327/327 
f 324/324/324 326/326/326 328/328/328 
f 328/328/328 326/326/326 329/329/329 
f 324/324/324 330/330/330 327/327/327 
f 330/330/330 331/331/331 327/327/327 
f 332/332/332 333/333/333 334/334/334 
f 335/335/335 336/336/336 337/337/337 
f 335/335/335 337/337/337 338/338/338 
f 339/339/339 340/340/340 341/341/341 
f 342/342/342 343/343/343 344/344/344 
f 343/343/343 342/342/342 345/345/345 
f 342/342/342 346/346/346 345/345/345 
f 346/346/346 347/347/347 345/345/345 
f 347/347/347 346/346/346 348/348/348 
f 346/346/346 349/349/349 348/348/348 
f 349/349/349 350/350/350 348/348/348 
f 351/351/351 352/352/352 353/353/353 
f 354/354/354 355/355/355 356/356/356 
f 354/354/354 357/357/357 355/355/355 
f 358/358/358 359/359/359 360/360/360 
f 361/361/361 362/362/362 363/363/363 
f 361/361/361 364/364/364 362/362/362 
f 365/365/365 361/361/361 366/366/366 
f 365/365/365 366/366/366 367/367/367 
f 368/368/368 369/369/369 370/370/370 
f 371/371/371 372/372/372 373/373/373 
f 374/374/374 372/372/372 371/371/371 
f 371/371/371 375/375/375 374/374/374 
f 376/376/376 371/371/371 373/373/373 
f 376/376/376 377/377/377 371/371/371 
f 377/377/377 376/376/376 378/378/378 
f 377/377/377 379/379/379 371/371/371 
f 377/377/377 380/380/380 379/379/379 
f 380/380/380 381/381/381 379/379/379 
f 382/382/382 383/383/383 384/384/384 
f 385/385/385 386/386/386 387/387/387 
f 387/387/387 388/388/388 385/385/385 
f 389/389/389 390/390/390 391/391/391 
f 392/392/392 393/393/393 394/394/394 
f 393/393/393 392/392/392 395/395/395 
f 396/396/396 397/397/397 398/398/398 
f 399/399/399 400/400/400 401/401/401 
f 402/402/402 400/400/400 399/399/399 
f 399/399/399 403/403/403 402/402/402 
f 404/404/404 405/405/405 406/406/406 
f 407/407/407 408/408/408 409/409/409 
f 408/408/408 407/407/407 410/410/410 
f 410/410/410 411/411/411 408/408/408 
f 410/410/410 412/412/412 411/411/411 
f 413/413/413 414/414/414 415/415/415 
f 416/416/416 417/417/417 418/418/418 
f 416/416/416 419/419/419 417/417/417 
f 420/420/420 421/421/421 422/422/422 
f 420/420/420 423/423/423 421/421/421 
f 424/424/424 425/425/425 420/420/420 
f 425/425/425 424/424/424 426/426/426 
f 427/427/427 428/428/428 429/429/429 
f 429/429/429 430/430/430 427/427/427 
f 431/431/431 428/428/428 427/427/427 
f 431/431/431 432/432/432 428/428/428 
f 433/433/433 434/434/434 435/435/435 
f 434/434/434 433/433/433 436/436/436 
f 435/435/435 437/437/437 433/433/433 
f 437/437/437 435/435/435 438/438/438 
f 439/439/439 440/440/440 441/441/441 
f 440/440/440 439/439/439 442/442/442 
f 443/443/443 444/444/444 445/445/445 
f 444/444/444 443/443/443 446/446/446 
f 445/445/445 447/447/447 443/443/443 
f 447/447/447 445/445/445 448/448/448 
f 449/449/449 450/450/450 451/451/451 
f 450/450/450 449/449/449 452/452/452 
f 451/451/451 453/453/453 449/449/449 
f 453/453/453 451/451/451 454/454/454 
f 455/455/455 456/456/456 457/457/457 
f 455/455/455 458/458/458 456/456/456 
f 455/455/455 459/459/459 458/458/458 
f 458/458/458 459/459/459 460/460/460 
f 461/461/461 462/462/462 463/463/463 
f 462/462/462 461/461/461 464/464/464 
f 465/465/465 466/466/466 467/467/467 
f 466/466/466 465/465/465 468/468/468 
f 469/469/469 468/468/468 465/465/465 
f 468/468/468 469/469/469 470/470/470 
f 471/471/471 472/472/472 473/473/473 
f 472/472/472 471/471/471 474/474/474 
f 475/475/475 474/474/474 471/471/471 
f 474/474/474 475/475/475 476/476/476 
f 477/477/477 478/478/478 479/479/479 
f 478/478/478 480/480/480 479/479/479 
f 478/478/478 477/477/477 481/481/481 
f 482/482/482 483/483/483 478/478/478 
f 481/481/481 482/482/482 478/478/478 
f 481/481/481 477/477/477 484/484/484 
f 477/477/477 485/485/485 484/484/484 
f 482/482/482 481/481/481 486/486/486 
f 484/484/484 485/485/485 487/487/487 
f 487/487/487 485/485/485 488/488/488 
f 488/488/488 489/489/489 487/487/487 
f 481/481/481 484/484/484 490/490/490 
f 486/486/486 481/481/481 490/490/490 
f 487/487/487 490/490/490 484/484/484 
f 491/491/491 482/482/482 486/486/486 
f 490/490/490 487/487/487 492/492/492 
f 487/487/487 493/493/493 492/492/492 
f 494/494/494 486/486/486 490/490/490 
f 492/492/492 494/494/494 490/490/490 
f 486/486/486 494/494/494 491/491/491 
f 494/494/494 492/492/492 495/495/495 
f 492/492/492 496/496/496 495/495/495 
f 495/495/495 497/497/497 494/494/494 
f 494/494/494 497/497/497 491/491/491 
f 495/495/495 498/498/498 499/499/499 
f 497/497/497 495/495/495 499/499/499 
f 499/499/499 500/500/500 501/501/501 
f 497/497/497 499/499/499 501/501/501 
f 502/502/502 497/497/497 501/501/501 
f 503/503/503 497/497/497 502/502/502 
f 491/491/491 497/497/497 504/504/504 
f 497/497/497 503/503/503 504/504/504 
f 503/503/503 505/505/505 504/504/504 
f 505/505/505 491/491/491 504/504/504 
f 505/505/505 503/503/503 506/506/506 
f 506/506/506 507/507/507 505/505/505 
f 491/491/491 505/505/505 508/508/508 
f 505/505/505 509/509/509 508/508/508 
f 482/482/482 491/491/491 508/508/508 
f 508/508/508 510/510/510 482/482/482 
f 511/511/511 512/512/512 513/513/513 
f 512/512/512 511/511/511 514/514/514 
f 514/514/514 515/515/515 512/512/512 
f 515/515/515 514/514/514 516/516/516 
f 517/517/517 518/518/518 519/519/519 
f 517/517/517 519/519/519 520/520/520 
f 520/520/520 519/519/519 521/521/521 
f 520/520/520 521/521/521 522/522/522 
f 523/523/523 524/524/524 525/525/525 
f 526/526/526 525/525/525 527/527/527 
f 525/525/525 526/526/526 523/523/523 
f 528/528/528 523/523/523 526/526/526 
f 524/524/524 529/529/529 530/530/530 
f 529/529/529 524/524/524 531/531/531 
f 524/524/524 523/523/523 531/531/531 
f 531/531/531 532/532/532 529/529/529 
f 523/523/523 528/528/528 533/533/533 
f 533/533/533 531/531/531 523/523/523 
f 532/532/532 531/531/531 534/534/534 
f 531/531/531 533/533/533 534/534/534 
f 535/535/535 532/532/532 534/534/534 
f 534/534/534 533/533/533 535/535/535 
f 528/528/528 535/535/535 533/533/533 
f 532/532/532 535/535/535 536/536/536 
f 535/535/535 528/528/528 537/537/537 
f 536/536/536 535/535/535 538/538/538 
f 537/537/537 538/538/538 535/535/535 
f 539/539/539 540/540/540 541/541/541 
f 542/542/542 541/541/541 543/543/543 
f 541/541/541 542/542/542 539/539/539 
f 544/544/544 539/539/539 542/542/542 
f 540/540/540 545/545/545 546/546/546 
f 545/545/545 540/540/540 547/547/547 
f 540/540/540 539/539/539 547/547/547 
f 547/547/547 548/548/548 545/545/545 
f 539/539/539 544/544/544 549/549/549 
f 549/549/549 547/547/547 539/539/539 
f 548/548/548 547/547/547 550/550/550 
f 547/547/547 549/549/549 550/550/550 
f 551/551/551 548/548/548 550/550/550 
f 550/550/550 549/549/549 551/551/551 
f 544/544/544 551/551/551 549/549/549 
f 548/548/548 551/551/551 552/552/552 
f 551/551/551 544/544/544 553/553/553 
f 552/552/552 551/551/551 554/554/554 
f 553/553/553 554/554/554 551/551/551 
f 555/555/555 556/556/556 557/557/557 
f 556/556/556 555/555/555 558/558/558 
f 556/556/556 558/558/558 559/559/559 
f 560/560/560 561/561/561 562/562/562 
f 561/561/561 560/560/560 563/563/563 
f 563/563/563 564/564/564 561/561/561 
f 564/564/564 563/563/563 565/565/565 
f 565/565/565 566/566/566 564/564/564 
f 566/566/566 565/565/565 567/567/567 
f 568/568/568 569/569/569 570/570/570 
f 569/569/569 568/568/568 571/571/571 
f 572/572/572 573/573/573 574/574/574 
f 574/574/574 575/575/575 572/572/572 

