# This file is brought to you by Roblox Corporation
# Generated by Roblox Studio

mtllib cakepet.mtl

g Pet1

v 0.165682 1.03738 -0.296325 
v 0.0166736 1.08557 -0.239215 
v 0.195482 1.11308 -0.0391665 
v 0.035091 1.13235 -0.0802822 
v 0.276192 1.05438 -0.172688 
v -0.85293 0.649911 0.852056 
v 0.00371993 0.655708 0.855199 
v 0.00360674 0.534538 0.0994057 
v -0.838778 0.531463 -0.105521 
v 0.846765 0.539196 0.318137 
v 0.86037 0.607663 0.858341 
v 0.86076 0.575331 -0.858341 
v 0.00345983 0.557563 -0.858311 
v -0.853845 0.576448 -0.858274 
v -0.88698 -0.165159 0.856436 
v -0.846008 -0.989167 0.364396 
v -0.853838 -0.950804 0.856436 
v -0.838508 -0.215177 -0.106424 
v -0.838508 -1.00075 -0.106415 
v -0.846608 -0.962151 -0.526035 
v -0.838778 0.531463 -0.105521 
v -0.85293 0.649911 0.852056 
v -0.827362 -0.143544 -0.858169 
v -0.853837 -0.86531 -0.858169 
v -0.853845 0.576448 -0.858274 
v 0.00346208 -0.888393 -0.858169 
v -0.827362 -0.143544 -0.858169 
v 0.00345983 0.557563 -0.858311 
v -0.853845 0.576448 -0.858274 
v -0.853837 -0.86531 -0.858169 
v 0.83457 -0.143544 -0.858169 
v 0.860768 -0.86531 -0.858169 
v 0.86076 0.575331 -0.858341 
v -0.853838 -0.950804 0.856436 
v 0.00346193 -0.978044 0.856436 
v -0.88698 -0.165159 0.856436 
v 0.00371993 0.655708 0.855199 
v -0.85293 0.649911 0.852056 
v 0.88698 -0.165159 0.856436 
v 0.86037 0.607663 0.858341 
v 0.860767 -0.950804 0.856436 
v 0.853267 -0.988631 0.582331 
v 0.88698 -0.165159 0.856436 
v 0.860767 -0.950804 0.856436 
v 0.846097 -0.214052 0.320052 
v 0.846097 -0.999695 0.320052 
v 0.853537 -0.962151 -0.377659 
v 0.846765 0.539196 0.318137 
v 0.86037 0.607663 0.858341 
v 0.83457 -0.143544 -0.858169 
v 0.860768 -0.86531 -0.858169 
v 0.86076 0.575331 -0.858341 
v 0.109936 -1.20781 0.52813 
v 0.504333 -1.20781 0.0727133 
v 0.544783 -1.20781 0.485521 
v 0.069486 -1.20781 0.115322 
v -0.53096 -1.20781 0.491558 
v -0.0595523 -1.20781 0.116421 
v -0.0956925 -1.20781 0.529628 
v -0.49482 -1.20781 0.0783509 
v -0.500496 -1.20781 -0.0987406 
v -0.029088 -1.20781 -0.473878 
v -0.0652282 -1.20781 -0.0606705 
v -0.464356 -1.20781 -0.511948 
v 0.086592 -1.20781 -0.062349 
v 0.473204 -1.20781 -0.524394 
v 0.520654 -1.20781 -0.112332 
v 0.0391418 -1.20781 -0.47441 
v -0.486039 -0.894442 0.455811 
v -0.126917 -1.06025 0.494324 
v -0.133726 -0.894442 0.486625 
v -0.494082 -1.06025 0.462211 
v 0.499491 -0.894442 0.450244 
v 0.147518 -0.894442 0.484732 
v 0.14079 -1.06025 0.492502 
v 0.5076 -1.06025 0.45656 
v -0.463618 -1.06025 -0.128087 
v -0.426322 -0.894442 -0.468944 
v -0.433132 -1.06025 -0.476644 
v -0.455575 -0.894442 -0.134488 
v 0.436363 -0.894442 -0.480364 
v 0.47477 -0.894442 -0.146835 
v 0.482984 -1.06025 -0.140658 
v 0.442958 -1.06025 -0.488248 
v -0.494082 -1.06025 0.462211 
v -0.456787 -0.894442 0.121354 
v -0.463596 -1.06025 0.113655 
v -0.486039 -0.894442 0.455811 
v 0.466751 -0.894442 0.116111 
v 0.499491 -0.894442 0.450244 
v 0.5076 -1.06025 0.45656 
v 0.47348 -1.06025 0.108341 
v -0.433132 -1.06025 -0.476644 
v -0.0740092 -0.894442 -0.438131 
v -0.0659662 -1.06025 -0.44453 
v -0.426322 -0.894442 -0.468944 
v 0.442958 -1.06025 -0.488248 
v 0.0768105 -1.06025 -0.446085 
v 0.085026 -0.894442 -0.439907 
v 0.436363 -0.894442 -0.480364 
v 0.00346196 -0.991129 0.470323 
v 0.853267 -0.988631 0.582331 
v 0.00346193 -0.978044 0.856436 
v 0.860767 -0.950804 0.856436 
v -0.853838 -0.950804 0.856436 
v 0.846097 -0.999695 0.320052 
v -0.846008 -0.989167 0.364396 
v 0.00346199 -1.00458 0.100867 
v 0.853537 -0.962151 -0.377659 
v -0.838508 -1.00075 -0.106415 
v 0.00346204 -0.962151 -0.451847 
v 0.860768 -0.86531 -0.858169 
v -0.846608 -0.962151 -0.526035 
v 0.00346208 -0.888393 -0.858169 
v -0.853837 -0.86531 -0.858169 
v -0.494082 -1.06025 0.462211 
v -0.0956925 -1.20781 0.529628 
v -0.126917 -1.06025 0.494324 
v -0.53096 -1.20781 0.491558 
v 0.5076 -1.06025 0.45656 
v 0.14079 -1.06025 0.492502 
v 0.109936 -1.20781 0.52813 
v 0.544783 -1.20781 0.485521 
v -0.500496 -1.20781 -0.0987406 
v -0.433132 -1.06025 -0.476644 
v -0.464356 -1.20781 -0.511948 
v -0.463618 -1.06025 -0.128087 
v 0.442958 -1.06025 -0.488248 
v 0.482984 -1.06025 -0.140658 
v 0.520654 -1.20781 -0.112332 
v 0.473204 -1.20781 -0.524394 
v -0.53096 -1.20781 0.491558 
v -0.463596 -1.06025 0.113655 
v -0.49482 -1.20781 0.0783509 
v -0.494082 -1.06025 0.462211 
v -0.464356 -1.20781 -0.511948 
v -0.0659662 -1.06025 -0.44453 
v -0.029088 -1.20781 -0.473878 
v -0.433132 -1.06025 -0.476644 
v 0.473204 -1.20781 -0.524394 
v 0.0391418 -1.20781 -0.47441 
v 0.0768105 -1.06025 -0.446085 
v 0.442958 -1.06025 -0.488248 
v 0.47348 -1.06025 0.108341 
v 0.5076 -1.06025 0.45656 
v 0.544783 -1.20781 0.485521 
v 0.504333 -1.20781 0.0727133 
v 0.188061 1.18966 -0.209327 
v 0.114108 1.07242 -0.140754 
v 0.149125 1.05427 -0.16595 
v 0.153044 1.20781 -0.184131 
v 0.111743 1.07202 -0.143755 
v 0.150679 1.20741 -0.187133 
v 0.185696 1.18927 -0.212329 
v 0.14676 1.05388 -0.168951 
v 0.147518 -0.894442 0.484732 
v 0.106669 -1.06025 0.144283 
v 0.14079 -1.06025 0.492502 
v 0.114778 -0.894442 0.150599 
v -0.455575 -0.894442 -0.134488 
v -0.0964522 -1.06025 -0.0959745 
v -0.103261 -0.894442 -0.103673 
v -0.463618 -1.06025 -0.128087 
v 0.47477 -0.894442 -0.146835 
v 0.123433 -0.894442 -0.106378 
v 0.116837 -1.06025 -0.0984945 
v 0.482984 -1.06025 -0.140658 
v -0.133726 -0.894442 0.486625 
v -0.0964305 -1.06025 0.145768 
v -0.104474 -0.894442 0.152168 
v -0.126917 -1.06025 0.494324 
v 0.123433 -0.894442 -0.106378 
v 0.0768105 -1.06025 -0.446085 
v 0.116837 -1.06025 -0.0984945 
v 0.085026 -0.894442 -0.439907 
v -0.103261 -0.894442 -0.103673 
v -0.0659662 -1.06025 -0.44453 
v -0.0740092 -0.894442 -0.438131 
v -0.0964522 -1.06025 -0.0959745 
v 0.47348 -1.06025 0.108341 
v 0.106669 -1.06025 0.144283 
v 0.114778 -0.894442 0.150599 
v 0.466751 -0.894442 0.116111 
v -0.463596 -1.06025 0.113655 
v -0.104474 -0.894442 0.152168 
v -0.0964305 -1.06025 0.145768 
v -0.456787 -0.894442 0.121354 
v 0.14079 -1.06025 0.492502 
v 0.069486 -1.20781 0.115322 
v 0.109936 -1.20781 0.52813 
v 0.106669 -1.06025 0.144283 
v -0.463618 -1.06025 -0.128087 
v -0.0652282 -1.20781 -0.0606705 
v -0.0964522 -1.06025 -0.0959745 
v -0.500496 -1.20781 -0.0987406 
v 0.482984 -1.06025 -0.140658 
v 0.116837 -1.06025 -0.0984945 
v 0.086592 -1.20781 -0.062349 
v 0.520654 -1.20781 -0.112332 
v -0.126917 -1.06025 0.494324 
v -0.0595523 -1.20781 0.116421 
v -0.0964305 -1.06025 0.145768 
v -0.0956925 -1.20781 0.529628 
v 0.116837 -1.06025 -0.0984945 
v 0.0391418 -1.20781 -0.47441 
v 0.086592 -1.20781 -0.062349 
v 0.0768105 -1.06025 -0.446085 
v -0.0964522 -1.06025 -0.0959745 
v -0.029088 -1.20781 -0.473878 
v -0.0659662 -1.06025 -0.44453 
v -0.0652282 -1.20781 -0.0606705 
v 0.504333 -1.20781 0.0727133 
v 0.069486 -1.20781 0.115322 
v 0.106669 -1.06025 0.144283 
v 0.47348 -1.06025 0.108341 
v -0.49482 -1.20781 0.0783509 
v -0.0964305 -1.06025 0.145768 
v -0.0595523 -1.20781 0.116421 
v -0.463596 -1.06025 0.113655 
v -0.0650446 0.452185 -0.0135511 
v 0.165682 1.03738 -0.296325 
v 0.0332555 0.420395 -0.0512262 
v 0.0166736 1.08557 -0.239215 
v 0.035091 1.13235 -0.0802822 
v -0.0528947 0.483048 0.0912956 
v 0.0529144 0.470332 0.118419 
v 0.195482 1.11308 -0.0391665 
v 0.276192 1.05438 -0.172688 
v 0.106158 0.43161 0.0303361 
v 0.0332555 0.420395 -0.0512262 
v 0.165682 1.03738 -0.296325 

vn 0.188976 0.937008 -0.299213 
vn 0.188976 0.937008 -0.299213 
vn 0.188976 0.937008 -0.299213 
vn 0.188976 0.937008 -0.299213 
vn 0.188976 0.937008 -0.299213 
vn 0.015748 0.992126 -0.141732 
vn 0.0314961 0.992126 -0.141732 
vn 0.00787402 1 -0.0551181 
vn 0.00787402 1 -0.0472441 
vn 0.015748 1 -0.0629921 
vn 0.0472441 0.992126 -0.141732 
vn -0.015748 1 0.0314961 
vn -0.00787402 1 0.0314961 
vn 0.00787402 1 0.0393701 
vn -1 0 -0.0393701 
vn -1 -0.015748 -0.023622 
vn -1 -0.0314961 -0.0393701 
vn -1 0 -0.00787402 
vn -1 0 0 
vn -1 0.015748 0.00787402 
vn -1 0 -0.015748 
vn -1 0.023622 -0.0314961 
vn -1 0 0 
vn -1 0.023622 0 
vn -1 -0.015748 0 
vn 0 0 -1 
vn 0 0 -1 
vn 0 0 -1 
vn 0 0 -1 
vn 0 0 -1 
vn 0 0 -1 
vn 0 0 -1 
vn 0 0 -1 
vn 0 0 1 
vn 0 0 1 
vn 0 0 1 
vn 0 0 1 
vn 0 0 1 
vn 0 0 1 
vn 0 0 1 
vn 0 0 1 
vn 1 -0.00787402 -0.0393701 
vn 1 0 -0.0551181 
vn 1 -0.023622 -0.0551181 
vn 1 0 -0.023622 
vn 1 0 -0.00787402 
vn 1 0.00787402 0.00787402 
vn 1 0 -0.023622 
vn 1 0.015748 -0.0551181 
vn 1 0 0 
vn 1 0.023622 0 
vn 1 -0.015748 0 
vn 0 -1 0 
vn 0 -1 0 
vn 0 -1 0 
vn 0 -1 0 
vn 0 -1 0 
vn 0 -1 0 
vn 0 -1 0 
vn 0 -1 0 
vn 0 -1 0 
vn 0 -1 0 
vn 0 -1 0 
vn 0 -1 0 
vn 0 -1 0 
vn 0 -1 0 
vn 0 -1 0 
vn 0 -1 0 
vn -0.0866142 0.0393701 0.992126 
vn -0.0866142 0.0393701 0.992126 
vn -0.0866142 0.0393701 0.992126 
vn -0.0866142 0.0393701 0.992126 
vn 0.0944882 0.0393701 0.992126 
vn 0.0944882 0.0393701 0.992126 
vn 0.0944882 0.0393701 0.992126 
vn 0.0944882 0.0393701 0.992126 
vn -0.992126 0.0472441 -0.0866142 
vn -0.992126 0.0472441 -0.0866142 
vn -0.992126 0.0472441 -0.0866142 
vn -0.992126 0.0472441 -0.0866142 
vn 0.992126 0.0472441 -0.110236 
vn 0.992126 0.0472441 -0.110236 
vn 0.992126 0.0472441 -0.110236 
vn 0.992126 0.0472441 -0.110236 
vn -0.992126 0.0472441 -0.0866142 
vn -0.992126 0.0472441 -0.0866142 
vn -0.992126 0.0472441 -0.0866142 
vn -0.992126 0.0472441 -0.0866142 
vn 0.992126 0.0472441 -0.0944882 
vn 0.992126 0.0472441 -0.0944882 
vn 0.992126 0.0472441 -0.0944882 
vn 0.992126 0.0472441 -0.0944882 
vn 0.0866142 0.0393701 -0.992126 
vn 0.0866142 0.0393701 -0.992126 
vn 0.0866142 0.0393701 -0.992126 
vn 0.0866142 0.0393701 -0.992126 
vn -0.110236 0.0393701 -0.992126 
vn -0.110236 0.0393701 -0.992126 
vn -0.110236 0.0393701 -0.992126 
vn -0.110236 0.0393701 -0.992126 
vn -0.00787402 -1 0.0551181 
vn 0.00787402 -1 0.0551181 
vn -0.00787402 -1 0.0708661 
vn 0.015748 -1 0.0787402 
vn -0.023622 -1 0.0551181 
vn 0.00787402 -1 -0.015748 
vn -0.015748 -1 0.0472441 
vn 0 -1 -0.023622 
vn 0.015748 -0.992126 -0.125984 
vn 0 -1 -0.023622 
vn 0.00787402 -0.992126 -0.141732 
vn 0.023622 -0.984252 -0.188976 
vn 0.00787402 -0.984252 -0.15748 
vn 0.00787402 -0.976378 -0.204724 
vn 0 -0.976378 -0.228346 
vn -0.0866142 0.212598 0.976378 
vn -0.0866142 0.212598 0.976378 
vn -0.0866142 0.212598 0.976378 
vn -0.0866142 0.212598 0.976378 
vn 0.0944882 0.212598 0.968504 
vn 0.0944882 0.212598 0.968504 
vn 0.0944882 0.212598 0.968504 
vn 0.0944882 0.212598 0.968504 
vn -0.968504 0.228346 -0.0866142 
vn -0.968504 0.228346 -0.0866142 
vn -0.968504 0.228346 -0.0866142 
vn -0.968504 0.228346 -0.0866142 
vn 0.968504 0.228346 -0.110236 
vn 0.968504 0.228346 -0.110236 
vn 0.968504 0.228346 -0.110236 
vn 0.968504 0.228346 -0.110236 
vn -0.968504 0.228346 -0.0866142 
vn -0.968504 0.228346 -0.0866142 
vn -0.968504 0.228346 -0.0866142 
vn -0.968504 0.228346 -0.0866142 
vn 0.0866142 0.212598 -0.976378 
vn 0.0866142 0.212598 -0.976378 
vn 0.0866142 0.212598 -0.976378 
vn 0.0866142 0.212598 -0.976378 
vn -0.110236 0.212598 -0.968504 
vn -0.110236 0.212598 -0.968504 
vn -0.110236 0.212598 -0.968504 
vn -0.110236 0.212598 -0.968504 
vn 0.968504 0.228346 -0.0944882 
vn 0.968504 0.228346 -0.0944882 
vn 0.968504 0.228346 -0.0944882 
vn 0.968504 0.228346 -0.0944882 
vn 0.606299 0.0787402 0.787402 
vn 0.606299 0.0787402 0.787402 
vn 0.606299 0.0787402 0.787402 
vn 0.606299 0.0787402 0.787402 
vn -0.606299 -0.0787402 -0.787402 
vn -0.606299 -0.0787402 -0.787402 
vn -0.606299 -0.0787402 -0.787402 
vn -0.606299 -0.0787402 -0.787402 
vn -0.992126 0.0472441 0.0944882 
vn -0.992126 0.0472441 0.0944882 
vn -0.992126 0.0472441 0.0944882 
vn -0.992126 0.0472441 0.0944882 
vn -0.0866142 0.0393701 0.992126 
vn -0.0866142 0.0393701 0.992126 
vn -0.0866142 0.0393701 0.992126 
vn -0.0866142 0.0393701 0.992126 
vn 0.110236 0.0393701 0.992126 
vn 0.110236 0.0393701 0.992126 
vn 0.110236 0.0393701 0.992126 
vn 0.110236 0.0393701 0.992126 
vn 0.992126 0.0472441 0.0866142 
vn 0.992126 0.0472441 0.0866142 
vn 0.992126 0.0472441 0.0866142 
vn 0.992126 0.0472441 0.0866142 
vn -0.992126 0.0472441 0.110236 
vn -0.992126 0.0472441 0.110236 
vn -0.992126 0.0472441 0.110236 
vn -0.992126 0.0472441 0.110236 
vn 0.992126 0.0472441 0.0866142 
vn 0.992126 0.0472441 0.0866142 
vn 0.992126 0.0472441 0.0866142 
vn 0.992126 0.0472441 0.0866142 
vn -0.0944882 0.0393701 -0.992126 
vn -0.0944882 0.0393701 -0.992126 
vn -0.0944882 0.0393701 -0.992126 
vn -0.0944882 0.0393701 -0.992126 
vn 0.0866142 0.0393701 -0.992126 
vn 0.0866142 0.0393701 -0.992126 
vn 0.0866142 0.0393701 -0.992126 
vn 0.0866142 0.0393701 -0.992126 
vn -0.968504 0.228346 0.0944882 
vn -0.968504 0.228346 0.0944882 
vn -0.968504 0.228346 0.0944882 
vn -0.968504 0.228346 0.0944882 
vn -0.0866142 0.212598 0.976378 
vn -0.0866142 0.212598 0.976378 
vn -0.0866142 0.212598 0.976378 
vn -0.0866142 0.212598 0.976378 
vn 0.110236 0.212598 0.968504 
vn 0.110236 0.212598 0.968504 
vn 0.110236 0.212598 0.968504 
vn 0.110236 0.212598 0.968504 
vn 0.968504 0.228346 0.0866142 
vn 0.968504 0.228346 0.0866142 
vn 0.968504 0.228346 0.0866142 
vn 0.968504 0.228346 0.0866142 
vn -0.968504 0.228346 0.110236 
vn -0.968504 0.228346 0.110236 
vn -0.968504 0.228346 0.110236 
vn -0.968504 0.228346 0.110236 
vn 0.968504 0.228346 0.0866142 
vn 0.968504 0.228346 0.0866142 
vn 0.968504 0.228346 0.0866142 
vn 0.968504 0.228346 0.0866142 
vn -0.0944882 0.212598 -0.968504 
vn -0.0944882 0.212598 -0.968504 
vn -0.0944882 0.212598 -0.968504 
vn -0.0944882 0.212598 -0.968504 
vn 0.0866142 0.212598 -0.976378 
vn 0.0866142 0.212598 -0.976378 
vn 0.0866142 0.212598 -0.976378 
vn 0.0866142 0.212598 -0.976378 
vn -0.866142 -0.0629921 -0.496063 
vn 0.181102 -0.393701 -0.897638 
vn 0.181102 -0.393701 -0.897638 
vn -0.866142 -0.0629921 -0.496063 
vn -0.740157 0.267717 0.622047 
vn -0.740157 0.267717 0.622047 
vn 0.393701 0.133858 0.905512 
vn 0.393701 0.133858 0.905512 
vn 0.96063 -0.275591 -0.0314961 
vn 0.96063 -0.275591 -0.0314961 
vn 0.181102 -0.393701 -0.897638 
vn 0.181102 -0.393701 -0.897638 

vt 0.794827 0.502538 
vt 0.768053 0.539453 
vt 0.724503 0.47687 
vt 0.724595 0.527991 
vt 0.767992 0.465666 
vt 0.362213 0.330025 
vt 0.356964 0.496741 
vt 0.205935 0.491441 
vt 0.169237 0.320271 
vt 0.245218 0.659681 
vt 0.352497 0.665405 
vt 0.013892 0.658002 
vt 0.017666 0.48936 
vt 0.017859 0.323063 
vt 0.355903 0.171636 
vt 0.254673 0.012641 
vt 0.351848 0.017046 
vt 0.165985 0.169129 
vt 0.162319 0.013066 
vt 0.080291 0.022033 
vt 0.169237 0.320271 
vt 0.362213 0.330025 
vt 0.018462 0.183941 
vt 0.014968 0.042101 
vt 0.017859 0.323063 
vt 0.707272 0.182523 
vt 0.851696 0.019612 
vt 0.989469 0.182357 
vt 0.992848 0.014168 
vt 0.709917 0.015226 
vt 0.851785 0.345268 
vt 0.710056 0.349963 
vt 0.992703 0.350493 
vt 0.014233 0.677588 
vt 0.179778 0.673126 
vt 0.006941 0.829242 
vt 0.17801 0.988948 
vt 0.012408 0.986674 
vt 0.347865 0.831212 
vt 0.34442 0.979749 
vt 0.346049 0.680053 
vt 0.399182 0.672452 
vt 0.347865 0.831212 
vt 0.346049 0.680053 
vt 0.450833 0.822082 
vt 0.449993 0.670323 
vt 0.585023 0.677583 
vt 0.449837 0.967866 
vt 0.34442 0.979749 
vt 0.677959 0.835995 
vt 0.677831 0.696274 
vt 0.677702 0.975151 
vt 0.901369 0.916183 
vt 0.813021 0.84004 
vt 0.893507 0.833102 
vt 0.821116 0.925618 
vt 0.893507 0.833102 
vt 0.821116 0.925618 
vt 0.901369 0.916183 
vt 0.813044 0.840236 
vt 0.813021 0.84004 
vt 0.901369 0.916183 
vt 0.821116 0.925618 
vt 0.893507 0.833102 
vt 0.821116 0.925618 
vt 0.893507 0.833102 
vt 0.813021 0.84004 
vt 0.901369 0.916183 
vt 0.955391 0.834961 
vt 0.930436 0.908734 
vt 0.962322 0.902212 
vt 0.923212 0.834514 
vt 0.955391 0.834961 
vt 0.962322 0.902212 
vt 0.930436 0.908734 
vt 0.923212 0.834514 
vt 0.933036 0.765791 
vt 0.955391 0.834961 
vt 0.923212 0.834514 
vt 0.964389 0.773823 
vt 0.955391 0.834961 
vt 0.964389 0.773823 
vt 0.933036 0.765791 
vt 0.923212 0.834514 
vt 0.923212 0.834514 
vt 0.964389 0.773823 
vt 0.933036 0.765791 
vt 0.955391 0.834961 
vt 0.964389 0.773823 
vt 0.955391 0.834961 
vt 0.923212 0.834514 
vt 0.933036 0.765791 
vt 0.923212 0.834514 
vt 0.962322 0.902212 
vt 0.930436 0.908734 
vt 0.955391 0.834961 
vt 0.923212 0.834514 
vt 0.930436 0.908734 
vt 0.962322 0.902212 
vt 0.955391 0.834961 
vt 0.446358 0.183287 
vt 0.425227 0.34988 
vt 0.37072 0.183478 
vt 0.371095 0.351656 
vt 0.370517 0.015319 
vt 0.47667 0.348276 
vt 0.467107 0.016848 
vt 0.518679 0.183061 
vt 0.613751 0.349159 
vt 0.559311 0.018068 
vt 0.626817 0.182752 
vt 0.710056 0.349963 
vt 0.64196 0.016368 
vt 0.707272 0.182523 
vt 0.709917 0.015226 
vt 0.923212 0.834514 
vt 0.901369 0.916183 
vt 0.930436 0.908734 
vt 0.893507 0.833102 
vt 0.923212 0.834514 
vt 0.930436 0.908734 
vt 0.901369 0.916183 
vt 0.893507 0.833102 
vt 0.904609 0.757308 
vt 0.923212 0.834514 
vt 0.893507 0.833102 
vt 0.933036 0.765791 
vt 0.923212 0.834514 
vt 0.933036 0.765791 
vt 0.904609 0.757308 
vt 0.893507 0.833102 
vt 0.893507 0.833102 
vt 0.933036 0.765791 
vt 0.904609 0.757308 
vt 0.923212 0.834514 
vt 0.893507 0.833102 
vt 0.930436 0.908734 
vt 0.901369 0.916183 
vt 0.923212 0.834514 
vt 0.893507 0.833102 
vt 0.901369 0.916183 
vt 0.930436 0.908734 
vt 0.923212 0.834514 
vt 0.933036 0.765791 
vt 0.923212 0.834514 
vt 0.893507 0.833102 
vt 0.904609 0.757308 
vt 0.772981 0.423808 
vt 0.750162 0.376051 
vt 0.772981 0.376051 
vt 0.750162 0.423808 
vt 0.750162 0.376051 
vt 0.750162 0.423808 
vt 0.772981 0.423808 
vt 0.772981 0.376051 
vt 0.962322 0.902212 
vt 0.953234 0.974424 
vt 0.930436 0.908734 
vt 0.983516 0.963033 
vt 0.964389 0.773823 
vt 0.962256 0.697477 
vt 0.991562 0.710431 
vt 0.933036 0.765791 
vt 0.964389 0.773823 
vt 0.991562 0.710431 
vt 0.962256 0.697477 
vt 0.933036 0.765791 
vt 0.962322 0.902212 
vt 0.953234 0.974424 
vt 0.983516 0.963033 
vt 0.930436 0.908734 
vt 0.983516 0.963033 
vt 0.930436 0.908734 
vt 0.953234 0.974424 
vt 0.962322 0.902212 
vt 0.983516 0.963033 
vt 0.930436 0.908734 
vt 0.962322 0.902212 
vt 0.953234 0.974424 
vt 0.933036 0.765791 
vt 0.962256 0.697477 
vt 0.991562 0.710431 
vt 0.964389 0.773823 
vt 0.933036 0.765791 
vt 0.991562 0.710431 
vt 0.962256 0.697477 
vt 0.964389 0.773823 
vt 0.930436 0.908734 
vt 0.928145 0.990732 
vt 0.901369 0.916183 
vt 0.953234 0.974424 
vt 0.933036 0.765791 
vt 0.937923 0.679496 
vt 0.962256 0.697477 
vt 0.904609 0.757308 
vt 0.933036 0.765791 
vt 0.962256 0.697477 
vt 0.937923 0.679496 
vt 0.904609 0.757308 
vt 0.930436 0.908734 
vt 0.928145 0.990732 
vt 0.953234 0.974424 
vt 0.901369 0.916183 
vt 0.953234 0.974424 
vt 0.901369 0.916183 
vt 0.928145 0.990732 
vt 0.930436 0.908734 
vt 0.953234 0.974424 
vt 0.901369 0.916183 
vt 0.930436 0.908734 
vt 0.928145 0.990732 
vt 0.904609 0.757308 
vt 0.937923 0.679496 
vt 0.962256 0.697477 
vt 0.933036 0.765791 
vt 0.904609 0.757308 
vt 0.962256 0.697477 
vt 0.937923 0.679496 
vt 0.933036 0.765791 
vt 0.383299 0.578705 
vt 0.72452 0.629675 
vt 0.383299 0.629675 
vt 0.72452 0.578705 
vt 0.724595 0.527991 
vt 0.383299 0.527734 
vt 0.383299 0.476763 
vt 0.724503 0.47687 
vt 0.72452 0.425793 
vt 0.383299 0.425793 
vt 0.383299 0.374822 
vt 0.72452 0.374822 

usemtl Pet1Mtl

f 1/1/1 2/2/2 3/3/3 
f 2/2/2 4/4/4 3/3/3 
f 5/5/5 1/1/1 3/3/3 
f 6/6/6 7/7/7 8/8/8 
f 6/6/6 8/8/8 9/9/9 
f 7/7/7 10/10/10 8/8/8 
f 7/7/7 11/11/11 10/10/10 
f 10/10/10 12/12/12 8/8/8 
f 8/8/8 12/12/12 13/13/13 
f 8/8/8 13/13/13 9/9/9 
f 9/9/9 13/13/13 14/14/14 
f 15/15/15 16/16/16 17/17/17 
f 16/16/16 15/15/15 18/18/18 
f 16/16/16 18/18/18 19/19/19 
f 20/20/20 19/19/19 18/18/18 
f 15/15/15 21/21/21 18/18/18 
f 15/15/15 22/22/22 21/21/21 
f 20/20/20 18/18/18 23/23/23 
f 21/21/21 23/23/23 18/18/18 
f 20/20/20 23/23/23 24/24/24 
f 23/23/23 21/21/21 25/25/25 
f 26/26/26 27/27/27 28/28/28 
f 27/27/27 29/29/29 28/28/28 
f 27/27/27 26/26/26 30/30/30 
f 31/31/31 26/26/26 28/28/28 
f 26/26/26 31/31/31 32/32/32 
f 31/31/31 28/28/28 33/33/33 
f 34/34/34 35/35/35 36/36/36 
f 37/37/37 36/36/36 35/35/35 
f 36/36/36 37/37/37 38/38/38 
f 39/39/39 37/37/37 35/35/35 
f 37/37/37 39/39/39 40/40/40 
f 35/35/35 41/41/41 39/39/39 
f 42/42/42 43/43/43 44/44/44 
f 43/43/43 42/42/42 45/45/45 
f 42/42/42 46/46/46 45/45/45 
f 47/47/47 45/45/45 46/46/46 
f 48/48/48 43/43/43 45/45/45 
f 43/43/43 48/48/48 49/49/49 
f 45/45/45 47/47/47 50/50/50 
f 45/45/45 50/50/50 48/48/48 
f 47/47/47 51/51/51 50/50/50 
f 48/48/48 50/50/50 52/52/52 
f 53/53/53 54/54/54 55/55/55 
f 54/54/54 53/53/53 56/56/56 
f 57/57/57 58/58/58 59/59/59 
f 58/58/58 57/57/57 60/60/60 
f 61/61/61 62/62/62 63/63/63 
f 62/62/62 61/61/61 64/64/64 
f 65/65/65 66/66/66 67/67/67 
f 66/66/66 65/65/65 68/68/68 
f 69/69/69 70/70/70 71/71/71 
f 70/70/70 69/69/69 72/72/72 
f 73/73/73 74/74/74 75/75/75 
f 73/73/73 75/75/75 76/76/76 
f 77/77/77 78/78/78 79/79/79 
f 78/78/78 77/77/77 80/80/80 
f 81/81/81 82/82/82 83/83/83 
f 83/83/83 84/84/84 81/81/81 
f 85/85/85 86/86/86 87/87/87 
f 86/86/86 85/85/85 88/88/88 
f 89/89/89 90/90/90 91/91/91 
f 91/91/91 92/92/92 89/89/89 
f 93/93/93 94/94/94 95/95/95 
f 94/94/94 93/93/93 96/96/96 
f 97/97/97 98/98/98 99/99/99 
f 97/97/97 99/99/99 100/100/100 
f 101/101/101 102/102/102 103/103/103 
f 104/104/104 103/103/103 102/102/102 
f 103/103/103 105/105/105 101/101/101 
f 102/102/102 101/101/101 106/106/106 
f 107/107/107 101/101/101 105/105/105 
f 108/108/108 106/106/106 101/101/101 
f 101/101/101 107/107/107 108/108/108 
f 106/106/106 108/108/108 109/109/109 
f 110/110/110 108/108/108 107/107/107 
f 108/108/108 111/111/111 109/109/109 
f 108/108/108 110/110/110 111/111/111 
f 109/109/109 111/111/111 112/112/112 
f 113/113/113 111/111/111 110/110/110 
f 114/114/114 112/112/112 111/111/111 
f 111/111/111 113/113/113 114/114/114 
f 115/115/115 114/114/114 113/113/113 
f 116/116/116 117/117/117 118/118/118 
f 117/117/117 116/116/116 119/119/119 
f 120/120/120 121/121/121 122/122/122 
f 122/122/122 123/123/123 120/120/120 
f 124/124/124 125/125/125 126/126/126 
f 125/125/125 124/124/124 127/127/127 
f 128/128/128 129/129/129 130/130/130 
f 130/130/130 131/131/131 128/128/128 
f 132/132/132 133/133/133 134/134/134 
f 133/133/133 132/132/132 135/135/135 
f 136/136/136 137/137/137 138/138/138 
f 137/137/137 136/136/136 139/139/139 
f 140/140/140 141/141/141 142/142/142 
f 140/140/140 142/142/142 143/143/143 
f 144/144/144 145/145/145 146/146/146 
f 146/146/146 147/147/147 144/144/144 
f 148/148/148 149/149/149 150/150/150 
f 149/149/149 148/148/148 151/151/151 
f 152/152/152 153/153/153 154/154/154 
f 152/152/152 154/154/154 155/155/155 
f 156/156/156 157/157/157 158/158/158 
f 157/157/157 156/156/156 159/159/159 
f 160/160/160 161/161/161 162/162/162 
f 161/161/161 160/160/160 163/163/163 
f 164/164/164 165/165/165 166/166/166 
f 164/164/164 166/166/166 167/167/167 
f 168/168/168 169/169/169 170/170/170 
f 169/169/169 168/168/168 171/171/171 
f 172/172/172 173/173/173 174/174/174 
f 173/173/173 172/172/172 175/175/175 
f 176/176/176 177/177/177 178/178/178 
f 177/177/177 176/176/176 179/179/179 
f 180/180/180 181/181/181 182/182/182 
f 180/180/180 182/182/182 183/183/183 
f 184/184/184 185/185/185 186/186/186 
f 185/185/185 184/184/184 187/187/187 
f 188/188/188 189/189/189 190/190/190 
f 189/189/189 188/188/188 191/191/191 
f 192/192/192 193/193/193 194/194/194 
f 193/193/193 192/192/192 195/195/195 
f 196/196/196 197/197/197 198/198/198 
f 198/198/198 199/199/199 196/196/196 
f 200/200/200 201/201/201 202/202/202 
f 201/201/201 200/200/200 203/203/203 
f 204/204/204 205/205/205 206/206/206 
f 205/205/205 204/204/204 207/207/207 
f 208/208/208 209/209/209 210/210/210 
f 209/209/209 208/208/208 211/211/211 
f 212/212/212 213/213/213 214/214/214 
f 212/212/212 214/214/214 215/215/215 
f 216/216/216 217/217/217 218/218/218 
f 217/217/217 216/216/216 219/219/219 
f 220/220/220 221/221/221 222/222/222 
f 221/221/221 220/220/220 223/223/223 
f 223/223/223 220/220/220 224/224/224 
f 224/224/224 220/220/220 225/225/225 
f 226/226/226 224/224/224 225/225/225 
f 224/224/224 226/226/226 227/227/227 
f 227/227/227 226/226/226 228/228/228 
f 229/229/229 228/228/228 226/226/226 
f 230/230/230 228/228/228 229/229/229 
f 228/228/228 230/230/230 231/231/231 

