# This file is brought to you by Roblox Corporation
# Generated by Roblox Studio

mtllib bee.mtl

g Pet1

v -0.387451 0.85317 1.10765 
v -0.592923 0.762439 1.3439 
v -0.441215 0.785038 1.37656 
v -0.539242 0.830195 1.07564 
v 0.383371 0.836419 1.11584 
v 0.588843 0.745688 1.35209 
v 0.535161 0.813444 1.08383 
v 0.437134 0.768287 1.38475 
v 0.00346206 -0.997841 -0.722612 
v -0.827362 -0.252992 -0.722612 
v 0.00345981 0.448116 -0.722755 
v -0.853845 0.467001 -0.722717 
v 0.83457 -0.252992 -0.722612 
v 0.860768 -0.974758 -0.722612 
v 0.86076 0.465883 -0.722785 
v -0.827362 -0.252992 -0.722612 
v 0.00346206 -0.997841 -0.722612 
v -0.853837 -0.974758 -0.722612 
v -0.85293 0.540463 0.987613 
v 0.00371991 0.546261 0.990755 
v 0.00360673 0.425091 0.234962 
v -0.838778 0.422016 0.0300358 
v 0.00371991 0.546261 0.990755 
v 0.86037 0.498216 0.993898 
v 0.846765 0.429748 0.453693 
v 0.00360673 0.425091 0.234962 
v 0.846765 0.429748 0.453693 
v 0.86076 0.465883 -0.722785 
v 0.00360673 0.425091 0.234962 
v 0.00345981 0.448116 -0.722755 
v 0.00360673 0.425091 0.234962 
v 0.00345981 0.448116 -0.722755 
v -0.838778 0.422016 0.0300358 
v -0.853845 0.467001 -0.722717 
v -0.88698 -0.274607 0.991993 
v -0.846008 -1.09861 0.499953 
v -0.853838 -1.06025 0.991993 
v -0.838508 -0.324624 0.0291328 
v -0.88698 -0.274607 0.991993 
v -0.838778 0.422016 0.0300358 
v -0.85293 0.540463 0.987613 
v 0.853267 -1.09808 0.717887 
v 0.88698 -0.274607 0.991993 
v 0.860767 -1.06025 0.991993 
v 0.846097 -0.323499 0.455608 
v 0.846097 -1.10914 0.455608 
v 0.853537 -1.0716 -0.242103 
v 0.83457 -0.252992 -0.722612 
v 0.860768 -0.974758 -0.722612 
v 0.846765 0.429748 0.453693 
v 0.86076 0.465883 -0.722785 
v 0.846765 0.429748 0.453693 
v 0.88698 -0.274607 0.991993 
v 0.86037 0.498216 0.993898 
v -0.846008 -1.09861 0.499953 
v -0.838508 -0.324624 0.0291328 
v -0.838508 -1.11019 0.029141 
v -0.846608 -1.0716 -0.390479 
v -0.838508 -0.324624 0.0291328 
v -0.827362 -0.252992 -0.722612 
v -0.853837 -0.974758 -0.722612 
v -0.846608 -1.0716 -0.390479 
v -0.838508 -1.11019 0.029141 
v -0.838508 -0.324624 0.0291328 
v -0.838778 0.422016 0.0300358 
v -0.827362 -0.252992 -0.722612 
v -0.838508 -0.324624 0.0291328 
v -0.853845 0.467001 -0.722717 
v 0.109936 -1.31725 0.367814 
v 0.504333 -1.31725 -0.0876023 
v 0.544783 -1.31725 0.325205 
v 0.069486 -1.31725 -0.0449934 
v -0.53096 -1.31725 0.331243 
v -0.0595522 -1.31725 -0.0438946 
v -0.0956925 -1.31725 0.369313 
v -0.49482 -1.31725 -0.0819647 
v 0.109936 -1.31725 -0.20968 
v 0.504333 -1.31725 -0.665097 
v 0.544783 -1.31725 -0.252289 
v 0.0694861 -1.31725 -0.622488 
v 0.109936 -1.31725 0.927713 
v 0.504333 -1.31725 0.472297 
v 0.544783 -1.31725 0.885104 
v 0.069486 -1.31725 0.514906 
v -0.53096 -1.31725 -0.246252 
v -0.0595522 -1.31725 -0.621389 
v -0.0956925 -1.31725 -0.208182 
v -0.49482 -1.31725 -0.659459 
v -0.53096 -1.31725 0.891142 
v -0.0595523 -1.31725 0.516005 
v -0.0956926 -1.31725 0.929212 
v -0.49482 -1.31725 0.477934 
v 0.47348 -1.16969 -0.62947 
v 0.106669 -1.16969 -0.593527 
v 0.114778 -0.977467 -0.587211 
v 0.466751 -0.977467 -0.6217 
v -0.463596 -1.16969 -0.624155 
v -0.104473 -1.00389 -0.585642 
v -0.0964304 -1.16969 -0.592042 
v -0.456787 -1.00389 -0.616456 
v -0.853838 -1.06025 0.991993 
v 0.00346191 -1.08749 0.991993 
v -0.88698 -0.274607 0.991993 
v 0.00371991 0.546261 0.990755 
v -0.85293 0.540463 0.987613 
v 0.860767 -1.06025 0.991993 
v 0.88698 -0.274607 0.991993 
v 0.88698 -0.274607 0.991993 
v 0.00371991 0.546261 0.990755 
v 0.86037 0.498216 0.993898 
v -0.158998 0.425546 -0.714541 
v 0.156431 0.426876 -0.715284 
v -0.00181338 0.550816 -1.38475 
v 0.504333 -1.31725 -0.665097 
v 0.0694861 -1.31725 -0.622488 
v 0.106669 -1.16969 -0.593527 
v 0.47348 -1.16969 -0.62947 
v -0.49482 -1.31725 -0.659459 
v -0.0964304 -1.16969 -0.592042 
v -0.0595522 -1.31725 -0.621389 
v -0.463596 -1.16969 -0.624155 
v 0.499491 -1.00389 0.849827 
v 0.147518 -1.00389 0.884316 
v 0.14079 -1.16969 0.892086 
v 0.5076 -1.16969 0.856143 
v -0.486039 -1.00389 0.855394 
v -0.126917 -1.16969 0.893908 
v -0.133726 -1.00389 0.886208 
v -0.494082 -1.16969 0.861794 
v 0.00366755 0.425653 0.149104 
v 0.220597 0.681863 0.505873 
v 0.224652 0.686652 -0.199082 
v 0.430984 0.930344 -0.366047 
v 0.425032 0.923316 0.681418 
v 0.655134 1.19508 0.502978 
v 0.65811 1.1986 -0.187606 
v 0.756845 1.31725 0.158731 
v 0.00346195 -1.10058 0.605879 
v 0.853267 -1.09808 0.717887 
v 0.00346191 -1.08749 0.991993 
v 0.860767 -1.06025 0.991993 
v 0.846097 -1.10914 0.455608 
v 0.00346198 -1.11403 0.236424 
v 0.00346191 -1.08749 0.991993 
v -0.853838 -1.06025 0.991993 
v -0.846008 -1.09861 0.499953 
v -0.838508 -1.11019 0.029141 
v 0.00346203 -1.0716 -0.316291 
v -0.846608 -1.0716 -0.390479 
v 0.853537 -1.0716 -0.242103 
v 0.846097 -1.10914 0.455608 
v 0.00346206 -0.997841 -0.722612 
v -0.853837 -0.974758 -0.722612 
v 0.860768 -0.974758 -0.722612 
v 0.00346203 -1.0716 -0.316291 
v 0.853537 -1.0716 -0.242103 
v -0.00774757 0.425653 0.149104 
v -0.228732 0.686652 -0.199082 
v -0.224677 0.681863 0.505873 
v -0.435064 0.930344 -0.366047 
v -0.429112 0.923316 0.681418 
v -0.659214 1.19508 0.502978 
v -0.66219 1.1986 -0.187606 
v -0.760925 1.31725 0.158731 
v 0.499491 -1.00389 -0.287566 
v 0.47348 -1.16969 -0.62947 
v 0.466751 -0.977467 -0.6217 
v 0.5076 -1.16969 -0.281251 
v -0.494082 -1.16969 -0.275599 
v -0.456787 -1.00389 -0.616456 
v -0.463596 -1.16969 -0.624155 
v -0.486039 -1.00389 -0.281999 
v -0.494082 -1.16969 0.861794 
v -0.0956926 -1.31725 0.929212 
v -0.126917 -1.16969 0.893908 
v -0.53096 -1.31725 0.891142 
v 0.5076 -1.16969 0.856143 
v 0.14079 -1.16969 0.892086 
v 0.109936 -1.31725 0.927713 
v 0.544783 -1.31725 0.885104 
v 0.466751 -1.00389 -0.0442051 
v 0.499491 -1.00389 0.289928 
v 0.5076 -1.16969 0.296244 
v 0.47348 -1.16969 -0.0519751 
v -0.494082 -1.16969 0.301895 
v -0.456787 -1.00389 -0.0389619 
v -0.463596 -1.16969 -0.0466607 
v -0.486039 -1.00389 0.295495 
v 0.46675 -1.00389 0.515694 
v 0.499491 -1.00389 0.849827 
v 0.5076 -1.16969 0.856143 
v 0.473479 -1.16969 0.507924 
v -0.494082 -1.16969 0.861794 
v -0.456787 -1.00389 0.520937 
v -0.463596 -1.16969 0.513238 
v -0.486039 -1.00389 0.855394 
v 0.437134 0.768287 1.38475 
v 0.55394 0.612102 1.28 
v 0.588843 0.745688 1.35209 
v 0.402667 0.634638 1.31258 
v 0.47348 -1.16969 -0.62947 
v 0.5076 -1.16969 -0.281251 
v 0.544783 -1.31725 -0.252289 
v 0.504333 -1.31725 -0.665097 
v -0.158998 0.425546 -0.714541 
v -0.00181338 0.550816 -1.38475 
v -0.159606 0.111418 -0.720444 
v -0.441215 0.785038 1.37656 
v -0.592923 0.762439 1.3439 
v -0.558021 0.628853 1.27181 
v -0.406748 0.651389 1.30438 
v 0.156431 0.426876 -0.715284 
v 0.15673 0.112747 -0.721187 
v -0.00181338 0.550816 -1.38475 
v -0.53096 -1.31725 -0.246252 
v -0.463596 -1.16969 -0.624155 
v -0.49482 -1.31725 -0.659459 
v -0.494082 -1.16969 -0.275599 
v 0.47348 -1.16969 -0.0519751 
v 0.5076 -1.16969 0.296244 
v 0.544783 -1.31725 0.325205 
v 0.504333 -1.31725 -0.0876023 
v -0.53096 -1.31725 0.331243 
v -0.463596 -1.16969 -0.0466607 
v -0.49482 -1.31725 -0.0819647 
v -0.494082 -1.16969 0.301895 
v 0.473479 -1.16969 0.507924 
v 0.5076 -1.16969 0.856143 
v 0.544783 -1.31725 0.885104 
v 0.504333 -1.31725 0.472297 
v -0.53096 -1.31725 0.891142 
v -0.463596 -1.16969 0.513238 
v -0.49482 -1.31725 0.477934 
v -0.494082 -1.16969 0.861794 
v 0.47348 -1.16969 -0.0519751 
v 0.106669 -1.16969 -0.0160321 
v 0.114778 -1.00389 -0.00971637 
v 0.466751 -1.00389 -0.0442051 
v -0.463596 -1.16969 -0.0466607 
v -0.104473 -1.00389 -0.0081474 
v -0.0964305 -1.16969 -0.0145479 
v -0.456787 -1.00389 -0.0389619 
v -0.592923 0.762439 1.3439 
v -0.536501 0.696774 1.15595 
v -0.558021 0.628853 1.27181 
v -0.539242 0.830195 1.07564 
v 0.532421 0.680023 1.16414 
v 0.588843 0.745688 1.35209 
v 0.55394 0.612102 1.28 
v 0.535161 0.813444 1.08383 
v 0.504333 -1.31725 -0.0876023 
v 0.069486 -1.31725 -0.0449934 
v 0.106669 -1.16969 -0.0160321 
v 0.47348 -1.16969 -0.0519751 
v -0.49482 -1.31725 -0.0819647 
v -0.0964305 -1.16969 -0.0145479 
v -0.0595522 -1.31725 -0.0438946 
v -0.463596 -1.16969 -0.0466607 
v 0.499491 -1.00389 0.289928 
v 0.147518 -1.00389 0.324417 
v 0.14079 -1.16969 0.332187 
v 0.5076 -1.16969 0.296244 
v -0.486039 -1.00389 0.295495 
v -0.126917 -1.16969 0.334009 
v -0.133726 -1.00389 0.326309 
v -0.494082 -1.16969 0.301895 
v -0.159606 0.111418 -0.720444 
v -0.00181338 0.550816 -1.38475 
v 0.15673 0.112747 -0.721187 
v 0.402667 0.634638 1.31258 
v 0.437134 0.768287 1.38475 
v 0.381066 0.702935 1.19606 
v 0.383371 0.836419 1.11584 
v -0.406748 0.651389 1.30438 
v -0.385146 0.719686 1.18787 
v -0.441215 0.785038 1.37656 
v -0.387451 0.85317 1.10765 
v 0.5076 -1.16969 0.296244 
v 0.14079 -1.16969 0.332187 
v 0.109936 -1.31725 0.367814 
v 0.544783 -1.31725 0.325205 
v -0.494082 -1.16969 0.301895 
v -0.0956925 -1.31725 0.369313 
v -0.126917 -1.16969 0.334009 
v -0.53096 -1.31725 0.331243 
v -0.133726 -1.00389 0.886208 
v -0.0964305 -1.16969 0.545351 
v -0.104474 -1.00389 0.551752 
v -0.126917 -1.16969 0.893908 
v 0.147518 -1.00389 0.884316 
v 0.106669 -1.16969 0.543867 
v 0.14079 -1.16969 0.892086 
v 0.114778 -1.00389 0.550183 
v -0.133726 -1.00389 0.326309 
v -0.0964305 -1.16969 -0.0145479 
v -0.104473 -1.00389 -0.0081474 
v -0.126917 -1.16969 0.334009 
v 0.147518 -1.00389 0.324417 
v 0.106669 -1.16969 -0.0160321 
v 0.14079 -1.16969 0.332187 
v 0.114778 -1.00389 -0.00971637 
v -0.536501 0.696774 1.15595 
v -0.539242 0.830195 1.07564 
v -0.376996 0.495492 0.92332 
v -0.387451 0.85317 1.10765 
v -0.376996 0.495492 0.92332 
v -0.539242 0.830195 1.07564 
v 0.532421 0.680023 1.16414 
v 0.372916 0.478741 0.931512 
v 0.535161 0.813444 1.08383 
v 0.383371 0.836419 1.11584 
v 0.535161 0.813444 1.08383 
v 0.372916 0.478741 0.931512 
v -0.133726 -1.00389 -0.251185 
v -0.0964304 -1.16969 -0.592042 
v -0.104473 -1.00389 -0.585642 
v -0.126916 -1.16969 -0.243486 
v 0.147518 -1.00389 -0.253078 
v 0.106669 -1.16969 -0.593527 
v 0.14079 -1.16969 -0.245308 
v 0.114778 -0.977467 -0.587211 
v -0.126917 -1.16969 0.893908 
v -0.0595523 -1.31725 0.516005 
v -0.0964305 -1.16969 0.545351 
v -0.0956926 -1.31725 0.929212 
v 0.14079 -1.16969 0.892086 
v 0.069486 -1.31725 0.514906 
v 0.109936 -1.31725 0.927713 
v 0.106669 -1.16969 0.543867 
v -0.126917 -1.16969 0.334009 
v -0.0595522 -1.31725 -0.0438946 
v -0.0964305 -1.16969 -0.0145479 
v -0.0956925 -1.31725 0.369313 
v 0.14079 -1.16969 0.332187 
v 0.069486 -1.31725 -0.0449934 
v 0.109936 -1.31725 0.367814 
v 0.106669 -1.16969 -0.0160321 
v 0.381066 0.702935 1.19606 
v 0.372916 0.478741 0.931512 
v 0.532421 0.680023 1.16414 
v -0.385146 0.719686 1.18787 
v -0.536501 0.696774 1.15595 
v -0.376996 0.495492 0.92332 
v 0.473479 -1.16969 0.507924 
v 0.106669 -1.16969 0.543867 
v 0.114778 -1.00389 0.550183 
v 0.46675 -1.00389 0.515694 
v -0.126916 -1.16969 -0.243486 
v -0.0595522 -1.31725 -0.621389 
v -0.0964304 -1.16969 -0.592042 
v -0.0956925 -1.31725 -0.208182 
v -0.463596 -1.16969 0.513238 
v -0.104474 -1.00389 0.551752 
v -0.0964305 -1.16969 0.545351 
v -0.456787 -1.00389 0.520937 
v 0.14079 -1.16969 -0.245308 
v 0.0694861 -1.31725 -0.622488 
v 0.109936 -1.31725 -0.20968 
v 0.106669 -1.16969 -0.593527 
v 0.381066 0.702935 1.19606 
v 0.383371 0.836419 1.11584 
v 0.372916 0.478741 0.931512 
v -0.385146 0.719686 1.18787 
v -0.376996 0.495492 0.92332 
v -0.387451 0.85317 1.10765 
v 0.504333 -1.31725 0.472297 
v 0.069486 -1.31725 0.514906 
v 0.106669 -1.16969 0.543867 
v 0.473479 -1.16969 0.507924 
v -0.49482 -1.31725 0.477934 
v -0.0964305 -1.16969 0.545351 
v -0.0595523 -1.31725 0.516005 
v -0.463596 -1.16969 0.513238 
v 0.499491 -1.00389 -0.287566 
v 0.147518 -1.00389 -0.253078 
v 0.14079 -1.16969 -0.245308 
v 0.5076 -1.16969 -0.281251 
v -0.486039 -1.00389 -0.281999 
v -0.126916 -1.16969 -0.243486 
v -0.133726 -1.00389 -0.251185 
v -0.494082 -1.16969 -0.275599 
v -0.0140012 0.420358 0.149104 
v -0.230931 0.676568 0.505873 
v -0.234985 0.681356 -0.199082 
v -0.441317 0.925049 -0.366047 
v -0.435365 0.918021 0.681418 
v -0.665467 1.18979 0.502978 
v -0.668443 1.1933 -0.187606 
v -0.767178 1.31196 0.158731 
v 0.00992121 0.420358 0.149104 
v 0.230905 0.681356 -0.199082 
v 0.226851 0.676568 0.505873 
v 0.437237 0.925049 -0.366047 
v 0.431285 0.918021 0.681418 
v 0.661387 1.18979 0.502978 
v 0.664363 1.1933 -0.187606 
v 0.763098 1.31196 0.158731 
v 0.5076 -1.16969 -0.281251 
v 0.14079 -1.16969 -0.245308 
v 0.109936 -1.31725 -0.20968 
v 0.544783 -1.31725 -0.252289 
v -0.494082 -1.16969 -0.275599 
v -0.0956925 -1.31725 -0.208182 
v -0.126916 -1.16969 -0.243486 
v -0.53096 -1.31725 -0.246252 
v 0.55394 0.612102 1.28 
v 0.381066 0.702935 1.19606 
v 0.532421 0.680023 1.16414 
v 0.402667 0.634638 1.31258 
v -0.558021 0.628853 1.27181 
v -0.385146 0.719686 1.18787 
v -0.406748 0.651389 1.30438 
v -0.536501 0.696774 1.15595 

vn -0.188976 0.96063 0.204724 
vn -0.188976 0.96063 0.204724 
vn -0.188976 0.96063 0.204724 
vn -0.188976 0.96063 0.204724 
vn 0.188976 0.96063 0.204724 
vn 0.188976 0.96063 0.204724 
vn 0.188976 0.96063 0.204724 
vn 0.188976 0.96063 0.204724 
vn 0 0 -1 
vn 0 0 -1 
vn 0 0 -1 
vn 0 0 -1 
vn 0 0 -1 
vn 0 0 -1 
vn 0 0 -1 
vn 0 0 -1 
vn 0 0 -1 
vn 0 0 -1 
vn 0.015748 0.992126 -0.141732 
vn 0.0314961 0.992126 -0.141732 
vn 0.00787402 1 -0.0551181 
vn 0.00787402 1 -0.0472441 
vn 0.0314961 0.992126 -0.141732 
vn 0.0472441 0.992126 -0.141732 
vn 0.015748 1 -0.0629921 
vn 0.00787402 1 -0.0551181 
vn 0.015748 1 -0.0629921 
vn -0.015748 1 0.0314961 
vn 0.00787402 1 -0.0551181 
vn -0.00787402 1 0.0314961 
vn 0.00787402 1 -0.0551181 
vn -0.00787402 1 0.0314961 
vn 0.00787402 1 -0.0472441 
vn 0.00787402 1 0.0393701 
vn -1 0 -0.0393701 
vn -1 -0.015748 -0.023622 
vn -1 -0.0314961 -0.0393701 
vn -1 0 -0.00787402 
vn -1 0 -0.0393701 
vn -1 0 -0.015748 
vn -1 0.023622 -0.0314961 
vn 1 -0.00787402 -0.0393701 
vn 1 0 -0.0551181 
vn 1 -0.023622 -0.0551181 
vn 1 0 -0.023622 
vn 1 0 -0.00787402 
vn 1 0.00787402 0.00787402 
vn 1 0 0 
vn 1 0.023622 0 
vn 1 0 -0.023622 
vn 1 -0.015748 0 
vn 1 0 -0.023622 
vn 1 0 -0.0551181 
vn 1 0.015748 -0.0551181 
vn -1 -0.015748 -0.023622 
vn -1 0 -0.00787402 
vn -1 0 0 
vn -1 0.015748 0.00787402 
vn -1 0 -0.00787402 
vn -1 0 0 
vn -1 0.023622 0 
vn -1 0.015748 0.00787402 
vn -1 0 0 
vn -1 0 -0.00787402 
vn -1 0 -0.015748 
vn -1 0 0 
vn -1 0 -0.00787402 
vn -1 -0.015748 0 
vn 0 -1 0 
vn 0 -1 0 
vn 0 -1 0 
vn 0 -1 0 
vn 0 -1 0 
vn 0 -1 0 
vn 0 -1 0 
vn 0 -1 0 
vn 0 -1 0 
vn 0 -1 0 
vn 0 -1 0 
vn 0 -1 0 
vn 0 -1 0 
vn 0 -1 0 
vn 0 -1 0 
vn 0 -1 0 
vn 0 -1 0 
vn 0 -1 0 
vn 0 -1 0 
vn 0 -1 0 
vn 0 -1 0 
vn 0 -1 0 
vn 0 -1 0 
vn 0 -1 0 
vn -0.0944882 0.125984 -0.984252 
vn -0.0944882 0.125984 -0.984252 
vn -0.0944882 0.0393701 -0.992126 
vn -0.0944882 0.0393701 -0.992126 
vn 0.0866142 0.125984 -0.984252 
vn 0.0866142 0.0393701 -0.992126 
vn 0.0866142 0.125984 -0.984252 
vn 0.0866142 0.0393701 -0.992126 
vn 0 0 1 
vn 0 0 1 
vn 0 0 1 
vn 0 0 1 
vn 0 0 1 
vn 0 0 1 
vn 0 0 1 
vn 0 0 1 
vn 0 0 1 
vn 0 0 1 
vn 0 0.984252 0.181102 
vn 0 0.984252 0.181102 
vn 0 0.984252 0.181102 
vn -0.0944882 0.212598 -0.968504 
vn -0.0944882 0.212598 -0.968504 
vn -0.0944882 0.125984 -0.984252 
vn -0.0944882 0.125984 -0.984252 
vn 0.0866142 0.212598 -0.976378 
vn 0.0866142 0.125984 -0.984252 
vn 0.0866142 0.212598 -0.976378 
vn 0.0866142 0.125984 -0.984252 
vn 0.0944882 0.0393701 0.992126 
vn 0.0944882 0.0393701 0.992126 
vn 0.0944882 0.125984 0.984252 
vn 0.0944882 0.125984 0.984252 
vn -0.0866142 0.0393701 0.992126 
vn -0.0866142 0.125984 0.984252 
vn -0.0866142 0.0393701 0.992126 
vn -0.0866142 0.125984 0.984252 
vn -0.76378 0.645669 0 
vn -0.76378 0.645669 0 
vn -0.76378 0.645669 0 
vn -0.76378 0.645669 0 
vn -0.76378 0.645669 0 
vn -0.76378 0.645669 0 
vn -0.76378 0.645669 0 
vn -0.771654 0.637795 0 
vn -0.00787402 -1 0.0551181 
vn 0.00787402 -1 0.0551181 
vn -0.00787402 -1 0.0708661 
vn 0.015748 -1 0.0787402 
vn 0.00787402 -1 -0.015748 
vn 0 -1 -0.023622 
vn -0.00787402 -1 0.0708661 
vn -0.023622 -1 0.0551181 
vn -0.015748 -1 0.0472441 
vn 0 -1 -0.023622 
vn 0.00787402 -0.992126 -0.141732 
vn 0.00787402 -0.984252 -0.15748 
vn 0.015748 -0.992126 -0.125984 
vn 0.00787402 -1 -0.015748 
vn 0.00787402 -0.976378 -0.204724 
vn 0 -0.976378 -0.228346 
vn 0.023622 -0.984252 -0.188976 
vn 0.00787402 -0.992126 -0.141732 
vn 0.015748 -0.992126 -0.125984 
vn 0.76378 0.645669 0 
vn 0.76378 0.645669 0 
vn 0.76378 0.645669 0 
vn 0.76378 0.645669 0 
vn 0.76378 0.645669 0 
vn 0.76378 0.645669 0 
vn 0.76378 0.645669 0 
vn 0.771654 0.637795 0 
vn 0.992126 0.0472441 -0.0944882 
vn 0.984252 0.133858 -0.0944882 
vn 0.992126 0.0472441 -0.0944882 
vn 0.984252 0.133858 -0.0944882 
vn -0.984252 0.133858 -0.0866142 
vn -0.992126 0.0472441 -0.0866142 
vn -0.984252 0.133858 -0.0866142 
vn -0.992126 0.0472441 -0.0866142 
vn -0.0866142 0.125984 0.984252 
vn -0.0866142 0.212598 0.976378 
vn -0.0866142 0.125984 0.984252 
vn -0.0866142 0.212598 0.976378 
vn 0.0944882 0.125984 0.984252 
vn 0.0944882 0.125984 0.984252 
vn 0.0944882 0.212598 0.968504 
vn 0.0944882 0.212598 0.968504 
vn 0.992126 0.0472441 -0.0944882 
vn 0.992126 0.0472441 -0.0944882 
vn 0.984252 0.133858 -0.0944882 
vn 0.984252 0.133858 -0.0944882 
vn -0.984252 0.133858 -0.0866142 
vn -0.992126 0.0472441 -0.0866142 
vn -0.984252 0.133858 -0.0866142 
vn -0.992126 0.0472441 -0.0866142 
vn 0.992126 0.0472441 -0.0944882 
vn 0.992126 0.0472441 -0.0944882 
vn 0.984252 0.133858 -0.0944882 
vn 0.984252 0.133858 -0.0944882 
vn -0.984252 0.133858 -0.0866142 
vn -0.992126 0.0472441 -0.0866142 
vn -0.984252 0.133858 -0.0866142 
vn -0.992126 0.0472441 -0.0866142 
vn 0.110236 -0.496063 0.866142 
vn 0.110236 -0.496063 0.866142 
vn 0.110236 -0.496063 0.866142 
vn 0.110236 -0.496063 0.866142 
vn 0.984252 0.133858 -0.0944882 
vn 0.984252 0.133858 -0.0944882 
vn 0.968504 0.228346 -0.0944882 
vn 0.968504 0.228346 -0.0944882 
vn -0.976378 0.00787402 -0.228346 
vn -0.976378 0.00787402 -0.228346 
vn -0.976378 0.00787402 -0.228346 
vn -0.110236 -0.496063 0.866142 
vn -0.110236 -0.496063 0.866142 
vn -0.110236 -0.496063 0.866142 
vn -0.110236 -0.496063 0.866142 
vn 0.976378 0.00787402 -0.228346 
vn 0.976378 0.00787402 -0.228346 
vn 0.976378 0.00787402 -0.228346 
vn -0.968504 0.228346 -0.0866142 
vn -0.984252 0.133858 -0.0866142 
vn -0.968504 0.228346 -0.0866142 
vn -0.984252 0.133858 -0.0866142 
vn 0.984252 0.133858 -0.0944882 
vn 0.984252 0.133858 -0.0944882 
vn 0.968504 0.228346 -0.0944882 
vn 0.968504 0.228346 -0.0944882 
vn -0.968504 0.228346 -0.0866142 
vn -0.984252 0.133858 -0.0866142 
vn -0.968504 0.228346 -0.0866142 
vn -0.984252 0.133858 -0.0866142 
vn 0.984252 0.133858 -0.0944882 
vn 0.984252 0.133858 -0.0944882 
vn 0.968504 0.228346 -0.0944882 
vn 0.968504 0.228346 -0.0944882 
vn -0.968504 0.228346 -0.0866142 
vn -0.984252 0.133858 -0.0866142 
vn -0.968504 0.228346 -0.0866142 
vn -0.984252 0.133858 -0.0866142 
vn -0.0944882 0.125984 -0.984252 
vn -0.0944882 0.125984 -0.984252 
vn -0.0944882 0.0393701 -0.992126 
vn -0.0944882 0.0393701 -0.992126 
vn 0.0866142 0.125984 -0.984252 
vn 0.0866142 0.0393701 -0.992126 
vn 0.0866142 0.125984 -0.984252 
vn 0.0866142 0.0393701 -0.992126 
vn -0.96063 -0.141732 -0.23622 
vn -0.929134 -0.19685 -0.314961 
vn -0.96063 -0.141732 -0.23622 
vn -0.929134 -0.19685 -0.314961 
vn 0.929134 -0.19685 -0.314961 
vn 0.96063 -0.141732 -0.23622 
vn 0.96063 -0.141732 -0.23622 
vn 0.929134 -0.19685 -0.314961 
vn -0.0944882 0.212598 -0.968504 
vn -0.0944882 0.212598 -0.968504 
vn -0.0944882 0.125984 -0.984252 
vn -0.0944882 0.125984 -0.984252 
vn 0.0866142 0.212598 -0.976378 
vn 0.0866142 0.125984 -0.984252 
vn 0.0866142 0.212598 -0.976378 
vn 0.0866142 0.125984 -0.984252 
vn 0.0944882 0.0393701 0.992126 
vn 0.0944882 0.0393701 0.992126 
vn 0.0944882 0.125984 0.984252 
vn 0.0944882 0.125984 0.984252 
vn -0.0866142 0.0393701 0.992126 
vn -0.0866142 0.125984 0.984252 
vn -0.0866142 0.0393701 0.992126 
vn -0.0866142 0.125984 0.984252 
vn 0 -0.834646 -0.551181 
vn 0 -0.834646 -0.551181 
vn 0 -0.834646 -0.551181 
vn -0.96063 0.141732 0.23622 
vn -0.96063 0.141732 0.23622 
vn -0.992126 0.0787402 0.125984 
vn -0.992126 0.0787402 0.125984 
vn 0.96063 0.141732 0.23622 
vn 0.992126 0.0787402 0.125984 
vn 0.96063 0.141732 0.23622 
vn 0.992126 0.0787402 0.125984 
vn 0.0944882 0.125984 0.984252 
vn 0.0944882 0.125984 0.984252 
vn 0.0944882 0.212598 0.968504 
vn 0.0944882 0.212598 0.968504 
vn -0.0866142 0.125984 0.984252 
vn -0.0866142 0.212598 0.976378 
vn -0.0866142 0.125984 0.984252 
vn -0.0866142 0.212598 0.976378 
vn 0.992126 0.0472441 0.0866142 
vn 0.984252 0.133858 0.0866142 
vn 0.992126 0.0472441 0.0866142 
vn 0.984252 0.133858 0.0866142 
vn -0.992126 0.0472441 0.0944882 
vn -0.984252 0.133858 0.0944882 
vn -0.984252 0.133858 0.0944882 
vn -0.992126 0.0472441 0.0944882 
vn 0.992126 0.0472441 0.0866142 
vn 0.984252 0.133858 0.0866142 
vn 0.992126 0.0472441 0.0866142 
vn 0.984252 0.133858 0.0866142 
vn -0.992126 0.0472441 0.0944882 
vn -0.984252 0.133858 0.0944882 
vn -0.984252 0.133858 0.0944882 
vn -0.992126 0.0472441 0.0944882 
vn -0.929134 -0.19685 -0.314961 
vn -0.929134 -0.19685 -0.314961 
vn -0.88189 -0.251969 -0.385827 
vn 0.11811 0.456693 -0.88189 
vn 0.11811 0.456693 -0.88189 
vn 0.11811 0.456693 -0.88189 
vn 0.929134 -0.19685 -0.314961 
vn 0.88189 -0.251969 -0.385827 
vn 0.929134 -0.19685 -0.314961 
vn -0.11811 0.456693 -0.88189 
vn -0.11811 0.456693 -0.88189 
vn -0.11811 0.456693 -0.88189 
vn 0.992126 0.0472441 0.0866142 
vn 0.984252 0.133858 0.0866142 
vn 0.992126 0.0472441 0.0866142 
vn 0.984252 0.133858 0.0866142 
vn -0.992126 0.0393701 0.102362 
vn -0.984252 0.133858 0.0944882 
vn -0.984252 0.133858 0.0944882 
vn -0.992126 0.0393701 0.102362 
vn 0.984252 0.133858 0.0866142 
vn 0.968504 0.228346 0.0866142 
vn 0.984252 0.133858 0.0866142 
vn 0.968504 0.228346 0.0866142 
vn -0.984252 0.133858 0.0944882 
vn -0.968504 0.228346 0.0944882 
vn -0.968504 0.228346 0.0944882 
vn -0.984252 0.133858 0.0944882 
vn 0.984252 0.133858 0.0866142 
vn 0.968504 0.228346 0.0866142 
vn 0.984252 0.133858 0.0866142 
vn 0.968504 0.228346 0.0866142 
vn -0.984252 0.133858 0.0944882 
vn -0.968504 0.228346 0.0944882 
vn -0.968504 0.228346 0.0944882 
vn -0.984252 0.133858 0.0944882 
vn 0.023622 -0.76378 0.645669 
vn 0.023622 -0.76378 0.645669 
vn 0.023622 -0.76378 0.645669 
vn -0.023622 -0.76378 0.645669 
vn -0.023622 -0.76378 0.645669 
vn -0.023622 -0.76378 0.645669 
vn -0.0944882 0.125984 -0.984252 
vn -0.0944882 0.125984 -0.984252 
vn -0.0944882 0.0393701 -0.992126 
vn -0.0944882 0.0393701 -0.992126 
vn 0.984252 0.133858 0.0866142 
vn 0.968504 0.228346 0.0866142 
vn 0.984252 0.133858 0.0866142 
vn 0.968504 0.228346 0.0866142 
vn 0.0866142 0.125984 -0.984252 
vn 0.0866142 0.0393701 -0.992126 
vn 0.0866142 0.125984 -0.984252 
vn 0.0866142 0.0393701 -0.992126 
vn -0.984252 0.133858 0.0944882 
vn -0.968504 0.228346 0.0944882 
vn -0.968504 0.228346 0.0944882 
vn -0.984252 0.133858 0.0944882 
vn -0.992126 0.0787402 0.125984 
vn -0.992126 0.0787402 0.125984 
vn -1 0.023622 0.00787402 
vn 0.992126 0.0787402 0.125984 
vn 1 0.023622 0.00787402 
vn 0.992126 0.0787402 0.125984 
vn -0.0944882 0.212598 -0.968504 
vn -0.0944882 0.212598 -0.968504 
vn -0.0944882 0.125984 -0.984252 
vn -0.0944882 0.125984 -0.984252 
vn 0.0866142 0.212598 -0.976378 
vn 0.0866142 0.125984 -0.984252 
vn 0.0866142 0.212598 -0.976378 
vn 0.0866142 0.125984 -0.984252 
vn 0.0944882 0.0393701 0.992126 
vn 0.0944882 0.0393701 0.992126 
vn 0.0944882 0.125984 0.984252 
vn 0.0944882 0.125984 0.984252 
vn -0.0866142 0.0393701 0.992126 
vn -0.0866142 0.125984 0.984252 
vn -0.0866142 0.0393701 0.992126 
vn -0.0866142 0.125984 0.984252 
vn -0.76378 -0.645669 0 
vn -0.76378 -0.645669 0 
vn -0.76378 -0.645669 0 
vn -0.76378 -0.645669 0 
vn -0.76378 -0.645669 0 
vn -0.76378 -0.645669 0 
vn -0.76378 -0.645669 0 
vn -0.771654 -0.637795 0 
vn 0.76378 -0.645669 0 
vn 0.76378 -0.645669 0 
vn 0.76378 -0.645669 0 
vn 0.76378 -0.645669 0 
vn 0.76378 -0.645669 0 
vn 0.76378 -0.645669 0 
vn 0.76378 -0.645669 0 
vn 0.771654 -0.637795 0 
vn 0.0944882 0.125984 0.984252 
vn 0.0944882 0.125984 0.984252 
vn 0.0944882 0.212598 0.968504 
vn 0.0944882 0.212598 0.968504 
vn -0.0866142 0.125984 0.984252 
vn -0.0866142 0.212598 0.976378 
vn -0.0866142 0.125984 0.984252 
vn -0.0866142 0.212598 0.976378 
vn -0.228346 -0.858268 -0.456693 
vn -0.228346 -0.858268 -0.456693 
vn -0.228346 -0.858268 -0.456693 
vn -0.228346 -0.858268 -0.456693 
vn 0.228346 -0.858268 -0.456693 
vn 0.228346 -0.858268 -0.456693 
vn 0.228346 -0.858268 -0.456693 
vn 0.228346 -0.858268 -0.456693 

vt 0.674006 0.538302 
vt 0.740499 0.589476 
vt 0.742198 0.533544 
vt 0.675937 0.580783 
vt 0.674006 0.538302 
vt 0.740499 0.589476 
vt 0.675937 0.580783 
vt 0.742198 0.533544 
vt 0.707272 0.182523 
vt 0.851696 0.019612 
vt 0.989469 0.182357 
vt 0.992848 0.014168 
vt 0.851785 0.345268 
vt 0.710056 0.349963 
vt 0.992703 0.350493 
vt 0.851696 0.019612 
vt 0.707272 0.182523 
vt 0.709917 0.015226 
vt 0.362213 0.330025 
vt 0.356964 0.496741 
vt 0.205935 0.491441 
vt 0.169237 0.320271 
vt 0.356964 0.496741 
vt 0.352497 0.665405 
vt 0.245218 0.659681 
vt 0.205935 0.491441 
vt 0.245218 0.659681 
vt 0.013892 0.658002 
vt 0.205935 0.491441 
vt 0.017666 0.48936 
vt 0.205935 0.491441 
vt 0.017666 0.48936 
vt 0.169237 0.320271 
vt 0.017859 0.323063 
vt 0.355903 0.171636 
vt 0.254673 0.012641 
vt 0.351848 0.017046 
vt 0.165985 0.169129 
vt 0.355903 0.171636 
vt 0.169237 0.320271 
vt 0.362213 0.330025 
vt 0.397846 0.673877 
vt 0.346529 0.832637 
vt 0.344713 0.681478 
vt 0.449497 0.823507 
vt 0.448657 0.671748 
vt 0.583687 0.679008 
vt 0.676623 0.83742 
vt 0.676495 0.697699 
vt 0.448501 0.969291 
vt 0.676366 0.976576 
vt 0.448501 0.969291 
vt 0.346529 0.832637 
vt 0.343084 0.981174 
vt 0.254673 0.012641 
vt 0.165985 0.169129 
vt 0.162319 0.013066 
vt 0.080291 0.022033 
vt 0.165985 0.169129 
vt 0.018462 0.183941 
vt 0.014968 0.042101 
vt 0.080291 0.022033 
vt 0.162319 0.013066 
vt 0.165985 0.169129 
vt 0.169237 0.320271 
vt 0.018462 0.183941 
vt 0.165985 0.169129 
vt 0.017859 0.323063 
vt 0.901369 0.916183 
vt 0.813021 0.84004 
vt 0.893507 0.833102 
vt 0.821116 0.925618 
vt 0.893507 0.833102 
vt 0.821116 0.925618 
vt 0.901369 0.916183 
vt 0.813044 0.840236 
vt 0.901369 0.916183 
vt 0.813021 0.84004 
vt 0.893507 0.833102 
vt 0.821116 0.925618 
vt 0.901369 0.916183 
vt 0.813021 0.84004 
vt 0.893507 0.833102 
vt 0.821116 0.925618 
vt 0.893507 0.833102 
vt 0.821116 0.925618 
vt 0.901369 0.916183 
vt 0.813044 0.840236 
vt 0.893507 0.833102 
vt 0.821116 0.925618 
vt 0.901369 0.916183 
vt 0.813044 0.840236 
vt 0.933036 0.765791 
vt 0.962256 0.697477 
vt 0.991562 0.710431 
vt 0.964389 0.773823 
vt 0.933036 0.765791 
vt 0.991562 0.710431 
vt 0.962256 0.697477 
vt 0.964389 0.773823 
vt 0.012897 0.679013 
vt 0.178442 0.674551 
vt 0.005605 0.830667 
vt 0.176674 0.990373 
vt 0.011072 0.988099 
vt 0.344713 0.681478 
vt 0.346529 0.832637 
vt 0.346529 0.832637 
vt 0.176674 0.990373 
vt 0.343084 0.981174 
vt 0.520063 0.366846 
vt 0.601497 0.365736 
vt 0.563583 0.542181 
vt 0.904609 0.757308 
vt 0.937923 0.679496 
vt 0.962256 0.697477 
vt 0.933036 0.765791 
vt 0.904609 0.757308 
vt 0.962256 0.697477 
vt 0.937923 0.679496 
vt 0.933036 0.765791 
vt 0.955391 0.834961 
vt 0.962322 0.902212 
vt 0.930436 0.908734 
vt 0.923212 0.834514 
vt 0.955391 0.834961 
vt 0.930436 0.908734 
vt 0.962322 0.902212 
vt 0.923212 0.834514 
vt 0.456703 0.456599 
vt 0.518282 0.514544 
vt 0.396605 0.515627 
vt 0.367787 0.57074 
vt 0.548581 0.569151 
vt 0.517782 0.630613 
vt 0.398586 0.631408 
vt 0.458364 0.658051 
vt 0.446358 0.183287 
vt 0.425227 0.34988 
vt 0.37072 0.183478 
vt 0.371095 0.351656 
vt 0.47667 0.348276 
vt 0.518679 0.183061 
vt 0.37072 0.183478 
vt 0.370517 0.015319 
vt 0.467107 0.016848 
vt 0.559311 0.018068 
vt 0.626817 0.182752 
vt 0.64196 0.016368 
vt 0.613751 0.349159 
vt 0.47667 0.348276 
vt 0.707272 0.182523 
vt 0.709917 0.015226 
vt 0.710056 0.349963 
vt 0.626817 0.182752 
vt 0.613751 0.349159 
vt 0.456703 0.456599 
vt 0.396605 0.515627 
vt 0.518282 0.514544 
vt 0.367787 0.57074 
vt 0.548581 0.569151 
vt 0.517782 0.630613 
vt 0.398586 0.631408 
vt 0.458364 0.658051 
vt 0.955391 0.834961 
vt 0.933036 0.765791 
vt 0.964389 0.773823 
vt 0.923212 0.834514 
vt 0.923212 0.834514 
vt 0.964389 0.773823 
vt 0.933036 0.765791 
vt 0.955391 0.834961 
vt 0.923212 0.834514 
vt 0.901369 0.916183 
vt 0.930436 0.908734 
vt 0.893507 0.833102 
vt 0.923212 0.834514 
vt 0.930436 0.908734 
vt 0.901369 0.916183 
vt 0.893507 0.833102 
vt 0.964389 0.773823 
vt 0.955391 0.834961 
vt 0.923212 0.834514 
vt 0.933036 0.765791 
vt 0.923212 0.834514 
vt 0.964389 0.773823 
vt 0.933036 0.765791 
vt 0.955391 0.834961 
vt 0.964389 0.773823 
vt 0.955391 0.834961 
vt 0.923212 0.834514 
vt 0.933036 0.765791 
vt 0.923212 0.834514 
vt 0.964389 0.773823 
vt 0.933036 0.765791 
vt 0.955391 0.834961 
vt 0.742198 0.533544 
vt 0.790771 0.587763 
vt 0.740499 0.589476 
vt 0.790694 0.53721 
vt 0.933036 0.765791 
vt 0.923212 0.834514 
vt 0.893507 0.833102 
vt 0.904609 0.757308 
vt 0.520063 0.366846 
vt 0.563583 0.542181 
vt 0.439211 0.373421 
vt 0.742198 0.533544 
vt 0.740499 0.589476 
vt 0.790771 0.587763 
vt 0.790694 0.53721 
vt 0.601497 0.365736 
vt 0.682509 0.36991 
vt 0.563583 0.542181 
vt 0.893507 0.833102 
vt 0.933036 0.765791 
vt 0.904609 0.757308 
vt 0.923212 0.834514 
vt 0.933036 0.765791 
vt 0.923212 0.834514 
vt 0.893507 0.833102 
vt 0.904609 0.757308 
vt 0.893507 0.833102 
vt 0.933036 0.765791 
vt 0.904609 0.757308 
vt 0.923212 0.834514 
vt 0.933036 0.765791 
vt 0.923212 0.834514 
vt 0.893507 0.833102 
vt 0.904609 0.757308 
vt 0.893507 0.833102 
vt 0.933036 0.765791 
vt 0.904609 0.757308 
vt 0.923212 0.834514 
vt 0.933036 0.765791 
vt 0.962256 0.697477 
vt 0.991562 0.710431 
vt 0.964389 0.773823 
vt 0.933036 0.765791 
vt 0.991562 0.710431 
vt 0.962256 0.697477 
vt 0.964389 0.773823 
vt 0.740499 0.589476 
vt 0.67108 0.616166 
vt 0.709662 0.636314 
vt 0.675937 0.580783 
vt 0.67108 0.616166 
vt 0.740499 0.589476 
vt 0.709662 0.636314 
vt 0.675937 0.580783 
vt 0.904609 0.757308 
vt 0.937923 0.679496 
vt 0.962256 0.697477 
vt 0.933036 0.765791 
vt 0.904609 0.757308 
vt 0.962256 0.697477 
vt 0.937923 0.679496 
vt 0.933036 0.765791 
vt 0.955391 0.834961 
vt 0.962322 0.902212 
vt 0.930436 0.908734 
vt 0.923212 0.834514 
vt 0.955391 0.834961 
vt 0.930436 0.908734 
vt 0.962322 0.902212 
vt 0.923212 0.834514 
vt 0.739603 0.428315 
vt 0.563583 0.542181 
vt 0.682509 0.36991 
vt 0.713642 0.486658 
vt 0.742198 0.533544 
vt 0.669777 0.503931 
vt 0.674006 0.538302 
vt 0.713642 0.486658 
vt 0.669777 0.503931 
vt 0.742198 0.533544 
vt 0.674006 0.538302 
vt 0.923212 0.834514 
vt 0.930436 0.908734 
vt 0.901369 0.916183 
vt 0.893507 0.833102 
vt 0.923212 0.834514 
vt 0.901369 0.916183 
vt 0.930436 0.908734 
vt 0.893507 0.833102 
vt 0.962322 0.902212 
vt 0.953234 0.974424 
vt 0.983516 0.963033 
vt 0.930436 0.908734 
vt 0.962322 0.902212 
vt 0.953234 0.974424 
vt 0.930436 0.908734 
vt 0.983516 0.963033 
vt 0.962322 0.902212 
vt 0.953234 0.974424 
vt 0.983516 0.963033 
vt 0.930436 0.908734 
vt 0.962322 0.902212 
vt 0.953234 0.974424 
vt 0.930436 0.908734 
vt 0.983516 0.963033 
vt 0.67108 0.616166 
vt 0.675937 0.580783 
vt 0.565431 0.565686 
vt 0.674006 0.538302 
vt 0.565431 0.565686 
vt 0.675937 0.580783 
vt 0.67108 0.616166 
vt 0.565431 0.565686 
vt 0.675937 0.580783 
vt 0.674006 0.538302 
vt 0.675937 0.580783 
vt 0.565431 0.565686 
vt 0.962322 0.902212 
vt 0.953234 0.974424 
vt 0.983516 0.963033 
vt 0.930436 0.908734 
vt 0.962322 0.902212 
vt 0.953234 0.974424 
vt 0.930436 0.908734 
vt 0.983516 0.963033 
vt 0.930436 0.908734 
vt 0.928145 0.990732 
vt 0.953234 0.974424 
vt 0.901369 0.916183 
vt 0.930436 0.908734 
vt 0.928145 0.990732 
vt 0.901369 0.916183 
vt 0.953234 0.974424 
vt 0.930436 0.908734 
vt 0.928145 0.990732 
vt 0.953234 0.974424 
vt 0.901369 0.916183 
vt 0.930436 0.908734 
vt 0.928145 0.990732 
vt 0.901369 0.916183 
vt 0.953234 0.974424 
vt 0.641833 0.655596 
vt 0.565431 0.565686 
vt 0.67108 0.616166 
vt 0.641833 0.655596 
vt 0.67108 0.616166 
vt 0.565431 0.565686 
vt 0.933036 0.765791 
vt 0.962256 0.697477 
vt 0.991562 0.710431 
vt 0.964389 0.773823 
vt 0.930436 0.908734 
vt 0.928145 0.990732 
vt 0.953234 0.974424 
vt 0.901369 0.916183 
vt 0.933036 0.765791 
vt 0.991562 0.710431 
vt 0.962256 0.697477 
vt 0.964389 0.773823 
vt 0.930436 0.908734 
vt 0.928145 0.990732 
vt 0.901369 0.916183 
vt 0.953234 0.974424 
vt 0.669777 0.503931 
vt 0.674006 0.538302 
vt 0.565431 0.565686 
vt 0.669777 0.503931 
vt 0.565431 0.565686 
vt 0.674006 0.538302 
vt 0.904609 0.757308 
vt 0.937923 0.679496 
vt 0.962256 0.697477 
vt 0.933036 0.765791 
vt 0.904609 0.757308 
vt 0.962256 0.697477 
vt 0.937923 0.679496 
vt 0.933036 0.765791 
vt 0.955391 0.834961 
vt 0.962322 0.902212 
vt 0.930436 0.908734 
vt 0.923212 0.834514 
vt 0.955391 0.834961 
vt 0.930436 0.908734 
vt 0.962322 0.902212 
vt 0.923212 0.834514 
vt 0.456703 0.456599 
vt 0.518282 0.514544 
vt 0.396605 0.515627 
vt 0.367787 0.57074 
vt 0.548581 0.569151 
vt 0.517782 0.630613 
vt 0.398586 0.631408 
vt 0.458364 0.658051 
vt 0.456703 0.456599 
vt 0.396605 0.515627 
vt 0.518282 0.514544 
vt 0.367787 0.57074 
vt 0.548581 0.569151 
vt 0.517782 0.630613 
vt 0.398586 0.631408 
vt 0.458364 0.658051 
vt 0.923212 0.834514 
vt 0.930436 0.908734 
vt 0.901369 0.916183 
vt 0.893507 0.833102 
vt 0.923212 0.834514 
vt 0.901369 0.916183 
vt 0.930436 0.908734 
vt 0.893507 0.833102 
vt 0.709662 0.636314 
vt 0.641833 0.655596 
vt 0.67108 0.616166 
vt 0.68051 0.678451 
vt 0.709662 0.636314 
vt 0.641833 0.655596 
vt 0.68051 0.678451 
vt 0.67108 0.616166 

usemtl Pet1Mtl

f 1/1/1 2/2/2 3/3/3 
f 2/2/2 1/1/1 4/4/4 
f 5/5/5 6/6/6 7/7/7 
f 6/6/6 5/5/5 8/8/8 
f 9/9/9 10/10/10 11/11/11 
f 10/10/10 12/12/12 11/11/11 
f 13/13/13 9/9/9 11/11/11 
f 9/9/9 13/13/13 14/14/14 
f 13/13/13 11/11/11 15/15/15 
f 16/16/16 17/17/17 18/18/18 
f 19/19/19 20/20/20 21/21/21 
f 19/19/19 21/21/21 22/22/22 
f 23/23/23 24/24/24 25/25/25 
f 23/23/23 25/25/25 26/26/26 
f 27/27/27 28/28/28 29/29/29 
f 29/29/29 28/28/28 30/30/30 
f 31/31/31 32/32/32 33/33/33 
f 33/33/33 32/32/32 34/34/34 
f 35/35/35 36/36/36 37/37/37 
f 36/36/36 35/35/35 38/38/38 
f 39/39/39 40/40/40 38/38/38 
f 39/39/39 41/41/41 40/40/40 
f 42/42/42 43/43/43 44/44/44 
f 43/43/43 42/42/42 45/45/45 
f 42/42/42 46/46/46 45/45/45 
f 47/47/47 45/45/45 46/46/46 
f 45/45/45 47/47/47 48/48/48 
f 47/47/47 49/49/49 48/48/48 
f 45/45/45 48/48/48 50/50/50 
f 50/50/50 48/48/48 51/51/51 
f 52/52/52 53/53/53 45/45/45 
f 53/53/53 52/52/52 54/54/54 
f 55/55/55 56/56/56 57/57/57 
f 58/58/58 59/59/59 60/60/60 
f 58/58/58 60/60/60 61/61/61 
f 62/62/62 63/63/63 64/64/64 
f 65/65/65 66/66/66 67/67/67 
f 66/66/66 65/65/65 68/68/68 
f 69/69/69 70/70/70 71/71/71 
f 70/70/70 69/69/69 72/72/72 
f 73/73/73 74/74/74 75/75/75 
f 74/74/74 73/73/73 76/76/76 
f 77/77/77 78/78/78 79/79/79 
f 78/78/78 77/77/77 80/80/80 
f 81/81/81 82/82/82 83/83/83 
f 82/82/82 81/81/81 84/84/84 
f 85/85/85 86/86/86 87/87/87 
f 86/86/86 85/85/85 88/88/88 
f 89/89/89 90/90/90 91/91/91 
f 90/90/90 89/89/89 92/92/92 
f 93/93/93 94/94/94 95/95/95 
f 93/93/93 95/95/95 96/96/96 
f 97/97/97 98/98/98 99/99/99 
f 98/98/98 97/97/97 100/100/100 
f 101/101/101 102/102/102 103/103/103 
f 104/104/104 103/103/103 102/102/102 
f 103/103/103 104/104/104 105/105/105 
f 102/102/102 106/106/106 107/107/107 
f 108/108/108 109/109/109 102/102/102 
f 109/109/109 108/108/108 110/110/110 
f 111/111/111 112/112/112 113/113/113 
f 114/114/114 115/115/115 116/116/116 
f 114/114/114 116/116/116 117/117/117 
f 118/118/118 119/119/119 120/120/120 
f 119/119/119 118/118/118 121/121/121 
f 122/122/122 123/123/123 124/124/124 
f 122/122/122 124/124/124 125/125/125 
f 126/126/126 127/127/127 128/128/128 
f 127/127/127 126/126/126 129/129/129 
f 130/130/130 131/131/131 132/132/132 
f 131/131/131 133/133/133 132/132/132 
f 134/134/134 133/133/133 131/131/131 
f 135/135/135 133/133/133 134/134/134 
f 133/133/133 135/135/135 136/136/136 
f 136/136/136 135/135/135 137/137/137 
f 138/138/138 139/139/139 140/140/140 
f 141/141/141 140/140/140 139/139/139 
f 139/139/139 138/138/138 142/142/142 
f 143/143/143 142/142/142 138/138/138 
f 144/144/144 145/145/145 138/138/138 
f 146/146/146 138/138/138 145/145/145 
f 138/138/138 146/146/146 143/143/143 
f 147/147/147 143/143/143 146/146/146 
f 143/143/143 147/147/147 148/148/148 
f 149/149/149 148/148/148 147/147/147 
f 143/143/143 148/148/148 150/150/150 
f 151/151/151 143/143/143 150/150/150 
f 148/148/148 149/149/149 152/152/152 
f 153/153/153 152/152/152 149/149/149 
f 152/152/152 154/154/154 155/155/155 
f 156/156/156 155/155/155 154/154/154 
f 157/157/157 158/158/158 159/159/159 
f 160/160/160 159/159/159 158/158/158 
f 160/160/160 161/161/161 159/159/159 
f 161/161/161 160/160/160 162/162/162 
f 162/162/162 160/160/160 163/163/163 
f 163/163/163 164/164/164 162/162/162 
f 165/165/165 166/166/166 167/167/167 
f 166/166/166 165/165/165 168/168/168 
f 169/169/169 170/170/170 171/171/171 
f 170/170/170 169/169/169 172/172/172 
f 173/173/173 174/174/174 175/175/175 
f 174/174/174 173/173/173 176/176/176 
f 177/177/177 178/178/178 179/179/179 
f 179/179/179 180/180/180 177/177/177 
f 181/181/181 182/182/182 183/183/183 
f 183/183/183 184/184/184 181/181/181 
f 185/185/185 186/186/186 187/187/187 
f 186/186/186 185/185/185 188/188/188 
f 189/189/189 190/190/190 191/191/191 
f 191/191/191 192/192/192 189/189/189 
f 193/193/193 194/194/194 195/195/195 
f 194/194/194 193/193/193 196/196/196 
f 197/197/197 198/198/198 199/199/199 
f 198/198/198 197/197/197 200/200/200 
f 201/201/201 202/202/202 203/203/203 
f 203/203/203 204/204/204 201/201/201 
f 205/205/205 206/206/206 207/207/207 
f 208/208/208 209/209/209 210/210/210 
f 210/210/210 211/211/211 208/208/208 
f 212/212/212 213/213/213 214/214/214 
f 215/215/215 216/216/216 217/217/217 
f 216/216/216 215/215/215 218/218/218 
f 219/219/219 220/220/220 221/221/221 
f 221/221/221 222/222/222 219/219/219 
f 223/223/223 224/224/224 225/225/225 
f 224/224/224 223/223/223 226/226/226 
f 227/227/227 228/228/228 229/229/229 
f 229/229/229 230/230/230 227/227/227 
f 231/231/231 232/232/232 233/233/233 
f 232/232/232 231/231/231 234/234/234 
f 235/235/235 236/236/236 237/237/237 
f 235/235/235 237/237/237 238/238/238 
f 239/239/239 240/240/240 241/241/241 
f 240/240/240 239/239/239 242/242/242 
f 243/243/243 244/244/244 245/245/245 
f 244/244/244 243/243/243 246/246/246 
f 247/247/247 248/248/248 249/249/249 
f 248/248/248 247/247/247 250/250/250 
f 251/251/251 252/252/252 253/253/253 
f 251/251/251 253/253/253 254/254/254 
f 255/255/255 256/256/256 257/257/257 
f 256/256/256 255/255/255 258/258/258 
f 259/259/259 260/260/260 261/261/261 
f 259/259/259 261/261/261 262/262/262 
f 263/263/263 264/264/264 265/265/265 
f 264/264/264 263/263/263 266/266/266 
f 267/267/267 268/268/268 269/269/269 
f 270/270/270 271/271/271 272/272/272 
f 271/271/271 273/273/273 272/272/272 
f 274/274/274 275/275/275 276/276/276 
f 275/275/275 277/277/277 276/276/276 
f 278/278/278 279/279/279 280/280/280 
f 280/280/280 281/281/281 278/278/278 
f 282/282/282 283/283/283 284/284/284 
f 283/283/283 282/282/282 285/285/285 
f 286/286/286 287/287/287 288/288/288 
f 287/287/287 286/286/286 289/289/289 
f 290/290/290 291/291/291 292/292/292 
f 291/291/291 290/290/290 293/293/293 
f 294/294/294 295/295/295 296/296/296 
f 295/295/295 294/294/294 297/297/297 
f 298/298/298 299/299/299 300/300/300 
f 299/299/299 298/298/298 301/301/301 
f 302/302/302 303/303/303 304/304/304 
f 305/305/305 306/306/306 307/307/307 
f 308/308/308 309/309/309 310/310/310 
f 311/311/311 312/312/312 313/313/313 
f 314/314/314 315/315/315 316/316/316 
f 315/315/315 314/314/314 317/317/317 
f 318/318/318 319/319/319 320/320/320 
f 319/319/319 318/318/318 321/321/321 
f 322/322/322 323/323/323 324/324/324 
f 323/323/323 322/322/322 325/325/325 
f 326/326/326 327/327/327 328/328/328 
f 327/327/327 326/326/326 329/329/329 
f 330/330/330 331/331/331 332/332/332 
f 331/331/331 330/330/330 333/333/333 
f 334/334/334 335/335/335 336/336/336 
f 335/335/335 334/334/334 337/337/337 
f 338/338/338 339/339/339 340/340/340 
f 341/341/341 342/342/342 343/343/343 
f 344/344/344 345/345/345 346/346/346 
f 344/344/344 346/346/346 347/347/347 
f 348/348/348 349/349/349 350/350/350 
f 349/349/349 348/348/348 351/351/351 
f 352/352/352 353/353/353 354/354/354 
f 353/353/353 352/352/352 355/355/355 
f 356/356/356 357/357/357 358/358/358 
f 357/357/357 356/356/356 359/359/359 
f 360/360/360 361/361/361 362/362/362 
f 363/363/363 364/364/364 365/365/365 
f 366/366/366 367/367/367 368/368/368 
f 366/366/366 368/368/368 369/369/369 
f 370/370/370 371/371/371 372/372/372 
f 371/371/371 370/370/370 373/373/373 
f 374/374/374 375/375/375 376/376/376 
f 374/374/374 376/376/376 377/377/377 
f 378/378/378 379/379/379 380/380/380 
f 379/379/379 378/378/378 381/381/381 
f 382/382/382 383/383/383 384/384/384 
f 383/383/383 385/385/385 384/384/384 
f 386/386/386 385/385/385 383/383/383 
f 387/387/387 385/385/385 386/386/386 
f 385/385/385 387/387/387 388/388/388 
f 388/388/388 387/387/387 389/389/389 
f 390/390/390 391/391/391 392/392/392 
f 393/393/393 392/392/392 391/391/391 
f 393/393/393 394/394/394 392/392/392 
f 394/394/394 393/393/393 395/395/395 
f 395/395/395 393/393/393 396/396/396 
f 396/396/396 397/397/397 395/395/395 
f 398/398/398 399/399/399 400/400/400 
f 400/400/400 401/401/401 398/398/398 
f 402/402/402 403/403/403 404/404/404 
f 403/403/403 402/402/402 405/405/405 
f 406/406/406 407/407/407 408/408/408 
f 407/407/407 406/406/406 409/409/409 
f 410/410/410 411/411/411 412/412/412 
f 411/411/411 410/410/410 413/413/413 

