# This file is brought to you by Roblox Corporation
# Generated by Roblox Studio

mtllib goat.mtl

g Pet1

v -1.74222 0.94048 0.81121 
v -1.12039 1.3555 0.96915 
v -1.12189 1.34639 0.573194 
v -1.70107 0.9298 0.520163 
v 1.74222 0.94048 0.811211 
v 1.12189 1.34639 0.573194 
v 1.12039 1.3555 0.96915 
v 1.70107 0.9298 0.520163 
v -1.64165 0.479702 0.781749 
v -1.74222 0.94048 0.81121 
v -1.70107 0.9298 0.520163 
v -1.56117 0.270415 0.61373 
v -1.61139 0.429745 0.903707 
v -1.54641 0.274607 1.07334 
v -1.69806 0.75241 1.24586 
v 1.64164 0.479702 0.781749 
v 1.70107 0.9298 0.520163 
v 1.74222 0.94048 0.811211 
v 1.56117 0.270415 0.61373 
v 1.61139 0.429745 0.903707 
v 1.54641 0.274607 1.07334 
v 1.69806 0.75241 1.24586 
v 0.111976 -1.3555 0.910621 
v 0.506373 -1.3555 0.455205 
v 0.546823 -1.3555 0.868012 
v 0.0715259 -1.3555 0.497814 
v -0.52892 -1.3555 0.87405 
v -0.0575123 -1.3555 0.498913 
v -0.0936526 -1.3555 0.91212 
v -0.49278 -1.3555 0.460843 
v -0.498456 -1.3555 0.283751 
v -0.027048 -1.3555 -0.0913861 
v -0.0631883 -1.3555 0.321821 
v -0.462316 -1.3555 -0.129456 
v 0.088632 -1.3555 0.320143 
v 0.475244 -1.3555 -0.141902 
v 0.522694 -1.3555 0.27016 
v 0.0411818 -1.3555 -0.0919186 
v 0.00550207 -1.03609 -0.475677 
v -0.825322 -0.291238 -0.475677 
v 0.00549982 0.40987 -0.47582 
v -0.851805 0.428755 -0.475782 
v -0.851797 -1.013 -0.475677 
v 0.83661 -0.291238 -0.475677 
v 0.862808 -1.013 -0.475677 
v 0.8628 0.427637 -0.475849 
v 0.00550187 -1.13882 0.852814 
v 0.855307 -1.13632 0.964823 
v 0.00550181 -1.12574 1.23893 
v 0.862807 -1.0985 1.23893 
v -0.851798 -1.0985 1.23893 
v 0.848137 -1.14739 0.702544 
v -0.843968 -1.13686 0.746888 
v 0.00550193 -1.15228 0.483359 
v 0.855577 -1.10984 0.00483231 
v -0.836468 -1.14844 0.276076 
v 0.00550201 -1.10984 -0.0693556 
v 0.862808 -1.013 -0.475677 
v -0.844568 -1.10984 -0.143543 
v 0.00550207 -1.03609 -0.475677 
v -0.851797 -1.013 -0.475677 
v 1.12039 1.3555 0.96915 
v 0.460741 1.08802 0.59192 
v 0.460741 1.08802 1.08797 
v 1.12189 1.34639 0.573194 
v -1.12039 1.3555 0.96915 
v -0.460742 1.08802 1.08797 
v -0.460742 1.08802 0.59192 
v -1.12189 1.34639 0.573194 
v -0.88494 -0.312853 1.23893 
v -0.843968 -1.13686 0.746888 
v -0.851798 -1.0985 1.23893 
v -0.836468 -0.36287 0.276068 
v -0.836468 -1.14844 0.276076 
v -0.844568 -1.10984 -0.143543 
v -0.836738 0.38377 0.276971 
v -0.85089 0.502217 1.23455 
v -0.825322 -0.291238 -0.475677 
v -0.851797 -1.013 -0.475677 
v -0.851805 0.428755 -0.475782 
v 0.855307 -1.13632 0.964823 
v 0.88902 -0.312853 1.23893 
v 0.862807 -1.0985 1.23893 
v 0.848137 -0.361745 0.702544 
v 0.848137 -1.14739 0.702544 
v 0.855577 -1.10984 0.00483231 
v 0.848805 0.391502 0.700628 
v 0.86241 0.45997 1.24083 
v 0.83661 -0.291238 -0.475677 
v 0.862808 -1.013 -0.475677 
v 0.8628 0.427637 -0.475849 
v -0.172727 0.2575 -1.05573 
v 0.172967 0.257824 -1.05637 
v -0.000972924 0.214929 -1.24586 
v 0.22727 0.453097 -0.692295 
v -0.226782 0.452517 -0.692107 
v -0.148118 0.376737 -0.464947 
v 0.149378 0.376782 -0.465009 
v -1.41449 0.477445 0.824199 
v -1.61139 0.429745 0.903707 
v -1.41152 0.445765 0.913881 
v -1.64165 0.479702 0.781749 
v 1.61139 0.429745 0.903707 
v 1.41448 0.477445 0.8242 
v 1.41151 0.445765 0.913882 
v 1.64164 0.479702 0.781749 
v 0.460741 1.08802 1.08797 
v 0.8127 0.37036 1.2107 
v 0.935865 0.84565 1.08797 
v 0.130826 0.37036 1.2107 
v 1.12039 1.3555 0.96915 
v 1.14613 0.991712 0.979106 
v 1.43282 0.831227 0.850395 
v 1.74222 0.94048 0.811211 
v 1.64164 0.479702 0.781749 
v 1.41448 0.477445 0.8242 
v -0.8127 0.37036 1.2107 
v -0.460742 1.08802 1.08797 
v -0.935865 0.84565 1.08797 
v -0.130826 0.37036 1.2107 
v -1.12039 1.3555 0.96915 
v -1.14613 0.991712 0.979106 
v -1.43282 0.831227 0.850395 
v -1.74222 0.94048 0.81121 
v -1.64165 0.479702 0.781749 
v -1.41449 0.477445 0.824199 
v -1.03278 0.0588852 1.22363 
v -0.849536 -0.0181265 1.22363 
v -0.849536 0.217893 1.22363 
v -1.20731 0.215277 1.21545 
v -1.25396 0.431823 1.21545 
v -1.13541 0.503587 1.21545 
v -0.964318 0.494162 1.22363 
v -0.849536 0.436295 1.22363 
v 1.03278 0.0588852 1.22363 
v 0.849536 0.217893 1.22363 
v 0.849536 -0.0181265 1.22363 
v 1.20731 0.215277 1.21545 
v 1.25396 0.431823 1.21545 
v 1.13541 0.503587 1.21545 
v 0.964318 0.494162 1.22363 
v 0.849536 0.436295 1.22363 
v -0.851798 -1.0985 1.23893 
v 0.00550181 -1.12574 1.23893 
v -0.88494 -0.312853 1.23893 
v 0.00575981 0.508015 1.23769 
v -0.85089 0.502217 1.23455 
v 0.88902 -0.312853 1.23893 
v 0.86241 0.45997 1.24083 
v 0.862807 -1.0985 1.23893 
v -0.935865 0.84565 1.08797 
v -0.8127 0.37036 0.667656 
v -0.8127 0.37036 1.2107 
v -0.935865 0.84565 0.59192 
v 0.935865 0.84565 1.08797 
v 0.8127 0.37036 0.667656 
v 0.935865 0.84565 0.59192 
v 0.8127 0.37036 1.2107 
v -0.431092 -1.20794 -0.0941522 
v -0.0719692 -1.04214 -0.0556389 
v -0.0639262 -1.20794 -0.0620386 
v -0.424282 -1.04214 -0.0864527 
v 0.444998 -1.20794 -0.105756 
v 0.0788505 -1.20794 -0.0635933 
v 0.087066 -1.04214 -0.0574156 
v 0.438403 -1.04214 -0.0978728 
v -0.85089 0.502217 1.23455 
v 0.00575981 0.508015 1.23769 
v 0.00564668 0.386845 0.481897 
v -0.836738 0.38377 0.276971 
v 0.848805 0.391502 0.700628 
v 0.86241 0.45997 1.24083 
v 0.8628 0.427637 -0.475849 
v 0.00549982 0.40987 -0.47582 
v -0.851805 0.428755 -0.475782 
v 0.438403 -1.04214 -0.0978728 
v 0.476809 -1.04214 0.235657 
v 0.485024 -1.20794 0.241834 
v 0.444998 -1.20794 -0.105756 
v -0.461578 -1.20794 0.254404 
v -0.424282 -1.04214 -0.0864527 
v -0.431092 -1.20794 -0.0941522 
v -0.453535 -1.04214 0.248004 
v 0.46879 -1.04214 0.498602 
v 0.501531 -1.04214 0.832735 
v 0.50964 -1.20794 0.839051 
v 0.475519 -1.20794 0.490832 
v -0.492042 -1.20794 0.844702 
v -0.454747 -1.04214 0.503845 
v -0.461556 -1.20794 0.496147 
v -0.483999 -1.04214 0.838303 
v -0.462316 -1.3555 -0.129456 
v -0.0639262 -1.20794 -0.0620386 
v -0.027048 -1.3555 -0.0913861 
v -0.431092 -1.20794 -0.0941522 
v 0.475244 -1.3555 -0.141902 
v 0.0411818 -1.3555 -0.0919186 
v 0.0788505 -1.20794 -0.0635933 
v 0.444998 -1.20794 -0.105756 
v 1.37673 0.322817 1.08351 
v 1.54641 0.274607 1.07334 
v 1.69806 0.75241 1.24586 
v -1.37673 0.322817 1.08351 
v -1.69806 0.75241 1.24586 
v -1.54641 0.274607 1.07334 
v -0.189214 0.0864404 -1.08635 
v -0.172727 0.2575 -1.05573 
v -0.000972924 0.214929 -1.24586 
v -0.270488 0.0527985 -0.674531 
v -0.226782 0.452517 -0.692107 
v -0.14645 0.177338 -0.465052 
v -0.148118 0.376737 -0.464947 
v -0.000972924 0.214929 -1.24586 
v 0.172967 0.257824 -1.05637 
v 0.189535 0.0867628 -1.08697 
v 0.271416 0.0533748 -0.674697 
v 0.22727 0.453097 -0.692295 
v 0.147018 0.177387 -0.465118 
v 0.149378 0.376782 -0.465009 
v 0.501531 -1.04214 0.832735 
v 0.149558 -1.04214 0.867224 
v 0.14283 -1.20794 0.874994 
v 0.50964 -1.20794 0.839051 
v -0.483999 -1.04214 0.838303 
v -0.124877 -1.20794 0.876816 
v -0.131686 -1.04214 0.869116 
v -0.492042 -1.20794 0.844702 
v 0.444998 -1.20794 -0.105756 
v 0.485024 -1.20794 0.241834 
v 0.522694 -1.3555 0.27016 
v 0.475244 -1.3555 -0.141902 
v -0.498456 -1.3555 0.283751 
v -0.431092 -1.20794 -0.0941522 
v -0.462316 -1.3555 -0.129456 
v -0.461578 -1.20794 0.254404 
v 0.475519 -1.20794 0.490832 
v 0.50964 -1.20794 0.839051 
v 0.546823 -1.3555 0.868012 
v 0.506373 -1.3555 0.455205 
v -0.52892 -1.3555 0.87405 
v -0.461556 -1.20794 0.496147 
v -0.49278 -1.3555 0.460843 
v -0.492042 -1.20794 0.844702 
v -1.61139 0.429745 0.903707 
v -1.69806 0.75241 1.24586 
v -1.41152 0.445765 0.913881 
v 1.61139 0.429745 0.903707 
v 1.41151 0.445765 0.913882 
v 1.69806 0.75241 1.24586 
v 0.460741 1.08802 1.08797 
v 0.130826 0.37036 0.667656 
v 0.130826 0.37036 1.2107 
v 0.460741 1.08802 0.59192 
v 0.50964 -1.20794 0.839051 
v 0.14283 -1.20794 0.874994 
v 0.111976 -1.3555 0.910621 
v 0.546823 -1.3555 0.868012 
v -0.492042 -1.20794 0.844702 
v -0.0936526 -1.3555 0.91212 
v -0.124877 -1.20794 0.876816 
v -0.52892 -1.3555 0.87405 
v -0.460742 1.08802 1.08797 
v -0.130826 0.37036 1.2107 
v -0.130826 0.37036 0.667656 
v -0.460742 1.08802 0.59192 
v 0.475519 -1.20794 0.490832 
v 0.108709 -1.20794 0.526775 
v 0.116818 -1.04214 0.533091 
v 0.46879 -1.04214 0.498602 
v -0.461556 -1.20794 0.496147 
v -0.102434 -1.04214 0.53466 
v -0.0943906 -1.20794 0.528259 
v -0.454747 -1.04214 0.503845 
v -0.849536 0.0490698 1.04637 
v -1.01291 0.125511 1.04882 
v -0.849536 0.373724 1.04946 
v -0.849536 -0.0181265 1.22363 
v -1.03278 0.0588852 1.22363 
v -0.965265 0.419632 1.05197 
v -0.849536 0.436295 1.22363 
v -0.964318 0.494162 1.22363 
v -1.16342 0.256313 1.08454 
v -1.20731 0.215277 1.21545 
v -1.25396 0.431823 1.21545 
v -1.1289 0.450659 1.08654 
v -1.13541 0.503587 1.21545 
v 0.849535 0.0490698 1.04637 
v 0.849535 0.373724 1.04946 
v 1.01291 0.125511 1.04882 
v 0.849536 -0.0181265 1.22363 
v 1.03278 0.0588852 1.22363 
v 0.965265 0.419632 1.05197 
v 0.849536 0.436295 1.22363 
v 0.964318 0.494162 1.22363 
v 1.16342 0.256313 1.08454 
v 1.20731 0.215277 1.21545 
v 1.25396 0.431823 1.21545 
v 1.1289 0.450659 1.08654 
v 1.13541 0.503587 1.21545 
v -0.131686 -1.04214 0.869116 
v -0.0943906 -1.20794 0.528259 
v -0.102434 -1.04214 0.53466 
v -0.124877 -1.20794 0.876816 
v 0.149558 -1.04214 0.867224 
v 0.108709 -1.20794 0.526775 
v 0.14283 -1.20794 0.874994 
v 0.116818 -1.04214 0.533091 
v -0.101222 -1.04214 0.278818 
v -0.0639262 -1.20794 -0.0620386 
v -0.0719692 -1.04214 -0.0556389 
v -0.0944123 -1.20794 0.286517 
v 0.130826 0.37036 0.667656 
v 0.460741 1.08802 0.59192 
v 0.8127 0.37036 0.667656 
v 0.935865 0.84565 0.59192 
v 1.12189 1.34639 0.573194 
v 1.14762 0.9826 0.583151 
v 1.70107 0.9298 0.520163 
v 1.39167 0.82054 0.559348 
v 1.56117 0.270415 0.61373 
v 1.34125 0.332897 0.656181 
v -0.8127 0.37036 0.667656 
v -0.460742 1.08802 0.59192 
v -0.130826 0.37036 0.667656 
v -0.935865 0.84565 0.59192 
v -1.12189 1.34639 0.573194 
v -1.14762 0.9826 0.583151 
v -1.70107 0.9298 0.520163 
v -1.39167 0.82054 0.559347 
v -1.56117 0.270415 0.61373 
v -1.34125 0.332897 0.656181 
v 0.125473 -1.04214 0.276114 
v 0.0788505 -1.20794 -0.0635933 
v 0.118877 -1.20794 0.283997 
v 0.087066 -1.04214 -0.0574156 
v 0.506373 -1.3555 0.455205 
v 0.0715259 -1.3555 0.497814 
v 0.108709 -1.20794 0.526775 
v 0.475519 -1.20794 0.490832 
v -0.49278 -1.3555 0.460843 
v -0.0943906 -1.20794 0.528259 
v -0.0575123 -1.3555 0.498913 
v -0.461556 -1.20794 0.496147 
v -0.270488 0.0527985 -0.674531 
v 0.147018 0.177387 -0.465118 
v -0.14645 0.177338 -0.465052 
v 0.271416 0.0533748 -0.674697 
v -0.189214 0.0864404 -1.08635 
v 0.189535 0.0867628 -1.08697 
v -0.000972924 0.214929 -1.24586 
v -1.14613 0.991712 0.979106 
v -0.935865 0.84565 0.59192 
v -0.935865 0.84565 1.08797 
v -1.14762 0.9826 0.583151 
v 1.14613 0.991712 0.979106 
v 0.935865 0.84565 0.59192 
v 1.14762 0.9826 0.583151 
v 0.935865 0.84565 1.08797 
v 0.476809 -1.04214 0.235657 
v 0.125473 -1.04214 0.276114 
v 0.118877 -1.20794 0.283997 
v 0.485024 -1.20794 0.241834 
v -0.453535 -1.04214 0.248004 
v -0.0944123 -1.20794 0.286517 
v -0.101222 -1.04214 0.278818 
v -0.461578 -1.20794 0.254404 
v -0.124877 -1.20794 0.876816 
v -0.0575123 -1.3555 0.498913 
v -0.0943906 -1.20794 0.528259 
v -0.0936526 -1.3555 0.91212 
v 0.14283 -1.20794 0.874994 
v 0.0715259 -1.3555 0.497814 
v 0.111976 -1.3555 0.910621 
v 0.108709 -1.20794 0.526775 
v -0.0944123 -1.20794 0.286517 
v -0.027048 -1.3555 -0.0913861 
v -0.0639262 -1.20794 -0.0620386 
v -0.0631883 -1.3555 0.321821 
v 0.118877 -1.20794 0.283997 
v 0.0411818 -1.3555 -0.0919186 
v 0.088632 -1.3555 0.320143 
v 0.0788505 -1.20794 -0.0635933 
v 0.485024 -1.20794 0.241834 
v 0.118877 -1.20794 0.283997 
v 0.088632 -1.3555 0.320143 
v 0.522694 -1.3555 0.27016 
v -0.461578 -1.20794 0.254404 
v -0.0631883 -1.3555 0.321821 
v -0.0944123 -1.20794 0.286517 
v -0.498456 -1.3555 0.283751 
v 1.37673 0.322817 1.08351 
v 1.34125 0.332897 0.656181 
v 1.54641 0.274607 1.07334 
v 1.56117 0.270415 0.61373 
v -1.54641 0.274607 1.07334 
v -1.34125 0.332897 0.656181 
v -1.37673 0.322817 1.08351 
v -1.56117 0.270415 0.61373 
v 1.39167 0.82054 0.559348 
v 1.41448 0.477445 0.8242 
v 1.43282 0.831227 0.850395 
v 1.34125 0.332897 0.656181 
v 1.41151 0.445765 0.913882 
v 1.37673 0.322817 1.08351 
v 1.69806 0.75241 1.24586 
v -1.41449 0.477445 0.824199 
v -1.39167 0.82054 0.559347 
v -1.43282 0.831227 0.850395 
v -1.34125 0.332897 0.656181 
v -1.41152 0.445765 0.913881 
v -1.37673 0.322817 1.08351 
v -1.69806 0.75241 1.24586 
v 1.43282 0.831227 0.850395 
v 1.14762 0.9826 0.583151 
v 1.39167 0.82054 0.559348 
v 1.14613 0.991712 0.979106 
v -1.43282 0.831227 0.850395 
v -1.14762 0.9826 0.583151 
v -1.14613 0.991712 0.979106 
v -1.39167 0.82054 0.559347 

vn -0.559055 0.826772 -0.0551181 
vn -0.559055 0.826772 -0.0551181 
vn -0.559055 0.826772 -0.0551181 
vn -0.559055 0.826772 -0.0551181 
vn 0.559055 0.826772 -0.0551181 
vn 0.559055 0.826772 -0.0551181 
vn 0.559055 0.826772 -0.0551181 
vn 0.559055 0.826772 -0.0551181 
vn -0.952756 -0.299213 -0.0551181 
vn -0.968504 -0.212598 -0.149606 
vn -0.968504 -0.212598 -0.149606 
vn -0.952756 -0.299213 -0.0551181 
vn -0.937008 -0.354331 0.0551181 
vn -0.937008 -0.346457 0.0551181 
vn -0.944882 -0.322835 0.0629921 
vn 0.952756 -0.299213 -0.0551181 
vn 0.968504 -0.212598 -0.149606 
vn 0.968504 -0.212598 -0.149606 
vn 0.952756 -0.299213 -0.0551181 
vn 0.937008 -0.354331 0.0551181 
vn 0.937008 -0.346457 0.0551181 
vn 0.944882 -0.322835 0.0629921 
vn 0 -1 0 
vn 0 -1 0 
vn 0 -1 0 
vn 0 -1 0 
vn 0 -1 0 
vn 0 -1 0 
vn 0 -1 0 
vn 0 -1 0 
vn 0 -1 0 
vn 0 -1 0 
vn 0 -1 0 
vn 0 -1 0 
vn 0 -1 0 
vn 0 -1 0 
vn 0 -1 0 
vn 0 -1 0 
vn 0 0 -1 
vn 0 0 -1 
vn 0 0 -1 
vn 0 0 -1 
vn 0 0 -1 
vn 0 0 -1 
vn 0 0 -1 
vn 0 0 -1 
vn -0.00787402 -1 0.0551181 
vn 0.00787402 -1 0.0551181 
vn -0.00787402 -1 0.0708661 
vn 0.015748 -1 0.0787402 
vn -0.023622 -1 0.0551181 
vn 0.00787402 -1 -0.015748 
vn -0.015748 -1 0.0472441 
vn 0 -1 -0.023622 
vn 0.015748 -0.992126 -0.125984 
vn 0 -1 -0.023622 
vn 0.00787402 -0.992126 -0.141732 
vn 0.023622 -0.984252 -0.188976 
vn 0.00787402 -0.984252 -0.15748 
vn 0.00787402 -0.976378 -0.204724 
vn 0 -0.976378 -0.228346 
vn -0.370079 0.929134 -0.00787402 
vn -0.370079 0.929134 -0.00787402 
vn -0.370079 0.929134 -0.00787402 
vn -0.370079 0.929134 -0.00787402 
vn 0.370079 0.929134 -0.00787402 
vn 0.370079 0.929134 -0.00787402 
vn 0.370079 0.929134 -0.00787402 
vn 0.370079 0.929134 -0.00787402 
vn -1 0 -0.0393701 
vn -1 -0.015748 -0.023622 
vn -1 -0.0314961 -0.0393701 
vn -1 0 -0.00787402 
vn -1 0 0 
vn -1 0.015748 0.00787402 
vn -1 0 -0.015748 
vn -1 0.023622 -0.0314961 
vn -1 0 0 
vn -1 0.023622 0 
vn -1 -0.015748 0 
vn 1 -0.00787402 -0.0393701 
vn 1 0 -0.0551181 
vn 1 -0.023622 -0.0551181 
vn 1 0 -0.023622 
vn 1 0 -0.00787402 
vn 1 0.00787402 0.00787402 
vn 1 0 -0.023622 
vn 1 0.015748 -0.0551181 
vn 1 0 0 
vn 1 0.023622 0 
vn 1 -0.015748 0 
vn 0 0.858268 0.511811 
vn 0 0.858268 0.511811 
vn 0 0.692913 0.716535 
vn 0 0.748031 0.669291 
vn 0 0.748031 0.669291 
vn 0 0.377953 0.929134 
vn 0 0.377953 0.929134 
vn -0.0787402 0.929134 0.370079 
vn -0.0787402 0.929134 0.370079 
vn -0.0787402 0.929134 0.370079 
vn -0.0787402 0.929134 0.370079 
vn 0.0787402 0.929134 0.370079 
vn 0.0787402 0.929134 0.370079 
vn 0.0787402 0.929134 0.370079 
vn 0.0787402 0.929134 0.370079 
vn 0.0708661 0.181102 0.984252 
vn 0.0393701 0.188976 0.984252 
vn 0.0866142 0.181102 0.976378 
vn 0.0393701 0.188976 0.984252 
vn 0.212598 0.0787402 0.976378 
vn 0.220472 0.0629921 0.976378 
vn 0.228346 -0.0708661 0.968504 
vn 0.220472 -0.0708661 0.968504 
vn 0.165354 -0.0944882 0.984252 
vn 0.165354 -0.0944882 0.984252 
vn -0.0393701 0.188976 0.984252 
vn -0.0708661 0.181102 0.984252 
vn -0.0866142 0.181102 0.976378 
vn -0.0393701 0.188976 0.984252 
vn -0.212598 0.0787402 0.976378 
vn -0.220472 0.0629921 0.976378 
vn -0.228346 -0.0708661 0.968504 
vn -0.220472 -0.0708661 0.968504 
vn -0.165354 -0.0944882 0.984252 
vn -0.165354 -0.0944882 0.984252 
vn -0.0472441 -0.00787402 1 
vn -0.0472441 -0.00787402 1 
vn -0.0472441 -0.00787402 1 
vn -0.0472441 -0.00787402 1 
vn -0.0472441 -0.00787402 1 
vn -0.0472441 -0.00787402 1 
vn -0.0472441 -0.00787402 1 
vn -0.0472441 -0.00787402 1 
vn 0.0472441 -0.00787402 1 
vn 0.0472441 -0.00787402 1 
vn 0.0472441 -0.00787402 1 
vn 0.0472441 -0.00787402 1 
vn 0.0472441 -0.00787402 1 
vn 0.0472441 -0.00787402 1 
vn 0.0472441 -0.00787402 1 
vn 0.0472441 -0.00787402 1 
vn 0 0 1 
vn 0 0 1 
vn 0 0 1 
vn 0 0 1 
vn 0 0 1 
vn 0 0 1 
vn 0 0 1 
vn 0 0 1 
vn -0.968504 -0.251969 0 
vn -0.968504 -0.251969 0 
vn -0.968504 -0.251969 0 
vn -0.968504 -0.251969 0 
vn 0.968504 -0.251969 0 
vn 0.968504 -0.251969 0 
vn 0.968504 -0.251969 0 
vn 0.968504 -0.251969 0 
vn 0.0866142 0.0393701 -0.992126 
vn 0.0866142 0.0393701 -0.992126 
vn 0.0866142 0.0393701 -0.992126 
vn 0.0866142 0.0393701 -0.992126 
vn -0.110236 0.0393701 -0.992126 
vn -0.110236 0.0393701 -0.992126 
vn -0.110236 0.0393701 -0.992126 
vn -0.110236 0.0393701 -0.992126 
vn 0.015748 0.992126 -0.141732 
vn 0.0314961 0.992126 -0.141732 
vn 0.00787402 1 -0.0551181 
vn 0.00787402 1 -0.0472441 
vn 0.015748 1 -0.0629921 
vn 0.0472441 0.992126 -0.141732 
vn -0.015748 1 0.0314961 
vn -0.00787402 1 0.0314961 
vn 0.00787402 1 0.0393701 
vn 0.992126 0.0472441 -0.110236 
vn 0.992126 0.0472441 -0.110236 
vn 0.992126 0.0472441 -0.110236 
vn 0.992126 0.0472441 -0.110236 
vn -0.992126 0.0472441 -0.0866142 
vn -0.992126 0.0472441 -0.0866142 
vn -0.992126 0.0472441 -0.0866142 
vn -0.992126 0.0472441 -0.0866142 
vn 0.992126 0.0472441 -0.0944882 
vn 0.992126 0.0472441 -0.0944882 
vn 0.992126 0.0472441 -0.0944882 
vn 0.992126 0.0472441 -0.0944882 
vn -0.992126 0.0472441 -0.0866142 
vn -0.992126 0.0472441 -0.0866142 
vn -0.992126 0.0472441 -0.0866142 
vn -0.992126 0.0472441 -0.0866142 
vn 0.0866142 0.212598 -0.976378 
vn 0.0866142 0.212598 -0.976378 
vn 0.0866142 0.212598 -0.976378 
vn 0.0866142 0.212598 -0.976378 
vn -0.110236 0.212598 -0.968504 
vn -0.110236 0.212598 -0.968504 
vn -0.110236 0.212598 -0.968504 
vn -0.110236 0.212598 -0.968504 
vn -0.0393701 -0.330709 0.944882 
vn -0.0393701 -0.330709 0.944882 
vn -0.0393701 -0.330709 0.944882 
vn 0.0393701 -0.330709 0.944882 
vn 0.0393701 -0.330709 0.944882 
vn 0.0393701 -0.330709 0.944882 
vn -0.897638 0.417323 -0.149606 
vn -0.897638 0.417323 -0.149606 
vn -0.80315 0.559055 -0.228346 
vn -0.992126 0.0866142 0.110236 
vn -0.992126 0.0866142 0.110236 
vn -0.952756 -0.0944882 0.291339 
vn -0.952756 -0.0944882 0.291339 
vn 0.795276 0.559055 -0.228346 
vn 0.897638 0.417323 -0.15748 
vn 0.897638 0.417323 -0.15748 
vn 0.992126 0.0866142 0.110236 
vn 0.992126 0.0866142 0.110236 
vn 0.952756 -0.0944882 0.291339 
vn 0.952756 -0.0944882 0.291339 
vn 0.0944882 0.0393701 0.992126 
vn 0.0944882 0.0393701 0.992126 
vn 0.0944882 0.0393701 0.992126 
vn 0.0944882 0.0393701 0.992126 
vn -0.0866142 0.0393701 0.992126 
vn -0.0866142 0.0393701 0.992126 
vn -0.0866142 0.0393701 0.992126 
vn -0.0866142 0.0393701 0.992126 
vn 0.968504 0.228346 -0.110236 
vn 0.968504 0.228346 -0.110236 
vn 0.968504 0.228346 -0.110236 
vn 0.968504 0.228346 -0.110236 
vn -0.968504 0.228346 -0.0866142 
vn -0.968504 0.228346 -0.0866142 
vn -0.968504 0.228346 -0.0866142 
vn -0.968504 0.228346 -0.0866142 
vn 0.968504 0.228346 -0.0944882 
vn 0.968504 0.228346 -0.0944882 
vn 0.968504 0.228346 -0.0944882 
vn 0.968504 0.228346 -0.0944882 
vn -0.968504 0.228346 -0.0866142 
vn -0.968504 0.228346 -0.0866142 
vn -0.968504 0.228346 -0.0866142 
vn -0.968504 0.228346 -0.0866142 
vn -0.023622 0.724409 -0.692913 
vn -0.023622 0.724409 -0.692913 
vn -0.023622 0.724409 -0.692913 
vn 0.023622 0.724409 -0.692913 
vn 0.023622 0.724409 -0.692913 
vn 0.023622 0.724409 -0.692913 
vn -0.905512 0.417323 0 
vn -0.905512 0.417323 0 
vn -0.905512 0.417323 0 
vn -0.905512 0.417323 0 
vn 0.0944882 0.212598 0.968504 
vn 0.0944882 0.212598 0.968504 
vn 0.0944882 0.212598 0.968504 
vn 0.0944882 0.212598 0.968504 
vn -0.0866142 0.212598 0.976378 
vn -0.0866142 0.212598 0.976378 
vn -0.0866142 0.212598 0.976378 
vn -0.0866142 0.212598 0.976378 
vn 0.905512 0.417323 0 
vn 0.905512 0.417323 0 
vn 0.905512 0.417323 0 
vn 0.905512 0.417323 0 
vn -0.0944882 0.0393701 -0.992126 
vn -0.0944882 0.0393701 -0.992126 
vn -0.0944882 0.0393701 -0.992126 
vn -0.0944882 0.0393701 -0.992126 
vn 0.0866142 0.0393701 -0.992126 
vn 0.0866142 0.0393701 -0.992126 
vn 0.0866142 0.0393701 -0.992126 
vn 0.0866142 0.0393701 -0.992126 
vn -0.19685 -0.866142 -0.464567 
vn -0.267717 -0.708661 -0.645669 
vn -0.165354 0.826772 -0.535433 
vn -0.173228 -0.913386 -0.370079 
vn -0.244094 -0.889764 -0.377953 
vn -0.244094 0.692913 -0.677165 
vn -0.102362 0.913386 -0.385827 
vn -0.220472 0.889764 -0.393701 
vn -0.456693 -0.456693 -0.76378 
vn -0.448819 -0.811024 -0.370079 
vn -0.929134 0.0314961 -0.362205 
vn -0.425197 0.503937 -0.755906 
vn -0.393701 0.84252 -0.362205 
vn 0.19685 -0.866142 -0.464567 
vn 0.165354 0.826772 -0.535433 
vn 0.267717 -0.708661 -0.645669 
vn 0.173228 -0.913386 -0.370079 
vn 0.244094 -0.889764 -0.377953 
vn 0.244094 0.692913 -0.677165 
vn 0.102362 0.913386 -0.385827 
vn 0.220472 0.889764 -0.393701 
vn 0.456693 -0.456693 -0.76378 
vn 0.448819 -0.811024 -0.370079 
vn 0.929134 0.0314961 -0.362205 
vn 0.425197 0.503937 -0.755906 
vn 0.393701 0.84252 -0.362205 
vn 0.992126 0.0472441 0.0866142 
vn 0.992126 0.0472441 0.0866142 
vn 0.992126 0.0472441 0.0866142 
vn 0.992126 0.0472441 0.0866142 
vn -0.992126 0.0472441 0.0944882 
vn -0.992126 0.0472441 0.0944882 
vn -0.992126 0.0472441 0.0944882 
vn -0.992126 0.0472441 0.0944882 
vn 0.992126 0.0472441 0.0866142 
vn 0.992126 0.0472441 0.0866142 
vn 0.992126 0.0472441 0.0866142 
vn 0.992126 0.0472441 0.0866142 
vn -0.023622 -0.11811 -0.992126 
vn -0.023622 -0.102362 -0.992126 
vn -0.023622 -0.11811 -0.992126 
vn -0.023622 -0.0866142 -1 
vn -0.0551181 -0.0314961 -1 
vn -0.0629921 -0.0314961 -1 
vn -0.125984 -0.0866142 -0.984252 
vn -0.125984 -0.0866142 -0.984252 
vn -0.141732 -0.141732 -0.984252 
vn -0.141732 -0.141732 -0.984252 
vn 0.023622 -0.11811 -0.992126 
vn 0.023622 -0.102362 -0.992126 
vn 0.023622 -0.11811 -0.992126 
vn 0.023622 -0.0866142 -1 
vn 0.0551181 -0.0314961 -1 
vn 0.0629921 -0.0314961 -1 
vn 0.125984 -0.0866142 -0.984252 
vn 0.125984 -0.0866142 -0.984252 
vn 0.141732 -0.141732 -0.984252 
vn 0.141732 -0.141732 -0.984252 
vn -0.992126 0.0472441 0.110236 
vn -0.992126 0.0472441 0.110236 
vn -0.992126 0.0472441 0.110236 
vn -0.992126 0.0472441 0.110236 
vn -0.0944882 0.212598 -0.968504 
vn -0.0944882 0.212598 -0.968504 
vn -0.0944882 0.212598 -0.968504 
vn -0.0944882 0.212598 -0.968504 
vn 0.0866142 0.212598 -0.976378 
vn 0.0866142 0.212598 -0.976378 
vn 0.0866142 0.212598 -0.976378 
vn 0.0866142 0.212598 -0.976378 
vn 0 -0.724409 -0.692913 
vn 0 -0.858268 -0.503937 
vn 0 -0.858268 -0.503937 
vn 0 -0.724409 -0.692913 
vn 0 -0.322835 -0.944882 
vn 0 -0.322835 -0.944882 
vn 0 -0.0708661 -1 
vn -0.559055 -0.826772 0.00787402 
vn -0.559055 -0.826772 0.00787402 
vn -0.559055 -0.826772 0.00787402 
vn -0.559055 -0.826772 0.00787402 
vn 0.559055 -0.826772 0.00787402 
vn 0.559055 -0.826772 0.00787402 
vn 0.559055 -0.826772 0.00787402 
vn 0.559055 -0.826772 0.00787402 
vn 0.110236 0.0393701 0.992126 
vn 0.110236 0.0393701 0.992126 
vn 0.110236 0.0393701 0.992126 
vn 0.110236 0.0393701 0.992126 
vn -0.0866142 0.0393701 0.992126 
vn -0.0866142 0.0393701 0.992126 
vn -0.0866142 0.0393701 0.992126 
vn -0.0866142 0.0393701 0.992126 
vn 0.968504 0.228346 0.0866142 
vn 0.968504 0.228346 0.0866142 
vn 0.968504 0.228346 0.0866142 
vn 0.968504 0.228346 0.0866142 
vn -0.968504 0.228346 0.0944882 
vn -0.968504 0.228346 0.0944882 
vn -0.968504 0.228346 0.0944882 
vn -0.968504 0.228346 0.0944882 
vn 0.968504 0.228346 0.0866142 
vn 0.968504 0.228346 0.0866142 
vn 0.968504 0.228346 0.0866142 
vn 0.968504 0.228346 0.0866142 
vn -0.968504 0.228346 0.110236 
vn -0.968504 0.228346 0.110236 
vn -0.968504 0.228346 0.110236 
vn -0.968504 0.228346 0.110236 
vn 0.110236 0.212598 0.968504 
vn 0.110236 0.212598 0.968504 
vn 0.110236 0.212598 0.968504 
vn 0.110236 0.212598 0.968504 
vn -0.0866142 0.212598 0.976378 
vn -0.0866142 0.212598 0.976378 
vn -0.0866142 0.212598 0.976378 
vn -0.0866142 0.212598 0.976378 
vn -0.275591 -0.96063 0 
vn -0.275591 -0.96063 0 
vn -0.275591 -0.96063 0 
vn -0.275591 -0.96063 0 
vn 0.275591 -0.96063 0 
vn 0.275591 -0.96063 0 
vn 0.275591 -0.96063 0 
vn 0.275591 -0.96063 0 
vn -0.976378 0.0866142 0.212598 
vn -0.96063 0.23622 0.149606 
vn -0.976378 0.0866142 0.212598 
vn -0.96063 0.23622 0.149606 
vn -0.88189 0.448819 0.149606 
vn -0.850394 0.496063 0.188976 
vn -0.818898 0.527559 0.212598 
vn 0.96063 0.23622 0.149606 
vn 0.976378 0.0866142 0.212598 
vn 0.976378 0.0866142 0.212598 
vn 0.96063 0.23622 0.149606 
vn 0.88189 0.448819 0.149606 
vn 0.850394 0.496063 0.188976 
vn 0.818898 0.527559 0.212598 
vn -0.503937 -0.858268 0.0551181 
vn -0.503937 -0.858268 0.0551181 
vn -0.503937 -0.858268 0.0551181 
vn -0.503937 -0.858268 0.0551181 
vn 0.503937 -0.858268 0.0551181 
vn 0.503937 -0.858268 0.0551181 
vn 0.503937 -0.858268 0.0551181 
vn 0.503937 -0.858268 0.0551181 

vt 0.661708 0.55043 
vt 0.759982 0.558376 
vt 0.753989 0.492447 
vt 0.666111 0.501387 
vt 0.661708 0.55043 
vt 0.753989 0.492447 
vt 0.759982 0.558376 
vt 0.666111 0.501387 
vt 0.593942 0.542538 
vt 0.661708 0.55043 
vt 0.666111 0.501387 
vt 0.565073 0.500222 
vt 0.571379 0.560731 
vt 0.527765 0.569941 
vt 0.556289 0.650647 
vt 0.593942 0.542538 
vt 0.666111 0.501387 
vt 0.661708 0.55043 
vt 0.565073 0.500222 
vt 0.571379 0.560731 
vt 0.527765 0.569941 
vt 0.556289 0.650647 
vt 0.901369 0.916183 
vt 0.813021 0.84004 
vt 0.893507 0.833102 
vt 0.821116 0.925618 
vt 0.893507 0.833102 
vt 0.821116 0.925618 
vt 0.901369 0.916183 
vt 0.813044 0.840236 
vt 0.813021 0.84004 
vt 0.901369 0.916183 
vt 0.821116 0.925618 
vt 0.893507 0.833102 
vt 0.821116 0.925618 
vt 0.893507 0.833102 
vt 0.813021 0.84004 
vt 0.901369 0.916183 
vt 0.707272 0.182523 
vt 0.851696 0.019612 
vt 0.989469 0.182357 
vt 0.992848 0.014168 
vt 0.709917 0.015226 
vt 0.851785 0.345268 
vt 0.710056 0.349963 
vt 0.992703 0.350493 
vt 0.446358 0.183287 
vt 0.425227 0.34988 
vt 0.37072 0.183478 
vt 0.371095 0.351656 
vt 0.370517 0.015319 
vt 0.47667 0.348276 
vt 0.467107 0.016848 
vt 0.518679 0.183061 
vt 0.613751 0.349159 
vt 0.559311 0.018068 
vt 0.626817 0.182752 
vt 0.710056 0.349963 
vt 0.64196 0.016368 
vt 0.707272 0.182523 
vt 0.709917 0.015226 
vt 0.759982 0.558376 
vt 0.849125 0.486537 
vt 0.855811 0.568419 
vt 0.753989 0.492447 
vt 0.759982 0.558376 
vt 0.855811 0.568419 
vt 0.849125 0.486537 
vt 0.753989 0.492447 
vt 0.355903 0.171636 
vt 0.254673 0.012641 
vt 0.351848 0.017046 
vt 0.165985 0.169129 
vt 0.162319 0.013066 
vt 0.080291 0.022033 
vt 0.169237 0.320271 
vt 0.362213 0.330025 
vt 0.018462 0.183941 
vt 0.014968 0.042101 
vt 0.017859 0.323063 
vt 0.399182 0.672452 
vt 0.347865 0.831212 
vt 0.346049 0.680053 
vt 0.450833 0.822082 
vt 0.449993 0.670323 
vt 0.585023 0.677583 
vt 0.449837 0.967866 
vt 0.34442 0.979749 
vt 0.677959 0.835995 
vt 0.677831 0.696274 
vt 0.677702 0.975151 
vt 0.472218 0.483452 
vt 0.473186 0.427799 
vt 0.505122 0.456644 
vt 0.411649 0.423477 
vt 0.408053 0.484424 
vt 0.375226 0.480888 
vt 0.375253 0.423823 
vt 0.605947 0.580789 
vt 0.571379 0.560731 
vt 0.599528 0.583571 
vt 0.593942 0.542538 
vt 0.571379 0.560731 
vt 0.605947 0.580789 
vt 0.599528 0.583571 
vt 0.593942 0.542538 
vt 0.855811 0.568419 
vt 0.894812 0.696591 
vt 0.801359 0.64109 
vt 0.989605 0.579867 
vt 0.759982 0.558376 
vt 0.745782 0.60959 
vt 0.675464 0.591081 
vt 0.661708 0.55043 
vt 0.593942 0.542538 
vt 0.605947 0.580789 
vt 0.894812 0.696591 
vt 0.855811 0.568419 
vt 0.801359 0.64109 
vt 0.989605 0.579867 
vt 0.759982 0.558376 
vt 0.745782 0.60959 
vt 0.675464 0.591081 
vt 0.661708 0.55043 
vt 0.593942 0.542538 
vt 0.605947 0.580789 
vt 0.424273 0.568251 
vt 0.392157 0.55522 
vt 0.392668 0.596371 
vt 0.455057 0.59516 
vt 0.463646 0.632818 
vt 0.443129 0.645584 
vt 0.413245 0.644305 
vt 0.393114 0.63445 
vt 0.424273 0.568251 
vt 0.392668 0.596371 
vt 0.392157 0.55522 
vt 0.455057 0.59516 
vt 0.463646 0.632818 
vt 0.443129 0.645584 
vt 0.413245 0.644305 
vt 0.393114 0.63445 
vt 0.014233 0.677588 
vt 0.179778 0.673126 
vt 0.006941 0.829242 
vt 0.17801 0.988948 
vt 0.012408 0.986674 
vt 0.347865 0.831212 
vt 0.34442 0.979749 
vt 0.346049 0.680053 
vt 0.577328 0.417232 
vt 0.528334 0.367503 
vt 0.523364 0.425947 
vt 0.581868 0.363846 
vt 0.577328 0.417232 
vt 0.528334 0.367503 
vt 0.581868 0.363846 
vt 0.523364 0.425947 
vt 0.923212 0.834514 
vt 0.962322 0.902212 
vt 0.930436 0.908734 
vt 0.955391 0.834961 
vt 0.923212 0.834514 
vt 0.930436 0.908734 
vt 0.962322 0.902212 
vt 0.955391 0.834961 
vt 0.362213 0.330025 
vt 0.356964 0.496741 
vt 0.205935 0.491441 
vt 0.169237 0.320271 
vt 0.245218 0.659681 
vt 0.352497 0.665405 
vt 0.013892 0.658002 
vt 0.017666 0.48936 
vt 0.017859 0.323063 
vt 0.955391 0.834961 
vt 0.964389 0.773823 
vt 0.933036 0.765791 
vt 0.923212 0.834514 
vt 0.933036 0.765791 
vt 0.955391 0.834961 
vt 0.923212 0.834514 
vt 0.964389 0.773823 
vt 0.964389 0.773823 
vt 0.955391 0.834961 
vt 0.923212 0.834514 
vt 0.933036 0.765791 
vt 0.923212 0.834514 
vt 0.964389 0.773823 
vt 0.933036 0.765791 
vt 0.955391 0.834961 
vt 0.893507 0.833102 
vt 0.930436 0.908734 
vt 0.901369 0.916183 
vt 0.923212 0.834514 
vt 0.893507 0.833102 
vt 0.901369 0.916183 
vt 0.930436 0.908734 
vt 0.923212 0.834514 
vt 0.497093 0.580461 
vt 0.527765 0.569941 
vt 0.556289 0.650647 
vt 0.497093 0.580461 
vt 0.556289 0.650647 
vt 0.527765 0.569941 
vt 0.488272 0.505885 
vt 0.472218 0.483452 
vt 0.505122 0.456644 
vt 0.421248 0.539886 
vt 0.408053 0.484424 
vt 0.374439 0.503499 
vt 0.375226 0.480888 
vt 0.505122 0.456644 
vt 0.473186 0.427799 
vt 0.490765 0.407005 
vt 0.42618 0.367927 
vt 0.411649 0.423477 
vt 0.377983 0.399126 
vt 0.375253 0.423823 
vt 0.955391 0.834961 
vt 0.962322 0.902212 
vt 0.930436 0.908734 
vt 0.923212 0.834514 
vt 0.955391 0.834961 
vt 0.930436 0.908734 
vt 0.962322 0.902212 
vt 0.923212 0.834514 
vt 0.923212 0.834514 
vt 0.933036 0.765791 
vt 0.904609 0.757308 
vt 0.893507 0.833102 
vt 0.904609 0.757308 
vt 0.923212 0.834514 
vt 0.893507 0.833102 
vt 0.933036 0.765791 
vt 0.933036 0.765791 
vt 0.923212 0.834514 
vt 0.893507 0.833102 
vt 0.904609 0.757308 
vt 0.893507 0.833102 
vt 0.933036 0.765791 
vt 0.904609 0.757308 
vt 0.923212 0.834514 
vt 0.571379 0.560731 
vt 0.556289 0.650647 
vt 0.599528 0.583571 
vt 0.571379 0.560731 
vt 0.599528 0.583571 
vt 0.556289 0.650647 
vt 0.855811 0.568419 
vt 0.975778 0.464341 
vt 0.989605 0.579867 
vt 0.849125 0.486537 
vt 0.923212 0.834514 
vt 0.930436 0.908734 
vt 0.901369 0.916183 
vt 0.893507 0.833102 
vt 0.923212 0.834514 
vt 0.901369 0.916183 
vt 0.930436 0.908734 
vt 0.893507 0.833102 
vt 0.855811 0.568419 
vt 0.989605 0.579867 
vt 0.975778 0.464341 
vt 0.849125 0.486537 
vt 0.933036 0.765791 
vt 0.962256 0.697477 
vt 0.991562 0.710431 
vt 0.964389 0.773823 
vt 0.933036 0.765791 
vt 0.991562 0.710431 
vt 0.962256 0.697477 
vt 0.964389 0.773823 
vt 0.804605 0.703272 
vt 0.771115 0.713391 
vt 0.791915 0.768426 
vt 0.79345 0.666873 
vt 0.756123 0.681406 
vt 0.768343 0.770327 
vt 0.78176 0.805034 
vt 0.755928 0.803602 
vt 0.738038 0.731543 
vt 0.717299 0.713621 
vt 0.702588 0.761552 
vt 0.736286 0.76716 
vt 0.72211 0.788641 
vt 0.804605 0.703272 
vt 0.791915 0.768426 
vt 0.771115 0.713391 
vt 0.79345 0.666873 
vt 0.756123 0.681406 
vt 0.768343 0.770327 
vt 0.78176 0.805034 
vt 0.755928 0.803602 
vt 0.738038 0.731543 
vt 0.717299 0.713621 
vt 0.702588 0.761552 
vt 0.736286 0.76716 
vt 0.72211 0.788641 
vt 0.962322 0.902212 
vt 0.953234 0.974424 
vt 0.983516 0.963033 
vt 0.930436 0.908734 
vt 0.962322 0.902212 
vt 0.953234 0.974424 
vt 0.930436 0.908734 
vt 0.983516 0.963033 
vt 0.983516 0.963033 
vt 0.930436 0.908734 
vt 0.962322 0.902212 
vt 0.953234 0.974424 
vt 0.975778 0.464341 
vt 0.849125 0.486537 
vt 0.88017 0.363954 
vt 0.791037 0.415443 
vt 0.753989 0.492447 
vt 0.736066 0.437984 
vt 0.666111 0.501387 
vt 0.672439 0.452615 
vt 0.565073 0.500222 
vt 0.575966 0.451966 
vt 0.88017 0.363954 
vt 0.849125 0.486537 
vt 0.975778 0.464341 
vt 0.791037 0.415443 
vt 0.753989 0.492447 
vt 0.736066 0.437984 
vt 0.666111 0.501387 
vt 0.672439 0.452615 
vt 0.565073 0.500222 
vt 0.575966 0.451966 
vt 0.983516 0.963033 
vt 0.930436 0.908734 
vt 0.953234 0.974424 
vt 0.962322 0.902212 
vt 0.904609 0.757308 
vt 0.937923 0.679496 
vt 0.962256 0.697477 
vt 0.933036 0.765791 
vt 0.904609 0.757308 
vt 0.962256 0.697477 
vt 0.937923 0.679496 
vt 0.933036 0.765791 
vt 0.78441 0.875646 
vt 0.720653 0.839289 
vt 0.765207 0.838836 
vt 0.702138 0.87645 
vt 0.77266 0.938493 
vt 0.715158 0.939129 
vt 0.744368 0.969854 
vt 0.605878 0.407859 
vt 0.581868 0.363846 
vt 0.577328 0.417232 
vt 0.609089 0.365201 
vt 0.605878 0.407859 
vt 0.581868 0.363846 
vt 0.609089 0.365201 
vt 0.577328 0.417232 
vt 0.964389 0.773823 
vt 0.991562 0.710431 
vt 0.962256 0.697477 
vt 0.933036 0.765791 
vt 0.964389 0.773823 
vt 0.962256 0.697477 
vt 0.991562 0.710431 
vt 0.933036 0.765791 
vt 0.930436 0.908734 
vt 0.928145 0.990732 
vt 0.953234 0.974424 
vt 0.901369 0.916183 
vt 0.930436 0.908734 
vt 0.928145 0.990732 
vt 0.901369 0.916183 
vt 0.953234 0.974424 
vt 0.953234 0.974424 
vt 0.901369 0.916183 
vt 0.930436 0.908734 
vt 0.928145 0.990732 
vt 0.953234 0.974424 
vt 0.901369 0.916183 
vt 0.928145 0.990732 
vt 0.930436 0.908734 
vt 0.933036 0.765791 
vt 0.962256 0.697477 
vt 0.937923 0.679496 
vt 0.904609 0.757308 
vt 0.933036 0.765791 
vt 0.937923 0.679496 
vt 0.962256 0.697477 
vt 0.904609 0.757308 
vt 0.497128 0.558078 
vt 0.524773 0.486789 
vt 0.527765 0.569941 
vt 0.565073 0.500222 
vt 0.527765 0.569941 
vt 0.524773 0.486789 
vt 0.497128 0.558078 
vt 0.565073 0.500222 
vt 0.640826 0.364392 
vt 0.680032 0.390093 
vt 0.642143 0.396135 
vt 0.694559 0.369487 
vt 0.684742 0.399229 
vt 0.701053 0.415357 
vt 0.647347 0.4433 
vt 0.680032 0.390093 
vt 0.640826 0.364392 
vt 0.642143 0.396135 
vt 0.694559 0.369487 
vt 0.684742 0.399229 
vt 0.701053 0.415357 
vt 0.647347 0.4433 
vt 0.642143 0.396135 
vt 0.609089 0.365201 
vt 0.640826 0.364392 
vt 0.605878 0.407859 
vt 0.642143 0.396135 
vt 0.609089 0.365201 
vt 0.605878 0.407859 
vt 0.640826 0.364392 

usemtl Pet1Mtl

f 1/1/1 2/2/2 3/3/3 
f 1/1/1 3/3/3 4/4/4 
f 5/5/5 6/6/6 7/7/7 
f 6/6/6 5/5/5 8/8/8 
f 9/9/9 10/10/10 11/11/11 
f 11/11/11 12/12/12 9/9/9 
f 12/12/12 13/13/13 9/9/9 
f 12/12/12 14/14/14 13/13/13 
f 14/14/14 15/15/15 13/13/13 
f 16/16/16 17/17/17 18/18/18 
f 17/17/17 16/16/16 19/19/19 
f 19/19/19 16/16/16 20/20/20 
f 21/21/21 19/19/19 20/20/20 
f 21/21/21 20/20/20 22/22/22 
f 23/23/23 24/24/24 25/25/25 
f 24/24/24 23/23/23 26/26/26 
f 27/27/27 28/28/28 29/29/29 
f 28/28/28 27/27/27 30/30/30 
f 31/31/31 32/32/32 33/33/33 
f 32/32/32 31/31/31 34/34/34 
f 35/35/35 36/36/36 37/37/37 
f 36/36/36 35/35/35 38/38/38 
f 39/39/39 40/40/40 41/41/41 
f 40/40/40 42/42/42 41/41/41 
f 40/40/40 39/39/39 43/43/43 
f 44/44/44 39/39/39 41/41/41 
f 39/39/39 44/44/44 45/45/45 
f 44/44/44 41/41/41 46/46/46 
f 47/47/47 48/48/48 49/49/49 
f 50/50/50 49/49/49 48/48/48 
f 49/49/49 51/51/51 47/47/47 
f 48/48/48 47/47/47 52/52/52 
f 53/53/53 47/47/47 51/51/51 
f 54/54/54 52/52/52 47/47/47 
f 47/47/47 53/53/53 54/54/54 
f 52/52/52 54/54/54 55/55/55 
f 56/56/56 54/54/54 53/53/53 
f 54/54/54 57/57/57 55/55/55 
f 54/54/54 56/56/56 57/57/57 
f 55/55/55 57/57/57 58/58/58 
f 59/59/59 57/57/57 56/56/56 
f 60/60/60 58/58/58 57/57/57 
f 57/57/57 59/59/59 60/60/60 
f 61/61/61 60/60/60 59/59/59 
f 62/62/62 63/63/63 64/64/64 
f 63/63/63 62/62/62 65/65/65 
f 66/66/66 67/67/67 68/68/68 
f 66/66/66 68/68/68 69/69/69 
f 70/70/70 71/71/71 72/72/72 
f 71/71/71 70/70/70 73/73/73 
f 71/71/71 73/73/73 74/74/74 
f 75/75/75 74/74/74 73/73/73 
f 70/70/70 76/76/76 73/73/73 
f 70/70/70 77/77/77 76/76/76 
f 75/75/75 73/73/73 78/78/78 
f 76/76/76 78/78/78 73/73/73 
f 75/75/75 78/78/78 79/79/79 
f 78/78/78 76/76/76 80/80/80 
f 81/81/81 82/82/82 83/83/83 
f 82/82/82 81/81/81 84/84/84 
f 81/81/81 85/85/85 84/84/84 
f 86/86/86 84/84/84 85/85/85 
f 87/87/87 82/82/82 84/84/84 
f 82/82/82 87/87/87 88/88/88 
f 84/84/84 86/86/86 89/89/89 
f 84/84/84 89/89/89 87/87/87 
f 86/86/86 90/90/90 89/89/89 
f 87/87/87 89/89/89 91/91/91 
f 92/92/92 93/93/93 94/94/94 
f 92/92/92 95/95/95 93/93/93 
f 95/95/95 92/92/92 96/96/96 
f 95/95/95 96/96/96 97/97/97 
f 95/95/95 97/97/97 98/98/98 
f 99/99/99 100/100/100 101/101/101 
f 100/100/100 99/99/99 102/102/102 
f 103/103/103 104/104/104 105/105/105 
f 104/104/104 103/103/103 106/106/106 
f 107/107/107 108/108/108 109/109/109 
f 108/108/108 107/107/107 110/110/110 
f 109/109/109 111/111/111 107/107/107 
f 111/111/111 109/109/109 112/112/112 
f 113/113/113 111/111/111 112/112/112 
f 114/114/114 111/111/111 113/113/113 
f 113/113/113 115/115/115 114/114/114 
f 115/115/115 113/113/113 116/116/116 
f 117/117/117 118/118/118 119/119/119 
f 118/118/118 117/117/117 120/120/120 
f 121/121/121 119/119/119 118/118/118 
f 119/119/119 121/121/121 122/122/122 
f 121/121/121 123/123/123 122/122/122 
f 121/121/121 124/124/124 123/123/123 
f 125/125/125 123/123/123 124/124/124 
f 123/123/123 125/125/125 126/126/126 
f 127/127/127 128/128/128 129/129/129 
f 130/130/130 127/127/127 129/129/129 
f 129/129/129 131/131/131 130/130/130 
f 131/131/131 129/129/129 132/132/132 
f 129/129/129 133/133/133 132/132/132 
f 129/129/129 134/134/134 133/133/133 
f 135/135/135 136/136/136 137/137/137 
f 138/138/138 136/136/136 135/135/135 
f 136/136/136 138/138/138 139/139/139 
f 139/139/139 140/140/140 136/136/136 
f 136/136/136 140/140/140 141/141/141 
f 136/136/136 141/141/141 142/142/142 
f 143/143/143 144/144/144 145/145/145 
f 146/146/146 145/145/145 144/144/144 
f 145/145/145 146/146/146 147/147/147 
f 148/148/148 146/146/146 144/144/144 
f 146/146/146 148/148/148 149/149/149 
f 144/144/144 150/150/150 148/148/148 
f 151/151/151 152/152/152 153/153/153 
f 152/152/152 151/151/151 154/154/154 
f 155/155/155 156/156/156 157/157/157 
f 156/156/156 155/155/155 158/158/158 
f 159/159/159 160/160/160 161/161/161 
f 160/160/160 159/159/159 162/162/162 
f 163/163/163 164/164/164 165/165/165 
f 163/163/163 165/165/165 166/166/166 
f 167/167/167 168/168/168 169/169/169 
f 167/167/167 169/169/169 170/170/170 
f 168/168/168 171/171/171 169/169/169 
f 168/168/168 172/172/172 171/171/171 
f 171/171/171 173/173/173 169/169/169 
f 169/169/169 173/173/173 174/174/174 
f 169/169/169 174/174/174 170/170/170 
f 170/170/170 174/174/174 175/175/175 
f 176/176/176 177/177/177 178/178/178 
f 178/178/178 179/179/179 176/176/176 
f 180/180/180 181/181/181 182/182/182 
f 181/181/181 180/180/180 183/183/183 
f 184/184/184 185/185/185 186/186/186 
f 186/186/186 187/187/187 184/184/184 
f 188/188/188 189/189/189 190/190/190 
f 189/189/189 188/188/188 191/191/191 
f 192/192/192 193/193/193 194/194/194 
f 193/193/193 192/192/192 195/195/195 
f 196/196/196 197/197/197 198/198/198 
f 196/196/196 198/198/198 199/199/199 
f 200/200/200 201/201/201 202/202/202 
f 203/203/203 204/204/204 205/205/205 
f 206/206/206 207/207/207 208/208/208 
f 209/209/209 207/207/207 206/206/206 
f 207/207/207 209/209/209 210/210/210 
f 211/211/211 210/210/210 209/209/209 
f 210/210/210 211/211/211 212/212/212 
f 213/213/213 214/214/214 215/215/215 
f 214/214/214 216/216/216 215/215/215 
f 216/216/216 214/214/214 217/217/217 
f 217/217/217 218/218/218 216/216/216 
f 218/218/218 217/217/217 219/219/219 
f 220/220/220 221/221/221 222/222/222 
f 220/220/220 222/222/222 223/223/223 
f 224/224/224 225/225/225 226/226/226 
f 225/225/225 224/224/224 227/227/227 
f 228/228/228 229/229/229 230/230/230 
f 230/230/230 231/231/231 228/228/228 
f 232/232/232 233/233/233 234/234/234 
f 233/233/233 232/232/232 235/235/235 
f 236/236/236 237/237/237 238/238/238 
f 238/238/238 239/239/239 236/236/236 
f 240/240/240 241/241/241 242/242/242 
f 241/241/241 240/240/240 243/243/243 
f 244/244/244 245/245/245 246/246/246 
f 247/247/247 248/248/248 249/249/249 
f 250/250/250 251/251/251 252/252/252 
f 251/251/251 250/250/250 253/253/253 
f 254/254/254 255/255/255 256/256/256 
f 256/256/256 257/257/257 254/254/254 
f 258/258/258 259/259/259 260/260/260 
f 259/259/259 258/258/258 261/261/261 
f 262/262/262 263/263/263 264/264/264 
f 262/262/262 264/264/264 265/265/265 
f 266/266/266 267/267/267 268/268/268 
f 266/266/266 268/268/268 269/269/269 
f 270/270/270 271/271/271 272/272/272 
f 271/271/271 270/270/270 273/273/273 
f 274/274/274 275/275/275 276/276/276 
f 277/277/277 275/275/275 274/274/274 
f 278/278/278 275/275/275 277/277/277 
f 275/275/275 279/279/279 276/276/276 
f 279/279/279 280/280/280 276/276/276 
f 280/280/280 279/279/279 281/281/281 
f 278/278/278 282/282/282 275/275/275 
f 282/282/282 279/279/279 275/275/275 
f 282/282/282 278/278/278 283/283/283 
f 284/284/284 282/282/282 283/283/283 
f 279/279/279 282/282/282 285/285/285 
f 284/284/284 285/285/285 282/282/282 
f 285/285/285 281/281/281 279/279/279 
f 284/284/284 286/286/286 285/285/285 
f 281/281/281 285/285/285 286/286/286 
f 287/287/287 288/288/288 289/289/289 
f 290/290/290 287/287/287 289/289/289 
f 291/291/291 290/290/290 289/289/289 
f 292/292/292 289/289/289 288/288/288 
f 293/293/293 292/292/292 288/288/288 
f 293/293/293 294/294/294 292/292/292 
f 291/291/291 289/289/289 295/295/295 
f 292/292/292 295/295/295 289/289/289 
f 296/296/296 291/291/291 295/295/295 
f 297/297/297 296/296/296 295/295/295 
f 295/295/295 292/292/292 298/298/298 
f 297/297/297 295/295/295 298/298/298 
f 294/294/294 298/298/298 292/292/292 
f 297/297/297 298/298/298 299/299/299 
f 294/294/294 299/299/299 298/298/298 
f 300/300/300 301/301/301 302/302/302 
f 301/301/301 300/300/300 303/303/303 
f 304/304/304 305/305/305 306/306/306 
f 305/305/305 304/304/304 307/307/307 
f 308/308/308 309/309/309 310/310/310 
f 309/309/309 308/308/308 311/311/311 
f 312/312/312 313/313/313 314/314/314 
f 313/313/313 315/315/315 314/314/314 
f 315/315/315 313/313/313 316/316/316 
f 316/316/316 317/317/317 315/315/315 
f 316/316/316 318/318/318 317/317/317 
f 317/317/317 318/318/318 319/319/319 
f 319/319/319 318/318/318 320/320/320 
f 321/321/321 319/319/319 320/320/320 
f 322/322/322 323/323/323 324/324/324 
f 323/323/323 322/322/322 325/325/325 
f 326/326/326 323/323/323 325/325/325 
f 326/326/326 325/325/325 327/327/327 
f 328/328/328 326/326/326 327/327/327 
f 328/328/328 327/327/327 329/329/329 
f 329/329/329 330/330/330 328/328/328 
f 330/330/330 329/329/329 331/331/331 
f 332/332/332 333/333/333 334/334/334 
f 333/333/333 332/332/332 335/335/335 
f 336/336/336 337/337/337 338/338/338 
f 336/336/336 338/338/338 339/339/339 
f 340/340/340 341/341/341 342/342/342 
f 341/341/341 340/340/340 343/343/343 
f 344/344/344 345/345/345 346/346/346 
f 345/345/345 344/344/344 347/347/347 
f 348/348/348 347/347/347 344/344/344 
f 347/347/347 348/348/348 349/349/349 
f 350/350/350 349/349/349 348/348/348 
f 351/351/351 352/352/352 353/353/353 
f 352/352/352 351/351/351 354/354/354 
f 355/355/355 356/356/356 357/357/357 
f 356/356/356 355/355/355 358/358/358 
f 359/359/359 360/360/360 361/361/361 
f 359/359/359 361/361/361 362/362/362 
f 363/363/363 364/364/364 365/365/365 
f 364/364/364 363/363/363 366/366/366 
f 367/367/367 368/368/368 369/369/369 
f 368/368/368 367/367/367 370/370/370 
f 371/371/371 372/372/372 373/373/373 
f 372/372/372 371/371/371 374/374/374 
f 375/375/375 376/376/376 377/377/377 
f 376/376/376 375/375/375 378/378/378 
f 379/379/379 380/380/380 381/381/381 
f 380/380/380 379/379/379 382/382/382 
f 383/383/383 384/384/384 385/385/385 
f 385/385/385 386/386/386 383/383/383 
f 387/387/387 388/388/388 389/389/389 
f 388/388/388 387/387/387 390/390/390 
f 391/391/391 392/392/392 393/393/393 
f 393/393/393 392/392/392 394/394/394 
f 395/395/395 396/396/396 397/397/397 
f 396/396/396 395/395/395 398/398/398 
f 399/399/399 400/400/400 401/401/401 
f 400/400/400 399/399/399 402/402/402 
f 402/402/402 403/403/403 400/400/400 
f 403/403/403 402/402/402 404/404/404 
f 403/403/403 404/404/404 405/405/405 
f 406/406/406 407/407/407 408/408/408 
f 407/407/407 406/406/406 409/409/409 
f 410/410/410 409/409/409 406/406/406 
f 411/411/411 409/409/409 410/410/410 
f 410/410/410 412/412/412 411/411/411 
f 413/413/413 414/414/414 415/415/415 
f 414/414/414 413/413/413 416/416/416 
f 417/417/417 418/418/418 419/419/419 
f 418/418/418 417/417/417 420/420/420 

