# This file is brought to you by Roblox Corporation
# Generated by Roblox Studio

mtllib whitepet.mtl

g Pet1

v -0.987325 0.721406 1.29532 
v -1.07891 0.369308 1.23299 
v -0.950689 0.397288 1.32025 
v -0.850655 0.467458 1.38832 
v -0.85104 0.675107 1.38806 
v -1.15438 0.418042 1.18164 
v -1.1173 0.883536 1.20687 
v -1.24817 0.407522 1.11781 
v -1.19762 1.08325 1.15222 
v -1.34269 0.449596 1.05349 
v -1.383 0.520281 1.02606 
v -1.3493 1.13879 1.049 
v -1.57571 0.59686 0.894927 
v -1.4746 0.535428 0.963735 
v -1.5724 1.16798 0.89718 
v -1.65338 0.850995 0.842075 
v -1.65045 0.730659 0.844069 
v -1.7222 0.900126 0.795241 
v -1.76904 0.994697 0.763366 
v -1.72372 1.15562 0.794209 
v -1.77354 1.09082 0.760304 
v 0.987325 0.678495 1.29532 
v 0.950689 0.354377 1.32025 
v 1.07891 0.326397 1.23299 
v 0.850655 0.424547 1.38832 
v 0.85104 0.632197 1.38806 
v 1.15438 0.375132 1.18164 
v 1.1173 0.840625 1.20687 
v 1.24817 0.364611 1.11781 
v 1.19762 1.04034 1.15222 
v 1.34269 0.406685 1.05349 
v 1.383 0.47737 1.02606 
v 1.3493 1.09588 1.049 
v 1.57571 0.553949 0.894927 
v 1.47459 0.492517 0.963735 
v 1.5724 1.12507 0.89718 
v 1.65338 0.808084 0.842075 
v 1.65045 0.687748 0.844069 
v 1.7222 0.857215 0.795242 
v 1.76904 0.951786 0.763366 
v 1.72372 1.11271 0.794209 
v 1.77354 1.04791 0.760304 
v 0.111976 -1.16798 1.06759 
v 0.506373 -1.16798 0.61217 
v 0.546823 -1.16798 1.02498 
v 0.0715259 -1.16798 0.654779 
v -0.52892 -1.16798 1.03101 
v -0.0575123 -1.16798 0.655877 
v -0.0936526 -1.16798 1.06908 
v -0.49278 -1.16798 0.617807 
v -0.498456 -1.16798 0.440716 
v -0.027048 -1.16798 0.0655787 
v -0.0631883 -1.16798 0.478786 
v -0.462316 -1.16798 0.0275086 
v 0.088632 -1.16798 0.477107 
v 0.475244 -1.16798 0.0150625 
v 0.522694 -1.16798 0.427125 
v 0.0411817 -1.16798 0.0650462 
v 0.00550203 -0.84857 -0.318712 
v -0.825323 -0.103721 -0.318712 
v 0.00549978 0.597387 -0.318855 
v -0.851805 0.616272 -0.318817 
v -0.851798 -0.825487 -0.318712 
v 0.83661 -0.103721 -0.318712 
v 0.862808 -0.825487 -0.318712 
v 0.8628 0.615154 -0.318885 
v 0.00550191 -0.951305 1.00978 
v 0.855307 -0.948807 1.12179 
v 0.00550188 -0.93822 1.39589 
v 0.862807 -0.91098 1.39589 
v -0.851798 -0.91098 1.39589 
v 0.848137 -0.959871 0.859508 
v -0.843968 -0.949343 0.903853 
v 0.00550194 -0.96476 0.640324 
v 0.855577 -0.922328 0.161797 
v -0.836468 -0.960922 0.433041 
v 0.00550199 -0.922328 0.0876092 
v 0.862808 -0.825487 -0.318712 
v -0.844568 -0.922328 0.0134214 
v 0.00550203 -0.84857 -0.318712 
v -0.851798 -0.825487 -0.318712 
v 0.855307 -0.948807 1.12179 
v 0.88902 -0.125336 1.39589 
v 0.862807 -0.91098 1.39589 
v 0.848137 -0.174228 0.859508 
v 0.848137 -0.959871 0.859508 
v 0.855577 -0.922328 0.161797 
v 0.848805 0.579019 0.857593 
v 0.86241 0.647487 1.3978 
v 0.83661 -0.103721 -0.318712 
v 0.862808 -0.825487 -0.318712 
v 0.8628 0.615154 -0.318885 
v -0.88494 -0.125336 1.39589 
v -0.843968 -0.949343 0.903853 
v -0.851798 -0.91098 1.39589 
v -0.836468 -0.175353 0.433033 
v -0.836468 -0.960922 0.433041 
v -0.844568 -0.922328 0.0134214 
v -0.836738 0.571287 0.433936 
v -0.85089 0.689734 1.39151 
v -0.825323 -0.103721 -0.318712 
v -0.851798 -0.825487 -0.318712 
v -0.851805 0.616272 -0.318817 
v -0.851798 -0.91098 1.39589 
v 0.00550188 -0.93822 1.39589 
v -0.88494 -0.125336 1.39589 
v 0.00575988 0.695532 1.39466 
v -0.85089 0.689734 1.39151 
v 0.88902 -0.125336 1.39589 
v 0.86241 0.647487 1.3978 
v 0.862807 -0.91098 1.39589 
v 0.85584 -0.0444785 1.3875 
v 1.0367 0.0729104 1.3875 
v 0.964762 0.101533 1.3875 
v 0.85584 0.0649154 1.3875 
v 1.07685 0.000160933 1.3875 
v 0.85584 -0.0444785 1.3875 
v 1.06252 -0.144908 1.3875 
v 0.85584 -0.293809 1.3875 
v 1.128 -0.201097 1.3875 
v 1.16211 -0.264999 1.3875 
v 0.85584 -0.293809 1.3875 
v 1.15558 -0.329045 1.3875 
v 1.09466 -0.416017 1.3875 
v 0.85584 -0.566769 1.3875 
v 1.15394 -0.504394 1.3875 
v 1.15924 -0.573115 1.3875 
v 0.85584 -0.566769 1.3875 
v 1.12592 -0.632288 1.3875 
v 1.06044 -0.70402 1.3875 
v 0.85584 -0.808811 1.3875 
v 1.06707 -0.843804 1.3875 
v 0.962827 -0.935286 1.3875 
v 1.03083 -0.912433 1.3875 
v 0.85584 -0.808811 1.3875 
v 0.85584 -0.905952 1.3875 
v -1.03551 0.0727341 1.3875 
v -0.853947 -0.0435608 1.3875 
v -0.963749 0.101791 1.3875 
v -0.854608 0.0658312 1.3875 
v -1.07523 -0.000256509 1.3875 
v -0.853947 -0.0435608 1.3875 
v -1.06002 -0.145236 1.3875 
v -0.852442 -0.292887 1.3875 
v -1.12516 -0.201819 1.3875 
v -1.15888 -0.265927 1.3875 
v -0.852442 -0.292887 1.3875 
v -1.15196 -0.329931 1.3875 
v -1.09052 -0.416534 1.3875 
v -0.850794 -0.565842 1.3875 
v -1.14927 -0.505268 1.3875 
v -1.15415 -0.574019 1.3875 
v -1.12048 -0.632991 1.3875 
v -0.850794 -0.565842 1.3875 
v -1.05456 -0.704325 1.3875 
v -0.849333 -0.80788 1.3875 
v -1.06035 -0.844147 1.3875 
v -0.955554 -0.934998 1.3875 
v -1.02369 -0.912556 1.3875 
v -0.849333 -0.80788 1.3875 
v -0.848746 -0.905019 1.3875 
v -0.85089 0.689734 1.39151 
v 0.00575988 0.695532 1.39466 
v 0.00564669 0.574362 0.638862 
v -0.836738 0.571287 0.433936 
v 0.848805 0.579019 0.857593 
v 0.86241 0.647487 1.3978 
v 0.8628 0.615154 -0.318885 
v 0.00549978 0.597387 -0.318855 
v -0.851805 0.616272 -0.318817 
v 0.0639098 0.539757 -0.446262 
v 0.0426066 0.565304 -0.596704 
v -0.0639097 0.539757 -0.446262 
v -0.085213 0.576543 -0.29582 
v 0.085213 0.576543 -0.29582 
v -0.0426065 0.565304 -0.596704 
v 0.0266845 0.635229 -0.705975 
v -0.0266844 0.635229 -0.705975 
v -0.462316 -1.16798 0.0275086 
v -0.0639263 -1.02042 0.0949262 
v -0.027048 -1.16798 0.0655787 
v -0.431092 -1.02042 0.0628126 
v -0.0719693 -0.854618 0.101326 
v -0.424282 -0.854618 0.0705122 
v 0.475244 -1.16798 0.0150625 
v 0.0411817 -1.16798 0.0650462 
v 0.0788505 -1.02042 0.0933715 
v 0.444998 -1.02042 0.0512087 
v 0.087066 -0.854618 0.0995492 
v 0.438403 -0.854618 0.059092 
v 0.444998 -1.02042 0.0512087 
v 0.485024 -1.02042 0.398798 
v 0.522694 -1.16798 0.427125 
v 0.475244 -1.16798 0.0150625 
v 0.438403 -0.854618 0.059092 
v 0.476809 -0.854618 0.392621 
v -0.498456 -1.16798 0.440716 
v -0.431092 -1.02042 0.0628126 
v -0.462316 -1.16798 0.0275086 
v -0.461578 -1.02042 0.411369 
v -0.424282 -0.854618 0.0705122 
v -0.453535 -0.854618 0.404969 
v 0.475519 -1.02042 0.647797 
v 0.50964 -1.02042 0.996016 
v 0.546823 -1.16798 1.02498 
v 0.506373 -1.16798 0.61217 
v 0.46879 -0.854618 0.655567 
v 0.501531 -0.854618 0.9897 
v -0.52892 -1.16798 1.03101 
v -0.461556 -1.02042 0.653111 
v -0.49278 -1.16798 0.617807 
v -0.492042 -1.02042 1.00167 
v -0.454747 -0.854618 0.66081 
v -0.483999 -0.854618 0.995267 
v 0.50964 -1.02042 0.996016 
v 0.14283 -1.02042 1.03196 
v 0.111976 -1.16798 1.06759 
v 0.546823 -1.16798 1.02498 
v 0.501531 -0.854618 0.9897 
v 0.149558 -0.854618 1.02419 
v -0.492042 -1.02042 1.00167 
v -0.0936526 -1.16798 1.06908 
v -0.124877 -1.02042 1.03378 
v -0.52892 -1.16798 1.03101 
v -0.483999 -0.854618 0.995267 
v -0.131686 -0.854618 1.02608 
v 0.477551 0.96215 -1.15879 
v -0.000466698 1.07867 -1.31812 
v 0.360811 1.06529 -1.29982 
v 0.186097 1.1342 -1.39405 
v 0.0804772 1.13009 -1.38842 
v 0.470455 0.89596 -1.06829 
v 0.383489 0.852019 -1.00821 
v -0.184665 1.13694 -1.3978 
v -0.0767655 1.13241 -1.3916 
v -0.363581 1.06637 -1.3013 
v -0.48313 0.960754 -1.15689 
v -0.475717 0.895777 -1.06804 
v -0.384423 0.852019 -1.00821 
v -0.000466995 0.625363 -0.698287 
v 0.471661 0.808992 -0.949373 
v -0.475717 0.80826 -0.948373 
v 0.479099 0.742353 -0.858253 
v -0.48313 0.743284 -0.859526 
v 0.361423 0.638389 -0.716098 
v -0.363582 0.637666 -0.71511 
v 0.185308 0.568923 -0.621113 
v 0.0724229 0.573058 -0.626768 
v -0.184665 0.567095 -0.618614 
v -0.0702602 0.571643 -0.624832 
v -0.49278 -1.16798 0.617807 
v -0.0943906 -1.02042 0.685224 
v -0.0575123 -1.16798 0.655877 
v -0.461556 -1.02042 0.653111 
v -0.102434 -0.854618 0.691625 
v -0.454747 -0.854618 0.66081 
v 0.506373 -1.16798 0.61217 
v 0.0715259 -1.16798 0.654779 
v 0.108709 -1.02042 0.68374 
v 0.475519 -1.02042 0.647797 
v 0.116818 -0.854618 0.690056 
v 0.46879 -0.854618 0.655567 
v 0.477551 0.968325 -1.15428 
v 0.360811 1.07146 -1.2953 
v -0.000466698 1.08485 -1.31361 
v 0.186097 1.14037 -1.38953 
v 0.0804772 1.13626 -1.38391 
v 0.470455 0.902134 -1.06377 
v 0.383489 0.858193 -1.00369 
v -0.0767655 1.13858 -1.38708 
v -0.184665 1.14312 -1.39328 
v -0.363581 1.07255 -1.29679 
v -0.48313 0.966929 -1.15237 
v -0.475717 0.901952 -1.06352 
v -0.384423 0.858193 -1.00369 
v -0.000466995 0.631538 -0.693771 
v 0.471661 0.815166 -0.944857 
v -0.475717 0.814435 -0.943857 
v 0.479099 0.748528 -0.853738 
v -0.48313 0.749458 -0.855011 
v 0.361423 0.644564 -0.711582 
v -0.363582 0.643841 -0.710594 
v 0.185308 0.575098 -0.616597 
v 0.0724229 0.579233 -0.622252 
v -0.184665 0.57327 -0.614098 
v -0.0702602 0.577818 -0.620317 
v -0.124877 -1.02042 1.03378 
v -0.0575123 -1.16798 0.655877 
v -0.0943906 -1.02042 0.685224 
v -0.0936526 -1.16798 1.06908 
v -0.131686 -0.854618 1.02608 
v -0.102434 -0.854618 0.691625 
v 0.14283 -1.02042 1.03196 
v 0.0715259 -1.16798 0.654779 
v 0.111976 -1.16798 1.06759 
v 0.108709 -1.02042 0.68374 
v 0.149558 -0.854618 1.02419 
v 0.116818 -0.854618 0.690056 
v -0.0944123 -1.02042 0.443482 
v -0.027048 -1.16798 0.0655787 
v -0.0639263 -1.02042 0.0949262 
v -0.0631883 -1.16798 0.478786 
v -0.101222 -0.854618 0.435783 
v -0.0719693 -0.854618 0.101326 
v 0.118877 -1.02042 0.440962 
v 0.0411817 -1.16798 0.0650462 
v 0.088632 -1.16798 0.477107 
v 0.0788505 -1.02042 0.0933715 
v 0.125473 -0.854618 0.433079 
v 0.087066 -0.854618 0.0995492 
v 0.485024 -1.02042 0.398798 
v 0.118877 -1.02042 0.440962 
v 0.088632 -1.16798 0.477107 
v 0.522694 -1.16798 0.427125 
v 0.476809 -0.854618 0.392621 
v 0.125473 -0.854618 0.433079 
v -0.461578 -1.02042 0.411369 
v -0.0631883 -1.16798 0.478786 
v -0.0944123 -1.02042 0.443482 
v -0.498456 -1.16798 0.440716 
v -0.453535 -0.854618 0.404969 
v -0.101222 -0.854618 0.435783 
v -0.0639097 0.532108 -0.446262 
v -0.0426065 0.557654 -0.596704 
v 0.0639098 0.532108 -0.446262 
v -0.085213 0.568893 -0.29582 
v 0.085213 0.568893 -0.29582 
v 0.0426066 0.557654 -0.596704 
v 0.0266845 0.63523 -0.706971 
v -0.0266844 0.63523 -0.706971 
v 0.85584 -0.0444785 1.37818 
v 1.0367 0.0729104 1.37818 
v 1.07685 0.000160933 1.37818 
v 0.964762 0.101533 1.37818 
v 0.85584 0.0649154 1.37818 
v 1.06252 -0.144908 1.37818 
v 0.85584 -0.293809 1.37818 
v 1.128 -0.201097 1.37818 
v 1.16211 -0.264999 1.37818 
v 1.15558 -0.329045 1.37818 
v 1.09466 -0.416017 1.37818 
v 0.85584 -0.566769 1.37818 
v 1.15394 -0.504394 1.37818 
v 1.15924 -0.573115 1.37818 
v 1.06044 -0.70402 1.37818 
v 0.85584 -0.808811 1.37818 
v 1.06707 -0.843804 1.37818 
v 0.962827 -0.935286 1.37818 
v 1.03083 -0.912433 1.37818 
v 0.85584 -0.566769 1.37818 
v 1.15924 -0.573115 1.37818 
v 1.12592 -0.632288 1.37818 
v 1.06044 -0.70402 1.37818 
v 0.85584 -0.808811 1.37818 
v 0.962827 -0.935286 1.37818 
v 0.85584 -0.905952 1.37818 
v -0.853947 -0.0435608 1.37818 
v -1.03551 0.0727341 1.37818 
v -0.963749 0.101791 1.37818 
v -1.07523 -0.000256509 1.37818 
v -0.853947 -0.0435608 1.37818 
v -1.06002 -0.145236 1.37818 
v -1.07523 -0.000256509 1.37818 
v -0.854608 0.0658312 1.37818 
v -0.853947 -0.0435608 1.37818 
v -0.963749 0.101791 1.37818 
v -0.852442 -0.292887 1.37818 
v -1.12516 -0.201819 1.37818 
v -1.06002 -0.145236 1.37818 
v -1.15888 -0.265927 1.37818 
v -0.853947 -0.0435608 1.37818 
v -0.850794 -0.565842 1.37818 
v -1.09052 -0.416534 1.37818 
v -1.14927 -0.505268 1.37818 
v -1.15415 -0.574019 1.37818 
v -0.852442 -0.292887 1.37818 
v -1.09052 -0.416534 1.37818 
v -1.15196 -0.329931 1.37818 
v -1.15888 -0.265927 1.37818 
v -0.850794 -0.565842 1.37818 
v -1.05456 -0.704325 1.37818 
v -1.12048 -0.632991 1.37818 
v -1.15415 -0.574019 1.37818 
v -1.05456 -0.704325 1.37818 
v -0.849333 -0.80788 1.37818 
v -1.06035 -0.844147 1.37818 
v -1.06035 -0.844147 1.37818 
v -0.955554 -0.934998 1.37818 
v -1.02369 -0.912556 1.37818 
v -0.849333 -0.80788 1.37818 
v -0.850794 -0.565842 1.37818 
v -0.849333 -0.80788 1.37818 
v -1.05456 -0.704325 1.37818 
v -0.849333 -0.80788 1.37818 
v -0.848746 -0.905019 1.37818 
v -0.955554 -0.934998 1.37818 
v 0.982994 0.678495 1.28895 
v 1.07458 0.326397 1.22663 
v 0.946358 0.354377 1.31388 
v 0.846324 0.424547 1.38196 
v 0.846709 0.632197 1.38169 
v 1.15005 0.375132 1.17527 
v 1.11297 0.840625 1.20051 
v 1.24384 0.364611 1.11145 
v 1.19329 1.04034 1.14585 
v 1.33836 0.406685 1.04713 
v 1.37867 0.47737 1.0197 
v 1.34497 1.09588 1.04263 
v 1.57138 0.553949 0.888563 
v 1.47026 0.492517 0.957371 
v 1.56807 1.12507 0.890816 
v 1.64905 0.808084 0.835711 
v 1.64612 0.687748 0.837705 
v 1.71787 0.857215 0.788878 
v 1.76471 0.951786 0.757002 
v 1.71939 1.11271 0.787845 
v 1.76921 1.04791 0.75394 
v -0.982994 0.721406 1.28895 
v -0.946358 0.397288 1.31388 
v -1.07458 0.369308 1.22663 
v -0.846325 0.467458 1.38196 
v -0.84671 0.675107 1.38169 
v -1.15005 0.418042 1.17527 
v -1.11297 0.883536 1.20051 
v -1.24384 0.407522 1.11145 
v -1.19329 1.08325 1.14585 
v -1.33836 0.449596 1.04713 
v -1.37867 0.520281 1.0197 
v -1.34497 1.13879 1.04263 
v -1.57138 0.59686 0.888563 
v -1.47026 0.535428 0.957371 
v -1.56807 1.16798 0.890816 
v -1.64905 0.850995 0.835711 
v -1.64612 0.730659 0.837705 
v -1.71787 0.900126 0.788877 
v -1.76471 0.994697 0.757002 
v -1.71939 1.15562 0.787845 
v -1.76921 1.09082 0.75394 

vn -0.559055 0 0.826772 
vn -0.559055 0 0.826772 
vn -0.559055 0 0.826772 
vn -0.559055 0 0.826772 
vn -0.559055 0 0.826772 
vn -0.559055 0 0.826772 
vn -0.559055 0 0.826772 
vn -0.559055 0 0.826772 
vn -0.559055 0 0.826772 
vn -0.559055 0 0.826772 
vn -0.559055 0 0.826772 
vn -0.559055 0 0.826772 
vn -0.559055 0 0.826772 
vn -0.559055 0 0.826772 
vn -0.559055 0 0.826772 
vn -0.559055 0 0.826772 
vn -0.559055 0 0.826772 
vn -0.559055 0 0.826772 
vn -0.559055 0 0.826772 
vn -0.559055 0 0.826772 
vn -0.559055 0 0.826772 
vn 0.559055 0 0.826772 
vn 0.559055 0 0.826772 
vn 0.559055 0 0.826772 
vn 0.559055 0 0.826772 
vn 0.559055 0 0.826772 
vn 0.559055 0 0.826772 
vn 0.559055 0 0.826772 
vn 0.559055 0 0.826772 
vn 0.559055 0 0.826772 
vn 0.559055 0 0.826772 
vn 0.559055 0 0.826772 
vn 0.559055 0 0.826772 
vn 0.559055 0 0.826772 
vn 0.559055 0 0.826772 
vn 0.559055 0 0.826772 
vn 0.559055 0 0.826772 
vn 0.559055 0 0.826772 
vn 0.559055 0 0.826772 
vn 0.559055 0 0.826772 
vn 0.559055 0 0.826772 
vn 0.559055 0 0.826772 
vn 0 -1 0 
vn 0 -1 0 
vn 0 -1 0 
vn 0 -1 0 
vn 0 -1 0 
vn 0 -1 0 
vn 0 -1 0 
vn 0 -1 0 
vn 0 -1 0 
vn 0 -1 0 
vn 0 -1 0 
vn 0 -1 0 
vn 0 -1 0 
vn 0 -1 0 
vn 0 -1 0 
vn 0 -1 0 
vn 0 0 -1 
vn 0 0 -1 
vn 0 0 -1 
vn 0 0 -1 
vn 0 0 -1 
vn 0 0 -1 
vn 0 0 -1 
vn 0 0 -1 
vn -0.00787402 -1 0.0551181 
vn 0.00787402 -1 0.0551181 
vn -0.00787402 -1 0.0708661 
vn 0.015748 -1 0.0787402 
vn -0.023622 -1 0.0551181 
vn 0.00787402 -1 -0.015748 
vn -0.015748 -1 0.0472441 
vn 0 -1 -0.023622 
vn 0.015748 -0.992126 -0.125984 
vn 0 -1 -0.023622 
vn 0.00787402 -0.992126 -0.141732 
vn 0.023622 -0.984252 -0.188976 
vn 0.00787402 -0.984252 -0.15748 
vn 0.00787402 -0.976378 -0.204724 
vn 0 -0.976378 -0.228346 
vn 1 -0.00787402 -0.0393701 
vn 1 0 -0.0551181 
vn 1 -0.023622 -0.0551181 
vn 1 0 -0.023622 
vn 1 0 -0.00787402 
vn 1 0.00787402 0.00787402 
vn 1 0 -0.023622 
vn 1 0.015748 -0.0551181 
vn 1 0 0 
vn 1 0.023622 0 
vn 1 -0.015748 0 
vn -1 0 -0.0393701 
vn -1 -0.015748 -0.023622 
vn -1 -0.0314961 -0.0393701 
vn -1 0 -0.00787402 
vn -1 0 0 
vn -1 0.015748 0.00787402 
vn -1 0 -0.015748 
vn -1 0.023622 -0.0314961 
vn -1 0 0 
vn -1 0.023622 0 
vn -1 -0.015748 0 
vn 0 0 1 
vn 0 0 1 
vn 0 0 1 
vn 0 0 1 
vn 0 0 1 
vn 0 0 1 
vn 0 0 1 
vn 0 0 1 
vn 0 0 1 
vn 0 0 1 
vn 0 0 1 
vn 0 0 1 
vn 0 0 1 
vn 0 0 1 
vn 0 0 1 
vn 0 0 1 
vn 0 0 1 
vn 0 0 1 
vn 0 0 1 
vn 0 0 1 
vn 0 0 1 
vn 0 0 1 
vn 0 0 1 
vn 0 0 1 
vn 0 0 1 
vn 0 0 1 
vn 0 0 1 
vn 0 0 1 
vn 0 0 1 
vn 0 0 1 
vn 0 0 1 
vn 0 0 1 
vn 0 0 1 
vn 0 0 1 
vn 0 0 1 
vn 0 0 1 
vn 0 0 1 
vn 0 0 1 
vn 0 0 1 
vn 0 0 1 
vn 0 0 1 
vn 0 0 1 
vn 0 0 1 
vn 0 0 1 
vn 0 0 1 
vn 0 0 1 
vn 0 0 1 
vn 0 0 1 
vn 0 0 1 
vn 0 0 1 
vn 0 0 1 
vn 0 0 1 
vn 0 0 1 
vn 0 0 1 
vn 0 0 1 
vn 0 0 1 
vn 0 0 1 
vn 0 0 1 
vn 0.015748 0.992126 -0.141732 
vn 0.0314961 0.992126 -0.141732 
vn 0.00787402 1 -0.0551181 
vn 0.00787402 1 -0.0472441 
vn 0.015748 1 -0.0629921 
vn 0.0472441 0.992126 -0.141732 
vn -0.015748 1 0.0314961 
vn -0.00787402 1 0.0314961 
vn 0.00787402 1 0.0393701 
vn 0 0.992126 -0.0866142 
vn 0 0.96063 0.291339 
vn 0 0.992126 -0.0866142 
vn 0 0.968504 -0.23622 
vn 0 0.968504 -0.23622 
vn 0 0.96063 0.291339 
vn 0 0.84252 0.535433 
vn 0 0.84252 0.535433 
vn 0.0866142 0.212598 -0.976378 
vn 0.0866142 0.125984 -0.984252 
vn -0.015748 0.212598 -0.976378 
vn 0.0866142 0.125984 -0.984252 
vn 0.0866142 0.0393701 -0.992126 
vn 0.0866142 0.0393701 -0.992126 
vn -0.110236 0.212598 -0.968504 
vn -0.015748 0.212598 -0.976378 
vn -0.110236 0.125984 -0.984252 
vn -0.110236 0.125984 -0.984252 
vn -0.110236 0.0393701 -0.992126 
vn -0.110236 0.0393701 -0.992126 
vn 0.984252 0.133858 -0.110236 
vn 0.984252 0.133858 -0.110236 
vn 0.968504 0.228346 -0.110236 
vn 0.968504 0.228346 -0.110236 
vn 0.992126 0.0472441 -0.110236 
vn 0.992126 0.0472441 -0.110236 
vn -0.968504 0.228346 -0.0866142 
vn -0.984252 0.133858 -0.0866142 
vn -0.968504 0.228346 -0.0866142 
vn -0.984252 0.133858 -0.0866142 
vn -0.992126 0.0472441 -0.0866142 
vn -0.992126 0.0472441 -0.0866142 
vn 0.984252 0.133858 -0.0944882 
vn 0.984252 0.133858 -0.0944882 
vn 0.968504 0.228346 -0.0944882 
vn 0.968504 0.228346 -0.0944882 
vn 0.992126 0.0472441 -0.0944882 
vn 0.992126 0.0472441 -0.0944882 
vn -0.968504 0.228346 -0.0866142 
vn -0.984252 0.133858 -0.0866142 
vn -0.968504 0.228346 -0.0866142 
vn -0.984252 0.133858 -0.0866142 
vn -0.992126 0.0472441 -0.0866142 
vn -0.992126 0.0472441 -0.0866142 
vn 0.0944882 0.125984 0.984252 
vn 0.0944882 0.125984 0.984252 
vn 0.0944882 0.212598 0.968504 
vn 0.0944882 0.212598 0.968504 
vn 0.0944882 0.0393701 0.992126 
vn 0.0944882 0.0393701 0.992126 
vn -0.0866142 0.125984 0.984252 
vn -0.0866142 0.212598 0.976378 
vn -0.0866142 0.125984 0.984252 
vn -0.0866142 0.212598 0.976378 
vn -0.0866142 0.0393701 0.992126 
vn -0.0866142 0.0393701 0.992126 
vn 0 -0.811024 -0.590551 
vn 0 -0.811024 -0.590551 
vn 0 -0.811024 -0.590551 
vn 0 -0.811024 -0.590551 
vn 0 -0.811024 -0.590551 
vn 0 -0.811024 -0.590551 
vn 0 -0.811024 -0.590551 
vn 0 -0.811024 -0.590551 
vn 0 -0.811024 -0.590551 
vn 0 -0.811024 -0.590551 
vn 0 -0.811024 -0.590551 
vn 0 -0.811024 -0.590551 
vn 0 -0.811024 -0.590551 
vn 0 -0.811024 -0.590551 
vn 0 -0.811024 -0.590551 
vn 0 -0.811024 -0.590551 
vn 0 -0.811024 -0.590551 
vn 0 -0.811024 -0.590551 
vn 0 -0.811024 -0.590551 
vn 0 -0.811024 -0.590551 
vn 0 -0.811024 -0.590551 
vn 0 -0.811024 -0.590551 
vn 0 -0.811024 -0.590551 
vn 0 -0.811024 -0.590551 
vn 0.0866142 0.212598 -0.976378 
vn 0.0866142 0.125984 -0.984252 
vn 0.0866142 0.212598 -0.976378 
vn 0.0866142 0.125984 -0.984252 
vn 0.0866142 0.0393701 -0.992126 
vn 0.0866142 0.0393701 -0.992126 
vn -0.0944882 0.212598 -0.968504 
vn -0.0944882 0.212598 -0.968504 
vn -0.0944882 0.125984 -0.984252 
vn -0.0944882 0.125984 -0.984252 
vn -0.0944882 0.0393701 -0.992126 
vn -0.0944882 0.0393701 -0.992126 
vn 0 0.811024 0.590551 
vn 0 0.811024 0.590551 
vn 0 0.811024 0.590551 
vn 0 0.811024 0.590551 
vn 0 0.811024 0.590551 
vn 0 0.811024 0.590551 
vn 0 0.811024 0.590551 
vn 0 0.811024 0.590551 
vn 0 0.811024 0.590551 
vn 0 0.811024 0.590551 
vn 0 0.811024 0.590551 
vn 0 0.811024 0.590551 
vn 0 0.811024 0.590551 
vn 0 0.811024 0.590551 
vn 0 0.811024 0.590551 
vn 0 0.811024 0.590551 
vn 0 0.811024 0.590551 
vn 0 0.811024 0.590551 
vn 0 0.811024 0.590551 
vn 0 0.811024 0.590551 
vn 0 0.811024 0.590551 
vn 0 0.811024 0.590551 
vn 0 0.811024 0.590551 
vn 0 0.811024 0.590551 
vn 0.984252 0.133858 0.0866142 
vn 0.968504 0.228346 0.0866142 
vn 0.984252 0.133858 0.0866142 
vn 0.968504 0.228346 0.0866142 
vn 0.992126 0.0472441 0.0866142 
vn 0.992126 0.0472441 0.0866142 
vn -0.984252 0.133858 0.0944882 
vn -0.968504 0.228346 0.0944882 
vn -0.968504 0.228346 0.0944882 
vn -0.984252 0.133858 0.0944882 
vn -0.992126 0.0472441 0.0944882 
vn -0.992126 0.0472441 0.0944882 
vn 0.984252 0.133858 0.0866142 
vn 0.968504 0.228346 0.0866142 
vn 0.984252 0.133858 0.0866142 
vn 0.968504 0.228346 0.0866142 
vn 0.992126 0.0472441 0.0866142 
vn 0.992126 0.0472441 0.0866142 
vn -0.984252 0.133858 0.110236 
vn -0.968504 0.228346 0.110236 
vn -0.968504 0.228346 0.110236 
vn -0.984252 0.133858 0.110236 
vn -0.992126 0.0472441 0.110236 
vn -0.992126 0.0472441 0.110236 
vn 0.110236 0.125984 0.984252 
vn 0.110236 0.125984 0.984252 
vn 0.110236 0.212598 0.968504 
vn 0.110236 0.212598 0.968504 
vn 0.110236 0.0393701 0.992126 
vn 0.110236 0.0393701 0.992126 
vn -0.0866142 0.125984 0.984252 
vn -0.0866142 0.212598 0.976378 
vn -0.0866142 0.125984 0.984252 
vn -0.0866142 0.212598 0.976378 
vn -0.0866142 0.0393701 0.992126 
vn -0.0866142 0.0393701 0.992126 
vn 0 -0.992126 0.0866142 
vn 0 -0.952756 -0.307087 
vn 0 -0.992126 0.0866142 
vn 0 -0.968504 0.23622 
vn 0 -0.968504 0.23622 
vn 0 -0.952756 -0.307087 
vn 0 -0.818898 -0.574803 
vn 0 -0.818898 -0.574803 
vn 0 0 -1 
vn 0 0 -1 
vn 0 0 -1 
vn 0 0 -1 
vn 0 0 -1 
vn 0 0 -1 
vn 0 0 -1 
vn 0 0 -1 
vn 0 0 -1 
vn 0 0 -1 
vn 0 0 -1 
vn 0 0 -1 
vn 0 0 -1 
vn 0 0 -1 
vn 0 0 -1 
vn 0 0 -1 
vn 0 0 -1 
vn 0 0 -1 
vn 0 0 -1 
vn 0 0 -1 
vn 0 0 -1 
vn 0 0 -1 
vn 0 0 -1 
vn 0 0 -1 
vn 0 0 -1 
vn 0 0 -1 
vn 0 0 -1 
vn 0 0 -1 
vn 0 0 -1 
vn 0 0 -1 
vn 0 0 -1 
vn 0 0 -1 
vn 0 0 -1 
vn 0 0 -1 
vn 0 0 -1 
vn 0 0 -1 
vn 0 0 -1 
vn 0 0 -1 
vn 0 0 -1 
vn 0 0 -1 
vn 0 0 -1 
vn 0 0 -1 
vn 0 0 -1 
vn 0 0 -1 
vn 0 0 -1 
vn 0 0 -1 
vn 0 0 -1 
vn 0 0 -1 
vn 0 0 -1 
vn 0 0 -1 
vn 0 0 -1 
vn 0 0 -1 
vn 0 0 -1 
vn 0 0 -1 
vn 0 0 -1 
vn 0 0 -1 
vn 0 0 -1 
vn 0 0 -1 
vn 0 0 -1 
vn 0 0 -1 
vn 0 0 -1 
vn 0 0 -1 
vn 0 0 -1 
vn 0 0 -1 
vn 0 0 -1 
vn 0 0 -1 
vn -0.559055 0 -0.826772 
vn -0.559055 0 -0.826772 
vn -0.559055 0 -0.826772 
vn -0.559055 0 -0.826772 
vn -0.559055 0 -0.826772 
vn -0.559055 0 -0.826772 
vn -0.559055 0 -0.826772 
vn -0.559055 0 -0.826772 
vn -0.559055 0 -0.826772 
vn -0.559055 0 -0.826772 
vn -0.559055 0 -0.826772 
vn -0.559055 0 -0.826772 
vn -0.559055 0 -0.826772 
vn -0.559055 0 -0.826772 
vn -0.559055 0 -0.826772 
vn -0.559055 0 -0.826772 
vn -0.559055 0 -0.826772 
vn -0.559055 0 -0.826772 
vn -0.559055 0 -0.826772 
vn -0.559055 0 -0.826772 
vn -0.559055 0 -0.826772 
vn 0.559055 0 -0.826772 
vn 0.559055 0 -0.826772 
vn 0.559055 0 -0.826772 
vn 0.559055 0 -0.826772 
vn 0.559055 0 -0.826772 
vn 0.559055 0 -0.826772 
vn 0.559055 0 -0.826772 
vn 0.559055 0 -0.826772 
vn 0.559055 0 -0.826772 
vn 0.559055 0 -0.826772 
vn 0.559055 0 -0.826772 
vn 0.559055 0 -0.826772 
vn 0.559055 0 -0.826772 
vn 0.559055 0 -0.826772 
vn 0.559055 0 -0.826772 
vn 0.559055 0 -0.826772 
vn 0.559055 0 -0.826772 
vn 0.559055 0 -0.826772 
vn 0.559055 0 -0.826772 
vn 0.559055 0 -0.826772 
vn 0.559055 0 -0.826772 

vt 0.423719 0.556607 
vt 0.442859 0.469684 
vt 0.406199 0.479695 
vt 0.378624 0.499117 
vt 0.383141 0.548984 
vt 0.46582 0.479454 
vt 0.46492 0.592215 
vt 0.492845 0.47452 
vt 0.492492 0.638125 
vt 0.5212 0.482201 
vt 0.53441 0.498145 
vt 0.537739 0.647573 
vt 0.592023 0.511594 
vt 0.561343 0.499433 
vt 0.603177 0.648861 
vt 0.61998 0.570643 
vt 0.616575 0.541814 
vt 0.641017 0.580678 
vt 0.656633 0.602192 
vt 0.646878 0.642008 
vt 0.65998 0.625165 
vt 0.423719 0.556607 
vt 0.406199 0.479695 
vt 0.442859 0.469684 
vt 0.378624 0.499117 
vt 0.383141 0.548984 
vt 0.46582 0.479454 
vt 0.46492 0.592215 
vt 0.492845 0.47452 
vt 0.492492 0.638125 
vt 0.5212 0.482201 
vt 0.53441 0.498145 
vt 0.537739 0.647573 
vt 0.592023 0.511594 
vt 0.561343 0.499433 
vt 0.603177 0.648861 
vt 0.61998 0.570643 
vt 0.616575 0.541814 
vt 0.641017 0.580678 
vt 0.656633 0.602192 
vt 0.646878 0.642008 
vt 0.65998 0.625165 
vt 0.901369 0.916183 
vt 0.813021 0.84004 
vt 0.893507 0.833102 
vt 0.821116 0.925618 
vt 0.893507 0.833102 
vt 0.821116 0.925618 
vt 0.901369 0.916183 
vt 0.813044 0.840236 
vt 0.813021 0.84004 
vt 0.901369 0.916183 
vt 0.821116 0.925618 
vt 0.893507 0.833102 
vt 0.821116 0.925618 
vt 0.893507 0.833102 
vt 0.813021 0.84004 
vt 0.901369 0.916183 
vt 0.707272 0.182523 
vt 0.851696 0.019612 
vt 0.989469 0.182357 
vt 0.992848 0.014168 
vt 0.709917 0.015226 
vt 0.851785 0.345268 
vt 0.710056 0.349963 
vt 0.992703 0.350493 
vt 0.446358 0.183287 
vt 0.425227 0.34988 
vt 0.37072 0.183478 
vt 0.371095 0.351656 
vt 0.370517 0.015319 
vt 0.47667 0.348276 
vt 0.467107 0.016848 
vt 0.518679 0.183061 
vt 0.613751 0.349159 
vt 0.559311 0.018068 
vt 0.626817 0.182752 
vt 0.710056 0.349963 
vt 0.64196 0.016368 
vt 0.707272 0.182523 
vt 0.709917 0.015226 
vt 0.399182 0.672452 
vt 0.347865 0.831212 
vt 0.346049 0.680053 
vt 0.450833 0.822082 
vt 0.449993 0.670323 
vt 0.585023 0.677583 
vt 0.449837 0.967866 
vt 0.34442 0.979749 
vt 0.677959 0.835995 
vt 0.677831 0.696274 
vt 0.677702 0.975151 
vt 0.355903 0.171636 
vt 0.254673 0.012641 
vt 0.351848 0.017046 
vt 0.165985 0.169129 
vt 0.162319 0.013066 
vt 0.080291 0.022033 
vt 0.169237 0.320271 
vt 0.362213 0.330025 
vt 0.018462 0.183941 
vt 0.014968 0.042101 
vt 0.017859 0.323063 
vt 0.014233 0.677588 
vt 0.179778 0.673126 
vt 0.006941 0.829242 
vt 0.17801 0.988948 
vt 0.012408 0.986674 
vt 0.347865 0.831212 
vt 0.34442 0.979749 
vt 0.346049 0.680053 
vt 0.839178 0.566177 
vt 0.877881 0.591299 
vt 0.862487 0.597424 
vt 0.839178 0.589588 
vt 0.886474 0.57573 
vt 0.839178 0.566177 
vt 0.883408 0.544685 
vt 0.839178 0.512821 
vt 0.89742 0.532661 
vt 0.90472 0.518986 
vt 0.839178 0.512821 
vt 0.903321 0.50528 
vt 0.890286 0.486668 
vt 0.839178 0.454407 
vt 0.902971 0.467755 
vt 0.904104 0.453049 
vt 0.839178 0.454407 
vt 0.896975 0.440386 
vt 0.882961 0.425035 
vt 0.839178 0.40261 
vt 0.884382 0.395122 
vt 0.862073 0.375544 
vt 0.876625 0.380435 
vt 0.839178 0.40261 
vt 0.839178 0.381822 
vt 0.877881 0.591299 
vt 0.839178 0.566177 
vt 0.862487 0.597424 
vt 0.839178 0.589588 
vt 0.886474 0.57573 
vt 0.839178 0.566177 
vt 0.883408 0.544685 
vt 0.839178 0.512821 
vt 0.89742 0.532661 
vt 0.90472 0.518986 
vt 0.839178 0.512821 
vt 0.903321 0.50528 
vt 0.890286 0.486668 
vt 0.839178 0.454407 
vt 0.902971 0.467755 
vt 0.904104 0.453049 
vt 0.896975 0.440386 
vt 0.839178 0.454407 
vt 0.882961 0.425035 
vt 0.839178 0.40261 
vt 0.884382 0.395122 
vt 0.862073 0.375544 
vt 0.876625 0.380435 
vt 0.839178 0.40261 
vt 0.839178 0.381822 
vt 0.362213 0.330025 
vt 0.356964 0.496741 
vt 0.205935 0.491441 
vt 0.169237 0.320271 
vt 0.245218 0.659681 
vt 0.352497 0.665405 
vt 0.013892 0.658002 
vt 0.017666 0.48936 
vt 0.017859 0.323063 
vt 0.80788 0.599846 
vt 0.802723 0.619696 
vt 0.776818 0.599877 
vt 0.771621 0.580037 
vt 0.813038 0.579996 
vt 0.782014 0.619717 
vt 0.797565 0.639546 
vt 0.787211 0.639556 
vt 0.893507 0.833102 
vt 0.930436 0.908734 
vt 0.901369 0.916183 
vt 0.923212 0.834514 
vt 0.962322 0.902212 
vt 0.955391 0.834961 
vt 0.893507 0.833102 
vt 0.901369 0.916183 
vt 0.930436 0.908734 
vt 0.923212 0.834514 
vt 0.962322 0.902212 
vt 0.955391 0.834961 
vt 0.923212 0.834514 
vt 0.933036 0.765791 
vt 0.904609 0.757308 
vt 0.893507 0.833102 
vt 0.955391 0.834961 
vt 0.964389 0.773823 
vt 0.904609 0.757308 
vt 0.923212 0.834514 
vt 0.893507 0.833102 
vt 0.933036 0.765791 
vt 0.955391 0.834961 
vt 0.964389 0.773823 
vt 0.933036 0.765791 
vt 0.923212 0.834514 
vt 0.893507 0.833102 
vt 0.904609 0.757308 
vt 0.964389 0.773823 
vt 0.955391 0.834961 
vt 0.893507 0.833102 
vt 0.933036 0.765791 
vt 0.904609 0.757308 
vt 0.923212 0.834514 
vt 0.964389 0.773823 
vt 0.955391 0.834961 
vt 0.923212 0.834514 
vt 0.930436 0.908734 
vt 0.901369 0.916183 
vt 0.893507 0.833102 
vt 0.955391 0.834961 
vt 0.962322 0.902212 
vt 0.923212 0.834514 
vt 0.901369 0.916183 
vt 0.930436 0.908734 
vt 0.893507 0.833102 
vt 0.955391 0.834961 
vt 0.962322 0.902212 
vt 0.804441 0.958755 
vt 0.749179 0.98146 
vt 0.790919 0.978914 
vt 0.770712 0.992365 
vt 0.758512 0.991538 
vt 0.803644 0.9458 
vt 0.793613 0.937183 
vt 0.72788 0.992826 
vt 0.740346 0.99196 
vt 0.707236 0.978979 
vt 0.693462 0.958285 
vt 0.69434 0.945571 
vt 0.704902 0.937027 
vt 0.749336 0.89275 
vt 0.803813 0.928781 
vt 0.694371 0.928445 
vt 0.804696 0.915742 
vt 0.693537 0.915727 
vt 0.791138 0.895373 
vt 0.707384 0.895083 
vt 0.770817 0.881742 
vt 0.757774 0.882529 
vt 0.728077 0.881309 
vt 0.741292 0.882222 
vt 0.904609 0.757308 
vt 0.962256 0.697477 
vt 0.937923 0.679496 
vt 0.933036 0.765791 
vt 0.991562 0.710431 
vt 0.964389 0.773823 
vt 0.904609 0.757308 
vt 0.937923 0.679496 
vt 0.962256 0.697477 
vt 0.933036 0.765791 
vt 0.991562 0.710431 
vt 0.964389 0.773823 
vt 0.885524 0.757633 
vt 0.862646 0.791743 
vt 0.792022 0.796051 
vt 0.828455 0.814501 
vt 0.807813 0.813102 
vt 0.884176 0.735714 
vt 0.867203 0.721134 
vt 0.777077 0.813816 
vt 0.755984 0.81528 
vt 0.721053 0.791852 
vt 0.697748 0.756839 
vt 0.699235 0.735327 
vt 0.717105 0.720869 
vt 0.792287 0.645952 
vt 0.884463 0.706918 
vt 0.699286 0.706348 
vt 0.885956 0.684855 
vt 0.697875 0.684831 
vt 0.863015 0.650391 
vt 0.721304 0.649901 
vt 0.828632 0.627329 
vt 0.806565 0.628659 
vt 0.756317 0.626595 
vt 0.778676 0.628141 
vt 0.930436 0.908734 
vt 0.928145 0.990732 
vt 0.953234 0.974424 
vt 0.901369 0.916183 
vt 0.962322 0.902212 
vt 0.983516 0.963033 
vt 0.930436 0.908734 
vt 0.928145 0.990732 
vt 0.901369 0.916183 
vt 0.953234 0.974424 
vt 0.962322 0.902212 
vt 0.983516 0.963033 
vt 0.953234 0.974424 
vt 0.901369 0.916183 
vt 0.930436 0.908734 
vt 0.928145 0.990732 
vt 0.983516 0.963033 
vt 0.962322 0.902212 
vt 0.953234 0.974424 
vt 0.901369 0.916183 
vt 0.928145 0.990732 
vt 0.930436 0.908734 
vt 0.983516 0.963033 
vt 0.962322 0.902212 
vt 0.933036 0.765791 
vt 0.962256 0.697477 
vt 0.937923 0.679496 
vt 0.904609 0.757308 
vt 0.964389 0.773823 
vt 0.991562 0.710431 
vt 0.933036 0.765791 
vt 0.937923 0.679496 
vt 0.962256 0.697477 
vt 0.904609 0.757308 
vt 0.964389 0.773823 
vt 0.991562 0.710431 
vt 0.740193 0.865518 
vt 0.743265 0.877244 
vt 0.758552 0.8655 
vt 0.737122 0.853792 
vt 0.7616 0.853768 
vt 0.755504 0.877232 
vt 0.752456 0.888963 
vt 0.746336 0.888969 
vt 0.924814 0.566177 
vt 0.963517 0.591299 
vt 0.972111 0.57573 
vt 0.948124 0.597424 
vt 0.924814 0.589588 
vt 0.969044 0.544685 
vt 0.924814 0.512821 
vt 0.983057 0.532661 
vt 0.990357 0.518986 
vt 0.988958 0.50528 
vt 0.975922 0.486668 
vt 0.924814 0.454407 
vt 0.988608 0.467755 
vt 0.989741 0.453049 
vt 0.968598 0.425035 
vt 0.924814 0.40261 
vt 0.970018 0.395122 
vt 0.94771 0.375544 
vt 0.962262 0.380435 
vt 0.924814 0.454407 
vt 0.989741 0.453049 
vt 0.982612 0.440386 
vt 0.968598 0.425035 
vt 0.924814 0.40261 
vt 0.94771 0.375544 
vt 0.924814 0.381822 
vt 0.924814 0.566177 
vt 0.963517 0.591299 
vt 0.948124 0.597424 
vt 0.972111 0.57573 
vt 0.924814 0.566177 
vt 0.969044 0.544685 
vt 0.972111 0.57573 
vt 0.924814 0.589588 
vt 0.924814 0.566177 
vt 0.948124 0.597424 
vt 0.924814 0.512821 
vt 0.983057 0.532661 
vt 0.969044 0.544685 
vt 0.990357 0.518986 
vt 0.924814 0.566177 
vt 0.924814 0.454407 
vt 0.975922 0.486668 
vt 0.988608 0.467755 
vt 0.989741 0.453049 
vt 0.924814 0.512821 
vt 0.975922 0.486668 
vt 0.988958 0.50528 
vt 0.990357 0.518986 
vt 0.924814 0.454407 
vt 0.968598 0.425035 
vt 0.982612 0.440386 
vt 0.989741 0.453049 
vt 0.968598 0.425035 
vt 0.924814 0.40261 
vt 0.970018 0.395122 
vt 0.970018 0.395122 
vt 0.94771 0.375544 
vt 0.962262 0.380435 
vt 0.924814 0.40261 
vt 0.924814 0.454407 
vt 0.924814 0.40261 
vt 0.968598 0.425035 
vt 0.924814 0.40261 
vt 0.924814 0.381822 
vt 0.94771 0.375544 
vt 0.584791 0.469442 
vt 0.603931 0.382519 
vt 0.567271 0.39253 
vt 0.539696 0.411952 
vt 0.544213 0.461819 
vt 0.626892 0.392289 
vt 0.625992 0.50505 
vt 0.653917 0.387355 
vt 0.653564 0.550961 
vt 0.682272 0.395036 
vt 0.695482 0.41098 
vt 0.698811 0.560408 
vt 0.753095 0.424429 
vt 0.722415 0.412268 
vt 0.764249 0.561696 
vt 0.781052 0.483478 
vt 0.777647 0.454649 
vt 0.802089 0.493514 
vt 0.817705 0.515027 
vt 0.80795 0.554843 
vt 0.821052 0.538001 
vt 0.584791 0.469442 
vt 0.567271 0.39253 
vt 0.603931 0.382519 
vt 0.539696 0.411952 
vt 0.544213 0.461819 
vt 0.626892 0.392289 
vt 0.625992 0.50505 
vt 0.653917 0.387355 
vt 0.653564 0.550961 
vt 0.682272 0.395036 
vt 0.695482 0.41098 
vt 0.698811 0.560408 
vt 0.753095 0.424429 
vt 0.722415 0.412268 
vt 0.764249 0.561696 
vt 0.781052 0.483478 
vt 0.777647 0.454649 
vt 0.802089 0.493514 
vt 0.817705 0.515027 
vt 0.80795 0.554843 
vt 0.821052 0.538001 

usemtl Pet1Mtl

f 1/1/1 2/2/2 3/3/3 
f 1/1/1 3/3/3 4/4/4 
f 1/1/1 4/4/4 5/5/5 
f 1/1/1 6/6/6 2/2/2 
f 7/7/7 6/6/6 1/1/1 
f 7/7/7 8/8/8 6/6/6 
f 8/8/8 7/7/7 9/9/9 
f 10/10/10 8/8/8 9/9/9 
f 10/10/10 9/9/9 11/11/11 
f 12/12/12 11/11/11 9/9/9 
f 12/12/12 13/13/13 11/11/11 
f 11/11/11 13/13/13 14/14/14 
f 15/15/15 13/13/13 12/12/12 
f 13/13/13 15/15/15 16/16/16 
f 13/13/13 16/16/16 17/17/17 
f 15/15/15 18/18/18 16/16/16 
f 18/18/18 15/15/15 19/19/19 
f 19/19/19 15/15/15 20/20/20 
f 20/20/20 21/21/21 19/19/19 
f 22/22/22 23/23/23 24/24/24 
f 22/22/22 25/25/25 23/23/23 
f 22/22/22 26/26/26 25/25/25 
f 22/22/22 24/24/24 27/27/27 
f 27/27/27 28/28/28 22/22/22 
f 29/29/29 28/28/28 27/27/27 
f 28/28/28 29/29/29 30/30/30 
f 31/31/31 30/30/30 29/29/29 
f 30/30/30 31/31/31 32/32/32 
f 30/30/30 32/32/32 33/33/33 
f 33/33/33 32/32/32 34/34/34 
f 34/34/34 32/32/32 35/35/35 
f 36/36/36 33/33/33 34/34/34 
f 34/34/34 37/37/37 36/36/36 
f 37/37/37 34/34/34 38/38/38 
f 36/36/36 37/37/37 39/39/39 
f 40/40/40 36/36/36 39/39/39 
f 36/36/36 40/40/40 41/41/41 
f 41/41/41 40/40/40 42/42/42 
f 43/43/43 44/44/44 45/45/45 
f 44/44/44 43/43/43 46/46/46 
f 47/47/47 48/48/48 49/49/49 
f 48/48/48 47/47/47 50/50/50 
f 51/51/51 52/52/52 53/53/53 
f 52/52/52 51/51/51 54/54/54 
f 55/55/55 56/56/56 57/57/57 
f 56/56/56 55/55/55 58/58/58 
f 59/59/59 60/60/60 61/61/61 
f 60/60/60 62/62/62 61/61/61 
f 60/60/60 59/59/59 63/63/63 
f 64/64/64 59/59/59 61/61/61 
f 59/59/59 64/64/64 65/65/65 
f 64/64/64 61/61/61 66/66/66 
f 67/67/67 68/68/68 69/69/69 
f 70/70/70 69/69/69 68/68/68 
f 69/69/69 71/71/71 67/67/67 
f 68/68/68 67/67/67 72/72/72 
f 73/73/73 67/67/67 71/71/71 
f 74/74/74 72/72/72 67/67/67 
f 67/67/67 73/73/73 74/74/74 
f 72/72/72 74/74/74 75/75/75 
f 76/76/76 74/74/74 73/73/73 
f 74/74/74 77/77/77 75/75/75 
f 74/74/74 76/76/76 77/77/77 
f 75/75/75 77/77/77 78/78/78 
f 79/79/79 77/77/77 76/76/76 
f 80/80/80 78/78/78 77/77/77 
f 77/77/77 79/79/79 80/80/80 
f 81/81/81 80/80/80 79/79/79 
f 82/82/82 83/83/83 84/84/84 
f 83/83/83 82/82/82 85/85/85 
f 82/82/82 86/86/86 85/85/85 
f 87/87/87 85/85/85 86/86/86 
f 88/88/88 83/83/83 85/85/85 
f 83/83/83 88/88/88 89/89/89 
f 85/85/85 87/87/87 90/90/90 
f 85/85/85 90/90/90 88/88/88 
f 87/87/87 91/91/91 90/90/90 
f 88/88/88 90/90/90 92/92/92 
f 93/93/93 94/94/94 95/95/95 
f 94/94/94 93/93/93 96/96/96 
f 94/94/94 96/96/96 97/97/97 
f 98/98/98 97/97/97 96/96/96 
f 93/93/93 99/99/99 96/96/96 
f 93/93/93 100/100/100 99/99/99 
f 98/98/98 96/96/96 101/101/101 
f 99/99/99 101/101/101 96/96/96 
f 98/98/98 101/101/101 102/102/102 
f 101/101/101 99/99/99 103/103/103 
f 104/104/104 105/105/105 106/106/106 
f 107/107/107 106/106/106 105/105/105 
f 106/106/106 107/107/107 108/108/108 
f 109/109/109 107/107/107 105/105/105 
f 107/107/107 109/109/109 110/110/110 
f 105/105/105 111/111/111 109/109/109 
f 112/112/112 113/113/113 114/114/114 
f 115/115/115 112/112/112 114/114/114 
f 113/113/113 112/112/112 116/116/116 
f 117/117/117 118/118/118 116/116/116 
f 117/117/117 119/119/119 118/118/118 
f 119/119/119 120/120/120 118/118/118 
f 120/120/120 119/119/119 121/121/121 
f 121/121/121 122/122/122 123/123/123 
f 123/123/123 122/122/122 124/124/124 
f 122/122/122 125/125/125 124/124/124 
f 125/125/125 126/126/126 124/124/124 
f 126/126/126 125/125/125 127/127/127 
f 127/127/127 128/128/128 129/129/129 
f 129/129/129 128/128/128 130/130/130 
f 128/128/128 131/131/131 130/130/130 
f 130/130/130 131/131/131 132/132/132 
f 132/132/132 133/133/133 134/134/134 
f 133/133/133 132/132/132 135/135/135 
f 135/135/135 136/136/136 133/133/133 
f 137/137/137 138/138/138 139/139/139 
f 140/140/140 139/139/139 138/138/138 
f 138/138/138 137/137/137 141/141/141 
f 142/142/142 141/141/141 143/143/143 
f 142/142/142 143/143/143 144/144/144 
f 145/145/145 144/144/144 143/143/143 
f 144/144/144 145/145/145 146/146/146 
f 147/147/147 146/146/146 148/148/148 
f 149/149/149 147/147/147 148/148/148 
f 147/147/147 149/149/149 150/150/150 
f 151/151/151 150/150/150 149/149/149 
f 150/150/150 151/151/151 152/152/152 
f 153/153/153 154/154/154 152/152/152 
f 155/155/155 154/154/154 153/153/153 
f 154/154/154 155/155/155 156/156/156 
f 155/155/155 157/157/157 156/156/156 
f 158/158/158 157/157/157 159/159/159 
f 157/157/157 158/158/158 160/160/160 
f 160/160/160 158/158/158 161/161/161 
f 162/162/162 163/163/163 164/164/164 
f 162/162/162 164/164/164 165/165/165 
f 163/163/163 166/166/166 164/164/164 
f 163/163/163 167/167/167 166/166/166 
f 166/166/166 168/168/168 164/164/164 
f 164/164/164 168/168/168 169/169/169 
f 164/164/164 169/169/169 165/165/165 
f 165/165/165 169/169/169 170/170/170 
f 171/171/171 172/172/172 173/173/173 
f 174/174/174 171/171/171 173/173/173 
f 175/175/175 171/171/171 174/174/174 
f 173/173/173 172/172/172 176/176/176 
f 172/172/172 177/177/177 176/176/176 
f 176/176/176 177/177/177 178/178/178 
f 179/179/179 180/180/180 181/181/181 
f 180/180/180 179/179/179 182/182/182 
f 182/182/182 183/183/183 180/180/180 
f 183/183/183 182/182/182 184/184/184 
f 185/185/185 186/186/186 187/187/187 
f 185/185/185 187/187/187 188/188/188 
f 188/188/188 187/187/187 189/189/189 
f 188/188/188 189/189/189 190/190/190 
f 191/191/191 192/192/192 193/193/193 
f 193/193/193 194/194/194 191/191/191 
f 192/192/192 191/191/191 195/195/195 
f 195/195/195 196/196/196 192/192/192 
f 197/197/197 198/198/198 199/199/199 
f 198/198/198 197/197/197 200/200/200 
f 200/200/200 201/201/201 198/198/198 
f 201/201/201 200/200/200 202/202/202 
f 203/203/203 204/204/204 205/205/205 
f 205/205/205 206/206/206 203/203/203 
f 204/204/204 203/203/203 207/207/207 
f 207/207/207 208/208/208 204/204/204 
f 209/209/209 210/210/210 211/211/211 
f 210/210/210 209/209/209 212/212/212 
f 212/212/212 213/213/213 210/210/210 
f 213/213/213 212/212/212 214/214/214 
f 215/215/215 216/216/216 217/217/217 
f 217/217/217 218/218/218 215/215/215 
f 219/219/219 216/216/216 215/215/215 
f 219/219/219 220/220/220 216/216/216 
f 221/221/221 222/222/222 223/223/223 
f 222/222/222 221/221/221 224/224/224 
f 223/223/223 225/225/225 221/221/221 
f 225/225/225 223/223/223 226/226/226 
f 227/227/227 228/228/228 229/229/229 
f 229/229/229 228/228/228 230/230/230 
f 230/230/230 228/228/228 231/231/231 
f 228/228/228 227/227/227 232/232/232 
f 233/233/233 228/228/228 232/232/232 
f 228/228/228 234/234/234 235/235/235 
f 234/234/234 228/228/228 236/236/236 
f 236/236/236 228/228/228 237/237/237 
f 237/237/237 228/228/228 238/238/238 
f 228/228/228 239/239/239 238/238/238 
f 233/233/233 240/240/240 228/228/228 
f 228/228/228 240/240/240 239/239/239 
f 240/240/240 233/233/233 241/241/241 
f 239/239/239 240/240/240 242/242/242 
f 243/243/243 240/240/240 241/241/241 
f 240/240/240 244/244/244 242/242/242 
f 245/245/245 240/240/240 243/243/243 
f 244/244/244 240/240/240 246/246/246 
f 247/247/247 240/240/240 245/245/245 
f 240/240/240 247/247/247 248/248/248 
f 246/246/246 240/240/240 249/249/249 
f 249/249/249 240/240/240 250/250/250 
f 251/251/251 252/252/252 253/253/253 
f 252/252/252 251/251/251 254/254/254 
f 254/254/254 255/255/255 252/252/252 
f 255/255/255 254/254/254 256/256/256 
f 257/257/257 258/258/258 259/259/259 
f 257/257/257 259/259/259 260/260/260 
f 260/260/260 259/259/259 261/261/261 
f 260/260/260 261/261/261 262/262/262 
f 263/263/263 264/264/264 265/265/265 
f 264/264/264 266/266/266 265/265/265 
f 266/266/266 267/267/267 265/265/265 
f 265/265/265 268/268/268 263/263/263 
f 269/269/269 268/268/268 265/265/265 
f 265/265/265 270/270/270 271/271/271 
f 271/271/271 272/272/272 265/265/265 
f 272/272/272 273/273/273 265/265/265 
f 273/273/273 274/274/274 265/265/265 
f 265/265/265 274/274/274 275/275/275 
f 269/269/269 265/265/265 276/276/276 
f 265/265/265 275/275/275 276/276/276 
f 276/276/276 277/277/277 269/269/269 
f 275/275/275 278/278/278 276/276/276 
f 279/279/279 277/277/277 276/276/276 
f 276/276/276 278/278/278 280/280/280 
f 281/281/281 279/279/279 276/276/276 
f 280/280/280 282/282/282 276/276/276 
f 283/283/283 281/281/281 276/276/276 
f 276/276/276 284/284/284 283/283/283 
f 282/282/282 285/285/285 276/276/276 
f 285/285/285 286/286/286 276/276/276 
f 287/287/287 288/288/288 289/289/289 
f 288/288/288 287/287/287 290/290/290 
f 289/289/289 291/291/291 287/287/287 
f 291/291/291 289/289/289 292/292/292 
f 293/293/293 294/294/294 295/295/295 
f 294/294/294 293/293/293 296/296/296 
f 297/297/297 296/296/296 293/293/293 
f 296/296/296 297/297/297 298/298/298 
f 299/299/299 300/300/300 301/301/301 
f 300/300/300 299/299/299 302/302/302 
f 301/301/301 303/303/303 299/299/299 
f 303/303/303 301/301/301 304/304/304 
f 305/305/305 306/306/306 307/307/307 
f 306/306/306 305/305/305 308/308/308 
f 309/309/309 308/308/308 305/305/305 
f 308/308/308 309/309/309 310/310/310 
f 311/311/311 312/312/312 313/313/313 
f 313/313/313 314/314/314 311/311/311 
f 315/315/315 312/312/312 311/311/311 
f 315/315/315 316/316/316 312/312/312 
f 317/317/317 318/318/318 319/319/319 
f 318/318/318 317/317/317 320/320/320 
f 319/319/319 321/321/321 317/317/317 
f 321/321/321 319/319/319 322/322/322 
f 323/323/323 324/324/324 325/325/325 
f 326/326/326 323/323/323 325/325/325 
f 327/327/327 326/326/326 325/325/325 
f 325/325/325 324/324/324 328/328/328 
f 328/328/328 324/324/324 329/329/329 
f 324/324/324 330/330/330 329/329/329 
f 331/331/331 332/332/332 333/333/333 
f 332/332/332 331/331/331 334/334/334 
f 335/335/335 334/334/334 331/331/331 
f 331/331/331 333/333/333 336/336/336 
f 331/331/331 336/336/336 337/337/337 
f 338/338/338 337/337/337 336/336/336 
f 337/337/337 338/338/338 339/339/339 
f 340/340/340 337/337/337 339/339/339 
f 337/337/337 340/340/340 341/341/341 
f 337/337/337 341/341/341 342/342/342 
f 343/343/343 342/342/342 341/341/341 
f 342/342/342 343/343/343 344/344/344 
f 342/342/342 345/345/345 346/346/346 
f 345/345/345 347/347/347 346/346/346 
f 347/347/347 348/348/348 346/346/346 
f 348/348/348 347/347/347 349/349/349 
f 350/350/350 351/351/351 352/352/352 
f 350/350/350 352/352/352 353/353/353 
f 354/354/354 355/355/355 356/356/356 
f 357/357/357 358/358/358 359/359/359 
f 358/358/358 357/357/357 360/360/360 
f 361/361/361 362/362/362 363/363/363 
f 364/364/364 365/365/365 366/366/366 
f 367/367/367 368/368/368 369/369/369 
f 368/368/368 367/367/367 370/370/370 
f 371/371/371 367/367/367 369/369/369 
f 367/367/367 372/372/372 373/373/373 
f 372/372/372 374/374/374 373/373/373 
f 374/374/374 372/372/372 375/375/375 
f 376/376/376 377/377/377 378/378/378 
f 376/376/376 378/378/378 379/379/379 
f 380/380/380 381/381/381 382/382/382 
f 380/380/380 382/382/382 383/383/383 
f 384/384/384 385/385/385 386/386/386 
f 387/387/387 388/388/388 389/389/389 
f 388/388/388 387/387/387 390/390/390 
f 391/391/391 392/392/392 393/393/393 
f 394/394/394 395/395/395 396/396/396 
f 397/397/397 398/398/398 399/399/399 
f 397/397/397 399/399/399 400/400/400 
f 400/400/400 401/401/401 397/397/397 
f 398/398/398 397/397/397 402/402/402 
f 403/403/403 402/402/402 397/397/397 
f 403/403/403 404/404/404 402/402/402 
f 404/404/404 403/403/403 405/405/405 
f 406/406/406 404/404/404 405/405/405 
f 406/406/406 405/405/405 407/407/407 
f 408/408/408 407/407/407 405/405/405 
f 407/407/407 408/408/408 409/409/409 
f 407/407/407 409/409/409 410/410/410 
f 411/411/411 409/409/409 408/408/408 
f 409/409/409 411/411/411 412/412/412 
f 409/409/409 412/412/412 413/413/413 
f 411/411/411 414/414/414 412/412/412 
f 411/411/411 415/415/415 414/414/414 
f 415/415/415 411/411/411 416/416/416 
f 416/416/416 417/417/417 415/415/415 
f 418/418/418 419/419/419 420/420/420 
f 419/419/419 418/418/418 421/421/421 
f 421/421/421 418/418/418 422/422/422 
f 423/423/423 418/418/418 420/420/420 
f 423/423/423 424/424/424 418/418/418 
f 425/425/425 424/424/424 423/423/423 
f 424/424/424 425/425/425 426/426/426 
f 427/427/427 426/426/426 425/425/425 
f 426/426/426 427/427/427 428/428/428 
f 428/428/428 429/429/429 426/426/426 
f 429/429/429 428/428/428 430/430/430 
f 430/430/430 428/428/428 431/431/431 
f 432/432/432 429/429/429 430/430/430 
f 430/430/430 433/433/433 432/432/432 
f 433/433/433 430/430/430 434/434/434 
f 432/432/432 433/433/433 435/435/435 
f 432/432/432 435/435/435 436/436/436 
f 432/432/432 436/436/436 437/437/437 
f 437/437/437 436/436/436 438/438/438 

g Pet2

v -0.99012 0.721406 1.29945 
v -1.08171 0.369308 1.23713 
v -0.953484 0.397288 1.32438 
v -0.85345 0.467458 1.39245 
v -0.853835 0.675107 1.39219 
v -1.15718 0.418042 1.18577 
v -1.12009 0.883536 1.211 
v -1.25097 0.407522 1.12195 
v -1.20041 1.08325 1.15635 
v -1.34549 0.449596 1.05763 
v -1.3858 0.520281 1.0302 
v -1.35209 1.13879 1.05313 
v -1.5785 0.59686 0.899061 
v -1.47739 0.535428 0.967868 
v -1.57519 1.16798 0.901314 
v -1.65617 0.850995 0.846209 
v -1.65324 0.730659 0.848203 
v -1.725 0.900126 0.799375 
v -1.77184 0.994697 0.7675 
v -1.72651 1.15562 0.798343 
v -1.77634 1.09082 0.764437 
v 0.99012 0.678495 1.29945 
v 0.953484 0.354377 1.32438 
v 1.08171 0.326397 1.23713 
v 0.85345 0.424547 1.39245 
v 0.853835 0.632197 1.39219 
v 1.15718 0.375132 1.18577 
v 1.12009 0.840625 1.21101 
v 1.25097 0.364611 1.12195 
v 1.20041 1.04034 1.15635 
v 1.34549 0.406685 1.05763 
v 1.3858 0.47737 1.0302 
v 1.35209 1.09588 1.05313 
v 1.5785 0.553949 0.899061 
v 1.47739 0.492517 0.967869 
v 1.57519 1.12507 0.901314 
v 1.65617 0.808084 0.846209 
v 1.65324 0.687748 0.848203 
v 1.725 0.857215 0.799376 
v 1.77184 0.951786 0.7675 
v 1.72651 1.11271 0.798343 
v 1.77634 1.04791 0.764438 
v 0.111976 -1.17298 1.06759 
v 0.506373 -1.17298 0.61217 
v 0.546823 -1.17298 1.02498 
v 0.0715259 -1.17298 0.654779 
v -0.52892 -1.17298 1.03101 
v -0.0575123 -1.17298 0.655877 
v -0.0936526 -1.17298 1.06908 
v -0.49278 -1.17298 0.617807 
v -0.498456 -1.17298 0.440716 
v -0.027048 -1.17298 0.0655787 
v -0.0631883 -1.17298 0.478786 
v -0.462316 -1.17298 0.0275086 
v 0.088632 -1.17298 0.477107 
v 0.475244 -1.17298 0.0150625 
v 0.522694 -1.17298 0.427125 
v 0.0411817 -1.17298 0.0650462 
v 0.00550203 -0.84857 -0.323712 
v -0.825323 -0.103721 -0.323712 
v 0.00549978 0.597387 -0.323855 
v -0.851805 0.616272 -0.323817 
v -0.851798 -0.825487 -0.323712 
v 0.83661 -0.103721 -0.323712 
v 0.862808 -0.825487 -0.323712 
v 0.8628 0.615154 -0.323885 
v 0.00546254 -0.956305 1.01005 
v 0.855347 -0.953807 1.12206 
v 0.00546251 -0.94322 1.39625 
v 0.862886 -0.91598 1.39629 
v -0.851916 -0.91598 1.39617 
v 0.848177 -0.964871 0.85943 
v -0.844046 -0.954343 0.904089 
v 0.00550194 -0.96976 0.640206 
v 0.855656 -0.927288 0.161167 
v -0.836468 -0.965922 0.432923 
v 0.00554136 -0.927288 0.0869006 
v 0.862926 -0.830408 -0.319657 
v -0.844528 -0.927249 0.012634 
v 0.0055414 -0.853452 -0.319736 
v -0.851798 -0.830369 -0.319854 
v 0.860307 -0.948847 1.12159 
v 0.89402 -0.125336 1.39562 
v 0.867807 -0.911098 1.39562 
v 0.853137 -0.174228 0.85939 
v 0.853137 -0.959871 0.859469 
v 0.860577 -0.922288 0.161836 
v 0.853805 0.579019 0.857475 
v 0.86741 0.647566 1.39752 
v 0.84161 -0.103721 -0.318712 
v 0.867808 -0.825369 -0.318712 
v 0.8678 0.615076 -0.318885 
v -0.88994 -0.125336 1.3957 
v -0.848968 -0.949422 0.903735 
v -0.856798 -0.911138 1.3957 
v -0.841468 -0.175353 0.432994 
v -0.841468 -0.960922 0.433041 
v -0.849568 -0.922249 0.0134608 
v -0.841738 0.571287 0.433857 
v -0.85589 0.689852 1.39136 
v -0.830323 -0.103721 -0.318712 
v -0.856798 -0.825369 -0.318712 
v -0.856805 0.616193 -0.318817 
v -0.851798 -0.91098 1.40089 
v 0.00550188 -0.93822 1.40089 
v -0.88494 -0.125336 1.40089 
v 0.00575988 0.695532 1.39966 
v -0.85089 0.689734 1.39651 
v 0.88902 -0.125336 1.40089 
v 0.86241 0.647487 1.4028 
v 0.862807 -0.91098 1.40089 
v 0.85584 -0.0444785 1.3925 
v 1.0367 0.0729104 1.3925 
v 0.964762 0.101533 1.3925 
v 0.85584 0.0649154 1.3925 
v 1.07685 0.000160933 1.3925 
v 0.85584 -0.0444785 1.3925 
v 1.06252 -0.144908 1.3925 
v 0.85584 -0.293809 1.3925 
v 1.128 -0.201097 1.3925 
v 1.16211 -0.264999 1.3925 
v 0.85584 -0.293809 1.3925 
v 1.15558 -0.329045 1.3925 
v 1.09466 -0.416017 1.3925 
v 0.85584 -0.566769 1.3925 
v 1.15394 -0.504394 1.3925 
v 1.15924 -0.573115 1.3925 
v 0.85584 -0.566769 1.3925 
v 1.12592 -0.632288 1.3925 
v 1.06044 -0.70402 1.3925 
v 0.85584 -0.808811 1.3925 
v 1.06707 -0.843804 1.3925 
v 0.962827 -0.935286 1.3925 
v 1.03083 -0.912433 1.3925 
v 0.85584 -0.808811 1.3925 
v 0.85584 -0.905952 1.3925 
v -1.03551 0.0727341 1.3925 
v -0.853947 -0.0435608 1.3925 
v -0.963749 0.101791 1.3925 
v -0.854608 0.0658312 1.3925 
v -1.07523 -0.000256509 1.3925 
v -0.853947 -0.0435608 1.3925 
v -1.06002 -0.145236 1.3925 
v -0.852442 -0.292887 1.3925 
v -1.12516 -0.201819 1.3925 
v -1.15888 -0.265927 1.3925 
v -0.852442 -0.292887 1.3925 
v -1.15196 -0.329931 1.3925 
v -1.09052 -0.416534 1.3925 
v -0.850794 -0.565842 1.3925 
v -1.14927 -0.505268 1.3925 
v -1.15415 -0.574019 1.3925 
v -1.12048 -0.632991 1.3925 
v -0.850794 -0.565842 1.3925 
v -1.05456 -0.704325 1.3925 
v -0.849333 -0.80788 1.3925 
v -1.06035 -0.844147 1.3925 
v -0.955554 -0.934998 1.3925 
v -1.02369 -0.912556 1.3925 
v -0.849333 -0.80788 1.3925 
v -0.848746 -0.905019 1.3925 
v -0.850811 0.694695 1.3908 
v 0.00591736 0.700492 1.39395 
v 0.00568606 0.579362 0.638587 
v -0.836698 0.576287 0.4337 
v 0.848884 0.584019 0.857278 
v 0.862646 0.652447 1.39709 
v 0.862721 0.620154 -0.318727 
v 0.00546041 0.602387 -0.318697 
v -0.851766 0.621272 -0.318621 
v 0.0639098 0.544718 -0.446695 
v 0.0426066 0.570107 -0.595247 
v -0.0639097 0.544718 -0.446695 
v -0.085213 0.581385 -0.297001 
v 0.085213 0.581385 -0.297001 
v -0.0426065 0.570107 -0.595247 
v 0.0266845 0.639442 -0.703298 
v -0.0266844 0.639442 -0.703298 
v -0.461883 -1.16692 0.0226268 
v -0.0634932 -1.01979 0.0900049 
v -0.0271267 -1.16692 0.0606968 
v -0.430659 -1.01979 0.0578914 
v -0.0715362 -0.854422 0.0963653 
v -0.423849 -0.854422 0.0655515 
v 0.474692 -1.16692 0.01022 
v 0.041103 -1.16692 0.0601643 
v 0.0782993 -1.01979 0.0884502 
v 0.444447 -1.01979 0.0462875 
v 0.0865148 -0.854422 0.0945886 
v 0.437852 -0.854422 0.0541314 
v 0.449919 -1.01975 0.0506575 
v 0.489946 -1.01975 0.398247 
v 0.527536 -1.16684 0.426573 
v 0.480086 -1.16684 0.0145113 
v 0.443363 -0.854382 0.0585408 
v 0.48177 -0.854382 0.39207 
v -0.503299 -1.16684 0.440283 
v -0.436013 -1.01975 0.0623796 
v -0.467158 -1.16684 0.0270756 
v -0.466499 -1.01975 0.410936 
v -0.429243 -0.854382 0.0700791 
v -0.458495 -0.854382 0.404536 
v 0.480441 -1.01975 0.647325 
v 0.514561 -1.01975 0.995544 
v 0.551665 -1.16684 1.0245 
v 0.511215 -1.16684 0.611697 
v 0.473751 -0.854382 0.655095 
v 0.506492 -0.854382 0.989228 
v -0.533763 -1.16684 1.03058 
v -0.466477 -1.01975 0.652678 
v -0.497623 -1.16684 0.617374 
v -0.496963 -1.01975 1.00123 
v -0.459707 -0.854382 0.660377 
v -0.48896 -0.854382 0.994834 
v 0.510112 -1.01979 1.00094 
v 0.143302 -1.01979 1.03688 
v 0.112448 -1.16692 1.07243 
v 0.547295 -1.16692 1.02982 
v 0.502003 -0.854422 0.994661 
v 0.150031 -0.854422 1.02915 
v -0.492475 -1.01979 1.00659 
v -0.0940857 -1.16692 1.07397 
v -0.12531 -1.01979 1.0387 
v -0.529353 -1.16692 1.0359 
v -0.484432 -0.854422 1.00023 
v -0.132119 -0.854422 1.03104 
v 0.477551 0.958095 -1.16175 
v -0.000466698 1.07462 -1.32108 
v 0.360811 1.06123 -1.30277 
v 0.186097 1.13015 -1.397 
v 0.0804772 1.12603 -1.39138 
v 0.470455 0.891904 -1.07124 
v 0.383489 0.847964 -1.01116 
v -0.184665 1.13289 -1.40075 
v -0.0767655 1.12835 -1.39455 
v -0.363581 1.06232 -1.30425 
v -0.48313 0.956699 -1.15984 
v -0.475717 0.891722 -1.07099 
v -0.384423 0.847964 -1.01116 
v -0.000466995 0.621308 -0.70124 
v 0.471661 0.804937 -0.952325 
v -0.475717 0.804205 -0.951325 
v 0.479099 0.738298 -0.861206 
v -0.48313 0.739228 -0.862479 
v 0.361423 0.634334 -0.719051 
v -0.363582 0.633611 -0.718063 
v 0.185308 0.564868 -0.624066 
v 0.0724229 0.569003 -0.62972 
v -0.184665 0.56304 -0.621567 
v -0.0702602 0.567588 -0.627785 
v -0.492347 -1.16692 0.612925 
v -0.0939575 -1.01979 0.680303 
v -0.0570792 -1.16692 0.650996 
v -0.461123 -1.01979 0.64819 
v -0.102 -0.854422 0.686664 
v -0.454314 -0.854422 0.65585 
v 0.505901 -1.16692 0.607327 
v 0.0710535 -1.16692 0.649936 
v 0.108236 -1.01979 0.678819 
v 0.475047 -1.01979 0.642876 
v 0.116345 -0.854422 0.685095 
v 0.468318 -0.854422 0.650606 
v 0.477551 0.97238 -1.15133 
v 0.360811 1.07552 -1.29235 
v -0.000466698 1.0889 -1.31066 
v 0.186097 1.14443 -1.38658 
v 0.0804772 1.14032 -1.38096 
v 0.470455 0.906189 -1.06082 
v 0.383489 0.862249 -1.00074 
v -0.0767655 1.14264 -1.38413 
v -0.184665 1.14717 -1.39033 
v -0.363581 1.0766 -1.29383 
v -0.48313 0.970984 -1.14942 
v -0.475717 0.906007 -1.06057 
v -0.384423 0.862249 -1.00074 
v -0.000466995 0.635593 -0.690819 
v 0.471661 0.819222 -0.941904 
v -0.475717 0.81849 -0.940904 
v 0.479099 0.752583 -0.850785 
v -0.48313 0.753514 -0.852058 
v 0.361423 0.648619 -0.70863 
v -0.363582 0.647896 -0.707641 
v 0.185308 0.579153 -0.613645 
v 0.0724229 0.583288 -0.619299 
v -0.184665 0.577325 -0.611145 
v -0.0702602 0.581873 -0.617364 
v -0.119955 -1.01975 1.03421 
v -0.0526698 -1.16684 0.656311 
v -0.0894693 -1.01975 0.685657 
v -0.0888101 -1.16684 1.06952 
v -0.126725 -0.854382 1.02651 
v -0.0974729 -0.854382 0.692058 
v 0.137909 -1.01975 1.03243 
v 0.0666834 -1.16684 0.655251 
v 0.107133 -1.16684 1.06806 
v 0.103787 -1.01975 0.684212 
v 0.144598 -0.854382 1.02466 
v 0.111857 -0.854382 0.690528 
v -0.089491 -1.01975 0.443915 
v -0.0222055 -1.16684 0.0660118 
v -0.059005 -1.01975 0.0953593 
v -0.0583458 -1.16684 0.479219 
v -0.0962609 -0.854382 0.436216 
v -0.0670086 -0.854382 0.101759 
v 0.113956 -1.01975 0.441513 
v 0.0363392 -1.16684 0.0655974 
v 0.0837894 -1.16684 0.477659 
v 0.0739292 -1.01975 0.0939226 
v 0.120512 -0.854382 0.43363 
v 0.0821054 -0.854382 0.1001 
v 0.485575 -1.01979 0.40372 
v 0.119428 -1.01979 0.445883 
v 0.0891831 -1.16692 0.48195 
v 0.523245 -1.16692 0.431967 
v 0.477361 -0.854422 0.397582 
v 0.126024 -0.854422 0.438039 
v -0.462011 -1.01979 0.41629 
v -0.0636214 -1.16692 0.483668 
v -0.0948454 -1.01979 0.448403 
v -0.498889 -1.16692 0.445598 
v -0.453968 -0.854422 0.409929 
v -0.101655 -0.854422 0.440744 
v -0.0639097 0.527147 -0.445829 
v -0.0426065 0.552891 -0.598239 
v 0.0639098 0.527147 -0.445829 
v -0.085213 0.564051 -0.294639 
v 0.085213 0.564051 -0.294639 
v 0.0426066 0.552891 -0.598239 
v 0.0266845 0.631135 -0.709845 
v -0.0266844 0.631135 -0.709845 
v 0.85584 -0.0444785 1.37318 
v 1.0367 0.0729104 1.37318 
v 1.07685 0.000160933 1.37318 
v 0.964762 0.101533 1.37318 
v 0.85584 0.0649154 1.37318 
v 1.06252 -0.144908 1.37318 
v 0.85584 -0.293809 1.37318 
v 1.128 -0.201097 1.37318 
v 1.16211 -0.264999 1.37318 
v 1.15558 -0.329045 1.37318 
v 1.09466 -0.416017 1.37318 
v 0.85584 -0.566769 1.37318 
v 1.15394 -0.504394 1.37318 
v 1.15924 -0.573115 1.37318 
v 1.06044 -0.70402 1.37318 
v 0.85584 -0.808811 1.37318 
v 1.06707 -0.843804 1.37318 
v 0.962827 -0.935286 1.37318 
v 1.03083 -0.912433 1.37318 
v 0.85584 -0.566769 1.37318 
v 1.15924 -0.573115 1.37318 
v 1.12592 -0.632288 1.37318 
v 1.06044 -0.70402 1.37318 
v 0.85584 -0.808811 1.37318 
v 0.962827 -0.935286 1.37318 
v 0.85584 -0.905952 1.37318 
v -0.853947 -0.0435608 1.37318 
v -1.03551 0.0727341 1.37318 
v -0.963749 0.101791 1.37318 
v -1.07523 -0.000256509 1.37318 
v -0.853947 -0.0435608 1.37318 
v -1.06002 -0.145236 1.37318 
v -1.07523 -0.000256509 1.37318 
v -0.854608 0.0658312 1.37318 
v -0.853947 -0.0435608 1.37318 
v -0.963749 0.101791 1.37318 
v -0.852442 -0.292887 1.37318 
v -1.12516 -0.201819 1.37318 
v -1.06002 -0.145236 1.37318 
v -1.15888 -0.265927 1.37318 
v -0.853947 -0.0435608 1.37318 
v -0.850794 -0.565842 1.37318 
v -1.09052 -0.416534 1.37318 
v -1.14927 -0.505268 1.37318 
v -1.15415 -0.574019 1.37318 
v -0.852442 -0.292887 1.37318 
v -1.09052 -0.416534 1.37318 
v -1.15196 -0.329931 1.37318 
v -1.15888 -0.265927 1.37318 
v -0.850794 -0.565842 1.37318 
v -1.05456 -0.704325 1.37318 
v -1.12048 -0.632991 1.37318 
v -1.15415 -0.574019 1.37318 
v -1.05456 -0.704325 1.37318 
v -0.849333 -0.80788 1.37318 
v -1.06035 -0.844147 1.37318 
v -1.06035 -0.844147 1.37318 
v -0.955554 -0.934998 1.37318 
v -1.02369 -0.912556 1.37318 
v -0.849333 -0.80788 1.37318 
v -0.850794 -0.565842 1.37318 
v -0.849333 -0.80788 1.37318 
v -1.05456 -0.704325 1.37318 
v -0.849333 -0.80788 1.37318 
v -0.848746 -0.905019 1.37318 
v -0.955554 -0.934998 1.37318 
v 0.980199 0.678495 1.28482 
v 1.07179 0.326397 1.22249 
v 0.943563 0.354377 1.30975 
v 0.843529 0.424547 1.37782 
v 0.843914 0.632197 1.37756 
v 1.14726 0.375132 1.17114 
v 1.11017 0.840625 1.19637 
v 1.24104 0.364611 1.10732 
v 1.19049 1.04034 1.14172 
v 1.33557 0.406685 1.04299 
v 1.37588 0.47737 1.01556 
v 1.34217 1.09588 1.0385 
v 1.56858 0.553949 0.884429 
v 1.46747 0.492517 0.953237 
v 1.56527 1.12507 0.886682 
v 1.64625 0.808084 0.831577 
v 1.64332 0.687748 0.833572 
v 1.71507 0.857215 0.784744 
v 1.76192 0.951786 0.752868 
v 1.71659 1.11271 0.783711 
v 1.76642 1.04791 0.749806 
v -0.980199 0.721406 1.28482 
v -0.943563 0.397288 1.30975 
v -1.07179 0.369308 1.22249 
v -0.843529 0.467458 1.37782 
v -0.843914 0.675107 1.37756 
v -1.14726 0.418042 1.17114 
v -1.11017 0.883536 1.19637 
v -1.24104 0.407522 1.10732 
v -1.19049 1.08325 1.14172 
v -1.33557 0.449596 1.04299 
v -1.37588 0.520281 1.01556 
v -1.34217 1.13879 1.0385 
v -1.56858 0.59686 0.884429 
v -1.46747 0.535428 0.953237 
v -1.56527 1.16798 0.886682 
v -1.64625 0.850995 0.831577 
v -1.64332 0.730659 0.833571 
v -1.71507 0.900126 0.784743 
v -1.76192 0.994697 0.752868 
v -1.71659 1.15562 0.783711 
v -1.76642 1.09082 0.749806 

vn -0.559055 0 0.826772 
vn -0.559055 0 0.826772 
vn -0.559055 0 0.826772 
vn -0.559055 0 0.826772 
vn -0.559055 0 0.826772 
vn -0.559055 0 0.826772 
vn -0.559055 0 0.826772 
vn -0.559055 0 0.826772 
vn -0.559055 0 0.826772 
vn -0.559055 0 0.826772 
vn -0.559055 0 0.826772 
vn -0.559055 0 0.826772 
vn -0.559055 0 0.826772 
vn -0.559055 0 0.826772 
vn -0.559055 0 0.826772 
vn -0.559055 0 0.826772 
vn -0.559055 0 0.826772 
vn -0.559055 0 0.826772 
vn -0.559055 0 0.826772 
vn -0.559055 0 0.826772 
vn -0.559055 0 0.826772 
vn 0.559055 0 0.826772 
vn 0.559055 0 0.826772 
vn 0.559055 0 0.826772 
vn 0.559055 0 0.826772 
vn 0.559055 0 0.826772 
vn 0.559055 0 0.826772 
vn 0.559055 0 0.826772 
vn 0.559055 0 0.826772 
vn 0.559055 0 0.826772 
vn 0.559055 0 0.826772 
vn 0.559055 0 0.826772 
vn 0.559055 0 0.826772 
vn 0.559055 0 0.826772 
vn 0.559055 0 0.826772 
vn 0.559055 0 0.826772 
vn 0.559055 0 0.826772 
vn 0.559055 0 0.826772 
vn 0.559055 0 0.826772 
vn 0.559055 0 0.826772 
vn 0.559055 0 0.826772 
vn 0.559055 0 0.826772 
vn 0 -1 0 
vn 0 -1 0 
vn 0 -1 0 
vn 0 -1 0 
vn 0 -1 0 
vn 0 -1 0 
vn 0 -1 0 
vn 0 -1 0 
vn 0 -1 0 
vn 0 -1 0 
vn 0 -1 0 
vn 0 -1 0 
vn 0 -1 0 
vn 0 -1 0 
vn 0 -1 0 
vn 0 -1 0 
vn 0 0 -1 
vn 0 0 -1 
vn 0 0 -1 
vn 0 0 -1 
vn 0 0 -1 
vn 0 0 -1 
vn 0 0 -1 
vn 0 0 -1 
vn -0.00787402 -1 0.0551181 
vn 0.00787402 -1 0.0551181 
vn -0.00787402 -1 0.0708661 
vn 0.015748 -1 0.0787402 
vn -0.023622 -1 0.0551181 
vn 0.00787402 -1 -0.015748 
vn -0.015748 -1 0.0472441 
vn 0 -1 -0.023622 
vn 0.015748 -0.992126 -0.125984 
vn 0 -1 -0.023622 
vn 0.00787402 -0.992126 -0.141732 
vn 0.023622 -0.984252 -0.188976 
vn 0.00787402 -0.984252 -0.15748 
vn 0.00787402 -0.976378 -0.204724 
vn 0 -0.976378 -0.228346 
vn 1 -0.00787402 -0.0393701 
vn 1 0 -0.0551181 
vn 1 -0.023622 -0.0551181 
vn 1 0 -0.023622 
vn 1 0 -0.00787402 
vn 1 0.00787402 0.00787402 
vn 1 0 -0.023622 
vn 1 0.015748 -0.0551181 
vn 1 0 0 
vn 1 0.023622 0 
vn 1 -0.015748 0 
vn -1 0 -0.0393701 
vn -1 -0.015748 -0.023622 
vn -1 -0.0314961 -0.0393701 
vn -1 0 -0.00787402 
vn -1 0 0 
vn -1 0.015748 0.00787402 
vn -1 0 -0.015748 
vn -1 0.023622 -0.0314961 
vn -1 0 0 
vn -1 0.023622 0 
vn -1 -0.015748 0 
vn 0 0 1 
vn 0 0 1 
vn 0 0 1 
vn 0 0 1 
vn 0 0 1 
vn 0 0 1 
vn 0 0 1 
vn 0 0 1 
vn 0 0 1 
vn 0 0 1 
vn 0 0 1 
vn 0 0 1 
vn 0 0 1 
vn 0 0 1 
vn 0 0 1 
vn 0 0 1 
vn 0 0 1 
vn 0 0 1 
vn 0 0 1 
vn 0 0 1 
vn 0 0 1 
vn 0 0 1 
vn 0 0 1 
vn 0 0 1 
vn 0 0 1 
vn 0 0 1 
vn 0 0 1 
vn 0 0 1 
vn 0 0 1 
vn 0 0 1 
vn 0 0 1 
vn 0 0 1 
vn 0 0 1 
vn 0 0 1 
vn 0 0 1 
vn 0 0 1 
vn 0 0 1 
vn 0 0 1 
vn 0 0 1 
vn 0 0 1 
vn 0 0 1 
vn 0 0 1 
vn 0 0 1 
vn 0 0 1 
vn 0 0 1 
vn 0 0 1 
vn 0 0 1 
vn 0 0 1 
vn 0 0 1 
vn 0 0 1 
vn 0 0 1 
vn 0 0 1 
vn 0 0 1 
vn 0 0 1 
vn 0 0 1 
vn 0 0 1 
vn 0 0 1 
vn 0 0 1 
vn 0.015748 0.992126 -0.141732 
vn 0.0314961 0.992126 -0.141732 
vn 0.00787402 1 -0.0551181 
vn 0.00787402 1 -0.0472441 
vn 0.015748 1 -0.0629921 
vn 0.0472441 0.992126 -0.141732 
vn -0.015748 1 0.0314961 
vn -0.00787402 1 0.0314961 
vn 0.00787402 1 0.0393701 
vn 0 0.992126 -0.0866142 
vn 0 0.96063 0.291339 
vn 0 0.992126 -0.0866142 
vn 0 0.968504 -0.23622 
vn 0 0.968504 -0.23622 
vn 0 0.96063 0.291339 
vn 0 0.84252 0.535433 
vn 0 0.84252 0.535433 
vn 0.0866142 0.212598 -0.976378 
vn 0.0866142 0.125984 -0.984252 
vn -0.015748 0.212598 -0.976378 
vn 0.0866142 0.125984 -0.984252 
vn 0.0866142 0.0393701 -0.992126 
vn 0.0866142 0.0393701 -0.992126 
vn -0.110236 0.212598 -0.968504 
vn -0.015748 0.212598 -0.976378 
vn -0.110236 0.125984 -0.984252 
vn -0.110236 0.125984 -0.984252 
vn -0.110236 0.0393701 -0.992126 
vn -0.110236 0.0393701 -0.992126 
vn 0.984252 0.133858 -0.110236 
vn 0.984252 0.133858 -0.110236 
vn 0.968504 0.228346 -0.110236 
vn 0.968504 0.228346 -0.110236 
vn 0.992126 0.0472441 -0.110236 
vn 0.992126 0.0472441 -0.110236 
vn -0.968504 0.228346 -0.0866142 
vn -0.984252 0.133858 -0.0866142 
vn -0.968504 0.228346 -0.0866142 
vn -0.984252 0.133858 -0.0866142 
vn -0.992126 0.0472441 -0.0866142 
vn -0.992126 0.0472441 -0.0866142 
vn 0.984252 0.133858 -0.0944882 
vn 0.984252 0.133858 -0.0944882 
vn 0.968504 0.228346 -0.0944882 
vn 0.968504 0.228346 -0.0944882 
vn 0.992126 0.0472441 -0.0944882 
vn 0.992126 0.0472441 -0.0944882 
vn -0.968504 0.228346 -0.0866142 
vn -0.984252 0.133858 -0.0866142 
vn -0.968504 0.228346 -0.0866142 
vn -0.984252 0.133858 -0.0866142 
vn -0.992126 0.0472441 -0.0866142 
vn -0.992126 0.0472441 -0.0866142 
vn 0.0944882 0.125984 0.984252 
vn 0.0944882 0.125984 0.984252 
vn 0.0944882 0.212598 0.968504 
vn 0.0944882 0.212598 0.968504 
vn 0.0944882 0.0393701 0.992126 
vn 0.0944882 0.0393701 0.992126 
vn -0.0866142 0.125984 0.984252 
vn -0.0866142 0.212598 0.976378 
vn -0.0866142 0.125984 0.984252 
vn -0.0866142 0.212598 0.976378 
vn -0.0866142 0.0393701 0.992126 
vn -0.0866142 0.0393701 0.992126 
vn 0 -0.811024 -0.590551 
vn 0 -0.811024 -0.590551 
vn 0 -0.811024 -0.590551 
vn 0 -0.811024 -0.590551 
vn 0 -0.811024 -0.590551 
vn 0 -0.811024 -0.590551 
vn 0 -0.811024 -0.590551 
vn 0 -0.811024 -0.590551 
vn 0 -0.811024 -0.590551 
vn 0 -0.811024 -0.590551 
vn 0 -0.811024 -0.590551 
vn 0 -0.811024 -0.590551 
vn 0 -0.811024 -0.590551 
vn 0 -0.811024 -0.590551 
vn 0 -0.811024 -0.590551 
vn 0 -0.811024 -0.590551 
vn 0 -0.811024 -0.590551 
vn 0 -0.811024 -0.590551 
vn 0 -0.811024 -0.590551 
vn 0 -0.811024 -0.590551 
vn 0 -0.811024 -0.590551 
vn 0 -0.811024 -0.590551 
vn 0 -0.811024 -0.590551 
vn 0 -0.811024 -0.590551 
vn 0.0866142 0.212598 -0.976378 
vn 0.0866142 0.125984 -0.984252 
vn 0.0866142 0.212598 -0.976378 
vn 0.0866142 0.125984 -0.984252 
vn 0.0866142 0.0393701 -0.992126 
vn 0.0866142 0.0393701 -0.992126 
vn -0.0944882 0.212598 -0.968504 
vn -0.0944882 0.212598 -0.968504 
vn -0.0944882 0.125984 -0.984252 
vn -0.0944882 0.125984 -0.984252 
vn -0.0944882 0.0393701 -0.992126 
vn -0.0944882 0.0393701 -0.992126 
vn 0 0.811024 0.590551 
vn 0 0.811024 0.590551 
vn 0 0.811024 0.590551 
vn 0 0.811024 0.590551 
vn 0 0.811024 0.590551 
vn 0 0.811024 0.590551 
vn 0 0.811024 0.590551 
vn 0 0.811024 0.590551 
vn 0 0.811024 0.590551 
vn 0 0.811024 0.590551 
vn 0 0.811024 0.590551 
vn 0 0.811024 0.590551 
vn 0 0.811024 0.590551 
vn 0 0.811024 0.590551 
vn 0 0.811024 0.590551 
vn 0 0.811024 0.590551 
vn 0 0.811024 0.590551 
vn 0 0.811024 0.590551 
vn 0 0.811024 0.590551 
vn 0 0.811024 0.590551 
vn 0 0.811024 0.590551 
vn 0 0.811024 0.590551 
vn 0 0.811024 0.590551 
vn 0 0.811024 0.590551 
vn 0.984252 0.133858 0.0866142 
vn 0.968504 0.228346 0.0866142 
vn 0.984252 0.133858 0.0866142 
vn 0.968504 0.228346 0.0866142 
vn 0.992126 0.0472441 0.0866142 
vn 0.992126 0.0472441 0.0866142 
vn -0.984252 0.133858 0.0944882 
vn -0.968504 0.228346 0.0944882 
vn -0.968504 0.228346 0.0944882 
vn -0.984252 0.133858 0.0944882 
vn -0.992126 0.0472441 0.0944882 
vn -0.992126 0.0472441 0.0944882 
vn 0.984252 0.133858 0.0866142 
vn 0.968504 0.228346 0.0866142 
vn 0.984252 0.133858 0.0866142 
vn 0.968504 0.228346 0.0866142 
vn 0.992126 0.0472441 0.0866142 
vn 0.992126 0.0472441 0.0866142 
vn -0.984252 0.133858 0.110236 
vn -0.968504 0.228346 0.110236 
vn -0.968504 0.228346 0.110236 
vn -0.984252 0.133858 0.110236 
vn -0.992126 0.0472441 0.110236 
vn -0.992126 0.0472441 0.110236 
vn 0.110236 0.125984 0.984252 
vn 0.110236 0.125984 0.984252 
vn 0.110236 0.212598 0.968504 
vn 0.110236 0.212598 0.968504 
vn 0.110236 0.0393701 0.992126 
vn 0.110236 0.0393701 0.992126 
vn -0.0866142 0.125984 0.984252 
vn -0.0866142 0.212598 0.976378 
vn -0.0866142 0.125984 0.984252 
vn -0.0866142 0.212598 0.976378 
vn -0.0866142 0.0393701 0.992126 
vn -0.0866142 0.0393701 0.992126 
vn 0 -0.992126 0.0866142 
vn 0 -0.952756 -0.307087 
vn 0 -0.992126 0.0866142 
vn 0 -0.968504 0.23622 
vn 0 -0.968504 0.23622 
vn 0 -0.952756 -0.307087 
vn 0 -0.818898 -0.574803 
vn 0 -0.818898 -0.574803 
vn 0 0 -1 
vn 0 0 -1 
vn 0 0 -1 
vn 0 0 -1 
vn 0 0 -1 
vn 0 0 -1 
vn 0 0 -1 
vn 0 0 -1 
vn 0 0 -1 
vn 0 0 -1 
vn 0 0 -1 
vn 0 0 -1 
vn 0 0 -1 
vn 0 0 -1 
vn 0 0 -1 
vn 0 0 -1 
vn 0 0 -1 
vn 0 0 -1 
vn 0 0 -1 
vn 0 0 -1 
vn 0 0 -1 
vn 0 0 -1 
vn 0 0 -1 
vn 0 0 -1 
vn 0 0 -1 
vn 0 0 -1 
vn 0 0 -1 
vn 0 0 -1 
vn 0 0 -1 
vn 0 0 -1 
vn 0 0 -1 
vn 0 0 -1 
vn 0 0 -1 
vn 0 0 -1 
vn 0 0 -1 
vn 0 0 -1 
vn 0 0 -1 
vn 0 0 -1 
vn 0 0 -1 
vn 0 0 -1 
vn 0 0 -1 
vn 0 0 -1 
vn 0 0 -1 
vn 0 0 -1 
vn 0 0 -1 
vn 0 0 -1 
vn 0 0 -1 
vn 0 0 -1 
vn 0 0 -1 
vn 0 0 -1 
vn 0 0 -1 
vn 0 0 -1 
vn 0 0 -1 
vn 0 0 -1 
vn 0 0 -1 
vn 0 0 -1 
vn 0 0 -1 
vn 0 0 -1 
vn 0 0 -1 
vn 0 0 -1 
vn 0 0 -1 
vn 0 0 -1 
vn 0 0 -1 
vn 0 0 -1 
vn 0 0 -1 
vn 0 0 -1 
vn -0.559055 0 -0.826772 
vn -0.559055 0 -0.826772 
vn -0.559055 0 -0.826772 
vn -0.559055 0 -0.826772 
vn -0.559055 0 -0.826772 
vn -0.559055 0 -0.826772 
vn -0.559055 0 -0.826772 
vn -0.559055 0 -0.826772 
vn -0.559055 0 -0.826772 
vn -0.559055 0 -0.826772 
vn -0.559055 0 -0.826772 
vn -0.559055 0 -0.826772 
vn -0.559055 0 -0.826772 
vn -0.559055 0 -0.826772 
vn -0.559055 0 -0.826772 
vn -0.559055 0 -0.826772 
vn -0.559055 0 -0.826772 
vn -0.559055 0 -0.826772 
vn -0.559055 0 -0.826772 
vn -0.559055 0 -0.826772 
vn -0.559055 0 -0.826772 
vn 0.559055 0 -0.826772 
vn 0.559055 0 -0.826772 
vn 0.559055 0 -0.826772 
vn 0.559055 0 -0.826772 
vn 0.559055 0 -0.826772 
vn 0.559055 0 -0.826772 
vn 0.559055 0 -0.826772 
vn 0.559055 0 -0.826772 
vn 0.559055 0 -0.826772 
vn 0.559055 0 -0.826772 
vn 0.559055 0 -0.826772 
vn 0.559055 0 -0.826772 
vn 0.559055 0 -0.826772 
vn 0.559055 0 -0.826772 
vn 0.559055 0 -0.826772 
vn 0.559055 0 -0.826772 
vn 0.559055 0 -0.826772 
vn 0.559055 0 -0.826772 
vn 0.559055 0 -0.826772 
vn 0.559055 0 -0.826772 
vn 0.559055 0 -0.826772 

vt 0.423719 0.556607 
vt 0.442859 0.469684 
vt 0.406199 0.479695 
vt 0.378624 0.499117 
vt 0.383141 0.548984 
vt 0.46582 0.479454 
vt 0.46492 0.592215 
vt 0.492845 0.47452 
vt 0.492492 0.638125 
vt 0.5212 0.482201 
vt 0.53441 0.498145 
vt 0.537739 0.647573 
vt 0.592023 0.511594 
vt 0.561343 0.499433 
vt 0.603177 0.648861 
vt 0.61998 0.570643 
vt 0.616575 0.541814 
vt 0.641017 0.580678 
vt 0.656633 0.602192 
vt 0.646878 0.642008 
vt 0.65998 0.625165 
vt 0.423719 0.556607 
vt 0.406199 0.479695 
vt 0.442859 0.469684 
vt 0.378624 0.499117 
vt 0.383141 0.548984 
vt 0.46582 0.479454 
vt 0.46492 0.592215 
vt 0.492845 0.47452 
vt 0.492492 0.638125 
vt 0.5212 0.482201 
vt 0.53441 0.498145 
vt 0.537739 0.647573 
vt 0.592023 0.511594 
vt 0.561343 0.499433 
vt 0.603177 0.648861 
vt 0.61998 0.570643 
vt 0.616575 0.541814 
vt 0.641017 0.580678 
vt 0.656633 0.602192 
vt 0.646878 0.642008 
vt 0.65998 0.625165 
vt 0.901369 0.916183 
vt 0.813021 0.84004 
vt 0.893507 0.833102 
vt 0.821116 0.925618 
vt 0.893507 0.833102 
vt 0.821116 0.925618 
vt 0.901369 0.916183 
vt 0.813044 0.840236 
vt 0.813021 0.84004 
vt 0.901369 0.916183 
vt 0.821116 0.925618 
vt 0.893507 0.833102 
vt 0.821116 0.925618 
vt 0.893507 0.833102 
vt 0.813021 0.84004 
vt 0.901369 0.916183 
vt 0.707272 0.182523 
vt 0.851696 0.019612 
vt 0.989469 0.182357 
vt 0.992848 0.014168 
vt 0.709917 0.015226 
vt 0.851785 0.345268 
vt 0.710056 0.349963 
vt 0.992703 0.350493 
vt 0.446358 0.183287 
vt 0.425227 0.34988 
vt 0.37072 0.183478 
vt 0.371095 0.351656 
vt 0.370517 0.015319 
vt 0.47667 0.348276 
vt 0.467107 0.016848 
vt 0.518679 0.183061 
vt 0.613751 0.349159 
vt 0.559311 0.018068 
vt 0.626817 0.182752 
vt 0.710056 0.349963 
vt 0.64196 0.016368 
vt 0.707272 0.182523 
vt 0.709917 0.015226 
vt 0.399182 0.672452 
vt 0.347865 0.831212 
vt 0.346049 0.680053 
vt 0.450833 0.822082 
vt 0.449993 0.670323 
vt 0.585023 0.677583 
vt 0.449837 0.967866 
vt 0.34442 0.979749 
vt 0.677959 0.835995 
vt 0.677831 0.696274 
vt 0.677702 0.975151 
vt 0.355903 0.171636 
vt 0.254673 0.012641 
vt 0.351848 0.017046 
vt 0.165985 0.169129 
vt 0.162319 0.013066 
vt 0.080291 0.022033 
vt 0.169237 0.320271 
vt 0.362213 0.330025 
vt 0.018462 0.183941 
vt 0.014968 0.042101 
vt 0.017859 0.323063 
vt 0.014233 0.677588 
vt 0.179778 0.673126 
vt 0.006941 0.829242 
vt 0.17801 0.988948 
vt 0.012408 0.986674 
vt 0.347865 0.831212 
vt 0.34442 0.979749 
vt 0.346049 0.680053 
vt 0.839178 0.566177 
vt 0.877881 0.591299 
vt 0.862487 0.597424 
vt 0.839178 0.589588 
vt 0.886474 0.57573 
vt 0.839178 0.566177 
vt 0.883408 0.544685 
vt 0.839178 0.512821 
vt 0.89742 0.532661 
vt 0.90472 0.518986 
vt 0.839178 0.512821 
vt 0.903321 0.50528 
vt 0.890286 0.486668 
vt 0.839178 0.454407 
vt 0.902971 0.467755 
vt 0.904104 0.453049 
vt 0.839178 0.454407 
vt 0.896975 0.440386 
vt 0.882961 0.425035 
vt 0.839178 0.40261 
vt 0.884382 0.395122 
vt 0.862073 0.375544 
vt 0.876625 0.380435 
vt 0.839178 0.40261 
vt 0.839178 0.381822 
vt 0.877881 0.591299 
vt 0.839178 0.566177 
vt 0.862487 0.597424 
vt 0.839178 0.589588 
vt 0.886474 0.57573 
vt 0.839178 0.566177 
vt 0.883408 0.544685 
vt 0.839178 0.512821 
vt 0.89742 0.532661 
vt 0.90472 0.518986 
vt 0.839178 0.512821 
vt 0.903321 0.50528 
vt 0.890286 0.486668 
vt 0.839178 0.454407 
vt 0.902971 0.467755 
vt 0.904104 0.453049 
vt 0.896975 0.440386 
vt 0.839178 0.454407 
vt 0.882961 0.425035 
vt 0.839178 0.40261 
vt 0.884382 0.395122 
vt 0.862073 0.375544 
vt 0.876625 0.380435 
vt 0.839178 0.40261 
vt 0.839178 0.381822 
vt 0.362213 0.330025 
vt 0.356964 0.496741 
vt 0.205935 0.491441 
vt 0.169237 0.320271 
vt 0.245218 0.659681 
vt 0.352497 0.665405 
vt 0.013892 0.658002 
vt 0.017666 0.48936 
vt 0.017859 0.323063 
vt 0.80788 0.599846 
vt 0.802723 0.619696 
vt 0.776818 0.599877 
vt 0.771621 0.580037 
vt 0.813038 0.579996 
vt 0.782014 0.619717 
vt 0.797565 0.639546 
vt 0.787211 0.639556 
vt 0.893507 0.833102 
vt 0.930436 0.908734 
vt 0.901369 0.916183 
vt 0.923212 0.834514 
vt 0.962322 0.902212 
vt 0.955391 0.834961 
vt 0.893507 0.833102 
vt 0.901369 0.916183 
vt 0.930436 0.908734 
vt 0.923212 0.834514 
vt 0.962322 0.902212 
vt 0.955391 0.834961 
vt 0.923212 0.834514 
vt 0.933036 0.765791 
vt 0.904609 0.757308 
vt 0.893507 0.833102 
vt 0.955391 0.834961 
vt 0.964389 0.773823 
vt 0.904609 0.757308 
vt 0.923212 0.834514 
vt 0.893507 0.833102 
vt 0.933036 0.765791 
vt 0.955391 0.834961 
vt 0.964389 0.773823 
vt 0.933036 0.765791 
vt 0.923212 0.834514 
vt 0.893507 0.833102 
vt 0.904609 0.757308 
vt 0.964389 0.773823 
vt 0.955391 0.834961 
vt 0.893507 0.833102 
vt 0.933036 0.765791 
vt 0.904609 0.757308 
vt 0.923212 0.834514 
vt 0.964389 0.773823 
vt 0.955391 0.834961 
vt 0.923212 0.834514 
vt 0.930436 0.908734 
vt 0.901369 0.916183 
vt 0.893507 0.833102 
vt 0.955391 0.834961 
vt 0.962322 0.902212 
vt 0.923212 0.834514 
vt 0.901369 0.916183 
vt 0.930436 0.908734 
vt 0.893507 0.833102 
vt 0.955391 0.834961 
vt 0.962322 0.902212 
vt 0.804441 0.958755 
vt 0.749179 0.98146 
vt 0.790919 0.978914 
vt 0.770712 0.992365 
vt 0.758512 0.991538 
vt 0.803644 0.9458 
vt 0.793613 0.937183 
vt 0.72788 0.992826 
vt 0.740346 0.99196 
vt 0.707236 0.978979 
vt 0.693462 0.958285 
vt 0.69434 0.945571 
vt 0.704902 0.937027 
vt 0.749336 0.89275 
vt 0.803813 0.928781 
vt 0.694371 0.928445 
vt 0.804696 0.915742 
vt 0.693537 0.915727 
vt 0.791138 0.895373 
vt 0.707384 0.895083 
vt 0.770817 0.881742 
vt 0.757774 0.882529 
vt 0.728077 0.881309 
vt 0.741292 0.882222 
vt 0.904609 0.757308 
vt 0.962256 0.697477 
vt 0.937923 0.679496 
vt 0.933036 0.765791 
vt 0.991562 0.710431 
vt 0.964389 0.773823 
vt 0.904609 0.757308 
vt 0.937923 0.679496 
vt 0.962256 0.697477 
vt 0.933036 0.765791 
vt 0.991562 0.710431 
vt 0.964389 0.773823 
vt 0.885524 0.757633 
vt 0.862646 0.791743 
vt 0.792022 0.796051 
vt 0.828455 0.814501 
vt 0.807813 0.813102 
vt 0.884176 0.735714 
vt 0.867203 0.721134 
vt 0.777077 0.813816 
vt 0.755984 0.81528 
vt 0.721053 0.791852 
vt 0.697748 0.756839 
vt 0.699235 0.735327 
vt 0.717105 0.720869 
vt 0.792287 0.645952 
vt 0.884463 0.706918 
vt 0.699286 0.706348 
vt 0.885956 0.684855 
vt 0.697875 0.684831 
vt 0.863015 0.650391 
vt 0.721304 0.649901 
vt 0.828632 0.627329 
vt 0.806565 0.628659 
vt 0.756317 0.626595 
vt 0.778676 0.628141 
vt 0.930436 0.908734 
vt 0.928145 0.990732 
vt 0.953234 0.974424 
vt 0.901369 0.916183 
vt 0.962322 0.902212 
vt 0.983516 0.963033 
vt 0.930436 0.908734 
vt 0.928145 0.990732 
vt 0.901369 0.916183 
vt 0.953234 0.974424 
vt 0.962322 0.902212 
vt 0.983516 0.963033 
vt 0.953234 0.974424 
vt 0.901369 0.916183 
vt 0.930436 0.908734 
vt 0.928145 0.990732 
vt 0.983516 0.963033 
vt 0.962322 0.902212 
vt 0.953234 0.974424 
vt 0.901369 0.916183 
vt 0.928145 0.990732 
vt 0.930436 0.908734 
vt 0.983516 0.963033 
vt 0.962322 0.902212 
vt 0.933036 0.765791 
vt 0.962256 0.697477 
vt 0.937923 0.679496 
vt 0.904609 0.757308 
vt 0.964389 0.773823 
vt 0.991562 0.710431 
vt 0.933036 0.765791 
vt 0.937923 0.679496 
vt 0.962256 0.697477 
vt 0.904609 0.757308 
vt 0.964389 0.773823 
vt 0.991562 0.710431 
vt 0.740193 0.865518 
vt 0.743265 0.877244 
vt 0.758552 0.8655 
vt 0.737122 0.853792 
vt 0.7616 0.853768 
vt 0.755504 0.877232 
vt 0.752456 0.888963 
vt 0.746336 0.888969 
vt 0.924814 0.566177 
vt 0.963517 0.591299 
vt 0.972111 0.57573 
vt 0.948124 0.597424 
vt 0.924814 0.589588 
vt 0.969044 0.544685 
vt 0.924814 0.512821 
vt 0.983057 0.532661 
vt 0.990357 0.518986 
vt 0.988958 0.50528 
vt 0.975922 0.486668 
vt 0.924814 0.454407 
vt 0.988608 0.467755 
vt 0.989741 0.453049 
vt 0.968598 0.425035 
vt 0.924814 0.40261 
vt 0.970018 0.395122 
vt 0.94771 0.375544 
vt 0.962262 0.380435 
vt 0.924814 0.454407 
vt 0.989741 0.453049 
vt 0.982612 0.440386 
vt 0.968598 0.425035 
vt 0.924814 0.40261 
vt 0.94771 0.375544 
vt 0.924814 0.381822 
vt 0.924814 0.566177 
vt 0.963517 0.591299 
vt 0.948124 0.597424 
vt 0.972111 0.57573 
vt 0.924814 0.566177 
vt 0.969044 0.544685 
vt 0.972111 0.57573 
vt 0.924814 0.589588 
vt 0.924814 0.566177 
vt 0.948124 0.597424 
vt 0.924814 0.512821 
vt 0.983057 0.532661 
vt 0.969044 0.544685 
vt 0.990357 0.518986 
vt 0.924814 0.566177 
vt 0.924814 0.454407 
vt 0.975922 0.486668 
vt 0.988608 0.467755 
vt 0.989741 0.453049 
vt 0.924814 0.512821 
vt 0.975922 0.486668 
vt 0.988958 0.50528 
vt 0.990357 0.518986 
vt 0.924814 0.454407 
vt 0.968598 0.425035 
vt 0.982612 0.440386 
vt 0.989741 0.453049 
vt 0.968598 0.425035 
vt 0.924814 0.40261 
vt 0.970018 0.395122 
vt 0.970018 0.395122 
vt 0.94771 0.375544 
vt 0.962262 0.380435 
vt 0.924814 0.40261 
vt 0.924814 0.454407 
vt 0.924814 0.40261 
vt 0.968598 0.425035 
vt 0.924814 0.40261 
vt 0.924814 0.381822 
vt 0.94771 0.375544 
vt 0.584791 0.469442 
vt 0.603931 0.382519 
vt 0.567271 0.39253 
vt 0.539696 0.411952 
vt 0.544213 0.461819 
vt 0.626892 0.392289 
vt 0.625992 0.50505 
vt 0.653917 0.387355 
vt 0.653564 0.550961 
vt 0.682272 0.395036 
vt 0.695482 0.41098 
vt 0.698811 0.560408 
vt 0.753095 0.424429 
vt 0.722415 0.412268 
vt 0.764249 0.561696 
vt 0.781052 0.483478 
vt 0.777647 0.454649 
vt 0.802089 0.493514 
vt 0.817705 0.515027 
vt 0.80795 0.554843 
vt 0.821052 0.538001 
vt 0.584791 0.469442 
vt 0.567271 0.39253 
vt 0.603931 0.382519 
vt 0.539696 0.411952 
vt 0.544213 0.461819 
vt 0.626892 0.392289 
vt 0.625992 0.50505 
vt 0.653917 0.387355 
vt 0.653564 0.550961 
vt 0.682272 0.395036 
vt 0.695482 0.41098 
vt 0.698811 0.560408 
vt 0.753095 0.424429 
vt 0.722415 0.412268 
vt 0.764249 0.561696 
vt 0.781052 0.483478 
vt 0.777647 0.454649 
vt 0.802089 0.493514 
vt 0.817705 0.515027 
vt 0.80795 0.554843 
vt 0.821052 0.538001 

usemtl Pet2Mtl

f 439/439/439 440/440/440 441/441/441 
f 439/439/439 441/441/441 442/442/442 
f 439/439/439 442/442/442 443/443/443 
f 439/439/439 444/444/444 440/440/440 
f 445/445/445 444/444/444 439/439/439 
f 445/445/445 446/446/446 444/444/444 
f 446/446/446 445/445/445 447/447/447 
f 448/448/448 446/446/446 447/447/447 
f 448/448/448 447/447/447 449/449/449 
f 450/450/450 449/449/449 447/447/447 
f 450/450/450 451/451/451 449/449/449 
f 449/449/449 451/451/451 452/452/452 
f 453/453/453 451/451/451 450/450/450 
f 451/451/451 453/453/453 454/454/454 
f 451/451/451 454/454/454 455/455/455 
f 453/453/453 456/456/456 454/454/454 
f 456/456/456 453/453/453 457/457/457 
f 457/457/457 453/453/453 458/458/458 
f 458/458/458 459/459/459 457/457/457 
f 460/460/460 461/461/461 462/462/462 
f 460/460/460 463/463/463 461/461/461 
f 460/460/460 464/464/464 463/463/463 
f 460/460/460 462/462/462 465/465/465 
f 465/465/465 466/466/466 460/460/460 
f 467/467/467 466/466/466 465/465/465 
f 466/466/466 467/467/467 468/468/468 
f 469/469/469 468/468/468 467/467/467 
f 468/468/468 469/469/469 470/470/470 
f 468/468/468 470/470/470 471/471/471 
f 471/471/471 470/470/470 472/472/472 
f 472/472/472 470/470/470 473/473/473 
f 474/474/474 471/471/471 472/472/472 
f 472/472/472 475/475/475 474/474/474 
f 475/475/475 472/472/472 476/476/476 
f 474/474/474 475/475/475 477/477/477 
f 478/478/478 474/474/474 477/477/477 
f 474/474/474 478/478/478 479/479/479 
f 479/479/479 478/478/478 480/480/480 
f 481/481/481 482/482/482 483/483/483 
f 482/482/482 481/481/481 484/484/484 
f 485/485/485 486/486/486 487/487/487 
f 486/486/486 485/485/485 488/488/488 
f 489/489/489 490/490/490 491/491/491 
f 490/490/490 489/489/489 492/492/492 
f 493/493/493 494/494/494 495/495/495 
f 494/494/494 493/493/493 496/496/496 
f 497/497/497 498/498/498 499/499/499 
f 498/498/498 500/500/500 499/499/499 
f 498/498/498 497/497/497 501/501/501 
f 502/502/502 497/497/497 499/499/499 
f 497/497/497 502/502/502 503/503/503 
f 502/502/502 499/499/499 504/504/504 
f 505/505/505 506/506/506 507/507/507 
f 508/508/508 507/507/507 506/506/506 
f 507/507/507 509/509/509 505/505/505 
f 506/506/506 505/505/505 510/510/510 
f 511/511/511 505/505/505 509/509/509 
f 512/512/512 510/510/510 505/505/505 
f 505/505/505 511/511/511 512/512/512 
f 510/510/510 512/512/512 513/513/513 
f 514/514/514 512/512/512 511/511/511 
f 512/512/512 515/515/515 513/513/513 
f 512/512/512 514/514/514 515/515/515 
f 513/513/513 515/515/515 516/516/516 
f 517/517/517 515/515/515 514/514/514 
f 518/518/518 516/516/516 515/515/515 
f 515/515/515 517/517/517 518/518/518 
f 519/519/519 518/518/518 517/517/517 
f 520/520/520 521/521/521 522/522/522 
f 521/521/521 520/520/520 523/523/523 
f 520/520/520 524/524/524 523/523/523 
f 525/525/525 523/523/523 524/524/524 
f 526/526/526 521/521/521 523/523/523 
f 521/521/521 526/526/526 527/527/527 
f 523/523/523 525/525/525 528/528/528 
f 523/523/523 528/528/528 526/526/526 
f 525/525/525 529/529/529 528/528/528 
f 526/526/526 528/528/528 530/530/530 
f 531/531/531 532/532/532 533/533/533 
f 532/532/532 531/531/531 534/534/534 
f 532/532/532 534/534/534 535/535/535 
f 536/536/536 535/535/535 534/534/534 
f 531/531/531 537/537/537 534/534/534 
f 531/531/531 538/538/538 537/537/537 
f 536/536/536 534/534/534 539/539/539 
f 537/537/537 539/539/539 534/534/534 
f 536/536/536 539/539/539 540/540/540 
f 539/539/539 537/537/537 541/541/541 
f 542/542/542 543/543/543 544/544/544 
f 545/545/545 544/544/544 543/543/543 
f 544/544/544 545/545/545 546/546/546 
f 547/547/547 545/545/545 543/543/543 
f 545/545/545 547/547/547 548/548/548 
f 543/543/543 549/549/549 547/547/547 
f 550/550/550 551/551/551 552/552/552 
f 553/553/553 550/550/550 552/552/552 
f 551/551/551 550/550/550 554/554/554 
f 555/555/555 556/556/556 554/554/554 
f 555/555/555 557/557/557 556/556/556 
f 557/557/557 558/558/558 556/556/556 
f 558/558/558 557/557/557 559/559/559 
f 559/559/559 560/560/560 561/561/561 
f 561/561/561 560/560/560 562/562/562 
f 560/560/560 563/563/563 562/562/562 
f 563/563/563 564/564/564 562/562/562 
f 564/564/564 563/563/563 565/565/565 
f 565/565/565 566/566/566 567/567/567 
f 567/567/567 566/566/566 568/568/568 
f 566/566/566 569/569/569 568/568/568 
f 568/568/568 569/569/569 570/570/570 
f 570/570/570 571/571/571 572/572/572 
f 571/571/571 570/570/570 573/573/573 
f 573/573/573 574/574/574 571/571/571 
f 575/575/575 576/576/576 577/577/577 
f 578/578/578 577/577/577 576/576/576 
f 576/576/576 575/575/575 579/579/579 
f 580/580/580 579/579/579 581/581/581 
f 580/580/580 581/581/581 582/582/582 
f 583/583/583 582/582/582 581/581/581 
f 582/582/582 583/583/583 584/584/584 
f 585/585/585 584/584/584 586/586/586 
f 587/587/587 585/585/585 586/586/586 
f 585/585/585 587/587/587 588/588/588 
f 589/589/589 588/588/588 587/587/587 
f 588/588/588 589/589/589 590/590/590 
f 591/591/591 592/592/592 590/590/590 
f 593/593/593 592/592/592 591/591/591 
f 592/592/592 593/593/593 594/594/594 
f 593/593/593 595/595/595 594/594/594 
f 596/596/596 595/595/595 597/597/597 
f 595/595/595 596/596/596 598/598/598 
f 598/598/598 596/596/596 599/599/599 
f 600/600/600 601/601/601 602/602/602 
f 600/600/600 602/602/602 603/603/603 
f 601/601/601 604/604/604 602/602/602 
f 601/601/601 605/605/605 604/604/604 
f 604/604/604 606/606/606 602/602/602 
f 602/602/602 606/606/606 607/607/607 
f 602/602/602 607/607/607 603/603/603 
f 603/603/603 607/607/607 608/608/608 
f 609/609/609 610/610/610 611/611/611 
f 612/612/612 609/609/609 611/611/611 
f 613/613/613 609/609/609 612/612/612 
f 611/611/611 610/610/610 614/614/614 
f 610/610/610 615/615/615 614/614/614 
f 614/614/614 615/615/615 616/616/616 
f 617/617/617 618/618/618 619/619/619 
f 618/618/618 617/617/617 620/620/620 
f 620/620/620 621/621/621 618/618/618 
f 621/621/621 620/620/620 622/622/622 
f 623/623/623 624/624/624 625/625/625 
f 623/623/623 625/625/625 626/626/626 
f 626/626/626 625/625/625 627/627/627 
f 626/626/626 627/627/627 628/628/628 
f 629/629/629 630/630/630 631/631/631 
f 631/631/631 632/632/632 629/629/629 
f 630/630/630 629/629/629 633/633/633 
f 633/633/633 634/634/634 630/630/630 
f 635/635/635 636/636/636 637/637/637 
f 636/636/636 635/635/635 638/638/638 
f 638/638/638 639/639/639 636/636/636 
f 639/639/639 638/638/638 640/640/640 
f 641/641/641 642/642/642 643/643/643 
f 643/643/643 644/644/644 641/641/641 
f 642/642/642 641/641/641 645/645/645 
f 645/645/645 646/646/646 642/642/642 
f 647/647/647 648/648/648 649/649/649 
f 648/648/648 647/647/647 650/650/650 
f 650/650/650 651/651/651 648/648/648 
f 651/651/651 650/650/650 652/652/652 
f 653/653/653 654/654/654 655/655/655 
f 655/655/655 656/656/656 653/653/653 
f 657/657/657 654/654/654 653/653/653 
f 657/657/657 658/658/658 654/654/654 
f 659/659/659 660/660/660 661/661/661 
f 660/660/660 659/659/659 662/662/662 
f 661/661/661 663/663/663 659/659/659 
f 663/663/663 661/661/661 664/664/664 
f 665/665/665 666/666/666 667/667/667 
f 667/667/667 666/666/666 668/668/668 
f 668/668/668 666/666/666 669/669/669 
f 666/666/666 665/665/665 670/670/670 
f 671/671/671 666/666/666 670/670/670 
f 666/666/666 672/672/672 673/673/673 
f 672/672/672 666/666/666 674/674/674 
f 674/674/674 666/666/666 675/675/675 
f 675/675/675 666/666/666 676/676/676 
f 666/666/666 677/677/677 676/676/676 
f 671/671/671 678/678/678 666/666/666 
f 666/666/666 678/678/678 677/677/677 
f 678/678/678 671/671/671 679/679/679 
f 677/677/677 678/678/678 680/680/680 
f 681/681/681 678/678/678 679/679/679 
f 678/678/678 682/682/682 680/680/680 
f 683/683/683 678/678/678 681/681/681 
f 682/682/682 678/678/678 684/684/684 
f 685/685/685 678/678/678 683/683/683 
f 678/678/678 685/685/685 686/686/686 
f 684/684/684 678/678/678 687/687/687 
f 687/687/687 678/678/678 688/688/688 
f 689/689/689 690/690/690 691/691/691 
f 690/690/690 689/689/689 692/692/692 
f 692/692/692 693/693/693 690/690/690 
f 693/693/693 692/692/692 694/694/694 
f 695/695/695 696/696/696 697/697/697 
f 695/695/695 697/697/697 698/698/698 
f 698/698/698 697/697/697 699/699/699 
f 698/698/698 699/699/699 700/700/700 
f 701/701/701 702/702/702 703/703/703 
f 702/702/702 704/704/704 703/703/703 
f 704/704/704 705/705/705 703/703/703 
f 703/703/703 706/706/706 701/701/701 
f 707/707/707 706/706/706 703/703/703 
f 703/703/703 708/708/708 709/709/709 
f 709/709/709 710/710/710 703/703/703 
f 710/710/710 711/711/711 703/703/703 
f 711/711/711 712/712/712 703/703/703 
f 703/703/703 712/712/712 713/713/713 
f 707/707/707 703/703/703 714/714/714 
f 703/703/703 713/713/713 714/714/714 
f 714/714/714 715/715/715 707/707/707 
f 713/713/713 716/716/716 714/714/714 
f 717/717/717 715/715/715 714/714/714 
f 714/714/714 716/716/716 718/718/718 
f 719/719/719 717/717/717 714/714/714 
f 718/718/718 720/720/720 714/714/714 
f 721/721/721 719/719/719 714/714/714 
f 714/714/714 722/722/722 721/721/721 
f 720/720/720 723/723/723 714/714/714 
f 723/723/723 724/724/724 714/714/714 
f 725/725/725 726/726/726 727/727/727 
f 726/726/726 725/725/725 728/728/728 
f 727/727/727 729/729/729 725/725/725 
f 729/729/729 727/727/727 730/730/730 
f 731/731/731 732/732/732 733/733/733 
f 732/732/732 731/731/731 734/734/734 
f 735/735/735 734/734/734 731/731/731 
f 734/734/734 735/735/735 736/736/736 
f 737/737/737 738/738/738 739/739/739 
f 738/738/738 737/737/737 740/740/740 
f 739/739/739 741/741/741 737/737/737 
f 741/741/741 739/739/739 742/742/742 
f 743/743/743 744/744/744 745/745/745 
f 744/744/744 743/743/743 746/746/746 
f 747/747/747 746/746/746 743/743/743 
f 746/746/746 747/747/747 748/748/748 
f 749/749/749 750/750/750 751/751/751 
f 751/751/751 752/752/752 749/749/749 
f 753/753/753 750/750/750 749/749/749 
f 753/753/753 754/754/754 750/750/750 
f 755/755/755 756/756/756 757/757/757 
f 756/756/756 755/755/755 758/758/758 
f 757/757/757 759/759/759 755/755/755 
f 759/759/759 757/757/757 760/760/760 
f 761/761/761 762/762/762 763/763/763 
f 764/764/764 761/761/761 763/763/763 
f 765/765/765 764/764/764 763/763/763 
f 763/763/763 762/762/762 766/766/766 
f 766/766/766 762/762/762 767/767/767 
f 762/762/762 768/768/768 767/767/767 
f 769/769/769 770/770/770 771/771/771 
f 770/770/770 769/769/769 772/772/772 
f 773/773/773 772/772/772 769/769/769 
f 769/769/769 771/771/771 774/774/774 
f 769/769/769 774/774/774 775/775/775 
f 776/776/776 775/775/775 774/774/774 
f 775/775/775 776/776/776 777/777/777 
f 778/778/778 775/775/775 777/777/777 
f 775/775/775 778/778/778 779/779/779 
f 775/775/775 779/779/779 780/780/780 
f 781/781/781 780/780/780 779/779/779 
f 780/780/780 781/781/781 782/782/782 
f 780/780/780 783/783/783 784/784/784 
f 783/783/783 785/785/785 784/784/784 
f 785/785/785 786/786/786 784/784/784 
f 786/786/786 785/785/785 787/787/787 
f 788/788/788 789/789/789 790/790/790 
f 788/788/788 790/790/790 791/791/791 
f 792/792/792 793/793/793 794/794/794 
f 795/795/795 796/796/796 797/797/797 
f 796/796/796 795/795/795 798/798/798 
f 799/799/799 800/800/800 801/801/801 
f 802/802/802 803/803/803 804/804/804 
f 805/805/805 806/806/806 807/807/807 
f 806/806/806 805/805/805 808/808/808 
f 809/809/809 805/805/805 807/807/807 
f 805/805/805 810/810/810 811/811/811 
f 810/810/810 812/812/812 811/811/811 
f 812/812/812 810/810/810 813/813/813 
f 814/814/814 815/815/815 816/816/816 
f 814/814/814 816/816/816 817/817/817 
f 818/818/818 819/819/819 820/820/820 
f 818/818/818 820/820/820 821/821/821 
f 822/822/822 823/823/823 824/824/824 
f 825/825/825 826/826/826 827/827/827 
f 826/826/826 825/825/825 828/828/828 
f 829/829/829 830/830/830 831/831/831 
f 832/832/832 833/833/833 834/834/834 
f 835/835/835 836/836/836 837/837/837 
f 835/835/835 837/837/837 838/838/838 
f 838/838/838 839/839/839 835/835/835 
f 836/836/836 835/835/835 840/840/840 
f 841/841/841 840/840/840 835/835/835 
f 841/841/841 842/842/842 840/840/840 
f 842/842/842 841/841/841 843/843/843 
f 844/844/844 842/842/842 843/843/843 
f 844/844/844 843/843/843 845/845/845 
f 846/846/846 845/845/845 843/843/843 
f 845/845/845 846/846/846 847/847/847 
f 845/845/845 847/847/847 848/848/848 
f 849/849/849 847/847/847 846/846/846 
f 847/847/847 849/849/849 850/850/850 
f 847/847/847 850/850/850 851/851/851 
f 849/849/849 852/852/852 850/850/850 
f 849/849/849 853/853/853 852/852/852 
f 853/853/853 849/849/849 854/854/854 
f 854/854/854 855/855/855 853/853/853 
f 856/856/856 857/857/857 858/858/858 
f 857/857/857 856/856/856 859/859/859 
f 859/859/859 856/856/856 860/860/860 
f 861/861/861 856/856/856 858/858/858 
f 861/861/861 862/862/862 856/856/856 
f 863/863/863 862/862/862 861/861/861 
f 862/862/862 863/863/863 864/864/864 
f 865/865/865 864/864/864 863/863/863 
f 864/864/864 865/865/865 866/866/866 
f 866/866/866 867/867/867 864/864/864 
f 867/867/867 866/866/866 868/868/868 
f 868/868/868 866/866/866 869/869/869 
f 870/870/870 867/867/867 868/868/868 
f 868/868/868 871/871/871 870/870/870 
f 871/871/871 868/868/868 872/872/872 
f 870/870/870 871/871/871 873/873/873 
f 870/870/870 873/873/873 874/874/874 
f 870/870/870 874/874/874 875/875/875 
f 875/875/875 874/874/874 876/876/876 

