# This file is brought to you by Roblox Corporation
# Generated by Roblox Studio

mtllib t5.mtl

g Tier111

v 0.967286 -3.47262 -4.94954e-07 
v 0.683888 -3.47262 0.68396 
v 0 -3.665 -5.63965e-07 
v 0 -3.47262 -0.967267 
v 0 -3.665 -5.63965e-07 
v -0.683888 -3.47262 -0.683961 
v 0.683888 -3.47262 -0.683961 
v 0 -3.665 -5.63965e-07 
v 0 -3.47262 -0.967267 
v -0.683888 -3.47262 0.68396 
v 0 -3.665 -5.63965e-07 
v 0 -3.47262 0.967266 
v 0 -3.47262 0.967266 
v 0 -3.665 -5.63965e-07 
v 0.683888 -3.47262 0.68396 
v 0.683888 -3.47262 -0.683961 
v 0.967286 -3.47262 -4.94954e-07 
v 0 -3.665 -5.63965e-07 
v -0.967286 -3.47262 -5.32618e-07 
v 0 -3.665 -5.63965e-07 
v -0.683888 -3.47262 0.68396 
v -0.967286 -3.47262 -5.32618e-07 
v -0.683888 -3.47262 -0.683961 
v 0 -3.665 -5.63965e-07 
v 0 -3.47262 0.967266 
v -0.683888 -2.92469 1.65123 
v -0.683888 -3.47262 0.68396 
v -0.683888 -3.47262 0.68396 
v -1.65117 -2.92469 0.68396 
v -0.967286 -3.47262 -5.32618e-07 
v -0.967286 -3.47262 -5.32618e-07 
v -1.65117 -2.92469 -0.683961 
v -0.683888 -3.47262 -0.683961 
v -0.683888 -3.47262 -0.683961 
v -0.683888 -2.92469 -1.65123 
v 0 -3.47262 -0.967267 
v 0 -3.47262 -0.967267 
v 0.683888 -2.92469 -1.65123 
v 0.683888 -3.47262 -0.683961 
v 0.683888 -3.47262 -0.683961 
v 1.65117 -2.92469 -0.683961 
v 0.967286 -3.47262 -4.94954e-07 
v 0.967286 -3.47262 -4.94954e-07 
v 1.65117 -2.92469 0.68396 
v 0.683888 -3.47262 0.68396 
v 0.683888 -3.47262 0.68396 
v 0.683888 -2.92469 1.65123 
v 0 -3.47262 0.967266 
v 0 -3.47262 0.967266 
v 0.683888 -2.92469 1.65123 
v -0.683888 -2.92469 1.65123 
v -0.683888 -3.47262 0.68396 
v -0.683888 -2.92469 1.65123 
v -1.65117 -2.92469 0.68396 
v -0.967286 -3.47262 -5.32618e-07 
v -1.65117 -2.92469 0.68396 
v -1.65117 -2.92469 -0.683961 
v -0.683888 -3.47262 -0.683961 
v -1.65117 -2.92469 -0.683961 
v -0.683888 -2.92469 -1.65123 
v 0 -3.47262 -0.967267 
v -0.683888 -2.92469 -1.65123 
v 0.683888 -2.92469 -1.65123 
v 0.683888 -3.47262 -0.683961 
v 0.683888 -2.92469 -1.65123 
v 1.65117 -2.92469 -0.683961 
v 0.967286 -3.47262 -4.94954e-07 
v 1.65117 -2.92469 -0.683961 
v 1.65117 -2.92469 0.68396 
v 0.683888 -3.47262 0.68396 
v 1.65117 -2.92469 0.68396 
v 0.683888 -2.92469 1.65123 
v 0 -2.10469 2.33519 
v -0.683888 -2.92469 1.65123 
v 0.683888 -2.92469 1.65123 
v -1.65117 -2.10469 1.65123 
v -1.65117 -2.92469 0.68396 
v -0.683888 -2.92469 1.65123 
v -2.33522 -2.10469 -3.09756e-07 
v -1.65117 -2.92469 -0.683961 
v -1.65117 -2.92469 0.68396 
v -1.65117 -2.10469 -1.65123 
v -0.683888 -2.92469 -1.65123 
v -1.65117 -2.92469 -0.683961 
v 0 -2.10469 -2.33519 
v 0.683888 -2.92469 -1.65123 
v -0.683888 -2.92469 -1.65123 
v 1.65117 -2.10469 -1.65123 
v 1.65117 -2.92469 -0.683961 
v 0.683888 -2.92469 -1.65123 
v 2.33522 -2.10469 -3.85084e-07 
v 1.65117 -2.92469 0.68396 
v 1.65117 -2.92469 -0.683961 
v 1.65117 -2.10469 1.65123 
v 0.683888 -2.92469 1.65123 
v 1.65117 -2.92469 0.68396 
v 0 -2.10469 2.33519 
v -1.65117 -2.10469 1.65123 
v -0.683888 -2.92469 1.65123 
v -1.65117 -2.10469 1.65123 
v -2.33522 -2.10469 -3.09756e-07 
v -1.65117 -2.92469 0.68396 
v -2.33522 -2.10469 -3.09756e-07 
v -1.65117 -2.10469 -1.65123 
v -1.65117 -2.92469 -0.683961 
v -1.65117 -2.10469 -1.65123 
v 0 -2.10469 -2.33519 
v -0.683888 -2.92469 -1.65123 
v 0 -2.10469 -2.33519 
v 1.65117 -2.10469 -1.65123 
v 0.683888 -2.92469 -1.65123 
v 1.65117 -2.10469 -1.65123 
v 2.33522 -2.10469 -3.85084e-07 
v 1.65117 -2.92469 -0.683961 
v 2.33522 -2.10469 -3.85084e-07 
v 1.65117 -2.10469 1.65123 
v 1.65117 -2.92469 0.68396 
v 1.65117 -2.10469 1.65123 
v 0 -2.10469 2.33519 
v 0.683888 -2.92469 1.65123 
v -0.967286 -1.13741 2.33519 
v -1.65117 -2.10469 1.65123 
v 0 -2.10469 2.33519 
v -2.33522 -1.13741 0.967266 
v -2.33522 -2.10469 -3.09756e-07 
v -1.65117 -2.10469 1.65123 
v -2.33522 -1.13741 -0.967267 
v -1.65117 -2.10469 -1.65123 
v -2.33522 -2.10469 -3.09756e-07 
v -0.967286 -1.13741 -2.33519 
v 0 -2.10469 -2.33519 
v -1.65117 -2.10469 -1.65123 
v 0.967286 -1.13741 -2.33519 
v 1.65117 -2.10469 -1.65123 
v 0 -2.10469 -2.33519 
v 2.33522 -1.13741 -0.967266 
v 2.33522 -2.10469 -3.85084e-07 
v 1.65117 -2.10469 -1.65123 
v 2.33522 -1.13741 0.967266 
v 1.65117 -2.10469 1.65123 
v 2.33522 -2.10469 -3.85084e-07 
v 0.967286 -1.13741 2.33519 
v 0 -2.10469 2.33519 
v 1.65117 -2.10469 1.65123 
v -0.967286 -1.13741 -2.33519 
v 0 0.313481 -2.33519 
v 0.967286 -1.13741 -2.33519 
v 0.967286 -1.13741 -2.33519 
v 1.65117 0.313481 -1.65123 
v 2.33522 -1.13741 -0.967266 
v 2.33522 -1.13741 -0.967266 
v 2.33522 0.313481 8.8856e-09 
v 2.33522 -1.13741 0.967266 
v -0.967286 -1.13741 -2.33519 
v 0.967286 -1.13741 -2.33519 
v 0 -2.10469 -2.33519 
v 0.967286 -1.13741 -2.33519 
v 2.33522 -1.13741 -0.967266 
v 1.65117 -2.10469 -1.65123 
v 2.33522 -1.13741 -0.967266 
v 2.33522 -1.13741 0.967266 
v 2.33522 -2.10469 -3.85084e-07 
v -0.967286 -1.13741 2.33519 
v -1.65117 0.313481 1.65123 
v -2.33522 -1.13741 0.967266 
v -2.33522 -1.13741 0.967266 
v -2.33522 0.313481 8.42136e-08 
v -2.33522 -1.13741 -0.967267 
v -2.33522 -1.13741 -0.967267 
v -1.65117 0.313481 -1.65123 
v -0.967286 -1.13741 -2.33519 
v 2.33522 -1.13741 0.967266 
v 1.65117 0.313481 1.65123 
v 0.967286 -1.13741 2.33519 
v 0.967286 -1.13741 2.33519 
v 0 0.313481 2.33519 
v -0.967286 -1.13741 2.33519 
v -0.967286 -1.13741 2.33519 
v -2.33522 -1.13741 0.967266 
v -1.65117 -2.10469 1.65123 
v -2.33522 -1.13741 0.967266 
v -2.33522 -1.13741 -0.967267 
v -2.33522 -2.10469 -3.09756e-07 
v -2.33522 -1.13741 -0.967267 
v -0.967286 -1.13741 -2.33519 
v -1.65117 -2.10469 -1.65123 
v 2.33522 -1.13741 0.967266 
v 0.967286 -1.13741 2.33519 
v 1.65117 -2.10469 1.65123 
v 0.967286 -1.13741 2.33519 
v -0.967286 -1.13741 2.33519 
v 0 -2.10469 2.33519 
v -0.967286 -1.13741 2.33519 
v 0 0.313481 2.33519 
v -1.65117 0.313481 1.65123 
v -2.33522 -1.13741 0.967266 
v -1.65117 0.313481 1.65123 
v -2.33522 0.313481 8.42136e-08 
v -2.33522 -1.13741 -0.967267 
v -2.33522 0.313481 8.42136e-08 
v -1.65117 0.313481 -1.65123 
v -0.967286 -1.13741 -2.33519 
v -1.65117 0.313481 -1.65123 
v 0 0.313481 -2.33519 
v 0.967286 -1.13741 -2.33519 
v 0 0.313481 -2.33519 
v 1.65117 0.313481 -1.65123 
v 2.33522 -1.13741 -0.967266 
v 1.65117 0.313481 -1.65123 
v 2.33522 0.313481 8.8856e-09 
v 2.33522 -1.13741 0.967266 
v 2.33522 0.313481 8.8856e-09 
v 1.65117 0.313481 1.65123 
v 0.967286 -1.13741 2.33519 
v 1.65117 0.313481 1.65123 
v 0 0.313481 2.33519 
v -1.65117 0.313481 -1.65123 
v -0.683888 1.54349 -1.65123 
v 0 0.313481 -2.33519 
v 0 0.313481 -2.33519 
v 0.683888 1.54349 -1.65123 
v 1.65117 0.313481 -1.65123 
v 1.65117 0.313481 -1.65123 
v 1.65117 1.54349 -0.68396 
v 2.33522 0.313481 8.8856e-09 
v 2.33522 0.313481 8.8856e-09 
v 1.65117 1.54349 0.683961 
v 1.65117 0.313481 1.65123 
v 1.65117 0.313481 1.65123 
v 0.683888 1.54349 1.65123 
v 0 0.313481 2.33519 
v 0 0.313481 2.33519 
v -0.683888 1.54349 1.65123 
v -1.65117 0.313481 1.65123 
v -1.65117 0.313481 1.65123 
v -1.65117 1.54349 0.683961 
v -2.33522 0.313481 8.42136e-08 
v -2.33522 0.313481 8.42136e-08 
v -1.65117 1.54349 -0.68396 
v -1.65117 0.313481 -1.65123 
v 0.700549 3.41223 -0.29018 
v 0.606598 3.665 2.38237e-07 
v 0.758247 3.665 2.24979e-07 
v 0.56047 3.41223 -0.232144 
v 0.700549 3.41223 -0.29018 
v 0.53625 3.665 -0.536182 
v 0.428876 3.665 -0.428946 
v 0.56047 3.41223 -0.232144 
v 0.290186 3.41223 -0.700556 
v 0.428876 3.665 -0.428946 
v 0.53625 3.665 -0.536182 
v 0.232179 3.41223 -0.560445 
v 0.428876 3.665 0.428947 
v 0.290186 3.41223 0.700557 
v 0.53625 3.665 0.536183 
v 0.232179 3.41223 0.560445 
v 0 3.665 -0.606621 
v -0.290186 3.41223 -0.700556 
v -0.232179 3.41223 -0.560445 
v 0 3.665 -0.758277 
v -0.290186 3.41223 -0.700556 
v -0.428876 3.665 -0.428946 
v -0.232179 3.41223 -0.560445 
v -0.53625 3.665 -0.536183 
v -0.700549 3.41223 -0.29018 
v -0.428876 3.665 -0.428946 
v -0.53625 3.665 -0.536183 
v -0.56047 3.41223 -0.232144 
v -0.290186 3.41223 0.700557 
v 0 3.665 0.606622 
v -0.232179 3.41223 0.560445 
v 0 3.665 0.758277 
v -0.53625 3.665 0.536183 
v -0.290186 3.41223 0.700557 
v -0.428876 3.665 0.428947 
v -0.232179 3.41223 0.560445 
v -0.56047 3.41223 0.232144 
v -0.606598 3.665 2.53605e-07 
v -0.700549 3.41223 0.29018 
v -0.758247 3.665 2.53605e-07 
v 0.232179 3.41223 -0.560445 
v 0 3.665 -0.758277 
v 0 3.665 -0.606621 
v 0.290186 3.41223 -0.700556 
v 0.700549 3.41223 0.29018 
v 0.758247 3.665 2.24979e-07 
v 0.56047 3.41223 0.232144 
v 0.606598 3.665 2.38237e-07 
v 0.56047 3.41223 0.232144 
v 0.53625 3.665 0.536183 
v 0.700549 3.41223 0.29018 
v 0.428876 3.665 0.428947 
v 0 3.665 0.758277 
v 0.232179 3.41223 0.560445 
v 0 3.665 0.606622 
v 0.290186 3.41223 0.700557 
v -0.758247 3.665 2.53605e-07 
v -0.56047 3.41223 -0.232144 
v -0.700549 3.41223 -0.29018 
v -0.606598 3.665 2.53605e-07 
v -0.700549 3.41223 0.29018 
v -0.53625 3.665 0.536183 
v -0.56047 3.41223 0.232144 
v -0.428876 3.665 0.428947 
v 0 0.313481 2.33519 
v 0.683888 1.54349 1.65123 
v -0.683888 1.54349 1.65123 
v -1.65117 0.313481 1.65123 
v -0.683888 1.54349 1.65123 
v -1.65117 1.54349 0.683961 
v -2.33522 0.313481 8.42136e-08 
v -1.65117 1.54349 0.683961 
v -1.65117 1.54349 -0.68396 
v -1.65117 0.313481 -1.65123 
v -1.65117 1.54349 -0.68396 
v -0.683888 1.54349 -1.65123 
v 0 0.313481 -2.33519 
v -0.683888 1.54349 -1.65123 
v 0.683888 1.54349 -1.65123 
v 1.65117 0.313481 -1.65123 
v 0.683888 1.54349 -1.65123 
v 1.65117 1.54349 -0.68396 
v 2.33522 0.313481 8.8856e-09 
v 1.65117 1.54349 -0.68396 
v 1.65117 1.54349 0.683961 
v 1.65117 0.313481 1.65123 
v 1.65117 1.54349 0.683961 
v 0.683888 1.54349 1.65123 
v 0 2.36538 0.967267 
v -0.683888 1.54349 1.65123 
v 0.683888 1.54349 1.65123 
v -0.683888 2.36538 0.683961 
v -1.65117 1.54349 0.683961 
v -0.683888 1.54349 1.65123 
v -0.967286 2.36538 4.18508e-07 
v -1.65117 1.54349 -0.68396 
v -1.65117 1.54349 0.683961 
v -0.683888 2.36538 -0.68396 
v -0.683888 1.54349 -1.65123 
v -1.65117 1.54349 -0.68396 
v 0 2.36538 -0.967266 
v 0.683888 1.54349 -1.65123 
v -0.683888 1.54349 -1.65123 
v 0.683888 2.36538 -0.68396 
v 1.65117 1.54349 -0.68396 
v 0.683888 1.54349 -1.65123 
v 0.967286 2.36538 4.56172e-07 
v 1.65117 1.54349 0.683961 
v 1.65117 1.54349 -0.68396 
v 0.683888 2.36538 0.683961 
v 0.683888 1.54349 1.65123 
v 1.65117 1.54349 0.683961 
v 0 2.36538 0.967267 
v -0.683888 2.36538 0.683961 
v -0.683888 1.54349 1.65123 
v -0.683888 2.36538 0.683961 
v -0.967286 2.36538 4.18508e-07 
v -1.65117 1.54349 0.683961 
v -0.967286 2.36538 4.18508e-07 
v -0.683888 2.36538 -0.68396 
v -1.65117 1.54349 -0.68396 
v -0.683888 2.36538 -0.68396 
v 0 2.36538 -0.967266 
v -0.683888 1.54349 -1.65123 
v 0 2.36538 -0.967266 
v 0.683888 2.36538 -0.68396 
v 0.683888 1.54349 -1.65123 
v 0.683888 2.36538 -0.68396 
v 0.967286 2.36538 4.56172e-07 
v 1.65117 1.54349 -0.68396 
v 0.967286 2.36538 4.56172e-07 
v 0.683888 2.36538 0.683961 
v 1.65117 1.54349 0.683961 
v 0.683888 2.36538 0.683961 
v 0 2.36538 0.967267 
v 0.683888 1.54349 1.65123 
v -0.967286 2.36538 4.18508e-07 
v -0.683888 2.36538 0.683961 
v 0 2.65398 4.65527e-07 
v -0.683888 2.36538 -0.68396 
v -0.967286 2.36538 4.18508e-07 
v 0 2.65398 4.65527e-07 
v -0.683888 2.36538 -0.68396 
v 0 2.65398 4.65527e-07 
v 0 2.36538 -0.967266 
v 0.967286 2.36538 4.56172e-07 
v 0 2.65398 4.65527e-07 
v 0.683888 2.36538 0.683961 
v 0 2.36538 0.967267 
v 0 2.65398 4.65527e-07 
v -0.683888 2.36538 0.683961 
v 0.683888 2.36538 0.683961 
v 0 2.65398 4.65527e-07 
v 0 2.36538 0.967267 
v 0.967286 2.36538 4.56172e-07 
v 0.683888 2.36538 -0.68396 
v 0 2.65398 4.65527e-07 
v 0.683888 2.36538 -0.68396 
v 0 2.36538 -0.967266 
v 0 2.65398 4.65527e-07 
v 0.758247 3.0331 1.2203e-07 
v 0.758247 3.665 2.24979e-07 
v 0.700549 3.41223 0.29018 
v 0.700549 3.0331 0.29018 
v 0.53625 3.0331 0.536183 
v 0.53625 3.665 0.536183 
v 0.290186 3.41223 0.700557 
v 0.290186 3.0331 0.700557 
v 0 3.0331 0.758277 
v 0 3.665 0.758277 
v 0 3.0331 0.758277 
v 0 3.665 0.758277 
v -0.290186 3.41223 0.700557 
v -0.290186 3.0331 0.700557 
v -0.53625 3.0331 0.536183 
v -0.53625 3.665 0.536183 
v -0.700549 3.41223 0.29018 
v -0.700549 3.0331 0.29018 
v -0.758247 3.0331 1.50656e-07 
v -0.758247 3.665 2.53605e-07 
v 0.700549 3.41223 -0.29018 
v 0.758247 3.665 2.24979e-07 
v 0.758247 3.0331 1.2203e-07 
v 0.700549 3.0331 -0.29018 
v 0.53625 3.0331 -0.536182 
v 0.53625 3.665 -0.536182 
v 0.290186 3.41223 -0.700556 
v 0.290186 3.0331 -0.700556 
v 0 3.0331 -0.758277 
v 0 3.665 -0.758277 
v -0.290186 3.41223 -0.700556 
v 0 3.0331 -0.758277 
v -0.290186 3.0331 -0.700556 
v -0.53625 3.0331 -0.536183 
v -0.53625 3.665 -0.536183 
v -0.700549 3.41223 -0.29018 
v -0.700549 3.0331 -0.29018 
v -0.758247 3.0331 1.50656e-07 
v -0.758247 3.665 2.53605e-07 
v 0.606598 3.0331 1.35288e-07 
v 0.56047 3.41223 -0.232144 
v 0.56047 3.0331 -0.232144 
v 0.606598 3.665 2.38237e-07 
v 0.428876 3.0331 -0.428946 
v 0.428876 3.665 -0.428946 
v 0.232179 3.41223 -0.560445 
v 0.232179 3.0331 -0.560445 
v 0 3.0331 -0.606621 
v 0 3.665 -0.606621 
v -0.232179 3.41223 -0.560445 
v 0 3.0331 -0.606621 
v -0.232179 3.0331 -0.560445 
v -0.428876 3.0331 -0.428946 
v -0.428876 3.665 -0.428946 
v -0.56047 3.41223 -0.232144 
v -0.56047 3.0331 -0.232144 
v -0.606598 3.0331 1.50656e-07 
v -0.606598 3.665 2.53605e-07 
v 0.56047 3.41223 0.232144 
v 0.606598 3.0331 1.35288e-07 
v 0.56047 3.0331 0.232144 
v 0.606598 3.665 2.38237e-07 
v 0.428876 3.0331 0.428946 
v 0.428876 3.665 0.428947 
v 0.232179 3.41223 0.560445 
v 0.232179 3.0331 0.560445 
v 0 3.0331 0.606622 
v 0 3.665 0.606622 
v -0.232179 3.41223 0.560445 
v 0 3.0331 0.606622 
v -0.232179 3.0331 0.560445 
v 0 3.665 0.606622 
v -0.428876 3.0331 0.428946 
v -0.428876 3.665 0.428947 
v -0.56047 3.41223 0.232144 
v -0.56047 3.0331 0.232144 
v -0.606598 3.0331 1.50656e-07 
v -0.606598 3.665 2.53605e-07 
v 0.606598 3.0331 1.35288e-07 
v 0.56047 3.0331 -0.232144 
v 0.700549 3.0331 -0.29018 
v 0.758247 3.0331 1.2203e-07 
v 0.428876 3.0331 -0.428946 
v 0.53625 3.0331 -0.536182 
v 0.290186 3.0331 -0.700556 
v 0.232179 3.0331 -0.560445 
v 0 3.0331 -0.758277 
v 0 3.0331 -0.606621 
v 0.758247 3.0331 1.2203e-07 
v 0.56047 3.0331 0.232144 
v 0.606598 3.0331 1.35288e-07 
v 0.700549 3.0331 0.29018 
v 0.53625 3.0331 0.536183 
v 0.428876 3.0331 0.428946 
v 0.290186 3.0331 0.700557 
v 0.232179 3.0331 0.560445 
v 0 3.0331 0.758277 
v 0 3.0331 0.606622 
v -0.290186 3.0331 -0.700556 
v 0 3.0331 -0.758277 
v 0 3.0331 -0.606621 
v -0.232179 3.0331 -0.560445 
v -0.428876 3.0331 -0.428946 
v -0.53625 3.0331 -0.536183 
v -0.700549 3.0331 -0.29018 
v -0.56047 3.0331 -0.232144 
v -0.758247 3.0331 1.50656e-07 
v -0.606598 3.0331 1.50656e-07 
v -0.290186 3.0331 0.700557 
v 0 3.0331 0.606622 
v 0 3.0331 0.758277 
v -0.232179 3.0331 0.560445 
v -0.428876 3.0331 0.428946 
v -0.53625 3.0331 0.536183 
v -0.56047 3.0331 0.232144 
v -0.700549 3.0331 0.29018 
v -0.606598 3.0331 1.50656e-07 
v -0.758247 3.0331 1.50656e-07 

vn 0.19685 -0.976378 0.0787402 
vn 0.19685 -0.976378 0.0787402 
vn 0.19685 -0.976378 0.0787402 
vn -0.0787402 -0.976378 -0.19685 
vn -0.0787402 -0.976378 -0.19685 
vn -0.0787402 -0.976378 -0.19685 
vn 0.0787402 -0.976378 -0.19685 
vn 0.0787402 -0.976378 -0.19685 
vn 0.0787402 -0.976378 -0.19685 
vn -0.0787402 -0.976378 0.19685 
vn -0.0787402 -0.976378 0.19685 
vn -0.0787402 -0.976378 0.19685 
vn 0.0787402 -0.976378 0.19685 
vn 0.0787402 -0.976378 0.19685 
vn 0.0787402 -0.976378 0.19685 
vn 0.19685 -0.976378 -0.0787402 
vn 0.19685 -0.976378 -0.0787402 
vn 0.19685 -0.976378 -0.0787402 
vn -0.19685 -0.976378 0.0787402 
vn -0.19685 -0.976378 0.0787402 
vn -0.19685 -0.976378 0.0787402 
vn -0.19685 -0.976378 -0.0787402 
vn -0.19685 -0.976378 -0.0787402 
vn -0.19685 -0.976378 -0.0787402 
vn -0.19685 -0.850394 0.480315 
vn -0.19685 -0.850394 0.480315 
vn -0.19685 -0.850394 0.480315 
vn -0.480315 -0.850394 0.19685 
vn -0.480315 -0.850394 0.19685 
vn -0.480315 -0.850394 0.19685 
vn -0.480315 -0.850394 -0.19685 
vn -0.480315 -0.850394 -0.19685 
vn -0.480315 -0.850394 -0.19685 
vn -0.19685 -0.850394 -0.480315 
vn -0.19685 -0.850394 -0.480315 
vn -0.19685 -0.850394 -0.480315 
vn 0.19685 -0.850394 -0.480315 
vn 0.19685 -0.850394 -0.480315 
vn 0.19685 -0.850394 -0.480315 
vn 0.480315 -0.850394 -0.19685 
vn 0.480315 -0.850394 -0.19685 
vn 0.480315 -0.850394 -0.19685 
vn 0.480315 -0.850394 0.19685 
vn 0.480315 -0.850394 0.19685 
vn 0.480315 -0.850394 0.19685 
vn 0.19685 -0.850394 0.480315 
vn 0.19685 -0.850394 0.480315 
vn 0.19685 -0.850394 0.480315 
vn 0 -0.779528 0.622047 
vn 0 -0.779528 0.622047 
vn 0 -0.779528 0.622047 
vn -0.440945 -0.779528 0.440945 
vn -0.440945 -0.779528 0.440945 
vn -0.440945 -0.779528 0.440945 
vn -0.622047 -0.779528 0 
vn -0.622047 -0.779528 0 
vn -0.622047 -0.779528 0 
vn -0.440945 -0.779528 -0.440945 
vn -0.440945 -0.779528 -0.440945 
vn -0.440945 -0.779528 -0.440945 
vn 0 -0.779528 -0.622047 
vn 0 -0.779528 -0.622047 
vn 0 -0.779528 -0.622047 
vn 0.440945 -0.779528 -0.440945 
vn 0.440945 -0.779528 -0.440945 
vn 0.440945 -0.779528 -0.440945 
vn 0.622047 -0.779528 0 
vn 0.622047 -0.779528 0 
vn 0.622047 -0.779528 0 
vn 0.440945 -0.779528 0.440945 
vn 0.440945 -0.779528 0.440945 
vn 0.440945 -0.779528 0.440945 
vn 0 -0.637795 0.771654 
vn 0 -0.637795 0.771654 
vn 0 -0.637795 0.771654 
vn -0.543307 -0.637795 0.543307 
vn -0.543307 -0.637795 0.543307 
vn -0.543307 -0.637795 0.543307 
vn -0.771654 -0.637795 0 
vn -0.771654 -0.637795 0 
vn -0.771654 -0.637795 0 
vn -0.543307 -0.637795 -0.543307 
vn -0.543307 -0.637795 -0.543307 
vn -0.543307 -0.637795 -0.543307 
vn 0 -0.637795 -0.771654 
vn 0 -0.637795 -0.771654 
vn 0 -0.637795 -0.771654 
vn 0.543307 -0.637795 -0.543307 
vn 0.543307 -0.637795 -0.543307 
vn 0.543307 -0.637795 -0.543307 
vn 0.771654 -0.637795 0 
vn 0.771654 -0.637795 0 
vn 0.771654 -0.637795 0 
vn 0.543307 -0.637795 0.543307 
vn 0.543307 -0.637795 0.543307 
vn 0.543307 -0.637795 0.543307 
vn -0.346457 -0.409449 0.84252 
vn -0.346457 -0.409449 0.84252 
vn -0.346457 -0.409449 0.84252 
vn -0.84252 -0.409449 0.346457 
vn -0.84252 -0.409449 0.346457 
vn -0.84252 -0.409449 0.346457 
vn -0.84252 -0.409449 -0.346457 
vn -0.84252 -0.409449 -0.346457 
vn -0.84252 -0.409449 -0.346457 
vn -0.346457 -0.409449 -0.84252 
vn -0.346457 -0.409449 -0.84252 
vn -0.346457 -0.409449 -0.84252 
vn 0.346457 -0.409449 -0.84252 
vn 0.346457 -0.409449 -0.84252 
vn 0.346457 -0.409449 -0.84252 
vn 0.84252 -0.409449 -0.346457 
vn 0.84252 -0.409449 -0.346457 
vn 0.84252 -0.409449 -0.346457 
vn 0.84252 -0.409449 0.346457 
vn 0.84252 -0.409449 0.346457 
vn 0.84252 -0.409449 0.346457 
vn 0.346457 -0.409449 0.84252 
vn 0.346457 -0.409449 0.84252 
vn 0.346457 -0.409449 0.84252 
vn -0.354331 -0.354331 0.866142 
vn -0.354331 -0.354331 0.866142 
vn -0.354331 -0.354331 0.866142 
vn -0.866142 -0.354331 0.354331 
vn -0.866142 -0.354331 0.354331 
vn -0.866142 -0.354331 0.354331 
vn -0.866142 -0.354331 -0.354331 
vn -0.866142 -0.354331 -0.354331 
vn -0.866142 -0.354331 -0.354331 
vn -0.354331 -0.354331 -0.866142 
vn -0.354331 -0.354331 -0.866142 
vn -0.354331 -0.354331 -0.866142 
vn 0.354331 -0.354331 -0.866142 
vn 0.354331 -0.354331 -0.866142 
vn 0.354331 -0.354331 -0.866142 
vn 0.866142 -0.354331 -0.354331 
vn 0.866142 -0.354331 -0.354331 
vn 0.866142 -0.354331 -0.354331 
vn 0.866142 -0.354331 0.354331 
vn 0.866142 -0.354331 0.354331 
vn 0.866142 -0.354331 0.354331 
vn 0.354331 -0.354331 0.866142 
vn 0.354331 -0.354331 0.866142 
vn 0.354331 -0.354331 0.866142 
vn 0 0 -1 
vn 0 0 -1 
vn 0 0 -1 
vn 0.708661 0 -0.708661 
vn 0.708661 0 -0.708661 
vn 0.708661 0 -0.708661 
vn 1 0 0 
vn 1 0 0 
vn 1 0 0 
vn 0 0 -1 
vn 0 0 -1 
vn 0 0 -1 
vn 0.708661 0 -0.708661 
vn 0.708661 0 -0.708661 
vn 0.708661 0 -0.708661 
vn 1 0 0 
vn 1 0 0 
vn 1 0 0 
vn -0.708661 0 0.708661 
vn -0.708661 0 0.708661 
vn -0.708661 0 0.708661 
vn -1 0 0 
vn -1 0 0 
vn -1 0 0 
vn -0.708661 0 -0.708661 
vn -0.708661 0 -0.708661 
vn -0.708661 0 -0.708661 
vn 0.708661 0 0.708661 
vn 0.708661 0 0.708661 
vn 0.708661 0 0.708661 
vn 0 0 1 
vn 0 0 1 
vn 0 0 1 
vn -0.708661 0 0.708661 
vn -0.708661 0 0.708661 
vn -0.708661 0 0.708661 
vn -1 0 0 
vn -1 0 0 
vn -1 0 0 
vn -0.708661 0 -0.708661 
vn -0.708661 0 -0.708661 
vn -0.708661 0 -0.708661 
vn 0.708661 0 0.708661 
vn 0.708661 0 0.708661 
vn 0.708661 0 0.708661 
vn 0 0 1 
vn 0 0 1 
vn 0 0 1 
vn -0.370079 0.244094 0.897638 
vn -0.370079 0.244094 0.897638 
vn -0.370079 0.244094 0.897638 
vn -0.897638 0.244094 0.370079 
vn -0.897638 0.244094 0.370079 
vn -0.897638 0.244094 0.370079 
vn -0.897638 0.244094 -0.370079 
vn -0.897638 0.244094 -0.370079 
vn -0.897638 0.244094 -0.370079 
vn -0.370079 0.244094 -0.897638 
vn -0.370079 0.244094 -0.897638 
vn -0.370079 0.244094 -0.897638 
vn 0.370079 0.244094 -0.897638 
vn 0.370079 0.244094 -0.897638 
vn 0.370079 0.244094 -0.897638 
vn 0.897638 0.244094 -0.370079 
vn 0.897638 0.244094 -0.370079 
vn 0.897638 0.244094 -0.370079 
vn 0.897638 0.244094 0.370079 
vn 0.897638 0.244094 0.370079 
vn 0.897638 0.244094 0.370079 
vn 0.370079 0.244094 0.897638 
vn 0.370079 0.244094 0.897638 
vn 0.370079 0.244094 0.897638 
vn -0.370079 0.291339 -0.88189 
vn -0.370079 0.291339 -0.88189 
vn -0.370079 0.291339 -0.88189 
vn 0.370079 0.291339 -0.88189 
vn 0.370079 0.291339 -0.88189 
vn 0.370079 0.291339 -0.88189 
vn 0.88189 0.291339 -0.370079 
vn 0.88189 0.291339 -0.370079 
vn 0.88189 0.291339 -0.370079 
vn 0.88189 0.291339 0.370079 
vn 0.88189 0.291339 0.370079 
vn 0.88189 0.291339 0.370079 
vn 0.370079 0.291339 0.88189 
vn 0.370079 0.291339 0.88189 
vn 0.370079 0.291339 0.88189 
vn -0.370079 0.291339 0.88189 
vn -0.370079 0.291339 0.88189 
vn -0.370079 0.291339 0.88189 
vn -0.88189 0.291339 0.370079 
vn -0.88189 0.291339 0.370079 
vn -0.88189 0.291339 0.370079 
vn -0.88189 0.291339 -0.370079 
vn -0.88189 0.291339 -0.370079 
vn -0.88189 0.291339 -0.370079 
vn -0.133858 0.724409 -0.677165 
vn -0.133858 0.724409 -0.677165 
vn -0.133858 0.724409 -0.677165 
vn -0.133858 0.724409 -0.677165 
vn 0.385827 0.724409 0.574803 
vn 0.385827 0.724409 0.574803 
vn 0.385827 0.724409 0.574803 
vn 0.385827 0.724409 0.574803 
vn -0.574803 0.724409 -0.385827 
vn -0.574803 0.724409 -0.385827 
vn -0.574803 0.724409 -0.385827 
vn -0.574803 0.724409 -0.385827 
vn -0.574803 0.724409 0.385827 
vn -0.574803 0.724409 0.385827 
vn -0.574803 0.724409 0.385827 
vn -0.574803 0.724409 0.385827 
vn -0.677165 0.724409 0.133858 
vn -0.677165 0.724409 0.133858 
vn -0.677165 0.724409 0.133858 
vn -0.677165 0.724409 0.133858 
vn 0.574803 0.724409 -0.385827 
vn 0.574803 0.724409 -0.385827 
vn 0.574803 0.724409 -0.385827 
vn 0.574803 0.724409 -0.385827 
vn -0.385827 0.724409 0.574803 
vn -0.385827 0.724409 0.574803 
vn -0.385827 0.724409 0.574803 
vn -0.385827 0.724409 0.574803 
vn -0.677165 0.724409 -0.133858 
vn -0.677165 0.724409 -0.133858 
vn -0.677165 0.724409 -0.133858 
vn -0.677165 0.724409 -0.133858 
vn 0.574803 0.724409 0.385827 
vn 0.574803 0.724409 0.385827 
vn 0.574803 0.724409 0.385827 
vn 0.574803 0.724409 0.385827 
vn 0.133858 0.724409 0.677165 
vn 0.133858 0.724409 0.677165 
vn 0.133858 0.724409 0.677165 
vn 0.133858 0.724409 0.677165 
vn 0.677165 0.724409 0.133858 
vn 0.677165 0.724409 0.133858 
vn 0.677165 0.724409 0.133858 
vn 0.677165 0.724409 0.133858 
vn -0.133858 0.724409 0.677165 
vn -0.133858 0.724409 0.677165 
vn -0.133858 0.724409 0.677165 
vn -0.133858 0.724409 0.677165 
vn 0.385827 0.724409 -0.574803 
vn 0.385827 0.724409 -0.574803 
vn 0.385827 0.724409 -0.574803 
vn 0.385827 0.724409 -0.574803 
vn 0.677165 0.724409 -0.133858 
vn 0.677165 0.724409 -0.133858 
vn 0.677165 0.724409 -0.133858 
vn 0.677165 0.724409 -0.133858 
vn 0.133858 0.724409 -0.677165 
vn 0.133858 0.724409 -0.677165 
vn 0.133858 0.724409 -0.677165 
vn 0.133858 0.724409 -0.677165 
vn -0.385827 0.724409 -0.574803 
vn -0.385827 0.724409 -0.574803 
vn -0.385827 0.724409 -0.574803 
vn -0.385827 0.724409 -0.574803 
vn 0 0.488189 0.874016 
vn 0 0.488189 0.874016 
vn 0 0.488189 0.874016 
vn -0.614173 0.488189 0.614173 
vn -0.614173 0.488189 0.614173 
vn -0.614173 0.488189 0.614173 
vn -0.874016 0.488189 0 
vn -0.874016 0.488189 0 
vn -0.874016 0.488189 0 
vn -0.614173 0.488189 -0.614173 
vn -0.614173 0.488189 -0.614173 
vn -0.614173 0.488189 -0.614173 
vn 0 0.488189 -0.874016 
vn 0 0.488189 -0.874016 
vn 0 0.488189 -0.874016 
vn 0.614173 0.488189 -0.614173 
vn 0.614173 0.488189 -0.614173 
vn 0.614173 0.488189 -0.614173 
vn 0.874016 0.488189 0 
vn 0.874016 0.488189 0 
vn 0.874016 0.488189 0 
vn 0.614173 0.488189 0.614173 
vn 0.614173 0.488189 0.614173 
vn 0.614173 0.488189 0.614173 
vn 0 0.637795 0.771654 
vn 0 0.637795 0.771654 
vn 0 0.637795 0.771654 
vn -0.543307 0.637795 0.543307 
vn -0.543307 0.637795 0.543307 
vn -0.543307 0.637795 0.543307 
vn -0.771654 0.637795 0 
vn -0.771654 0.637795 0 
vn -0.771654 0.637795 0 
vn -0.543307 0.637795 -0.543307 
vn -0.543307 0.637795 -0.543307 
vn -0.543307 0.637795 -0.543307 
vn 0 0.637795 -0.771654 
vn 0 0.637795 -0.771654 
vn 0 0.637795 -0.771654 
vn 0.543307 0.637795 -0.543307 
vn 0.543307 0.637795 -0.543307 
vn 0.543307 0.637795 -0.543307 
vn 0.771654 0.637795 0 
vn 0.771654 0.637795 0 
vn 0.771654 0.637795 0 
vn 0.543307 0.637795 0.543307 
vn 0.543307 0.637795 0.543307 
vn 0.543307 0.637795 0.543307 
vn -0.259843 0.732283 0.622047 
vn -0.259843 0.732283 0.622047 
vn -0.259843 0.732283 0.622047 
vn -0.622047 0.732283 0.259843 
vn -0.622047 0.732283 0.259843 
vn -0.622047 0.732283 0.259843 
vn -0.622047 0.732283 -0.259843 
vn -0.622047 0.732283 -0.259843 
vn -0.622047 0.732283 -0.259843 
vn -0.259843 0.732283 -0.622047 
vn -0.259843 0.732283 -0.622047 
vn -0.259843 0.732283 -0.622047 
vn 0.259843 0.732283 -0.622047 
vn 0.259843 0.732283 -0.622047 
vn 0.259843 0.732283 -0.622047 
vn 0.622047 0.732283 -0.259843 
vn 0.622047 0.732283 -0.259843 
vn 0.622047 0.732283 -0.259843 
vn 0.622047 0.732283 0.259843 
vn 0.622047 0.732283 0.259843 
vn 0.622047 0.732283 0.259843 
vn 0.259843 0.732283 0.622047 
vn 0.259843 0.732283 0.622047 
vn 0.259843 0.732283 0.622047 
vn -0.283465 0.952756 0.11811 
vn -0.283465 0.952756 0.11811 
vn -0.283465 0.952756 0.11811 
vn -0.283465 0.952756 -0.11811 
vn -0.283465 0.952756 -0.11811 
vn -0.283465 0.952756 -0.11811 
vn -0.11811 0.952756 -0.283465 
vn -0.11811 0.952756 -0.283465 
vn -0.11811 0.952756 -0.283465 
vn 0.283465 0.952756 0.11811 
vn 0.283465 0.952756 0.11811 
vn 0.283465 0.952756 0.11811 
vn -0.11811 0.952756 0.283465 
vn -0.11811 0.952756 0.283465 
vn -0.11811 0.952756 0.283465 
vn 0.11811 0.952756 0.283465 
vn 0.11811 0.952756 0.283465 
vn 0.11811 0.952756 0.283465 
vn 0.283465 0.952756 -0.11811 
vn 0.283465 0.952756 -0.11811 
vn 0.283465 0.952756 -0.11811 
vn 0.11811 0.952756 -0.283465 
vn 0.11811 0.952756 -0.283465 
vn 0.11811 0.952756 -0.283465 
vn 1 0 0 
vn 1 0 0 
vn 0.92126 0 0.385827 
vn 0.92126 0 0.385827 
vn 0.708661 0 0.708661 
vn 0.708661 0 0.708661 
vn 0.385827 0 0.92126 
vn 0.385827 0 0.92126 
vn 0 0 1 
vn 0 0 1 
vn 0 0 1 
vn 0 0 1 
vn -0.385827 0 0.92126 
vn -0.385827 0 0.92126 
vn -0.708661 0 0.708661 
vn -0.708661 0 0.708661 
vn -0.92126 0 0.385827 
vn -0.92126 0 0.385827 
vn -1 0 0 
vn -1 0 0 
vn 0.92126 0 -0.385827 
vn 1 0 0 
vn 1 0 0 
vn 0.92126 0 -0.385827 
vn 0.708661 0 -0.708661 
vn 0.708661 0 -0.708661 
vn 0.385827 0 -0.92126 
vn 0.385827 0 -0.92126 
vn 0 0 -1 
vn 0 0 -1 
vn -0.385827 0 -0.92126 
vn 0 0 -1 
vn -0.385827 0 -0.92126 
vn -0.708661 0 -0.708661 
vn -0.708661 0 -0.708661 
vn -0.92126 0 -0.385827 
vn -0.92126 0 -0.385827 
vn -1 0 0 
vn -1 0 0 
vn -1 0 0 
vn -0.92126 0 0.385827 
vn -0.92126 0 0.385827 
vn -1 0 0 
vn -0.708661 0 0.708661 
vn -0.708661 0 0.708661 
vn -0.385827 0 0.92126 
vn -0.385827 0 0.92126 
vn 0 0 1 
vn 0 0 1 
vn 0.385827 0 0.92126 
vn 0 0 1 
vn 0.385827 0 0.92126 
vn 0.708661 0 0.708661 
vn 0.708661 0 0.708661 
vn 0.92126 0 0.385827 
vn 0.92126 0 0.385827 
vn 1 0 0 
vn 1 0 0 
vn -0.92126 0 -0.385827 
vn -1 0 0 
vn -0.92126 0 -0.385827 
vn -1 0 0 
vn -0.708661 0 -0.708661 
vn -0.708661 0 -0.708661 
vn -0.385827 0 -0.92126 
vn -0.385827 0 -0.92126 
vn 0 0 -1 
vn 0 0 -1 
vn 0.385827 0 -0.92126 
vn 0 0 -1 
vn 0.385827 0 -0.92126 
vn 0 0 -1 
vn 0.708661 0 -0.708661 
vn 0.708661 0 -0.708661 
vn 0.92126 0 -0.385827 
vn 0.92126 0 -0.385827 
vn 1 0 0 
vn 1 0 0 
vn 0 -1 0 
vn 0 -1 0 
vn 0 -1 0 
vn 0 -1 0 
vn 0 -1 0 
vn 0 -1 0 
vn 0 -1 0 
vn 0 -1 0 
vn 0 -1 0 
vn 0 -1 0 
vn 0 -1 0 
vn 0 -1 0 
vn 0 -1 0 
vn 0 -1 0 
vn 0 -1 0 
vn 0 -1 0 
vn 0 -1 0 
vn 0 -1 0 
vn 0 -1 0 
vn 0 -1 0 
vn 0 -1 0 
vn 0 -1 0 
vn 0 -1 0 
vn 0 -1 0 
vn 0 -1 0 
vn 0 -1 0 
vn 0 -1 0 
vn 0 -1 0 
vn 0 -1 0 
vn 0 -1 0 
vn 0 -1 0 
vn 0 -1 0 
vn 0 -1 0 
vn 0 -1 0 
vn 0 -1 0 
vn 0 -1 0 
vn 0 -1 0 
vn 0 -1 0 
vn 0 -1 0 
vn 0 -1 0 

vt 0.046875 0.046875 
vt 0.921875 0.046875 
vt 0.046875 0.921875 
vt 0.921875 0.0468751 
vt 0.0468751 0.921875 
vt 0.046875 0.046875 
vt 0.921875 0.0468751 
vt 0.0468751 0.921875 
vt 0.046875 0.046875 
vt 0.921875 0.0468751 
vt 0.0468751 0.921875 
vt 0.046875 0.046875 
vt 0.921875 0.0468751 
vt 0.0468751 0.921875 
vt 0.046875 0.046875 
vt 0.046875 0.046875 
vt 0.921875 0.046875 
vt 0.046875 0.921875 
vt 0.921875 0.0468751 
vt 0.0468751 0.921875 
vt 0.046875 0.046875 
vt 0.046875 0.046875 
vt 0.921875 0.046875 
vt 0.046875 0.921875 
vt 0.046875 0.046875 
vt 0.921875 0.046875 
vt 0.046875 0.921875 
vt 0.046875 0.046875 
vt 0.921875 0.046875 
vt 0.046875 0.921875 
vt 0.046875 0.046875 
vt 0.921875 0.046875 
vt 0.046875 0.921875 
vt 0.046875 0.046875 
vt 0.921875 0.046875 
vt 0.046875 0.921875 
vt 0.046875 0.046875 
vt 0.921875 0.046875 
vt 0.046875 0.921875 
vt 0.046875 0.046875 
vt 0.921875 0.046875 
vt 0.046875 0.921875 
vt 0.046875 0.046875 
vt 0.921875 0.046875 
vt 0.046875 0.921875 
vt 0.046875 0.046875 
vt 0.921875 0.046875 
vt 0.046875 0.921875 
vt 0.046875 0.921875 
vt 0.046875 0.046875 
vt 0.921875 0.046875 
vt 0.046875 0.921875 
vt 0.046875 0.046875 
vt 0.921875 0.046875 
vt 0.046875 0.921875 
vt 0.046875 0.046875 
vt 0.921875 0.046875 
vt 0.046875 0.921875 
vt 0.046875 0.046875 
vt 0.921875 0.046875 
vt 0.046875 0.921875 
vt 0.046875 0.046875 
vt 0.921875 0.046875 
vt 0.046875 0.921875 
vt 0.046875 0.046875 
vt 0.921875 0.046875 
vt 0.046875 0.921875 
vt 0.046875 0.046875 
vt 0.921875 0.046875 
vt 0.046875 0.921875 
vt 0.046875 0.046875 
vt 0.921875 0.046875 
vt 0.921875 0.0468751 
vt 0.0468751 0.921875 
vt 0.046875 0.046875 
vt 0.921875 0.0468751 
vt 0.0468751 0.921875 
vt 0.046875 0.046875 
vt 0.921875 0.0468751 
vt 0.0468751 0.921875 
vt 0.046875 0.046875 
vt 0.921875 0.0468751 
vt 0.0468751 0.921875 
vt 0.046875 0.046875 
vt 0.921875 0.0468751 
vt 0.0468751 0.921875 
vt 0.046875 0.046875 
vt 0.921875 0.0468751 
vt 0.0468751 0.921875 
vt 0.046875 0.046875 
vt 0.921875 0.0468751 
vt 0.0468751 0.921875 
vt 0.046875 0.046875 
vt 0.921875 0.0468751 
vt 0.0468751 0.921875 
vt 0.046875 0.046875 
vt 0.046875 0.046875 
vt 0.921875 0.046875 
vt 0.0468751 0.921875 
vt 0.046875 0.046875 
vt 0.921875 0.046875 
vt 0.0468751 0.921875 
vt 0.046875 0.046875 
vt 0.921875 0.046875 
vt 0.0468751 0.921875 
vt 0.046875 0.046875 
vt 0.921875 0.046875 
vt 0.0468751 0.921875 
vt 0.046875 0.046875 
vt 0.921875 0.046875 
vt 0.0468751 0.921875 
vt 0.046875 0.046875 
vt 0.921875 0.046875 
vt 0.0468751 0.921875 
vt 0.046875 0.046875 
vt 0.921875 0.046875 
vt 0.0468751 0.921875 
vt 0.046875 0.046875 
vt 0.921875 0.046875 
vt 0.0468751 0.921875 
vt 0.921875 0.0468751 
vt 0.0468751 0.921875 
vt 0.046875 0.046875 
vt 0.921875 0.0468751 
vt 0.0468751 0.921875 
vt 0.046875 0.046875 
vt 0.921875 0.0468751 
vt 0.0468751 0.921875 
vt 0.046875 0.046875 
vt 0.921875 0.0468751 
vt 0.0468751 0.921875 
vt 0.046875 0.046875 
vt 0.921875 0.0468751 
vt 0.0468751 0.921875 
vt 0.046875 0.046875 
vt 0.921875 0.0468751 
vt 0.0468751 0.921875 
vt 0.046875 0.046875 
vt 0.921875 0.0468751 
vt 0.0468751 0.921875 
vt 0.046875 0.046875 
vt 0.921875 0.0468751 
vt 0.0468751 0.921875 
vt 0.046875 0.046875 
vt 0.046875 0.921875 
vt 0.046875 0.046875 
vt 0.921875 0.046875 
vt 0.046875 0.921875 
vt 0.046875 0.046875 
vt 0.921875 0.046875 
vt 0.046875 0.921875 
vt 0.046875 0.046875 
vt 0.921875 0.046875 
vt 0.046875 0.046875 
vt 0.921875 0.046875 
vt 0.046875 0.921875 
vt 0.046875 0.046875 
vt 0.921875 0.046875 
vt 0.046875 0.921875 
vt 0.046875 0.046875 
vt 0.921875 0.046875 
vt 0.046875 0.921875 
vt 0.046875 0.921875 
vt 0.046875 0.046875 
vt 0.921875 0.046875 
vt 0.046875 0.921875 
vt 0.046875 0.046875 
vt 0.921875 0.046875 
vt 0.046875 0.921875 
vt 0.046875 0.046875 
vt 0.921875 0.046875 
vt 0.046875 0.921875 
vt 0.046875 0.046875 
vt 0.921875 0.046875 
vt 0.046875 0.921875 
vt 0.046875 0.046875 
vt 0.921875 0.046875 
vt 0.046875 0.046875 
vt 0.921875 0.046875 
vt 0.046875 0.921875 
vt 0.046875 0.046875 
vt 0.921875 0.046875 
vt 0.046875 0.921875 
vt 0.046875 0.046875 
vt 0.921875 0.046875 
vt 0.046875 0.921875 
vt 0.046875 0.046875 
vt 0.921875 0.046875 
vt 0.046875 0.921875 
vt 0.046875 0.046875 
vt 0.921875 0.046875 
vt 0.046875 0.921875 
vt 0.046875 0.921875 
vt 0.046875 0.046875 
vt 0.921875 0.046875 
vt 0.046875 0.921875 
vt 0.046875 0.046875 
vt 0.921875 0.046875 
vt 0.046875 0.921875 
vt 0.046875 0.046875 
vt 0.921875 0.046875 
vt 0.046875 0.921875 
vt 0.046875 0.046875 
vt 0.921875 0.046875 
vt 0.046875 0.921875 
vt 0.046875 0.046875 
vt 0.921875 0.046875 
vt 0.046875 0.921875 
vt 0.046875 0.046875 
vt 0.921875 0.046875 
vt 0.046875 0.921875 
vt 0.046875 0.046875 
vt 0.921875 0.046875 
vt 0.046875 0.921875 
vt 0.046875 0.046875 
vt 0.921875 0.046875 
vt 0.046875 0.046875 
vt 0.921875 0.046875 
vt 0.046875 0.921875 
vt 0.046875 0.046875 
vt 0.921875 0.046875 
vt 0.046875 0.921875 
vt 0.046875 0.046875 
vt 0.921875 0.046875 
vt 0.046875 0.921875 
vt 0.046875 0.046875 
vt 0.921875 0.046875 
vt 0.046875 0.921875 
vt 0.046875 0.046875 
vt 0.921875 0.046875 
vt 0.046875 0.921875 
vt 0.046875 0.046875 
vt 0.921875 0.046875 
vt 0.046875 0.921875 
vt 0.046875 0.046875 
vt 0.921875 0.046875 
vt 0.046875 0.921875 
vt 0.046875 0.046875 
vt 0.921875 0.046875 
vt 0.046875 0.921875 
vt 0.597643 0.767585 
vt 0.612852 0.83944 
vt 0.593517 0.820105 
vt 0.616978 0.78692 
vt 0.597643 0.767585 
vt 0.650164 0.763458 
vt 0.669499 0.782793 
vt 0.616978 0.78692 
vt 0.654291 0.710938 
vt 0.669499 0.782793 
vt 0.650164 0.763458 
vt 0.673625 0.730273 
vt 0.896088 0.556204 
vt 0.880879 0.484349 
vt 0.876753 0.536869 
vt 0.900214 0.503684 
vt 0.726146 0.726146 
vt 0.710938 0.65429 
vt 0.730273 0.673625 
vt 0.706811 0.706811 
vt 0.710938 0.65429 
vt 0.782793 0.669499 
vt 0.730273 0.673625 
vt 0.763458 0.650164 
vt 0.767585 0.597643 
vt 0.782793 0.669499 
vt 0.763458 0.650164 
vt 0.78692 0.616978 
vt 0.484349 0.880879 
vt 0.499557 0.952735 
vt 0.503684 0.900214 
vt 0.480222 0.9334 
vt 0.53687 0.876753 
vt 0.484349 0.880879 
vt 0.556204 0.896088 
vt 0.503684 0.900214 
vt 0.560331 0.843567 
vt 0.612852 0.83944 
vt 0.540996 0.824232 
vt 0.593517 0.820105 
vt 0.673625 0.730273 
vt 0.706811 0.706811 
vt 0.726146 0.726146 
vt 0.654291 0.710938 
vt 0.824232 0.540996 
vt 0.820106 0.593517 
vt 0.843567 0.560331 
vt 0.839441 0.612852 
vt 0.843567 0.560331 
vt 0.876753 0.536869 
vt 0.824232 0.540996 
vt 0.896088 0.556204 
vt 0.9334 0.480222 
vt 0.900214 0.503684 
vt 0.952735 0.499557 
vt 0.880879 0.484349 
vt 0.820106 0.593517 
vt 0.78692 0.616978 
vt 0.767585 0.597643 
vt 0.839441 0.612852 
vt 0.540996 0.824232 
vt 0.53687 0.876753 
vt 0.560331 0.843567 
vt 0.556204 0.896088 
vt 0.046875 0.921875 
vt 0.046875 0.046875 
vt 0.921875 0.046875 
vt 0.046875 0.921875 
vt 0.046875 0.046875 
vt 0.921875 0.046875 
vt 0.046875 0.921875 
vt 0.046875 0.046875 
vt 0.921875 0.046875 
vt 0.046875 0.921875 
vt 0.046875 0.046875 
vt 0.921875 0.046875 
vt 0.046875 0.921875 
vt 0.046875 0.046875 
vt 0.921875 0.046875 
vt 0.046875 0.921875 
vt 0.046875 0.046875 
vt 0.921875 0.046875 
vt 0.046875 0.921875 
vt 0.046875 0.046875 
vt 0.921875 0.046875 
vt 0.046875 0.921875 
vt 0.046875 0.046875 
vt 0.921875 0.046875 
vt 0.921875 0.0468751 
vt 0.0468751 0.921875 
vt 0.046875 0.046875 
vt 0.921875 0.0468751 
vt 0.0468751 0.921875 
vt 0.046875 0.046875 
vt 0.921875 0.0468751 
vt 0.0468751 0.921875 
vt 0.046875 0.046875 
vt 0.921875 0.0468751 
vt 0.0468751 0.921875 
vt 0.046875 0.046875 
vt 0.921875 0.0468751 
vt 0.0468751 0.921875 
vt 0.046875 0.046875 
vt 0.921875 0.0468751 
vt 0.0468751 0.921875 
vt 0.046875 0.046875 
vt 0.921875 0.0468751 
vt 0.0468751 0.921875 
vt 0.046875 0.046875 
vt 0.921875 0.0468751 
vt 0.0468751 0.921875 
vt 0.046875 0.046875 
vt 0.046875 0.046875 
vt 0.046875 0.921875 
vt 0.921875 0.046875 
vt 0.046875 0.046875 
vt 0.046875 0.921875 
vt 0.921875 0.046875 
vt 0.046875 0.046875 
vt 0.046875 0.921875 
vt 0.921875 0.046875 
vt 0.046875 0.046875 
vt 0.046875 0.921875 
vt 0.921875 0.046875 
vt 0.046875 0.046875 
vt 0.046875 0.921875 
vt 0.921875 0.046875 
vt 0.046875 0.046875 
vt 0.046875 0.921875 
vt 0.921875 0.046875 
vt 0.046875 0.046875 
vt 0.046875 0.921875 
vt 0.921875 0.046875 
vt 0.046875 0.046875 
vt 0.046875 0.921875 
vt 0.921875 0.046875 
vt 0.046875 0.921875 
vt 0.046875 0.046875 
vt 0.921875 0.046875 
vt 0.046875 0.921875 
vt 0.046875 0.046875 
vt 0.921875 0.046875 
vt 0.046875 0.046875 
vt 0.921875 0.046875 
vt 0.046875 0.921875 
vt 0.046875 0.046875 
vt 0.921875 0.046875 
vt 0.046875 0.921875 
vt 0.046875 0.046875 
vt 0.921875 0.046875 
vt 0.046875 0.921875 
vt 0.046875 0.046875 
vt 0.921875 0.046875 
vt 0.046875 0.921875 
vt 0.046875 0.921875 
vt 0.046875 0.046875 
vt 0.921875 0.046875 
vt 0.046875 0.921875 
vt 0.046875 0.046875 
vt 0.921875 0.046875 
vt 0.759613 0.533024 
vt 0.820106 0.593517 
vt 0.824232 0.540996 
vt 0.787937 0.504701 
vt 0.81626 0.476377 
vt 0.876753 0.536869 
vt 0.880879 0.484349 
vt 0.844584 0.448053 
vt 0.872907 0.41973 
vt 0.9334 0.480222 
vt 0.41973 0.872907 
vt 0.480222 0.9334 
vt 0.484349 0.880879 
vt 0.448053 0.844584 
vt 0.476377 0.81626 
vt 0.53687 0.876753 
vt 0.540996 0.824232 
vt 0.504701 0.787937 
vt 0.533024 0.759613 
vt 0.593517 0.820105 
vt 0.597643 0.767585 
vt 0.593517 0.820105 
vt 0.533024 0.759613 
vt 0.561348 0.731289 
vt 0.589671 0.702966 
vt 0.650164 0.763458 
vt 0.654291 0.710938 
vt 0.617995 0.674642 
vt 0.646319 0.646319 
vt 0.706811 0.706811 
vt 0.710938 0.65429 
vt 0.646319 0.646319 
vt 0.674642 0.617995 
vt 0.702966 0.589671 
vt 0.763458 0.650164 
vt 0.767585 0.597643 
vt 0.731289 0.561348 
vt 0.759613 0.533024 
vt 0.820106 0.593517 
vt 0.513689 0.740278 
vt 0.505717 0.675659 
vt 0.542013 0.711954 
vt 0.453197 0.679786 
vt 0.570336 0.683631 
vt 0.509844 0.623138 
vt 0.562365 0.619012 
vt 0.59866 0.655307 
vt 0.626984 0.626984 
vt 0.566491 0.566491 
vt 0.619012 0.562365 
vt 0.626984 0.626984 
vt 0.655307 0.59866 
vt 0.683631 0.570336 
vt 0.623138 0.509844 
vt 0.675659 0.505717 
vt 0.711954 0.542013 
vt 0.740278 0.513689 
vt 0.679786 0.453197 
vt 0.732306 0.44907 
vt 0.740278 0.513689 
vt 0.768602 0.485366 
vt 0.679786 0.453197 
vt 0.796925 0.457042 
vt 0.736433 0.39655 
vt 0.788953 0.392423 
vt 0.825249 0.428718 
vt 0.853572 0.400395 
vt 0.79308 0.339902 
vt 0.392423 0.788953 
vt 0.400395 0.853572 
vt 0.428718 0.825249 
vt 0.339902 0.79308 
vt 0.457042 0.796925 
vt 0.39655 0.736433 
vt 0.44907 0.732306 
vt 0.485366 0.768602 
vt 0.513689 0.740278 
vt 0.453197 0.679786 
vt 0.513689 0.740278 
vt 0.542013 0.711954 
vt 0.561348 0.731289 
vt 0.533024 0.759613 
vt 0.570336 0.683631 
vt 0.589671 0.702966 
vt 0.617995 0.674642 
vt 0.59866 0.655307 
vt 0.646319 0.646319 
vt 0.626984 0.626984 
vt 0.759613 0.533024 
vt 0.768602 0.485366 
vt 0.740278 0.513689 
vt 0.787937 0.5047 
vt 0.81626 0.476377 
vt 0.796925 0.457042 
vt 0.844584 0.448053 
vt 0.825249 0.428718 
vt 0.872907 0.41973 
vt 0.853572 0.400395 
vt 0.674642 0.617995 
vt 0.646319 0.646319 
vt 0.626984 0.626984 
vt 0.655307 0.59866 
vt 0.683631 0.570336 
vt 0.702966 0.589671 
vt 0.731289 0.561348 
vt 0.711954 0.542013 
vt 0.759613 0.533024 
vt 0.740278 0.513689 
vt 0.448053 0.844584 
vt 0.400395 0.853572 
vt 0.41973 0.872907 
vt 0.428718 0.825249 
vt 0.457042 0.796925 
vt 0.476377 0.81626 
vt 0.485366 0.768602 
vt 0.504701 0.787937 
vt 0.513689 0.740278 
vt 0.533024 0.759613 

usemtl Tier111Mtl

f 1/1/1 2/2/2 3/3/3 
f 4/4/4 5/5/5 6/6/6 
f 7/7/7 8/8/8 9/9/9 
f 10/10/10 11/11/11 12/12/12 
f 13/13/13 14/14/14 15/15/15 
f 16/16/16 17/17/17 18/18/18 
f 19/19/19 20/20/20 21/21/21 
f 22/22/22 23/23/23 24/24/24 
f 25/25/25 26/26/26 27/27/27 
f 28/28/28 29/29/29 30/30/30 
f 31/31/31 32/32/32 33/33/33 
f 34/34/34 35/35/35 36/36/36 
f 37/37/37 38/38/38 39/39/39 
f 40/40/40 41/41/41 42/42/42 
f 43/43/43 44/44/44 45/45/45 
f 46/46/46 47/47/47 48/48/48 
f 49/49/49 50/50/50 51/51/51 
f 52/52/52 53/53/53 54/54/54 
f 55/55/55 56/56/56 57/57/57 
f 58/58/58 59/59/59 60/60/60 
f 61/61/61 62/62/62 63/63/63 
f 64/64/64 65/65/65 66/66/66 
f 67/67/67 68/68/68 69/69/69 
f 70/70/70 71/71/71 72/72/72 
f 73/73/73 74/74/74 75/75/75 
f 76/76/76 77/77/77 78/78/78 
f 79/79/79 80/80/80 81/81/81 
f 82/82/82 83/83/83 84/84/84 
f 85/85/85 86/86/86 87/87/87 
f 88/88/88 89/89/89 90/90/90 
f 91/91/91 92/92/92 93/93/93 
f 94/94/94 95/95/95 96/96/96 
f 97/97/97 98/98/98 99/99/99 
f 100/100/100 101/101/101 102/102/102 
f 103/103/103 104/104/104 105/105/105 
f 106/106/106 107/107/107 108/108/108 
f 109/109/109 110/110/110 111/111/111 
f 112/112/112 113/113/113 114/114/114 
f 115/115/115 116/116/116 117/117/117 
f 118/118/118 119/119/119 120/120/120 
f 121/121/121 122/122/122 123/123/123 
f 124/124/124 125/125/125 126/126/126 
f 127/127/127 128/128/128 129/129/129 
f 130/130/130 131/131/131 132/132/132 
f 133/133/133 134/134/134 135/135/135 
f 136/136/136 137/137/137 138/138/138 
f 139/139/139 140/140/140 141/141/141 
f 142/142/142 143/143/143 144/144/144 
f 145/145/145 146/146/146 147/147/147 
f 148/148/148 149/149/149 150/150/150 
f 151/151/151 152/152/152 153/153/153 
f 154/154/154 155/155/155 156/156/156 
f 157/157/157 158/158/158 159/159/159 
f 160/160/160 161/161/161 162/162/162 
f 163/163/163 164/164/164 165/165/165 
f 166/166/166 167/167/167 168/168/168 
f 169/169/169 170/170/170 171/171/171 
f 172/172/172 173/173/173 174/174/174 
f 175/175/175 176/176/176 177/177/177 
f 178/178/178 179/179/179 180/180/180 
f 181/181/181 182/182/182 183/183/183 
f 184/184/184 185/185/185 186/186/186 
f 187/187/187 188/188/188 189/189/189 
f 190/190/190 191/191/191 192/192/192 
f 193/193/193 194/194/194 195/195/195 
f 196/196/196 197/197/197 198/198/198 
f 199/199/199 200/200/200 201/201/201 
f 202/202/202 203/203/203 204/204/204 
f 205/205/205 206/206/206 207/207/207 
f 208/208/208 209/209/209 210/210/210 
f 211/211/211 212/212/212 213/213/213 
f 214/214/214 215/215/215 216/216/216 
f 217/217/217 218/218/218 219/219/219 
f 220/220/220 221/221/221 222/222/222 
f 223/223/223 224/224/224 225/225/225 
f 226/226/226 227/227/227 228/228/228 
f 229/229/229 230/230/230 231/231/231 
f 232/232/232 233/233/233 234/234/234 
f 235/235/235 236/236/236 237/237/237 
f 238/238/238 239/239/239 240/240/240 
f 241/241/241 242/242/242 243/243/243 
f 242/242/242 241/241/241 244/244/244 
f 245/245/245 246/246/246 247/247/247 
f 245/245/245 247/247/247 248/248/248 
f 249/249/249 250/250/250 251/251/251 
f 250/250/250 249/249/249 252/252/252 
f 253/253/253 254/254/254 255/255/255 
f 254/254/254 253/253/253 256/256/256 
f 257/257/257 258/258/258 259/259/259 
f 258/258/258 257/257/257 260/260/260 
f 261/261/261 262/262/262 263/263/263 
f 262/262/262 261/261/261 264/264/264 
f 265/265/265 266/266/266 267/267/267 
f 266/266/266 265/265/265 268/268/268 
f 269/269/269 270/270/270 271/271/271 
f 270/270/270 269/269/269 272/272/272 
f 273/273/273 274/274/274 275/275/275 
f 275/275/275 274/274/274 276/276/276 
f 277/277/277 278/278/278 279/279/279 
f 278/278/278 280/280/280 279/279/279 
f 281/281/281 282/282/282 283/283/283 
f 282/282/282 281/281/281 284/284/284 
f 285/285/285 286/286/286 287/287/287 
f 287/287/287 286/286/286 288/288/288 
f 289/289/289 290/290/290 291/291/291 
f 290/290/290 289/289/289 292/292/292 
f 293/293/293 294/294/294 295/295/295 
f 294/294/294 293/293/293 296/296/296 
f 297/297/297 298/298/298 299/299/299 
f 298/298/298 297/297/297 300/300/300 
f 301/301/301 302/302/302 303/303/303 
f 303/303/303 302/302/302 304/304/304 
f 305/305/305 306/306/306 307/307/307 
f 308/308/308 309/309/309 310/310/310 
f 311/311/311 312/312/312 313/313/313 
f 314/314/314 315/315/315 316/316/316 
f 317/317/317 318/318/318 319/319/319 
f 320/320/320 321/321/321 322/322/322 
f 323/323/323 324/324/324 325/325/325 
f 326/326/326 327/327/327 328/328/328 
f 329/329/329 330/330/330 331/331/331 
f 332/332/332 333/333/333 334/334/334 
f 335/335/335 336/336/336 337/337/337 
f 338/338/338 339/339/339 340/340/340 
f 341/341/341 342/342/342 343/343/343 
f 344/344/344 345/345/345 346/346/346 
f 347/347/347 348/348/348 349/349/349 
f 350/350/350 351/351/351 352/352/352 
f 353/353/353 354/354/354 355/355/355 
f 356/356/356 357/357/357 358/358/358 
f 359/359/359 360/360/360 361/361/361 
f 362/362/362 363/363/363 364/364/364 
f 365/365/365 366/366/366 367/367/367 
f 368/368/368 369/369/369 370/370/370 
f 371/371/371 372/372/372 373/373/373 
f 374/374/374 375/375/375 376/376/376 
f 377/377/377 378/378/378 379/379/379 
f 380/380/380 381/381/381 382/382/382 
f 383/383/383 384/384/384 385/385/385 
f 386/386/386 387/387/387 388/388/388 
f 389/389/389 390/390/390 391/391/391 
f 392/392/392 393/393/393 394/394/394 
f 395/395/395 396/396/396 397/397/397 
f 398/398/398 399/399/399 400/400/400 
f 401/401/401 402/402/402 403/403/403 
f 401/401/401 403/403/403 404/404/404 
f 403/403/403 405/405/405 404/404/404 
f 405/405/405 403/403/403 406/406/406 
f 405/405/405 406/406/406 407/407/407 
f 405/405/405 407/407/407 408/408/408 
f 407/407/407 409/409/409 408/408/408 
f 409/409/409 407/407/407 410/410/410 
f 411/411/411 412/412/412 413/413/413 
f 411/411/411 413/413/413 414/414/414 
f 413/413/413 415/415/415 414/414/414 
f 415/415/415 413/413/413 416/416/416 
f 415/415/415 416/416/416 417/417/417 
f 415/415/415 417/417/417 418/418/418 
f 417/417/417 419/419/419 418/418/418 
f 419/419/419 417/417/417 420/420/420 
f 421/421/421 422/422/422 423/423/423 
f 421/421/421 423/423/423 424/424/424 
f 425/425/425 421/421/421 424/424/424 
f 421/421/421 425/425/425 426/426/426 
f 426/426/426 425/425/425 427/427/427 
f 427/427/427 425/425/425 428/428/428 
f 429/429/429 427/427/427 428/428/428 
f 427/427/427 429/429/429 430/430/430 
f 431/431/431 430/430/430 432/432/432 
f 431/431/431 432/432/432 433/433/433 
f 434/434/434 431/431/431 433/433/433 
f 431/431/431 434/434/434 435/435/435 
f 435/435/435 434/434/434 436/436/436 
f 436/436/436 434/434/434 437/437/437 
f 438/438/438 436/436/436 437/437/437 
f 436/436/436 438/438/438 439/439/439 
f 440/440/440 441/441/441 442/442/442 
f 441/441/441 440/440/440 443/443/443 
f 441/441/441 444/444/444 442/442/442 
f 445/445/445 444/444/444 441/441/441 
f 446/446/446 444/444/444 445/445/445 
f 444/444/444 446/446/446 447/447/447 
f 446/446/446 448/448/448 447/447/447 
f 449/449/449 448/448/448 446/446/446 
f 450/450/450 451/451/451 449/449/449 
f 451/451/451 450/450/450 452/452/452 
f 450/450/450 453/453/453 452/452/452 
f 454/454/454 453/453/453 450/450/450 
f 455/455/455 453/453/453 454/454/454 
f 453/453/453 455/455/455 456/456/456 
f 455/455/455 457/457/457 456/456/456 
f 458/458/458 457/457/457 455/455/455 
f 459/459/459 460/460/460 461/461/461 
f 460/460/460 459/459/459 462/462/462 
f 463/463/463 459/459/459 461/461/461 
f 463/463/463 464/464/464 459/459/459 
f 463/463/463 465/465/465 464/464/464 
f 465/465/465 463/463/463 466/466/466 
f 467/467/467 465/465/465 466/466/466 
f 467/467/467 468/468/468 465/465/465 
f 469/469/469 470/470/470 471/471/471 
f 470/470/470 469/469/469 472/472/472 
f 473/473/473 469/469/469 471/471/471 
f 473/473/473 474/474/474 469/469/469 
f 473/473/473 475/475/475 474/474/474 
f 475/475/475 473/473/473 476/476/476 
f 477/477/477 475/475/475 476/476/476 
f 477/477/477 478/478/478 475/475/475 
f 479/479/479 480/480/480 481/481/481 
f 481/481/481 482/482/482 479/479/479 
f 483/483/483 481/481/481 480/480/480 
f 481/481/481 483/483/483 484/484/484 
f 483/483/483 485/485/485 484/484/484 
f 485/485/485 483/483/483 486/486/486 
f 486/486/486 487/487/487 485/485/485 
f 487/487/487 486/486/486 488/488/488 
f 489/489/489 490/490/490 491/491/491 
f 490/490/490 489/489/489 492/492/492 
f 492/492/492 493/493/493 490/490/490 
f 494/494/494 490/490/490 493/493/493 
f 495/495/495 494/494/494 493/493/493 
f 494/494/494 495/495/495 496/496/496 
f 497/497/497 496/496/496 495/495/495 
f 496/496/496 497/497/497 498/498/498 
f 499/499/499 500/500/500 501/501/501 
f 499/499/499 501/501/501 502/502/502 
f 503/503/503 499/499/499 502/502/502 
f 499/499/499 503/503/503 504/504/504 
f 505/505/505 504/504/504 503/503/503 
f 503/503/503 506/506/506 505/505/505 
f 506/506/506 507/507/507 505/505/505 
f 507/507/507 506/506/506 508/508/508 
f 509/509/509 510/510/510 511/511/511 
f 510/510/510 509/509/509 512/512/512 
f 509/509/509 513/513/513 512/512/512 
f 513/513/513 509/509/509 514/514/514 
f 514/514/514 515/515/515 513/513/513 
f 515/515/515 514/514/514 516/516/516 
f 516/516/516 517/517/517 515/515/515 
f 517/517/517 516/516/516 518/518/518 

