# This file is brought to you by Roblox Corporation
# Generated by Roblox Studio

mtllib unicornpet.mtl

g Pet1

v -1.16983 -0.684118 1.7356 
v -1.23637 -0.750569 1.66897 
v -1.16983 -0.902262 1.66876 
v -1.23637 -0.750569 1.66897 
v -1.16983 -0.684118 1.7356 
v -1.38806 -0.684026 1.66906 
v 2.05489 0.0369847 0.460329 
v 2.05483 -0.029466 0.554498 
v 2.00763 -0.18116 0.507593 
v 2.00805 0.255311 0.507169 
v 2.05496 0.103618 0.554369 
v 2.05489 0.0369847 0.460329 
v 1.11944 0.354621 1.79604 
v 1.30618 0.354514 1.59582 
v 1.14854 0.434366 1.68684 
v 1.11944 0.354621 1.79604 
v 1.14854 0.434366 1.68684 
v 1.07929 0.616402 1.7266 
v -1.16983 -0.465791 1.66936 
v -1.23637 -0.617485 1.66915 
v -1.16983 -0.684118 1.7356 
v 0.852748 0.354511 1.858 
v 1.11944 0.354621 1.79604 
v 1.01028 0.434365 1.76679 
v 1.07965 0.0926227 1.72722 
v 1.14865 0.27466 1.68703 
v 1.11944 0.354621 1.79604 
v -1.84289 -0.389399 0.507122 
v -1.90041 -0.237706 0.540573 
v -1.87601 -0.171073 0.449753 
v 1.10024 0.85 -0.965108 
v 1.07981 1.03204 -0.887911 
v 1.1566 0.770038 -0.867336 
v 1.01028 0.434365 1.76679 
v 1.11944 0.354621 1.79604 
v 1.07929 0.616402 1.7266 
v 0.111976 -1.39743 0.930983 
v 0.506373 -1.39743 0.475567 
v 0.546823 -1.39743 0.888375 
v 0.071526 -1.39743 0.518176 
v -0.52892 -1.39743 0.894412 
v -0.0575122 -1.39743 0.519275 
v -0.0936525 -1.39743 0.932482 
v -0.49278 -1.39743 0.481205 
v -0.498456 -1.39743 0.304113 
v -0.0270479 -1.39743 -0.071024 
v -0.0631882 -1.39743 0.342183 
v -0.462316 -1.39743 -0.109094 
v 0.0886321 -1.39743 0.340505 
v 0.475244 -1.39743 -0.12154 
v 0.522694 -1.39743 0.290522 
v 0.0411818 -1.39743 -0.0715565 
v 1.11944 0.354621 1.79604 
v 1.14865 0.27466 1.68703 
v 1.30618 0.354514 1.59582 
v 2.05483 -0.029466 0.554498 
v 2.05489 0.0369847 0.460329 
v 2.16215 0.0370777 0.661697 
v -1.87601 -0.171073 0.449753 
v -1.90032 -0.104621 0.540731 
v -1.84259 0.0470714 0.507638 
v 1.01039 0.274659 1.76697 
v 1.07965 0.0926227 1.72722 
v 1.11944 0.354621 1.79604 
v -1.16983 -0.684118 1.7356 
v -1.10328 -0.750569 1.66897 
v -0.95159 -0.684026 1.66906 
v 1.01039 0.274659 1.76697 
v 1.11944 0.354621 1.79604 
v 0.852748 0.354511 1.858 
v 2.16215 0.0370777 0.661697 
v 2.05489 0.0369847 0.460329 
v 2.05496 0.103618 0.554369 
v 1.1566 0.770038 -0.867336 
v 1.14725 0.770146 -1.14097 
v 1.10024 0.85 -0.965108 
v 0.0163721 0.540847 -1.35003 
v 0.0808872 0.450714 -1.32274 
v -0.0477924 0.450441 -1.32296 
v -1.38888 -0.25492 -0.997588 
v -1.44661 -0.103226 -1.03068 
v -1.35576 -0.0365933 -1.05496 
v 0.128729 0.365908 1.59386 
v 0.0643643 0.468587 1.55044 
v -5.89273e-08 0.475852 1.80031 
v 0.105219 0.372084 1.24742 
v 0.210439 0.157548 1.24743 
v -0.0643644 0.468587 1.55044 
v -0.105219 0.372084 1.24742 
v -0.128729 0.365908 1.59386 
v -0.210439 0.157548 1.24743 
v -0.0643644 0.263229 1.63728 
v -0.105219 -0.0569873 1.24743 
v 0.0643643 0.263229 1.63728 
v -0.0643644 0.263229 1.63728 
v 0.105219 -0.0569873 1.24743 
v -0.105219 -0.0569873 1.24743 
v -1.35576 -0.0365933 -1.05496 
v -1.4467 0.0298582 -1.03052 
v -1.38918 0.181551 -0.997072 
v 0.00550201 -1.18076 0.873177 
v 0.855308 -1.17826 0.985185 
v 0.00550198 -1.16767 1.25929 
v 0.862808 -1.14043 1.25929 
v -0.851798 -1.14043 1.25929 
v 0.848137 -1.18932 0.722906 
v -0.843967 -1.17879 0.76725 
v 0.00550205 -1.19421 0.503721 
v 0.855578 -1.15178 0.0251943 
v -0.836467 -1.19037 0.296438 
v 0.00550209 -1.15178 -0.0489935 
v 0.862808 -1.05494 -0.455315 
v -0.844567 -1.15178 -0.123181 
v 0.00550213 -1.07802 -0.455315 
v -0.851797 -1.05494 -0.455315 
v 1.10003 0.690294 -0.965164 
v 1.1566 0.770038 -0.867336 
v 1.07912 0.508258 -0.888096 
v -1.87601 -0.171073 0.449753 
v -1.90041 -0.237706 0.540573 
v -2.03173 -0.171164 0.616499 
v -0.851798 -1.14043 1.25929 
v 0.00550198 -1.16767 1.25929 
v -0.88494 -0.354786 1.25929 
v 0.00575998 0.466081 1.25805 
v -0.85089 0.460284 1.25491 
v 0.88902 -0.354786 1.25929 
v 0.86241 0.418036 1.2612 
v 0.862808 -1.14043 1.25929 
v -1.38806 -0.684026 1.66906 
v -1.16983 -0.684118 1.7356 
v -1.23637 -0.617485 1.66915 
v -0.608305 1.16846 -0.49191 
v -0.830574 1.16855 -0.5434 
v -0.699158 1.23509 -0.467632 
v 0.0163721 0.540847 -1.35003 
v 0.0857741 0.532344 -1.25424 
v 0.0808872 0.450714 -1.32274 
v -0.699158 1.23509 -0.467632 
v -0.641428 1.38678 -0.434541 
v -0.608305 1.16846 -0.49191 
v 0.0163721 0.540847 -1.35003 
v -0.0477924 0.450441 -1.32296 
v -0.0538092 0.53201 -1.25452 
v 0.855308 -1.17826 0.985185 
v 0.88902 -0.354786 1.25929 
v 0.862808 -1.14043 1.25929 
v 0.848137 -0.403679 0.722906 
v 0.848137 -1.18932 0.722906 
v 0.855578 -1.15178 0.0251943 
v 0.848805 0.349569 0.72099 
v 0.86241 0.418036 1.2612 
v 0.83661 -0.333171 -0.455315 
v 0.862808 -1.05494 -0.455315 
v 0.8628 0.385704 -0.455487 
v -1.35576 -0.0365933 -1.05496 
v -1.44661 -0.103226 -1.03068 
v -1.57802 -0.036684 -1.10645 
v -0.88494 -0.354786 1.25929 
v -0.843967 -1.17879 0.76725 
v -0.851798 -1.14043 1.25929 
v -0.836467 -0.404804 0.29643 
v -0.836467 -1.19037 0.296438 
v -0.844567 -1.15178 -0.123181 
v -0.836737 0.341836 0.297333 
v -0.85089 0.460284 1.25491 
v -0.825322 -0.333171 -0.455315 
v -0.851797 -1.05494 -0.455315 
v -0.851805 0.386821 -0.45542 
v -1.87601 -0.171073 0.449753 
v -2.03173 -0.171164 0.616499 
v -1.90032 -0.104621 0.540731 
v -1.4223 -0.0367748 -0.939703 
v -1.44661 -0.103226 -1.03068 
v -1.38888 -0.25492 -0.997588 
v -1.10328 -0.750569 1.66897 
v -1.16983 -0.684118 1.7356 
v -1.16983 -0.902262 1.66876 
v -1.38918 0.181551 -0.997072 
v -1.4467 0.0298582 -1.03052 
v -1.4223 -0.0367748 -0.939703 
v 1.01168 0.770146 -0.635038 
v 1.1566 0.770038 -0.867336 
v 1.0589 0.85 -0.810844 
v 1.25855 -0.815532 0.30277 
v 1.20267 -0.71219 0.333626 
v 1.12285 -0.83985 0.377706 
v 0.952569 -0.772982 0.471742 
v 0.814211 -0.608849 0.548148 
v 1.83326 -0.472074 -0.0146031 
v 1.42617 -0.794255 0.210202 
v 0.814211 -0.177248 0.548148 
v 1.6071 -0.803376 0.11029 
v 1.09891 0.144934 0.390929 
v 1.7694 -0.748665 0.0206609 
v 1.2825 0.284746 0.289545 
v 1.88382 -0.654443 -0.0425216 
v 1.94235 -0.560218 -0.0748467 
v 1.42617 0.336417 0.210202 
v 1.54856 0.339458 0.142615 
v 1.74014 0.27867 0.0368233 
v 1.97694 0.117577 -0.0939467 
v 2.03814 -0.383933 -0.127742 
v 2.17383 -0.250194 -0.202678 
v 2.24301 -0.0678298 -0.240879 
v 2.24833 0.0963036 -0.243818 
v -1.25855 -0.815532 0.30277 
v -1.12285 -0.83985 0.377706 
v -1.20267 -0.71219 0.333625 
v -0.952569 -0.772982 0.471742 
v -0.814211 -0.608849 0.548148 
v -1.83326 -0.472074 -0.0146033 
v -1.42617 -0.794255 0.210202 
v -0.814211 -0.177248 0.548148 
v -1.6071 -0.803376 0.110289 
v -1.09891 0.144934 0.390929 
v -1.7694 -0.748665 0.0206606 
v -1.2825 0.284746 0.289545 
v -1.88382 -0.654443 -0.0425218 
v -1.94235 -0.560218 -0.074847 
v -1.42617 0.336417 0.210202 
v -1.54856 0.339458 0.142614 
v -1.74014 0.27867 0.036823 
v -1.97694 0.117577 -0.093947 
v -2.03814 -0.383933 -0.127742 
v -2.17383 -0.250194 -0.202678 
v -2.24301 -0.0678298 -0.240879 
v -2.24833 0.0963036 -0.243819 
v -0.297957 0.570894 0.956324 
v -0.448298 0.277551 1.22073 
v -0.415476 0.384251 0.802572 
v -0.301433 0.738636 0.797635 
v -0.279556 0.687499 1.12664 
v -0.42919 0.734017 1.26442 
v -0.650515 0.683124 1.28528 
v -0.758719 0.564707 1.15306 
v -0.786432 0.379877 0.961208 
v -0.746487 0.942636 1.19989 
v -0.911678 0.505528 0.803967 
v -0.610759 0.353895 0.845035 
v -0.685346 0.474379 0.672554 
v -0.735908 0.631813 0.555627 
v -0.867537 0.734414 1.03825 
v -0.891872 0.66036 0.651885 
v -0.882198 0.870341 0.802376 
v -0.803902 1.036 0.866128 
v -0.783601 0.985097 0.645993 
v -0.837224 0.90494 0.600987 
v -0.830558 0.824811 0.532889 
v -0.762545 0.803366 0.493277 
v -0.735908 0.631813 0.555627 
v -0.779054 1.10112 0.45585 
v -0.837224 0.90494 0.600987 
v -0.783601 0.985097 0.645993 
v -0.706081 1.0078 0.623187 
v -0.640474 0.986358 0.584611 
v -0.63481 0.906723 0.514182 
v -0.687422 0.826072 0.471505 
v -0.762545 0.803366 0.493277 
v -0.735908 0.631813 0.555627 
v -0.547177 0.664424 0.504479 
v -0.447845 0.876089 0.616884 
v -0.63481 0.906723 0.514182 
v -0.685346 0.474379 0.672554 
v -0.735908 0.631813 0.555627 
v -0.459208 1.04006 0.718724 
v -0.640474 0.986358 0.584611 
v -0.437002 0.509548 0.6028 
v -0.610759 0.353895 0.845035 
v -0.27181 0.946655 0.998728 
v -0.618357 1.10633 0.826968 
v -0.640474 0.986358 0.584611 
v -0.47298 1.0226 1.16316 
v -0.706081 1.0078 0.623187 
v 0.336023 0.550284 0.961167 
v 0.453542 0.363641 0.807416 
v 0.486364 0.256941 1.22558 
v 0.339499 0.718026 0.802478 
v 0.317622 0.666889 1.13148 
v 0.467256 0.713407 1.26926 
v 0.688581 0.662514 1.29012 
v 0.796785 0.544097 1.1579 
v 0.824498 0.359267 0.966052 
v 0.784553 0.922026 1.20474 
v 0.949744 0.484918 0.80881 
v 0.648825 0.333285 0.849878 
v 0.723412 0.453769 0.677397 
v 0.773974 0.611203 0.560471 
v 0.905603 0.713804 1.04309 
v 0.929938 0.63975 0.656728 
v 0.920264 0.849731 0.80722 
v 0.841968 1.01539 0.870972 
v 0.87529 0.88433 0.60583 
v 0.821667 0.964487 0.650836 
v 0.868624 0.804201 0.537732 
v 0.800611 0.782756 0.498121 
v 0.773974 0.611203 0.560471 
v 0.81712 1.08051 0.460693 
v 0.87529 0.88433 0.60583 
v 0.821667 0.964487 0.650836 
v 0.744147 0.98719 0.628031 
v 0.67854 0.965748 0.589454 
v 0.672876 0.886113 0.519026 
v 0.725488 0.805463 0.476349 
v 0.800611 0.782756 0.498121 
v 0.773974 0.611203 0.560471 
v 0.585243 0.643814 0.509322 
v 0.485911 0.855479 0.621728 
v 0.672876 0.886113 0.519026 
v 0.723412 0.453769 0.677397 
v 0.773974 0.611203 0.560471 
v 0.475068 0.488938 0.607643 
v 0.648825 0.333285 0.849878 
v 0.497274 1.01945 0.723568 
v 0.67854 0.965748 0.589454 
v 0.309876 0.926045 1.00357 
v 0.656423 1.08572 0.831812 
v 0.67854 0.965748 0.589454 
v 0.511046 1.00199 1.168 
v 0.744147 0.98719 0.628031 
v -0.830574 1.16855 -0.5434 
v -0.674848 1.16864 -0.376655 
v -0.699158 1.23509 -0.467632 
v -1.35576 -0.0365933 -1.05496 
v -1.57802 -0.036684 -1.10645 
v -1.4467 0.0298582 -1.03052 
v 2.05489 0.0369847 0.460329 
v 1.96072 -0.0294668 0.460393 
v 1.85352 0.0370747 0.353065 
v 1.1566 0.770038 -0.867336 
v 1.10003 0.690294 -0.965164 
v 1.14725 0.770146 -1.14097 
v 0.00550213 -1.07802 -0.455315 
v -0.825322 -0.333171 -0.455315 
v 0.00549988 0.367936 -0.455458 
v -0.851805 0.386821 -0.45542 
v -0.851797 -1.05494 -0.455315 
v 0.83661 -0.333171 -0.455315 
v 0.862808 -1.05494 -0.455315 
v 0.8628 0.385704 -0.455487 
v -0.699158 1.23509 -0.467632 
v -0.674848 1.16864 -0.376655 
v -0.641428 1.38678 -0.434541 
v -0.452579 1.16855 -0.325165 
v -0.608305 1.16846 -0.49191 
v -0.583904 1.23509 -0.40109 
v -1.80947 -0.171254 0.565007 
v -1.90041 -0.237706 0.540573 
v -1.84289 -0.389399 0.507122 
v 0.334265 -0.156772 -0.441329 
v -0.315305 -0.158569 -0.442427 
v -0.146099 0.154908 -0.998806 
v 0.176131 0.15578 -0.998377 
v -0.0477924 0.450441 -1.32296 
v 0.0808872 0.450714 -1.32274 
v 2.05489 0.0369847 0.460329 
v 1.85352 0.0370747 0.353065 
v 1.96085 0.103618 0.460264 
v 0.50964 -1.24987 0.859413 
v 0.14283 -1.24987 0.895356 
v 0.111976 -1.39743 0.930983 
v 0.546823 -1.39743 0.888375 
v 0.501531 -1.08407 0.853098 
v 0.149558 -1.08407 0.887586 
v -0.492042 -1.24987 0.865064 
v -0.0936525 -1.39743 0.932482 
v -0.124876 -1.24987 0.897178 
v -0.52892 -1.39743 0.894412 
v -0.483999 -1.08407 0.858665 
v -0.131686 -1.08407 0.889478 
v -1.16983 -0.684118 1.7356 
v -0.95159 -0.684026 1.66906 
v -1.10328 -0.617485 1.66915 
v 0.334265 -0.156772 -0.441329 
v 0.176131 0.15578 -0.998377 
v 0.33554 0.362999 -0.438849 
v 0.174927 0.379271 -0.867317 
v 0.0857741 0.532344 -1.25424 
v 0.0808872 0.450714 -1.32274 
v -0.146099 0.154908 -0.998806 
v -0.31403 0.36119 -0.439947 
v -0.147302 0.3784 -0.867746 
v -0.315305 -0.158569 -0.442427 
v -0.0538092 0.53201 -1.25452 
v -0.0477924 0.450441 -1.32296 
v -1.84259 0.0470714 0.507638 
v -1.90032 -0.104621 0.540731 
v -1.80947 -0.171254 0.565007 
v -0.699249 1.10201 -0.467474 
v -0.608305 1.16846 -0.49191 
v -0.641724 0.950315 -0.434023 
v -1.10328 -0.617485 1.66915 
v -1.16983 -0.465791 1.66936 
v -1.16983 -0.684118 1.7356 
v 1.10024 0.85 -0.965108 
v 1.00233 0.770256 -0.908671 
v 1.07981 1.03204 -0.887911 
v 0.444998 -1.24987 -0.085394 
v 0.485024 -1.24987 0.262196 
v 0.522694 -1.39743 0.290522 
v 0.475244 -1.39743 -0.12154 
v 0.438403 -1.08407 -0.0775107 
v 0.47681 -1.08407 0.256019 
v -1.44661 -0.103226 -1.03068 
v -1.4223 -0.0367748 -0.939703 
v -1.57802 -0.036684 -1.10645 
v -1.78516 -0.237706 0.474031 
v -1.87601 -0.171073 0.449753 
v -1.65374 -0.171164 0.398262 
v -0.0538092 0.53201 -1.25452 
v 0.0857741 0.532344 -1.25424 
v 0.0163721 0.540847 -1.35003 
v 0.47552 -1.24987 0.511194 
v 0.50964 -1.24987 0.859413 
v 0.546823 -1.39743 0.888375 
v 0.506373 -1.39743 0.475567 
v 0.468791 -1.08407 0.518964 
v 0.501531 -1.08407 0.853098 
v -0.674848 1.16864 -0.376655 
v -0.452579 1.16855 -0.325165 
v -0.583904 1.23509 -0.40109 
v -0.498456 -1.39743 0.304113 
v -0.431092 -1.24987 -0.0737901 
v -0.462316 -1.39743 -0.109094 
v -0.461578 -1.24987 0.274766 
v -0.424282 -1.08407 -0.0660906 
v -0.453535 -1.08407 0.268366 
v -0.85089 0.460284 1.25491 
v 0.00575998 0.466081 1.25805 
v 0.0056468 0.344912 0.502259 
v -0.836737 0.341836 0.297333 
v 0.848805 0.349569 0.72099 
v 0.86241 0.418036 1.2612 
v 0.8628 0.385704 -0.455487 
v 0.00549988 0.367936 -0.455458 
v -0.851805 0.386821 -0.45542 
v -0.52892 -1.39743 0.894412 
v -0.461556 -1.24987 0.516509 
v -0.49278 -1.39743 0.481205 
v -0.492042 -1.24987 0.865064 
v -0.454747 -1.08407 0.524207 
v -0.483999 -1.08407 0.858665 
v 0.33554 0.362999 -0.438849 
v -0.147302 0.3784 -0.867746 
v -0.31403 0.36119 -0.439947 
v 0.174927 0.379271 -0.867317 
v -1.90041 -0.237706 0.540573 
v -1.80947 -0.171254 0.565007 
v -2.03173 -0.171164 0.616499 
v -1.57802 -0.036684 -1.10645 
v -1.4223 -0.0367748 -0.939703 
v -1.4467 0.0298582 -1.03052 
v 1.14725 0.770146 -1.14097 
v 1.00233 0.770256 -0.908671 
v 1.10024 0.85 -0.965108 
v 1.07981 1.03204 -0.887911 
v 1.0589 0.85 -0.810844 
v 1.1566 0.770038 -0.867336 
v 1.96072 -0.0294668 0.460393 
v 2.05489 0.0369847 0.460329 
v 2.00763 -0.18116 0.507593 
v -0.699249 1.10201 -0.467474 
v -0.641724 0.950315 -0.434023 
v -0.674848 1.16864 -0.376655 
v 1.96085 0.103618 0.460264 
v 2.00805 0.255311 0.507169 
v 2.05489 0.0369847 0.460329 
v -0.462316 -1.39743 -0.109094 
v -0.0639262 -1.24987 -0.0416765 
v -0.0270479 -1.39743 -0.071024 
v -0.431092 -1.24987 -0.0737901 
v -0.0719692 -1.08407 -0.0352768 
v -0.424282 -1.08407 -0.0660906 
v 0.475244 -1.39743 -0.12154 
v 0.0411818 -1.39743 -0.0715565 
v 0.0788506 -1.24987 -0.0432313 
v 0.444998 -1.24987 -0.085394 
v 0.0870661 -1.08407 -0.0370535 
v 0.438403 -1.08407 -0.0775107 
v 2.00763 -0.18116 0.507593 
v 2.05483 -0.029466 0.554498 
v 1.96079 0.0371669 0.554433 
v 0.00776536 1.03959 0.394153 
v 0.00776543 0.692801 1.34486 
v 0.00776545 0.179432 1.14479 
v 0.00776543 1.06193 1.3087 
v 0.00776547 1.27512 0.911201 
v 0.00776543 1.06193 1.3087 
v 0.00776536 1.03959 0.394153 
v 0.00776549 1.23145 0.623059 
v 0.00776547 1.27512 0.911201 
v 0.00776536 1.03959 0.394153 
v 0.00776551 1.39743 0.441311 
v 0.00776549 1.23145 0.623059 
v 0.00776551 1.22132 0.390277 
v 0.00776536 1.03959 0.394153 
v 0.00776536 1.03959 0.394153 
v 0.00776545 0.179432 1.14479 
v 0.00776496 0.152002 -0.0294133 
v 0.00776496 0.152002 -0.0294133 
v 0.00776523 1.05759 0.00841262 
v 0.00776536 1.03959 0.394153 
v 0.007765 0.103838 -0.381764 
v 0.00776523 1.05759 0.00841262 
v 0.00776512 0.733629 -0.331684 
v 0.00776525 0.917587 -0.198092 
v 0.007765 0.103838 -0.381764 
v 0.00776527 0.9788 -0.399716 
v 0.00776525 0.917587 -0.198092 
v 0.00776527 0.836578 -0.383487 
v 0.00776512 0.733629 -0.331684 
v 0.00776512 0.733629 -0.331684 
v 0.007765 0.103838 -0.381764 
v 0.00776501 0.150985 -0.566497 
v 0.00776501 0.150985 -0.566497 
v 0.00776501 0.708548 -0.599959 
v 0.00776512 0.733629 -0.331684 
v 0.00776502 0.244361 -0.712098 
v 0.00776501 0.708548 -0.599959 
v 0.00776502 0.244361 -0.712098 
v 0.00776503 0.569018 -0.753323 
v 0.00776503 0.365204 -0.813188 
v 0.00776504 0.59559 -0.926407 
v 0.00776503 0.569018 -0.753323 
v 0.00776504 0.478715 -0.886613 
v 0.00776503 0.365204 -0.813188 
v 1.10003 0.690294 -0.965164 
v 1.07912 0.508258 -0.888096 
v 1.00233 0.770256 -0.908671 
v -0.641428 1.38678 -0.434541 
v -0.583904 1.23509 -0.40109 
v -0.608305 1.16846 -0.49191 
v 1.05869 0.690294 -0.8109 
v 1.1566 0.770038 -0.867336 
v 1.01168 0.770146 -0.635038 
v 1.96079 0.0371669 0.554433 
v 2.05496 0.103618 0.554369 
v 2.00805 0.255311 0.507169 
v 0.00237432 1.03959 0.394153 
v 0.00237409 0.692801 1.34486 
v 0.00237409 1.06193 1.3087 
v 0.00237411 0.179432 1.14479 
v 0.00237413 1.27512 0.911201 
v 0.00237432 1.03959 0.394153 
v 0.00237409 1.06193 1.3087 
v 0.00237415 1.23145 0.623059 
v 0.00237432 1.03959 0.394153 
v 0.00237413 1.27512 0.911201 
v 0.00237417 1.39743 0.441311 
v 0.00237417 1.22132 0.390277 
v 0.00237415 1.23145 0.623059 
v 0.00237432 1.03959 0.394153 
v 0.00237432 1.03959 0.394153 
v 0.00237479 0.152002 -0.0294133 
v 0.00237411 0.179432 1.14479 
v 0.00237479 0.152002 -0.0294133 
v 0.00237432 1.03959 0.394153 
v 0.00237452 1.05759 0.00841261 
v 0.00237482 0.103838 -0.381764 
v 0.00237469 0.733629 -0.331684 
v 0.00237452 1.05759 0.00841261 
v 0.00237454 0.917587 -0.198092 
v 0.00237482 0.103838 -0.381764 
v 0.00237456 0.9788 -0.399716 
v 0.00237455 0.836578 -0.383487 
v 0.00237454 0.917587 -0.198092 
v 0.00237469 0.733629 -0.331684 
v 0.00237469 0.733629 -0.331684 
v 0.00237484 0.150985 -0.566497 
v 0.00237482 0.103838 -0.381764 
v 0.00237484 0.150985 -0.566497 
v 0.00237469 0.733629 -0.331684 
v 0.00237484 0.708548 -0.599959 
v 0.00237485 0.244361 -0.712098 
v 0.00237485 0.244361 -0.712098 
v 0.00237484 0.708548 -0.599959 
v 0.00237486 0.569018 -0.753323 
v 0.00237486 0.365204 -0.813188 
v 0.00237487 0.478715 -0.886613 
v 0.00237487 0.59559 -0.926407 
v -1.33135 -0.103226 -0.964138 
v -1.35576 -0.0365933 -1.05496 
v -1.20003 -0.036684 -0.888212 
v -1.65374 -0.171164 0.398262 
v -1.87601 -0.171073 0.449753 
v -1.78507 -0.104621 0.474188 
v 0.485024 -1.24987 0.262196 
v 0.118877 -1.24987 0.304359 
v 0.0886321 -1.39743 0.340505 
v 0.522694 -1.39743 0.290522 
v 0.47681 -1.08407 0.256019 
v 0.125473 -1.08407 0.296476 
v -0.461578 -1.24987 0.274766 
v -0.0631882 -1.39743 0.342183 
v -0.0944122 -1.24987 0.306879 
v -0.498456 -1.39743 0.304113 
v -0.453535 -1.08407 0.268366 
v -0.101221 -1.08407 0.29918 
v 0.648825 0.333285 0.849878 
v 0.824498 0.359267 0.966052 
v 0.486364 0.256941 1.22558 
v 0.174927 0.379271 -0.867317 
v -0.0538092 0.53201 -1.25452 
v -0.147302 0.3784 -0.867746 
v 0.0857741 0.532344 -1.25424 
v -0.608305 1.16846 -0.49191 
v -0.699249 1.10201 -0.467474 
v -0.830574 1.16855 -0.5434 
v -0.610759 0.353895 0.845035 
v -0.448298 0.277551 1.22073 
v -0.786432 0.379877 0.961208 
v -2.03173 -0.171164 0.616499 
v -1.80947 -0.171254 0.565007 
v -1.90032 -0.104621 0.540731 
v -1.20003 -0.036684 -0.888212 
v -1.35576 -0.0365933 -1.05496 
v -1.33144 0.0298582 -0.96398 
v 1.1566 0.770038 -0.867336 
v 1.05869 0.690294 -0.8109 
v 1.07912 0.508258 -0.888096 
v -0.124876 -1.24987 0.897178 
v -0.0575122 -1.39743 0.519275 
v -0.0943905 -1.24987 0.548621 
v -0.0936525 -1.39743 0.932482 
v -0.131686 -1.08407 0.889478 
v -0.102433 -1.08407 0.555022 
v -0.0944122 -1.24987 0.306879 
v -0.0270479 -1.39743 -0.071024 
v -0.0639262 -1.24987 -0.0416765 
v -0.0631882 -1.39743 0.342183 
v -0.101221 -1.08407 0.29918 
v -0.0719692 -1.08407 -0.0352768 
v 0.14283 -1.24987 0.895356 
v 0.071526 -1.39743 0.518176 
v 0.111976 -1.39743 0.930983 
v 0.108709 -1.24987 0.547137 
v 0.149558 -1.08407 0.887586 
v 0.116818 -1.08407 0.553453 
v 0.118877 -1.24987 0.304359 
v 0.0411818 -1.39743 -0.0715565 
v 0.0886321 -1.39743 0.340505 
v 0.0788506 -1.24987 -0.0432313 
v 0.125473 -1.08407 0.296476 
v 0.0870661 -1.08407 -0.0370535 
v -1.16983 -0.902262 1.66876 
v -1.23637 -0.750569 1.66897 
v -1.16983 -0.683936 1.60252 
v -0.674848 1.16864 -0.376655 
v -0.583904 1.23509 -0.40109 
v -0.641428 1.38678 -0.434541 
v -1.78516 -0.237706 0.474031 
v -1.84289 -0.389399 0.507122 
v -1.87601 -0.171073 0.449753 
v -1.16983 -0.683936 1.60252 
v -1.23637 -0.750569 1.66897 
v -1.38806 -0.684026 1.66906 
v 0.453542 0.363641 0.807416 
v 0.648825 0.333285 0.849878 
v 0.486364 0.256941 1.22558 
v -0.415476 0.384251 0.802572 
v -0.448298 0.277551 1.22073 
v -0.610759 0.353895 0.845035 
v 1.96079 0.0371669 0.554433 
v 2.05483 -0.029466 0.554498 
v 2.16215 0.0370777 0.661697 
v -1.78507 -0.104621 0.474188 
v -1.87601 -0.171073 0.449753 
v -1.84259 0.0470714 0.507638 
v -0.699249 1.10201 -0.467474 
v -0.674848 1.16864 -0.376655 
v -0.830574 1.16855 -0.5434 
v -0.608305 1.16846 -0.49191 
v -0.583994 1.10201 -0.400932 
v -0.641724 0.950315 -0.434023 
v 1.00233 0.770256 -0.908671 
v 1.01168 0.770146 -0.635038 
v 1.0589 0.85 -0.810844 
v -0.49278 -1.39743 0.481205 
v -0.0943905 -1.24987 0.548621 
v -0.0575122 -1.39743 0.519275 
v -0.461556 -1.24987 0.516509 
v -0.102433 -1.08407 0.555022 
v -0.454747 -1.08407 0.524207 
v 0.506373 -1.39743 0.475567 
v 0.071526 -1.39743 0.518176 
v 0.108709 -1.24987 0.547137 
v 0.47552 -1.24987 0.511194 
v 0.116818 -1.08407 0.553453 
v 0.468791 -1.08407 0.518964 
v 1.96079 0.0371669 0.554433 
v 2.16215 0.0370777 0.661697 
v 2.05496 0.103618 0.554369 
v -1.4223 -0.0367748 -0.939703 
v -1.33135 -0.103226 -0.964138 
v -1.20003 -0.036684 -0.888212 
v -0.583994 1.10201 -0.400932 
v -0.608305 1.16846 -0.49191 
v -0.452579 1.16855 -0.325165 
v 1.10003 0.690294 -0.965164 
v 1.00233 0.770256 -0.908671 
v 1.14725 0.770146 -1.14097 
v -1.33135 -0.103226 -0.964138 
v -1.38888 -0.25492 -0.997588 
v -1.35576 -0.0365933 -1.05496 
v -1.16983 -0.683936 1.60252 
v -1.23637 -0.617485 1.66915 
v -1.16983 -0.465791 1.66936 
v -1.25453 -0.815532 0.29549 
v -1.19865 -0.71219 0.326345 
v -1.11883 -0.83985 0.370426 
v -0.948548 -0.772982 0.464461 
v -0.81019 -0.608849 0.540867 
v -1.82924 -0.472074 -0.0218838 
v -1.42215 -0.794255 0.202921 
v -0.81019 -0.177248 0.540867 
v -1.60308 -0.803376 0.103009 
v -1.09489 0.144934 0.383649 
v -1.76538 -0.748665 0.0133801 
v -1.27848 0.284746 0.282264 
v -1.8798 -0.654443 -0.0498023 
v -1.93833 -0.560218 -0.0821275 
v -1.42215 0.336417 0.202921 
v -1.54454 0.339458 0.135334 
v -1.73612 0.27867 0.0295425 
v -1.97292 0.117577 -0.101228 
v -2.03412 -0.383933 -0.135023 
v -2.16981 -0.250194 -0.209959 
v -2.23899 -0.0678298 -0.24816 
v -2.24431 0.0963036 -0.251099 
v -1.33144 0.0298582 -0.96398 
v -1.35576 -0.0365933 -1.05496 
v -1.38918 0.181551 -0.997072 
v 1.25453 -0.815532 0.29549 
v 1.11883 -0.83985 0.370426 
v 1.19865 -0.71219 0.326345 
v 0.948548 -0.772982 0.464462 
v 0.81019 -0.608849 0.540867 
v 1.82924 -0.472074 -0.0218836 
v 1.42215 -0.794255 0.202922 
v 0.81019 -0.177248 0.540867 
v 1.60308 -0.803376 0.103009 
v 1.09489 0.144934 0.383649 
v 1.76538 -0.748665 0.0133804 
v 1.27848 0.284746 0.282265 
v 1.8798 -0.654443 -0.0498021 
v 1.93833 -0.560218 -0.0821272 
v 1.42215 0.336417 0.202922 
v 1.54454 0.339458 0.135334 
v 1.73612 0.27867 0.0295428 
v 1.97292 0.117577 -0.101227 
v 2.03412 -0.383933 -0.135022 
v 2.16981 -0.250194 -0.209958 
v 2.23899 -0.0678298 -0.248159 
v 2.24431 0.0963036 -0.251099 
v -1.80947 -0.171254 0.565007 
v -1.78516 -0.237706 0.474031 
v -1.65374 -0.171164 0.398262 
v -1.4223 -0.0367748 -0.939703 
v -1.20003 -0.036684 -0.888212 
v -1.33144 0.0298582 -0.96398 
v -0.641724 0.950315 -0.434023 
v -0.583994 1.10201 -0.400932 
v -0.674848 1.16864 -0.376655 
v -0.674848 1.16864 -0.376655 
v -0.583994 1.10201 -0.400932 
v -0.452579 1.16855 -0.325165 
v -1.10328 -0.750569 1.66897 
v -1.16983 -0.683936 1.60252 
v -0.95159 -0.684026 1.66906 
v -1.80947 -0.171254 0.565007 
v -1.65374 -0.171164 0.398262 
v -1.78507 -0.104621 0.474188 
v -0.230932 0.67287 -1.30322 
v -0.183507 0.52439 -1.52229 
v 0.0114335 0.35046 -1.17723 
v 0.0127084 0.501619 -1.5652 
v -0.242442 0.683236 -1.68772 
v 0.013295 0.654959 -1.72742 
v -0.290269 0.865072 -1.41667 
v -0.179924 0.860296 -1.79035 
v 0.0136918 0.833344 -1.8233 
v -0.0640195 1.03504 -1.84435 
v 0.013605 1.01452 -1.858 
v -0.226927 1.04176 -1.61101 
v -0.0955582 1.10313 -1.77044 
v -0.0626 1.16975 -1.69422 
v -0.176353 1.1863 -1.49294 
v -0.180732 0.756969 -1.1206 
v -0.238254 1.0329 -1.1849 
v 0.0125724 1.24457 -1.44447 
v -0.0626 1.16975 -1.69422 
v 0.0128995 1.18903 -1.68079 
v 0.0931342 1.16851 -1.69444 
v 0.0114306 1.09415 -1.10018 
v 0.0110866 0.790088 -1.04546 
v 0.277286 1.02936 -1.18777 
v 0.198536 1.18237 -1.49403 
v 0.245376 1.03624 -1.61274 
v 0.124684 1.10137 -1.77075 
v 0.324845 0.861283 -1.41935 
v 0.222723 0.752741 -1.12178 
v 0.270072 0.66693 -1.30511 
v 0.219945 0.520162 -1.52347 
v 0.0127084 0.501619 -1.5652 
v 0.273097 0.679687 -1.69058 
v 0.013295 0.654959 -1.72742 
v 0.194966 0.856367 -1.79145 
v 0.0136918 0.833344 -1.8233 
v 0.0917235 1.0338 -1.84457 
v 0.013605 1.01452 -1.858 
v 0.0140302 1.31469 -1.8428 
v 0.013605 1.01452 -1.858 
v 0.124684 1.10137 -1.77075 
v 0.0931342 1.16851 -1.69444 
v 0.0128995 1.18903 -1.68079 
v -0.0626 1.16975 -1.69422 
v -0.0955582 1.10313 -1.77044 
v 0.013605 1.01452 -1.858 
v 1.00233 0.770256 -0.908671 
v 1.0589 0.85 -0.810844 
v 1.07981 1.03204 -0.887911 
v -1.33135 -0.103226 -0.964138 
v -1.4223 -0.0367748 -0.939703 
v -1.38888 -0.25492 -0.997588 
v -1.33144 0.0298582 -0.96398 
v -1.38918 0.181551 -0.997072 
v -1.4223 -0.0367748 -0.939703 
v 1.00233 0.770256 -0.908671 
v 1.05869 0.690294 -0.8109 
v 1.01168 0.770146 -0.635038 
v 1.96072 -0.0294668 0.460393 
v 1.96079 0.0371669 0.554433 
v 1.85352 0.0370747 0.353065 
v 1.30618 0.354514 1.59582 
v 1.03949 0.354403 1.65778 
v 1.14854 0.434366 1.68684 
v 1.07929 0.616402 1.7266 
v 1.14854 0.434366 1.68684 
v 1.03949 0.354403 1.65778 
v -1.16983 -0.683936 1.60252 
v -1.38806 -0.684026 1.66906 
v -1.23637 -0.617485 1.66915 
v -1.78516 -0.237706 0.474031 
v -1.80947 -0.171254 0.565007 
v -1.84289 -0.389399 0.507122 
v 1.85352 0.0370747 0.353065 
v 1.96079 0.0371669 0.554433 
v 1.96085 0.103618 0.460264 
v 1.03949 0.354403 1.65778 
v 0.852748 0.354511 1.858 
v 1.01028 0.434365 1.76679 
v 1.03949 0.354403 1.65778 
v 1.14865 0.27466 1.68703 
v 1.07965 0.0926227 1.72722 
v 1.07912 0.508258 -0.888096 
v 1.05869 0.690294 -0.8109 
v 1.00233 0.770256 -0.908671 
v 1.01028 0.434365 1.76679 
v 1.07929 0.616402 1.7266 
v 1.03949 0.354403 1.65778 
v -1.78507 -0.104621 0.474188 
v -1.84259 0.0470714 0.507638 
v -1.80947 -0.171254 0.565007 
v 1.14865 0.27466 1.68703 
v 1.03949 0.354403 1.65778 
v 1.30618 0.354514 1.59582 
v -1.10328 -0.750569 1.66897 
v -1.16983 -0.902262 1.66876 
v -1.16983 -0.683936 1.60252 
v 1.01039 0.274659 1.76697 
v 1.03949 0.354403 1.65778 
v 1.07965 0.0926227 1.72722 
v 1.03949 0.354403 1.65778 
v 1.01039 0.274659 1.76697 
v 0.852748 0.354511 1.858 
v 1.96072 -0.0294668 0.460393 
v 2.00763 -0.18116 0.507593 
v 1.96079 0.0371669 0.554433 
v 1.96085 0.103618 0.460264 
v 1.96079 0.0371669 0.554433 
v 2.00805 0.255311 0.507169 
v -0.95159 -0.684026 1.66906 
v -1.16983 -0.683936 1.60252 
v -1.10328 -0.617485 1.66915 
v -1.10328 -0.617485 1.66915 
v -1.16983 -0.683936 1.60252 
v -1.16983 -0.465791 1.66936 

vn -0.551181 -0.244094 0.795276 
vn -0.551181 -0.244094 0.795276 
vn -0.551181 -0.244094 0.795276 
vn -0.244094 -0.551181 0.795276 
vn -0.244094 -0.551181 0.795276 
vn -0.244094 -0.551181 0.795276 
vn 0.952756 -0.244094 -0.173228 
vn 0.952756 -0.244094 -0.173228 
vn 0.952756 -0.244094 -0.173228 
vn 0.952756 0.244094 -0.173228 
vn 0.952756 0.244094 -0.173228 
vn 0.952756 0.244094 -0.173228 
vn 0.606299 0.551181 0.566929 
vn 0.606299 0.551181 0.566929 
vn 0.606299 0.551181 0.566929 
vn 0.88189 0.244094 0.409449 
vn 0.88189 0.244094 0.409449 
vn 0.88189 0.244094 0.409449 
vn -0.551181 0.244094 0.795276 
vn -0.551181 0.244094 0.795276 
vn -0.551181 0.244094 0.795276 
vn 0.188976 0.551181 0.811024 
vn 0.188976 0.551181 0.811024 
vn 0.188976 0.551181 0.811024 
vn 0.88189 -0.244094 0.409449 
vn 0.88189 -0.244094 0.409449 
vn 0.88189 -0.244094 0.409449 
vn -0.88189 -0.244094 -0.409449 
vn -0.88189 -0.244094 -0.409449 
vn -0.88189 -0.244094 -0.409449 
vn 0.913386 0.244094 -0.330709 
vn 0.913386 0.244094 -0.330709 
vn 0.913386 0.244094 -0.330709 
vn -0.0787402 0.244094 0.968504 
vn -0.0787402 0.244094 0.968504 
vn -0.0787402 0.244094 0.968504 
vn 0 -1 0 
vn 0 -1 0 
vn 0 -1 0 
vn 0 -1 0 
vn 0 -1 0 
vn 0 -1 0 
vn 0 -1 0 
vn 0 -1 0 
vn 0 -1 0 
vn 0 -1 0 
vn 0 -1 0 
vn 0 -1 0 
vn 0 -1 0 
vn 0 -1 0 
vn 0 -1 0 
vn 0 -1 0 
vn 0.606299 -0.551181 0.566929 
vn 0.606299 -0.551181 0.566929 
vn 0.606299 -0.551181 0.566929 
vn 0.732283 -0.551181 -0.393701 
vn 0.732283 -0.551181 -0.393701 
vn 0.732283 -0.551181 -0.393701 
vn -0.874016 0.244094 -0.409449 
vn -0.874016 0.244094 -0.409449 
vn -0.874016 0.244094 -0.409449 
vn -0.0787402 -0.244094 0.968504 
vn -0.0787402 -0.244094 0.968504 
vn -0.0787402 -0.244094 0.968504 
vn 0.244094 -0.551181 0.795276 
vn 0.244094 -0.551181 0.795276 
vn 0.244094 -0.551181 0.795276 
vn 0.188976 -0.551181 0.811024 
vn 0.188976 -0.551181 0.811024 
vn 0.188976 -0.551181 0.811024 
vn 0.732283 0.551181 -0.393701 
vn 0.732283 0.551181 -0.393701 
vn 0.732283 0.551181 -0.393701 
vn 0.834646 0.551181 -0.0314961 
vn 0.834646 0.551181 -0.0314961 
vn 0.834646 0.551181 -0.0314961 
vn 0 -0.291339 -0.96063 
vn 0 -0.291339 -0.96063 
vn 0 -0.291339 -0.96063 
vn -0.0787402 -0.244094 -0.968504 
vn -0.0787402 -0.244094 -0.968504 
vn -0.0787402 -0.244094 -0.968504 
vn 0.937008 0.125984 0.330709 
vn 0.488189 0.874016 -0.0551181 
vn 0 0.425197 0.905512 
vn 0.519685 0.826772 -0.204724 
vn 0.976378 0.0472441 0.204724 
vn -0.488189 0.874016 -0.0551181 
vn -0.519685 0.826772 -0.204724 
vn -0.937008 0.125984 0.330709 
vn -0.976378 0.0472441 0.204724 
vn -0.448819 -0.566929 0.692913 
vn -0.464567 -0.653543 0.590551 
vn 0.448819 -0.566929 0.692913 
vn -0.448819 -0.566929 0.692913 
vn 0.464567 -0.653543 0.590551 
vn -0.464567 -0.653543 0.590551 
vn -0.0787402 0.244094 -0.968504 
vn -0.0787402 0.244094 -0.968504 
vn -0.0787402 0.244094 -0.968504 
vn -0.00787402 -1 0.0551181 
vn 0.00787402 -1 0.0551181 
vn -0.00787402 -1 0.0708661 
vn 0.015748 -1 0.0787402 
vn -0.023622 -1 0.0551181 
vn 0.00787402 -1 -0.015748 
vn -0.015748 -1 0.0472441 
vn 0 -1 -0.023622 
vn 0.015748 -0.992126 -0.125984 
vn 0 -1 -0.023622 
vn 0.00787402 -0.992126 -0.141732 
vn 0.023622 -0.984252 -0.188976 
vn 0.00787402 -0.984252 -0.15748 
vn 0.00787402 -0.976378 -0.204724 
vn 0 -0.976378 -0.228346 
vn 0.913386 -0.244094 -0.330709 
vn 0.913386 -0.244094 -0.330709 
vn 0.913386 -0.244094 -0.330709 
vn -0.606299 -0.551181 -0.566929 
vn -0.606299 -0.551181 -0.566929 
vn -0.606299 -0.551181 -0.566929 
vn 0 0 1 
vn 0 0 1 
vn 0 0 1 
vn 0 0 1 
vn 0 0 1 
vn 0 0 1 
vn 0 0 1 
vn 0 0 1 
vn -0.244094 0.551181 0.795276 
vn -0.244094 0.551181 0.795276 
vn -0.244094 0.551181 0.795276 
vn 0.188976 0.551181 -0.811024 
vn 0.188976 0.551181 -0.811024 
vn 0.188976 0.551181 -0.811024 
vn 0.76378 0.385827 -0.519685 
vn 0.76378 0.385827 -0.519685 
vn 0.76378 0.385827 -0.519685 
vn -0.0787402 0.244094 -0.968504 
vn -0.0787402 0.244094 -0.968504 
vn -0.0787402 0.244094 -0.968504 
vn -0.76378 0.385827 -0.519685 
vn -0.76378 0.385827 -0.519685 
vn -0.76378 0.385827 -0.519685 
vn 1 -0.00787402 -0.0393701 
vn 1 0 -0.0551181 
vn 1 -0.023622 -0.0551181 
vn 1 0 -0.023622 
vn 1 0 -0.00787402 
vn 1 0.00787402 0.00787402 
vn 1 0 -0.023622 
vn 1 0.015748 -0.0551181 
vn 1 0 0 
vn 1 0.023622 0 
vn 1 -0.015748 0 
vn 0.188976 -0.551181 -0.811024 
vn 0.188976 -0.551181 -0.811024 
vn 0.188976 -0.551181 -0.811024 
vn -1 0 -0.0393701 
vn -1 -0.015748 -0.023622 
vn -1 -0.0314961 -0.0393701 
vn -1 0 -0.00787402 
vn -1 0 0 
vn -1 0.015748 0.00787402 
vn -1 0 -0.015748 
vn -1 0.023622 -0.0314961 
vn -1 0 0 
vn -1 0.023622 0 
vn -1 -0.015748 0 
vn -0.606299 0.551181 -0.566929 
vn -0.606299 0.551181 -0.566929 
vn -0.606299 0.551181 -0.566929 
vn -0.874016 -0.244094 0.409449 
vn -0.874016 -0.244094 0.409449 
vn -0.874016 -0.244094 0.409449 
vn 0.551181 -0.244094 0.795276 
vn 0.551181 -0.244094 0.795276 
vn 0.551181 -0.244094 0.795276 
vn -0.88189 0.244094 0.409449 
vn -0.88189 0.244094 0.409449 
vn -0.88189 0.244094 0.409449 
vn 0.708661 0.551181 0.440945 
vn 0.708661 0.551181 0.440945 
vn 0.708661 0.551181 0.440945 
vn 0.480315 0 0.874016 
vn 0.480315 0 0.874016 
vn 0.480315 0 0.874016 
vn 0.480315 0 0.874016 
vn 0.480315 0 0.874016 
vn 0.480315 0 0.874016 
vn 0.480315 0 0.874016 
vn 0.480315 0 0.874016 
vn 0.480315 0 0.874016 
vn 0.480315 0 0.874016 
vn 0.480315 0 0.874016 
vn 0.480315 0 0.874016 
vn 0.480315 0 0.874016 
vn 0.480315 0 0.874016 
vn 0.480315 0 0.874016 
vn 0.480315 0 0.874016 
vn 0.480315 0 0.874016 
vn 0.480315 0 0.874016 
vn 0.480315 0 0.874016 
vn 0.480315 0 0.874016 
vn 0.480315 0 0.874016 
vn 0.480315 0 0.874016 
vn -0.480315 0 0.874016 
vn -0.480315 0 0.874016 
vn -0.480315 0 0.874016 
vn -0.480315 0 0.874016 
vn -0.480315 0 0.874016 
vn -0.480315 0 0.874016 
vn -0.480315 0 0.874016 
vn -0.480315 0 0.874016 
vn -0.480315 0 0.874016 
vn -0.480315 0 0.874016 
vn -0.480315 0 0.874016 
vn -0.480315 0 0.874016 
vn -0.480315 0 0.874016 
vn -0.480315 0 0.874016 
vn -0.480315 0 0.874016 
vn -0.480315 0 0.874016 
vn -0.480315 0 0.874016 
vn -0.480315 0 0.874016 
vn -0.480315 0 0.874016 
vn -0.480315 0 0.874016 
vn -0.480315 0 0.874016 
vn -0.480315 0 0.874016 
vn 0.944882 -0.307087 -0.0787402 
vn 0.362205 -0.488189 0.795276 
vn 0.685039 -0.637795 -0.354331 
vn 0.92126 0 -0.385827 
vn 0.913386 -0.0551181 0.409449 
vn 0.401575 0.125984 0.905512 
vn -0.322835 -0.0629921 0.944882 
vn -0.708661 -0.322835 0.629921 
vn -0.724409 -0.645669 0.244094 
vn -0.582677 0.464567 0.669291 
vn -0.84252 -0.511811 -0.181102 
vn -0.19685 -0.850394 -0.488189 
vn -0.251969 -0.748031 -0.614173 
vn -0.338583 -0.496063 -0.80315 
vn -0.929134 0.015748 0.362205 
vn -0.866142 -0.204724 -0.456693 
vn -0.96063 0.283465 -0.015748 
vn -0.661417 0.748031 0.0472441 
vn -0.637795 0.740157 -0.212598 
vn -0.937008 0.330709 -0.11811 
vn -0.826772 -0.0551181 -0.559055 
vn -0.377953 -0.251969 -0.889764 
vn -0.338583 -0.496063 -0.80315 
vn -0.299213 0.629921 -0.716535 
vn -0.944882 0.314961 -0.0551181 
vn -0.543307 0.724409 0.433071 
vn 0.181102 0.889764 0.417323 
vn 0.685039 0.724409 -0.0866142 
vn 0.606299 0.330709 -0.724409 
vn 0.15748 -0.0472441 -0.984252 
vn -0.377953 -0.251969 -0.889764 
vn -0.338583 -0.496063 -0.80315 
vn 0.275591 -0.204724 -0.937008 
vn 0.653543 0.291339 -0.700787 
vn 0.535433 0.354331 -0.76378 
vn -0.251969 -0.748031 -0.614173 
vn -0.338583 -0.496063 -0.80315 
vn 0.488189 0.755906 -0.440945 
vn 0.251969 0.748031 -0.614173 
vn 0.472441 -0.519685 -0.708661 
vn -0.19685 -0.850394 -0.488189 
vn 0.889764 0.456693 0.0551181 
vn -0.0472441 0.992126 -0.0944882 
vn 0.251969 0.748031 -0.614173 
vn 0.259843 0.755906 0.598425 
vn -0.165354 0.92126 -0.362205 
vn -0.944882 -0.307087 -0.0787402 
vn -0.685039 -0.637795 -0.354331 
vn -0.362205 -0.488189 0.795276 
vn -0.92126 0 -0.385827 
vn -0.913386 -0.0551181 0.409449 
vn -0.401575 0.125984 0.905512 
vn 0.322835 -0.0629921 0.944882 
vn 0.708661 -0.322835 0.629921 
vn 0.724409 -0.645669 0.244094 
vn 0.582677 0.464567 0.669291 
vn 0.84252 -0.511811 -0.181102 
vn 0.19685 -0.850394 -0.488189 
vn 0.251969 -0.748031 -0.614173 
vn 0.338583 -0.496063 -0.80315 
vn 0.929134 0.015748 0.362205 
vn 0.866142 -0.204724 -0.456693 
vn 0.96063 0.283465 -0.015748 
vn 0.661417 0.748031 0.0472441 
vn 0.937008 0.330709 -0.11811 
vn 0.637795 0.740157 -0.212598 
vn 0.826772 -0.0551181 -0.559055 
vn 0.377953 -0.251969 -0.889764 
vn 0.338583 -0.496063 -0.80315 
vn 0.299213 0.629921 -0.716535 
vn 0.944882 0.314961 -0.0551181 
vn 0.543307 0.724409 0.433071 
vn -0.181102 0.889764 0.417323 
vn -0.685039 0.724409 -0.0866142 
vn -0.606299 0.330709 -0.724409 
vn -0.15748 -0.0472441 -0.984252 
vn 0.377953 -0.251969 -0.889764 
vn 0.338583 -0.496063 -0.80315 
vn -0.275591 -0.204724 -0.937008 
vn -0.653543 0.291339 -0.700787 
vn -0.535433 0.354331 -0.76378 
vn 0.251969 -0.748031 -0.614173 
vn 0.338583 -0.496063 -0.80315 
vn -0.472441 -0.519685 -0.708661 
vn 0.19685 -0.850394 -0.488189 
vn -0.488189 0.755906 -0.440945 
vn -0.251969 0.748031 -0.614173 
vn -0.889764 0.456693 0.0551181 
vn 0.0472441 0.992126 -0.0944882 
vn -0.251969 0.748031 -0.614173 
vn -0.259843 0.755906 0.598425 
vn 0.165354 0.92126 -0.362205 
vn -0.606299 0.551181 0.566929 
vn -0.606299 0.551181 0.566929 
vn -0.606299 0.551181 0.566929 
vn 0.188976 0.551181 -0.811024 
vn 0.188976 0.551181 -0.811024 
vn 0.188976 0.551181 -0.811024 
vn 0.393701 -0.551181 -0.732283 
vn 0.393701 -0.551181 -0.732283 
vn 0.393701 -0.551181 -0.732283 
vn 0.834646 -0.551181 -0.0314961 
vn 0.834646 -0.551181 -0.0314961 
vn 0.834646 -0.551181 -0.0314961 
vn 0 0 -1 
vn 0 0 -1 
vn 0 0 -1 
vn 0 0 -1 
vn 0 0 -1 
vn 0 0 -1 
vn 0 0 -1 
vn 0 0 -1 
vn -0.874016 0.244094 0.409449 
vn -0.874016 0.244094 0.409449 
vn -0.874016 0.244094 0.409449 
vn 0.606299 0.551181 -0.566929 
vn 0.606299 0.551181 -0.566929 
vn 0.606299 0.551181 -0.566929 
vn -0.0787402 -0.244094 0.968504 
vn -0.0787402 -0.244094 0.968504 
vn -0.0787402 -0.244094 0.968504 
vn 0 -0.874016 -0.488189 
vn 0 -0.874016 -0.488189 
vn 0 -0.811024 -0.582677 
vn 0 -0.811024 -0.582677 
vn 0 -0.740157 -0.677165 
vn 0 -0.740157 -0.677165 
vn 0.393701 0.551181 -0.732283 
vn 0.393701 0.551181 -0.732283 
vn 0.393701 0.551181 -0.732283 
vn 0.0944882 0.125984 0.984252 
vn 0.0944882 0.125984 0.984252 
vn 0.0944882 0.212598 0.968504 
vn 0.0944882 0.212598 0.968504 
vn 0.0944882 0.0393701 0.992126 
vn 0.0944882 0.0393701 0.992126 
vn -0.0866142 0.125984 0.984252 
vn -0.0866142 0.212598 0.976378 
vn -0.0866142 0.125984 0.984252 
vn -0.0866142 0.212598 0.976378 
vn -0.0866142 0.0393701 0.992126 
vn -0.0866142 0.0393701 0.992126 
vn 0.244094 0.551181 0.795276 
vn 0.244094 0.551181 0.795276 
vn 0.244094 0.551181 0.795276 
vn 0.952756 0.0551181 -0.291339 
vn 0.968504 0.0787402 -0.23622 
vn 0.952756 0.0551181 -0.291339 
vn 0.968504 0.0787402 -0.23622 
vn 0.976378 0.110236 -0.181102 
vn 0.976378 0.110236 -0.181102 
vn -0.96063 0.0787402 -0.251969 
vn -0.952756 0.0551181 -0.307087 
vn -0.96063 0.0787402 -0.251969 
vn -0.952756 0.0551181 -0.307087 
vn -0.976378 0.102362 -0.19685 
vn -0.976378 0.102362 -0.19685 
vn -0.0787402 0.244094 0.968504 
vn -0.0787402 0.244094 0.968504 
vn -0.0787402 0.244094 0.968504 
vn -0.0787402 -0.244094 -0.968504 
vn -0.0787402 -0.244094 -0.968504 
vn -0.0787402 -0.244094 -0.968504 
vn 0.551181 0.244094 0.795276 
vn 0.551181 0.244094 0.795276 
vn 0.551181 0.244094 0.795276 
vn -0.622047 0.244094 -0.740157 
vn -0.622047 0.244094 -0.740157 
vn -0.622047 0.244094 -0.740157 
vn 0.984252 0.133858 -0.110236 
vn 0.984252 0.133858 -0.110236 
vn 0.968504 0.228346 -0.110236 
vn 0.968504 0.228346 -0.110236 
vn 0.992126 0.0472441 -0.110236 
vn 0.992126 0.0472441 -0.110236 
vn -0.606299 -0.551181 0.566929 
vn -0.606299 -0.551181 0.566929 
vn -0.606299 -0.551181 0.566929 
vn -0.188976 -0.551181 -0.811024 
vn -0.188976 -0.551181 -0.811024 
vn -0.188976 -0.551181 -0.811024 
vn 0 0.992126 0.0866142 
vn 0 0.992126 0.0866142 
vn 0 0.992126 0.0866142 
vn 0.984252 0.133858 -0.0944882 
vn 0.984252 0.133858 -0.0944882 
vn 0.968504 0.228346 -0.0944882 
vn 0.968504 0.228346 -0.0944882 
vn 0.992126 0.0472441 -0.0944882 
vn 0.992126 0.0472441 -0.0944882 
vn -0.188976 0.551181 0.811024 
vn -0.188976 0.551181 0.811024 
vn -0.188976 0.551181 0.811024 
vn -0.968504 0.228346 -0.0866142 
vn -0.984252 0.133858 -0.0866142 
vn -0.968504 0.228346 -0.0866142 
vn -0.984252 0.133858 -0.0866142 
vn -0.992126 0.0472441 -0.0866142 
vn -0.992126 0.0472441 -0.0866142 
vn 0.015748 0.992126 -0.141732 
vn 0.0314961 0.992126 -0.141732 
vn 0.00787402 1 -0.0551181 
vn 0.00787402 1 -0.0472441 
vn 0.015748 1 -0.0629921 
vn 0.0472441 0.992126 -0.141732 
vn -0.015748 1 0.0314961 
vn -0.00787402 1 0.0314961 
vn 0.00787402 1 0.0393701 
vn -0.968504 0.228346 -0.0866142 
vn -0.984252 0.133858 -0.0866142 
vn -0.968504 0.228346 -0.0866142 
vn -0.984252 0.133858 -0.0866142 
vn -0.992126 0.0472441 -0.0866142 
vn -0.992126 0.0472441 -0.0866142 
vn 0 1 0.0393701 
vn 0 1 0.0393701 
vn 0 1 0.0393701 
vn 0 1 0.0393701 
vn 0.188976 -0.551181 0.811024 
vn 0.188976 -0.551181 0.811024 
vn 0.188976 -0.551181 0.811024 
vn -0.606299 0.551181 0.566929 
vn -0.606299 0.551181 0.566929 
vn -0.606299 0.551181 0.566929 
vn -0.708661 0.551181 -0.440945 
vn -0.708661 0.551181 -0.440945 
vn -0.708661 0.551181 -0.440945 
vn 0.629921 0.244094 0.740157 
vn 0.629921 0.244094 0.740157 
vn 0.629921 0.244094 0.740157 
vn 0.173228 -0.244094 -0.952756 
vn 0.173228 -0.244094 -0.952756 
vn 0.173228 -0.244094 -0.952756 
vn -0.88189 -0.244094 0.409449 
vn -0.88189 -0.244094 0.409449 
vn -0.88189 -0.244094 0.409449 
vn 0.173228 0.244094 -0.952756 
vn 0.173228 0.244094 -0.952756 
vn 0.173228 0.244094 -0.952756 
vn 0.0866142 0.212598 -0.976378 
vn 0.0866142 0.125984 -0.984252 
vn 0.0866142 0.212598 -0.976378 
vn 0.0866142 0.125984 -0.984252 
vn 0.0866142 0.0393701 -0.992126 
vn 0.0866142 0.0393701 -0.992126 
vn -0.110236 0.212598 -0.968504 
vn -0.110236 0.212598 -0.968504 
vn -0.110236 0.125984 -0.984252 
vn -0.110236 0.125984 -0.984252 
vn -0.110236 0.0393701 -0.992126 
vn -0.110236 0.0393701 -0.992126 
vn -0.173228 -0.244094 0.952756 
vn -0.173228 -0.244094 0.952756 
vn -0.173228 -0.244094 0.952756 
vn 1 0 0 
vn 1 0 0 
vn 1 0 0 
vn 1 0 0 
vn 1 0 0 
vn 1 0 0 
vn 1 0 0 
vn 1 0 0 
vn 1 0 0 
vn 1 0 0 
vn 1 0 0 
vn 1 0 0 
vn 1 0 0 
vn 1 0 0 
vn 1 0 0 
vn 1 0 0 
vn 1 0 0 
vn 1 0 0 
vn 1 0 0 
vn 1 0 0 
vn 1 0 0 
vn 1 0 0 
vn 1 0 0 
vn 1 0 0 
vn 1 0 0 
vn 1 0 0 
vn 1 0 0 
vn 1 0 0 
vn 1 0 0 
vn 1 0 0 
vn 1 0 0 
vn 1 0 0 
vn 1 0 0 
vn 1 0 0 
vn 1 0 0 
vn 1 0 0 
vn 1 0 0 
vn 1 0 0 
vn 1 0 0 
vn 1 0 0 
vn 1 0 0 
vn 1 0 0 
vn 1 0 0 
vn 1 0 0 
vn -0.629921 -0.244094 -0.740157 
vn -0.629921 -0.244094 -0.740157 
vn -0.629921 -0.244094 -0.740157 
vn 0.88189 0.244094 -0.409449 
vn 0.88189 0.244094 -0.409449 
vn 0.88189 0.244094 -0.409449 
vn 0.708661 -0.551181 0.440945 
vn 0.708661 -0.551181 0.440945 
vn 0.708661 -0.551181 0.440945 
vn -0.173228 0.244094 0.952756 
vn -0.173228 0.244094 0.952756 
vn -0.173228 0.244094 0.952756 
vn -1 0 0 
vn -1 0 0 
vn -1 0 0 
vn -1 0 0 
vn -1 0 0 
vn -1 0 0 
vn -1 0 0 
vn -1 0 0 
vn -1 0 0 
vn -1 0 0 
vn -1 0 0 
vn -1 0 0 
vn -1 0 0 
vn -1 0 0 
vn -1 0 0 
vn -1 0 0 
vn -1 0 0 
vn -1 0 0 
vn -1 0 0 
vn -1 0 0 
vn -1 0 0 
vn -1 0 0 
vn -1 0 0 
vn -1 0 0 
vn -1 0 0 
vn -1 0 0 
vn -1 0 0 
vn -1 0 0 
vn -1 0 0 
vn -1 0 0 
vn -1 0 0 
vn -1 0 0 
vn -1 0 0 
vn -1 0 0 
vn -1 0 0 
vn -1 0 0 
vn -1 0 0 
vn -1 0 0 
vn -1 0 0 
vn -1 0 0 
vn -1 0 0 
vn -1 0 0 
vn 0.606299 -0.551181 -0.566929 
vn 0.606299 -0.551181 -0.566929 
vn 0.606299 -0.551181 -0.566929 
vn -0.188976 0.551181 -0.811024 
vn -0.188976 0.551181 -0.811024 
vn -0.188976 0.551181 -0.811024 
vn 0.110236 0.125984 0.984252 
vn 0.110236 0.125984 0.984252 
vn 0.110236 0.212598 0.968504 
vn 0.110236 0.212598 0.968504 
vn 0.110236 0.0393701 0.992126 
vn 0.110236 0.0393701 0.992126 
vn -0.0866142 0.125984 0.984252 
vn -0.0866142 0.212598 0.976378 
vn -0.0866142 0.125984 0.984252 
vn -0.0866142 0.212598 0.976378 
vn -0.0866142 0.0393701 0.992126 
vn -0.0866142 0.0393701 0.992126 
vn 0.212598 -0.968504 -0.102362 
vn 0.212598 -0.968504 -0.102362 
vn 0.212598 -0.968504 -0.102362 
vn 0 0.929134 0.370079 
vn 0 0.929134 0.370079 
vn 0 0.929134 0.370079 
vn 0 0.929134 0.370079 
vn 0.188976 -0.551181 -0.811024 
vn 0.188976 -0.551181 -0.811024 
vn 0.188976 -0.551181 -0.811024 
vn -0.212598 -0.968504 -0.102362 
vn -0.212598 -0.968504 -0.102362 
vn -0.212598 -0.968504 -0.102362 
vn 0.188976 0.551181 0.811024 
vn 0.188976 0.551181 0.811024 
vn 0.188976 0.551181 0.811024 
vn 0.606299 0.551181 -0.566929 
vn 0.606299 0.551181 -0.566929 
vn 0.606299 0.551181 -0.566929 
vn 0.622047 -0.244094 0.740157 
vn 0.622047 -0.244094 0.740157 
vn 0.622047 -0.244094 0.740157 
vn 0.984252 0.133858 0.0866142 
vn 0.968504 0.228346 0.0866142 
vn 0.984252 0.133858 0.0866142 
vn 0.968504 0.228346 0.0866142 
vn 0.992126 0.0472441 0.0866142 
vn 0.992126 0.0472441 0.0866142 
vn 0.984252 0.133858 0.0866142 
vn 0.968504 0.228346 0.0866142 
vn 0.984252 0.133858 0.0866142 
vn 0.968504 0.228346 0.0866142 
vn 0.992126 0.0472441 0.0866142 
vn 0.992126 0.0472441 0.0866142 
vn -0.984252 0.133858 0.0944882 
vn -0.968504 0.228346 0.0944882 
vn -0.968504 0.228346 0.0944882 
vn -0.984252 0.133858 0.0944882 
vn -0.992126 0.0472441 0.0944882 
vn -0.992126 0.0472441 0.0944882 
vn -0.984252 0.133858 0.110236 
vn -0.968504 0.228346 0.110236 
vn -0.968504 0.228346 0.110236 
vn -0.984252 0.133858 0.110236 
vn -0.992126 0.0472441 0.110236 
vn -0.992126 0.0472441 0.110236 
vn -0.551181 -0.244094 -0.795276 
vn -0.551181 -0.244094 -0.795276 
vn -0.551181 -0.244094 -0.795276 
vn 0.0787402 0.244094 0.968504 
vn 0.0787402 0.244094 0.968504 
vn 0.0787402 0.244094 0.968504 
vn 0.0787402 -0.244094 -0.968504 
vn 0.0787402 -0.244094 -0.968504 
vn 0.0787402 -0.244094 -0.968504 
vn -0.244094 -0.551181 -0.795276 
vn -0.244094 -0.551181 -0.795276 
vn -0.244094 -0.551181 -0.795276 
vn -0.0944882 -0.968504 -0.23622 
vn -0.0944882 -0.968504 -0.23622 
vn -0.0944882 -0.968504 -0.23622 
vn 0.0944882 -0.968504 -0.23622 
vn 0.0944882 -0.968504 -0.23622 
vn 0.0944882 -0.968504 -0.23622 
vn -0.393701 -0.551181 0.732283 
vn -0.393701 -0.551181 0.732283 
vn -0.393701 -0.551181 0.732283 
vn 0.0787402 0.244094 -0.968504 
vn 0.0787402 0.244094 -0.968504 
vn 0.0787402 0.244094 -0.968504 
vn -0.606299 -0.551181 0.566929 
vn -0.606299 -0.551181 0.566929 
vn -0.606299 -0.551181 0.566929 
vn 0.874016 -0.244094 -0.409449 
vn 0.874016 -0.244094 -0.409449 
vn 0.874016 -0.244094 -0.409449 
vn -0.834646 0.551181 0.0314961 
vn -0.834646 0.551181 0.0314961 
vn -0.834646 0.551181 0.0314961 
vn 0.0866142 0.212598 -0.976378 
vn 0.0866142 0.125984 -0.984252 
vn 0.0866142 0.212598 -0.976378 
vn 0.0866142 0.125984 -0.984252 
vn 0.0866142 0.0393701 -0.992126 
vn 0.0866142 0.0393701 -0.992126 
vn -0.0944882 0.212598 -0.968504 
vn -0.0944882 0.212598 -0.968504 
vn -0.0944882 0.125984 -0.984252 
vn -0.0944882 0.125984 -0.984252 
vn -0.0944882 0.0393701 -0.992126 
vn -0.0944882 0.0393701 -0.992126 
vn -0.393701 0.551181 0.732283 
vn -0.393701 0.551181 0.732283 
vn -0.393701 0.551181 0.732283 
vn -0.188976 -0.551181 0.811024 
vn -0.188976 -0.551181 0.811024 
vn -0.188976 -0.551181 0.811024 
vn 0.606299 -0.551181 -0.566929 
vn 0.606299 -0.551181 -0.566929 
vn 0.606299 -0.551181 -0.566929 
vn -0.708661 -0.551181 -0.440945 
vn -0.708661 -0.551181 -0.440945 
vn -0.708661 -0.551181 -0.440945 
vn 0.88189 -0.244094 -0.409449 
vn 0.88189 -0.244094 -0.409449 
vn 0.88189 -0.244094 -0.409449 
vn -0.551181 0.244094 -0.795276 
vn -0.551181 0.244094 -0.795276 
vn -0.551181 0.244094 -0.795276 
vn 0.480315 0 -0.874016 
vn 0.480315 0 -0.874016 
vn 0.480315 0 -0.874016 
vn 0.480315 0 -0.874016 
vn 0.480315 0 -0.874016 
vn 0.480315 0 -0.874016 
vn 0.480315 0 -0.874016 
vn 0.480315 0 -0.874016 
vn 0.480315 0 -0.874016 
vn 0.480315 0 -0.874016 
vn 0.480315 0 -0.874016 
vn 0.480315 0 -0.874016 
vn 0.480315 0 -0.874016 
vn 0.480315 0 -0.874016 
vn 0.480315 0 -0.874016 
vn 0.480315 0 -0.874016 
vn 0.480315 0 -0.874016 
vn 0.480315 0 -0.874016 
vn 0.480315 0 -0.874016 
vn 0.480315 0 -0.874016 
vn 0.480315 0 -0.874016 
vn 0.480315 0 -0.874016 
vn 0.874016 0.244094 -0.409449 
vn 0.874016 0.244094 -0.409449 
vn 0.874016 0.244094 -0.409449 
vn -0.480315 0 -0.874016 
vn -0.480315 0 -0.874016 
vn -0.480315 0 -0.874016 
vn -0.480315 0 -0.874016 
vn -0.480315 0 -0.874016 
vn -0.480315 0 -0.874016 
vn -0.480315 0 -0.874016 
vn -0.480315 0 -0.874016 
vn -0.480315 0 -0.874016 
vn -0.480315 0 -0.874016 
vn -0.480315 0 -0.874016 
vn -0.480315 0 -0.874016 
vn -0.480315 0 -0.874016 
vn -0.480315 0 -0.874016 
vn -0.480315 0 -0.874016 
vn -0.480315 0 -0.874016 
vn -0.480315 0 -0.874016 
vn -0.480315 0 -0.874016 
vn -0.480315 0 -0.874016 
vn -0.480315 0 -0.874016 
vn -0.480315 0 -0.874016 
vn -0.480315 0 -0.874016 
vn 0.606299 -0.551181 0.566929 
vn 0.606299 -0.551181 0.566929 
vn 0.606299 -0.551181 0.566929 
vn -0.188976 0.551181 0.811024 
vn -0.188976 0.551181 0.811024 
vn -0.188976 0.551181 0.811024 
vn 0.0787402 -0.244094 0.968504 
vn 0.0787402 -0.244094 0.968504 
vn 0.0787402 -0.244094 0.968504 
vn -0.188976 -0.551181 0.811024 
vn -0.188976 -0.551181 0.811024 
vn -0.188976 -0.551181 0.811024 
vn 0.244094 -0.551181 -0.795276 
vn 0.244094 -0.551181 -0.795276 
vn 0.244094 -0.551181 -0.795276 
vn 0.606299 0.551181 0.566929 
vn 0.606299 0.551181 0.566929 
vn 0.606299 0.551181 0.566929 
vn -0.897638 -0.362205 0.23622 
vn -0.653543 -0.724409 -0.228346 
vn -0.015748 -0.826772 0.566929 
vn -0.015748 -0.850394 -0.527559 
vn -0.716535 -0.425197 -0.551181 
vn -0.00787402 -0.606299 -0.795276 
vn -1 0 0.00787402 
vn -0.622047 -0.0629921 -0.779528 
vn 0 -0.322835 -0.944882 
vn -0.535433 0.110236 -0.84252 
vn 0 -0.0629921 -1 
vn -0.874016 0.354331 -0.322835 
vn -0.795276 0.440945 -0.417323 
vn -0.472441 0.818898 -0.314961 
vn -0.622047 0.779528 -0.0708661 
vn -0.677165 -0.188976 0.716535 
vn -0.795276 0.370079 0.480315 
vn 0.00787402 1 0.0866142 
vn -0.472441 0.818898 -0.314961 
vn 0.00787402 0.976378 -0.220472 
vn 0.503937 0.811024 -0.299213 
vn 0 0.622047 0.787402 
vn -0.00787402 -0.0629921 1 
vn 0.795276 0.385827 0.464567 
vn 0.629921 0.771654 -0.0787402 
vn 0.874016 0.354331 -0.330709 
vn 0.811024 0.417323 -0.409449 
vn 1 0.023622 -0.0314961 
vn 0.669291 -0.19685 0.716535 
vn 0.897638 -0.370079 0.23622 
vn 0.637795 -0.732283 -0.23622 
vn -0.015748 -0.850394 -0.527559 
vn 0.700787 -0.409449 -0.582677 
vn -0.00787402 -0.606299 -0.795276 
vn 0.614173 -0.0629921 -0.787402 
vn 0 -0.322835 -0.944882 
vn 0.535433 0.102362 -0.834646 
vn 0 -0.0629921 -1 
vn 0 0.76378 -0.645669 
vn 0 -0.0629921 -1 
vn 0.850394 0.385827 -0.362205 
vn 0.661417 0.677165 0.314961 
vn 0 0.787402 0.614173 
vn -0.661417 0.677165 0.322835 
vn -0.84252 0.401575 -0.362205 
vn 0 -0.0629921 -1 
vn -0.913386 0.244094 0.330709 
vn -0.913386 0.244094 0.330709 
vn -0.913386 0.244094 0.330709 
vn 0.0787402 -0.244094 0.968504 
vn 0.0787402 -0.244094 0.968504 
vn 0.0787402 -0.244094 0.968504 
vn 0.0787402 0.244094 0.968504 
vn 0.0787402 0.244094 0.968504 
vn 0.0787402 0.244094 0.968504 
vn -0.834646 -0.551181 0.0314961 
vn -0.834646 -0.551181 0.0314961 
vn -0.834646 -0.551181 0.0314961 
vn -0.732283 -0.551181 0.393701 
vn -0.732283 -0.551181 0.393701 
vn -0.732283 -0.551181 0.393701 
vn -0.188976 0.551181 -0.811024 
vn -0.188976 0.551181 -0.811024 
vn -0.188976 0.551181 -0.811024 
vn 0.0787402 0.244094 -0.968504 
vn 0.0787402 0.244094 -0.968504 
vn 0.0787402 0.244094 -0.968504 
vn -0.244094 0.551181 -0.795276 
vn -0.244094 0.551181 -0.795276 
vn -0.244094 0.551181 -0.795276 
vn 0.874016 -0.244094 0.409449 
vn 0.874016 -0.244094 0.409449 
vn 0.874016 -0.244094 0.409449 
vn -0.732283 0.551181 0.393701 
vn -0.732283 0.551181 0.393701 
vn -0.732283 0.551181 0.393701 
vn -0.606299 0.551181 -0.566929 
vn -0.606299 0.551181 -0.566929 
vn -0.606299 0.551181 -0.566929 
vn 0.0787402 -0.244094 -0.968504 
vn 0.0787402 -0.244094 -0.968504 
vn 0.0787402 -0.244094 -0.968504 
vn -0.913386 -0.244094 0.330709 
vn -0.913386 -0.244094 0.330709 
vn -0.913386 -0.244094 0.330709 
vn -0.88189 0.244094 -0.409449 
vn -0.88189 0.244094 -0.409449 
vn -0.88189 0.244094 -0.409449 
vn 0.88189 0.244094 0.409449 
vn 0.88189 0.244094 0.409449 
vn 0.88189 0.244094 0.409449 
vn -0.188976 -0.551181 -0.811024 
vn -0.188976 -0.551181 -0.811024 
vn -0.188976 -0.551181 -0.811024 
vn 0.551181 -0.244094 -0.795276 
vn 0.551181 -0.244094 -0.795276 
vn 0.551181 -0.244094 -0.795276 
vn -0.88189 -0.244094 -0.409449 
vn -0.88189 -0.244094 -0.409449 
vn -0.88189 -0.244094 -0.409449 
vn -0.606299 -0.551181 -0.566929 
vn -0.606299 -0.551181 -0.566929 
vn -0.606299 -0.551181 -0.566929 
vn -0.952756 -0.244094 0.173228 
vn -0.952756 -0.244094 0.173228 
vn -0.952756 -0.244094 0.173228 
vn -0.952756 0.244094 0.173228 
vn -0.952756 0.244094 0.173228 
vn -0.952756 0.244094 0.173228 
vn 0.244094 0.551181 -0.795276 
vn 0.244094 0.551181 -0.795276 
vn 0.244094 0.551181 -0.795276 
vn 0.551181 0.244094 -0.795276 
vn 0.551181 0.244094 -0.795276 
vn 0.551181 0.244094 -0.795276 

vt 0.862974 0.973313 
vt 0.863042 0.961122 
vt 0.883078 0.953485 
vt 0.863042 0.961122 
vt 0.862974 0.973313 
vt 0.843094 0.953158 
vt 0.862974 0.973313 
vt 0.863042 0.961122 
vt 0.883078 0.953485 
vt 0.842871 0.993142 
vt 0.850783 0.973214 
vt 0.862974 0.973313 
vt 0.862974 0.973313 
vt 0.843094 0.953158 
vt 0.850783 0.973214 
vt 0.862974 0.973313 
vt 0.850783 0.973214 
vt 0.842871 0.993142 
vt 0.842871 0.993142 
vt 0.850783 0.973214 
vt 0.862974 0.973313 
vt 0.882854 0.993469 
vt 0.862974 0.973313 
vt 0.862906 0.985505 
vt 0.883077 0.953485 
vt 0.863042 0.961122 
vt 0.862974 0.973313 
vt 0.883078 0.953485 
vt 0.863042 0.961122 
vt 0.862974 0.973313 
vt 0.862906 0.985505 
vt 0.842871 0.993142 
vt 0.862974 0.973313 
vt 0.862906 0.985505 
vt 0.862974 0.973313 
vt 0.842871 0.993142 
vt 0.901369 0.916183 
vt 0.813021 0.84004 
vt 0.893507 0.833102 
vt 0.821116 0.925618 
vt 0.893507 0.833102 
vt 0.821116 0.925618 
vt 0.901369 0.916183 
vt 0.813044 0.840236 
vt 0.813021 0.84004 
vt 0.901369 0.916183 
vt 0.821116 0.925618 
vt 0.893507 0.833102 
vt 0.821116 0.925618 
vt 0.893507 0.833102 
vt 0.813021 0.84004 
vt 0.901369 0.916183 
vt 0.862974 0.973313 
vt 0.863042 0.961122 
vt 0.843094 0.953158 
vt 0.863042 0.961122 
vt 0.862974 0.973313 
vt 0.843094 0.953158 
vt 0.862974 0.973313 
vt 0.850783 0.973214 
vt 0.842871 0.993142 
vt 0.875165 0.973413 
vt 0.883077 0.953485 
vt 0.862974 0.973313 
vt 0.862974 0.973313 
vt 0.875165 0.973413 
vt 0.882854 0.993469 
vt 0.875165 0.973413 
vt 0.862974 0.973313 
vt 0.882854 0.993469 
vt 0.843094 0.953158 
vt 0.862974 0.973313 
vt 0.850783 0.973214 
vt 0.862974 0.973313 
vt 0.882854 0.993469 
vt 0.862906 0.985505 
vt 0.833334 0.958779 
vt 0.825217 0.962382 
vt 0.825201 0.955136 
vt 0.883078 0.953485 
vt 0.863042 0.961122 
vt 0.862974 0.973313 
vt 0.741755 0.70157 
vt 0.759551 0.719984 
vt 0.713111 0.754947 
vt 0.812576 0.67627 
vt 0.788136 0.626146 
vt 0.770457 0.743082 
vt 0.836588 0.720641 
vt 0.775306 0.768879 
vt 0.865244 0.766686 
vt 0.77197 0.796606 
vt 0.885067 0.815796 
vt 0.717684 0.689771 
vt 0.689742 0.686877 
vt 0.753579 0.584834 
vt 0.708062 0.574247 
vt 0.862974 0.973313 
vt 0.850783 0.973214 
vt 0.842871 0.993142 
vt 0.395953 0.0628534 
vt 0.388886 0.118568 
vt 0.370657 0.0629177 
vt 0.370783 0.119162 
vt 0.370589 0.00667936 
vt 0.406091 0.118032 
vt 0.402893 0.00719035 
vt 0.42014 0.0627785 
vt 0.451936 0.118328 
vt 0.433729 0.00759834 
vt 0.456305 0.0626745 
vt 0.484143 0.118597 
vt 0.46137 0.00703001 
vt 0.483213 0.0625979 
vt 0.484098 0.00664765 
vt 0.875165 0.973413 
vt 0.862974 0.973313 
vt 0.883078 0.953485 
vt 0.862974 0.973313 
vt 0.863042 0.961122 
vt 0.843094 0.953158 
vt 0.014233 0.677588 
vt 0.179778 0.673126 
vt 0.006941 0.829242 
vt 0.17801 0.988948 
vt 0.012408 0.986674 
vt 0.347865 0.831212 
vt 0.34442 0.979749 
vt 0.346049 0.680053 
vt 0.843094 0.953158 
vt 0.862974 0.973313 
vt 0.850783 0.973214 
vt 0.862974 0.973313 
vt 0.882854 0.993469 
vt 0.862906 0.985505 
vt 0.898803 0.444529 
vt 0.889523 0.451694 
vt 0.881779 0.446462 
vt 0.862906 0.985505 
vt 0.842871 0.993142 
vt 0.862974 0.973313 
vt 0.898803 0.444529 
vt 0.912346 0.455233 
vt 0.902984 0.455612 
vt 0.399182 0.672452 
vt 0.347865 0.831212 
vt 0.346049 0.680053 
vt 0.450833 0.822082 
vt 0.449993 0.670323 
vt 0.585023 0.677583 
vt 0.449837 0.967866 
vt 0.34442 0.979749 
vt 0.677959 0.835995 
vt 0.677831 0.696274 
vt 0.677702 0.975151 
vt 0.862974 0.973313 
vt 0.863042 0.961122 
vt 0.843094 0.953158 
vt 0.355903 0.171636 
vt 0.254673 0.012641 
vt 0.351848 0.017046 
vt 0.165985 0.169129 
vt 0.162319 0.013066 
vt 0.080291 0.022033 
vt 0.169237 0.320271 
vt 0.362213 0.330025 
vt 0.018462 0.183941 
vt 0.014968 0.042101 
vt 0.017859 0.323063 
vt 0.862974 0.973313 
vt 0.843094 0.953158 
vt 0.850783 0.973214 
vt 0.862974 0.973313 
vt 0.863042 0.961122 
vt 0.883078 0.953485 
vt 0.875165 0.973413 
vt 0.862974 0.973313 
vt 0.883078 0.953485 
vt 0.842871 0.993142 
vt 0.850783 0.973214 
vt 0.862974 0.973313 
vt 0.843094 0.953158 
vt 0.862974 0.973313 
vt 0.850783 0.973214 
vt 0.891081 0.428848 
vt 0.903844 0.409183 
vt 0.920887 0.434211 
vt 0.958712 0.422149 
vt 0.98992 0.39116 
vt 0.765882 0.359735 
vt 0.854223 0.423914 
vt 0.991786 0.307878 
vt 0.814302 0.424781 
vt 0.930423 0.244304 
vt 0.778762 0.413422 
vt 0.890559 0.216418 
vt 0.75395 0.394676 
vt 0.741454 0.376205 
vt 0.859112 0.205738 
vt 0.832146 0.204547 
vt 0.789656 0.21533 
vt 0.736761 0.245246 
vt 0.721103 0.341716 
vt 0.691769 0.315239 
vt 0.677309 0.279708 
vt 0.676846 0.248011 
vt 0.891081 0.428848 
vt 0.920887 0.434211 
vt 0.903844 0.409183 
vt 0.958712 0.422149 
vt 0.98992 0.39116 
vt 0.765882 0.359735 
vt 0.854223 0.423915 
vt 0.991786 0.307878 
vt 0.814302 0.424781 
vt 0.930423 0.244303 
vt 0.778763 0.413422 
vt 0.890559 0.216418 
vt 0.75395 0.394676 
vt 0.741454 0.376205 
vt 0.859111 0.205738 
vt 0.832146 0.204547 
vt 0.789656 0.215331 
vt 0.736761 0.245246 
vt 0.721103 0.341716 
vt 0.691769 0.315239 
vt 0.677309 0.279708 
vt 0.676846 0.24801 
vt 0.450743 0.495996 
vt 0.43114 0.367307 
vt 0.405514 0.528466 
vt 0.486994 0.543377 
vt 0.478152 0.470597 
vt 0.504997 0.438761 
vt 0.538006 0.407246 
vt 0.561406 0.378161 
vt 0.59006 0.331431 
vt 0.581795 0.446158 
vt 0.650184 0.37076 
vt 0.592199 0.288004 
vt 0.684765 0.323682 
vt 0.729239 0.40071 
vt 0.611123 0.411246 
vt 0.691336 0.417943 
vt 0.656568 0.466832 
vt 0.632639 0.496574 
vt 0.658025 0.535969 
vt 0.684493 0.507812 
vt 0.710449 0.485203 
vt 0.731797 0.482148 
vt 0.729239 0.40071 
vt 0.679194 0.598937 
vt 0.684493 0.507812 
vt 0.658025 0.535969 
vt 0.639518 0.562791 
vt 0.615667 0.581969 
vt 0.589321 0.610386 
vt 0.568161 0.637976 
vt 0.566109 0.659528 
vt 0.484666 0.662791 
vt 0.500459 0.621997 
vt 0.545294 0.584721 
vt 0.589321 0.610386 
vt 0.405575 0.623976 
vt 0.484666 0.662791 
vt 0.57289 0.559484 
vt 0.615667 0.581969 
vt 0.449668 0.585735 
vt 0.363543 0.53401 
vt 0.520312 0.51201 
vt 0.605051 0.529918 
vt 0.615667 0.581969 
vt 0.549736 0.479761 
vt 0.639518 0.562791 
vt 0.450743 0.495996 
vt 0.405514 0.528466 
vt 0.43114 0.367307 
vt 0.486994 0.543377 
vt 0.478152 0.470597 
vt 0.504997 0.438761 
vt 0.538006 0.407246 
vt 0.561406 0.378161 
vt 0.59006 0.331431 
vt 0.581795 0.446158 
vt 0.650184 0.37076 
vt 0.592199 0.288004 
vt 0.684765 0.323682 
vt 0.729239 0.40071 
vt 0.611123 0.411246 
vt 0.691336 0.417943 
vt 0.656568 0.466832 
vt 0.632639 0.496574 
vt 0.684493 0.507812 
vt 0.658025 0.535969 
vt 0.710449 0.485203 
vt 0.731797 0.482148 
vt 0.729239 0.40071 
vt 0.679194 0.598937 
vt 0.684493 0.507812 
vt 0.658025 0.535969 
vt 0.639518 0.562791 
vt 0.615667 0.581969 
vt 0.589321 0.610386 
vt 0.568161 0.637976 
vt 0.566109 0.659528 
vt 0.484666 0.662791 
vt 0.500459 0.621997 
vt 0.545294 0.584721 
vt 0.589321 0.610386 
vt 0.405575 0.623976 
vt 0.484666 0.662791 
vt 0.449668 0.585735 
vt 0.363543 0.53401 
vt 0.57289 0.559484 
vt 0.615667 0.581969 
vt 0.520312 0.51201 
vt 0.605051 0.529918 
vt 0.615667 0.581969 
vt 0.549736 0.479761 
vt 0.639518 0.562791 
vt 0.882854 0.993469 
vt 0.862974 0.973313 
vt 0.862906 0.985505 
vt 0.862974 0.973313 
vt 0.843094 0.953158 
vt 0.850783 0.973214 
vt 0.862974 0.973313 
vt 0.875165 0.973413 
vt 0.882854 0.993469 
vt 0.862974 0.973313 
vt 0.875165 0.973413 
vt 0.882854 0.993469 
vt 0.833884 0.099798 
vt 0.914977 0.00832522 
vt 0.992335 0.0997048 
vt 0.994232 0.00526845 
vt 0.835369 0.00586253 
vt 0.915027 0.191178 
vt 0.835447 0.193814 
vt 0.994151 0.194111 
vt 0.862906 0.985505 
vt 0.862974 0.973313 
vt 0.842871 0.993142 
vt 0.843094 0.953158 
vt 0.862974 0.973313 
vt 0.850783 0.973214 
vt 0.862974 0.973313 
vt 0.863042 0.961122 
vt 0.883078 0.953485 
vt 0.700608 0.993708 
vt 0.700444 0.922733 
vt 0.7762 0.933189 
vt 0.776334 0.984086 
vt 0.825201 0.955136 
vt 0.825217 0.962382 
vt 0.862974 0.973313 
vt 0.882854 0.993469 
vt 0.862906 0.985505 
vt 0.923212 0.834514 
vt 0.930436 0.908734 
vt 0.901369 0.916183 
vt 0.893507 0.833102 
vt 0.955391 0.834961 
vt 0.962322 0.902212 
vt 0.923212 0.834514 
vt 0.901369 0.916183 
vt 0.930436 0.908734 
vt 0.893507 0.833102 
vt 0.955391 0.834961 
vt 0.962322 0.902212 
vt 0.862974 0.973313 
vt 0.882854 0.993469 
vt 0.862906 0.985505 
vt 0.71825 0.558673 
vt 0.779262 0.458102 
vt 0.807353 0.570406 
vt 0.838729 0.490911 
vt 0.889523 0.451694 
vt 0.881779 0.446462 
vt 0.993945 0.519728 
vt 0.909754 0.601343 
vt 0.925881 0.516308 
vt 0.992079 0.63873 
vt 0.902984 0.455612 
vt 0.912346 0.455233 
vt 0.842871 0.993142 
vt 0.850783 0.973214 
vt 0.862974 0.973313 
vt 0.875165 0.973413 
vt 0.862974 0.973313 
vt 0.883078 0.953485 
vt 0.862906 0.985505 
vt 0.842871 0.993142 
vt 0.862974 0.973313 
vt 0.862906 0.985505 
vt 0.862974 0.973313 
vt 0.842871 0.993142 
vt 0.923212 0.834514 
vt 0.933036 0.765791 
vt 0.904609 0.757308 
vt 0.893507 0.833102 
vt 0.955391 0.834961 
vt 0.964389 0.773823 
vt 0.863042 0.961122 
vt 0.862974 0.973313 
vt 0.843094 0.953158 
vt 0.875165 0.973413 
vt 0.862974 0.973313 
vt 0.882854 0.993469 
vt 0.902984 0.455612 
vt 0.889523 0.451694 
vt 0.898803 0.444529 
vt 0.933036 0.765791 
vt 0.923212 0.834514 
vt 0.893507 0.833102 
vt 0.904609 0.757308 
vt 0.964389 0.773823 
vt 0.955391 0.834961 
vt 0.862974 0.973313 
vt 0.843094 0.953158 
vt 0.850783 0.973214 
vt 0.904609 0.757308 
vt 0.923212 0.834514 
vt 0.893507 0.833102 
vt 0.933036 0.765791 
vt 0.955391 0.834961 
vt 0.964389 0.773823 
vt 0.362213 0.330025 
vt 0.356964 0.496741 
vt 0.205935 0.491441 
vt 0.169237 0.320271 
vt 0.245218 0.659681 
vt 0.352497 0.665405 
vt 0.013892 0.658002 
vt 0.017666 0.48936 
vt 0.017859 0.323063 
vt 0.893507 0.833102 
vt 0.933036 0.765791 
vt 0.904609 0.757308 
vt 0.923212 0.834514 
vt 0.964389 0.773823 
vt 0.955391 0.834961 
vt 0.807353 0.570406 
vt 0.925881 0.516308 
vt 0.909754 0.601343 
vt 0.838729 0.490911 
vt 0.863042 0.961122 
vt 0.862974 0.973313 
vt 0.843094 0.953158 
vt 0.843094 0.953158 
vt 0.862974 0.973313 
vt 0.850783 0.973214 
vt 0.882854 0.993469 
vt 0.862974 0.973313 
vt 0.862906 0.985505 
vt 0.842871 0.993142 
vt 0.850783 0.973214 
vt 0.862974 0.973313 
vt 0.875165 0.973413 
vt 0.862974 0.973313 
vt 0.883078 0.953485 
vt 0.875165 0.973413 
vt 0.883078 0.953485 
vt 0.862974 0.973313 
vt 0.862906 0.985505 
vt 0.842871 0.993142 
vt 0.862974 0.973313 
vt 0.893507 0.833102 
vt 0.930436 0.908734 
vt 0.901369 0.916183 
vt 0.923212 0.834514 
vt 0.962322 0.902212 
vt 0.955391 0.834961 
vt 0.893507 0.833102 
vt 0.901369 0.916183 
vt 0.930436 0.908734 
vt 0.923212 0.834514 
vt 0.962322 0.902212 
vt 0.955391 0.834961 
vt 0.883078 0.953485 
vt 0.863042 0.961122 
vt 0.862974 0.973313 
vt 0.57175 0.0894284 
vt 0.7624 0.0807126 
vt 0.764878 0.184592 
vt 0.72929 0.0190971 
vt 0.644623 0.0108732 
vt 0.72929 0.0190971 
vt 0.57175 0.0894284 
vt 0.597649 0.0394077 
vt 0.644623 0.0108732 
vt 0.57175 0.0894284 
vt 0.55396 0.0237244 
vt 0.597649 0.0394077 
vt 0.557873 0.0580828 
vt 0.57175 0.0894284 
vt 0.57175 0.0894284 
vt 0.764878 0.184592 
vt 0.562518 0.274672 
vt 0.562518 0.274672 
vt 0.50331 0.11432 
vt 0.57175 0.0894284 
vt 0.504695 0.308652 
vt 0.50331 0.11432 
vt 0.467657 0.195408 
vt 0.477542 0.153687 
vt 0.504695 0.308652 
vt 0.438005 0.157682 
vt 0.477542 0.153687 
vt 0.451162 0.181255 
vt 0.467657 0.195408 
vt 0.467657 0.195408 
vt 0.504695 0.308652 
vt 0.46912 0.313868 
vt 0.46912 0.313868 
vt 0.422789 0.219264 
vt 0.467657 0.195408 
vt 0.436996 0.308195 
vt 0.422789 0.219264 
vt 0.436996 0.308195 
vt 0.406235 0.254688 
vt 0.410624 0.294509 
vt 0.374182 0.262639 
vt 0.406235 0.254688 
vt 0.389599 0.280088 
vt 0.410624 0.294509 
vt 0.875165 0.973413 
vt 0.883078 0.953485 
vt 0.862974 0.973313 
vt 0.842871 0.993142 
vt 0.850783 0.973214 
vt 0.862974 0.973313 
vt 0.863042 0.961122 
vt 0.862974 0.973313 
vt 0.843094 0.953158 
vt 0.862974 0.973313 
vt 0.850783 0.973214 
vt 0.842871 0.993142 
vt 0.57175 0.0894284 
vt 0.7624 0.0807126 
vt 0.72929 0.0190971 
vt 0.764878 0.184592 
vt 0.644623 0.0108732 
vt 0.57175 0.0894284 
vt 0.72929 0.0190971 
vt 0.597649 0.0394077 
vt 0.57175 0.0894284 
vt 0.644623 0.0108732 
vt 0.55396 0.0237244 
vt 0.557873 0.0580828 
vt 0.597649 0.0394077 
vt 0.57175 0.0894284 
vt 0.57175 0.0894284 
vt 0.562518 0.274672 
vt 0.764878 0.184592 
vt 0.562518 0.274672 
vt 0.57175 0.0894284 
vt 0.50331 0.11432 
vt 0.504695 0.308652 
vt 0.467657 0.195408 
vt 0.50331 0.11432 
vt 0.477542 0.153687 
vt 0.504695 0.308652 
vt 0.438005 0.157682 
vt 0.451162 0.181255 
vt 0.477542 0.153687 
vt 0.467657 0.195408 
vt 0.467657 0.195408 
vt 0.46912 0.313868 
vt 0.504695 0.308652 
vt 0.46912 0.313868 
vt 0.467657 0.195408 
vt 0.422789 0.219264 
vt 0.436996 0.308195 
vt 0.436996 0.308195 
vt 0.422789 0.219264 
vt 0.406235 0.254688 
vt 0.410624 0.294509 
vt 0.389599 0.280088 
vt 0.374182 0.262639 
vt 0.875165 0.973413 
vt 0.862974 0.973313 
vt 0.882854 0.993469 
vt 0.882854 0.993469 
vt 0.862974 0.973313 
vt 0.862906 0.985505 
vt 0.933036 0.765791 
vt 0.962256 0.697477 
vt 0.937923 0.679496 
vt 0.904609 0.757308 
vt 0.964389 0.773823 
vt 0.991562 0.710431 
vt 0.933036 0.765791 
vt 0.937923 0.679496 
vt 0.962256 0.697477 
vt 0.904609 0.757308 
vt 0.964389 0.773823 
vt 0.991562 0.710431 
vt 0.592199 0.288004 
vt 0.59006 0.331431 
vt 0.43114 0.367307 
vt 0.838729 0.490911 
vt 0.902984 0.455612 
vt 0.925881 0.516308 
vt 0.889523 0.451694 
vt 0.862974 0.973313 
vt 0.875165 0.973413 
vt 0.882854 0.993469 
vt 0.592199 0.288004 
vt 0.43114 0.367307 
vt 0.59006 0.331431 
vt 0.843094 0.953158 
vt 0.862974 0.973313 
vt 0.850783 0.973214 
vt 0.882854 0.993469 
vt 0.862974 0.973313 
vt 0.862906 0.985505 
vt 0.862974 0.973313 
vt 0.863042 0.961122 
vt 0.883078 0.953485 
vt 0.930436 0.908734 
vt 0.928145 0.990732 
vt 0.953234 0.974424 
vt 0.901369 0.916183 
vt 0.962322 0.902212 
vt 0.983516 0.963033 
vt 0.953234 0.974424 
vt 0.901369 0.916183 
vt 0.930436 0.908734 
vt 0.928145 0.990732 
vt 0.983516 0.963033 
vt 0.962322 0.902212 
vt 0.930436 0.908734 
vt 0.928145 0.990732 
vt 0.901369 0.916183 
vt 0.953234 0.974424 
vt 0.962322 0.902212 
vt 0.983516 0.963033 
vt 0.953234 0.974424 
vt 0.901369 0.916183 
vt 0.928145 0.990732 
vt 0.930436 0.908734 
vt 0.983516 0.963033 
vt 0.962322 0.902212 
vt 0.883078 0.953485 
vt 0.863042 0.961122 
vt 0.862974 0.973313 
vt 0.862974 0.973313 
vt 0.850783 0.973214 
vt 0.842871 0.993142 
vt 0.875165 0.973413 
vt 0.883078 0.953485 
vt 0.862974 0.973313 
vt 0.862974 0.973313 
vt 0.863042 0.961122 
vt 0.843094 0.953158 
vt 0.405514 0.528466 
vt 0.363543 0.53401 
vt 0.43114 0.367307 
vt 0.405514 0.528466 
vt 0.43114 0.367307 
vt 0.363543 0.53401 
vt 0.862974 0.973313 
vt 0.863042 0.961122 
vt 0.843094 0.953158 
vt 0.862906 0.985505 
vt 0.862974 0.973313 
vt 0.842871 0.993142 
vt 0.875165 0.973413 
vt 0.862974 0.973313 
vt 0.882854 0.993469 
vt 0.862974 0.973313 
vt 0.863042 0.961122 
vt 0.883078 0.953485 
vt 0.862974 0.973313 
vt 0.843094 0.953158 
vt 0.850783 0.973214 
vt 0.904609 0.757308 
vt 0.962256 0.697477 
vt 0.937923 0.679496 
vt 0.933036 0.765791 
vt 0.991562 0.710431 
vt 0.964389 0.773823 
vt 0.904609 0.757308 
vt 0.937923 0.679496 
vt 0.962256 0.697477 
vt 0.933036 0.765791 
vt 0.991562 0.710431 
vt 0.964389 0.773823 
vt 0.862974 0.973313 
vt 0.843094 0.953158 
vt 0.850783 0.973214 
vt 0.862974 0.973313 
vt 0.875165 0.973413 
vt 0.882854 0.993469 
vt 0.863042 0.961122 
vt 0.862974 0.973313 
vt 0.843094 0.953158 
vt 0.875165 0.973413 
vt 0.862974 0.973313 
vt 0.882854 0.993469 
vt 0.875165 0.973413 
vt 0.883078 0.953485 
vt 0.862974 0.973313 
vt 0.862974 0.973313 
vt 0.850783 0.973214 
vt 0.842871 0.993142 
vt 0.891081 0.428848 
vt 0.903844 0.409183 
vt 0.920887 0.434211 
vt 0.958712 0.422149 
vt 0.98992 0.39116 
vt 0.765882 0.359735 
vt 0.854223 0.423915 
vt 0.991786 0.307878 
vt 0.814302 0.424781 
vt 0.930423 0.244303 
vt 0.778763 0.413422 
vt 0.890559 0.216418 
vt 0.75395 0.394676 
vt 0.741454 0.376205 
vt 0.859111 0.205738 
vt 0.832146 0.204547 
vt 0.789656 0.215331 
vt 0.736761 0.245246 
vt 0.721103 0.341716 
vt 0.691769 0.315239 
vt 0.677309 0.279708 
vt 0.676846 0.24801 
vt 0.862906 0.985505 
vt 0.862974 0.973313 
vt 0.842871 0.993142 
vt 0.891081 0.428848 
vt 0.920887 0.434211 
vt 0.903844 0.409183 
vt 0.958712 0.422149 
vt 0.98992 0.39116 
vt 0.765882 0.359735 
vt 0.854223 0.423914 
vt 0.991786 0.307878 
vt 0.814302 0.424781 
vt 0.930423 0.244304 
vt 0.778762 0.413422 
vt 0.890559 0.216418 
vt 0.75395 0.394676 
vt 0.741454 0.376205 
vt 0.859112 0.205738 
vt 0.832146 0.204547 
vt 0.789656 0.21533 
vt 0.736761 0.245246 
vt 0.721103 0.341716 
vt 0.691769 0.315239 
vt 0.677309 0.279708 
vt 0.676846 0.248011 
vt 0.862974 0.973313 
vt 0.875165 0.973413 
vt 0.882854 0.993469 
vt 0.862974 0.973313 
vt 0.882854 0.993469 
vt 0.862906 0.985505 
vt 0.883078 0.953485 
vt 0.863042 0.961122 
vt 0.862974 0.973313 
vt 0.862974 0.973313 
vt 0.863042 0.961122 
vt 0.843094 0.953158 
vt 0.875165 0.973413 
vt 0.862974 0.973313 
vt 0.882854 0.993469 
vt 0.862974 0.973313 
vt 0.882854 0.993469 
vt 0.862906 0.985505 
vt 0.450743 0.495996 
vt 0.405514 0.528466 
vt 0.43114 0.367307 
vt 0.363543 0.53401 
vt 0.449668 0.585735 
vt 0.405575 0.623976 
vt 0.486994 0.543377 
vt 0.500459 0.621997 
vt 0.484666 0.662791 
vt 0.568161 0.637976 
vt 0.566109 0.659528 
vt 0.545294 0.584721 
vt 0.589321 0.610386 
vt 0.615667 0.581969 
vt 0.57289 0.559484 
vt 0.478152 0.470597 
vt 0.520312 0.51201 
vt 0.605051 0.529918 
vt 0.615667 0.581969 
vt 0.639518 0.562791 
vt 0.658025 0.535969 
vt 0.549736 0.479761 
vt 0.504997 0.438761 
vt 0.581795 0.446158 
vt 0.632639 0.496574 
vt 0.656568 0.466832 
vt 0.684493 0.507812 
vt 0.611123 0.411246 
vt 0.538006 0.407246 
vt 0.561406 0.378161 
vt 0.59006 0.331431 
vt 0.592199 0.288004 
vt 0.650184 0.37076 
vt 0.684765 0.323682 
vt 0.691336 0.417943 
vt 0.729239 0.40071 
vt 0.710449 0.485203 
vt 0.731797 0.482148 
vt 0.679194 0.598937 
vt 0.731797 0.482148 
vt 0.684493 0.507812 
vt 0.658025 0.535969 
vt 0.639518 0.562791 
vt 0.615667 0.581969 
vt 0.589321 0.610386 
vt 0.566109 0.659528 
vt 0.862974 0.973313 
vt 0.850783 0.973214 
vt 0.842871 0.993142 
vt 0.875165 0.973413 
vt 0.862974 0.973313 
vt 0.883078 0.953485 
vt 0.862906 0.985505 
vt 0.842871 0.993142 
vt 0.862974 0.973313 
vt 0.862974 0.973313 
vt 0.863042 0.961122 
vt 0.843094 0.953158 
vt 0.875165 0.973413 
vt 0.862974 0.973313 
vt 0.882854 0.993469 
vt 0.843094 0.953158 
vt 0.862974 0.973313 
vt 0.850783 0.973214 
vt 0.842871 0.993142 
vt 0.850783 0.973214 
vt 0.862974 0.973313 
vt 0.862974 0.973313 
vt 0.843094 0.953158 
vt 0.850783 0.973214 
vt 0.875165 0.973413 
vt 0.862974 0.973313 
vt 0.883078 0.953485 
vt 0.882854 0.993469 
vt 0.862974 0.973313 
vt 0.862906 0.985505 
vt 0.862974 0.973313 
vt 0.882854 0.993469 
vt 0.862906 0.985505 
vt 0.862974 0.973313 
vt 0.863042 0.961122 
vt 0.883077 0.953485 
vt 0.883078 0.953485 
vt 0.863042 0.961122 
vt 0.862974 0.973313 
vt 0.862906 0.985505 
vt 0.842871 0.993142 
vt 0.862974 0.973313 
vt 0.862906 0.985505 
vt 0.842871 0.993142 
vt 0.862974 0.973313 
vt 0.863042 0.961122 
vt 0.862974 0.973313 
vt 0.843094 0.953158 
vt 0.875165 0.973413 
vt 0.883078 0.953485 
vt 0.862974 0.973313 
vt 0.875165 0.973413 
vt 0.862974 0.973313 
vt 0.883077 0.953485 
vt 0.862974 0.973313 
vt 0.875165 0.973413 
vt 0.882854 0.993469 
vt 0.875165 0.973413 
vt 0.883078 0.953485 
vt 0.862974 0.973313 
vt 0.862906 0.985505 
vt 0.862974 0.973313 
vt 0.842871 0.993142 
vt 0.882854 0.993469 
vt 0.862974 0.973313 
vt 0.862906 0.985505 
vt 0.862906 0.985505 
vt 0.862974 0.973313 
vt 0.842871 0.993142 

usemtl Pet1Mtl

f 1/1/1 2/2/2 3/3/3 
f 4/4/4 5/5/5 6/6/6 
f 7/7/7 8/8/8 9/9/9 
f 10/10/10 11/11/11 12/12/12 
f 13/13/13 14/14/14 15/15/15 
f 16/16/16 17/17/17 18/18/18 
f 19/19/19 20/20/20 21/21/21 
f 22/22/22 23/23/23 24/24/24 
f 25/25/25 26/26/26 27/27/27 
f 28/28/28 29/29/29 30/30/30 
f 31/31/31 32/32/32 33/33/33 
f 34/34/34 35/35/35 36/36/36 
f 37/37/37 38/38/38 39/39/39 
f 38/38/38 37/37/37 40/40/40 
f 41/41/41 42/42/42 43/43/43 
f 42/42/42 41/41/41 44/44/44 
f 45/45/45 46/46/46 47/47/47 
f 46/46/46 45/45/45 48/48/48 
f 49/49/49 50/50/50 51/51/51 
f 50/50/50 49/49/49 52/52/52 
f 53/53/53 54/54/54 55/55/55 
f 56/56/56 57/57/57 58/58/58 
f 59/59/59 60/60/60 61/61/61 
f 62/62/62 63/63/63 64/64/64 
f 65/65/65 66/66/66 67/67/67 
f 68/68/68 69/69/69 70/70/70 
f 71/71/71 72/72/72 73/73/73 
f 74/74/74 75/75/75 76/76/76 
f 77/77/77 78/78/78 79/79/79 
f 80/80/80 81/81/81 82/82/82 
f 83/83/83 84/84/84 85/85/85 
f 83/83/83 86/86/86 84/84/84 
f 86/86/86 83/83/83 87/87/87 
f 84/84/84 86/86/86 88/88/88 
f 88/88/88 85/85/85 84/84/84 
f 86/86/86 89/89/89 88/88/88 
f 88/88/88 89/89/89 90/90/90 
f 90/90/90 85/85/85 88/88/88 
f 91/91/91 90/90/90 89/89/89 
f 90/90/90 91/91/91 92/92/92 
f 92/92/92 85/85/85 90/90/90 
f 93/93/93 92/92/92 91/91/91 
f 83/83/83 85/85/85 94/94/94 
f 94/94/94 87/87/87 83/83/83 
f 94/94/94 85/85/85 95/95/95 
f 87/87/87 94/94/94 96/96/96 
f 95/95/95 96/96/96 94/94/94 
f 96/96/96 95/95/95 97/97/97 
f 98/98/98 99/99/99 100/100/100 
f 101/101/101 102/102/102 103/103/103 
f 104/104/104 103/103/103 102/102/102 
f 103/103/103 105/105/105 101/101/101 
f 102/102/102 101/101/101 106/106/106 
f 107/107/107 101/101/101 105/105/105 
f 108/108/108 106/106/106 101/101/101 
f 101/101/101 107/107/107 108/108/108 
f 106/106/106 108/108/108 109/109/109 
f 110/110/110 108/108/108 107/107/107 
f 108/108/108 111/111/111 109/109/109 
f 108/108/108 110/110/110 111/111/111 
f 109/109/109 111/111/111 112/112/112 
f 113/113/113 111/111/111 110/110/110 
f 114/114/114 112/112/112 111/111/111 
f 111/111/111 113/113/113 114/114/114 
f 115/115/115 114/114/114 113/113/113 
f 116/116/116 117/117/117 118/118/118 
f 119/119/119 120/120/120 121/121/121 
f 122/122/122 123/123/123 124/124/124 
f 125/125/125 124/124/124 123/123/123 
f 124/124/124 125/125/125 126/126/126 
f 127/127/127 125/125/125 123/123/123 
f 125/125/125 127/127/127 128/128/128 
f 123/123/123 129/129/129 127/127/127 
f 130/130/130 131/131/131 132/132/132 
f 133/133/133 134/134/134 135/135/135 
f 136/136/136 137/137/137 138/138/138 
f 139/139/139 140/140/140 141/141/141 
f 142/142/142 143/143/143 144/144/144 
f 145/145/145 146/146/146 147/147/147 
f 146/146/146 145/145/145 148/148/148 
f 145/145/145 149/149/149 148/148/148 
f 150/150/150 148/148/148 149/149/149 
f 151/151/151 146/146/146 148/148/148 
f 146/146/146 151/151/151 152/152/152 
f 148/148/148 150/150/150 153/153/153 
f 148/148/148 153/153/153 151/151/151 
f 150/150/150 154/154/154 153/153/153 
f 151/151/151 153/153/153 155/155/155 
f 156/156/156 157/157/157 158/158/158 
f 159/159/159 160/160/160 161/161/161 
f 160/160/160 159/159/159 162/162/162 
f 160/160/160 162/162/162 163/163/163 
f 164/164/164 163/163/163 162/162/162 
f 159/159/159 165/165/165 162/162/162 
f 159/159/159 166/166/166 165/165/165 
f 164/164/164 162/162/162 167/167/167 
f 165/165/165 167/167/167 162/162/162 
f 164/164/164 167/167/167 168/168/168 
f 167/167/167 165/165/165 169/169/169 
f 170/170/170 171/171/171 172/172/172 
f 173/173/173 174/174/174 175/175/175 
f 176/176/176 177/177/177 178/178/178 
f 179/179/179 180/180/180 181/181/181 
f 182/182/182 183/183/183 184/184/184 
f 185/185/185 186/186/186 187/187/187 
f 187/187/187 186/186/186 188/188/188 
f 186/186/186 189/189/189 188/188/188 
f 189/189/189 186/186/186 190/190/190 
f 186/186/186 191/191/191 190/190/190 
f 192/192/192 189/189/189 190/190/190 
f 191/191/191 193/193/193 190/190/190 
f 194/194/194 192/192/192 190/190/190 
f 193/193/193 195/195/195 190/190/190 
f 196/196/196 194/194/194 190/190/190 
f 197/197/197 190/190/190 195/195/195 
f 198/198/198 190/190/190 197/197/197 
f 199/199/199 196/196/196 190/190/190 
f 200/200/200 199/199/199 190/190/190 
f 201/201/201 200/200/200 190/190/190 
f 202/202/202 201/201/201 190/190/190 
f 203/203/203 202/202/202 190/190/190 
f 204/204/204 202/202/202 203/203/203 
f 205/205/205 202/202/202 204/204/204 
f 206/206/206 202/202/202 205/205/205 
f 207/207/207 208/208/208 209/209/209 
f 208/208/208 210/210/210 209/209/209 
f 211/211/211 209/209/209 210/210/210 
f 211/211/211 212/212/212 209/209/209 
f 209/209/209 212/212/212 213/213/213 
f 214/214/214 212/212/212 211/211/211 
f 213/213/213 212/212/212 215/215/215 
f 216/216/216 212/212/212 214/214/214 
f 215/215/215 212/212/212 217/217/217 
f 218/218/218 212/212/212 216/216/216 
f 219/219/219 217/217/217 212/212/212 
f 220/220/220 219/219/219 212/212/212 
f 221/221/221 212/212/212 218/218/218 
f 222/222/222 212/212/212 221/221/221 
f 223/223/223 212/212/212 222/222/222 
f 224/224/224 212/212/212 223/223/223 
f 225/225/225 212/212/212 224/224/224 
f 226/226/226 225/225/225 224/224/224 
f 227/227/227 226/226/226 224/224/224 
f 228/228/228 227/227/227 224/224/224 
f 229/229/229 230/230/230 231/231/231 
f 231/231/231 232/232/232 229/229/229 
f 233/233/233 230/230/230 229/229/229 
f 232/232/232 233/233/233 229/229/229 
f 234/234/234 230/230/230 233/233/233 
f 235/235/235 230/230/230 234/234/234 
f 236/236/236 230/230/230 235/235/235 
f 237/237/237 230/230/230 236/236/236 
f 234/234/234 238/238/238 235/235/235 
f 236/236/236 239/239/239 237/237/237 
f 239/239/239 240/240/240 237/237/237 
f 240/240/240 239/239/239 241/241/241 
f 241/241/241 239/239/239 242/242/242 
f 235/235/235 243/243/243 236/236/236 
f 239/239/239 236/236/236 243/243/243 
f 243/243/243 235/235/235 238/238/238 
f 239/239/239 244/244/244 242/242/242 
f 245/245/245 239/239/239 243/243/243 
f 239/239/239 245/245/245 244/244/244 
f 246/246/246 243/243/243 238/238/238 
f 243/243/243 246/246/246 245/245/245 
f 247/247/247 245/245/245 246/246/246 
f 248/248/248 244/244/244 245/245/245 
f 245/245/245 247/247/247 248/248/248 
f 244/244/244 248/248/248 249/249/249 
f 244/244/244 249/249/249 250/250/250 
f 251/251/251 244/244/244 250/250/250 
f 252/252/252 250/250/250 249/249/249 
f 252/252/252 249/249/249 253/253/253 
f 252/252/252 253/253/253 254/254/254 
f 252/252/252 254/254/254 255/255/255 
f 252/252/252 255/255/255 256/256/256 
f 252/252/252 256/256/256 257/257/257 
f 252/252/252 257/257/257 258/258/258 
f 252/252/252 258/258/258 259/259/259 
f 260/260/260 259/259/259 258/258/258 
f 258/258/258 261/261/261 260/260/260 
f 258/258/258 262/262/262 261/261/261 
f 262/262/262 258/258/258 263/263/263 
f 264/264/264 265/265/265 261/261/261 
f 263/263/263 266/266/266 262/262/262 
f 266/266/266 263/263/263 267/267/267 
f 232/232/232 261/261/261 262/262/262 
f 266/266/266 232/232/232 262/262/262 
f 268/268/268 264/264/264 261/261/261 
f 261/261/261 232/232/232 268/268/268 
f 269/269/269 264/264/264 268/268/268 
f 231/231/231 269/269/269 268/268/268 
f 232/232/232 231/231/231 268/268/268 
f 232/232/232 266/266/266 270/270/270 
f 233/233/233 232/232/232 270/270/270 
f 271/271/271 270/270/270 266/266/266 
f 272/272/272 271/271/271 266/266/266 
f 273/273/273 233/233/233 270/270/270 
f 270/270/270 271/271/271 273/273/273 
f 233/233/233 273/273/273 234/234/234 
f 238/238/238 234/234/234 273/273/273 
f 271/271/271 238/238/238 273/273/273 
f 271/271/271 272/272/272 274/274/274 
f 238/238/238 271/271/271 246/246/246 
f 271/271/271 274/274/274 247/247/247 
f 246/246/246 271/271/271 247/247/247 
f 275/275/275 276/276/276 277/277/277 
f 276/276/276 275/275/275 278/278/278 
f 279/279/279 275/275/275 277/277/277 
f 279/279/279 278/278/278 275/275/275 
f 280/280/280 279/279/279 277/277/277 
f 281/281/281 280/280/280 277/277/277 
f 282/282/282 281/281/281 277/277/277 
f 283/283/283 282/282/282 277/277/277 
f 284/284/284 280/280/280 281/281/281 
f 285/285/285 282/282/282 283/283/283 
f 286/286/286 285/285/285 283/283/283 
f 285/285/285 286/286/286 287/287/287 
f 287/287/287 288/288/288 285/285/285 
f 289/289/289 281/281/281 282/282/282 
f 285/285/285 289/289/289 282/282/282 
f 289/289/289 284/284/284 281/281/281 
f 285/285/285 288/288/288 290/290/290 
f 285/285/285 291/291/291 289/289/289 
f 291/291/291 285/285/285 290/290/290 
f 292/292/292 289/289/289 291/291/291 
f 289/289/289 292/292/292 284/284/284 
f 290/290/290 293/293/293 291/291/291 
f 294/294/294 291/291/291 293/293/293 
f 291/291/291 294/294/294 292/292/292 
f 293/293/293 290/290/290 295/295/295 
f 290/290/290 296/296/296 295/295/295 
f 297/297/297 296/296/296 290/290/290 
f 298/298/298 295/295/295 296/296/296 
f 298/298/298 299/299/299 295/295/295 
f 298/298/298 300/300/300 299/299/299 
f 298/298/298 301/301/301 300/300/300 
f 298/298/298 302/302/302 301/301/301 
f 298/298/298 303/303/303 302/302/302 
f 298/298/298 304/304/304 303/303/303 
f 298/298/298 305/305/305 304/304/304 
f 306/306/306 304/304/304 305/305/305 
f 304/304/304 306/306/306 307/307/307 
f 308/308/308 304/304/304 307/307/307 
f 304/304/304 308/308/308 309/309/309 
f 310/310/310 307/307/307 311/311/311 
f 307/307/307 310/310/310 312/312/312 
f 313/313/313 312/312/312 310/310/310 
f 312/312/312 313/313/313 276/276/276 
f 312/312/312 276/276/276 278/278/278 
f 278/278/278 307/307/307 312/312/312 
f 307/307/307 278/278/278 308/308/308 
f 314/314/314 309/309/309 308/308/308 
f 308/308/308 278/278/278 314/314/314 
f 309/309/309 314/314/314 315/315/315 
f 278/278/278 316/316/316 314/314/314 
f 278/278/278 279/279/279 316/316/316 
f 314/314/314 316/316/316 317/317/317 
f 317/317/317 318/318/318 314/314/314 
f 319/319/319 316/316/316 279/279/279 
f 316/316/316 319/319/319 317/317/317 
f 319/319/319 279/279/279 280/280/280 
f 280/280/280 284/284/284 319/319/319 
f 284/284/284 317/317/317 319/319/319 
f 318/318/318 317/317/317 320/320/320 
f 317/317/317 284/284/284 292/292/292 
f 317/317/317 294/294/294 320/320/320 
f 292/292/292 294/294/294 317/317/317 
f 321/321/321 322/322/322 323/323/323 
f 324/324/324 325/325/325 326/326/326 
f 327/327/327 328/328/328 329/329/329 
f 330/330/330 331/331/331 332/332/332 
f 333/333/333 334/334/334 335/335/335 
f 334/334/334 336/336/336 335/335/335 
f 334/334/334 333/333/333 337/337/337 
f 338/338/338 333/333/333 335/335/335 
f 333/333/333 338/338/338 339/339/339 
f 338/338/338 335/335/335 340/340/340 
f 341/341/341 342/342/342 343/343/343 
f 344/344/344 345/345/345 346/346/346 
f 347/347/347 348/348/348 349/349/349 
f 350/350/350 351/351/351 352/352/352 
f 350/350/350 352/352/352 353/353/353 
f 353/353/353 352/352/352 354/354/354 
f 353/353/353 354/354/354 355/355/355 
f 356/356/356 357/357/357 358/358/358 
f 359/359/359 360/360/360 361/361/361 
f 361/361/361 362/362/362 359/359/359 
f 363/363/363 360/360/360 359/359/359 
f 363/363/363 364/364/364 360/360/360 
f 365/365/365 366/366/366 367/367/367 
f 366/366/366 365/365/365 368/368/368 
f 367/367/367 369/369/369 365/365/365 
f 369/369/369 367/367/367 370/370/370 
f 371/371/371 372/372/372 373/373/373 
f 374/374/374 375/375/375 376/376/376 
f 376/376/376 375/375/375 377/377/377 
f 375/375/375 378/378/378 377/377/377 
f 378/378/378 375/375/375 379/379/379 
f 380/380/380 381/381/381 382/382/382 
f 381/381/381 380/380/380 383/383/383 
f 384/384/384 380/380/380 382/382/382 
f 380/380/380 384/384/384 385/385/385 
f 386/386/386 387/387/387 388/388/388 
f 389/389/389 390/390/390 391/391/391 
f 392/392/392 393/393/393 394/394/394 
f 395/395/395 396/396/396 397/397/397 
f 398/398/398 399/399/399 400/400/400 
f 400/400/400 401/401/401 398/398/398 
f 399/399/399 398/398/398 402/402/402 
f 402/402/402 403/403/403 399/399/399 
f 404/404/404 405/405/405 406/406/406 
f 407/407/407 408/408/408 409/409/409 
f 410/410/410 411/411/411 412/412/412 
f 413/413/413 414/414/414 415/415/415 
f 415/415/415 416/416/416 413/413/413 
f 414/414/414 413/413/413 417/417/417 
f 417/417/417 418/418/418 414/414/414 
f 419/419/419 420/420/420 421/421/421 
f 422/422/422 423/423/423 424/424/424 
f 423/423/423 422/422/422 425/425/425 
f 425/425/425 426/426/426 423/423/423 
f 426/426/426 425/425/425 427/427/427 
f 428/428/428 429/429/429 430/430/430 
f 428/428/428 430/430/430 431/431/431 
f 429/429/429 432/432/432 430/430/430 
f 429/429/429 433/433/433 432/432/432 
f 432/432/432 434/434/434 430/430/430 
f 430/430/430 434/434/434 435/435/435 
f 430/430/430 435/435/435 431/431/431 
f 431/431/431 435/435/435 436/436/436 
f 437/437/437 438/438/438 439/439/439 
f 438/438/438 437/437/437 440/440/440 
f 440/440/440 441/441/441 438/438/438 
f 441/441/441 440/440/440 442/442/442 
f 443/443/443 444/444/444 445/445/445 
f 444/444/444 443/443/443 446/446/446 
f 447/447/447 448/448/448 449/449/449 
f 450/450/450 451/451/451 452/452/452 
f 453/453/453 454/454/454 455/455/455 
f 456/456/456 457/457/457 458/458/458 
f 459/459/459 460/460/460 461/461/461 
f 462/462/462 463/463/463 464/464/464 
f 465/465/465 466/466/466 467/467/467 
f 468/468/468 469/469/469 470/470/470 
f 469/469/469 468/468/468 471/471/471 
f 471/471/471 472/472/472 469/469/469 
f 472/472/472 471/471/471 473/473/473 
f 474/474/474 475/475/475 476/476/476 
f 474/474/474 476/476/476 477/477/477 
f 477/477/477 476/476/476 478/478/478 
f 477/477/477 478/478/478 479/479/479 
f 480/480/480 481/481/481 482/482/482 
f 483/483/483 484/484/484 485/485/485 
f 484/484/484 483/483/483 486/486/486 
f 487/487/487 488/488/488 489/489/489 
f 490/490/490 491/491/491 492/492/492 
f 493/493/493 494/494/494 495/495/495 
f 495/495/495 494/494/494 496/496/496 
f 497/497/497 498/498/498 499/499/499 
f 500/500/500 501/501/501 502/502/502 
f 503/503/503 501/501/501 500/500/500 
f 504/504/504 505/505/505 506/506/506 
f 505/505/505 504/504/504 507/507/507 
f 508/508/508 509/509/509 510/510/510 
f 510/510/510 509/509/509 511/511/511 
f 512/512/512 513/513/513 514/514/514 
f 515/515/515 516/516/516 517/517/517 
f 516/516/516 515/515/515 518/518/518 
f 519/519/519 520/520/520 521/521/521 
f 521/521/521 520/520/520 522/522/522 
f 523/523/523 524/524/524 525/525/525 
f 525/525/525 524/524/524 526/526/526 
f 527/527/527 528/528/528 529/529/529 
f 530/530/530 531/531/531 532/532/532 
f 533/533/533 534/534/534 535/535/535 
f 536/536/536 537/537/537 538/538/538 
f 539/539/539 540/540/540 541/541/541 
f 540/540/540 539/539/539 542/542/542 
f 543/543/543 544/544/544 545/545/545 
f 546/546/546 547/547/547 548/548/548 
f 549/549/549 550/550/550 551/551/551 
f 550/550/550 552/552/552 551/551/551 
f 553/553/553 554/554/554 555/555/555 
f 556/556/556 557/557/557 558/558/558 
f 556/556/556 558/558/558 559/559/559 
f 560/560/560 561/561/561 562/562/562 
f 561/561/561 560/560/560 563/563/563 
f 564/564/564 565/565/565 566/566/566 
f 565/565/565 567/567/567 566/566/566 
f 568/568/568 569/569/569 570/570/570 
f 571/571/571 572/572/572 573/573/573 
f 571/571/571 573/573/573 574/574/574 
f 575/575/575 576/576/576 577/577/577 
f 575/575/575 577/577/577 578/578/578 
f 579/579/579 578/578/578 577/577/577 
f 580/580/580 579/579/579 577/577/577 
f 581/581/581 582/582/582 583/583/583 
f 584/584/584 585/585/585 586/586/586 
f 587/587/587 588/588/588 589/589/589 
f 589/589/589 590/590/590 587/587/587 
f 591/591/591 588/588/588 587/587/587 
f 591/591/591 592/592/592 588/588/588 
f 593/593/593 594/594/594 595/595/595 
f 594/594/594 593/593/593 596/596/596 
f 595/595/595 597/597/597 593/593/593 
f 597/597/597 595/595/595 598/598/598 
f 599/599/599 600/600/600 601/601/601 
f 602/602/602 603/603/603 604/604/604 
f 603/603/603 602/602/602 605/605/605 
f 606/606/606 607/607/607 608/608/608 
f 609/609/609 610/610/610 611/611/611 
f 612/612/612 613/613/613 614/614/614 
f 615/615/615 616/616/616 617/617/617 
f 618/618/618 619/619/619 620/620/620 
f 621/621/621 622/622/622 623/623/623 
f 622/622/622 621/621/621 624/624/624 
f 623/623/623 625/625/625 621/621/621 
f 625/625/625 623/623/623 626/626/626 
f 627/627/627 628/628/628 629/629/629 
f 628/628/628 627/627/627 630/630/630 
f 629/629/629 631/631/631 627/627/627 
f 631/631/631 629/629/629 632/632/632 
f 633/633/633 634/634/634 635/635/635 
f 634/634/634 633/633/633 636/636/636 
f 637/637/637 636/636/636 633/633/633 
f 636/636/636 637/637/637 638/638/638 
f 639/639/639 640/640/640 641/641/641 
f 640/640/640 639/639/639 642/642/642 
f 643/643/643 642/642/642 639/639/639 
f 642/642/642 643/643/643 644/644/644 
f 645/645/645 646/646/646 647/647/647 
f 648/648/648 649/649/649 650/650/650 
f 651/651/651 652/652/652 653/653/653 
f 654/654/654 655/655/655 656/656/656 
f 657/657/657 658/658/658 659/659/659 
f 660/660/660 661/661/661 662/662/662 
f 663/663/663 664/664/664 665/665/665 
f 666/666/666 667/667/667 668/668/668 
f 669/669/669 670/670/670 671/671/671 
f 672/672/672 673/673/673 674/674/674 
f 675/675/675 676/676/676 677/677/677 
f 678/678/678 679/679/679 680/680/680 
f 679/679/679 678/678/678 681/681/681 
f 681/681/681 682/682/682 679/679/679 
f 682/682/682 681/681/681 683/683/683 
f 684/684/684 685/685/685 686/686/686 
f 684/684/684 686/686/686 687/687/687 
f 687/687/687 686/686/686 688/688/688 
f 687/687/687 688/688/688 689/689/689 
f 690/690/690 691/691/691 692/692/692 
f 693/693/693 694/694/694 695/695/695 
f 696/696/696 697/697/697 698/698/698 
f 699/699/699 700/700/700 701/701/701 
f 702/702/702 703/703/703 704/704/704 
f 705/705/705 706/706/706 707/707/707 
f 708/708/708 709/709/709 710/710/710 
f 710/710/710 709/709/709 711/711/711 
f 709/709/709 712/712/712 711/711/711 
f 712/712/712 709/709/709 713/713/713 
f 709/709/709 714/714/714 713/713/713 
f 715/715/715 712/712/712 713/713/713 
f 714/714/714 716/716/716 713/713/713 
f 717/717/717 715/715/715 713/713/713 
f 716/716/716 718/718/718 713/713/713 
f 719/719/719 717/717/717 713/713/713 
f 720/720/720 713/713/713 718/718/718 
f 721/721/721 713/713/713 720/720/720 
f 722/722/722 719/719/719 713/713/713 
f 723/723/723 722/722/722 713/713/713 
f 724/724/724 723/723/723 713/713/713 
f 725/725/725 724/724/724 713/713/713 
f 726/726/726 725/725/725 713/713/713 
f 727/727/727 725/725/725 726/726/726 
f 728/728/728 725/725/725 727/727/727 
f 729/729/729 725/725/725 728/728/728 
f 730/730/730 731/731/731 732/732/732 
f 733/733/733 734/734/734 735/735/735 
f 734/734/734 736/736/736 735/735/735 
f 735/735/735 736/736/736 737/737/737 
f 737/737/737 738/738/738 735/735/735 
f 735/735/735 738/738/738 739/739/739 
f 740/740/740 738/738/738 737/737/737 
f 739/739/739 738/738/738 741/741/741 
f 742/742/742 738/738/738 740/740/740 
f 741/741/741 738/738/738 743/743/743 
f 744/744/744 738/738/738 742/742/742 
f 745/745/745 743/743/743 738/738/738 
f 746/746/746 745/745/745 738/738/738 
f 747/747/747 738/738/738 744/744/744 
f 748/748/748 738/738/738 747/747/747 
f 749/749/749 738/738/738 748/748/748 
f 750/750/750 738/738/738 749/749/749 
f 751/751/751 738/738/738 750/750/750 
f 752/752/752 751/751/751 750/750/750 
f 753/753/753 752/752/752 750/750/750 
f 754/754/754 753/753/753 750/750/750 
f 755/755/755 756/756/756 757/757/757 
f 758/758/758 759/759/759 760/760/760 
f 761/761/761 762/762/762 763/763/763 
f 764/764/764 765/765/765 766/766/766 
f 767/767/767 768/768/768 769/769/769 
f 770/770/770 771/771/771 772/772/772 
f 773/773/773 774/774/774 775/775/775 
f 774/774/774 776/776/776 775/775/775 
f 776/776/776 774/774/774 777/777/777 
f 776/776/776 777/777/777 778/778/778 
f 779/779/779 774/774/774 773/773/773 
f 779/779/779 777/777/777 774/774/774 
f 780/780/780 778/778/778 777/777/777 
f 779/779/779 780/780/780 777/777/777 
f 778/778/778 780/780/780 781/781/781 
f 782/782/782 781/781/781 780/780/780 
f 781/781/781 782/782/782 783/783/783 
f 784/784/784 782/782/782 780/780/780 
f 780/780/780 779/779/779 784/784/784 
f 782/782/782 784/784/784 785/785/785 
f 785/785/785 784/784/784 786/786/786 
f 787/787/787 786/786/786 784/784/784 
f 784/784/784 779/779/779 787/787/787 
f 788/788/788 779/779/779 773/773/773 
f 788/788/788 773/773/773 775/775/775 
f 779/779/779 789/789/789 787/787/787 
f 779/779/779 788/788/788 789/789/789 
f 789/789/789 790/790/790 787/787/787 
f 790/790/790 791/791/791 787/787/787 
f 791/791/791 790/790/790 792/792/792 
f 790/790/790 793/793/793 792/792/792 
f 794/794/794 790/790/790 789/789/789 
f 795/795/795 789/789/789 788/788/788 
f 789/789/789 795/795/795 794/794/794 
f 795/795/795 788/788/788 775/775/775 
f 796/796/796 790/790/790 794/794/794 
f 796/796/796 794/794/794 795/795/795 
f 793/793/793 790/790/790 797/797/797 
f 790/790/790 796/796/796 797/797/797 
f 798/798/798 793/793/793 797/797/797 
f 793/793/793 798/798/798 799/799/799 
f 800/800/800 797/797/797 796/796/796 
f 797/797/797 800/800/800 798/798/798 
f 796/796/796 795/795/795 801/801/801 
f 801/801/801 795/795/795 775/775/775 
f 800/800/800 796/796/796 801/801/801 
f 802/802/802 801/801/801 775/775/775 
f 800/800/800 801/801/801 802/802/802 
f 803/803/803 802/802/802 775/775/775 
f 803/803/803 800/800/800 802/802/802 
f 804/804/804 803/803/803 775/775/775 
f 804/804/804 805/805/805 803/803/803 
f 800/800/800 803/803/803 805/805/805 
f 805/805/805 804/804/804 806/806/806 
f 807/807/807 800/800/800 805/805/805 
f 806/806/806 807/807/807 805/805/805 
f 800/800/800 807/807/807 798/798/798 
f 807/807/807 806/806/806 808/808/808 
f 798/798/798 807/807/807 809/809/809 
f 808/808/808 809/809/809 807/807/807 
f 798/798/798 809/809/809 799/799/799 
f 809/809/809 808/808/808 810/810/810 
f 811/811/811 809/809/809 812/812/812 
f 811/811/811 813/813/813 809/809/809 
f 811/811/811 814/814/814 813/813/813 
f 811/811/811 815/815/815 814/814/814 
f 811/811/811 816/816/816 815/815/815 
f 811/811/811 817/817/817 816/816/816 
f 811/811/811 782/782/782 817/817/817 
f 811/811/811 818/818/818 782/782/782 
f 819/819/819 820/820/820 821/821/821 
f 822/822/822 823/823/823 824/824/824 
f 825/825/825 826/826/826 827/827/827 
f 828/828/828 829/829/829 830/830/830 
f 831/831/831 832/832/832 833/833/833 
f 834/834/834 835/835/835 836/836/836 
f 837/837/837 838/838/838 839/839/839 
f 840/840/840 841/841/841 842/842/842 
f 843/843/843 844/844/844 845/845/845 
f 846/846/846 847/847/847 848/848/848 
f 849/849/849 850/850/850 851/851/851 
f 852/852/852 853/853/853 854/854/854 
f 855/855/855 856/856/856 857/857/857 
f 858/858/858 859/859/859 860/860/860 
f 861/861/861 862/862/862 863/863/863 
f 864/864/864 865/865/865 866/866/866 
f 867/867/867 868/868/868 869/869/869 
f 870/870/870 871/871/871 872/872/872 
f 873/873/873 874/874/874 875/875/875 
f 876/876/876 877/877/877 878/878/878 
f 879/879/879 880/880/880 881/881/881 
f 882/882/882 883/883/883 884/884/884 
f 885/885/885 886/886/886 887/887/887 

