# This file is brought to you by Roblox Corporation
# Generated by Roblox Studio

mtllib leopard.mtl

g Pet1

v -0.283963 0.162037 -1.54123 
v -0.285337 0.625085 -1.36606 
v 0.000181297 0.181437 -1.58291 
v -0.00119012 0.643905 -1.40803 
v 0.28263 0.626611 -1.36271 
v 0.284005 0.163563 -1.53787 
v 0.109936 -1.20343 1.2527 
v 0.504333 -1.20343 0.79728 
v 0.544783 -1.20343 1.21009 
v 0.0694859 -1.20343 0.839889 
v -0.53096 -1.20343 1.21613 
v -0.0595523 -1.20343 0.840988 
v -0.0956926 -1.20343 1.25419 
v -0.49482 -1.20343 0.802918 
v -0.500496 -1.20343 0.625826 
v -0.029088 -1.20343 0.250689 
v -0.0652283 -1.20343 0.663896 
v -0.464356 -1.20343 0.212619 
v 0.0865919 -1.20343 0.662218 
v 0.473203 -1.20343 0.200173 
v 0.520654 -1.20343 0.612235 
v 0.0391417 -1.20343 0.250157 
v -0.853838 -0.946432 1.581 
v 0.00346186 -0.973672 1.581 
v -0.88698 -0.160788 1.581 
v 0.00371986 0.66008 1.57977 
v -0.85293 0.654282 1.57662 
v 0.88698 -0.160788 1.581 
v 0.86037 0.612035 1.58291 
v 0.860767 -0.946432 1.581 
v 0.86008 0.822801 1.56486 
v 0.515322 0.572006 1.56486 
v 0.851728 0.504463 1.56486 
v 0.515322 0.572006 1.56486 
v 0.292035 0.934238 1.56501 
v 0.178907 0.639603 1.56501 
v 0.360582 1.07347 1.56494 
v 0.515322 0.572006 1.56486 
v 0.43745 1.20132 1.56486 
v 0.515322 0.572006 1.56486 
v 0.849173 0.976577 1.56486 
v 0.82632 1.12312 1.56486 
v 0.634763 1.17653 1.56486 
v 0.515322 0.572006 1.56486 
v 0.82632 1.12312 1.56486 
v 0.515322 0.572006 1.56486 
v 0.634763 1.17653 1.56486 
v 0.43745 1.20132 1.56486 
v 0.849173 0.976577 1.56486 
v 0.515322 0.572006 1.56486 
v 0.86008 0.822801 1.56486 
v 0.515322 0.572006 1.56486 
v 0.360582 1.07347 1.56494 
v 0.292035 0.934238 1.56501 
v -0.851532 0.813464 1.56486 
v -0.834447 0.495474 1.56486 
v -0.500022 0.572223 1.56486 
v -0.500022 0.572223 1.56486 
v -0.165588 0.649027 1.56501 
v -0.286759 0.940446 1.56501 
v -0.3591 1.07774 1.56494 
v -0.439448 1.20343 1.56486 
v -0.500022 0.572223 1.56486 
v -0.500022 0.572223 1.56486 
v -0.826025 1.1146 1.56486 
v -0.844848 0.967481 1.56486 
v -0.636006 1.17324 1.56486 
v -0.826025 1.1146 1.56486 
v -0.500022 0.572223 1.56486 
v -0.500022 0.572223 1.56486 
v -0.439448 1.20343 1.56486 
v -0.636006 1.17324 1.56486 
v -0.844848 0.967481 1.56486 
v -0.851532 0.813464 1.56486 
v -0.500022 0.572223 1.56486 
v -0.500022 0.572223 1.56486 
v -0.286759 0.940446 1.56501 
v -0.3591 1.07774 1.56494 
v 0.0034619 -0.986758 1.19489 
v 0.853267 -0.984259 1.3069 
v 0.00346186 -0.973672 1.581 
v 0.860767 -0.946432 1.581 
v -0.853838 -0.946432 1.581 
v 0.846097 -0.995323 1.04462 
v -0.846008 -0.984796 1.08896 
v 0.00346193 -1.00021 0.825434 
v 0.853537 -0.95778 0.346907 
v -0.838508 -0.996374 0.618151 
v 0.00346198 -0.95778 0.27272 
v 0.860768 -0.860939 -0.133602 
v -0.846608 -0.95778 0.198532 
v 0.00346201 -0.884022 -0.133602 
v -0.853837 -0.860939 -0.133602 
v -0.88698 -0.160788 1.581 
v -0.846008 -0.984796 1.08896 
v -0.853838 -0.946432 1.581 
v -0.838508 -0.210805 0.618143 
v -0.838508 -0.996374 0.618151 
v -0.846608 -0.95778 0.198532 
v -0.838778 0.535835 0.619046 
v -0.85293 0.654282 1.57662 
v -0.827363 -0.139173 -0.133602 
v -0.853837 -0.860939 -0.133602 
v -0.853845 0.58082 -0.133707 
v 0.853267 -0.984259 1.3069 
v 0.88698 -0.160788 1.581 
v 0.860767 -0.946432 1.581 
v 0.846097 -0.20968 1.04462 
v 0.846097 -0.995323 1.04462 
v 0.853537 -0.95778 0.346907 
v 0.846765 0.543567 1.0427 
v 0.86037 0.612035 1.58291 
v 0.83457 -0.139173 -0.133602 
v 0.860768 -0.860939 -0.133602 
v 0.86076 0.579702 -0.133774 
v -0.218096 0.556176 -0.127314 
v 0.204983 0.55729 -0.12341 
v 0.220302 0.570563 -0.391427 
v -0.231416 0.568424 -0.393547 
v 0.246161 0.403298 -0.967665 
v -0.253975 0.40138 -0.968804 
v 0.00346201 -0.884022 -0.133602 
v -0.827363 -0.139173 -0.133602 
v 0.00345976 0.561935 -0.133745 
v -0.853837 -0.860939 -0.133602 
v -0.853845 0.58082 -0.133707 
v 0.83457 -0.139173 -0.133602 
v 0.860768 -0.860939 -0.133602 
v 0.86076 0.579702 -0.133774 
v -0.85293 0.654282 1.57662 
v 0.00371986 0.66008 1.57977 
v 0.00360668 0.53891 0.823973 
v -0.838778 0.535835 0.619046 
v 0.846765 0.543567 1.0427 
v 0.86037 0.612035 1.58291 
v 0.86076 0.579702 -0.133774 
v 0.00345976 0.561935 -0.133745 
v -0.853845 0.58082 -0.133707 
v 0.499491 -0.890071 1.17481 
v 0.147518 -0.890071 1.2093 
v 0.14079 -1.05587 1.21707 
v 0.5076 -1.05587 1.18113 
v -0.486039 -0.890071 1.18038 
v -0.126917 -1.05587 1.21889 
v -0.133726 -0.890071 1.21119 
v -0.494082 -1.05587 1.18678 
v 0.436363 -0.890071 0.244202 
v 0.474769 -0.890071 0.577732 
v 0.482984 -1.05587 0.583909 
v 0.442958 -1.05587 0.236319 
v -0.463618 -1.05587 0.596479 
v -0.426323 -0.890071 0.255622 
v -0.433132 -1.05587 0.247923 
v -0.455575 -0.890071 0.590079 
v 0.46675 -0.890071 0.840677 
v 0.499491 -0.890071 1.17481 
v 0.5076 -1.05587 1.18113 
v 0.473479 -1.05587 0.832907 
v -0.494082 -1.05587 1.18678 
v -0.456787 -0.890071 0.845921 
v -0.463596 -1.05587 0.838222 
v -0.486039 -0.890071 1.18038 
v 0.5076 -1.05587 1.18113 
v 0.14079 -1.05587 1.21707 
v 0.109936 -1.20343 1.2527 
v 0.544783 -1.20343 1.21009 
v -0.494082 -1.05587 1.18678 
v -0.0956926 -1.20343 1.25419 
v -0.126917 -1.05587 1.21889 
v -0.53096 -1.20343 1.21613 
v -0.000667768 0.0627047 -1.31284 
v -0.251875 0.0349334 -1.03338 
v -0.281789 0.06139 -1.31029 
v 0.248262 0.0366679 -1.03243 
v -0.283963 0.162037 -1.54123 
v 0.280251 0.0632285 -1.30801 
v 0.000181297 0.181437 -1.58291 
v 0.284005 0.163563 -1.53787 
v -0.433132 -1.05587 0.247923 
v -0.0740093 -0.890071 0.286436 
v -0.0659663 -1.05587 0.280037 
v -0.426323 -0.890071 0.255622 
v 0.442958 -1.05587 0.236319 
v 0.0768105 -1.05587 0.278482 
v 0.085026 -0.890071 0.28466 
v 0.436363 -0.890071 0.244202 
v 0.442958 -1.05587 0.236319 
v 0.482984 -1.05587 0.583909 
v 0.520654 -1.20343 0.612235 
v 0.473203 -1.20343 0.200173 
v -0.500496 -1.20343 0.625826 
v -0.433132 -1.05587 0.247923 
v -0.464356 -1.20343 0.212619 
v -0.463618 -1.05587 0.596479 
v 0.473479 -1.05587 0.832907 
v 0.5076 -1.05587 1.18113 
v 0.544783 -1.20343 1.21009 
v 0.504333 -1.20343 0.79728 
v -0.53096 -1.20343 1.21613 
v -0.463596 -1.05587 0.838222 
v -0.49482 -1.20343 0.802918 
v -0.494082 -1.05587 1.18678 
v -0.219008 0.187451 -0.128419 
v -0.218096 0.556176 -0.127314 
v -0.232274 0.20376 -0.396933 
v -0.231416 0.568424 -0.393547 
v -0.253975 0.40138 -0.968804 
v -0.251875 0.0349334 -1.03338 
v -0.281789 0.06139 -1.31029 
v -0.283724 0.538462 -1.15793 
v -0.283963 0.162037 -1.54123 
v -0.285337 0.625085 -1.36606 
v 0.204983 0.55729 -0.12341 
v 0.20407 0.188558 -0.124515 
v 0.222007 0.205885 -0.394784 
v 0.220302 0.570563 -0.391427 
v 0.246161 0.403298 -0.967665 
v 0.248262 0.0366679 -1.03243 
v 0.280251 0.0632285 -1.30801 
v 0.278317 0.530425 -1.13949 
v 0.284005 0.163563 -1.53787 
v 0.28263 0.626611 -1.36271 
v -0.464356 -1.20343 0.212619 
v -0.0659663 -1.05587 0.280037 
v -0.029088 -1.20343 0.250689 
v -0.433132 -1.05587 0.247923 
v 0.473203 -1.20343 0.200173 
v 0.0391417 -1.20343 0.250157 
v 0.0768105 -1.05587 0.278482 
v 0.442958 -1.05587 0.236319 
v 0.474769 -0.890071 0.577732 
v 0.123433 -0.890071 0.618189 
v 0.116837 -1.05587 0.626072 
v 0.482984 -1.05587 0.583909 
v -0.455575 -0.890071 0.590079 
v -0.0964523 -1.05587 0.628592 
v -0.103262 -0.890071 0.620894 
v -0.463618 -1.05587 0.596479 
v 0.147518 -0.890071 1.2093 
v 0.106669 -1.05587 0.86885 
v 0.14079 -1.05587 1.21707 
v 0.114778 -0.890071 0.875166 
v -0.133726 -0.890071 1.21119 
v -0.0964306 -1.05587 0.870335 
v -0.104474 -0.890071 0.876735 
v -0.126917 -1.05587 1.21889 
v -0.103262 -0.890071 0.620894 
v -0.0659663 -1.05587 0.280037 
v -0.0740093 -0.890071 0.286436 
v -0.0964523 -1.05587 0.628592 
v 0.123433 -0.890071 0.618189 
v 0.0768105 -1.05587 0.278482 
v 0.116837 -1.05587 0.626072 
v 0.085026 -0.890071 0.28466 
v -0.759264 0.733291 1.27906 
v -0.493463 0.534653 1.19722 
v -0.715969 0.483513 1.23452 
v -0.834447 0.495474 1.56486 
v -0.851532 0.813464 1.56486 
v -0.781692 0.925451 1.3611 
v -0.844848 0.967481 1.56486 
v -0.548369 0.780885 1.24176 
v -0.805795 1.09751 1.49812 
v -0.826025 1.1146 1.56486 
v -0.636006 1.17324 1.56486 
v -0.589734 0.974103 1.32378 
v -0.626599 1.14452 1.46408 
v -0.444864 1.18048 1.4953 
v -0.439448 1.20343 1.56486 
v -0.3591 1.07774 1.56494 
v -0.396447 1.01315 1.35963 
v -0.286759 0.940446 1.56501 
v -0.337474 0.828478 1.27906 
v -0.165588 0.649027 1.56501 
v -0.270956 0.585794 1.23452 
v 0.509797 0.53427 1.19722 
v 0.770047 0.740126 1.27906 
v 0.733622 0.489254 1.23452 
v 0.851728 0.504463 1.56486 
v 0.86008 0.822801 1.56486 
v 0.787194 0.93283 1.3611 
v 0.849173 0.976577 1.56486 
v 0.557925 0.781915 1.24176 
v 0.806566 1.10549 1.49812 
v 0.82632 1.12312 1.56486 
v 0.634763 1.17653 1.56486 
v 0.593973 0.976196 1.32378 
v 0.626148 1.14756 1.46408 
v 0.443495 1.17852 1.4953 
v 0.43745 1.20132 1.56486 
v 0.360582 1.07347 1.56494 
v 0.399687 1.00993 1.35963 
v 0.292035 0.934238 1.56501 
v 0.345804 0.823704 1.27906 
v 0.178907 0.639603 1.56501 
v 0.285971 0.579286 1.23452 
v 0.482984 -1.05587 0.583909 
v 0.116837 -1.05587 0.626072 
v 0.0865919 -1.20343 0.662218 
v 0.520654 -1.20343 0.612235 
v -0.463618 -1.05587 0.596479 
v -0.0652283 -1.20343 0.663896 
v -0.0964523 -1.05587 0.628592 
v -0.500496 -1.20343 0.625826 
v 0.473479 -1.05587 0.832907 
v 0.106669 -1.05587 0.86885 
v 0.114778 -0.890071 0.875166 
v 0.46675 -0.890071 0.840677 
v -0.463596 -1.05587 0.838222 
v -0.104474 -0.890071 0.876735 
v -0.0964306 -1.05587 0.870335 
v -0.456787 -0.890071 0.845921 
v -0.126917 -1.05587 1.21889 
v -0.0595523 -1.20343 0.840988 
v -0.0964306 -1.05587 0.870335 
v -0.0956926 -1.20343 1.25419 
v 0.14079 -1.05587 1.21707 
v 0.0694859 -1.20343 0.839889 
v 0.109936 -1.20343 1.2527 
v 0.106669 -1.05587 0.86885 
v -0.0964523 -1.05587 0.628592 
v -0.029088 -1.20343 0.250689 
v -0.0659663 -1.05587 0.280037 
v -0.0652283 -1.20343 0.663896 
v 0.116837 -1.05587 0.626072 
v 0.0391417 -1.20343 0.250157 
v 0.0865919 -1.20343 0.662218 
v 0.0768105 -1.05587 0.278482 
v -0.00262879 0.533495 -1.14745 
v -0.285337 0.625085 -1.36606 
v -0.283724 0.538462 -1.15793 
v -0.00119012 0.643905 -1.40803 
v -0.253975 0.40138 -0.968804 
v 0.28263 0.626611 -1.36271 
v 0.246161 0.403298 -0.967665 
v 0.278317 0.530425 -1.13949 
v -0.232274 0.20376 -0.396933 
v 0.20407 0.188558 -0.124515 
v -0.219008 0.187451 -0.128419 
v 0.222007 0.205885 -0.394784 
v -0.251875 0.0349334 -1.03338 
v 0.248262 0.0366679 -1.03243 
v 0.504333 -1.20343 0.79728 
v 0.0694859 -1.20343 0.839889 
v 0.106669 -1.05587 0.86885 
v 0.473479 -1.05587 0.832907 
v -0.49482 -1.20343 0.802918 
v -0.0964306 -1.05587 0.870335 
v -0.0595523 -1.20343 0.840988 
v -0.463596 -1.05587 0.838222 

vn -0.15748 0.346457 -0.92126 
vn -0.15748 0.346457 -0.92126 
vn 0.00787402 0.354331 -0.937008 
vn 0.00787402 0.354331 -0.937008 
vn 0.165354 0.346457 -0.92126 
vn 0.165354 0.346457 -0.92126 
vn 0 -1 0 
vn 0 -1 0 
vn 0 -1 0 
vn 0 -1 0 
vn 0 -1 0 
vn 0 -1 0 
vn 0 -1 0 
vn 0 -1 0 
vn 0 -1 0 
vn 0 -1 0 
vn 0 -1 0 
vn 0 -1 0 
vn 0 -1 0 
vn 0 -1 0 
vn 0 -1 0 
vn 0 -1 0 
vn 0 0 1 
vn 0 0 1 
vn 0 0 1 
vn 0 0 1 
vn 0 0 1 
vn 0 0 1 
vn 0 0 1 
vn 0 0 1 
vn 0 0 1 
vn 0 0 1 
vn 0 0 1 
vn 0 0 1 
vn 0 0 1 
vn 0 0 1 
vn 0 0 1 
vn 0 0 1 
vn 0 0 1 
vn 0 0 1 
vn 0 0 1 
vn 0 0 1 
vn 0 0 1 
vn 0 0 1 
vn 0 0 1 
vn 0 0 1 
vn 0 0 1 
vn 0 0 1 
vn 0 0 1 
vn 0 0 1 
vn 0 0 1 
vn 0 0 1 
vn 0 0 1 
vn 0 0 1 
vn 0 0 1 
vn 0 0 1 
vn 0 0 1 
vn 0 0 1 
vn 0 0 1 
vn 0 0 1 
vn 0 0 1 
vn 0 0 1 
vn 0 0 1 
vn 0 0 1 
vn 0 0 1 
vn 0 0 1 
vn 0 0 1 
vn 0 0 1 
vn 0 0 1 
vn 0 0 1 
vn 0 0 1 
vn 0 0 1 
vn 0 0 1 
vn 0 0 1 
vn 0 0 1 
vn 0 0 1 
vn 0 0 1 
vn 0 0 1 
vn -0.00787402 -1 0.0551181 
vn 0.00787402 -1 0.0551181 
vn -0.00787402 -1 0.0708661 
vn 0.015748 -1 0.0787402 
vn -0.023622 -1 0.0551181 
vn 0.00787402 -1 -0.015748 
vn -0.015748 -1 0.0472441 
vn 0 -1 -0.023622 
vn 0.015748 -0.992126 -0.125984 
vn 0 -1 -0.023622 
vn 0.00787402 -0.992126 -0.141732 
vn 0.023622 -0.984252 -0.188976 
vn 0.00787402 -0.984252 -0.15748 
vn 0.00787402 -0.976378 -0.204724 
vn 0 -0.976378 -0.228346 
vn -1 0 -0.0393701 
vn -1 -0.015748 -0.023622 
vn -1 -0.0314961 -0.0393701 
vn -1 0 -0.00787402 
vn -1 0 0 
vn -1 0.015748 0.00787402 
vn -1 0 -0.015748 
vn -1 0.023622 -0.0314961 
vn -1 0 0 
vn -1 0.023622 0 
vn -1 -0.015748 0 
vn 1 -0.00787402 -0.0393701 
vn 1 0 -0.0551181 
vn 1 -0.023622 -0.0551181 
vn 1 0 -0.023622 
vn 1 0 -0.00787402 
vn 1 0.00787402 0.00787402 
vn 1 0 -0.023622 
vn 1 0.015748 -0.0551181 
vn 1 0 0 
vn 1 0.023622 0 
vn 1 -0.015748 0 
vn -0.00787402 1 0.0472441 
vn -0.00787402 1 0.0472441 
vn 0 0.992126 -0.125984 
vn 0 0.992126 -0.125984 
vn 0 0.952756 -0.291339 
vn 0 0.952756 -0.291339 
vn 0 0 -1 
vn 0 0 -1 
vn 0 0 -1 
vn 0 0 -1 
vn 0 0 -1 
vn 0 0 -1 
vn 0 0 -1 
vn 0 0 -1 
vn 0.015748 0.992126 -0.141732 
vn 0.0314961 0.992126 -0.141732 
vn 0.00787402 1 -0.0551181 
vn 0.00787402 1 -0.0472441 
vn 0.015748 1 -0.0629921 
vn 0.0472441 0.992126 -0.141732 
vn -0.015748 1 0.0314961 
vn -0.00787402 1 0.0314961 
vn 0.00787402 1 0.0393701 
vn 0.0944882 0.0393701 0.992126 
vn 0.0944882 0.0393701 0.992126 
vn 0.0944882 0.0393701 0.992126 
vn 0.0944882 0.0393701 0.992126 
vn -0.0866142 0.0393701 0.992126 
vn -0.0866142 0.0393701 0.992126 
vn -0.0866142 0.0393701 0.992126 
vn -0.0866142 0.0393701 0.992126 
vn 0.992126 0.0472441 -0.110236 
vn 0.992126 0.0472441 -0.110236 
vn 0.992126 0.0472441 -0.110236 
vn 0.992126 0.0472441 -0.110236 
vn -0.992126 0.0472441 -0.0866142 
vn -0.992126 0.0472441 -0.0866142 
vn -0.992126 0.0472441 -0.0866142 
vn -0.992126 0.0472441 -0.0866142 
vn 0.992126 0.0472441 -0.0944882 
vn 0.992126 0.0472441 -0.0944882 
vn 0.992126 0.0472441 -0.0944882 
vn 0.992126 0.0472441 -0.0944882 
vn -0.992126 0.0472441 -0.0866142 
vn -0.992126 0.0472441 -0.0866142 
vn -0.992126 0.0472441 -0.0866142 
vn -0.992126 0.0472441 -0.0866142 
vn 0.0944882 0.212598 0.968504 
vn 0.0944882 0.212598 0.968504 
vn 0.0944882 0.212598 0.968504 
vn 0.0944882 0.212598 0.968504 
vn -0.0866142 0.212598 0.976378 
vn -0.0866142 0.212598 0.976378 
vn -0.0866142 0.212598 0.976378 
vn -0.0866142 0.212598 0.976378 
vn 0.00787402 -0.976378 -0.220472 
vn 0 -0.992126 -0.0944882 
vn 0 -0.968504 -0.251969 
vn 0 -0.992126 -0.0944882 
vn 0 -0.913386 -0.401575 
vn 0.00787402 -0.968504 -0.251969 
vn 0.00787402 -0.913386 -0.401575 
vn 0.00787402 -0.913386 -0.401575 
vn 0.0866142 0.0393701 -0.992126 
vn 0.0866142 0.0393701 -0.992126 
vn 0.0866142 0.0393701 -0.992126 
vn 0.0866142 0.0393701 -0.992126 
vn -0.110236 0.0393701 -0.992126 
vn -0.110236 0.0393701 -0.992126 
vn -0.110236 0.0393701 -0.992126 
vn -0.110236 0.0393701 -0.992126 
vn 0.968504 0.228346 -0.110236 
vn 0.968504 0.228346 -0.110236 
vn 0.968504 0.228346 -0.110236 
vn 0.968504 0.228346 -0.110236 
vn -0.968504 0.228346 -0.0866142 
vn -0.968504 0.228346 -0.0866142 
vn -0.968504 0.228346 -0.0866142 
vn -0.968504 0.228346 -0.0866142 
vn 0.968504 0.228346 -0.0944882 
vn 0.968504 0.228346 -0.0944882 
vn 0.968504 0.228346 -0.0944882 
vn 0.968504 0.228346 -0.0944882 
vn -0.968504 0.228346 -0.0866142 
vn -0.968504 0.228346 -0.0866142 
vn -0.968504 0.228346 -0.0866142 
vn -0.968504 0.228346 -0.0866142 
vn -1 0 0.0472441 
vn -1 0 0.0472441 
vn -1 0 0.0472441 
vn -1 0 0.0472441 
vn -1 -0.023622 0.0787402 
vn -1 -0.023622 0.0787402 
vn -1 -0.023622 0.0629921 
vn -1 -0.023622 0.0629921 
vn -1 -0.00787402 0.00787402 
vn -1 -0.00787402 0.00787402 
vn 1 0 0.0629921 
vn 1 0 0.0629921 
vn 1 0 0.0551181 
vn 1 0 0.0551181 
vn 0.992126 -0.015748 0.0866142 
vn 0.992126 -0.015748 0.0866142 
vn 1 -0.015748 0.0708661 
vn 1 -0.015748 0.0708661 
vn 1 0 0.015748 
vn 1 0 0.015748 
vn 0.0866142 0.212598 -0.976378 
vn 0.0866142 0.212598 -0.976378 
vn 0.0866142 0.212598 -0.976378 
vn 0.0866142 0.212598 -0.976378 
vn -0.110236 0.212598 -0.968504 
vn -0.110236 0.212598 -0.968504 
vn -0.110236 0.212598 -0.968504 
vn -0.110236 0.212598 -0.968504 
vn 0.110236 0.0393701 0.992126 
vn 0.110236 0.0393701 0.992126 
vn 0.110236 0.0393701 0.992126 
vn 0.110236 0.0393701 0.992126 
vn -0.0866142 0.0393701 0.992126 
vn -0.0866142 0.0393701 0.992126 
vn -0.0866142 0.0393701 0.992126 
vn -0.0866142 0.0393701 0.992126 
vn -0.992126 0.0472441 0.0944882 
vn -0.992126 0.0472441 0.0944882 
vn -0.992126 0.0472441 0.0944882 
vn -0.992126 0.0472441 0.0944882 
vn 0.992126 0.0472441 0.0866142 
vn 0.992126 0.0472441 0.0866142 
vn 0.992126 0.0472441 0.0866142 
vn 0.992126 0.0472441 0.0866142 
vn 0.992126 0.0472441 0.0866142 
vn 0.992126 0.0472441 0.0866142 
vn 0.992126 0.0472441 0.0866142 
vn 0.992126 0.0472441 0.0866142 
vn -0.992126 0.0472441 0.110236 
vn -0.992126 0.0472441 0.110236 
vn -0.992126 0.0472441 0.110236 
vn -0.992126 0.0472441 0.110236 
vn -0.80315 0.165354 -0.574803 
vn 0.0629921 0.188976 -0.984252 
vn -0.937008 0.015748 -0.338583 
vn -0.944882 -0.0472441 -0.314961 
vn -0.952756 0 -0.314961 
vn -0.685039 0.322835 -0.653543 
vn -0.944882 0.102362 -0.314961 
vn -0.00787402 0.314961 -0.952756 
vn -0.566929 0.629921 -0.527559 
vn -0.700787 0.622047 -0.362205 
vn -0.133858 0.944882 -0.307087 
vn -0.102362 0.503937 -0.858268 
vn -0.133858 0.76378 -0.629921 
vn 0.480315 0.661417 -0.574803 
vn 0.732283 0.606299 -0.314961 
vn 0.850394 0.433071 -0.299213 
vn 0.519685 0.551181 -0.653543 
vn 0.88189 0.354331 -0.314961 
vn 0.574803 0.385827 -0.724409 
vn 0.897638 0.314961 -0.322835 
vn 0.590551 0.299213 -0.748031 
vn -0.0629921 0.188976 -0.984252 
vn 0.80315 0.165354 -0.574803 
vn 0.937008 0.015748 -0.338583 
vn 0.944882 -0.0472441 -0.314961 
vn 0.952756 0 -0.314961 
vn 0.685039 0.322835 -0.653543 
vn 0.944882 0.102362 -0.314961 
vn 0.00787402 0.314961 -0.952756 
vn 0.566929 0.629921 -0.527559 
vn 0.700787 0.622047 -0.362205 
vn 0.133858 0.944882 -0.307087 
vn 0.102362 0.503937 -0.858268 
vn 0.133858 0.76378 -0.629921 
vn -0.480315 0.661417 -0.574803 
vn -0.732283 0.606299 -0.314961 
vn -0.850394 0.433071 -0.299213 
vn -0.519685 0.551181 -0.653543 
vn -0.88189 0.354331 -0.314961 
vn -0.574803 0.385827 -0.724409 
vn -0.897638 0.314961 -0.322835 
vn -0.590551 0.299213 -0.748031 
vn 0.110236 0.212598 0.968504 
vn 0.110236 0.212598 0.968504 
vn 0.110236 0.212598 0.968504 
vn 0.110236 0.212598 0.968504 
vn -0.0866142 0.212598 0.976378 
vn -0.0866142 0.212598 0.976378 
vn -0.0866142 0.212598 0.976378 
vn -0.0866142 0.212598 0.976378 
vn -0.0944882 0.0393701 -0.992126 
vn -0.0944882 0.0393701 -0.992126 
vn -0.0944882 0.0393701 -0.992126 
vn -0.0944882 0.0393701 -0.992126 
vn 0.0866142 0.0393701 -0.992126 
vn 0.0866142 0.0393701 -0.992126 
vn 0.0866142 0.0393701 -0.992126 
vn 0.0866142 0.0393701 -0.992126 
vn 0.968504 0.228346 0.0866142 
vn 0.968504 0.228346 0.0866142 
vn 0.968504 0.228346 0.0866142 
vn 0.968504 0.228346 0.0866142 
vn -0.968504 0.228346 0.0944882 
vn -0.968504 0.228346 0.0944882 
vn -0.968504 0.228346 0.0944882 
vn -0.968504 0.228346 0.0944882 
vn 0.968504 0.228346 0.0866142 
vn 0.968504 0.228346 0.0866142 
vn 0.968504 0.228346 0.0866142 
vn 0.968504 0.228346 0.0866142 
vn -0.968504 0.228346 0.110236 
vn -0.968504 0.228346 0.110236 
vn -0.968504 0.228346 0.110236 
vn -0.968504 0.228346 0.110236 
vn -0.00787402 0.858268 0.511811 
vn 0 0.92126 0.385827 
vn -0.00787402 0.874016 0.488189 
vn 0 0.92126 0.393701 
vn -0.00787402 0.811024 0.590551 
vn 0 0.92126 0.393701 
vn -0.00787402 0.80315 0.590551 
vn -0.00787402 0.866142 0.496063 
vn 0 -0.992126 0.102362 
vn 0.00787402 -1 -0.0629921 
vn 0.00787402 -1 -0.0629921 
vn 0 -0.992126 0.102362 
vn 0 -0.96063 0.267717 
vn 0 -0.96063 0.267717 
vn -0.0944882 0.212598 -0.968504 
vn -0.0944882 0.212598 -0.968504 
vn -0.0944882 0.212598 -0.968504 
vn -0.0944882 0.212598 -0.968504 
vn 0.0866142 0.212598 -0.976378 
vn 0.0866142 0.212598 -0.976378 
vn 0.0866142 0.212598 -0.976378 
vn 0.0866142 0.212598 -0.976378 

vt 0.792612 0.712889 
vt 0.793753 0.618925 
vt 0.846214 0.713265 
vt 0.844887 0.622239 
vt 0.895908 0.617781 
vt 0.899899 0.710927 
vt 0.901369 0.916183 
vt 0.813021 0.84004 
vt 0.893507 0.833102 
vt 0.821116 0.925618 
vt 0.893507 0.833102 
vt 0.821116 0.925618 
vt 0.901369 0.916183 
vt 0.813044 0.840236 
vt 0.813021 0.84004 
vt 0.901369 0.916183 
vt 0.821116 0.925618 
vt 0.893507 0.833102 
vt 0.821116 0.925618 
vt 0.893507 0.833102 
vt 0.813021 0.84004 
vt 0.901369 0.916183 
vt 0.014233 0.677588 
vt 0.179778 0.673126 
vt 0.006941 0.829242 
vt 0.17801 0.988948 
vt 0.012408 0.986674 
vt 0.347865 0.831212 
vt 0.34442 0.979749 
vt 0.346049 0.680053 
vt 0.759403 0.723604 
vt 0.699393 0.7787 
vt 0.699459 0.713134 
vt 0.699393 0.7787 
vt 0.758802 0.834219 
vt 0.699337 0.844271 
vt 0.787473 0.826643 
vt 0.699393 0.7787 
vt 0.814327 0.817078 
vt 0.699393 0.7787 
vt 0.787795 0.731461 
vt 0.814381 0.741282 
vt 0.817143 0.779182 
vt 0.699393 0.7787 
vt 0.814381 0.741282 
vt 0.699393 0.7787 
vt 0.817143 0.779182 
vt 0.814327 0.817078 
vt 0.787795 0.731461 
vt 0.699393 0.7787 
vt 0.759403 0.723604 
vt 0.699393 0.7787 
vt 0.787473 0.826643 
vt 0.758802 0.834219 
vt 0.759403 0.723604 
vt 0.699459 0.713134 
vt 0.699393 0.7787 
vt 0.699393 0.7787 
vt 0.699337 0.844271 
vt 0.758802 0.834219 
vt 0.787473 0.826643 
vt 0.814327 0.817078 
vt 0.699393 0.7787 
vt 0.699393 0.7787 
vt 0.814381 0.741282 
vt 0.787795 0.731461 
vt 0.817143 0.779182 
vt 0.814381 0.741282 
vt 0.699393 0.7787 
vt 0.699393 0.7787 
vt 0.814327 0.817078 
vt 0.817143 0.779182 
vt 0.787795 0.731461 
vt 0.759403 0.723604 
vt 0.699393 0.7787 
vt 0.699393 0.7787 
vt 0.758802 0.834219 
vt 0.787473 0.826643 
vt 0.446358 0.183287 
vt 0.425227 0.34988 
vt 0.37072 0.183478 
vt 0.371095 0.351656 
vt 0.370517 0.015319 
vt 0.47667 0.348276 
vt 0.467107 0.016848 
vt 0.518679 0.183061 
vt 0.613751 0.349159 
vt 0.559311 0.018068 
vt 0.626817 0.182752 
vt 0.710056 0.349963 
vt 0.64196 0.016368 
vt 0.707272 0.182523 
vt 0.709917 0.015226 
vt 0.355903 0.171636 
vt 0.254673 0.012641 
vt 0.351848 0.017046 
vt 0.165985 0.169129 
vt 0.162319 0.013066 
vt 0.080291 0.022033 
vt 0.169237 0.320271 
vt 0.362213 0.330025 
vt 0.018462 0.183941 
vt 0.014968 0.042101 
vt 0.017859 0.323063 
vt 0.399182 0.672452 
vt 0.347865 0.831212 
vt 0.346049 0.680053 
vt 0.450833 0.822082 
vt 0.449993 0.670323 
vt 0.585023 0.677583 
vt 0.449837 0.967866 
vt 0.34442 0.979749 
vt 0.677959 0.835995 
vt 0.677831 0.696274 
vt 0.677702 0.975151 
vt 0.801335 0.369306 
vt 0.88154 0.367974 
vt 0.880662 0.417566 
vt 0.80254 0.419446 
vt 0.89645 0.530832 
vt 0.789555 0.531463 
vt 0.707272 0.182523 
vt 0.851696 0.019612 
vt 0.989469 0.182357 
vt 0.709917 0.015226 
vt 0.992848 0.014168 
vt 0.851785 0.345268 
vt 0.710056 0.349963 
vt 0.992703 0.350493 
vt 0.362213 0.330025 
vt 0.356964 0.496741 
vt 0.205935 0.491441 
vt 0.169237 0.320271 
vt 0.245218 0.659681 
vt 0.352497 0.665405 
vt 0.013892 0.658002 
vt 0.017666 0.48936 
vt 0.017859 0.323063 
vt 0.955391 0.834961 
vt 0.962322 0.902212 
vt 0.930436 0.908734 
vt 0.923212 0.834514 
vt 0.955391 0.834961 
vt 0.930436 0.908734 
vt 0.962322 0.902212 
vt 0.923212 0.834514 
vt 0.955391 0.834961 
vt 0.964389 0.773823 
vt 0.933036 0.765791 
vt 0.923212 0.834514 
vt 0.933036 0.765791 
vt 0.955391 0.834961 
vt 0.923212 0.834514 
vt 0.964389 0.773823 
vt 0.964389 0.773823 
vt 0.955391 0.834961 
vt 0.923212 0.834514 
vt 0.933036 0.765791 
vt 0.923212 0.834514 
vt 0.964389 0.773823 
vt 0.933036 0.765791 
vt 0.955391 0.834961 
vt 0.923212 0.834514 
vt 0.930436 0.908734 
vt 0.901369 0.916183 
vt 0.893507 0.833102 
vt 0.923212 0.834514 
vt 0.901369 0.916183 
vt 0.930436 0.908734 
vt 0.893507 0.833102 
vt 0.627046 0.421408 
vt 0.580051 0.473046 
vt 0.57495 0.421443 
vt 0.672739 0.473973 
vt 0.574997 0.374753 
vt 0.679094 0.422712 
vt 0.627739 0.366744 
vt 0.68025 0.376239 
vt 0.923212 0.834514 
vt 0.962322 0.902212 
vt 0.930436 0.908734 
vt 0.955391 0.834961 
vt 0.923212 0.834514 
vt 0.930436 0.908734 
vt 0.962322 0.902212 
vt 0.955391 0.834961 
vt 0.923212 0.834514 
vt 0.933036 0.765791 
vt 0.904609 0.757308 
vt 0.893507 0.833102 
vt 0.904609 0.757308 
vt 0.923212 0.834514 
vt 0.893507 0.833102 
vt 0.933036 0.765791 
vt 0.933036 0.765791 
vt 0.923212 0.834514 
vt 0.893507 0.833102 
vt 0.904609 0.757308 
vt 0.893507 0.833102 
vt 0.933036 0.765791 
vt 0.904609 0.757308 
vt 0.923212 0.834514 
vt 0.732506 0.373649 
vt 0.801335 0.369306 
vt 0.738798 0.423648 
vt 0.80254 0.419446 
vt 0.789555 0.531463 
vt 0.716554 0.532014 
vt 0.703533 0.578537 
vt 0.793431 0.576367 
vt 0.705003 0.624662 
vt 0.793753 0.618925 
vt 0.88154 0.367974 
vt 0.950585 0.37191 
vt 0.94423 0.422142 
vt 0.880662 0.417566 
vt 0.89645 0.530832 
vt 0.968738 0.528524 
vt 0.984901 0.57371 
vt 0.894958 0.571893 
vt 0.9845 0.619386 
vt 0.895908 0.617781 
vt 0.893507 0.833102 
vt 0.930436 0.908734 
vt 0.901369 0.916183 
vt 0.923212 0.834514 
vt 0.893507 0.833102 
vt 0.901369 0.916183 
vt 0.930436 0.908734 
vt 0.923212 0.834514 
vt 0.964389 0.773823 
vt 0.991562 0.710431 
vt 0.962256 0.697477 
vt 0.933036 0.765791 
vt 0.964389 0.773823 
vt 0.962256 0.697477 
vt 0.991562 0.710431 
vt 0.933036 0.765791 
vt 0.962322 0.902212 
vt 0.953234 0.974424 
vt 0.930436 0.908734 
vt 0.983516 0.963033 
vt 0.962322 0.902212 
vt 0.953234 0.974424 
vt 0.983516 0.963033 
vt 0.930436 0.908734 
vt 0.983516 0.963033 
vt 0.930436 0.908734 
vt 0.962322 0.902212 
vt 0.953234 0.974424 
vt 0.983516 0.963033 
vt 0.930436 0.908734 
vt 0.953234 0.974424 
vt 0.962322 0.902212 
vt 0.492295 0.4652 
vt 0.544827 0.507749 
vt 0.542132 0.458885 
vt 0.509296 0.393827 
vt 0.449337 0.421419 
vt 0.452575 0.468168 
vt 0.421836 0.439725 
vt 0.495156 0.506595 
vt 0.410431 0.468111 
vt 0.39833 0.461553 
vt 0.39088 0.503801 
vt 0.45432 0.505824 
vt 0.411487 0.504902 
vt 0.408763 0.541424 
vt 0.395749 0.546588 
vt 0.418262 0.570199 
vt 0.450544 0.543107 
vt 0.44513 0.589837 
vt 0.490061 0.547826 
vt 0.503142 0.620015 
vt 0.539261 0.55639 
vt 0.544827 0.507749 
vt 0.492295 0.4652 
vt 0.542132 0.458885 
vt 0.509296 0.393827 
vt 0.449337 0.421419 
vt 0.452575 0.468168 
vt 0.421836 0.439725 
vt 0.495156 0.506595 
vt 0.410431 0.468111 
vt 0.39833 0.461553 
vt 0.39088 0.503801 
vt 0.45432 0.505824 
vt 0.411487 0.504902 
vt 0.408763 0.541424 
vt 0.395749 0.546588 
vt 0.418262 0.570199 
vt 0.450544 0.543107 
vt 0.44513 0.589837 
vt 0.490061 0.547826 
vt 0.503142 0.620015 
vt 0.539261 0.55639 
vt 0.933036 0.765791 
vt 0.962256 0.697477 
vt 0.937923 0.679496 
vt 0.904609 0.757308 
vt 0.933036 0.765791 
vt 0.937923 0.679496 
vt 0.962256 0.697477 
vt 0.904609 0.757308 
vt 0.933036 0.765791 
vt 0.962256 0.697477 
vt 0.991562 0.710431 
vt 0.964389 0.773823 
vt 0.933036 0.765791 
vt 0.991562 0.710431 
vt 0.962256 0.697477 
vt 0.964389 0.773823 
vt 0.930436 0.908734 
vt 0.928145 0.990732 
vt 0.953234 0.974424 
vt 0.901369 0.916183 
vt 0.930436 0.908734 
vt 0.928145 0.990732 
vt 0.901369 0.916183 
vt 0.953234 0.974424 
vt 0.953234 0.974424 
vt 0.901369 0.916183 
vt 0.930436 0.908734 
vt 0.928145 0.990732 
vt 0.953234 0.974424 
vt 0.901369 0.916183 
vt 0.928145 0.990732 
vt 0.930436 0.908734 
vt 0.844023 0.569834 
vt 0.793753 0.618925 
vt 0.793431 0.576367 
vt 0.844887 0.622239 
vt 0.789555 0.531463 
vt 0.895908 0.617781 
vt 0.89645 0.530832 
vt 0.894958 0.571893 
vt 0.582799 0.595094 
vt 0.663225 0.64635 
vt 0.584829 0.644966 
vt 0.666981 0.596191 
vt 0.580051 0.473046 
vt 0.672739 0.473973 
vt 0.904609 0.757308 
vt 0.937923 0.679496 
vt 0.962256 0.697477 
vt 0.933036 0.765791 
vt 0.904609 0.757308 
vt 0.962256 0.697477 
vt 0.937923 0.679496 
vt 0.933036 0.765791 

usemtl Pet1Mtl

f 1/1/1 2/2/2 3/3/3 
f 3/3/3 2/2/2 4/4/4 
f 3/3/3 4/4/4 5/5/5 
f 6/6/6 3/3/3 5/5/5 
f 7/7/7 8/8/8 9/9/9 
f 8/8/8 7/7/7 10/10/10 
f 11/11/11 12/12/12 13/13/13 
f 12/12/12 11/11/11 14/14/14 
f 15/15/15 16/16/16 17/17/17 
f 16/16/16 15/15/15 18/18/18 
f 19/19/19 20/20/20 21/21/21 
f 20/20/20 19/19/19 22/22/22 
f 23/23/23 24/24/24 25/25/25 
f 26/26/26 25/25/25 24/24/24 
f 25/25/25 26/26/26 27/27/27 
f 28/28/28 26/26/26 24/24/24 
f 26/26/26 28/28/28 29/29/29 
f 24/24/24 30/30/30 28/28/28 
f 31/31/31 32/32/32 33/33/33 
f 34/34/34 35/35/35 36/36/36 
f 37/37/37 38/38/38 39/39/39 
f 40/40/40 41/41/41 42/42/42 
f 43/43/43 44/44/44 45/45/45 
f 46/46/46 47/47/47 48/48/48 
f 49/49/49 50/50/50 51/51/51 
f 52/52/52 53/53/53 54/54/54 
f 55/55/55 56/56/56 57/57/57 
f 58/58/58 59/59/59 60/60/60 
f 61/61/61 62/62/62 63/63/63 
f 64/64/64 65/65/65 66/66/66 
f 67/67/67 68/68/68 69/69/69 
f 70/70/70 71/71/71 72/72/72 
f 73/73/73 74/74/74 75/75/75 
f 76/76/76 77/77/77 78/78/78 
f 79/79/79 80/80/80 81/81/81 
f 82/82/82 81/81/81 80/80/80 
f 81/81/81 83/83/83 79/79/79 
f 80/80/80 79/79/79 84/84/84 
f 85/85/85 79/79/79 83/83/83 
f 86/86/86 84/84/84 79/79/79 
f 79/79/79 85/85/85 86/86/86 
f 84/84/84 86/86/86 87/87/87 
f 88/88/88 86/86/86 85/85/85 
f 86/86/86 89/89/89 87/87/87 
f 86/86/86 88/88/88 89/89/89 
f 87/87/87 89/89/89 90/90/90 
f 91/91/91 89/89/89 88/88/88 
f 92/92/92 90/90/90 89/89/89 
f 89/89/89 91/91/91 92/92/92 
f 93/93/93 92/92/92 91/91/91 
f 94/94/94 95/95/95 96/96/96 
f 95/95/95 94/94/94 97/97/97 
f 95/95/95 97/97/97 98/98/98 
f 99/99/99 98/98/98 97/97/97 
f 94/94/94 100/100/100 97/97/97 
f 94/94/94 101/101/101 100/100/100 
f 99/99/99 97/97/97 102/102/102 
f 100/100/100 102/102/102 97/97/97 
f 99/99/99 102/102/102 103/103/103 
f 102/102/102 100/100/100 104/104/104 
f 105/105/105 106/106/106 107/107/107 
f 106/106/106 105/105/105 108/108/108 
f 105/105/105 109/109/109 108/108/108 
f 110/110/110 108/108/108 109/109/109 
f 111/111/111 106/106/106 108/108/108 
f 106/106/106 111/111/111 112/112/112 
f 108/108/108 110/110/110 113/113/113 
f 108/108/108 113/113/113 111/111/111 
f 110/110/110 114/114/114 113/113/113 
f 111/111/111 113/113/113 115/115/115 
f 116/116/116 117/117/117 118/118/118 
f 116/116/116 118/118/118 119/119/119 
f 119/119/119 118/118/118 120/120/120 
f 119/119/119 120/120/120 121/121/121 
f 122/122/122 123/123/123 124/124/124 
f 123/123/123 122/122/122 125/125/125 
f 123/123/123 126/126/126 124/124/124 
f 127/127/127 122/122/122 124/124/124 
f 122/122/122 127/127/127 128/128/128 
f 127/127/127 124/124/124 129/129/129 
f 130/130/130 131/131/131 132/132/132 
f 130/130/130 132/132/132 133/133/133 
f 131/131/131 134/134/134 132/132/132 
f 131/131/131 135/135/135 134/134/134 
f 134/134/134 136/136/136 132/132/132 
f 132/132/132 136/136/136 137/137/137 
f 132/132/132 137/137/137 133/133/133 
f 133/133/133 137/137/137 138/138/138 
f 139/139/139 140/140/140 141/141/141 
f 139/139/139 141/141/141 142/142/142 
f 143/143/143 144/144/144 145/145/145 
f 144/144/144 143/143/143 146/146/146 
f 147/147/147 148/148/148 149/149/149 
f 149/149/149 150/150/150 147/147/147 
f 151/151/151 152/152/152 153/153/153 
f 152/152/152 151/151/151 154/154/154 
f 155/155/155 156/156/156 157/157/157 
f 157/157/157 158/158/158 155/155/155 
f 159/159/159 160/160/160 161/161/161 
f 160/160/160 159/159/159 162/162/162 
f 163/163/163 164/164/164 165/165/165 
f 165/165/165 166/166/166 163/163/163 
f 167/167/167 168/168/168 169/169/169 
f 168/168/168 167/167/167 170/170/170 
f 171/171/171 172/172/172 173/173/173 
f 171/171/171 174/174/174 172/172/172 
f 175/175/175 171/171/171 173/173/173 
f 174/174/174 171/171/171 176/176/176 
f 171/171/171 175/175/175 177/177/177 
f 171/171/171 178/178/178 176/176/176 
f 178/178/178 171/171/171 177/177/177 
f 179/179/179 180/180/180 181/181/181 
f 180/180/180 179/179/179 182/182/182 
f 183/183/183 184/184/184 185/185/185 
f 183/183/183 185/185/185 186/186/186 
f 187/187/187 188/188/188 189/189/189 
f 189/189/189 190/190/190 187/187/187 
f 191/191/191 192/192/192 193/193/193 
f 192/192/192 191/191/191 194/194/194 
f 195/195/195 196/196/196 197/197/197 
f 197/197/197 198/198/198 195/195/195 
f 199/199/199 200/200/200 201/201/201 
f 200/200/200 199/199/199 202/202/202 
f 203/203/203 204/204/204 205/205/205 
f 204/204/204 206/206/206 205/205/205 
f 206/206/206 207/207/207 205/205/205 
f 207/207/207 208/208/208 205/205/205 
f 208/208/208 207/207/207 209/209/209 
f 207/207/207 210/210/210 209/209/209 
f 209/209/209 210/210/210 211/211/211 
f 210/210/210 212/212/212 211/211/211 
f 213/213/213 214/214/214 215/215/215 
f 213/213/213 215/215/215 216/216/216 
f 217/217/217 216/216/216 215/215/215 
f 215/215/215 218/218/218 217/217/217 
f 217/217/217 218/218/218 219/219/219 
f 219/219/219 220/220/220 217/217/217 
f 220/220/220 219/219/219 221/221/221 
f 221/221/221 222/222/222 220/220/220 
f 223/223/223 224/224/224 225/225/225 
f 224/224/224 223/223/223 226/226/226 
f 227/227/227 228/228/228 229/229/229 
f 227/227/227 229/229/229 230/230/230 
f 231/231/231 232/232/232 233/233/233 
f 231/231/231 233/233/233 234/234/234 
f 235/235/235 236/236/236 237/237/237 
f 236/236/236 235/235/235 238/238/238 
f 239/239/239 240/240/240 241/241/241 
f 240/240/240 239/239/239 242/242/242 
f 243/243/243 244/244/244 245/245/245 
f 244/244/244 243/243/243 246/246/246 
f 247/247/247 248/248/248 249/249/249 
f 248/248/248 247/247/247 250/250/250 
f 251/251/251 252/252/252 253/253/253 
f 252/252/252 251/251/251 254/254/254 
f 255/255/255 256/256/256 257/257/257 
f 258/258/258 255/255/255 257/257/257 
f 259/259/259 255/255/255 258/258/258 
f 259/259/259 260/260/260 255/255/255 
f 261/261/261 260/260/260 259/259/259 
f 256/256/256 255/255/255 262/262/262 
f 260/260/260 262/262/262 255/255/255 
f 260/260/260 261/261/261 263/263/263 
f 261/261/261 264/264/264 263/263/263 
f 265/265/265 263/263/263 264/264/264 
f 263/263/263 266/266/266 260/260/260 
f 262/262/262 260/260/260 266/266/266 
f 263/263/263 265/265/265 267/267/267 
f 266/266/266 263/263/263 267/267/267 
f 265/265/265 268/268/268 267/267/267 
f 268/268/268 266/266/266 267/267/267 
f 265/265/265 269/269/269 268/268/268 
f 269/269/269 270/270/270 268/268/268 
f 266/266/266 268/268/268 271/271/271 
f 271/271/271 268/268/268 270/270/270 
f 271/271/271 262/262/262 266/266/266 
f 271/271/271 270/270/270 272/272/272 
f 262/262/262 271/271/271 273/273/273 
f 272/272/272 273/273/273 271/271/271 
f 273/273/273 256/256/256 262/262/262 
f 274/274/274 273/273/273 272/272/272 
f 256/256/256 273/273/273 275/275/275 
f 273/273/273 274/274/274 275/275/275 
f 276/276/276 277/277/277 278/278/278 
f 279/279/279 278/278/278 277/277/277 
f 280/280/280 279/279/279 277/277/277 
f 280/280/280 277/277/277 281/281/281 
f 282/282/282 280/280/280 281/281/281 
f 277/277/277 276/276/276 283/283/283 
f 283/283/283 281/281/281 277/277/277 
f 281/281/281 284/284/284 282/282/282 
f 285/285/285 282/282/282 284/284/284 
f 286/286/286 285/285/285 284/284/284 
f 287/287/287 284/284/284 281/281/281 
f 281/281/281 283/283/283 287/287/287 
f 286/286/286 284/284/284 288/288/288 
f 284/284/284 287/287/287 288/288/288 
f 289/289/289 286/286/286 288/288/288 
f 287/287/287 289/289/289 288/288/288 
f 286/286/286 289/289/289 290/290/290 
f 291/291/291 290/290/290 289/289/289 
f 289/289/289 287/287/287 292/292/292 
f 292/292/292 291/291/291 289/289/289 
f 283/283/283 292/292/292 287/287/287 
f 291/291/291 292/292/292 293/293/293 
f 292/292/292 283/283/283 294/294/294 
f 293/293/293 292/292/292 294/294/294 
f 276/276/276 294/294/294 283/283/283 
f 295/295/295 293/293/293 294/294/294 
f 294/294/294 276/276/276 296/296/296 
f 294/294/294 296/296/296 295/295/295 
f 297/297/297 298/298/298 299/299/299 
f 299/299/299 300/300/300 297/297/297 
f 301/301/301 302/302/302 303/303/303 
f 302/302/302 301/301/301 304/304/304 
f 305/305/305 306/306/306 307/307/307 
f 305/305/305 307/307/307 308/308/308 
f 309/309/309 310/310/310 311/311/311 
f 310/310/310 309/309/309 312/312/312 
f 313/313/313 314/314/314 315/315/315 
f 314/314/314 313/313/313 316/316/316 
f 317/317/317 318/318/318 319/319/319 
f 318/318/318 317/317/317 320/320/320 
f 321/321/321 322/322/322 323/323/323 
f 322/322/322 321/321/321 324/324/324 
f 325/325/325 326/326/326 327/327/327 
f 326/326/326 325/325/325 328/328/328 
f 329/329/329 330/330/330 331/331/331 
f 330/330/330 329/329/329 332/332/332 
f 333/333/333 329/329/329 331/331/331 
f 329/329/329 334/334/334 332/332/332 
f 329/329/329 333/333/333 335/335/335 
f 329/329/329 336/336/336 334/334/334 
f 329/329/329 335/335/335 336/336/336 
f 337/337/337 338/338/338 339/339/339 
f 338/338/338 337/337/337 340/340/340 
f 341/341/341 340/340/340 337/337/337 
f 340/340/340 341/341/341 342/342/342 
f 343/343/343 344/344/344 345/345/345 
f 343/343/343 345/345/345 346/346/346 
f 347/347/347 348/348/348 349/349/349 
f 348/348/348 347/347/347 350/350/350 

