# This file is brought to you by Roblox Corporation
# Generated by Roblox Studio

mtllib catwithredcap.mtl

g Pet1

v -0.267157 0.421992 -1.39505 
v 0.30384 0.974091 -1.40174 
v 0.305885 0.423633 -1.39289 
v -0.269201 0.972459 -1.4039 
v 0.109936 -1.33934 1.03666 
v 0.504333 -1.33934 0.581246 
v 0.544783 -1.33934 0.994054 
v 0.0694859 -1.33934 0.623855 
v -0.500496 -1.33934 0.409792 
v -0.029088 -1.33934 0.0346553 
v -0.0652283 -1.33934 0.447863 
v -0.464356 -1.33934 -0.00341479 
v 0.0865919 -1.33934 0.446184 
v 0.473203 -1.33934 -0.0158609 
v 0.520654 -1.33934 0.396201 
v 0.0391417 -1.33934 0.0341228 
v -0.114016 -1.33934 1.03666 
v -0.508413 -1.33934 0.581246 
v -0.0735661 -1.33934 0.623855 
v -0.548863 -1.33934 0.994054 
v -0.0426188 0.962871 0.591 
v 0.0964957 1.00902 0.463434 
v 0.0404902 0.963361 0.592294 
v -0.0984773 1.00787 0.460399 
v -0.198769 1.07641 0.612938 
v -0.0853696 0.992089 0.656021 
v -0.0450106 1.0218 0.722336 
v -0.105463 1.12583 0.393425 
v 0.104173 1.12707 0.396687 
v 0.0542279 1.25969 0.42866 
v -0.213297 1.19953 0.557434 
v -0.0581041 1.25903 0.426911 
v -0.00351982 1.33031 0.502578 
v -0.115886 1.29852 0.514796 
v -0.104087 1.1461 0.768512 
v -0.0613366 1.33867 0.604429 
v -0.111495 1.27447 0.724709 
v 0.0908856 1.14725 0.771548 
v 0.0380984 1.02229 0.72363 
v 0.0808492 0.993069 0.658609 
v 0.0981404 1.2757 0.727971 
v 0.0509962 1.33934 0.606177 
v 0.108778 1.29985 0.518293 
v 0.0542279 1.25969 0.42866 
v 0.205974 1.202 0.56396 
v 0.104173 1.12707 0.396687 
v 0.0964957 1.00902 0.463434 
v 0.191177 1.07871 0.619008 
v 0.0404902 0.963361 0.592294 
v 0.00346205 -1.01992 -0.349636 
v -0.827362 -0.275074 -0.349636 
v 0.0034598 0.426033 -0.349778 
v -0.853845 0.444918 -0.349741 
v -0.853837 -0.99684 -0.349636 
v 0.83457 -0.275074 -0.349636 
v 0.860768 -0.99684 -0.349636 
v 0.86076 0.443801 -0.349808 
v 0.00346185 -1.12266 0.978856 
v 0.853267 -1.12016 1.09086 
v 0.0034618 -1.10957 1.36497 
v 0.860767 -1.08233 1.36497 
v -0.853838 -1.08233 1.36497 
v 0.846097 -1.13122 0.828585 
v -0.846008 -1.1207 0.872929 
v 0.00346191 -1.13611 0.609401 
v 0.853537 -1.09368 0.130874 
v -0.838508 -1.13228 0.402118 
v 0.00346199 -1.09368 0.0566858 
v 0.860768 -0.99684 -0.349636 
v -0.846608 -1.09368 -0.0175021 
v 0.00346205 -1.01992 -0.349636 
v -0.853837 -0.99684 -0.349636 
v -0.226413 0.658514 0.424526 
v 0.163203 0.837762 0.488408 
v 0.222334 0.658514 0.424526 
v -0.167283 0.837762 0.488408 
v -0.450787 0.69865 0.809908 
v -0.00203934 1.05739 0.596424 
v -0.332525 0.892019 0.751129 
v -0.167283 0.946275 1.03215 
v -0.226413 0.775718 1.19529 
v 0.163203 0.946275 1.03215 
v 0.222333 0.775718 1.19529 
v 0.446707 0.69865 0.809908 
v 0.328444 0.892019 0.751129 
v 0.163203 0.837762 0.488408 
v 0.222334 0.658514 0.424526 
v -0.88698 -0.296689 1.36497 
v -0.846008 -1.1207 0.872929 
v -0.853838 -1.08233 1.36497 
v -0.838508 -0.346707 0.402109 
v -0.838508 -1.13228 0.402118 
v -0.846608 -1.09368 -0.0175021 
v -0.838778 0.399933 0.403012 
v -0.85293 0.518381 1.36059 
v -0.827362 -0.275074 -0.349636 
v -0.853837 -0.99684 -0.349636 
v -0.853845 0.444918 -0.349741 
v 0.853267 -1.12016 1.09086 
v 0.88698 -0.296689 1.36497 
v 0.860767 -1.08233 1.36497 
v 0.846097 -0.345582 0.828585 
v 0.846097 -1.13122 0.828585 
v 0.853537 -1.09368 0.130874 
v 0.846765 0.407666 0.82667 
v 0.86037 0.476133 1.36687 
v 0.83457 -0.275074 -0.349636 
v 0.860768 -0.99684 -0.349636 
v 0.86076 0.443801 -0.349808 
v 0.156645 -0.75368 1.36496 
v 0.627591 -0.934354 1.4039 
v 0.538906 -0.754147 1.36496 
v 0.0743233 -0.931198 1.4039 
v 0.524826 -1.13199 1.4039 
v 0.64263 -1.13225 1.4039 
v 0.571393 -1.31844 1.36496 
v 0.673549 -1.3187 1.36496 
v 0.433452 -1.31778 1.36496 
v 0.535603 -1.31804 1.36496 
v 0.407023 -1.13173 1.4039 
v 0.289219 -1.13147 1.4039 
v 0.39639 -1.31801 1.36496 
v 0.297455 -1.31776 1.36496 
v 0.171415 -1.13122 1.4039 
v 0.255649 -1.31734 1.36496 
v 0.150292 -1.31708 1.36496 
v 0.053612 -1.13096 1.4039 
v 0.112593 -1.3173 1.36496 
v 0.013667 -1.31706 1.36496 
v -0.853838 -1.08233 1.36497 
v 0.0034618 -1.10957 1.36497 
v -0.88698 -0.296689 1.36497 
v 0.0037198 0.524178 1.36373 
v -0.85293 0.518381 1.36059 
v 0.88698 -0.296689 1.36497 
v 0.86037 0.476133 1.36687 
v 0.860767 -1.08233 1.36497 
v 0.570044 0.46106 1.3429 
v 0.334536 0.687531 1.34309 
v 0.294126 0.433137 1.3429 
v 0.416509 0.886962 1.34309 
v 0.605357 1.08432 1.34309 
v 0.829875 0.660129 1.34309 
v 0.570044 0.46106 1.3429 
v 0.847733 0.445701 1.3429 
v 0.770848 0.867367 1.34309 
v 0.605357 1.08432 1.34309 
v -0.327012 0.711946 1.33684 
v -0.561886 0.483963 1.33667 
v -0.282354 0.484969 1.33667 
v -0.409778 0.910887 1.33684 
v -0.599417 1.1071 1.33684 
v -0.561886 0.483963 1.33667 
v -0.822169 0.681456 1.33684 
v -0.839522 0.467508 1.33667 
v -0.763989 0.88908 1.33684 
v -0.599417 1.1071 1.33684 
v -0.253401 0.641554 0.374154 
v 0.288206 0.364087 0.344783 
v -0.292286 0.364087 0.344783 
v 0.249322 0.641554 0.374154 
v -0.582533 0.385048 0.835638 
v -0.226413 0.658514 0.424526 
v 0.222334 0.658514 0.424526 
v -0.504763 0.686517 0.80589 
v -0.450787 0.69865 0.809908 
v -0.253401 0.772855 1.23763 
v -0.226413 0.775718 1.19529 
v -0.292286 0.493714 1.34184 
v 0.222333 0.775718 1.19529 
v 0.249321 0.772855 1.23763 
v 0.288206 0.493714 1.34184 
v 0.446707 0.69865 0.809908 
v 0.578453 0.385048 0.835638 
v 0.500683 0.686517 0.80589 
v 0.222334 0.658514 0.424526 
v 0.249322 0.641554 0.374154 
v 0.288206 0.364087 0.344783 
v -0.85293 0.518381 1.36059 
v 0.0037198 0.524178 1.36373 
v 0.00360666 0.403008 0.607939 
v -0.838778 0.399933 0.403012 
v 0.846765 0.407666 0.82667 
v 0.86037 0.476133 1.36687 
v 0.86076 0.443801 -0.349808 
v 0.0034598 0.426033 -0.349778 
v -0.853845 0.444918 -0.349741 
v 0.473203 -1.33934 -0.0158609 
v 0.0391417 -1.33934 0.0341228 
v 0.0768105 -1.19178 0.0624481 
v 0.442958 -1.19178 0.0202853 
v 0.085026 -1.02597 0.0686258 
v 0.436363 -1.02597 0.0281686 
v -0.464356 -1.33934 -0.00341479 
v -0.0659663 -1.19178 0.0640028 
v -0.029088 -1.33934 0.0346553 
v -0.433132 -1.19178 0.0318892 
v -0.0740093 -1.02597 0.0704025 
v -0.426323 -1.02597 0.0395887 
v -0.500496 -1.33934 0.409792 
v -0.433132 -1.19178 0.0318892 
v -0.464356 -1.33934 -0.00341479 
v -0.463618 -1.19178 0.380446 
v -0.426323 -1.02597 0.0395887 
v -0.455575 -1.02597 0.374045 
v -0.47756 -1.19178 0.616874 
v -0.548863 -1.33934 0.994054 
v -0.51168 -1.19178 0.965093 
v -0.508413 -1.33934 0.581246 
v -0.470831 -1.02597 0.624644 
v -0.503571 -1.02597 0.958777 
v 0.442958 -1.19178 0.0202853 
v 0.482984 -1.19178 0.367875 
v 0.520654 -1.33934 0.396201 
v 0.473203 -1.33934 -0.0158609 
v 0.436363 -1.02597 0.0281686 
v 0.474769 -1.02597 0.361698 
v 0.473479 -1.19178 0.616874 
v 0.5076 -1.19178 0.965093 
v 0.544783 -1.33934 0.994054 
v 0.504333 -1.33934 0.581246 
v 0.46675 -1.02597 0.624644 
v 0.499491 -1.02597 0.958777 
v -0.51168 -1.19178 0.965093 
v -0.114016 -1.33934 1.03666 
v -0.14487 -1.19178 1.00104 
v -0.548863 -1.33934 0.994054 
v -0.503571 -1.02597 0.958777 
v -0.151598 -1.02597 0.993266 
v 0.5076 -1.19178 0.965093 
v 0.14079 -1.19178 1.00104 
v 0.109936 -1.33934 1.03666 
v 0.544783 -1.33934 0.994054 
v 0.499491 -1.02597 0.958777 
v 0.147518 -1.02597 0.993266 
v 0.227879 0.427203 -0.983125 
v -0.198646 0.425884 -0.984312 
v -0.267157 0.421992 -1.39505 
v 0.305885 0.423633 -1.39289 
v 0.168774 0.0228708 -0.328174 
v -0.151858 0.0218292 -0.328812 
v -0.269201 0.972459 -1.4039 
v -0.198646 0.425884 -0.984312 
v -0.20004 0.783765 -0.847453 
v -0.267157 0.421992 -1.39505 
v -0.151228 0.402332 -0.32692 
v -0.151858 0.0218292 -0.328812 
v -0.282354 0.484969 1.33667 
v -0.41849 0.694957 1.12808 
v -0.327012 0.711946 1.33684 
v -0.385083 0.459116 1.05767 
v -0.474116 0.878829 1.18931 
v -0.409778 0.910887 1.33684 
v -0.599417 1.1071 1.33684 
v -0.582599 0.850536 1.07885 
v -0.571231 0.674202 0.969492 
v -0.555494 0.425148 0.860295 
v -0.731505 0.439152 1.05767 
v -0.727363 0.675945 1.12808 
v -0.839522 0.467508 1.33667 
v -0.822169 0.681456 1.33684 
v -0.695069 0.865225 1.18931 
v -0.763989 0.88908 1.33684 
v 0.226485 0.785082 -0.846267 
v -0.269201 0.972459 -1.4039 
v -0.20004 0.783765 -0.847453 
v 0.30384 0.974091 -1.40174 
v 0.169403 0.40338 -0.326281 
v -0.151228 0.402332 -0.32692 
v 0.847733 0.445701 1.3429 
v 0.737044 0.653917 1.13432 
v 0.829875 0.660129 1.34309 
v 0.742747 0.415871 1.06391 
v 0.703214 0.843018 1.19555 
v 0.770848 0.867367 1.34309 
v 0.605357 1.08432 1.34309 
v 0.592174 0.827562 1.08509 
v 0.582924 0.651095 0.975731 
v 0.569494 0.400447 0.866534 
v 0.396322 0.435123 1.06391 
v 0.428058 0.671016 1.13432 
v 0.294126 0.433137 1.3429 
v 0.334536 0.687531 1.34309 
v 0.482182 0.855249 1.19555 
v 0.416509 0.886962 1.34309 
v 0.227879 0.427203 -0.983125 
v 0.30384 0.974091 -1.40174 
v 0.226485 0.785082 -0.846267 
v 0.305885 0.423633 -1.39289 
v 0.169403 0.40338 -0.326281 
v 0.168774 0.0228708 -0.328174 
v 0.504333 -1.33934 0.581246 
v 0.0694859 -1.33934 0.623855 
v 0.106669 -1.19178 0.652817 
v 0.473479 -1.19178 0.616874 
v 0.114778 -1.02597 0.659132 
v 0.46675 -1.02597 0.624644 
v -0.508413 -1.33934 0.581246 
v -0.110749 -1.19178 0.652817 
v -0.0735661 -1.33934 0.623855 
v -0.47756 -1.19178 0.616874 
v -0.118858 -1.02597 0.659132 
v -0.470831 -1.02597 0.624644 
v 0.14079 -1.19178 1.00104 
v 0.0694859 -1.33934 0.623855 
v 0.109936 -1.33934 1.03666 
v 0.106669 -1.19178 0.652817 
v 0.147518 -1.02597 0.993266 
v 0.114778 -1.02597 0.659132 
v 0.116837 -1.19178 0.410039 
v 0.0391417 -1.33934 0.0341228 
v 0.0865919 -1.33934 0.446184 
v 0.0768105 -1.19178 0.0624481 
v 0.123433 -1.02597 0.402155 
v 0.085026 -1.02597 0.0686258 
v -0.114016 -1.33934 1.03666 
v -0.0735661 -1.33934 0.623855 
v -0.14487 -1.19178 1.00104 
v -0.110749 -1.19178 0.652817 
v -0.151598 -1.02597 0.993266 
v -0.118858 -1.02597 0.659132 
v -0.0964523 -1.19178 0.412559 
v -0.029088 -1.33934 0.0346553 
v -0.0659663 -1.19178 0.0640028 
v -0.0652283 -1.33934 0.447863 
v -0.103262 -1.02597 0.40486 
v -0.0740093 -1.02597 0.0704025 
v -0.463618 -1.19178 0.380446 
v -0.0652283 -1.33934 0.447863 
v -0.0964523 -1.19178 0.412559 
v -0.500496 -1.33934 0.409792 
v -0.455575 -1.02597 0.374045 
v -0.103262 -1.02597 0.40486 
v 0.482984 -1.19178 0.367875 
v 0.116837 -1.19178 0.410039 
v 0.0865919 -1.33934 0.446184 
v 0.520654 -1.33934 0.396201 
v 0.474769 -1.02597 0.361698 
v 0.123433 -1.02597 0.402155 
v 0.156645 -0.746938 1.35959 
v 0.538906 -0.747406 1.35959 
v 0.627591 -0.934354 1.39853 
v 0.0743233 -0.931198 1.39853 
v 0.524826 -1.13199 1.39853 
v 0.64263 -1.13225 1.39853 
v 0.571393 -1.31844 1.35959 
v 0.673549 -1.3187 1.35959 
v 0.433452 -1.31778 1.35959 
v 0.535603 -1.31804 1.35959 
v 0.407023 -1.13173 1.39853 
v 0.289219 -1.13147 1.39853 
v 0.39639 -1.31801 1.35959 
v 0.297455 -1.31776 1.35959 
v 0.171415 -1.13122 1.39853 
v 0.255649 -1.31734 1.35959 
v 0.150292 -1.31708 1.35959 
v 0.053612 -1.13096 1.39853 
v 0.112593 -1.3173 1.35959 
v 0.013667 -1.31706 1.35959 

vn 0 -0.015748 -1 
vn 0 -0.015748 -1 
vn 0 -0.015748 -1 
vn 0 -0.015748 -1 
vn 0 -1 0 
vn 0 -1 0 
vn 0 -1 0 
vn 0 -1 0 
vn 0 -1 0 
vn 0 -1 0 
vn 0 -1 0 
vn 0 -1 0 
vn 0 -1 0 
vn 0 -1 0 
vn 0 -1 0 
vn 0 -1 0 
vn 0 -1 0 
vn 0 -1 0 
vn 0 -1 0 
vn 0 -1 0 
vn -0.307087 -0.929134 -0.188976 
vn 0.448819 -0.748031 -0.480315 
vn 0.330709 -0.929134 -0.181102 
vn -0.425197 -0.755906 -0.496063 
vn -0.874016 -0.448819 0.188976 
vn -0.637795 -0.700787 0.307087 
vn -0.330709 -0.464567 0.818898 
vn -0.456693 -0.0472441 -0.889764 
vn 0.488189 -0.0393701 -0.874016 
vn 0.275591 0.590551 -0.76378 
vn -0.944882 0.283465 -0.149606 
vn -0.251969 0.590551 -0.771654 
vn 0 0.913386 -0.409449 
vn -0.527559 0.771654 -0.354331 
vn -0.448819 -0.125984 0.88189 
vn -0.267717 0.96063 0.0629921 
vn -0.488189 0.622047 0.606299 
vn 0.425197 -0.11811 0.897638 
vn 0.314961 -0.456693 0.834646 
vn 0.653543 -0.685039 0.322835 
vn 0.456693 0.629921 0.622047 
vn 0.259843 0.96063 0.0708661 
vn 0.527559 0.779528 -0.338583 
vn 0.275591 0.590551 -0.76378 
vn 0.944882 0.299213 -0.11811 
vn 0.488189 -0.0393701 -0.874016 
vn 0.448819 -0.748031 -0.480315 
vn 0.874016 -0.433071 0.212598 
vn 0.330709 -0.929134 -0.181102 
vn 0 0 -1 
vn 0 0 -1 
vn 0 0 -1 
vn 0 0 -1 
vn 0 0 -1 
vn 0 0 -1 
vn 0 0 -1 
vn 0 0 -1 
vn -0.00787402 -1 0.0472441 
vn 0.00787402 -1 0.0629921 
vn -0.00787402 -1 0.0629921 
vn 0.015748 -1 0.0787402 
vn -0.023622 -1 0.0551181 
vn 0.00787402 -1 -0.023622 
vn -0.015748 -1 0.0472441 
vn 0.00787402 -1 -0.0314961 
vn 0.015748 -0.992126 -0.110236 
vn 0 -1 -0.0393701 
vn 0.015748 -0.992126 -0.125984 
vn 0.023622 -0.984252 -0.188976 
vn 0.00787402 -0.992126 -0.149606 
vn 0.00787402 -0.976378 -0.204724 
vn 0 -0.976378 -0.228346 
vn -0.425197 0.393701 -0.811024 
vn 0.370079 0.496063 -0.787402 
vn 0.425197 0.393701 -0.811024 
vn -0.370079 0.496063 -0.787402 
vn -0.84252 0.519685 -0.102362 
vn 0 0.952756 -0.314961 
vn -0.692913 0.700787 -0.165354 
vn -0.322835 0.866142 0.377953 
vn -0.417323 0.700787 0.582677 
vn 0.322835 0.866142 0.377953 
vn 0.417323 0.700787 0.582677 
vn 0.84252 0.519685 -0.102362 
vn 0.692913 0.700787 -0.165354 
vn 0.370079 0.496063 -0.787402 
vn 0.425197 0.393701 -0.811024 
vn -1 0 -0.0393701 
vn -1 -0.015748 -0.023622 
vn -1 -0.0314961 -0.0393701 
vn -1 0 -0.015748 
vn -1 0 0 
vn -1 0.015748 0.00787402 
vn -1 0.00787402 -0.023622 
vn -1 0.023622 -0.0314961 
vn -1 0 0 
vn -1 0.023622 0 
vn -1 -0.015748 0 
vn 1 -0.00787402 -0.0393701 
vn 1 0 -0.0551181 
vn 1 -0.023622 -0.0551181 
vn 1 0 -0.00787402 
vn 1 0 0 
vn 1 0.00787402 0.00787402 
vn 1 -0.00787402 -0.015748 
vn 1 0.015748 -0.0551181 
vn 1 0 0 
vn 1 0.023622 0 
vn 1 -0.015748 0 
vn 0 0.212598 0.976378 
vn 0 0.141732 0.992126 
vn 0 0.212598 0.976378 
vn 0 0.0393701 1 
vn 0 -0.102362 0.992126 
vn 0 -0.102362 0.992126 
vn 0 -0.204724 0.976378 
vn 0 -0.204724 0.976378 
vn 0 -0.204724 0.976378 
vn 0 -0.204724 0.976378 
vn 0 -0.102362 0.992126 
vn 0 -0.102362 0.992126 
vn 0 -0.204724 0.976378 
vn 0 -0.204724 0.976378 
vn 0 -0.102362 0.992126 
vn 0 -0.204724 0.976378 
vn 0 -0.204724 0.976378 
vn 0 -0.102362 0.992126 
vn 0 -0.204724 0.976378 
vn 0 -0.204724 0.976378 
vn 0 0 1 
vn 0 0 1 
vn 0 0 1 
vn 0 0 1 
vn 0 0 1 
vn 0 0 1 
vn 0 0 1 
vn 0 0 1 
vn 0 0 1 
vn 0 0 1 
vn 0 0 1 
vn 0 0 1 
vn 0 0 1 
vn 0 0 1 
vn 0 0 1 
vn 0 0 1 
vn 0 0 1 
vn 0 0 1 
vn 0 0 1 
vn 0 0 1 
vn 0 0 1 
vn 0 0 1 
vn 0 0 1 
vn 0 0 1 
vn 0 0 1 
vn 0 0 1 
vn 0 0 1 
vn 0 0 1 
vn -0.330709 0.692913 -0.645669 
vn 0.480315 0.15748 -0.858268 
vn -0.480315 0.15748 -0.858268 
vn 0.330709 0.692913 -0.645669 
vn -0.968504 0.251969 -0.0393701 
vn -0.102362 0.96063 -0.267717 
vn 0.102362 0.96063 -0.267717 
vn -0.661417 0.740157 -0.110236 
vn -0.204724 0.968504 -0.141732 
vn -0.338583 0.826772 0.440945 
vn -0.110236 0.992126 0 
vn -0.496063 0.362205 0.795276 
vn 0.110236 0.992126 0 
vn 0.338583 0.826772 0.440945 
vn 0.496063 0.362205 0.795276 
vn 0.204724 0.968504 -0.141732 
vn 0.968504 0.251969 -0.0393701 
vn 0.661417 0.740157 -0.110236 
vn 0.102362 0.96063 -0.267717 
vn 0.330709 0.692913 -0.645669 
vn 0.480315 0.15748 -0.858268 
vn 0.015748 0.992126 -0.141732 
vn 0.023622 0.992126 -0.141732 
vn 0.00787402 1 -0.0472441 
vn 0.00787402 1 -0.0393701 
vn 0.00787402 1 -0.0551181 
vn 0.0472441 0.992126 -0.141732 
vn -0.015748 1 0.0314961 
vn -0.00787402 1 0.0314961 
vn 0.00787402 1 0.0393701 
vn -0.110236 0.212598 -0.968504 
vn -0.110236 0.212598 -0.968504 
vn -0.110236 0.133858 -0.984252 
vn -0.110236 0.133858 -0.984252 
vn -0.110236 0.0393701 -0.992126 
vn -0.110236 0.0393701 -0.992126 
vn 0.0866142 0.212598 -0.976378 
vn 0.0866142 0.133858 -0.984252 
vn 0.0866142 0.212598 -0.976378 
vn 0.0866142 0.133858 -0.984252 
vn 0.0866142 0.0393701 -0.992126 
vn 0.0866142 0.0393701 -0.992126 
vn -0.968504 0.228346 -0.0866142 
vn -0.984252 0.141732 -0.0866142 
vn -0.968504 0.228346 -0.0866142 
vn -0.984252 0.141732 -0.0866142 
vn -0.992126 0.0472441 -0.0866142 
vn -0.992126 0.0472441 -0.0866142 
vn -0.984252 0.141732 -0.0944882 
vn -0.968504 0.228346 -0.0944882 
vn -0.984252 0.141732 -0.0944882 
vn -0.968504 0.228346 -0.0944882 
vn -0.992126 0.0472441 -0.0944882 
vn -0.992126 0.0472441 -0.0944882 
vn 0.984252 0.141732 -0.110236 
vn 0.984252 0.141732 -0.110236 
vn 0.968504 0.228346 -0.110236 
vn 0.968504 0.228346 -0.110236 
vn 0.992126 0.0472441 -0.110236 
vn 0.992126 0.0472441 -0.110236 
vn 0.984252 0.141732 -0.0944882 
vn 0.984252 0.141732 -0.0944882 
vn 0.968504 0.228346 -0.0944882 
vn 0.968504 0.228346 -0.0944882 
vn 0.992126 0.0472441 -0.0944882 
vn 0.992126 0.0472441 -0.0944882 
vn -0.0944882 0.133858 0.984252 
vn -0.0944882 0.212598 0.968504 
vn -0.0944882 0.133858 0.984252 
vn -0.0944882 0.212598 0.968504 
vn -0.0944882 0.0393701 0.992126 
vn -0.0944882 0.0393701 0.992126 
vn 0.0944882 0.133858 0.984252 
vn 0.0944882 0.133858 0.984252 
vn 0.0944882 0.212598 0.968504 
vn 0.0944882 0.212598 0.968504 
vn 0.0944882 0.0393701 0.992126 
vn 0.0944882 0.0393701 0.992126 
vn 0 -0.952756 -0.291339 
vn 0 -0.952756 -0.291339 
vn 0 -1 0.00787402 
vn 0 -1 0.00787402 
vn 0.00787402 -0.850394 -0.527559 
vn 0.00787402 -0.850394 -0.527559 
vn -0.992126 -0.023622 0.133858 
vn -0.992126 -0.015748 0.102362 
vn -0.992126 -0.015748 0.102362 
vn -0.992126 -0.023622 0.133858 
vn -1 -0.015748 0.0708661 
vn -1 -0.015748 0.0708661 
vn 0.905512 0.165354 -0.377953 
vn 0.787402 0.299213 -0.543307 
vn 0.88189 0.251969 -0.401575 
vn 0.818898 0.228346 -0.535433 
vn 0.677165 0.496063 -0.543307 
vn 0.771654 0.472441 -0.425197 
vn -0.00787402 0.755906 -0.653543 
vn -0.00787402 0.614173 -0.787402 
vn 0 0.448819 -0.897638 
vn 0 0.377953 -0.929134 
vn -0.818898 0.212598 -0.535433 
vn -0.787402 0.283465 -0.551181 
vn -0.905512 0.149606 -0.385827 
vn -0.88189 0.228346 -0.409449 
vn -0.685039 0.480315 -0.543307 
vn -0.787402 0.448819 -0.425197 
vn -0.00787402 0.897638 0.440945 
vn 0 0.944882 0.322835 
vn -0.00787402 0.897638 0.440945 
vn 0 0.944882 0.322835 
vn -0.00787402 0.811024 0.590551 
vn -0.00787402 0.811024 0.590551 
vn 0.92126 0.110236 -0.377953 
vn 0.80315 0.251969 -0.543307 
vn 0.897638 0.188976 -0.401575 
vn 0.826772 0.173228 -0.535433 
vn 0.708661 0.456693 -0.543307 
vn 0.80315 0.417323 -0.425197 
vn 0.0393701 0.755906 -0.653543 
vn 0.0314961 0.614173 -0.787402 
vn 0.023622 0.440945 -0.897638 
vn 0.023622 0.377953 -0.929134 
vn -0.80315 0.259843 -0.535433 
vn -0.771654 0.330709 -0.551181 
vn -0.897638 0.204724 -0.385827 
vn -0.866142 0.283465 -0.409449 
vn -0.653543 0.519685 -0.543307 
vn -0.755906 0.496063 -0.425197 
vn 0.992126 -0.015748 0.125984 
vn 0.984252 -0.015748 0.15748 
vn 0.992126 -0.015748 0.125984 
vn 0.984252 -0.015748 0.15748 
vn 0.992126 -0.015748 0.0866142 
vn 0.992126 -0.015748 0.0866142 
vn -0.0944882 0.212598 -0.968504 
vn -0.0944882 0.212598 -0.968504 
vn -0.0944882 0.133858 -0.984252 
vn -0.0944882 0.133858 -0.984252 
vn -0.0944882 0.0393701 -0.992126 
vn -0.0944882 0.0393701 -0.992126 
vn 0.0944882 0.212598 -0.968504 
vn 0.0944882 0.133858 -0.984252 
vn 0.0944882 0.212598 -0.968504 
vn 0.0944882 0.133858 -0.984252 
vn 0.0944882 0.0393701 -0.992126 
vn 0.0944882 0.0393701 -0.992126 
vn -0.984252 0.141732 0.0944882 
vn -0.968504 0.228346 0.0944882 
vn -0.968504 0.228346 0.0944882 
vn -0.984252 0.141732 0.0944882 
vn -0.992126 0.0472441 0.0944882 
vn -0.992126 0.0472441 0.0944882 
vn -0.984252 0.141732 0.110236 
vn -0.968504 0.228346 0.110236 
vn -0.968504 0.228346 0.110236 
vn -0.984252 0.141732 0.110236 
vn -0.992126 0.0472441 0.110236 
vn -0.992126 0.0472441 0.110236 
vn 0.968504 0.228346 0.0944882 
vn 0.968504 0.228346 0.0944882 
vn 0.984252 0.141732 0.0944882 
vn 0.984252 0.141732 0.0944882 
vn 0.992126 0.0472441 0.0944882 
vn 0.992126 0.0472441 0.0944882 
vn 0.984252 0.141732 0.0866142 
vn 0.968504 0.228346 0.0866142 
vn 0.984252 0.141732 0.0866142 
vn 0.968504 0.228346 0.0866142 
vn 0.992126 0.0472441 0.0866142 
vn 0.992126 0.0472441 0.0866142 
vn -0.0866142 0.133858 0.984252 
vn -0.0866142 0.212598 0.976378 
vn -0.0866142 0.133858 0.984252 
vn -0.0866142 0.212598 0.976378 
vn -0.0866142 0.0393701 0.992126 
vn -0.0866142 0.0393701 0.992126 
vn 0.110236 0.133858 0.984252 
vn 0.110236 0.133858 0.984252 
vn 0.110236 0.212598 0.968504 
vn 0.110236 0.212598 0.968504 
vn 0.110236 0.0393701 0.992126 
vn 0.110236 0.0393701 0.992126 
vn 0 -0.204724 -0.976378 
vn 0 -0.204724 -0.976378 
vn 0 -0.133858 -0.992126 
vn 0 -0.0314961 -1 
vn 0 0.102362 -0.992126 
vn 0 0.102362 -0.992126 
vn 0 0.204724 -0.976378 
vn 0 0.204724 -0.976378 
vn 0 0.204724 -0.976378 
vn 0 0.204724 -0.976378 
vn 0 0.102362 -0.992126 
vn 0 0.102362 -0.992126 
vn 0 0.204724 -0.976378 
vn 0 0.204724 -0.976378 
vn 0 0.102362 -0.992126 
vn 0 0.204724 -0.976378 
vn 0 0.204724 -0.976378 
vn 0 0.102362 -0.992126 
vn 0 0.204724 -0.976378 
vn 0 0.204724 -0.976378 

vt 0.775459 0.785728 
vt 0.854639 0.71003 
vt 0.854966 0.785414 
vt 0.774893 0.710486 
vt 0.812045 0.924665 
vt 0.869687 0.857784 
vt 0.87494 0.918714 
vt 0.804902 0.863912 
vt 0.869687 0.857784 
vt 0.812045 0.924665 
vt 0.804902 0.863912 
vt 0.87494 0.918714 
vt 0.804902 0.863912 
vt 0.87494 0.918714 
vt 0.869687 0.857784 
vt 0.812045 0.924665 
vt 0.812045 0.924665 
vt 0.869687 0.857784 
vt 0.804902 0.863912 
vt 0.87494 0.918714 
vt 0.887452 0.426747 
vt 0.89095 0.458004 
vt 0.880379 0.444921 
vt 0.896818 0.437658 
vt 0.907447 0.419409 
vt 0.899444 0.409095 
vt 0.916975 0.394519 
vt 0.908913 0.44485 
vt 0.904035 0.463505 
vt 0.925394 0.461966 
vt 0.917485 0.428429 
vt 0.924555 0.448561 
vt 0.943297 0.444225 
vt 0.92913 0.437833 
vt 0.92264 0.405874 
vt 0.936783 0.430834 
vt 0.929939 0.417269 
vt 0.942253 0.399318 
vt 0.938991 0.386594 
vt 0.961781 0.385836 
vt 0.945916 0.412577 
vt 0.946552 0.428178 
vt 0.957209 0.430502 
vt 0.965268 0.43864 
vt 0.964112 0.415193 
vt 0.979658 0.42295 
vt 0.984393 0.408399 
vt 0.96434 0.400807 
vt 0.982675 0.392663 
vt 0.707272 0.182523 
vt 0.851696 0.019612 
vt 0.989469 0.182357 
vt 0.992848 0.014168 
vt 0.709917 0.015226 
vt 0.851785 0.345268 
vt 0.710056 0.349963 
vt 0.992703 0.350493 
vt 0.446358 0.183287 
vt 0.425227 0.34988 
vt 0.37072 0.183478 
vt 0.371095 0.351656 
vt 0.370517 0.015319 
vt 0.47667 0.348276 
vt 0.467107 0.016848 
vt 0.518679 0.183061 
vt 0.613751 0.349159 
vt 0.559311 0.018068 
vt 0.626817 0.182752 
vt 0.710056 0.349963 
vt 0.64196 0.016368 
vt 0.707272 0.182523 
vt 0.709917 0.015226 
vt 0.454706 0.56373 
vt 0.518195 0.574358 
vt 0.505034 0.605095 
vt 0.479482 0.546276 
vt 0.424772 0.508913 
vt 0.520891 0.519197 
vt 0.458856 0.510899 
vt 0.465774 0.470969 
vt 0.439226 0.449731 
vt 0.500241 0.449664 
vt 0.488743 0.417664 
vt 0.550147 0.424403 
vt 0.541714 0.458072 
vt 0.570737 0.488833 
vt 0.599344 0.466831 
vt 0.355903 0.171636 
vt 0.254673 0.012641 
vt 0.351848 0.017046 
vt 0.165985 0.169129 
vt 0.162319 0.013066 
vt 0.080291 0.022033 
vt 0.169237 0.320271 
vt 0.362213 0.330025 
vt 0.018462 0.183941 
vt 0.014968 0.042101 
vt 0.017859 0.323063 
vt 0.399182 0.672452 
vt 0.347865 0.831212 
vt 0.346049 0.680053 
vt 0.450833 0.822082 
vt 0.449993 0.670323 
vt 0.585023 0.677583 
vt 0.449837 0.967866 
vt 0.34442 0.979749 
vt 0.677959 0.835995 
vt 0.677831 0.696274 
vt 0.677702 0.975151 
vt 0.762614 0.48433 
vt 0.859609 0.445541 
vt 0.841397 0.484101 
vt 0.745584 0.446383 
vt 0.838361 0.404844 
vt 0.86264 0.40475 
vt 0.847894 0.366401 
vt 0.868948 0.366313 
vt 0.819465 0.366585 
vt 0.840518 0.366497 
vt 0.814083 0.404939 
vt 0.789804 0.405033 
vt 0.811827 0.366551 
vt 0.791437 0.366636 
vt 0.765525 0.405127 
vt 0.782821 0.366737 
vt 0.761107 0.366828 
vt 0.741246 0.405221 
vt 0.753338 0.366795 
vt 0.73295 0.36688 
vt 0.014233 0.677588 
vt 0.179778 0.673126 
vt 0.006941 0.829242 
vt 0.17801 0.988948 
vt 0.012408 0.986674 
vt 0.347865 0.831212 
vt 0.34442 0.979749 
vt 0.346049 0.680053 
vt 0.982561 0.872614 
vt 0.948486 0.834897 
vt 0.982082 0.829653 
vt 0.917303 0.846534 
vt 0.886143 0.873973 
vt 0.950237 0.911372 
vt 0.982561 0.872614 
vt 0.983126 0.91557 
vt 0.917948 0.900633 
vt 0.886143 0.873973 
vt 0.948486 0.834897 
vt 0.982561 0.872614 
vt 0.982082 0.829653 
vt 0.917303 0.846534 
vt 0.886143 0.873973 
vt 0.982561 0.872614 
vt 0.950237 0.911372 
vt 0.983126 0.91557 
vt 0.917948 0.900633 
vt 0.886143 0.873973 
vt 0.448358 0.568462 
vt 0.475011 0.648918 
vt 0.412849 0.590874 
vt 0.502277 0.614392 
vt 0.374393 0.513462 
vt 0.454706 0.56373 
vt 0.505034 0.605095 
vt 0.417438 0.510115 
vt 0.424772 0.508913 
vt 0.433578 0.445993 
vt 0.439226 0.449731 
vt 0.398168 0.422937 
vt 0.488743 0.417664 
vt 0.487274 0.411334 
vt 0.475127 0.368743 
vt 0.550147 0.424403 
vt 0.566286 0.375729 
vt 0.553239 0.417698 
vt 0.599344 0.466831 
vt 0.607862 0.462591 
vt 0.636102 0.4267 
vt 0.362213 0.330025 
vt 0.356964 0.496741 
vt 0.205935 0.491441 
vt 0.169237 0.320271 
vt 0.245218 0.659681 
vt 0.352497 0.665405 
vt 0.013892 0.658002 
vt 0.017666 0.48936 
vt 0.017859 0.323063 
vt 0.87494 0.918714 
vt 0.812045 0.924665 
vt 0.817685 0.94667 
vt 0.873871 0.941201 
vt 0.822622 0.970809 
vt 0.873533 0.965562 
vt 0.87494 0.918714 
vt 0.817685 0.94667 
vt 0.812045 0.924665 
vt 0.873871 0.941201 
vt 0.822622 0.970809 
vt 0.873533 0.965562 
vt 0.932318 0.927119 
vt 0.873871 0.941201 
vt 0.87494 0.918714 
vt 0.925895 0.948638 
vt 0.873533 0.965562 
vt 0.919815 0.972373 
vt 0.925895 0.948638 
vt 0.87494 0.918714 
vt 0.873871 0.941201 
vt 0.932318 0.927119 
vt 0.919815 0.972373 
vt 0.873533 0.965562 
vt 0.873871 0.941201 
vt 0.925895 0.948638 
vt 0.932318 0.927119 
vt 0.87494 0.918714 
vt 0.873533 0.965562 
vt 0.919815 0.972373 
vt 0.925895 0.948638 
vt 0.873871 0.941201 
vt 0.87494 0.918714 
vt 0.932318 0.927119 
vt 0.919815 0.972373 
vt 0.873533 0.965562 
vt 0.873871 0.941201 
vt 0.812045 0.924665 
vt 0.817685 0.94667 
vt 0.87494 0.918714 
vt 0.873533 0.965562 
vt 0.822622 0.970809 
vt 0.873871 0.941201 
vt 0.817685 0.94667 
vt 0.812045 0.924665 
vt 0.87494 0.918714 
vt 0.873533 0.965562 
vt 0.822622 0.970809 
vt 0.896485 0.617531 
vt 0.951187 0.593349 
vt 0.98691 0.637969 
vt 0.91954 0.672172 
vt 0.871812 0.508537 
vt 0.913576 0.494389 
vt 0.774893 0.710486 
vt 0.735851 0.620575 
vt 0.786939 0.631188 
vt 0.707944 0.671597 
vt 0.788852 0.544097 
vt 0.745815 0.513769 
vt 0.952967 0.695309 
vt 0.936492 0.739527 
vt 0.968189 0.724676 
vt 0.908155 0.713704 
vt 0.956673 0.763552 
vt 0.980524 0.7571 
vt 0.982315 0.801591 
vt 0.935415 0.77456 
vt 0.908354 0.758959 
vt 0.873442 0.738844 
vt 0.869265 0.78182 
vt 0.905649 0.793267 
vt 0.875633 0.829839 
vt 0.908744 0.828266 
vt 0.93656 0.798599 
vt 0.942971 0.822542 
vt 0.845522 0.629674 
vt 0.774893 0.710486 
vt 0.786939 0.631188 
vt 0.854639 0.71003 
vt 0.834375 0.543605 
vt 0.788852 0.544097 
vt 0.875633 0.829839 
vt 0.905649 0.793267 
vt 0.908744 0.828266 
vt 0.869265 0.78182 
vt 0.93656 0.798599 
vt 0.942971 0.822542 
vt 0.982315 0.801591 
vt 0.935415 0.77456 
vt 0.908354 0.758959 
vt 0.873442 0.738844 
vt 0.908155 0.713704 
vt 0.936492 0.739527 
vt 0.952967 0.695309 
vt 0.968189 0.724676 
vt 0.956673 0.763552 
vt 0.980724 0.75709 
vt 0.896485 0.617531 
vt 0.854639 0.71003 
vt 0.845522 0.629674 
vt 0.91954 0.672172 
vt 0.834375 0.543605 
vt 0.871812 0.508537 
vt 0.932318 0.927119 
vt 0.991223 0.952337 
vt 0.977611 0.970758 
vt 0.925895 0.948638 
vt 0.967804 0.992944 
vt 0.919815 0.972373 
vt 0.932318 0.927119 
vt 0.977611 0.970758 
vt 0.991223 0.952337 
vt 0.925895 0.948638 
vt 0.967804 0.992944 
vt 0.919815 0.972373 
vt 0.817685 0.94667 
vt 0.755611 0.944935 
vt 0.812045 0.924665 
vt 0.767955 0.963928 
vt 0.822622 0.970809 
vt 0.776579 0.986853 
vt 0.767955 0.963928 
vt 0.812045 0.924665 
vt 0.755611 0.944935 
vt 0.817685 0.94667 
vt 0.776579 0.986853 
vt 0.822622 0.970809 
vt 0.812045 0.924665 
vt 0.755611 0.944935 
vt 0.817685 0.94667 
vt 0.767955 0.963928 
vt 0.822622 0.970809 
vt 0.776579 0.986853 
vt 0.767955 0.963928 
vt 0.812045 0.924665 
vt 0.817685 0.94667 
vt 0.755611 0.944935 
vt 0.776579 0.986853 
vt 0.822622 0.970809 
vt 0.925895 0.948638 
vt 0.991223 0.952337 
vt 0.977611 0.970758 
vt 0.932318 0.927119 
vt 0.919815 0.972373 
vt 0.967804 0.992944 
vt 0.925895 0.948638 
vt 0.977611 0.970758 
vt 0.991223 0.952337 
vt 0.932318 0.927119 
vt 0.919815 0.972373 
vt 0.967804 0.992944 
vt 0.762614 0.48433 
vt 0.841397 0.484101 
vt 0.859609 0.445541 
vt 0.745584 0.446383 
vt 0.838361 0.404844 
vt 0.86264 0.40475 
vt 0.847894 0.366401 
vt 0.868948 0.366313 
vt 0.819465 0.366585 
vt 0.840518 0.366497 
vt 0.814083 0.404939 
vt 0.789804 0.405033 
vt 0.811827 0.366551 
vt 0.791437 0.366636 
vt 0.765525 0.405127 
vt 0.782821 0.366737 
vt 0.761107 0.366828 
vt 0.741247 0.405221 
vt 0.753338 0.366795 
vt 0.73295 0.36688 

usemtl Pet1Mtl

f 1/1/1 2/2/2 3/3/3 
f 2/2/2 1/1/1 4/4/4 
f 5/5/5 6/6/6 7/7/7 
f 6/6/6 5/5/5 8/8/8 
f 9/9/9 10/10/10 11/11/11 
f 10/10/10 9/9/9 12/12/12 
f 13/13/13 14/14/14 15/15/15 
f 14/14/14 13/13/13 16/16/16 
f 17/17/17 18/18/18 19/19/19 
f 18/18/18 17/17/17 20/20/20 
f 21/21/21 22/22/22 23/23/23 
f 22/22/22 21/21/21 24/24/24 
f 25/25/25 24/24/24 21/21/21 
f 25/25/25 21/21/21 26/26/26 
f 27/27/27 25/25/25 26/26/26 
f 22/22/22 24/24/24 28/28/28 
f 22/22/22 28/28/28 29/29/29 
f 28/28/28 30/30/30 29/29/29 
f 31/31/31 28/28/28 24/24/24 
f 31/31/31 24/24/24 25/25/25 
f 30/30/30 28/28/28 32/32/32 
f 31/31/31 32/32/32 28/28/28 
f 30/30/30 32/32/32 33/33/33 
f 32/32/32 31/31/31 34/34/34 
f 32/32/32 34/34/34 33/33/33 
f 35/35/35 31/31/31 25/25/25 
f 25/25/25 27/27/27 35/35/35 
f 36/36/36 34/34/34 31/31/31 
f 34/34/34 36/36/36 33/33/33 
f 31/31/31 35/35/35 37/37/37 
f 31/31/31 37/37/37 36/36/36 
f 38/38/38 35/35/35 27/27/27 
f 38/38/38 37/37/37 35/35/35 
f 38/38/38 27/27/27 39/39/39 
f 40/40/40 38/38/38 39/39/39 
f 37/37/37 38/38/38 41/41/41 
f 37/37/37 42/42/42 36/36/36 
f 41/41/41 42/42/42 37/37/37 
f 36/36/36 42/42/42 33/33/33 
f 42/42/42 43/43/43 33/33/33 
f 43/43/43 44/44/44 33/33/33 
f 45/45/45 42/42/42 41/41/41 
f 42/42/42 45/45/45 43/43/43 
f 44/44/44 43/43/43 45/45/45 
f 45/45/45 41/41/41 38/38/38 
f 45/45/45 46/46/46 44/44/44 
f 45/45/45 47/47/47 46/46/46 
f 45/45/45 38/38/38 48/48/48 
f 47/47/47 45/45/45 48/48/48 
f 38/38/38 40/40/40 48/48/48 
f 48/48/48 49/49/49 47/47/47 
f 49/49/49 48/48/48 40/40/40 
f 50/50/50 51/51/51 52/52/52 
f 51/51/51 53/53/53 52/52/52 
f 51/51/51 50/50/50 54/54/54 
f 55/55/55 50/50/50 52/52/52 
f 50/50/50 55/55/55 56/56/56 
f 55/55/55 52/52/52 57/57/57 
f 58/58/58 59/59/59 60/60/60 
f 61/61/61 60/60/60 59/59/59 
f 60/60/60 62/62/62 58/58/58 
f 59/59/59 58/58/58 63/63/63 
f 64/64/64 58/58/58 62/62/62 
f 65/65/65 63/63/63 58/58/58 
f 58/58/58 64/64/64 65/65/65 
f 63/63/63 65/65/65 66/66/66 
f 67/67/67 65/65/65 64/64/64 
f 65/65/65 68/68/68 66/66/66 
f 65/65/65 67/67/67 68/68/68 
f 66/66/66 68/68/68 69/69/69 
f 70/70/70 68/68/68 67/67/67 
f 71/71/71 69/69/69 68/68/68 
f 68/68/68 70/70/70 71/71/71 
f 72/72/72 71/71/71 70/70/70 
f 73/73/73 74/74/74 75/75/75 
f 74/74/74 73/73/73 76/76/76 
f 77/77/77 76/76/76 73/73/73 
f 78/78/78 74/74/74 76/76/76 
f 76/76/76 77/77/77 79/79/79 
f 76/76/76 79/79/79 78/78/78 
f 77/77/77 80/80/80 79/79/79 
f 79/79/79 80/80/80 78/78/78 
f 77/77/77 81/81/81 80/80/80 
f 81/81/81 82/82/82 80/80/80 
f 82/82/82 78/78/78 80/80/80 
f 81/81/81 83/83/83 82/82/82 
f 84/84/84 82/82/82 83/83/83 
f 85/85/85 78/78/78 82/82/82 
f 82/82/82 84/84/84 85/85/85 
f 85/85/85 86/86/86 78/78/78 
f 86/86/86 85/85/85 84/84/84 
f 84/84/84 87/87/87 86/86/86 
f 88/88/88 89/89/89 90/90/90 
f 89/89/89 88/88/88 91/91/91 
f 89/89/89 91/91/91 92/92/92 
f 93/93/93 92/92/92 91/91/91 
f 88/88/88 94/94/94 91/91/91 
f 88/88/88 95/95/95 94/94/94 
f 93/93/93 91/91/91 96/96/96 
f 94/94/94 96/96/96 91/91/91 
f 93/93/93 96/96/96 97/97/97 
f 96/96/96 94/94/94 98/98/98 
f 99/99/99 100/100/100 101/101/101 
f 100/100/100 99/99/99 102/102/102 
f 99/99/99 103/103/103 102/102/102 
f 104/104/104 102/102/102 103/103/103 
f 105/105/105 100/100/100 102/102/102 
f 100/100/100 105/105/105 106/106/106 
f 102/102/102 104/104/104 107/107/107 
f 102/102/102 107/107/107 105/105/105 
f 104/104/104 108/108/108 107/107/107 
f 105/105/105 107/107/107 109/109/109 
f 110/110/110 111/111/111 112/112/112 
f 113/113/113 111/111/111 110/110/110 
f 114/114/114 111/111/111 113/113/113 
f 111/111/111 114/114/114 115/115/115 
f 114/114/114 116/116/116 115/115/115 
f 115/115/115 116/116/116 117/117/117 
f 114/114/114 118/118/118 119/119/119 
f 120/120/120 118/118/118 114/114/114 
f 114/114/114 113/113/113 120/120/120 
f 120/120/120 113/113/113 121/121/121 
f 121/121/121 122/122/122 120/120/120 
f 122/122/122 121/121/121 123/123/123 
f 121/121/121 113/113/113 124/124/124 
f 124/124/124 125/125/125 121/121/121 
f 125/125/125 124/124/124 126/126/126 
f 124/124/124 113/113/113 127/127/127 
f 127/127/127 128/128/128 124/124/124 
f 128/128/128 127/127/127 129/129/129 
f 130/130/130 131/131/131 132/132/132 
f 133/133/133 132/132/132 131/131/131 
f 132/132/132 133/133/133 134/134/134 
f 135/135/135 133/133/133 131/131/131 
f 133/133/133 135/135/135 136/136/136 
f 131/131/131 137/137/137 135/135/135 
f 138/138/138 139/139/139 140/140/140 
f 138/138/138 141/141/141 139/139/139 
f 138/138/138 142/142/142 141/141/141 
f 143/143/143 144/144/144 145/145/145 
f 146/146/146 144/144/144 143/143/143 
f 147/147/147 144/144/144 146/146/146 
f 148/148/148 149/149/149 150/150/150 
f 151/151/151 149/149/149 148/148/148 
f 152/152/152 149/149/149 151/151/151 
f 153/153/153 154/154/154 155/155/155 
f 153/153/153 156/156/156 154/154/154 
f 153/153/153 157/157/157 156/156/156 
f 158/158/158 159/159/159 160/160/160 
f 159/159/159 158/158/158 161/161/161 
f 162/162/162 158/158/158 160/160/160 
f 163/163/163 161/161/161 158/158/158 
f 163/163/163 164/164/164 161/161/161 
f 165/165/165 163/163/163 158/158/158 
f 158/158/158 162/162/162 165/165/165 
f 163/163/163 165/165/165 166/166/166 
f 162/162/162 167/167/167 165/165/165 
f 167/167/167 166/166/166 165/165/165 
f 166/166/166 167/167/167 168/168/168 
f 167/167/167 162/162/162 169/169/169 
f 167/167/167 170/170/170 168/168/168 
f 171/171/171 167/167/167 169/169/169 
f 167/167/167 171/171/171 170/170/170 
f 171/171/171 169/169/169 172/172/172 
f 173/173/173 170/170/170 171/171/171 
f 174/174/174 171/171/171 172/172/172 
f 173/173/173 171/171/171 175/175/175 
f 171/171/171 174/174/174 175/175/175 
f 175/175/175 176/176/176 173/173/173 
f 175/175/175 177/177/177 176/176/176 
f 175/175/175 174/174/174 177/177/177 
f 174/174/174 178/178/178 177/177/177 
f 179/179/179 180/180/180 181/181/181 
f 179/179/179 181/181/181 182/182/182 
f 180/180/180 183/183/183 181/181/181 
f 180/180/180 184/184/184 183/183/183 
f 183/183/183 185/185/185 181/181/181 
f 181/181/181 185/185/185 186/186/186 
f 181/181/181 186/186/186 182/182/182 
f 182/182/182 186/186/186 187/187/187 
f 188/188/188 189/189/189 190/190/190 
f 188/188/188 190/190/190 191/191/191 
f 191/191/191 190/190/190 192/192/192 
f 191/191/191 192/192/192 193/193/193 
f 194/194/194 195/195/195 196/196/196 
f 195/195/195 194/194/194 197/197/197 
f 197/197/197 198/198/198 195/195/195 
f 198/198/198 197/197/197 199/199/199 
f 200/200/200 201/201/201 202/202/202 
f 201/201/201 200/200/200 203/203/203 
f 203/203/203 204/204/204 201/201/201 
f 204/204/204 203/203/203 205/205/205 
f 206/206/206 207/207/207 208/208/208 
f 207/207/207 206/206/206 209/209/209 
f 208/208/208 210/210/210 206/206/206 
f 210/210/210 208/208/208 211/211/211 
f 212/212/212 213/213/213 214/214/214 
f 214/214/214 215/215/215 212/212/212 
f 213/213/213 212/212/212 216/216/216 
f 216/216/216 217/217/217 213/213/213 
f 218/218/218 219/219/219 220/220/220 
f 220/220/220 221/221/221 218/218/218 
f 219/219/219 218/218/218 222/222/222 
f 222/222/222 223/223/223 219/219/219 
f 224/224/224 225/225/225 226/226/226 
f 225/225/225 224/224/224 227/227/227 
f 226/226/226 228/228/228 224/224/224 
f 228/228/228 226/226/226 229/229/229 
f 230/230/230 231/231/231 232/232/232 
f 232/232/232 233/233/233 230/230/230 
f 234/234/234 231/231/231 230/230/230 
f 234/234/234 235/235/235 231/231/231 
f 236/236/236 237/237/237 238/238/238 
f 238/238/238 239/239/239 236/236/236 
f 240/240/240 237/237/237 236/236/236 
f 241/241/241 237/237/237 240/240/240 
f 242/242/242 243/243/243 244/244/244 
f 243/243/243 242/242/242 245/245/245 
f 243/243/243 246/246/246 244/244/244 
f 246/246/246 243/243/243 247/247/247 
f 248/248/248 249/249/249 250/250/250 
f 249/249/249 248/248/248 251/251/251 
f 250/250/250 249/249/249 252/252/252 
f 253/253/253 250/250/250 252/252/252 
f 252/252/252 254/254/254 253/253/253 
f 249/249/249 255/255/255 252/252/252 
f 254/254/254 252/252/252 255/255/255 
f 251/251/251 256/256/256 249/249/249 
f 249/249/249 256/256/256 255/255/255 
f 256/256/256 251/251/251 257/257/257 
f 258/258/258 256/256/256 257/257/257 
f 258/258/258 259/259/259 256/256/256 
f 256/256/256 259/259/259 255/255/255 
f 260/260/260 259/259/259 258/258/258 
f 260/260/260 261/261/261 259/259/259 
f 259/259/259 262/262/262 255/255/255 
f 261/261/261 262/262/262 259/259/259 
f 262/262/262 254/254/254 255/255/255 
f 261/261/261 263/263/263 262/262/262 
f 254/254/254 262/262/262 263/263/263 
f 264/264/264 265/265/265 266/266/266 
f 265/265/265 264/264/264 267/267/267 
f 266/266/266 268/268/268 264/264/264 
f 268/268/268 266/266/266 269/269/269 
f 270/270/270 271/271/271 272/272/272 
f 271/271/271 270/270/270 273/273/273 
f 272/272/272 271/271/271 274/274/274 
f 275/275/275 272/272/272 274/274/274 
f 274/274/274 276/276/276 275/275/275 
f 271/271/271 277/277/277 274/274/274 
f 276/276/276 274/274/274 277/277/277 
f 273/273/273 278/278/278 271/271/271 
f 271/271/271 278/278/278 277/277/277 
f 278/278/278 273/273/273 279/279/279 
f 280/280/280 278/278/278 279/279/279 
f 280/280/280 281/281/281 278/278/278 
f 278/278/278 281/281/281 277/277/277 
f 282/282/282 281/281/281 280/280/280 
f 282/282/282 283/283/283 281/281/281 
f 281/281/281 284/284/284 277/277/277 
f 283/283/283 284/284/284 281/281/281 
f 284/284/284 276/276/276 277/277/277 
f 283/283/283 285/285/285 284/284/284 
f 276/276/276 284/284/284 285/285/285 
f 286/286/286 287/287/287 288/288/288 
f 287/287/287 286/286/286 289/289/289 
f 288/288/288 290/290/290 286/286/286 
f 291/291/291 286/286/286 290/290/290 
f 292/292/292 293/293/293 294/294/294 
f 292/292/292 294/294/294 295/295/295 
f 295/295/295 294/294/294 296/296/296 
f 295/295/295 296/296/296 297/297/297 
f 298/298/298 299/299/299 300/300/300 
f 299/299/299 298/298/298 301/301/301 
f 301/301/301 302/302/302 299/299/299 
f 302/302/302 301/301/301 303/303/303 
f 304/304/304 305/305/305 306/306/306 
f 305/305/305 304/304/304 307/307/307 
f 308/308/308 307/307/307 304/304/304 
f 307/307/307 308/308/308 309/309/309 
f 310/310/310 311/311/311 312/312/312 
f 311/311/311 310/310/310 313/313/313 
f 314/314/314 313/313/313 310/310/310 
f 313/313/313 314/314/314 315/315/315 
f 316/316/316 317/317/317 318/318/318 
f 318/318/318 317/317/317 319/319/319 
f 318/318/318 319/319/319 320/320/320 
f 320/320/320 319/319/319 321/321/321 
f 322/322/322 323/323/323 324/324/324 
f 323/323/323 322/322/322 325/325/325 
f 324/324/324 326/326/326 322/322/322 
f 326/326/326 324/324/324 327/327/327 
f 328/328/328 329/329/329 330/330/330 
f 329/329/329 328/328/328 331/331/331 
f 330/330/330 332/332/332 328/328/328 
f 332/332/332 330/330/330 333/333/333 
f 334/334/334 335/335/335 336/336/336 
f 336/336/336 337/337/337 334/334/334 
f 338/338/338 335/335/335 334/334/334 
f 338/338/338 339/339/339 335/335/335 
f 340/340/340 341/341/341 342/342/342 
f 343/343/343 340/340/340 342/342/342 
f 342/342/342 344/344/344 343/343/343 
f 344/344/344 342/342/342 345/345/345 
f 345/345/345 346/346/346 344/344/344 
f 346/346/346 345/345/345 347/347/347 
f 348/348/348 344/344/344 349/349/349 
f 344/344/344 348/348/348 350/350/350 
f 344/344/344 350/350/350 343/343/343 
f 350/350/350 351/351/351 343/343/343 
f 352/352/352 351/351/351 350/350/350 
f 351/351/351 352/352/352 353/353/353 
f 351/351/351 354/354/354 343/343/343 
f 355/355/355 354/354/354 351/351/351 
f 354/354/354 355/355/355 356/356/356 
f 354/354/354 357/357/357 343/343/343 
f 358/358/358 357/357/357 354/354/354 
f 357/357/357 358/358/358 359/359/359 

