# This file is brought to you by Roblox Corporation
# Generated by Roblox Studio

mtllib catskeleton.mtl

g Pet1

v 0.238663 0.712275 -1.30292 
v -0.203927 0.711898 -1.30464 
v 0.0163879 1.04187 -1.21579 
v -0.508365 1.08782 0.887152 
v -0.713227 0.871845 1.21746 
v -0.512948 1.08782 1.14642 
v -0.706009 0.871845 0.809076 
v 0.515432 1.08782 1.1502 
v 0.715646 0.871845 1.22114 
v 0.510717 1.08782 0.890932 
v 0.70822 0.871845 0.812757 
v 0.248058 0.147259 -1.04346 
v -0.217755 0.145999 -1.04408 
v -0.105532 0.621413 -1.26158 
v 0.139163 0.622001 -1.25991 
v 0.28092 0.459056 1.29723 
v 0.852823 0.459056 1.28683 
v 0.715646 0.871845 1.22114 
v 0.376198 0.871845 1.22731 
v 0.515432 1.08782 1.1502 
v 0.307692 1.08782 1.15398 
v 0.48857 1.34615 1.02101 
v -0.278233 0.459056 1.29333 
v -0.713227 0.871845 1.21746 
v -0.850433 0.459056 1.28322 
v -0.373603 0.871845 1.22347 
v -0.512948 1.08782 1.14642 
v -0.3051 1.08782 1.1501 
v -0.486139 1.34615 1.01722 
v 0.139163 0.622001 -1.25991 
v -0.105532 0.621413 -1.26158 
v -0.203927 0.711898 -1.30464 
v 0.238663 0.712275 -1.30292 
v 0.111843 -1.34615 0.974429 
v 0.50624 -1.34615 0.519012 
v 0.54669 -1.34615 0.93182 
v 0.0713931 -1.34615 0.561621 
v -0.529053 -1.34615 0.937857 
v -0.0576451 -1.34615 0.56272 
v -0.0937854 -1.34615 0.975927 
v -0.492913 -1.34615 0.52465 
v -0.498589 -1.34615 0.347558 
v -0.0271808 -1.34615 -0.0275787 
v -0.0633211 -1.34615 0.385629 
v -0.462449 -1.34615 -0.0656488 
v 0.0884992 -1.34615 0.38395 
v 0.475111 -1.34615 -0.0780949 
v 0.522561 -1.34615 0.333967 
v 0.041049 -1.34615 -0.0281112 
v -0.706009 0.871845 0.809076 
v -0.850433 0.459056 1.28322 
v -0.713227 0.871845 1.21746 
v -0.840365 0.380734 0.726054 
v 0.715646 0.871845 1.22114 
v 0.852823 0.459056 1.28683 
v 0.70822 0.871845 0.812757 
v 0.842465 0.380734 0.729668 
v 0.238663 0.712275 -1.30292 
v 0.0163879 1.04187 -1.21579 
v 0.236515 0.766803 -1.00465 
v 0.0163879 1.04187 -1.21579 
v -0.203927 0.711898 -1.30464 
v -0.206075 0.766425 -1.00637 
v -0.85193 -1.08915 1.30274 
v 0.00536903 -1.11639 1.30274 
v -0.885073 -0.303502 1.30274 
v 0.00562703 0.517366 1.3015 
v -0.851023 0.511568 1.29836 
v 0.888887 -0.303502 1.30274 
v 0.862277 0.469321 1.30464 
v 0.862675 -1.08915 1.30274 
v -0.885073 -0.303502 1.30274 
v -0.8441 -1.12751 0.810695 
v -0.85193 -1.08915 1.30274 
v -0.8366 -0.353519 0.339875 
v -0.8366 -1.13909 0.339884 
v -0.8447 -1.10049 -0.0797361 
v -0.83687 0.393121 0.340778 
v -0.851023 0.511568 1.29836 
v -0.825455 -0.281887 -0.41187 
v -0.85193 -1.00365 -0.41187 
v -0.851938 0.438106 -0.411975 
v 0.855174 -1.12697 1.02863 
v 0.888887 -0.303502 1.30274 
v 0.862675 -1.08915 1.30274 
v 0.848005 -0.352394 0.766351 
v 0.848005 -1.13804 0.766351 
v 0.855445 -1.10049 0.0686397 
v 0.848672 0.400853 0.764436 
v 0.862277 0.469321 1.30464 
v 0.836477 -0.281887 -0.41187 
v 0.862675 -1.00365 -0.41187 
v 0.862667 0.436988 -0.412042 
v 0.00536929 -1.02674 -0.41187 
v -0.825455 -0.281887 -0.41187 
v 0.00536704 0.419221 -0.412012 
v -0.851938 0.438106 -0.411975 
v -0.85193 -1.00365 -0.41187 
v 0.836477 -0.281887 -0.41187 
v 0.862675 -1.00365 -0.41187 
v 0.862667 0.436988 -0.412042 
v 0.00536909 -1.12947 0.916622 
v 0.855174 -1.12697 1.02863 
v 0.00536903 -1.11639 1.30274 
v 0.862675 -1.08915 1.30274 
v -0.85193 -1.08915 1.30274 
v 0.848005 -1.13804 0.766351 
v -0.8441 -1.12751 0.810695 
v 0.00536915 -1.14293 0.547167 
v 0.855445 -1.10049 0.0686397 
v -0.8366 -1.13909 0.339884 
v 0.00536923 -1.10049 -0.00554819 
v 0.862675 -1.00365 -0.41187 
v -0.8447 -1.10049 -0.0797361 
v 0.00536929 -1.02674 -0.41187 
v -0.85193 -1.00365 -0.41187 
v -0.851023 0.511568 1.29836 
v 0.00562703 0.517366 1.3015 
v 0.0055139 0.396196 0.545705 
v -0.83687 0.393121 0.340778 
v 0.848672 0.400853 0.764436 
v 0.862277 0.469321 1.30464 
v 0.862667 0.436988 -0.412042 
v 0.00536704 0.419221 -0.412012 
v -0.851938 0.438106 -0.411975 
v 0.335407 0.414283 -0.395403 
v -0.219495 0.469077 -0.854622 
v -0.314163 0.412475 -0.396501 
v 0.246318 0.470336 -0.854002 
v -0.512948 1.08782 1.14642 
v -0.486139 1.34615 1.01722 
v -0.508365 1.08782 0.887152 
v 0.515432 1.08782 1.1502 
v 0.510717 1.08782 0.890932 
v 0.48857 1.34615 1.02101 
v 0.302978 1.08782 0.89471 
v 0.307692 1.08782 1.15398 
v 0.48857 1.34615 1.02101 
v -0.300518 1.08782 0.890825 
v -0.486139 1.34615 1.01722 
v -0.3051 1.08782 1.1501 
v -0.315438 -0.107285 -0.398982 
v -0.219495 0.469077 -0.854622 
v -0.217755 0.145999 -1.04408 
v -0.314163 0.412475 -0.396501 
v -0.105532 0.621413 -1.26158 
v -0.106684 0.669944 -1.0093 
v 0.334132 -0.105488 -0.397883 
v 0.246318 0.470336 -0.854002 
v 0.335407 0.414283 -0.395403 
v 0.248058 0.147259 -1.04346 
v 0.139163 0.622001 -1.25991 
v 0.13801 0.670531 -1.00764 
v 0.509507 -1.19859 0.902859 
v 0.142697 -1.19859 0.938802 
v 0.111843 -1.34615 0.974429 
v 0.54669 -1.34615 0.93182 
v 0.501398 -1.03278 0.896543 
v 0.149425 -1.03278 0.931032 
v -0.492175 -1.19859 0.90851 
v -0.0937854 -1.34615 0.975927 
v -0.125009 -1.19859 0.940623 
v -0.529053 -1.34615 0.937857 
v -0.484132 -1.03278 0.90211 
v -0.131819 -1.03278 0.932924 
v 0.444865 -1.19859 -0.0419487 
v 0.484891 -1.19859 0.305641 
v 0.522561 -1.34615 0.333967 
v 0.475111 -1.34615 -0.0780949 
v 0.43827 -1.03278 -0.0340654 
v 0.476677 -1.03278 0.299464 
v -0.498589 -1.34615 0.347558 
v -0.431225 -1.19859 -0.0303448 
v -0.462449 -1.34615 -0.0656488 
v -0.461711 -1.19859 0.318212 
v -0.424415 -1.03278 -0.0226453 
v -0.453668 -1.03278 0.311811 
v 0.475387 -1.19859 0.55464 
v 0.509507 -1.19859 0.902859 
v 0.54669 -1.34615 0.93182 
v 0.50624 -1.34615 0.519012 
v 0.468658 -1.03278 0.56241 
v 0.501398 -1.03278 0.896543 
v -0.529053 -1.34615 0.937857 
v -0.461689 -1.19859 0.559954 
v -0.492913 -1.34615 0.52465 
v -0.492175 -1.19859 0.90851 
v -0.45488 -1.03278 0.567653 
v -0.484132 -1.03278 0.90211 
v -0.462449 -1.34615 -0.0656488 
v -0.064059 -1.19859 0.00176877 
v -0.0271808 -1.34615 -0.0275787 
v -0.431225 -1.19859 -0.0303448 
v -0.072102 -1.03278 0.00816852 
v -0.424415 -1.03278 -0.0226453 
v 0.475111 -1.34615 -0.0780949 
v 0.041049 -1.34615 -0.0281112 
v 0.0787177 -1.19859 0.000214052 
v 0.444865 -1.19859 -0.0419487 
v 0.0869332 -1.03278 0.00639181 
v 0.43827 -1.03278 -0.0340654 
v 0.334132 -0.105488 -0.397883 
v -0.315438 -0.107285 -0.398982 
v -0.217755 0.145999 -1.04408 
v 0.248058 0.147259 -1.04346 
v 0.830143 -0.482405 0.439373 
v 0.940206 -0.567974 0.439373 
v 0.830143 -0.244683 0.439373 
v 1.01568 -0.10435 0.439373 
v 1.0124 -0.721998 0.439373 
v 1.11742 -0.588511 0.439373 
v 1.199 0.148934 0.439373 
v 1.19631 -0.545737 0.439373 
v 1.30119 -0.561129 0.439373 
v 1.43902 0.00175524 0.439373 
v 1.43902 -0.667234 0.439373 
v 1.53091 -0.530324 0.439373 
v 1.62936 -0.193341 0.439373 
v 1.63264 -0.472137 0.439373 
v 1.7534 -0.458446 0.439373 
v -0.830283 -0.482405 0.41109 
v -0.830283 -0.244683 0.41109 
v -0.940329 -0.567974 0.41109 
v -1.0158 -0.10435 0.41109 
v -1.01252 -0.721998 0.41109 
v -1.11751 -0.588511 0.41109 
v -1.19909 0.148934 0.41109 
v -1.19639 -0.545737 0.41109 
v -1.30126 -0.561129 0.41109 
v -1.43907 0.00175524 0.41109 
v -1.43907 -0.667234 0.41109 
v -1.53094 -0.530324 0.41109 
v -1.62938 -0.193341 0.41109 
v -1.63266 -0.472137 0.41109 
v -1.7534 -0.458446 0.411089 
v -0.939566 -0.35567 0.338767 
v -0.830283 -0.482405 0.41109 
v -0.940329 -0.567974 0.41109 
v -0.829519 -0.363174 0.338768 
v -0.830283 -0.244683 0.41109 
v -1.01339 -0.334287 0.338767 
v -1.01252 -0.721998 0.41109 
v -1.0158 -0.10435 0.41109 
v -1.11751 -0.588511 0.41109 
v -1.11511 -0.281028 0.338767 
v -1.19909 0.148934 0.41109 
v -1.19639 -0.545737 0.41109 
v -1.19698 -0.257408 0.338767 
v -1.29885 -0.252167 0.338767 
v -1.43907 0.00175524 0.41109 
v -1.30126 -0.561129 0.41109 
v -1.4383 -0.275937 0.344545 
v -1.43907 -0.667234 0.41109 
v -1.62938 -0.193341 0.41109 
v -1.53094 -0.530324 0.41109 
v -1.52799 -0.307113 0.354032 
v -1.63266 -0.472137 0.41109 
v -1.61955 -0.344167 0.369575 
v -1.7534 -0.458446 0.411089 
v 0.939442 -0.35567 0.367051 
v 0.830143 -0.482405 0.439373 
v 0.829379 -0.363174 0.367051 
v 0.940206 -0.567974 0.439373 
v 0.830143 -0.244683 0.439373 
v 1.01328 -0.334287 0.367051 
v 1.0124 -0.721998 0.439373 
v 1.01568 -0.10435 0.439373 
v 1.11742 -0.588511 0.439373 
v 1.11501 -0.281028 0.367051 
v 1.199 0.148934 0.439373 
v 1.19631 -0.545737 0.439373 
v 1.19689 -0.257408 0.367051 
v 1.29879 -0.252167 0.367051 
v 1.43902 0.00175524 0.439373 
v 1.30119 -0.561129 0.439373 
v 1.43826 -0.275937 0.372829 
v 1.43902 -0.667234 0.439373 
v 1.62936 -0.193341 0.439373 
v 1.53091 -0.530324 0.439373 
v 1.52796 -0.307113 0.382315 
v 1.63264 -0.472137 0.439373 
v 1.61953 -0.344167 0.397859 
v 1.7534 -0.458446 0.439373 
v 0.368772 0.871845 0.81893 
v 0.28092 0.459056 1.29723 
v 0.376198 0.871845 1.22731 
v 0.270561 0.380734 0.748686 
v -0.278233 0.459056 1.29333 
v -0.366385 0.871845 0.815079 
v -0.373603 0.871845 1.22347 
v -0.268165 0.380734 0.736167 
v 0.484891 -1.19859 0.305641 
v 0.118744 -1.19859 0.347805 
v 0.0884992 -1.34615 0.38395 
v 0.522561 -1.34615 0.333967 
v 0.476677 -1.03278 0.299464 
v 0.12534 -1.03278 0.339921 
v -0.461711 -1.19859 0.318212 
v -0.0633211 -1.34615 0.385629 
v -0.0945451 -1.19859 0.350325 
v -0.498589 -1.34615 0.347558 
v -0.453668 -1.03278 0.311811 
v -0.101354 -1.03278 0.342626 
v -0.268165 0.380734 0.736167 
v -0.706009 0.871845 0.809076 
v -0.366385 0.871845 0.815079 
v -0.840365 0.380734 0.726054 
v -0.508365 1.08782 0.887152 
v -0.300518 1.08782 0.890825 
v -0.486139 1.34615 1.01722 
v -0.125009 -1.19859 0.940623 
v -0.0576451 -1.34615 0.56272 
v -0.0945234 -1.19859 0.592067 
v -0.0937854 -1.34615 0.975927 
v -0.131819 -1.03278 0.932924 
v -0.102566 -1.03278 0.598467 
v 0.142697 -1.19859 0.938802 
v 0.0713931 -1.34615 0.561621 
v 0.111843 -1.34615 0.974429 
v 0.108576 -1.19859 0.590583 
v 0.149425 -1.03278 0.931032 
v 0.116685 -1.03278 0.596898 
v 0.270561 0.380734 0.748686 
v 0.70822 0.871845 0.812757 
v 0.842465 0.380734 0.729668 
v 0.368772 0.871845 0.81893 
v 0.510717 1.08782 0.890932 
v 0.302978 1.08782 0.89471 
v 0.48857 1.34615 1.02101 
v -0.0945451 -1.19859 0.350325 
v -0.0271808 -1.34615 -0.0275787 
v -0.064059 -1.19859 0.00176877 
v -0.0633211 -1.34615 0.385629 
v -0.101354 -1.03278 0.342626 
v -0.072102 -1.03278 0.00816852 
v 0.118744 -1.19859 0.347805 
v 0.041049 -1.34615 -0.0281112 
v 0.0884992 -1.34615 0.38395 
v 0.0787177 -1.19859 0.000214052 
v 0.12534 -1.03278 0.339921 
v 0.0869332 -1.03278 0.00639181 
v 0.50624 -1.34615 0.519012 
v 0.0713931 -1.34615 0.561621 
v 0.108576 -1.19859 0.590583 
v 0.475387 -1.19859 0.55464 
v 0.116685 -1.03278 0.596898 
v 0.468658 -1.03278 0.56241 
v -0.492913 -1.34615 0.52465 
v -0.0945234 -1.19859 0.592067 
v -0.0576451 -1.34615 0.56272 
v -0.461689 -1.19859 0.559954 
v -0.102566 -1.03278 0.598467 
v -0.45488 -1.03278 0.567653 
v -0.206075 0.766425 -1.00637 
v 0.236515 0.766803 -1.00465 
v 0.0163879 1.04187 -1.21579 
v 0.246318 0.470336 -0.854002 
v -0.106684 0.669944 -1.0093 
v -0.219495 0.469077 -0.854622 
v 0.13801 0.670531 -1.00764 
v 0.376198 0.871845 1.22731 
v 0.302978 1.08782 0.89471 
v 0.368772 0.871845 0.81893 
v 0.307692 1.08782 1.15398 
v -0.373603 0.871845 1.22347 
v -0.300518 1.08782 0.890825 
v -0.3051 1.08782 1.1501 
v -0.366385 0.871845 0.815079 
v 0.13801 0.670531 -1.00764 
v 0.139163 0.622001 -1.25991 
v 0.236515 0.766803 -1.00465 
v 0.238663 0.712275 -1.30292 
v -0.206075 0.766425 -1.00637 
v -0.105532 0.621413 -1.26158 
v -0.106684 0.669944 -1.0093 
v -0.203927 0.711898 -1.30464 
v 0.236515 0.766803 -1.00465 
v -0.206075 0.766425 -1.00637 
v -0.106684 0.669944 -1.0093 
v 0.13801 0.670531 -1.00764 

vn 0 0.259843 -0.968504 
vn 0 0.259843 -0.968504 
vn 0 0.259843 -0.968504 
vn -0.732283 0.677165 -0.015748 
vn -0.732283 0.677165 -0.015748 
vn -0.732283 0.677165 -0.015748 
vn -0.732283 0.677165 -0.015748 
vn 0.732283 0.677165 -0.015748 
vn 0.732283 0.677165 -0.015748 
vn 0.732283 0.677165 -0.015748 
vn 0.732283 0.677165 -0.015748 
vn 0.00787402 -0.417323 -0.905512 
vn 0.00787402 -0.417323 -0.905512 
vn 0.00787402 -0.417323 -0.905512 
vn 0.00787402 -0.417323 -0.905512 
vn 0.015748 0.165354 0.984252 
vn 0.015748 0.165354 0.984252 
vn 0.015748 0.244094 0.968504 
vn 0.015748 0.244094 0.968504 
vn 0.015748 0.385827 0.92126 
vn 0.015748 0.385827 0.92126 
vn 0.015748 0.448819 0.889764 
vn -0.015748 0.165354 0.984252 
vn -0.015748 0.244094 0.968504 
vn -0.015748 0.165354 0.984252 
vn -0.015748 0.244094 0.968504 
vn -0.015748 0.385827 0.92126 
vn -0.015748 0.385827 0.92126 
vn -0.015748 0.448819 0.889764 
vn 0.00787402 -0.433071 -0.905512 
vn 0.00787402 -0.433071 -0.905512 
vn 0.00787402 -0.433071 -0.905512 
vn 0.00787402 -0.433071 -0.905512 
vn 0 -1 0 
vn 0 -1 0 
vn 0 -1 0 
vn 0 -1 0 
vn 0 -1 0 
vn 0 -1 0 
vn 0 -1 0 
vn 0 -1 0 
vn 0 -1 0 
vn 0 -1 0 
vn 0 -1 0 
vn 0 -1 0 
vn 0 -1 0 
vn 0 -1 0 
vn 0 -1 0 
vn 0 -1 0 
vn -0.96063 0.291339 -0.0393701 
vn -0.96063 0.291339 -0.0393701 
vn -0.96063 0.291339 -0.0393701 
vn -0.96063 0.291339 -0.0393701 
vn 0.96063 0.291339 -0.0393701 
vn 0.96063 0.291339 -0.0393701 
vn 0.96063 0.291339 -0.0393701 
vn 0.96063 0.291339 -0.0393701 
vn 0.811024 0.574803 -0.102362 
vn 0.811024 0.574803 -0.102362 
vn 0.811024 0.574803 -0.102362 
vn -0.811024 0.574803 -0.110236 
vn -0.811024 0.574803 -0.110236 
vn -0.811024 0.574803 -0.110236 
vn 0 0 1 
vn 0 0 1 
vn 0 0 1 
vn 0 0 1 
vn 0 0 1 
vn 0 0 1 
vn 0 0 1 
vn 0 0 1 
vn -1 0 -0.0393701 
vn -1 -0.015748 -0.023622 
vn -1 -0.0314961 -0.0393701 
vn -1 0 -0.00787402 
vn -1 0 0 
vn -1 0.015748 0.00787402 
vn -1 0 -0.015748 
vn -1 0.023622 -0.0314961 
vn -1 0 0 
vn -1 0.023622 0 
vn -1 -0.015748 0 
vn 1 -0.00787402 -0.0393701 
vn 1 0 -0.0551181 
vn 1 -0.023622 -0.0551181 
vn 1 0 -0.023622 
vn 1 0 -0.00787402 
vn 1 0.00787402 0.00787402 
vn 1 0 -0.023622 
vn 1 0.015748 -0.0551181 
vn 1 0 0 
vn 1 0.023622 0 
vn 1 -0.015748 0 
vn 0 0 -1 
vn 0 0 -1 
vn 0 0 -1 
vn 0 0 -1 
vn 0 0 -1 
vn 0 0 -1 
vn 0 0 -1 
vn 0 0 -1 
vn -0.00787402 -1 0.0551181 
vn 0.00787402 -1 0.0551181 
vn -0.00787402 -1 0.0708661 
vn 0.015748 -1 0.0787402 
vn -0.023622 -1 0.0551181 
vn 0.00787402 -1 -0.015748 
vn -0.015748 -1 0.0472441 
vn 0 -1 -0.023622 
vn 0.015748 -0.992126 -0.125984 
vn 0 -1 -0.023622 
vn 0.00787402 -0.992126 -0.141732 
vn 0.023622 -0.984252 -0.188976 
vn 0.00787402 -0.984252 -0.15748 
vn 0.00787402 -0.976378 -0.204724 
vn 0 -0.976378 -0.228346 
vn 0.015748 0.992126 -0.141732 
vn 0.0314961 0.992126 -0.141732 
vn 0.00787402 1 -0.0551181 
vn 0.00787402 1 -0.0472441 
vn 0.015748 1 -0.0629921 
vn 0.0472441 0.992126 -0.141732 
vn -0.015748 1 0.0314961 
vn -0.00787402 1 0.0314961 
vn 0.00787402 1 0.0393701 
vn 0 0.992126 0.11811 
vn 0 0.992126 0.11811 
vn 0 0.992126 0.11811 
vn 0 0.992126 0.11811 
vn -0.992126 0.0944882 -0.015748 
vn -0.992126 0.0944882 -0.015748 
vn -0.992126 0.0944882 -0.015748 
vn 0.992126 0.0944882 -0.015748 
vn 0.992126 0.0944882 -0.015748 
vn 0.992126 0.0944882 -0.015748 
vn -0.818898 0.582677 0.015748 
vn -0.818898 0.582677 0.015748 
vn -0.818898 0.582677 0.015748 
vn 0.818898 0.582677 0.015748 
vn 0.818898 0.582677 0.015748 
vn 0.818898 0.582677 0.015748 
vn -0.984252 0.0393701 -0.165354 
vn -0.976378 0.125984 -0.173228 
vn -0.976378 0.125984 -0.173228 
vn -0.984252 0.0393701 -0.165354 
vn -0.96063 0.212598 -0.188976 
vn -0.96063 0.212598 -0.188976 
vn 0.992126 0.0314961 -0.149606 
vn 0.976378 0.125984 -0.165354 
vn 0.992126 0.0314961 -0.149606 
vn 0.976378 0.125984 -0.165354 
vn 0.96063 0.212598 -0.173228 
vn 0.96063 0.212598 -0.173228 
vn 0.0944882 0.125984 0.984252 
vn 0.0944882 0.125984 0.984252 
vn 0.0944882 0.212598 0.968504 
vn 0.0944882 0.212598 0.968504 
vn 0.0944882 0.0393701 0.992126 
vn 0.0944882 0.0393701 0.992126 
vn -0.0866142 0.125984 0.984252 
vn -0.0866142 0.212598 0.976378 
vn -0.0866142 0.125984 0.984252 
vn -0.0866142 0.212598 0.976378 
vn -0.0866142 0.0393701 0.992126 
vn -0.0866142 0.0393701 0.992126 
vn 0.984252 0.133858 -0.110236 
vn 0.984252 0.133858 -0.110236 
vn 0.968504 0.228346 -0.110236 
vn 0.968504 0.228346 -0.110236 
vn 0.992126 0.0472441 -0.110236 
vn 0.992126 0.0472441 -0.110236 
vn -0.968504 0.228346 -0.0866142 
vn -0.984252 0.133858 -0.0866142 
vn -0.968504 0.228346 -0.0866142 
vn -0.984252 0.133858 -0.0866142 
vn -0.992126 0.0472441 -0.0866142 
vn -0.992126 0.0472441 -0.0866142 
vn 0.984252 0.133858 -0.0944882 
vn 0.984252 0.133858 -0.0944882 
vn 0.968504 0.228346 -0.0944882 
vn 0.968504 0.228346 -0.0944882 
vn 0.992126 0.0472441 -0.0944882 
vn 0.992126 0.0472441 -0.0944882 
vn -0.968504 0.228346 -0.0866142 
vn -0.984252 0.133858 -0.0866142 
vn -0.968504 0.228346 -0.0866142 
vn -0.984252 0.133858 -0.0866142 
vn -0.992126 0.0472441 -0.0866142 
vn -0.992126 0.0472441 -0.0866142 
vn 0.0866142 0.212598 -0.976378 
vn 0.0866142 0.125984 -0.984252 
vn -0.015748 0.212598 -0.976378 
vn 0.0866142 0.125984 -0.984252 
vn 0.0866142 0.0393701 -0.992126 
vn 0.0866142 0.0393701 -0.992126 
vn -0.110236 0.212598 -0.968504 
vn -0.015748 0.212598 -0.976378 
vn -0.110236 0.125984 -0.984252 
vn -0.110236 0.125984 -0.984252 
vn -0.110236 0.0393701 -0.992126 
vn -0.110236 0.0393701 -0.992126 
vn 0 -0.929134 -0.362205 
vn 0 -0.929134 -0.362205 
vn 0 -0.929134 -0.362205 
vn 0 -0.929134 -0.362205 
vn 0 0 1 
vn 0 0 1 
vn 0 0 1 
vn 0 0 1 
vn 0 0 1 
vn 0 0 1 
vn 0 0 1 
vn 0 0 1 
vn 0 0 1 
vn 0 0 1 
vn 0 0 1 
vn 0 0 1 
vn 0 0 1 
vn 0 0 1 
vn 0 0 1 
vn 0 0 1 
vn 0 0 1 
vn 0 0 1 
vn 0 0 1 
vn 0 0 1 
vn 0 0 1 
vn 0 0 1 
vn 0 0 1 
vn 0 0 1 
vn 0 0 1 
vn 0 0 1 
vn 0 0 1 
vn 0 0 1 
vn 0 0 1 
vn 0 0 1 
vn 0.188976 0.00787402 -0.984252 
vn 0.173228 -0.409449 -0.897638 
vn 0.259843 -0.338583 -0.905512 
vn 0.165354 0 -0.984252 
vn 0.0866142 0.346457 -0.937008 
vn 0.110236 0.00787402 -0.992126 
vn 0.0314961 -0.251969 -0.968504 
vn 0.173228 0.251969 -0.952756 
vn -0.220472 -0.212598 -0.952756 
vn 0.023622 0 -1 
vn 0.0314961 0.212598 -0.976378 
vn -0.0629921 -0.212598 -0.976378 
vn 0.015748 0 -1 
vn -0.015748 0 -1 
vn -0.181102 0.220472 -0.96063 
vn 0.0866142 -0.204724 -0.976378 
vn -0.149606 0.015748 -0.992126 
vn -0.110236 -0.204724 -0.976378 
vn -0.314961 0.228346 -0.92126 
vn -0.133858 -0.228346 -0.96063 
vn -0.19685 0.00787402 -0.984252 
vn -0.0708661 -0.283465 -0.952756 
vn -0.220472 -0.0314961 -0.976378 
vn -0.259843 -0.0472441 -0.968504 
vn -0.188976 0.00787402 -0.984252 
vn -0.173228 -0.409449 -0.897638 
vn -0.165354 0 -0.984252 
vn -0.259843 -0.338583 -0.905512 
vn -0.0866142 0.346457 -0.937008 
vn -0.110236 0.00787402 -0.992126 
vn -0.0314961 -0.251969 -0.968504 
vn -0.173228 0.251969 -0.952756 
vn 0.220472 -0.212598 -0.952756 
vn -0.023622 0 -1 
vn -0.0314961 0.212598 -0.976378 
vn 0.0629921 -0.212598 -0.976378 
vn -0.015748 0 -1 
vn 0.015748 0 -1 
vn 0.181102 0.220472 -0.96063 
vn -0.0866142 -0.204724 -0.976378 
vn 0.149606 0.015748 -0.992126 
vn 0.110236 -0.204724 -0.976378 
vn 0.314961 0.228346 -0.92126 
vn 0.133858 -0.228346 -0.96063 
vn 0.19685 0.00787402 -0.984252 
vn 0.0708661 -0.283465 -0.952756 
vn 0.220472 -0.0314961 -0.976378 
vn 0.259843 -0.0472441 -0.968504 
vn -0.976378 0.212598 0 
vn -0.976378 0.212598 0 
vn -0.976378 0.212598 0 
vn -0.976378 0.212598 0 
vn 0.976378 0.212598 0 
vn 0.976378 0.212598 0 
vn 0.976378 0.212598 0 
vn 0.976378 0.212598 0 
vn 0.110236 0.125984 0.984252 
vn 0.110236 0.125984 0.984252 
vn 0.110236 0.212598 0.968504 
vn 0.110236 0.212598 0.968504 
vn 0.110236 0.0393701 0.992126 
vn 0.110236 0.0393701 0.992126 
vn -0.0866142 0.125984 0.984252 
vn -0.0866142 0.212598 0.976378 
vn -0.0866142 0.125984 0.984252 
vn -0.0866142 0.212598 0.976378 
vn -0.0866142 0.0393701 0.992126 
vn -0.0866142 0.0393701 0.992126 
vn 0.015748 0.165354 -0.984252 
vn 0.015748 0.244094 -0.968504 
vn 0.015748 0.244094 -0.968504 
vn 0.015748 0.165354 -0.984252 
vn 0.015748 0.385827 -0.92126 
vn 0.015748 0.385827 -0.92126 
vn 0.015748 0.448819 -0.889764 
vn 0.984252 0.133858 0.0866142 
vn 0.968504 0.228346 0.0866142 
vn 0.984252 0.133858 0.0866142 
vn 0.968504 0.228346 0.0866142 
vn 0.992126 0.0472441 0.0866142 
vn 0.992126 0.0472441 0.0866142 
vn -0.984252 0.133858 0.0944882 
vn -0.968504 0.228346 0.0944882 
vn -0.968504 0.228346 0.0944882 
vn -0.984252 0.133858 0.0944882 
vn -0.992126 0.0472441 0.0944882 
vn -0.992126 0.0472441 0.0944882 
vn -0.023622 0.149606 -0.984252 
vn -0.023622 0.244094 -0.968504 
vn -0.023622 0.149606 -0.984252 
vn -0.023622 0.244094 -0.968504 
vn -0.015748 0.385827 -0.92126 
vn -0.015748 0.385827 -0.92126 
vn -0.015748 0.448819 -0.889764 
vn 0.984252 0.133858 0.0866142 
vn 0.968504 0.228346 0.0866142 
vn 0.984252 0.133858 0.0866142 
vn 0.968504 0.228346 0.0866142 
vn 0.992126 0.0472441 0.0866142 
vn 0.992126 0.0472441 0.0866142 
vn -0.984252 0.133858 0.110236 
vn -0.968504 0.228346 0.110236 
vn -0.968504 0.228346 0.110236 
vn -0.984252 0.133858 0.110236 
vn -0.992126 0.0472441 0.110236 
vn -0.992126 0.0472441 0.110236 
vn -0.0944882 0.212598 -0.968504 
vn -0.0944882 0.212598 -0.968504 
vn -0.0944882 0.125984 -0.984252 
vn -0.0944882 0.125984 -0.984252 
vn -0.0944882 0.0393701 -0.992126 
vn -0.0944882 0.0393701 -0.992126 
vn 0.0866142 0.212598 -0.976378 
vn 0.0866142 0.125984 -0.984252 
vn 0.0866142 0.212598 -0.976378 
vn 0.0866142 0.125984 -0.984252 
vn 0.0866142 0.0393701 -0.992126 
vn 0.0866142 0.0393701 -0.992126 
vn 0 0.606299 0.795276 
vn 0 0.606299 0.795276 
vn 0 0.606299 0.795276 
vn -0.00787402 0.606299 0.795276 
vn -0.00787402 0.606299 0.795276 
vn -0.00787402 0.606299 0.795276 
vn -0.00787402 0.606299 0.795276 
vn -0.952756 -0.299213 0.015748 
vn -0.952756 -0.299213 0.015748 
vn -0.952756 -0.299213 0.015748 
vn -0.952756 -0.299213 0.015748 
vn 0.952756 -0.299213 0.015748 
vn 0.952756 -0.299213 0.015748 
vn 0.952756 -0.299213 0.015748 
vn 0.952756 -0.299213 0.015748 
vn 0.692913 -0.708661 0.133858 
vn 0.692913 -0.708661 0.133858 
vn 0.692913 -0.708661 0.133858 
vn 0.692913 -0.708661 0.133858 
vn -0.692913 -0.708661 0.125984 
vn -0.692913 -0.708661 0.125984 
vn -0.692913 -0.708661 0.125984 
vn -0.692913 -0.708661 0.125984 
vn -0.00787402 -0.0314961 1 
vn -0.00787402 -0.0314961 1 
vn -0.00787402 -0.0314961 1 
vn -0.00787402 -0.0314961 1 

vt 0.705444 0.915912 
vt 0.792872 0.915918 
vt 0.749224 0.983339 
vt 0.527691 0.46313 
vt 0.503666 0.54899 
vt 0.550315 0.511608 
vt 0.469867 0.48164 
vt 0.550315 0.511608 
vt 0.503666 0.54899 
vt 0.527691 0.46313 
vt 0.469867 0.48164 
vt 0.703498 0.793092 
vt 0.795513 0.792851 
vt 0.773419 0.896139 
vt 0.725082 0.896143 
vt 0.548218 0.654538 
vt 0.43788 0.60487 
vt 0.503666 0.54899 
vt 0.56578 0.569229 
vt 0.550315 0.511608 
vt 0.58648 0.52776 
vt 0.588549 0.465599 
vt 0.548218 0.654538 
vt 0.503666 0.54899 
vt 0.43788 0.60487 
vt 0.56578 0.569229 
vt 0.550315 0.511608 
vt 0.58648 0.52776 
vt 0.588549 0.465599 
vt 0.725082 0.896143 
vt 0.773419 0.896139 
vt 0.792872 0.915918 
vt 0.705444 0.915912 
vt 0.901369 0.916183 
vt 0.813021 0.84004 
vt 0.893507 0.833102 
vt 0.821116 0.925618 
vt 0.893507 0.833102 
vt 0.821116 0.925618 
vt 0.901369 0.916183 
vt 0.813044 0.840236 
vt 0.813021 0.84004 
vt 0.901369 0.916183 
vt 0.821116 0.925618 
vt 0.893507 0.833102 
vt 0.821116 0.925618 
vt 0.893507 0.833102 
vt 0.813021 0.84004 
vt 0.901369 0.916183 
vt 0.469867 0.48164 
vt 0.43788 0.60487 
vt 0.503666 0.54899 
vt 0.372408 0.505167 
vt 0.503666 0.54899 
vt 0.43788 0.60487 
vt 0.469867 0.48164 
vt 0.372408 0.505167 
vt 0.825253 0.37755 
vt 0.899277 0.36318 
vt 0.852676 0.422755 
vt 0.899277 0.36318 
vt 0.956884 0.413167 
vt 0.909442 0.439738 
vt 0.014233 0.677588 
vt 0.179778 0.673126 
vt 0.006941 0.829242 
vt 0.17801 0.988948 
vt 0.012408 0.986674 
vt 0.347865 0.831212 
vt 0.34442 0.979749 
vt 0.346049 0.680053 
vt 0.355903 0.171636 
vt 0.254673 0.012641 
vt 0.351848 0.017046 
vt 0.165985 0.169129 
vt 0.162319 0.013066 
vt 0.080291 0.022033 
vt 0.169237 0.320271 
vt 0.362213 0.330025 
vt 0.018462 0.183941 
vt 0.014968 0.042101 
vt 0.017859 0.323063 
vt 0.399182 0.672452 
vt 0.347865 0.831212 
vt 0.346049 0.680053 
vt 0.450833 0.822082 
vt 0.449993 0.670323 
vt 0.585023 0.677583 
vt 0.449837 0.967866 
vt 0.34442 0.979749 
vt 0.677959 0.835995 
vt 0.677831 0.696274 
vt 0.677702 0.975151 
vt 0.707272 0.182523 
vt 0.851696 0.019612 
vt 0.989469 0.182357 
vt 0.992848 0.014168 
vt 0.709917 0.015226 
vt 0.851785 0.345268 
vt 0.710056 0.349963 
vt 0.992703 0.350493 
vt 0.446358 0.183287 
vt 0.425227 0.34988 
vt 0.37072 0.183478 
vt 0.371095 0.351656 
vt 0.370517 0.015319 
vt 0.47667 0.348276 
vt 0.467107 0.016848 
vt 0.518679 0.183061 
vt 0.613751 0.349159 
vt 0.559311 0.018068 
vt 0.626817 0.182752 
vt 0.710056 0.349963 
vt 0.64196 0.016368 
vt 0.707272 0.182523 
vt 0.709917 0.015226 
vt 0.362213 0.330025 
vt 0.356964 0.496741 
vt 0.205935 0.491441 
vt 0.169237 0.320271 
vt 0.245218 0.659681 
vt 0.352497 0.665405 
vt 0.013892 0.658002 
vt 0.017666 0.48936 
vt 0.017859 0.323063 
vt 0.777111 0.577807 
vt 0.909866 0.517215 
vt 0.891804 0.612457 
vt 0.812253 0.488769 
vt 0.550315 0.511608 
vt 0.588549 0.465599 
vt 0.527691 0.46313 
vt 0.550315 0.511608 
vt 0.527691 0.46313 
vt 0.588549 0.465599 
vt 0.637083 0.524528 
vt 0.58648 0.52776 
vt 0.588549 0.465599 
vt 0.637083 0.524528 
vt 0.588549 0.465599 
vt 0.58648 0.52776 
vt 0.98401 0.654331 
vt 0.909866 0.517215 
vt 0.9861 0.521045 
vt 0.891804 0.612457 
vt 0.953988 0.441244 
vt 0.901497 0.459375 
vt 0.677312 0.564665 
vt 0.812253 0.488769 
vt 0.777111 0.577807 
vt 0.745647 0.452022 
vt 0.813217 0.402757 
vt 0.849448 0.443901 
vt 0.923212 0.834514 
vt 0.930436 0.908734 
vt 0.901369 0.916183 
vt 0.893507 0.833102 
vt 0.955391 0.834961 
vt 0.962322 0.902212 
vt 0.923212 0.834514 
vt 0.901369 0.916183 
vt 0.930436 0.908734 
vt 0.893507 0.833102 
vt 0.955391 0.834961 
vt 0.962322 0.902212 
vt 0.923212 0.834514 
vt 0.933036 0.765791 
vt 0.904609 0.757308 
vt 0.893507 0.833102 
vt 0.955391 0.834961 
vt 0.964389 0.773823 
vt 0.904609 0.757308 
vt 0.923212 0.834514 
vt 0.893507 0.833102 
vt 0.933036 0.765791 
vt 0.955391 0.834961 
vt 0.964389 0.773823 
vt 0.933036 0.765791 
vt 0.923212 0.834514 
vt 0.893507 0.833102 
vt 0.904609 0.757308 
vt 0.964389 0.773823 
vt 0.955391 0.834961 
vt 0.893507 0.833102 
vt 0.933036 0.765791 
vt 0.904609 0.757308 
vt 0.923212 0.834514 
vt 0.964389 0.773823 
vt 0.955391 0.834961 
vt 0.893507 0.833102 
vt 0.930436 0.908734 
vt 0.901369 0.916183 
vt 0.923212 0.834514 
vt 0.962322 0.902212 
vt 0.955391 0.834961 
vt 0.893507 0.833102 
vt 0.901369 0.916183 
vt 0.930436 0.908734 
vt 0.923212 0.834514 
vt 0.962322 0.902212 
vt 0.955391 0.834961 
vt 0.686102 0.656191 
vt 0.814415 0.655895 
vt 0.795513 0.792851 
vt 0.703498 0.793092 
vt 0.589926 0.407456 
vt 0.607061 0.391926 
vt 0.593682 0.445536 
vt 0.627064 0.464942 
vt 0.616754 0.366057 
vt 0.636501 0.3857 
vt 0.661856 0.502477 
vt 0.650428 0.391245 
vt 0.667801 0.387042 
vt 0.699844 0.474925 
vt 0.689274 0.367762 
vt 0.706871 0.388171 
vt 0.728731 0.44052 
vt 0.724877 0.395806 
vt 0.745376 0.395999 
vt 0.589926 0.407456 
vt 0.593682 0.445536 
vt 0.607061 0.391926 
vt 0.627064 0.464942 
vt 0.616754 0.366057 
vt 0.636501 0.3857 
vt 0.661856 0.502477 
vt 0.650428 0.391245 
vt 0.667801 0.387042 
vt 0.699844 0.474925 
vt 0.689274 0.367762 
vt 0.706871 0.388171 
vt 0.728731 0.44052 
vt 0.724877 0.395806 
vt 0.745376 0.395999 
vt 0.842354 0.704336 
vt 0.840299 0.725839 
vt 0.858461 0.725805 
vt 0.831217 0.713807 
vt 0.822355 0.701731 
vt 0.848591 0.696323 
vt 0.877763 0.73571 
vt 0.831491 0.672815 
vt 0.878854 0.713862 
vt 0.855389 0.682871 
vt 0.831865 0.632621 
vt 0.884014 0.70328 
vt 0.862312 0.673995 
vt 0.872751 0.665399 
vt 0.868496 0.62855 
vt 0.896327 0.696541 
vt 0.889375 0.656771 
vt 0.918992 0.696392 
vt 0.903461 0.63327 
vt 0.918429 0.675236 
vt 0.901267 0.652833 
vt 0.924854 0.661283 
vt 0.913801 0.649343 
vt 0.936661 0.650337 
vt 0.842354 0.704336 
vt 0.840299 0.725839 
vt 0.831217 0.713807 
vt 0.858461 0.725805 
vt 0.822355 0.701731 
vt 0.848591 0.696323 
vt 0.877763 0.73571 
vt 0.831491 0.672815 
vt 0.878854 0.713862 
vt 0.855389 0.682871 
vt 0.831865 0.632621 
vt 0.884014 0.70328 
vt 0.862312 0.673995 
vt 0.872751 0.665399 
vt 0.868496 0.62855 
vt 0.896327 0.696541 
vt 0.889375 0.656771 
vt 0.918992 0.696392 
vt 0.903461 0.63327 
vt 0.918429 0.675236 
vt 0.901267 0.652833 
vt 0.924854 0.661283 
vt 0.913801 0.649343 
vt 0.936661 0.650337 
vt 0.649084 0.571764 
vt 0.548218 0.654538 
vt 0.56578 0.569229 
vt 0.659758 0.674303 
vt 0.548218 0.654538 
vt 0.649084 0.571764 
vt 0.56578 0.569229 
vt 0.659758 0.674303 
vt 0.933036 0.765791 
vt 0.962256 0.697477 
vt 0.937923 0.679496 
vt 0.904609 0.757308 
vt 0.964389 0.773823 
vt 0.991562 0.710431 
vt 0.933036 0.765791 
vt 0.937923 0.679496 
vt 0.962256 0.697477 
vt 0.904609 0.757308 
vt 0.964389 0.773823 
vt 0.991562 0.710431 
vt 0.38755 0.387684 
vt 0.469867 0.48164 
vt 0.488522 0.420856 
vt 0.372408 0.505167 
vt 0.527691 0.46313 
vt 0.536538 0.422332 
vt 0.588549 0.465599 
vt 0.930436 0.908734 
vt 0.928145 0.990732 
vt 0.953234 0.974424 
vt 0.901369 0.916183 
vt 0.962322 0.902212 
vt 0.983516 0.963033 
vt 0.930436 0.908734 
vt 0.928145 0.990732 
vt 0.901369 0.916183 
vt 0.953234 0.974424 
vt 0.962322 0.902212 
vt 0.983516 0.963033 
vt 0.38755 0.387684 
vt 0.469867 0.48164 
vt 0.372408 0.505167 
vt 0.488522 0.420856 
vt 0.527691 0.46313 
vt 0.536538 0.422332 
vt 0.588549 0.465599 
vt 0.953234 0.974424 
vt 0.901369 0.916183 
vt 0.930436 0.908734 
vt 0.928145 0.990732 
vt 0.983516 0.963033 
vt 0.962322 0.902212 
vt 0.953234 0.974424 
vt 0.901369 0.916183 
vt 0.928145 0.990732 
vt 0.930436 0.908734 
vt 0.983516 0.963033 
vt 0.962322 0.902212 
vt 0.904609 0.757308 
vt 0.937923 0.679496 
vt 0.962256 0.697477 
vt 0.933036 0.765791 
vt 0.991562 0.710431 
vt 0.964389 0.773823 
vt 0.904609 0.757308 
vt 0.962256 0.697477 
vt 0.937923 0.679496 
vt 0.933036 0.765791 
vt 0.991562 0.710431 
vt 0.964389 0.773823 
vt 0.909442 0.439738 
vt 0.852676 0.422755 
vt 0.899277 0.36318 
vt 0.812253 0.488769 
vt 0.901497 0.459375 
vt 0.909866 0.517215 
vt 0.849448 0.443901 
vt 0.56578 0.569229 
vt 0.637083 0.524528 
vt 0.649084 0.571764 
vt 0.58648 0.52776 
vt 0.56578 0.569229 
vt 0.637083 0.524528 
vt 0.58648 0.52776 
vt 0.649084 0.571764 
vt 0.849448 0.443901 
vt 0.813217 0.402757 
vt 0.852676 0.422755 
vt 0.825253 0.37755 
vt 0.909442 0.439738 
vt 0.953988 0.441244 
vt 0.901497 0.459375 
vt 0.956884 0.413167 
vt 0.852676 0.422755 
vt 0.909442 0.439738 
vt 0.901497 0.459375 
vt 0.849448 0.443901 

usemtl Pet1Mtl

f 1/1/1 2/2/2 3/3/3 
f 4/4/4 5/5/5 6/6/6 
f 5/5/5 4/4/4 7/7/7 
f 8/8/8 9/9/9 10/10/10 
f 9/9/9 11/11/11 10/10/10 
f 12/12/12 13/13/13 14/14/14 
f 12/12/12 14/14/14 15/15/15 
f 16/16/16 17/17/17 18/18/18 
f 16/16/16 18/18/18 19/19/19 
f 19/19/19 18/18/18 20/20/20 
f 20/20/20 21/21/21 19/19/19 
f 21/21/21 20/20/20 22/22/22 
f 23/23/23 24/24/24 25/25/25 
f 24/24/24 23/23/23 26/26/26 
f 26/26/26 27/27/27 24/24/24 
f 27/27/27 26/26/26 28/28/28 
f 28/28/28 29/29/29 27/27/27 
f 30/30/30 31/31/31 32/32/32 
f 30/30/30 32/32/32 33/33/33 
f 34/34/34 35/35/35 36/36/36 
f 35/35/35 34/34/34 37/37/37 
f 38/38/38 39/39/39 40/40/40 
f 39/39/39 38/38/38 41/41/41 
f 42/42/42 43/43/43 44/44/44 
f 43/43/43 42/42/42 45/45/45 
f 46/46/46 47/47/47 48/48/48 
f 47/47/47 46/46/46 49/49/49 
f 50/50/50 51/51/51 52/52/52 
f 51/51/51 50/50/50 53/53/53 
f 54/54/54 55/55/55 56/56/56 
f 55/55/55 57/57/57 56/56/56 
f 58/58/58 59/59/59 60/60/60 
f 61/61/61 62/62/62 63/63/63 
f 64/64/64 65/65/65 66/66/66 
f 67/67/67 66/66/66 65/65/65 
f 66/66/66 67/67/67 68/68/68 
f 69/69/69 67/67/67 65/65/65 
f 67/67/67 69/69/69 70/70/70 
f 65/65/65 71/71/71 69/69/69 
f 72/72/72 73/73/73 74/74/74 
f 73/73/73 72/72/72 75/75/75 
f 73/73/73 75/75/75 76/76/76 
f 77/77/77 76/76/76 75/75/75 
f 72/72/72 78/78/78 75/75/75 
f 72/72/72 79/79/79 78/78/78 
f 77/77/77 75/75/75 80/80/80 
f 78/78/78 80/80/80 75/75/75 
f 77/77/77 80/80/80 81/81/81 
f 80/80/80 78/78/78 82/82/82 
f 83/83/83 84/84/84 85/85/85 
f 84/84/84 83/83/83 86/86/86 
f 83/83/83 87/87/87 86/86/86 
f 88/88/88 86/86/86 87/87/87 
f 89/89/89 84/84/84 86/86/86 
f 84/84/84 89/89/89 90/90/90 
f 86/86/86 88/88/88 91/91/91 
f 86/86/86 91/91/91 89/89/89 
f 88/88/88 92/92/92 91/91/91 
f 89/89/89 91/91/91 93/93/93 
f 94/94/94 95/95/95 96/96/96 
f 95/95/95 97/97/97 96/96/96 
f 95/95/95 94/94/94 98/98/98 
f 99/99/99 94/94/94 96/96/96 
f 94/94/94 99/99/99 100/100/100 
f 99/99/99 96/96/96 101/101/101 
f 102/102/102 103/103/103 104/104/104 
f 105/105/105 104/104/104 103/103/103 
f 104/104/104 106/106/106 102/102/102 
f 103/103/103 102/102/102 107/107/107 
f 108/108/108 102/102/102 106/106/106 
f 109/109/109 107/107/107 102/102/102 
f 102/102/102 108/108/108 109/109/109 
f 107/107/107 109/109/109 110/110/110 
f 111/111/111 109/109/109 108/108/108 
f 109/109/109 112/112/112 110/110/110 
f 109/109/109 111/111/111 112/112/112 
f 110/110/110 112/112/112 113/113/113 
f 114/114/114 112/112/112 111/111/111 
f 115/115/115 113/113/113 112/112/112 
f 112/112/112 114/114/114 115/115/115 
f 116/116/116 115/115/115 114/114/114 
f 117/117/117 118/118/118 119/119/119 
f 117/117/117 119/119/119 120/120/120 
f 118/118/118 121/121/121 119/119/119 
f 118/118/118 122/122/122 121/121/121 
f 121/121/121 123/123/123 119/119/119 
f 119/119/119 123/123/123 124/124/124 
f 119/119/119 124/124/124 120/120/120 
f 120/120/120 124/124/124 125/125/125 
f 126/126/126 127/127/127 128/128/128 
f 127/127/127 126/126/126 129/129/129 
f 130/130/130 131/131/131 132/132/132 
f 133/133/133 134/134/134 135/135/135 
f 136/136/136 137/137/137 138/138/138 
f 139/139/139 140/140/140 141/141/141 
f 142/142/142 143/143/143 144/144/144 
f 142/142/142 145/145/145 143/143/143 
f 143/143/143 146/146/146 144/144/144 
f 146/146/146 143/143/143 147/147/147 
f 148/148/148 149/149/149 150/150/150 
f 149/149/149 148/148/148 151/151/151 
f 151/151/151 152/152/152 149/149/149 
f 149/149/149 152/152/152 153/153/153 
f 154/154/154 155/155/155 156/156/156 
f 156/156/156 157/157/157 154/154/154 
f 158/158/158 155/155/155 154/154/154 
f 158/158/158 159/159/159 155/155/155 
f 160/160/160 161/161/161 162/162/162 
f 161/161/161 160/160/160 163/163/163 
f 162/162/162 164/164/164 160/160/160 
f 164/164/164 162/162/162 165/165/165 
f 166/166/166 167/167/167 168/168/168 
f 168/168/168 169/169/169 166/166/166 
f 167/167/167 166/166/166 170/170/170 
f 170/170/170 171/171/171 167/167/167 
f 172/172/172 173/173/173 174/174/174 
f 173/173/173 172/172/172 175/175/175 
f 175/175/175 176/176/176 173/173/173 
f 176/176/176 175/175/175 177/177/177 
f 178/178/178 179/179/179 180/180/180 
f 180/180/180 181/181/181 178/178/178 
f 179/179/179 178/178/178 182/182/182 
f 182/182/182 183/183/183 179/179/179 
f 184/184/184 185/185/185 186/186/186 
f 185/185/185 184/184/184 187/187/187 
f 187/187/187 188/188/188 185/185/185 
f 188/188/188 187/187/187 189/189/189 
f 190/190/190 191/191/191 192/192/192 
f 191/191/191 190/190/190 193/193/193 
f 193/193/193 194/194/194 191/191/191 
f 194/194/194 193/193/193 195/195/195 
f 196/196/196 197/197/197 198/198/198 
f 196/196/196 198/198/198 199/199/199 
f 199/199/199 198/198/198 200/200/200 
f 199/199/199 200/200/200 201/201/201 
f 202/202/202 203/203/203 204/204/204 
f 202/202/202 204/204/204 205/205/205 
f 206/206/206 207/207/207 208/208/208 
f 208/208/208 207/207/207 209/209/209 
f 210/210/210 209/209/209 207/207/207 
f 211/211/211 209/209/209 210/210/210 
f 209/209/209 211/211/211 212/212/212 
f 211/211/211 213/213/213 212/212/212 
f 213/213/213 214/214/214 212/212/212 
f 212/212/212 214/214/214 215/215/215 
f 215/215/215 214/214/214 216/216/216 
f 215/215/215 216/216/216 217/217/217 
f 215/215/215 217/217/217 218/218/218 
f 217/217/217 219/219/219 218/218/218 
f 219/219/219 220/220/220 218/218/218 
f 221/221/221 222/222/222 223/223/223 
f 224/224/224 223/223/223 222/222/222 
f 224/224/224 225/225/225 223/223/223 
f 224/224/224 226/226/226 225/225/225 
f 226/226/226 224/224/224 227/227/227 
f 226/226/226 227/227/227 228/228/228 
f 228/228/228 227/227/227 229/229/229 
f 230/230/230 229/229/229 227/227/227 
f 230/230/230 231/231/231 229/229/229 
f 231/231/231 230/230/230 232/232/232 
f 232/232/232 230/230/230 233/233/233 
f 232/232/232 233/233/233 234/234/234 
f 234/234/234 233/233/233 235/235/235 
f 236/236/236 237/237/237 238/238/238 
f 237/237/237 236/236/236 239/239/239 
f 240/240/240 239/239/239 236/236/236 
f 238/238/238 241/241/241 236/236/236 
f 241/241/241 240/240/240 236/236/236 
f 241/241/241 238/238/238 242/242/242 
f 241/241/241 243/243/243 240/240/240 
f 241/241/241 242/242/242 244/244/244 
f 245/245/245 243/243/243 241/241/241 
f 244/244/244 245/245/245 241/241/241 
f 245/245/245 246/246/246 243/243/243 
f 245/245/245 244/244/244 247/247/247 
f 246/246/246 245/245/245 248/248/248 
f 247/247/247 248/248/248 245/245/245 
f 246/246/246 248/248/248 249/249/249 
f 247/247/247 249/249/249 248/248/248 
f 249/249/249 250/250/250 246/246/246 
f 249/249/249 247/247/247 251/251/251 
f 250/250/250 249/249/249 252/252/252 
f 251/251/251 252/252/252 249/249/249 
f 252/252/252 251/251/251 253/253/253 
f 250/250/250 252/252/252 254/254/254 
f 252/252/252 253/253/253 255/255/255 
f 252/252/252 255/255/255 256/256/256 
f 252/252/252 256/256/256 254/254/254 
f 256/256/256 255/255/255 257/257/257 
f 254/254/254 256/256/256 258/258/258 
f 256/256/256 257/257/257 258/258/258 
f 259/259/259 254/254/254 258/258/258 
f 258/258/258 257/257/257 259/259/259 
f 260/260/260 261/261/261 262/262/262 
f 261/261/261 260/260/260 263/263/263 
f 264/264/264 260/260/260 262/262/262 
f 263/263/263 260/260/260 265/265/265 
f 264/264/264 265/265/265 260/260/260 
f 265/265/265 266/266/266 263/263/263 
f 265/265/265 264/264/264 267/267/267 
f 266/266/266 265/265/265 268/268/268 
f 269/269/269 265/265/265 267/267/267 
f 269/269/269 268/268/268 265/265/265 
f 270/270/270 269/269/269 267/267/267 
f 268/268/268 269/269/269 271/271/271 
f 270/270/270 272/272/272 269/269/269 
f 271/271/271 269/269/269 272/272/272 
f 270/270/270 273/273/273 272/272/272 
f 273/273/273 271/271/271 272/272/272 
f 274/274/274 273/273/273 270/270/270 
f 271/271/271 273/273/273 275/275/275 
f 273/273/273 274/274/274 276/276/276 
f 276/276/276 275/275/275 273/273/273 
f 275/275/275 276/276/276 277/277/277 
f 274/274/274 278/278/278 276/276/276 
f 277/277/277 276/276/276 279/279/279 
f 279/279/279 276/276/276 280/280/280 
f 276/276/276 278/278/278 280/280/280 
f 279/279/279 280/280/280 281/281/281 
f 278/278/278 282/282/282 280/280/280 
f 281/281/281 280/280/280 282/282/282 
f 283/283/283 282/282/282 278/278/278 
f 282/282/282 283/283/283 281/281/281 
f 284/284/284 285/285/285 286/286/286 
f 285/285/285 284/284/284 287/287/287 
f 288/288/288 289/289/289 290/290/290 
f 289/289/289 288/288/288 291/291/291 
f 292/292/292 293/293/293 294/294/294 
f 294/294/294 295/295/295 292/292/292 
f 296/296/296 293/293/293 292/292/292 
f 296/296/296 297/297/297 293/293/293 
f 298/298/298 299/299/299 300/300/300 
f 299/299/299 298/298/298 301/301/301 
f 300/300/300 302/302/302 298/298/298 
f 302/302/302 300/300/300 303/303/303 
f 304/304/304 305/305/305 306/306/306 
f 305/305/305 304/304/304 307/307/307 
f 308/308/308 306/306/306 305/305/305 
f 306/306/306 308/308/308 309/309/309 
f 308/308/308 310/310/310 309/309/309 
f 311/311/311 312/312/312 313/313/313 
f 312/312/312 311/311/311 314/314/314 
f 313/313/313 315/315/315 311/311/311 
f 315/315/315 313/313/313 316/316/316 
f 317/317/317 318/318/318 319/319/319 
f 318/318/318 317/317/317 320/320/320 
f 321/321/321 320/320/320 317/317/317 
f 320/320/320 321/321/321 322/322/322 
f 323/323/323 324/324/324 325/325/325 
f 324/324/324 323/323/323 326/326/326 
f 326/326/326 327/327/327 324/324/324 
f 327/327/327 326/326/326 328/328/328 
f 327/327/327 328/328/328 329/329/329 
f 330/330/330 331/331/331 332/332/332 
f 331/331/331 330/330/330 333/333/333 
f 332/332/332 334/334/334 330/330/330 
f 334/334/334 332/332/332 335/335/335 
f 336/336/336 337/337/337 338/338/338 
f 337/337/337 336/336/336 339/339/339 
f 340/340/340 339/339/339 336/336/336 
f 339/339/339 340/340/340 341/341/341 
f 342/342/342 343/343/343 344/344/344 
f 342/342/342 344/344/344 345/345/345 
f 345/345/345 344/344/344 346/346/346 
f 345/345/345 346/346/346 347/347/347 
f 348/348/348 349/349/349 350/350/350 
f 349/349/349 348/348/348 351/351/351 
f 351/351/351 352/352/352 349/349/349 
f 352/352/352 351/351/351 353/353/353 
f 354/354/354 355/355/355 356/356/356 
f 357/357/357 358/358/358 359/359/359 
f 358/358/358 357/357/357 360/360/360 
f 361/361/361 362/362/362 363/363/363 
f 362/362/362 361/361/361 364/364/364 
f 365/365/365 366/366/366 367/367/367 
f 366/366/366 365/365/365 368/368/368 
f 369/369/369 370/370/370 371/371/371 
f 371/371/371 370/370/370 372/372/372 
f 373/373/373 374/374/374 375/375/375 
f 374/374/374 373/373/373 376/376/376 
f 377/377/377 378/378/378 379/379/379 
f 377/377/377 379/379/379 380/380/380 

