# This file is brought to you by Roblox Corporation
# Generated by Roblox Studio

mtllib goldenpeacock.mtl

g Golden1

v 0.111975 -1.52932 0.469489 
v 0.506373 -1.52932 0.0140726 
v 0.546822 -1.52932 0.42688 
v 0.0715257 -1.52932 0.0566816 
v -0.528921 -1.52932 0.432918 
v -0.0575125 -1.52932 0.0577803 
v -0.0936528 -1.52932 0.470988 
v -0.49278 -1.52932 0.0197103 
v -0.851798 -1.27232 1.09367 
v 0.00550164 -1.29956 1.09367 
v -0.88494 -0.486677 1.09367 
v 0.00575964 0.33419 1.09243 
v -0.85089 0.328393 1.08929 
v 0.88902 -0.486677 1.09367 
v 0.86241 0.286145 1.09557 
v 0.862807 -1.27232 1.09367 
v 0.00550167 -1.31265 0.707554 
v 0.855307 -1.31015 0.819562 
v 0.00550164 -1.29956 1.09367 
v 0.862807 -1.27232 1.09367 
v -0.851798 -1.27232 1.09367 
v 0.848137 -1.32121 0.557283 
v -0.843968 -1.31069 0.601628 
v 0.0055017 -1.3261 0.338099 
v 0.855577 -1.28367 -0.140428 
v -0.836468 -1.32226 0.130816 
v 0.00550175 -1.28367 -0.214616 
v 0.862807 -1.18683 -0.620937 
v -0.844568 -1.28367 -0.288804 
v 0.00550179 -1.20991 -0.620937 
v -0.851798 -1.18683 -0.620938 
v 0.548865 0.647966 1.03075 
v 0.556926 0.410504 1.03075 
v 0.621445 0.531562 1.03075 
v 0.411766 0.643312 1.03075 
v 0.295798 0.409344 1.03075 
v 0.153572 0.857911 1.03075 
v 0.31743 0.685853 1.03075 
v 0.28517 0.819184 1.03075 
v 0.0542342 0.763308 1.03075 
v 0.123103 0.511422 1.03075 
v -0.548866 0.647966 1.03075 
v -0.621446 0.531562 1.03075 
v -0.556927 0.410504 1.03075 
v -0.411766 0.643312 1.03075 
v -0.295799 0.409344 1.03075 
v -0.153573 0.857911 1.03075 
v -0.285171 0.819184 1.03075 
v -0.317431 0.685853 1.03075 
v -0.054235 0.763308 1.03075 
v -0.123103 0.511422 1.03075 
v 0.120124 0.54799 1.02496 
v 0.0278023 0.216205 1.02496 
v 0.138209 0.542643 1.02496 
v 0.0458876 0.210859 1.02496 
v 0.0692549 0.203121 1.02496 
v 0.315977 0.434745 1.02496 
v 0.0569884 0.217445 1.02496 
v 0.328243 0.420421 1.02496 
v -0.0348435 0.214571 1.02496 
v -0.123614 0.542967 1.02496 
v -0.0530943 0.209821 1.02496 
v -0.141862 0.538217 1.02496 
v -0.0662456 0.207846 1.02496 
v -0.316295 0.435039 1.02496 
v -0.0790502 0.194 1.02496 
v -0.329097 0.421196 1.02496 
v 1.67051 -0.378294 -1.03067 
v -2.48852e-07 -1.19212 -0.625253 
v 1.47288 0.605768 -0.881576 
v 1.66781 0.465806 -0.950877 
v 1.80867 0.191717 -1.01715 
v 1.78746 -0.129955 -1.04114 
v 1.18347 1.10512 -0.811381 
v 1.38084 0.884395 -0.859892 
v 0.602813 1.24 -0.760741 
v 0.880046 1.25665 -0.789182 
v 1.74733 -0.585037 -1.07218 
v 1.75547 -0.809933 -1.09557 
v 1.45647 -1.1704 -1.04312 
v 1.62587 -1.01584 -1.07749 
v 1.1213e-07 1.52932 -0.782758 
v 0.461101 1.40532 -0.768929 
v -0.602813 1.24 -0.760742 
v -0.461101 1.40532 -0.768929 
v -1.18347 1.10512 -0.811381 
v -0.883068 1.25428 -0.788849 
v -1.47288 0.605769 -0.881576 
v -1.37782 0.886538 -0.859189 
v -1.67051 -0.378293 -1.03067 
v -1.45647 -1.1704 -1.04312 
v -1.80867 0.191717 -1.01715 
v -1.66441 0.482731 -0.948313 
v -1.79085 -0.146878 -1.04371 
v -1.75547 -0.809933 -1.09557 
v -1.75094 -0.572821 -1.07207 
v -1.62227 -1.02806 -1.07759 
v 0.855307 -1.31015 0.819562 
v 0.88902 -0.486677 1.09367 
v 0.862807 -1.27232 1.09367 
v 0.848137 -0.53557 0.557283 
v 0.848137 -1.32121 0.557283 
v 0.855577 -1.28367 -0.140428 
v 0.848805 0.217678 0.555368 
v 0.86241 0.286145 1.09557 
v 0.83661 -0.465062 -0.620937 
v 0.862807 -1.18683 -0.620937 
v 0.8628 0.253813 -0.62111 
v -0.88494 -0.486677 1.09367 
v -0.843968 -1.31069 0.601628 
v -0.851798 -1.27232 1.09367 
v -0.836468 -0.536695 0.130808 
v -0.836468 -1.32226 0.130816 
v -0.844568 -1.28367 -0.288804 
v -0.836738 0.209945 0.131711 
v -0.85089 0.328393 1.08929 
v -0.825323 -0.465062 -0.620938 
v -0.851798 -1.18683 -0.620938 
v -0.851805 0.25493 -0.621042 
v 0.00550179 -1.20991 -0.620937 
v -0.825323 -0.465062 -0.620938 
v 0.00549954 0.236045 -0.62108 
v -0.851805 0.25493 -0.621042 
v -0.851798 -1.18683 -0.620938 
v 0.83661 -0.465062 -0.620937 
v 0.862807 -1.18683 -0.620937 
v 0.8628 0.253813 -0.62111 
v -0.85089 0.328393 1.08929 
v 0.00575964 0.33419 1.09243 
v 0.00564645 0.21302 0.336637 
v -0.836738 0.209945 0.131711 
v 0.848805 0.217678 0.555368 
v 0.86241 0.286145 1.09557 
v 0.8628 0.253813 -0.62111 
v 0.00549954 0.236045 -0.62108 
v -0.851805 0.25493 -0.621042 
v 0.475519 -1.38176 0.0496999 
v 0.50964 -1.38176 0.397919 
v 0.546822 -1.52932 0.42688 
v 0.506373 -1.52932 0.0140726 
v 0.46879 -1.21596 0.0574699 
v 0.501531 -1.21596 0.391603 
v -0.528921 -1.52932 0.432918 
v -0.461556 -1.38176 0.0550143 
v -0.49278 -1.52932 0.0197103 
v -0.492042 -1.38176 0.40357 
v -0.454747 -1.21596 0.062713 
v -0.483999 -1.21596 0.39717 
v 0.50964 -1.38176 0.397919 
v 0.14283 -1.38176 0.433862 
v 0.111975 -1.52932 0.469489 
v 0.546822 -1.52932 0.42688 
v 0.501531 -1.21596 0.391603 
v 0.149558 -1.21596 0.426092 
v -0.492042 -1.38176 0.40357 
v -0.0936528 -1.52932 0.470988 
v -0.124877 -1.38176 0.435684 
v -0.528921 -1.52932 0.432918 
v -0.483999 -1.21596 0.39717 
v -0.131686 -1.21596 0.427984 
v 0.506373 -1.52932 0.0140726 
v 0.0715257 -1.52932 0.0566816 
v 0.108708 -1.38176 0.0856428 
v 0.475519 -1.38176 0.0496999 
v 0.116817 -1.21596 0.0919586 
v 0.46879 -1.21596 0.0574699 
v -0.49278 -1.52932 0.0197103 
v -0.0943908 -1.38176 0.0871271 
v -0.0575125 -1.52932 0.0577803 
v -0.461556 -1.38176 0.0550143 
v -0.102434 -1.21596 0.0935275 
v -0.454747 -1.21596 0.062713 
v -0.124877 -1.38176 0.435684 
v -0.0575125 -1.52932 0.0577803 
v -0.0943908 -1.38176 0.0871271 
v -0.0936528 -1.52932 0.470988 
v -0.131686 -1.21596 0.427984 
v -0.102434 -1.21596 0.0935275 
v 0.14283 -1.38176 0.433862 
v 0.0715257 -1.52932 0.0566816 
v 0.111975 -1.52932 0.469489 
v 0.108708 -1.38176 0.0856428 
v 0.149558 -1.21596 0.426092 
v 0.116817 -1.21596 0.0919586 
v 1.67051 -0.37932 -1.02584 
v 1.47288 0.604742 -0.876749 
v -2.49274e-07 -1.19314 -0.620426 
v 1.80867 0.19069 -1.01232 
v 1.66781 0.46478 -0.94605 
v 1.78746 -0.130981 -1.03631 
v 1.18347 1.10343 -0.803473 
v 1.38084 0.883299 -0.854737 
v 0.602813 1.23702 -0.746733 
v 0.880046 1.25409 -0.777139 
v 1.75547 -0.81096 -1.09074 
v 1.74733 -0.586064 -1.06735 
v 1.45647 -1.17143 -1.03829 
v 1.62587 -1.01687 -1.07266 
v 1.10909e-07 1.52636 -0.768798 
v 0.461101 1.4029 -0.757523 
v -0.602813 1.23702 -0.746733 
v -0.461101 1.4029 -0.757523 
v -1.18347 1.10344 -0.803473 
v -0.883068 1.25174 -0.776868 
v -1.47288 0.604742 -0.876749 
v -1.37782 0.885438 -0.854014 
v -1.67051 -0.37932 -1.02584 
v -1.45647 -1.17143 -1.03829 
v -1.80867 0.190691 -1.01232 
v -1.66441 0.481704 -0.943486 
v -1.79085 -0.147904 -1.03888 
v -1.75547 -0.810959 -1.09075 
v -1.75094 -0.573847 -1.06724 
v -1.62227 -1.02909 -1.07276 
v 0.548865 0.647966 1.01735 
v 0.621445 0.531562 1.01735 
v 0.556927 0.410504 1.01735 
v 0.411766 0.643312 1.01735 
v 0.295798 0.409344 1.01735 
v 0.153572 0.857911 1.01735 
v 0.28517 0.819184 1.01735 
v 0.31743 0.685853 1.01735 
v 0.0542342 0.763308 1.01735 
v 0.123103 0.511422 1.01735 
v -0.548866 0.647966 1.01735 
v -0.556927 0.410504 1.01735 
v -0.621446 0.531562 1.01735 
v -0.411766 0.643312 1.01735 
v -0.295799 0.409344 1.01735 
v -0.153573 0.857911 1.01735 
v -0.317431 0.685853 1.01735 
v -0.285171 0.819184 1.01735 
v -0.054235 0.763308 1.01735 
v -0.123103 0.511422 1.01735 
v 0.138209 0.542643 1.02314 
v 0.0458876 0.210859 1.02314 
v 0.0278023 0.216205 1.02314 
v 0.120124 0.54799 1.02314 
v 0.315977 0.434745 1.02314 
v 0.0692549 0.203121 1.02314 
v 0.0569884 0.217445 1.02314 
v 0.328243 0.420421 1.02314 
v -0.123614 0.542967 1.02314 
v -0.0348435 0.214571 1.02314 
v -0.0530943 0.209821 1.02314 
v -0.141862 0.538217 1.02314 
v -0.0790502 0.194 1.02314 
v -0.316295 0.435039 1.02314 
v -0.0662456 0.207846 1.02314 
v -0.329097 0.421196 1.02314 

vn 0 -1 0 
vn 0 -1 0 
vn 0 -1 0 
vn 0 -1 0 
vn 0 -1 0 
vn 0 -1 0 
vn 0 -1 0 
vn 0 -1 0 
vn 0 0 1 
vn 0 0 1 
vn 0 0 1 
vn 0 0 1 
vn 0 0 1 
vn 0 0 1 
vn 0 0 1 
vn 0 0 1 
vn -0.00787402 -1 0.0551181 
vn 0.00787402 -1 0.0551181 
vn -0.00787402 -1 0.0708661 
vn 0.015748 -1 0.0787402 
vn -0.023622 -1 0.0551181 
vn 0.00787402 -1 -0.015748 
vn -0.015748 -1 0.0472441 
vn 0 -1 -0.023622 
vn 0.015748 -0.992126 -0.125984 
vn 0 -1 -0.023622 
vn 0.00787402 -0.992126 -0.141732 
vn 0.023622 -0.984252 -0.188976 
vn 0.00787402 -0.984252 -0.15748 
vn 0.00787402 -0.976378 -0.204724 
vn 0 -0.976378 -0.228346 
vn 0 0 1 
vn 0 0 1 
vn 0 0 1 
vn 0 0 1 
vn 0 0 1 
vn 0 0 1 
vn 0 0 1 
vn 0 0 1 
vn 0 0 1 
vn 0 0 1 
vn 0 0 1 
vn 0 0 1 
vn 0 0 1 
vn 0 0 1 
vn 0 0 1 
vn 0 0 1 
vn 0 0 1 
vn 0 0 1 
vn 0 0 1 
vn 0 0 1 
vn 0 0 1 
vn 0 0 1 
vn 0 0 1 
vn 0 0 1 
vn 0 0 1 
vn 0 0 1 
vn 0 0 1 
vn 0 0 1 
vn 0 0 1 
vn 0 0 1 
vn 0 0 1 
vn 0 0 1 
vn 0 0 1 
vn 0 0 1 
vn 0 0 1 
vn 0 0 1 
vn -0.275591 -0.110236 -0.952756 
vn 0 -0.188976 -0.984252 
vn -0.188976 -0.188976 -0.96063 
vn -0.275591 -0.110236 -0.952756 
vn -0.275591 -0.110236 -0.952756 
vn -0.275591 -0.110236 -0.952756 
vn -0.0629921 -0.110236 -0.992126 
vn 0.110236 -0.00787402 -0.992126 
vn -0.0629921 -0.251969 -0.968504 
vn -0.125984 -0.370079 -0.92126 
vn -0.275591 -0.110236 -0.952756 
vn -0.275591 -0.110236 -0.952756 
vn -0.275591 -0.110236 -0.952756 
vn -0.275591 -0.110236 -0.952756 
vn 0 -0.448819 -0.889764 
vn 0.0393701 -0.385827 -0.92126 
vn 0.0629921 -0.251969 -0.968504 
vn -0.0393701 -0.385827 -0.92126 
vn 0.0629921 -0.110236 -0.992126 
vn 0.125984 -0.370079 -0.92126 
vn 0.188976 -0.188976 -0.96063 
vn -0.11811 0 -0.992126 
vn 0.275591 -0.110236 -0.952756 
vn 0.275591 -0.110236 -0.952756 
vn 0.275591 -0.110236 -0.952756 
vn 0.275591 -0.110236 -0.952756 
vn 0.275591 -0.110236 -0.952756 
vn 0.275591 -0.110236 -0.952756 
vn 0.275591 -0.110236 -0.952756 
vn 0.275591 -0.110236 -0.952756 
vn 1 -0.00787402 -0.0393701 
vn 1 0 -0.0551181 
vn 1 -0.023622 -0.0551181 
vn 1 0 -0.023622 
vn 1 0 -0.00787402 
vn 1 0.00787402 0.00787402 
vn 1 0 -0.023622 
vn 1 0.015748 -0.0551181 
vn 1 0 0 
vn 1 0.023622 0 
vn 1 -0.015748 0 
vn -1 0 -0.0393701 
vn -1 -0.015748 -0.023622 
vn -1 -0.0314961 -0.0393701 
vn -1 0 -0.00787402 
vn -1 0 0 
vn -1 0.015748 0.00787402 
vn -1 0 -0.015748 
vn -1 0.023622 -0.0314961 
vn -1 0 0 
vn -1 0.023622 0 
vn -1 -0.015748 0 
vn 0 0 -1 
vn 0 0 -1 
vn 0 0 -1 
vn 0 0 -1 
vn 0 0 -1 
vn 0 0 -1 
vn 0 0 -1 
vn 0 0 -1 
vn 0.015748 0.992126 -0.141732 
vn 0.0314961 0.992126 -0.141732 
vn 0.00787402 1 -0.0551181 
vn 0.00787402 1 -0.0472441 
vn 0.015748 1 -0.0629921 
vn 0.0472441 0.992126 -0.141732 
vn -0.015748 1 0.0314961 
vn -0.00787402 1 0.0314961 
vn 0.00787402 1 0.0393701 
vn 0.984252 0.133858 -0.0944882 
vn 0.984252 0.133858 -0.0944882 
vn 0.968504 0.228346 -0.0944882 
vn 0.968504 0.228346 -0.0944882 
vn 0.992126 0.0472441 -0.0944882 
vn 0.992126 0.0472441 -0.0944882 
vn -0.968504 0.228346 -0.0866142 
vn -0.984252 0.133858 -0.0866142 
vn -0.968504 0.228346 -0.0866142 
vn -0.984252 0.133858 -0.0866142 
vn -0.992126 0.0472441 -0.0866142 
vn -0.992126 0.0472441 -0.0866142 
vn 0.0944882 0.125984 0.984252 
vn 0.0944882 0.125984 0.984252 
vn 0.0944882 0.212598 0.968504 
vn 0.0944882 0.212598 0.968504 
vn 0.0944882 0.0393701 0.992126 
vn 0.0944882 0.0393701 0.992126 
vn -0.0866142 0.125984 0.984252 
vn -0.0866142 0.212598 0.976378 
vn -0.0866142 0.125984 0.984252 
vn -0.0866142 0.212598 0.976378 
vn -0.0866142 0.0393701 0.992126 
vn -0.0866142 0.0393701 0.992126 
vn -0.0944882 0.212598 -0.968504 
vn -0.0944882 0.212598 -0.968504 
vn -0.0944882 0.125984 -0.984252 
vn -0.0944882 0.125984 -0.984252 
vn -0.0944882 0.0393701 -0.992126 
vn -0.0944882 0.0393701 -0.992126 
vn 0.0866142 0.212598 -0.976378 
vn 0.0866142 0.125984 -0.984252 
vn 0.0866142 0.212598 -0.976378 
vn 0.0866142 0.125984 -0.984252 
vn 0.0866142 0.0393701 -0.992126 
vn 0.0866142 0.0393701 -0.992126 
vn 0.984252 0.133858 0.0866142 
vn 0.968504 0.228346 0.0866142 
vn 0.984252 0.133858 0.0866142 
vn 0.968504 0.228346 0.0866142 
vn 0.992126 0.0472441 0.0866142 
vn 0.992126 0.0472441 0.0866142 
vn -0.984252 0.133858 0.0944882 
vn -0.968504 0.228346 0.0944882 
vn -0.968504 0.228346 0.0944882 
vn -0.984252 0.133858 0.0944882 
vn -0.992126 0.0472441 0.0944882 
vn -0.992126 0.0472441 0.0944882 
vn 0.275591 0.110236 0.952756 
vn 0.19685 0.181102 0.96063 
vn 0 0.188976 0.984252 
vn 0.275591 0.110236 0.952756 
vn 0.275591 0.110236 0.952756 
vn 0.275591 0.110236 0.952756 
vn 0.0708661 0.110236 0.992126 
vn -0.0866142 0.015748 1 
vn 0.0708661 0.244094 0.968504 
vn 0.133858 0.362205 0.92126 
vn 0.275591 0.110236 0.952756 
vn 0.275591 0.110236 0.952756 
vn 0.275591 0.110236 0.952756 
vn 0.275591 0.110236 0.952756 
vn 0 0.448819 0.889764 
vn -0.023622 0.409449 0.913386 
vn -0.0708661 0.244094 0.968504 
vn 0.023622 0.409449 0.913386 
vn -0.0708661 0.110236 0.992126 
vn -0.133858 0.354331 0.92126 
vn -0.19685 0.181102 0.96063 
vn 0.0944882 0.00787402 0.992126 
vn -0.275591 0.110236 0.952756 
vn -0.275591 0.110236 0.952756 
vn -0.275591 0.110236 0.952756 
vn -0.275591 0.110236 0.952756 
vn -0.275591 0.110236 0.952756 
vn -0.275591 0.110236 0.952756 
vn -0.275591 0.110236 0.952756 
vn -0.275591 0.110236 0.952756 
vn 0 0 -1 
vn 0 0 -1 
vn 0 0 -1 
vn 0 0 -1 
vn 0 0 -1 
vn 0 0 -1 
vn 0 0 -1 
vn 0 0 -1 
vn 0 0 -1 
vn 0 0 -1 
vn 0 0 -1 
vn 0 0 -1 
vn 0 0 -1 
vn 0 0 -1 
vn 0 0 -1 
vn 0 0 -1 
vn 0 0 -1 
vn 0 0 -1 
vn 0 0 -1 
vn 0 0 -1 
vn 0 0 -1 
vn 0 0 -1 
vn 0 0 -1 
vn 0 0 -1 
vn 0 0 -1 
vn 0 0 -1 
vn 0 0 -1 
vn 0 0 -1 
vn 0 0 -1 
vn 0 0 -1 
vn 0 0 -1 
vn 0 0 -1 
vn 0 0 -1 
vn 0 0 -1 
vn 0 0 -1 
vn 0 0 -1 

vt 0.901369 0.916183 
vt 0.813021 0.84004 
vt 0.893507 0.833102 
vt 0.821116 0.925618 
vt 0.893507 0.833102 
vt 0.821116 0.925618 
vt 0.901369 0.916183 
vt 0.813044 0.840236 
vt 0.012897 0.679013 
vt 0.178442 0.674551 
vt 0.005605 0.830667 
vt 0.176674 0.990373 
vt 0.011072 0.988099 
vt 0.346529 0.832637 
vt 0.343084 0.981174 
vt 0.344713 0.681478 
vt 0.446358 0.183287 
vt 0.425227 0.34988 
vt 0.37072 0.183478 
vt 0.371095 0.351656 
vt 0.370517 0.015319 
vt 0.47667 0.348276 
vt 0.467107 0.016848 
vt 0.518679 0.183061 
vt 0.613751 0.349159 
vt 0.559311 0.018068 
vt 0.626817 0.182752 
vt 0.710056 0.349963 
vt 0.64196 0.016368 
vt 0.707272 0.182523 
vt 0.709917 0.015226 
vt 0.475123 0.637708 
vt 0.420421 0.606126 
vt 0.438655 0.637708 
vt 0.493357 0.606126 
vt 0.456889 0.547056 
vt 0.475123 0.637708 
vt 0.420421 0.606126 
vt 0.438655 0.637708 
vt 0.493357 0.606126 
vt 0.456889 0.547056 
vt 0.475123 0.637708 
vt 0.438655 0.637708 
vt 0.420421 0.606126 
vt 0.493357 0.606126 
vt 0.456889 0.547056 
vt 0.475123 0.637708 
vt 0.438655 0.637708 
vt 0.420421 0.606126 
vt 0.493357 0.606126 
vt 0.456889 0.547056 
vt 0.427762 0.490656 
vt 0.427762 0.430728 
vt 0.482867 0.490656 
vt 0.482867 0.430728 
vt 0.482867 0.430728 
vt 0.427762 0.490656 
vt 0.427762 0.430728 
vt 0.482867 0.490656 
vt 0.482867 0.430728 
vt 0.482867 0.490656 
vt 0.427762 0.430728 
vt 0.427762 0.490656 
vt 0.482867 0.430728 
vt 0.482867 0.490656 
vt 0.427762 0.430728 
vt 0.427762 0.490656 
vt 0.972581 0.466602 
vt 0.767212 0.37851 
vt 0.948285 0.589575 
vt 0.972249 0.570847 
vt 0.989567 0.535959 
vt 0.986958 0.496398 
vt 0.912706 0.651836 
vt 0.93697 0.624513 
vt 0.841321 0.66947 
vt 0.875403 0.670499 
vt 0.982026 0.440504 
vt 0.983026 0.412674 
vt 0.946267 0.370384 
vt 0.967093 0.388211 
vt 0.767212 0.702521 
vt 0.823899 0.688546 
vt 0.693103 0.66947 
vt 0.710525 0.688546 
vt 0.621719 0.651836 
vt 0.658649 0.670221 
vt 0.58614 0.589576 
vt 0.597826 0.62479 
vt 0.561844 0.466602 
vt 0.588157 0.370384 
vt 0.544858 0.535959 
vt 0.562593 0.572962 
vt 0.547048 0.494283 
vt 0.551399 0.412675 
vt 0.551956 0.441985 
vt 0.567773 0.38673 
vt 0.397846 0.673877 
vt 0.346529 0.832637 
vt 0.344713 0.681478 
vt 0.449497 0.823507 
vt 0.448657 0.671748 
vt 0.583687 0.679008 
vt 0.448501 0.969291 
vt 0.343084 0.981174 
vt 0.676623 0.83742 
vt 0.676495 0.697699 
vt 0.676366 0.976576 
vt 0.355903 0.171636 
vt 0.254673 0.012641 
vt 0.351848 0.017046 
vt 0.165985 0.169129 
vt 0.162319 0.013066 
vt 0.080291 0.022033 
vt 0.169237 0.320271 
vt 0.362213 0.330025 
vt 0.018462 0.183941 
vt 0.014968 0.042101 
vt 0.017859 0.323063 
vt 0.707272 0.182523 
vt 0.851696 0.019612 
vt 0.989469 0.182357 
vt 0.992848 0.014168 
vt 0.709917 0.015226 
vt 0.851785 0.345268 
vt 0.710056 0.349963 
vt 0.992703 0.350493 
vt 0.362213 0.330025 
vt 0.356964 0.496741 
vt 0.205935 0.491441 
vt 0.169237 0.320271 
vt 0.245218 0.659681 
vt 0.352497 0.665405 
vt 0.013892 0.658002 
vt 0.017666 0.48936 
vt 0.017859 0.323063 
vt 0.933036 0.765791 
vt 0.923212 0.834514 
vt 0.893507 0.833102 
vt 0.904609 0.757308 
vt 0.964389 0.773823 
vt 0.955391 0.834961 
vt 0.893507 0.833102 
vt 0.933036 0.765791 
vt 0.904609 0.757308 
vt 0.923212 0.834514 
vt 0.964389 0.773823 
vt 0.955391 0.834961 
vt 0.923212 0.834514 
vt 0.930436 0.908734 
vt 0.901369 0.916183 
vt 0.893507 0.833102 
vt 0.955391 0.834961 
vt 0.962322 0.902212 
vt 0.923212 0.834514 
vt 0.901369 0.916183 
vt 0.930436 0.908734 
vt 0.893507 0.833102 
vt 0.955391 0.834961 
vt 0.962322 0.902212 
vt 0.904609 0.757308 
vt 0.937923 0.679496 
vt 0.962256 0.697477 
vt 0.933036 0.765791 
vt 0.991562 0.710431 
vt 0.964389 0.773823 
vt 0.904609 0.757308 
vt 0.962256 0.697477 
vt 0.937923 0.679496 
vt 0.933036 0.765791 
vt 0.991562 0.710431 
vt 0.964389 0.773823 
vt 0.930436 0.908734 
vt 0.928145 0.990732 
vt 0.953234 0.974424 
vt 0.901369 0.916183 
vt 0.962322 0.902212 
vt 0.983516 0.963033 
vt 0.930436 0.908734 
vt 0.928145 0.990732 
vt 0.901369 0.916183 
vt 0.953234 0.974424 
vt 0.962322 0.902212 
vt 0.983516 0.963033 
vt 0.972581 0.466602 
vt 0.948285 0.589576 
vt 0.767212 0.37851 
vt 0.989567 0.535959 
vt 0.972249 0.570847 
vt 0.986958 0.496398 
vt 0.912705 0.651836 
vt 0.93697 0.624513 
vt 0.841321 0.66947 
vt 0.875403 0.670499 
vt 0.983025 0.412674 
vt 0.982026 0.440504 
vt 0.946267 0.370384 
vt 0.967093 0.388211 
vt 0.767212 0.702521 
vt 0.823899 0.688546 
vt 0.693103 0.66947 
vt 0.710525 0.688546 
vt 0.621719 0.651836 
vt 0.65865 0.670221 
vt 0.58614 0.589576 
vt 0.597826 0.624791 
vt 0.561844 0.466602 
vt 0.588157 0.370384 
vt 0.544858 0.535959 
vt 0.562593 0.572962 
vt 0.547048 0.494283 
vt 0.551399 0.412674 
vt 0.551956 0.441986 
vt 0.567773 0.386729 
vt 0.475123 0.637708 
vt 0.438655 0.637708 
vt 0.420421 0.606126 
vt 0.493357 0.606126 
vt 0.456889 0.547056 
vt 0.475123 0.637708 
vt 0.438655 0.637708 
vt 0.420421 0.606126 
vt 0.493357 0.606126 
vt 0.456889 0.547056 
vt 0.475123 0.637708 
vt 0.420421 0.606126 
vt 0.438655 0.637708 
vt 0.493357 0.606126 
vt 0.456889 0.547056 
vt 0.475123 0.637708 
vt 0.420421 0.606126 
vt 0.438655 0.637708 
vt 0.493357 0.606126 
vt 0.456889 0.547056 
vt 0.482867 0.490656 
vt 0.482867 0.430728 
vt 0.427762 0.430728 
vt 0.427762 0.490656 
vt 0.427762 0.490656 
vt 0.482867 0.430728 
vt 0.427762 0.430728 
vt 0.482867 0.490656 
vt 0.482867 0.490656 
vt 0.482867 0.430728 
vt 0.427762 0.430728 
vt 0.427762 0.490656 
vt 0.427762 0.430728 
vt 0.482867 0.490656 
vt 0.482867 0.430728 
vt 0.427762 0.490656 

usemtl Golden1Mtl

f 1/1/1 2/2/2 3/3/3 
f 2/2/2 1/1/1 4/4/4 
f 5/5/5 6/6/6 7/7/7 
f 6/6/6 5/5/5 8/8/8 
f 9/9/9 10/10/10 11/11/11 
f 12/12/12 11/11/11 10/10/10 
f 11/11/11 12/12/12 13/13/13 
f 14/14/14 12/12/12 10/10/10 
f 12/12/12 14/14/14 15/15/15 
f 10/10/10 16/16/16 14/14/14 
f 17/17/17 18/18/18 19/19/19 
f 20/20/20 19/19/19 18/18/18 
f 19/19/19 21/21/21 17/17/17 
f 18/18/18 17/17/17 22/22/22 
f 23/23/23 17/17/17 21/21/21 
f 24/24/24 22/22/22 17/17/17 
f 17/17/17 23/23/23 24/24/24 
f 22/22/22 24/24/24 25/25/25 
f 26/26/26 24/24/24 23/23/23 
f 24/24/24 27/27/27 25/25/25 
f 24/24/24 26/26/26 27/27/27 
f 25/25/25 27/27/27 28/28/28 
f 29/29/29 27/27/27 26/26/26 
f 30/30/30 28/28/28 27/27/27 
f 27/27/27 29/29/29 30/30/30 
f 31/31/31 30/30/30 29/29/29 
f 32/32/32 33/33/33 34/34/34 
f 35/35/35 33/33/33 32/32/32 
f 36/36/36 33/33/33 35/35/35 
f 37/37/37 38/38/38 39/39/39 
f 40/40/40 38/38/38 37/37/37 
f 41/41/41 38/38/38 40/40/40 
f 42/42/42 43/43/43 44/44/44 
f 45/45/45 42/42/42 44/44/44 
f 46/46/46 45/45/45 44/44/44 
f 47/47/47 48/48/48 49/49/49 
f 50/50/50 47/47/47 49/49/49 
f 51/51/51 50/50/50 49/49/49 
f 52/52/52 53/53/53 54/54/54 
f 54/54/54 53/53/53 55/55/55 
f 56/56/56 57/57/57 58/58/58 
f 57/57/57 56/56/56 59/59/59 
f 60/60/60 61/61/61 62/62/62 
f 63/63/63 62/62/62 61/61/61 
f 64/64/64 65/65/65 66/66/66 
f 66/66/66 65/65/65 67/67/67 
f 68/68/68 69/69/69 70/70/70 
f 70/70/70 71/71/71 72/72/72 
f 70/70/70 72/72/72 68/68/68 
f 72/72/72 73/73/73 68/68/68 
f 74/74/74 75/75/75 70/70/70 
f 76/76/76 74/74/74 70/70/70 
f 76/76/76 77/77/77 74/74/74 
f 70/70/70 69/69/69 76/76/76 
f 68/68/68 78/78/78 79/79/79 
f 68/68/68 79/79/79 80/80/80 
f 79/79/79 81/81/81 80/80/80 
f 80/80/80 69/69/69 68/68/68 
f 82/82/82 83/83/83 76/76/76 
f 84/84/84 82/82/82 76/76/76 
f 76/76/76 69/69/69 84/84/84 
f 84/84/84 85/85/85 82/82/82 
f 86/86/86 87/87/87 84/84/84 
f 88/88/88 86/86/86 84/84/84 
f 84/84/84 69/69/69 88/88/88 
f 88/88/88 89/89/89 86/86/86 
f 88/88/88 69/69/69 90/90/90 
f 90/90/90 69/69/69 91/91/91 
f 90/90/90 92/92/92 88/88/88 
f 92/92/92 93/93/93 88/88/88 
f 90/90/90 94/94/94 92/92/92 
f 91/91/91 95/95/95 90/90/90 
f 95/95/95 96/96/96 90/90/90 
f 91/91/91 97/97/97 95/95/95 
f 98/98/98 99/99/99 100/100/100 
f 99/99/99 98/98/98 101/101/101 
f 98/98/98 102/102/102 101/101/101 
f 103/103/103 101/101/101 102/102/102 
f 104/104/104 99/99/99 101/101/101 
f 99/99/99 104/104/104 105/105/105 
f 101/101/101 103/103/103 106/106/106 
f 101/101/101 106/106/106 104/104/104 
f 103/103/103 107/107/107 106/106/106 
f 104/104/104 106/106/106 108/108/108 
f 109/109/109 110/110/110 111/111/111 
f 110/110/110 109/109/109 112/112/112 
f 110/110/110 112/112/112 113/113/113 
f 114/114/114 113/113/113 112/112/112 
f 109/109/109 115/115/115 112/112/112 
f 109/109/109 116/116/116 115/115/115 
f 114/114/114 112/112/112 117/117/117 
f 115/115/115 117/117/117 112/112/112 
f 114/114/114 117/117/117 118/118/118 
f 117/117/117 115/115/115 119/119/119 
f 120/120/120 121/121/121 122/122/122 
f 121/121/121 123/123/123 122/122/122 
f 121/121/121 120/120/120 124/124/124 
f 125/125/125 120/120/120 122/122/122 
f 120/120/120 125/125/125 126/126/126 
f 125/125/125 122/122/122 127/127/127 
f 128/128/128 129/129/129 130/130/130 
f 128/128/128 130/130/130 131/131/131 
f 129/129/129 132/132/132 130/130/130 
f 129/129/129 133/133/133 132/132/132 
f 132/132/132 134/134/134 130/130/130 
f 130/130/130 134/134/134 135/135/135 
f 130/130/130 135/135/135 131/131/131 
f 131/131/131 135/135/135 136/136/136 
f 137/137/137 138/138/138 139/139/139 
f 139/139/139 140/140/140 137/137/137 
f 138/138/138 137/137/137 141/141/141 
f 141/141/141 142/142/142 138/138/138 
f 143/143/143 144/144/144 145/145/145 
f 144/144/144 143/143/143 146/146/146 
f 146/146/146 147/147/147 144/144/144 
f 147/147/147 146/146/146 148/148/148 
f 149/149/149 150/150/150 151/151/151 
f 151/151/151 152/152/152 149/149/149 
f 153/153/153 150/150/150 149/149/149 
f 153/153/153 154/154/154 150/150/150 
f 155/155/155 156/156/156 157/157/157 
f 156/156/156 155/155/155 158/158/158 
f 157/157/157 159/159/159 155/155/155 
f 159/159/159 157/157/157 160/160/160 
f 161/161/161 162/162/162 163/163/163 
f 161/161/161 163/163/163 164/164/164 
f 164/164/164 163/163/163 165/165/165 
f 164/164/164 165/165/165 166/166/166 
f 167/167/167 168/168/168 169/169/169 
f 168/168/168 167/167/167 170/170/170 
f 170/170/170 171/171/171 168/168/168 
f 171/171/171 170/170/170 172/172/172 
f 173/173/173 174/174/174 175/175/175 
f 174/174/174 173/173/173 176/176/176 
f 175/175/175 177/177/177 173/173/173 
f 177/177/177 175/175/175 178/178/178 
f 179/179/179 180/180/180 181/181/181 
f 180/180/180 179/179/179 182/182/182 
f 183/183/183 182/182/182 179/179/179 
f 182/182/182 183/183/183 184/184/184 
f 185/185/185 186/186/186 187/187/187 
f 186/186/186 188/188/188 189/189/189 
f 186/186/186 185/185/185 188/188/188 
f 188/188/188 185/185/185 190/190/190 
f 191/191/191 186/186/186 192/192/192 
f 193/193/193 186/186/186 191/191/191 
f 193/193/193 191/191/191 194/194/194 
f 186/186/186 193/193/193 187/187/187 
f 185/185/185 195/195/195 196/196/196 
f 185/185/185 197/197/197 195/195/195 
f 195/195/195 197/197/197 198/198/198 
f 197/197/197 185/185/185 187/187/187 
f 199/199/199 193/193/193 200/200/200 
f 201/201/201 193/193/193 199/199/199 
f 193/193/193 201/201/201 187/187/187 
f 201/201/201 199/199/199 202/202/202 
f 203/203/203 201/201/201 204/204/204 
f 205/205/205 201/201/201 203/203/203 
f 201/201/201 205/205/205 187/187/187 
f 205/205/205 203/203/203 206/206/206 
f 205/205/205 207/207/207 187/187/187 
f 207/207/207 208/208/208 187/187/187 
f 207/207/207 205/205/205 209/209/209 
f 209/209/209 205/205/205 210/210/210 
f 207/207/207 209/209/209 211/211/211 
f 208/208/208 207/207/207 212/212/212 
f 212/212/212 207/207/207 213/213/213 
f 208/208/208 212/212/212 214/214/214 
f 215/215/215 216/216/216 217/217/217 
f 218/218/218 215/215/215 217/217/217 
f 219/219/219 218/218/218 217/217/217 
f 220/220/220 221/221/221 222/222/222 
f 223/223/223 220/220/220 222/222/222 
f 224/224/224 223/223/223 222/222/222 
f 225/225/225 226/226/226 227/227/227 
f 228/228/228 226/226/226 225/225/225 
f 229/229/229 226/226/226 228/228/228 
f 230/230/230 231/231/231 232/232/232 
f 233/233/233 231/231/231 230/230/230 
f 234/234/234 231/231/231 233/233/233 
f 235/235/235 236/236/236 237/237/237 
f 237/237/237 238/238/238 235/235/235 
f 239/239/239 240/240/240 241/241/241 
f 240/240/240 239/239/239 242/242/242 
f 243/243/243 244/244/244 245/245/245 
f 245/245/245 246/246/246 243/243/243 
f 247/247/247 248/248/248 249/249/249 
f 248/248/248 247/247/247 250/250/250 

