# This file is brought to you by Roblox Corporation
# Generated by Roblox Studio

mtllib cat_pirat.mtl

g Pet1

v -0.159037 0.454522 -2.02909 
v 0.41196 1.00662 -2.03578 
v 0.414005 0.456163 -2.02692 
v -0.161081 1.00499 -2.03794 
v 0.218055 -1.30681 0.402625 
v 0.612453 -1.30681 -0.0527912 
v 0.652902 -1.30681 0.360016 
v 0.177606 -1.30681 -0.0101823 
v -0.392376 -1.30681 -0.224245 
v 0.0790317 -1.30681 -0.599382 
v 0.0428914 -1.30681 -0.186175 
v -0.356236 -1.30681 -0.637452 
v 0.194712 -1.30681 -0.187854 
v 0.581323 -1.30681 -0.649899 
v 0.628773 -1.30681 -0.237836 
v 0.147261 -1.30681 -0.599915 
v -0.408064 -0.65606 1.2468 
v -0.605298 -0.781581 1.1949 
v -0.366159 -0.713854 1.21165 
v -0.529189 -0.851281 1.15248 
v -0.748713 -0.87346 1.13918 
v -0.696655 -0.958568 1.08742 
v -0.321665 -1.14433 0.957366 
v -0.414709 -1.20394 0.921217 
v -0.883964 -1.04559 1.01047 
v -0.931744 -0.991561 1.04335 
v -0.844887 0.716328 2.03794 
v -1.03454 0.529033 1.92427 
v -0.855822 0.534302 1.92733 
v -0.737528 -0.856317 1.08212 
v -0.594112 -0.764437 1.13784 
v -0.900084 -0.709015 1.17178 
v -0.594112 -0.764437 1.13784 
v -0.692131 -0.612035 1.23054 
v -0.900084 -0.709015 1.17178 
v -0.692131 -0.612035 1.23054 
v -0.792776 -0.430369 1.34103 
v -0.900084 -0.709015 1.17178 
v -0.900084 -0.709015 1.17178 
v -0.792776 -0.430369 1.34103 
v -1.06003 -0.537388 1.27621 
v -1.06003 -0.537388 1.27621 
v -0.792776 -0.430369 1.34103 
v -1.1796 -0.299015 1.42117 
v -0.792776 -0.430369 1.34103 
v -0.845891 -0.234116 1.46034 
v -1.1796 -0.299015 1.42117 
v -1.1796 -0.299015 1.42117 
v -0.845891 -0.234116 1.46034 
v -1.22238 0.000436485 1.60319 
v -0.845891 -0.234116 1.46034 
v -0.840387 -0.00320399 1.60066 
v -1.22238 0.000436485 1.60319 
v -1.22238 0.000436485 1.60319 
v -0.840387 -0.00320399 1.60066 
v -1.16723 0.275759 1.77046 
v -0.840387 -0.00320399 1.60066 
v -0.780735 0.156803 1.69785 
v -1.16723 0.275759 1.77046 
v -1.16723 0.275759 1.77046 
v -0.780735 0.156803 1.69785 
v -1.03454 0.529033 1.92427 
v -0.780735 0.156803 1.69785 
v -0.701263 0.281217 1.77339 
v -1.03454 0.529033 1.92427 
v -0.701263 0.281217 1.77339 
v -0.798073 0.397893 1.84438 
v -1.03454 0.529033 1.92427 
v -1.03454 0.529033 1.92427 
v -0.798073 0.397893 1.84438 
v -0.855822 0.534302 1.92733 
v -0.718145 -0.911768 0.977262 
v -0.273148 -1.2628 0.77304 
v -0.281388 -0.899951 0.97383 
v -0.709904 -1.27462 0.776472 
v 0.111582 -1.09013 0.344818 
v 0.961387 -1.08763 0.456826 
v 0.111582 -1.07704 0.730932 
v 0.968887 -1.0498 0.730932 
v -0.745718 -1.0498 0.730932 
v 0.954217 -1.0987 0.194548 
v -0.737888 -1.08817 0.238892 
v 0.111582 -1.10358 -0.024637 
v 0.961657 -1.06115 -0.503164 
v -0.730388 -1.09975 -0.23192 
v 0.111582 -1.06115 -0.577352 
v 0.968887 -0.964311 -0.983673 
v -0.738488 -1.06115 -0.65154 
v 0.111582 -0.987394 -0.983673 
v -0.745718 -0.964311 -0.983673 
v 0.111582 -0.987394 -0.983673 
v -0.719243 -0.242545 -0.983673 
v 0.11158 0.458563 -0.983816 
v -0.745725 0.477448 -0.983778 
v -0.745718 -0.964311 -0.983673 
v 0.94269 -0.242545 -0.983673 
v 0.968887 -0.964311 -0.983673 
v 0.96888 0.47633 -0.983846 
v -0.883964 -1.04559 1.01047 
v -0.931798 -0.951604 0.977599 
v -0.884018 -1.00563 0.944726 
v -0.931744 -0.991561 1.04335 
v 0.961387 -1.08763 0.456826 
v 0.995099 -0.26416 0.730932 
v 0.968887 -1.0498 0.730932 
v 0.954217 -0.313052 0.194548 
v 0.954217 -1.0987 0.194548 
v 0.961657 -1.06115 -0.503164 
v 0.954885 0.440195 0.192632 
v 0.96849 0.508663 0.732837 
v 0.94269 -0.242545 -0.983673 
v 0.968887 -0.964311 -0.983673 
v 0.96888 0.47633 -0.983846 
v -0.414709 -1.20394 0.921217 
v -0.696738 -0.897118 0.986302 
v -0.414772 -1.15745 0.844712 
v -0.696655 -0.958568 1.08742 
v -0.778861 -0.26416 0.730932 
v -0.737888 -1.08817 0.238892 
v -0.745718 -1.0498 0.730932 
v -0.730388 -0.314177 -0.231928 
v -0.730388 -1.09975 -0.23192 
v -0.738488 -1.06115 -0.65154 
v -0.730658 0.432463 -0.231025 
v -0.744811 0.55091 0.726552 
v -0.719243 -0.242545 -0.983673 
v -0.745718 -0.964311 -0.983673 
v -0.745725 0.477448 -0.983778 
v -0.709904 -1.27462 0.776472 
v -0.310906 -1.16396 0.659902 
v -0.273148 -1.2628 0.77304 
v -0.679328 -1.17393 0.662797 
v -0.321808 -1.07777 0.518311 
v -0.675327 -1.07024 0.521088 
v 0.20613 1.13899 -0.537294 
v 0.433626 1.02153 -0.486822 
v 0.238569 1.01249 -0.657421 
v 0.10608 1.01249 -0.65742 
v 0.10608 1.13899 -0.537294 
v 0.10608 0.803015 -0.734394 
v 0.10608 1.21216 -0.253519 
v 0.254883 0.803015 -0.734394 
v 0.10608 0.448919 -0.756933 
v 0.267033 0.448919 -0.756933 
v 0.494091 0.811059 -0.548918 
v 0.526281 0.457108 -0.553746 
v 0.6219 0.471073 -0.23495 
v 0.335568 1.14769 -0.401426 
v 0.584732 0.823312 -0.249971 
v 0.510556 1.03114 -0.251674 
v 0.389902 1.15365 -0.253519 
v 0.336045 1.15952 -0.107794 
v 0.204755 1.1682 0.0277677 
v 0.433795 1.04122 -0.016843 
v 0.10608 1.1682 0.0277677 
v 0.10608 1.05528 0.152028 
v 0.237349 1.05528 0.152028 
v 0.10608 0.854557 0.233202 
v 0.493889 0.836597 0.0507965 
v 0.526281 0.483615 0.103776 
v 0.267033 0.523766 0.306961 
v 0.10608 0.491805 0.306961 
v 0.254025 0.854557 0.233203 
v -0.745718 -1.0498 0.730932 
v 0.111582 -1.07704 0.730932 
v -0.778861 -0.26416 0.730932 
v 0.11184 0.556708 0.729694 
v -0.744811 0.55091 0.726552 
v 0.995099 -0.26416 0.730932 
v 0.96849 0.508663 0.732837 
v 0.968887 -1.0498 0.730932 
v 0.937994 0.692658 0.70905 
v 0.678164 0.493589 0.708862 
v 0.955853 0.47823 0.708862 
v 0.878968 0.899897 0.70905 
v 0.713477 1.11685 0.70905 
v 0.678164 0.493589 0.708862 
v 0.442655 0.720061 0.70905 
v 0.402245 0.465666 0.708862 
v 0.524628 0.919491 0.70905 
v 0.713477 1.11685 0.70905 
v -0.218892 0.744476 0.702807 
v -0.453766 0.516492 0.702627 
v -0.174234 0.517498 0.702627 
v -0.301659 0.943417 0.702807 
v -0.491298 1.13963 0.702807 
v -0.453766 0.516492 0.702627 
v -0.714049 0.713985 0.702807 
v -0.731402 0.500037 0.702627 
v -0.655869 0.92161 0.702807 
v -0.491298 1.13963 0.702807 
v -0.043738 0.0543585 -0.96285 
v -0.0905266 0.458413 -1.61835 
v 0.276894 0.0554002 -0.962211 
v 0.335998 0.459732 -1.61716 
v -0.709904 -1.27462 0.776472 
v -0.718145 -0.911768 0.977262 
v -0.679328 -1.17393 0.662797 
v -0.686278 -0.86785 0.832172 
v -0.675327 -1.07024 0.521088 
v -0.681997 -0.793633 0.683612 
v -0.02641 1.01249 -0.65742 
v -0.221466 1.02153 -0.486822 
v 0.00602895 1.13899 -0.537294 
v 0.10608 1.01249 -0.65742 
v 0.10608 1.13899 -0.537294 
v 0.10608 0.803015 -0.734394 
v 0.10608 1.21216 -0.253519 
v -0.0427233 0.803015 -0.734394 
v 0.10608 0.448919 -0.756933 
v -0.0548733 0.448919 -0.756933 
v -0.281931 0.811059 -0.548919 
v -0.314121 0.457108 -0.553746 
v -0.40974 0.471073 -0.23495 
v -0.372573 0.823312 -0.249971 
v -0.123409 1.14769 -0.401427 
v -0.298397 1.03114 -0.251674 
v -0.177743 1.15365 -0.253519 
v -0.123885 1.15952 -0.107794 
v -0.221636 1.04122 -0.0168431 
v -0.28173 0.836597 0.0507964 
v -0.314121 0.483615 0.103776 
v -0.0548734 0.523766 0.306961 
v 0.00740437 1.1682 0.0277677 
v 0.10608 1.1682 0.0277677 
v 0.10608 1.05528 0.152028 
v -0.0251899 1.05528 0.152028 
v 0.10608 0.854557 0.233202 
v 0.10608 0.491805 0.306961 
v -0.0418654 0.854558 0.233202 
v 0.551078 -1.15925 -0.613752 
v 0.591104 -1.15925 -0.266162 
v 0.628773 -1.30681 -0.237836 
v 0.581323 -1.30681 -0.649899 
v 0.544483 -0.993442 -0.605869 
v 0.582889 -0.993442 -0.272339 
v -0.356236 -1.30681 -0.637452 
v 0.0421535 -1.15925 -0.570035 
v 0.0790317 -1.30681 -0.599382 
v -0.325012 -1.15925 -0.602148 
v 0.0341105 -0.993442 -0.563635 
v -0.318203 -0.993442 -0.594449 
v 0.581323 -1.30681 -0.649899 
v 0.147261 -1.30681 -0.599915 
v 0.18493 -1.15925 -0.57159 
v 0.551078 -1.15925 -0.613752 
v 0.193146 -0.993442 -0.565412 
v 0.544483 -0.993442 -0.605869 
v 0.581599 -1.15925 -0.017164 
v 0.61572 -1.15925 0.331055 
v 0.652902 -1.30681 0.360016 
v 0.612453 -1.30681 -0.0527912 
v 0.57487 -0.993442 -0.00939397 
v 0.607611 -0.993442 0.324739 
v -0.414772 -1.15745 0.844712 
v -0.321728 -1.09784 0.88086 
v -0.414709 -1.20394 0.921217 
v -0.321665 -1.14433 0.957366 
v -0.350556 0.567432 -0.946722 
v -0.590964 0.541137 -0.633228 
v -0.36989 0.492166 -0.52082 
v -0.182727 0.4945 -0.732627 
v 0.105477 0.592181 -1.06221 
v 0.105477 0.491507 -0.809976 
v 0.105477 0.801804 -1.17093 
v 0.105477 0.544549 0.286536 
v -0.478434 0.756622 -1.04125 
v 0.105477 1.04013 -1.21624 
v -0.55904 0.984715 -1.08156 
v -0.883056 0.891887 -0.716486 
v -0.745013 0.68667 -0.689595 
v -1.00181 0.864343 -0.225823 
v -0.429412 0.48136 -0.23382 
v -0.839729 0.668312 -0.216883 
v -0.67009 0.541808 -0.211114 
v -0.744636 0.75259 0.21322 
v -0.882736 0.957301 0.217206 
v -0.37028 0.499228 0.0342094 
v -0.59051 0.605704 0.180497 
v -0.476472 0.967985 0.46773 
v -0.556972 1.21661 0.468979 
v -0.223179 1.30236 0.512128 
v -0.179215 0.977516 0.535116 
v -0.349094 0.729496 0.420579 
v -0.0579837 0.731891 0.504296 
v -0.182727 0.544811 0.223865 
v 0.105477 0.62493 0.459975 
v -0.744811 0.55091 0.726552 
v 0.11184 0.556708 0.729694 
v 0.111726 0.435538 -0.0260988 
v -0.730658 0.432463 -0.231025 
v 0.954885 0.440195 0.192632 
v 0.96849 0.508663 0.732837 
v 0.96888 0.47633 -0.983846 
v 0.11158 0.458563 -0.983816 
v -0.745725 0.477448 -0.983778 
v 0.561509 0.567432 -0.946721 
v 0.580843 0.492166 -0.52082 
v 0.801918 0.541137 -0.633228 
v 0.39368 0.4945 -0.732626 
v 0.105477 0.592181 -1.06221 
v 0.105477 0.491507 -0.809976 
v 0.105477 0.801804 -1.17093 
v 0.105477 0.544549 0.286536 
v 0.689388 0.756622 -1.04125 
v 0.105477 1.04013 -1.21624 
v 0.769994 0.984715 -1.08156 
v 1.09401 0.891887 -0.716486 
v 0.955967 0.68667 -0.689594 
v 1.21277 0.864343 -0.225823 
v 1.05068 0.668312 -0.216883 
v 0.640366 0.48136 -0.233819 
v 0.881043 0.541808 -0.211114 
v 0.95559 0.75259 0.21322 
v 1.09369 0.957301 0.217207 
v 0.581234 0.499228 0.0342095 
v 0.801463 0.605704 0.180497 
v 0.687426 0.967985 0.46773 
v 0.767925 1.21661 0.468979 
v 0.434133 1.30236 0.512128 
v 0.390169 0.977516 0.535116 
v 0.560047 0.729496 0.420579 
v 0.268938 0.731891 0.504296 
v 0.39368 0.544811 0.223865 
v 0.105477 0.62493 0.459975 
v -0.392376 -1.30681 -0.224245 
v -0.325012 -1.15925 -0.602148 
v -0.356236 -1.30681 -0.637452 
v -0.355498 -1.15925 -0.253592 
v -0.318203 -0.993442 -0.594449 
v -0.347455 -0.993442 -0.259992 
v 0.61572 -1.15925 0.331055 
v 0.24891 -1.15925 0.366998 
v 0.218055 -1.30681 0.402625 
v 0.652902 -1.30681 0.360016 
v 0.607611 -0.993442 0.324739 
v 0.255638 -0.993442 0.359228 
v -0.605298 -0.781581 1.1949 
v -0.408118 -0.616103 1.18105 
v -0.605382 -0.72013 1.09378 
v -0.408064 -0.65606 1.2468 
v -0.748713 -0.87346 1.13918 
v -0.748796 -0.812009 1.03807 
v -0.931744 -0.991561 1.04335 
v -0.931798 -0.951604 0.977599 
v 0.335998 0.459732 -1.61716 
v 0.41196 1.00662 -2.03578 
v 0.334605 0.817612 -1.4803 
v 0.414005 0.456163 -2.02692 
v 0.277523 0.43591 -0.960318 
v 0.276894 0.0554002 -0.962211 
v -0.884018 -1.00563 0.944726 
v -0.696738 -0.897118 0.986302 
v -0.883964 -1.04559 1.01047 
v -0.696655 -0.958568 1.08742 
v 0.807965 0.539008 -0.63654 
v 0.396183 0.448877 -0.709148 
v 0.565469 0.565531 -0.952755 
v 0.105477 0.590496 -1.06925 
v 0.105477 0.445858 -0.787169 
v 0.105477 0.801938 -1.17891 
v 0.584971 0.446522 -0.495503 
v 0.694458 0.756364 -1.04811 
v 0.105477 1.04233 -1.22461 
v 0.775765 0.986438 -1.08876 
v 1.10259 0.892802 -0.720521 
v 0.963351 0.685805 -0.693395 
v 1.22238 0.865022 -0.225588 
v 0.887778 0.539685 -0.210752 
v 0.64501 0.435623 -0.208061 
v 1.05889 0.667287 -0.216572 
v 0.585365 0.436994 0.0622955 
v 0.962971 0.752446 0.216675 
v 1.10227 0.959037 0.220582 
v 0.807507 0.604218 0.18374 
v 0.692479 0.969862 0.473227 
v 0.773678 1.22085 0.474258 
v 0.436986 1.30681 0.517711 
v 0.392613 0.979492 0.541178 
v 0.563994 0.729118 0.425872 
v 0.396183 0.447782 0.250838 
v 0.268938 0.731891 0.504296 
v 0.105477 0.62493 0.459975 
v 0.105477 0.478499 0.314358 
v -0.161081 1.00499 -2.03794 
v -0.0905266 0.458413 -1.61835 
v -0.0919202 0.816294 -1.48149 
v -0.159037 0.454522 -2.02909 
v -0.0431087 0.434861 -0.960957 
v -0.043738 0.0543585 -0.96285 
v -0.174234 0.517498 0.702627 
v -0.31037 0.727486 0.494044 
v -0.218892 0.744476 0.702807 
v -0.276963 0.491645 0.423635 
v -0.365997 0.911358 0.55527 
v -0.301659 0.943417 0.702807 
v -0.491298 1.13963 0.702807 
v -0.474479 0.883065 0.44481 
v -0.463111 0.706732 0.355042 
v -0.447375 0.457678 0.226257 
v -0.623385 0.471682 0.423635 
v -0.619243 0.708475 0.494044 
v -0.731402 0.500037 0.702627 
v -0.714049 0.713985 0.702807 
v -0.586949 0.897754 0.55527 
v -0.655869 0.92161 0.702807 
v -0.529273 -0.78983 1.05136 
v -0.366159 -0.713854 1.21165 
v -0.529189 -0.851281 1.15248 
v -0.366214 -0.673897 1.1459 
v 0.955853 0.47823 0.708862 
v 0.845163 0.686446 0.500284 
v 0.937994 0.692658 0.70905 
v 0.850867 0.4484 0.429874 
v 0.811334 0.875548 0.56151 
v 0.878968 0.899897 0.70905 
v 0.713477 1.11685 0.70905 
v 0.700294 0.860091 0.451048 
v 0.691044 0.683624 0.341694 
v 0.677614 0.432976 0.232497 
v 0.504442 0.467653 0.429874 
v 0.536178 0.703545 0.500283 
v 0.402245 0.465666 0.708862 
v 0.442655 0.720061 0.70905 
v 0.590302 0.887778 0.56151 
v 0.524628 0.919491 0.70905 
v 0.612453 -1.30681 -0.0527912 
v 0.177606 -1.30681 -0.0101823 
v 0.214788 -1.15925 0.018779 
v 0.581599 -1.15925 -0.017164 
v 0.222897 -0.993442 0.0250947 
v 0.57487 -0.993442 -0.00939397 
v 0.334605 0.817612 -1.4803 
v -0.161081 1.00499 -2.03794 
v -0.0919202 0.816294 -1.48149 
v 0.41196 1.00662 -2.03578 
v 0.277523 0.43591 -0.960318 
v -0.0431087 0.434861 -0.960957 
v 0.0116674 -1.15925 -0.221479 
v 0.0790317 -1.30681 -0.599382 
v 0.0421535 -1.15925 -0.570035 
v 0.0428914 -1.30681 -0.186175 
v 0.00485815 -0.993442 -0.229178 
v 0.0341105 -0.993442 -0.563635 
v -0.597012 0.539008 -0.63654 
v -0.185229 0.448877 -0.709148 
v -0.374017 0.446522 -0.495503 
v 0.105477 0.445858 -0.787169 
v 0.105477 0.590496 -1.06925 
v -0.354515 0.565531 -0.952755 
v 0.105477 0.801938 -1.17891 
v -0.483504 0.756364 -1.04811 
v 0.105477 1.04233 -1.22461 
v -0.56481 0.986438 -1.08876 
v -0.891639 0.892802 -0.720521 
v -0.752398 0.685805 -0.693396 
v -1.01143 0.865022 -0.225588 
v -0.847937 0.667287 -0.216572 
v -0.676824 0.539685 -0.210753 
v -0.434057 0.420757 -0.208062 
v -0.374411 0.442441 0.0622954 
v -0.752018 0.752446 0.216675 
v -0.891317 0.959037 0.220581 
v -0.596553 0.604218 0.18374 
v -0.481526 0.969862 0.473226 
v -0.562724 1.22085 0.474258 
v -0.226033 1.30681 0.517711 
v -0.181659 0.979492 0.541178 
v -0.35304 0.729118 0.425871 
v -0.185229 0.462704 0.250676 
v -0.0579844 0.731891 0.504296 
v 0.105477 0.62493 0.459975 
v 0.105477 0.478499 0.314358 
v 0.335998 0.459732 -1.61716 
v -0.0905266 0.458413 -1.61835 
v -0.159037 0.454522 -2.02909 
v 0.414005 0.456163 -2.02692 
v -0.408118 -0.616103 1.18105 
v -0.366159 -0.713854 1.21165 
v -0.366214 -0.673897 1.1459 
v -0.408064 -0.65606 1.2468 
v 0.24891 -1.15925 0.366998 
v 0.177606 -1.30681 -0.0101823 
v 0.218055 -1.30681 0.402625 
v 0.214788 -1.15925 0.018779 
v 0.255638 -0.993442 0.359228 
v 0.222897 -0.993442 0.0250947 
v 0.591104 -1.15925 -0.266162 
v 0.224957 -1.15925 -0.223999 
v 0.194712 -1.30681 -0.187854 
v 0.628773 -1.30681 -0.237836 
v 0.582889 -0.993442 -0.272339 
v 0.231552 -0.993442 -0.231882 
v -0.355498 -1.15925 -0.253592 
v 0.0428914 -1.30681 -0.186175 
v 0.0116674 -1.15925 -0.221479 
v -0.392376 -1.30681 -0.224245 
v -0.347455 -0.993442 -0.259992 
v 0.00485815 -0.993442 -0.229178 
v 0.224957 -1.15925 -0.223999 
v 0.147261 -1.30681 -0.599915 
v 0.194712 -1.30681 -0.187854 
v 0.18493 -1.15925 -0.57159 
v 0.231552 -0.993442 -0.231882 
v 0.193146 -0.993442 -0.565412 
v -0.317858 -0.857881 0.829277 
v -0.273148 -1.2628 0.77304 
v -0.310906 -1.16396 0.659902 
v -0.281388 -0.899951 0.97383 
v -0.328478 -0.784068 0.680834 
v -0.321808 -1.07777 0.518311 
v -0.529273 -0.78983 1.05136 
v -0.321665 -1.14433 0.957366 
v -0.321728 -1.09784 0.88086 
v -0.529189 -0.851281 1.15248 
v -0.317858 -0.857881 0.829277 
v -0.718145 -0.911768 0.977262 
v -0.281388 -0.899951 0.97383 
v -0.686278 -0.86785 0.832172 
v -0.328478 -0.784068 0.680834 
v -0.681997 -0.793633 0.683612 
v -0.408118 -0.616103 1.18105 
v -0.366214 -0.673897 1.1459 
v -0.605382 -0.72013 1.09378 
v -0.529273 -0.78983 1.05136 
v -0.748796 -0.812009 1.03807 
v -0.931798 -0.951604 0.977599 
v -0.884018 -1.00563 0.944726 
v -0.696738 -0.897118 0.986302 
v -0.414772 -1.15745 0.844712 
v -0.321728 -1.09784 0.88086 
v -0.844891 0.71953 2.03267 
v -0.855826 0.537504 1.92206 
v -1.03454 0.532235 1.919 
v -0.737532 -0.853114 1.07685 
v -0.900088 -0.705812 1.16651 
v -0.594117 -0.761234 1.13257 
v -0.594117 -0.761234 1.13257 
v -0.900088 -0.705812 1.16651 
v -0.692134 -0.608833 1.22527 
v -0.692134 -0.608833 1.22527 
v -0.900088 -0.705812 1.16651 
v -0.792781 -0.427165 1.33576 
v -0.900088 -0.705812 1.16651 
v -1.06003 -0.534184 1.27094 
v -0.792781 -0.427165 1.33576 
v -1.06003 -0.534184 1.27094 
v -1.1796 -0.295811 1.4159 
v -0.792781 -0.427165 1.33576 
v -0.792781 -0.427165 1.33576 
v -1.1796 -0.295811 1.4159 
v -0.845895 -0.230912 1.45507 
v -1.1796 -0.295811 1.4159 
v -1.22238 0.00363976 1.59792 
v -0.845895 -0.230912 1.45507 
v -0.845895 -0.230912 1.45507 
v -1.22238 0.00363976 1.59792 
v -0.840391 -7.15256e-07 1.59539 
v -1.22238 0.00363976 1.59792 
v -1.16724 0.278962 1.7652 
v -0.840391 -7.15256e-07 1.59539 
v -0.840391 -7.15256e-07 1.59539 
v -1.16724 0.278962 1.7652 
v -0.780739 0.160006 1.69258 
v -1.16724 0.278962 1.7652 
v -1.03454 0.532235 1.919 
v -0.780739 0.160006 1.69258 
v -0.780739 0.160006 1.69258 
v -1.03454 0.532235 1.919 
v -0.701267 0.28442 1.76813 
v -0.701267 0.28442 1.76813 
v -1.03454 0.532235 1.919 
v -0.798078 0.401096 1.83911 
v -1.03454 0.532235 1.919 
v -0.855826 0.537504 1.92206 
v -0.798078 0.401096 1.83911 

vn 0 -0.015748 -1 
vn 0 -0.015748 -1 
vn 0 -0.015748 -1 
vn 0 -0.015748 -1 
vn 0 -1 0 
vn 0 -1 0 
vn 0 -1 0 
vn 0 -1 0 
vn 0 -1 0 
vn 0 -1 0 
vn 0 -1 0 
vn 0 -1 0 
vn 0 -1 0 
vn 0 -1 0 
vn 0 -1 0 
vn 0 -1 0 
vn 0.0708661 -0.480315 0.874016 
vn 0.0472441 -0.488189 0.874016 
vn 0.0708661 -0.472441 0.88189 
vn 0.023622 -0.511811 0.858268 
vn -0.0393701 -0.543307 0.84252 
vn -0.00787402 -0.543307 0.84252 
vn 0.023622 -0.543307 0.84252 
vn 0.023622 -0.543307 0.84252 
vn -0.0787402 -0.559055 0.826772 
vn -0.0708661 -0.559055 0.826772 
vn 0 -0.519685 0.858268 
vn 0 -0.519685 0.858268 
vn 0 -0.519685 0.858268 
vn 0 -0.519685 0.858268 
vn 0 -0.519685 0.858268 
vn 0 -0.519685 0.858268 
vn 0 -0.519685 0.858268 
vn 0 -0.519685 0.858268 
vn 0 -0.519685 0.858268 
vn 0 -0.519685 0.858268 
vn 0 -0.519685 0.858268 
vn 0 -0.519685 0.858268 
vn 0 -0.519685 0.858268 
vn 0 -0.519685 0.858268 
vn 0 -0.519685 0.858268 
vn 0 -0.519685 0.858268 
vn 0 -0.519685 0.858268 
vn 0 -0.519685 0.858268 
vn 0 -0.519685 0.858268 
vn 0 -0.519685 0.858268 
vn 0 -0.519685 0.858268 
vn 0 -0.519685 0.858268 
vn 0 -0.519685 0.858268 
vn 0 -0.519685 0.858268 
vn 0 -0.519685 0.858268 
vn 0 -0.519685 0.858268 
vn 0 -0.519685 0.858268 
vn 0 -0.519685 0.858268 
vn 0 -0.519685 0.858268 
vn 0 -0.519685 0.858268 
vn 0 -0.519685 0.858268 
vn 0 -0.519685 0.858268 
vn 0 -0.519685 0.858268 
vn 0 -0.519685 0.858268 
vn 0 -0.519685 0.858268 
vn 0 -0.519685 0.858268 
vn 0 -0.519685 0.858268 
vn 0 -0.519685 0.858268 
vn 0 -0.519685 0.858268 
vn 0 -0.519685 0.858268 
vn 0 -0.519685 0.858268 
vn 0 -0.519685 0.858268 
vn 0 -0.519685 0.858268 
vn 0 -0.519685 0.858268 
vn 0 -0.519685 0.858268 
vn 0.023622 -0.480315 0.874016 
vn 0.023622 -0.480315 0.874016 
vn 0.023622 -0.480315 0.874016 
vn 0.023622 -0.480315 0.874016 
vn -0.00787402 -1 0.0472441 
vn 0.00787402 -1 0.0629921 
vn -0.00787402 -1 0.0629921 
vn 0.015748 -1 0.0787402 
vn -0.023622 -1 0.0551181 
vn 0.00787402 -1 -0.023622 
vn -0.015748 -1 0.0472441 
vn 0.00787402 -1 -0.0314961 
vn 0.015748 -0.992126 -0.110236 
vn 0 -1 -0.0393701 
vn 0.015748 -0.992126 -0.125984 
vn 0.023622 -0.984252 -0.188976 
vn 0.00787402 -0.992126 -0.149606 
vn 0.00787402 -0.976378 -0.204724 
vn 0 -0.976378 -0.228346 
vn 0 0 -1 
vn 0 0 -1 
vn 0 0 -1 
vn 0 0 -1 
vn 0 0 -1 
vn 0 0 -1 
vn 0 0 -1 
vn 0 0 -1 
vn -0.795276 -0.511811 -0.314961 
vn -0.795276 -0.511811 -0.314961 
vn -0.795276 -0.511811 -0.314961 
vn -0.795276 -0.511811 -0.314961 
vn 1 -0.00787402 -0.0393701 
vn 1 0 -0.0551181 
vn 1 -0.023622 -0.0551181 
vn 1 0 -0.00787402 
vn 1 0 0 
vn 1 0.00787402 0.00787402 
vn 1 -0.00787402 -0.015748 
vn 1 0.015748 -0.0551181 
vn 1 0 0 
vn 1 0.023622 0 
vn 1 -0.015748 0 
vn -0.724409 -0.590551 -0.354331 
vn -0.724409 -0.590551 -0.354331 
vn -0.724409 -0.590551 -0.354331 
vn -0.724409 -0.590551 -0.354331 
vn -1 0 -0.0393701 
vn -1 -0.015748 -0.023622 
vn -1 -0.0314961 -0.0393701 
vn -1 0 -0.015748 
vn -1 0 0 
vn -1 0.015748 0.00787402 
vn -1 0.00787402 -0.023622 
vn -1 0.023622 -0.0314961 
vn -1 0 0 
vn -1 0.023622 0 
vn -1 -0.015748 0 
vn 0.015748 -0.748031 -0.661417 
vn 0.00787402 -0.795276 -0.614173 
vn 0.015748 -0.748031 -0.661417 
vn 0.00787402 -0.795276 -0.614173 
vn 0 -0.834646 -0.559055 
vn 0 -0.834646 -0.559055 
vn 0.165354 0.874016 -0.456693 
vn 0.692913 0.535433 -0.480315 
vn 0.283465 0.551181 -0.787402 
vn 0 0.527559 -0.850394 
vn 0 0.858268 -0.503937 
vn 0 0.204724 -0.976378 
vn 0 1 -0.0472441 
vn 0.322835 0.220472 -0.92126 
vn 0 0.0629921 -1 
vn 0.322835 0.0708661 -0.944882 
vn 0.80315 0.220472 -0.551181 
vn 0.818898 0.0787402 -0.566929 
vn 0.992126 0.110236 -0.00787402 
vn 0.393701 0.874016 -0.291339 
vn 0.976378 0.228346 -0.015748 
vn 0.834646 0.543307 -0.023622 
vn 0.464567 0.88189 -0.0393701 
vn 0.409449 0.889764 0.212598 
vn 0.173228 0.913386 0.370079 
vn 0.700787 0.559055 0.433071 
vn 0 0.905512 0.433071 
vn 0 0.574803 0.818898 
vn 0.291339 0.590551 0.748031 
vn 0 0.291339 0.96063 
vn 0.80315 0.267717 0.535433 
vn 0.818898 0.15748 0.551181 
vn 0.322835 0.19685 0.929134 
vn 0 0.19685 0.976378 
vn 0.322835 0.299213 0.897638 
vn 0 0 1 
vn 0 0 1 
vn 0 0 1 
vn 0 0 1 
vn 0 0 1 
vn 0 0 1 
vn 0 0 1 
vn 0 0 1 
vn 0 0 1 
vn 0 0 1 
vn 0 0 1 
vn 0 0 1 
vn 0 0 1 
vn 0 0 1 
vn 0 0 1 
vn 0 0 1 
vn 0 0 1 
vn 0 0 1 
vn 0 0 1 
vn 0 0 1 
vn 0 0 1 
vn 0 0 1 
vn 0 0 1 
vn 0 0 1 
vn 0 0 1 
vn 0 0 1 
vn 0 0 1 
vn 0 0 1 
vn 0.00787402 -0.850394 -0.527559 
vn 0.00787402 -0.850394 -0.527559 
vn 0.00787402 -0.850394 -0.527559 
vn 0.00787402 -0.850394 -0.527559 
vn -0.976378 0.0787402 -0.188976 
vn -0.976378 0.0787402 -0.188976 
vn -0.992126 0.0393701 -0.110236 
vn -0.992126 0.0393701 -0.110236 
vn -1 -0.00787402 -0.0314961 
vn -1 -0.00787402 -0.0314961 
vn -0.283465 0.551181 -0.787402 
vn -0.692913 0.535433 -0.480315 
vn -0.165354 0.874016 -0.456693 
vn 0 0.527559 -0.850394 
vn 0 0.858268 -0.503937 
vn 0 0.204724 -0.976378 
vn 0 1 -0.0472441 
vn -0.322835 0.220472 -0.92126 
vn 0 0.0629921 -1 
vn -0.322835 0.0708661 -0.944882 
vn -0.80315 0.220472 -0.551181 
vn -0.818898 0.0787402 -0.566929 
vn -0.992126 0.110236 -0.00787402 
vn -0.976378 0.228346 -0.015748 
vn -0.393701 0.874016 -0.291339 
vn -0.834646 0.543307 -0.023622 
vn -0.464567 0.88189 -0.0393701 
vn -0.409449 0.889764 0.212598 
vn -0.700787 0.559055 0.433071 
vn -0.80315 0.267717 0.535433 
vn -0.818898 0.15748 0.551181 
vn -0.322835 0.19685 0.929134 
vn -0.173228 0.913386 0.370079 
vn 0 0.905512 0.433071 
vn 0 0.574803 0.818898 
vn -0.291339 0.590551 0.748031 
vn 0 0.291339 0.96063 
vn 0 0.19685 0.976378 
vn -0.322835 0.299213 0.897638 
vn 0.984252 0.141732 -0.110236 
vn 0.984252 0.141732 -0.110236 
vn 0.968504 0.228346 -0.110236 
vn 0.968504 0.228346 -0.110236 
vn 0.992126 0.0472441 -0.110236 
vn 0.992126 0.0472441 -0.110236 
vn 0.0866142 0.212598 -0.976378 
vn 0.0866142 0.133858 -0.984252 
vn 0.0866142 0.212598 -0.976378 
vn 0.0866142 0.133858 -0.984252 
vn 0.0866142 0.0393701 -0.992126 
vn 0.0866142 0.0393701 -0.992126 
vn -0.110236 0.212598 -0.968504 
vn -0.110236 0.212598 -0.968504 
vn -0.110236 0.133858 -0.984252 
vn -0.110236 0.133858 -0.984252 
vn -0.110236 0.0393701 -0.992126 
vn -0.110236 0.0393701 -0.992126 
vn 0.984252 0.141732 -0.0944882 
vn 0.984252 0.141732 -0.0944882 
vn 0.968504 0.228346 -0.0944882 
vn 0.968504 0.228346 -0.0944882 
vn 0.992126 0.0472441 -0.0944882 
vn 0.992126 0.0472441 -0.0944882 
vn 0.598425 -0.685039 -0.417323 
vn 0.598425 -0.685039 -0.417323 
vn 0.598425 -0.685039 -0.417323 
vn 0.598425 -0.685039 -0.417323 
vn 0.244094 0.826772 0.503937 
vn 0.401575 0.889764 0.228346 
vn 0.0472441 1 0.0551181 
vn 0.0393701 0.992126 0.110236 
vn 0 0.771654 0.637795 
vn 0 0.992126 0.141732 
vn 0 0.362205 0.937008 
vn 0 0.984252 -0.165354 
vn 0.409449 0.472441 0.779528 
vn 0 0.212598 0.976378 
vn 0.440945 0.330709 0.834646 
vn 0.732283 0.527559 0.425197 
vn 0.669291 0.637795 0.377953 
vn 0.795276 0.606299 -0.0551181 
vn 0.0787402 1 -0.0393701 
vn 0.716535 0.692913 -0.0629921 
vn 0.448819 0.889764 -0.0629921 
vn 0.614173 0.543307 -0.574803 
vn 0.669291 0.433071 -0.598425 
vn 0.11811 0.96063 -0.267717 
vn 0.393701 0.795276 -0.456693 
vn 0.346457 0.259843 -0.905512 
vn 0.346457 0.125984 -0.929134 
vn 0.173228 0 -0.984252 
vn 0.204724 0.133858 -0.968504 
vn 0.275591 0.629921 -0.732283 
vn 0.228346 0.566929 -0.795276 
vn 0.149606 0.874016 -0.464567 
vn 0 0.818898 -0.574803 
vn 0.015748 0.992126 -0.141732 
vn 0.023622 0.992126 -0.141732 
vn 0.00787402 1 -0.0472441 
vn 0.00787402 1 -0.0393701 
vn 0.00787402 1 -0.0551181 
vn 0.0472441 0.992126 -0.141732 
vn -0.015748 1 0.0314961 
vn -0.00787402 1 0.0314961 
vn 0.00787402 1 0.0393701 
vn -0.244094 0.826772 0.503937 
vn -0.0472441 1 0.0551181 
vn -0.401575 0.889764 0.228346 
vn -0.0393701 0.992126 0.110236 
vn 0 0.771654 0.637795 
vn 0 0.992126 0.141732 
vn 0 0.362205 0.937008 
vn 0 0.984252 -0.165354 
vn -0.409449 0.472441 0.779528 
vn 0 0.212598 0.976378 
vn -0.440945 0.330709 0.834646 
vn -0.732283 0.527559 0.425197 
vn -0.669291 0.637795 0.377953 
vn -0.795276 0.606299 -0.0551181 
vn -0.716535 0.692913 -0.0629921 
vn -0.0787402 1 -0.0393701 
vn -0.448819 0.889764 -0.0629921 
vn -0.614173 0.543307 -0.574803 
vn -0.669291 0.433071 -0.598425 
vn -0.11811 0.96063 -0.267717 
vn -0.393701 0.795276 -0.456693 
vn -0.346457 0.259843 -0.905512 
vn -0.346457 0.125984 -0.929134 
vn -0.173228 0 -0.984252 
vn -0.204724 0.133858 -0.968504 
vn -0.275591 0.629921 -0.732283 
vn -0.228346 0.566929 -0.795276 
vn -0.149606 0.874016 -0.464567 
vn 0 0.818898 -0.574803 
vn -0.968504 0.228346 -0.0866142 
vn -0.984252 0.141732 -0.0866142 
vn -0.968504 0.228346 -0.0866142 
vn -0.984252 0.141732 -0.0866142 
vn -0.992126 0.0472441 -0.0866142 
vn -0.992126 0.0472441 -0.0866142 
vn 0.0944882 0.133858 0.984252 
vn 0.0944882 0.133858 0.984252 
vn 0.0944882 0.212598 0.968504 
vn 0.0944882 0.212598 0.968504 
vn 0.0944882 0.0393701 0.992126 
vn 0.0944882 0.0393701 0.992126 
vn -0.582677 0.692913 0.425197 
vn -0.559055 0.708661 0.433071 
vn -0.582677 0.692913 0.425197 
vn -0.559055 0.708661 0.433071 
vn -0.614173 0.669291 0.409449 
vn -0.614173 0.669291 0.409449 
vn -0.637795 0.661417 0.401575 
vn -0.637795 0.661417 0.401575 
vn 0.992126 -0.015748 0.11811 
vn 0.984252 -0.015748 0.15748 
vn 0.992126 -0.015748 0.11811 
vn 0.984252 -0.015748 0.15748 
vn 0.992126 -0.015748 0.0866142 
vn 0.992126 -0.015748 0.0866142 
vn 0.519685 -0.732283 -0.440945 
vn 0.519685 -0.732283 -0.440945 
vn 0.519685 -0.732283 -0.440945 
vn 0.519685 -0.732283 -0.440945 
vn 0.456693 -0.850394 -0.251969 
vn 0.165354 -0.929134 -0.338583 
vn 0.275591 -0.795276 -0.543307 
vn 0 -0.740157 -0.677165 
vn 0 -0.905512 -0.425197 
vn 0 -0.362205 -0.937008 
vn 0.307087 -0.937008 -0.173228 
vn 0.409449 -0.472441 -0.779528 
vn 0 -0.212598 -0.976378 
vn 0.440945 -0.330709 -0.834646 
vn 0.732283 -0.527559 -0.425197 
vn 0.669291 -0.637795 -0.377953 
vn 0.795276 -0.606299 0.0551181 
vn 0.527559 -0.850394 0.0551181 
vn 0.417323 -0.905512 0.0472441 
vn 0.716535 -0.692913 0.0629921 
vn 0.425197 -0.811024 0.401575 
vn 0.614173 -0.543307 0.574803 
vn 0.669291 -0.433071 0.598425 
vn 0.488189 -0.732283 0.472441 
vn 0.338583 -0.259843 0.905512 
vn 0.346457 -0.125984 0.929134 
vn 0.173228 0 0.984252 
vn 0.19685 -0.141732 0.968504 
vn 0.307087 -0.535433 0.787402 
vn 0.267717 -0.677165 0.685039 
vn 0.19685 -0.464567 0.866142 
vn -0.00787402 -0.645669 0.76378 
vn -0.00787402 -0.645669 0.76378 
vn -0.992126 -0.023622 0.133858 
vn -0.992126 -0.015748 0.102362 
vn -0.992126 -0.015748 0.102362 
vn -0.992126 -0.023622 0.133858 
vn -1 -0.015748 0.0708661 
vn -1 -0.015748 0.0708661 
vn 0.905512 0.165354 -0.377953 
vn 0.787402 0.299213 -0.543307 
vn 0.88189 0.251969 -0.401575 
vn 0.818898 0.228346 -0.535433 
vn 0.677165 0.496063 -0.543307 
vn 0.771654 0.472441 -0.425197 
vn -0.00787402 0.755906 -0.653543 
vn -0.00787402 0.614173 -0.787402 
vn 0 0.448819 -0.897638 
vn 0 0.377953 -0.929134 
vn -0.818898 0.212598 -0.535433 
vn -0.787402 0.283465 -0.551181 
vn -0.905512 0.149606 -0.385827 
vn -0.88189 0.228346 -0.409449 
vn -0.685039 0.480315 -0.543307 
vn -0.787402 0.448819 -0.425197 
vn 0.669291 -0.629921 -0.385827 
vn 0.669291 -0.629921 -0.385827 
vn 0.669291 -0.629921 -0.385827 
vn 0.669291 -0.629921 -0.385827 
vn 0.92126 0.110236 -0.377953 
vn 0.80315 0.251969 -0.543307 
vn 0.897638 0.188976 -0.401575 
vn 0.826772 0.173228 -0.535433 
vn 0.708661 0.456693 -0.543307 
vn 0.80315 0.417323 -0.425197 
vn 0.0393701 0.755906 -0.653543 
vn 0.0314961 0.614173 -0.787402 
vn 0.023622 0.440945 -0.897638 
vn 0.023622 0.377953 -0.929134 
vn -0.80315 0.259843 -0.535433 
vn -0.771654 0.330709 -0.551181 
vn -0.897638 0.204724 -0.385827 
vn -0.866142 0.283465 -0.409449 
vn -0.653543 0.519685 -0.543307 
vn -0.755906 0.496063 -0.425197 
vn -0.0944882 0.212598 -0.968504 
vn -0.0944882 0.212598 -0.968504 
vn -0.0944882 0.133858 -0.984252 
vn -0.0944882 0.133858 -0.984252 
vn -0.0944882 0.0393701 -0.992126 
vn -0.0944882 0.0393701 -0.992126 
vn -0.00787402 0.889764 0.464567 
vn 0 0.944882 0.322835 
vn -0.00787402 0.889764 0.464567 
vn 0 0.944882 0.322835 
vn -0.00787402 0.80315 0.590551 
vn -0.00787402 0.80315 0.590551 
vn 0.984252 0.141732 0.0866142 
vn 0.968504 0.228346 0.0866142 
vn 0.984252 0.141732 0.0866142 
vn 0.968504 0.228346 0.0866142 
vn 0.992126 0.0472441 0.0866142 
vn 0.992126 0.0472441 0.0866142 
vn -0.456693 -0.850394 -0.259843 
vn -0.165354 -0.929134 -0.338583 
vn -0.314961 -0.929134 -0.181102 
vn 0 -0.905512 -0.425197 
vn 0 -0.740157 -0.677165 
vn -0.275591 -0.795276 -0.543307 
vn 0 -0.362205 -0.937008 
vn -0.409449 -0.472441 -0.779528 
vn 0 -0.212598 -0.976378 
vn -0.440945 -0.330709 -0.834646 
vn -0.732283 -0.527559 -0.425197 
vn -0.669291 -0.637795 -0.377953 
vn -0.795276 -0.606299 0.0551181 
vn -0.716535 -0.692913 0.0629921 
vn -0.535433 -0.84252 0.0629921 
vn -0.433071 -0.897638 0.0551181 
vn -0.417323 -0.811024 0.409449 
vn -0.614173 -0.543307 0.574803 
vn -0.669291 -0.433071 0.598425 
vn -0.480315 -0.732283 0.480315 
vn -0.338583 -0.259843 0.905512 
vn -0.346457 -0.125984 0.929134 
vn -0.173228 0 0.984252 
vn -0.19685 -0.141732 0.968504 
vn -0.307087 -0.543307 0.779528 
vn -0.267717 -0.692913 0.677165 
vn -0.204724 -0.472441 0.858268 
vn -0.00787402 -0.645669 0.76378 
vn -0.00787402 -0.645669 0.76378 
vn 0 -1 0.00787402 
vn 0 -1 0.00787402 
vn 0 -1 0.00787402 
vn 0 -1 0.00787402 
vn 0.850394 0.448819 0.275591 
vn 0.850394 0.448819 0.275591 
vn 0.850394 0.448819 0.275591 
vn 0.850394 0.448819 0.275591 
vn -0.984252 0.141732 0.0944882 
vn -0.968504 0.228346 0.0944882 
vn -0.968504 0.228346 0.0944882 
vn -0.984252 0.141732 0.0944882 
vn -0.992126 0.0472441 0.0944882 
vn -0.992126 0.0472441 0.0944882 
vn 0.110236 0.133858 0.984252 
vn 0.110236 0.133858 0.984252 
vn 0.110236 0.212598 0.968504 
vn 0.110236 0.212598 0.968504 
vn 0.110236 0.0393701 0.992126 
vn 0.110236 0.0393701 0.992126 
vn -0.0866142 0.133858 0.984252 
vn -0.0866142 0.212598 0.976378 
vn -0.0866142 0.133858 0.984252 
vn -0.0866142 0.212598 0.976378 
vn -0.0866142 0.0393701 0.992126 
vn -0.0866142 0.0393701 0.992126 
vn -0.984252 0.141732 0.110236 
vn -0.968504 0.228346 0.110236 
vn -0.968504 0.228346 0.110236 
vn -0.984252 0.141732 0.110236 
vn -0.992126 0.0472441 0.110236 
vn -0.992126 0.0472441 0.110236 
vn 0.984252 0.0944882 -0.125984 
vn 0.968504 0.133858 -0.204724 
vn 0.984252 0.0944882 -0.125984 
vn 0.968504 0.133858 -0.204724 
vn 1 0.0472441 -0.0472441 
vn 1 0.0472441 -0.0472441 
vn 0.858268 0.433071 0.259843 
vn 0.858268 0.433071 0.259843 
vn 0.858268 0.433071 0.259843 
vn 0.858268 0.433071 0.259843 
vn -0.023622 0.929134 0.370079 
vn -0.023622 0.96063 0.283465 
vn -0.023622 0.96063 0.283465 
vn -0.023622 0.929134 0.370079 
vn -0.023622 0.897638 0.448819 
vn -0.023622 0.897638 0.448819 
vn 0.0708661 0.559055 -0.826772 
vn 0.0708661 0.566929 -0.818898 
vn 0.0472441 0.551181 -0.834646 
vn 0.023622 0.519685 -0.850394 
vn -0.0393701 0.496063 -0.866142 
vn -0.0708661 0.472441 -0.88189 
vn -0.0787402 0.472441 -0.874016 
vn -0.023622 0.496063 -0.866142 
vn 0.023622 0.496063 -0.866142 
vn 0.023622 0.496063 -0.866142 
vn 0 0.519685 -0.858268 
vn 0 0.519685 -0.858268 
vn 0 0.519685 -0.858268 
vn 0 0.519685 -0.858268 
vn 0 0.519685 -0.858268 
vn 0 0.519685 -0.858268 
vn 0 0.519685 -0.858268 
vn 0 0.519685 -0.858268 
vn 0 0.519685 -0.858268 
vn 0 0.519685 -0.858268 
vn 0 0.519685 -0.858268 
vn 0 0.519685 -0.858268 
vn 0 0.519685 -0.858268 
vn 0 0.519685 -0.858268 
vn 0 0.519685 -0.858268 
vn 0 0.519685 -0.858268 
vn 0 0.519685 -0.858268 
vn 0 0.519685 -0.858268 
vn 0 0.519685 -0.858268 
vn 0 0.519685 -0.858268 
vn 0 0.519685 -0.858268 
vn 0 0.519685 -0.858268 
vn 0 0.519685 -0.858268 
vn 0 0.519685 -0.858268 
vn 0 0.519685 -0.858268 
vn 0 0.519685 -0.858268 
vn 0 0.519685 -0.858268 
vn 0 0.519685 -0.858268 
vn 0 0.519685 -0.858268 
vn 0 0.519685 -0.858268 
vn 0 0.519685 -0.858268 
vn 0 0.519685 -0.858268 
vn 0 0.519685 -0.858268 
vn 0 0.519685 -0.858268 
vn 0 0.519685 -0.858268 
vn 0 0.519685 -0.858268 
vn 0 0.519685 -0.858268 
vn 0 0.519685 -0.858268 
vn 0 0.519685 -0.858268 
vn 0 0.519685 -0.858268 
vn 0 0.519685 -0.858268 
vn 0 0.519685 -0.858268 
vn 0 0.519685 -0.858268 
vn 0 0.519685 -0.858268 
vn 0 0.519685 -0.858268 

vt 0.775459 0.785728 
vt 0.854639 0.71003 
vt 0.854966 0.785414 
vt 0.774893 0.710486 
vt 0.812045 0.924665 
vt 0.869687 0.857784 
vt 0.87494 0.918714 
vt 0.804902 0.863912 
vt 0.869687 0.857784 
vt 0.812045 0.924665 
vt 0.804902 0.863912 
vt 0.87494 0.918714 
vt 0.804902 0.863912 
vt 0.87494 0.918714 
vt 0.869687 0.857784 
vt 0.812045 0.924665 
vt 0.38043 0.608346 
vt 0.432426 0.610716 
vt 0.381955 0.591118 
vt 0.429837 0.586603 
vt 0.471375 0.610742 
vt 0.475319 0.586634 
vt 0.439641 0.498322 
vt 0.46491 0.498339 
vt 0.523002 0.591223 
vt 0.523048 0.60845 
vt 0.374271 0.481151 
vt 0.44503 0.477166 
vt 0.413541 0.446816 
vt 0.679206 0.149047 
vt 0.635923 0.142151 
vt 0.676591 0.206948 
vt 0.635923 0.142151 
vt 0.621279 0.189728 
vt 0.676591 0.206948 
vt 0.621279 0.189728 
vt 0.601068 0.243595 
vt 0.676591 0.206948 
vt 0.676591 0.206948 
vt 0.601068 0.243595 
vt 0.668531 0.269235 
vt 0.668531 0.269235 
vt 0.601068 0.243595 
vt 0.639886 0.337723 
vt 0.601068 0.243595 
vt 0.569772 0.292018 
vt 0.639886 0.337723 
vt 0.639886 0.337723 
vt 0.569772 0.292018 
vt 0.585622 0.404884 
vt 0.569772 0.292018 
vt 0.52138 0.337043 
vt 0.585622 0.404884 
vt 0.585622 0.404884 
vt 0.52138 0.337043 
vt 0.519657 0.450033 
vt 0.52138 0.337043 
vt 0.478346 0.358433 
vt 0.519657 0.450033 
vt 0.519657 0.450033 
vt 0.478346 0.358433 
vt 0.44503 0.477166 
vt 0.478346 0.358433 
vt 0.439256 0.36925 
vt 0.44503 0.477166 
vt 0.439256 0.36925 
vt 0.431749 0.409499 
vt 0.44503 0.477166 
vt 0.44503 0.477166 
vt 0.431749 0.409499 
vt 0.413541 0.446816 
vt 0.875223 0.918583 
vt 0.80501 0.863643 
vt 0.81217 0.92455 
vt 0.869957 0.8575 
vt 0.716997 0.871117 
vt 0.711146 0.917241 
vt 0.696055 0.87117 
vt 0.696159 0.917733 
vt 0.695999 0.824613 
vt 0.725389 0.916797 
vt 0.722742 0.825036 
vt 0.73702 0.871055 
vt 0.763342 0.917042 
vt 0.74827 0.825374 
vt 0.76696 0.870969 
vt 0.790006 0.917264 
vt 0.771152 0.824903 
vt 0.789235 0.870906 
vt 0.789967 0.824587 
vt 0.372338 0.129503 
vt 0.478472 0.00978333 
vt 0.579718 0.129381 
vt 0.582201 0.00578266 
vt 0.374281 0.00656015 
vt 0.478537 0.249101 
vt 0.374383 0.252551 
vt 0.582094 0.25294 
vt 0.550018 0.62661 
vt 0.562846 0.639831 
vt 0.562849 0.626613 
vt 0.550016 0.639828 
vt 0.399182 0.672452 
vt 0.347865 0.831212 
vt 0.346049 0.680053 
vt 0.450833 0.822082 
vt 0.449993 0.670323 
vt 0.585023 0.677583 
vt 0.449837 0.967866 
vt 0.34442 0.979749 
vt 0.677959 0.835995 
vt 0.677831 0.696274 
vt 0.677702 0.975151 
vt 0.548993 0.521842 
vt 0.566309 0.590019 
vt 0.563923 0.521845 
vt 0.546576 0.590015 
vt 0.355903 0.171636 
vt 0.254673 0.012641 
vt 0.351848 0.017046 
vt 0.165985 0.169129 
vt 0.162319 0.013066 
vt 0.080291 0.022033 
vt 0.169237 0.320271 
vt 0.362213 0.330025 
vt 0.018462 0.183941 
vt 0.014968 0.042101 
vt 0.017859 0.323063 
vt 0.932745 0.927008 
vt 0.978152 0.970758 
vt 0.991798 0.952291 
vt 0.926307 0.948582 
vt 0.968321 0.992999 
vt 0.920211 0.972377 
vt 0.959267 0.0666899 
vt 0.92508 0.0889219 
vt 0.933998 0.0505619 
vt 0.945847 0.0335719 
vt 0.971822 0.0580739 
vt 0.907545 0.0155879 
vt 0.996876 0.109989 
vt 0.899399 0.0379879 
vt 0.848148 0.00280792 
vt 0.841628 0.0287569 
vt 0.890379 0.0838169 
vt 0.833822 0.0850729 
vt 0.839538 0.144261 
vt 0.952157 0.0956769 
vt 0.893501 0.1315 
vt 0.926788 0.124969 
vt 0.951614 0.119838 
vt 0.962379 0.141083 
vt 0.981828 0.163766 
vt 0.940745 0.158231 
vt 0.996651 0.166083 
vt 0.98426 0.198204 
vt 0.966407 0.188161 
vt 0.95828 0.229726 
vt 0.911269 0.176462 
vt 0.861557 0.202716 
vt 0.896696 0.24558 
vt 0.910201 0.269067 
vt 0.941007 0.21335 
vt 0.014233 0.677588 
vt 0.179778 0.673126 
vt 0.006941 0.829242 
vt 0.17801 0.988948 
vt 0.012408 0.986674 
vt 0.347865 0.831212 
vt 0.34442 0.979749 
vt 0.346049 0.680053 
vt 0.950237 0.911372 
vt 0.982561 0.872614 
vt 0.983126 0.91557 
vt 0.917948 0.900633 
vt 0.886143 0.873973 
vt 0.982561 0.872614 
vt 0.948486 0.834897 
vt 0.982082 0.829653 
vt 0.917303 0.846534 
vt 0.886143 0.873973 
vt 0.948486 0.834897 
vt 0.982561 0.872614 
vt 0.982082 0.829653 
vt 0.917303 0.846534 
vt 0.886143 0.873973 
vt 0.982561 0.872614 
vt 0.950237 0.911372 
vt 0.983126 0.91557 
vt 0.917948 0.900633 
vt 0.886143 0.873973 
vt 0.913576 0.494389 
vt 0.951187 0.593349 
vt 0.871812 0.508537 
vt 0.896485 0.617531 
vt 0.932745 0.927008 
vt 0.875223 0.918583 
vt 0.926307 0.948582 
vt 0.874151 0.941127 
vt 0.920211 0.972377 
vt 0.873812 0.965548 
vt 0.933929 0.0503789 
vt 0.925014 0.0887329 
vt 0.959196 0.0664819 
vt 0.945784 0.0333899 
vt 0.971748 0.0578579 
vt 0.907507 0.0154229 
vt 0.996828 0.109703 
vt 0.899342 0.0378169 
vt 0.84813 0.0026139 
vt 0.841579 0.0285619 
vt 0.890311 0.0836509 
vt 0.833757 0.0849229 
vt 0.839526 0.144174 
vt 0.893467 0.131343 
vt 0.952098 0.0954579 
vt 0.926752 0.12477 
vt 0.951577 0.119607 
vt 0.962368 0.140826 
vt 0.940758 0.158003 
vt 0.911316 0.176287 
vt 0.861674 0.202658 
vt 0.896956 0.245457 
vt 0.981859 0.163458 
vt 0.996688 0.165746 
vt 0.984372 0.197861 
vt 0.96649 0.187866 
vt 0.958489 0.229417 
vt 0.910558 0.268899 
vt 0.941157 0.213102 
vt 0.873871 0.941201 
vt 0.925895 0.948638 
vt 0.932318 0.927119 
vt 0.87494 0.918714 
vt 0.873533 0.965562 
vt 0.919815 0.972373 
vt 0.87494 0.918714 
vt 0.817685 0.94667 
vt 0.812045 0.924665 
vt 0.873871 0.941201 
vt 0.822622 0.970809 
vt 0.873533 0.965562 
vt 0.87494 0.918714 
vt 0.812045 0.924665 
vt 0.817685 0.94667 
vt 0.873871 0.941201 
vt 0.822622 0.970809 
vt 0.873533 0.965562 
vt 0.925895 0.948638 
vt 0.873871 0.941201 
vt 0.87494 0.918714 
vt 0.932318 0.927119 
vt 0.919815 0.972373 
vt 0.873533 0.965562 
vt 0.563923 0.521845 
vt 0.563927 0.502456 
vt 0.548993 0.521842 
vt 0.548997 0.502452 
vt 0.672998 0.558044 
vt 0.688668 0.52534 
vt 0.665556 0.519412 
vt 0.651663 0.542677 
vt 0.63655 0.583031 
vt 0.627261 0.556085 
vt 0.647661 0.604208 
vt 0.608826 0.442266 
vt 0.693649 0.568889 
vt 0.660244 0.62446 
vt 0.713807 0.581149 
vt 0.732659 0.53197 
vt 0.70903 0.52909 
vt 0.733108 0.478085 
vt 0.666765 0.49135 
vt 0.709224 0.482236 
vt 0.689233 0.485398 
vt 0.694941 0.437383 
vt 0.715835 0.427147 
vt 0.657245 0.465022 
vt 0.677072 0.446969 
vt 0.67147 0.398726 
vt 0.687735 0.38124 
vt 0.659456 0.361512 
vt 0.643303 0.387632 
vt 0.653452 0.417171 
vt 0.624865 0.40846 
vt 0.637 0.446489 
vt 0.608073 0.419121 
vt 0.362213 0.330025 
vt 0.356964 0.496741 
vt 0.205935 0.491441 
vt 0.169237 0.320271 
vt 0.245218 0.659681 
vt 0.352497 0.665405 
vt 0.013892 0.658002 
vt 0.017666 0.48936 
vt 0.017859 0.323063 
vt 0.672998 0.558044 
vt 0.665556 0.519412 
vt 0.688668 0.52534 
vt 0.651663 0.542677 
vt 0.63655 0.583031 
vt 0.627261 0.556085 
vt 0.647661 0.604208 
vt 0.608826 0.442266 
vt 0.693649 0.568889 
vt 0.660244 0.62446 
vt 0.713807 0.581149 
vt 0.732659 0.53197 
vt 0.70903 0.52909 
vt 0.733108 0.478085 
vt 0.709224 0.482236 
vt 0.666765 0.49135 
vt 0.689233 0.485398 
vt 0.694941 0.437383 
vt 0.715835 0.427147 
vt 0.657245 0.465022 
vt 0.677072 0.446969 
vt 0.67147 0.398726 
vt 0.687735 0.38124 
vt 0.659456 0.361512 
vt 0.643303 0.387632 
vt 0.653452 0.417171 
vt 0.624865 0.40846 
vt 0.637 0.446489 
vt 0.608073 0.419121 
vt 0.932318 0.927119 
vt 0.873871 0.941201 
vt 0.87494 0.918714 
vt 0.925895 0.948638 
vt 0.873533 0.965562 
vt 0.919815 0.972373 
vt 0.873871 0.941201 
vt 0.817685 0.94667 
vt 0.812045 0.924665 
vt 0.87494 0.918714 
vt 0.873533 0.965562 
vt 0.822622 0.970809 
vt 0.470536 0.649531 
vt 0.519451 0.629541 
vt 0.470548 0.625276 
vt 0.519444 0.645312 
vt 0.433802 0.649513 
vt 0.433814 0.625258 
vt 0.385208 0.645248 
vt 0.385216 0.629477 
vt 0.896485 0.617531 
vt 0.854639 0.71003 
vt 0.845522 0.629674 
vt 0.91954 0.672172 
vt 0.834375 0.543605 
vt 0.871812 0.508537 
vt 0.562849 0.626613 
vt 0.566309 0.590019 
vt 0.550018 0.62661 
vt 0.546576 0.590015 
vt 0.758792 0.161999 
vt 0.698798 0.141869 
vt 0.733675 0.11178 
vt 0.679742 0.071627 
vt 0.66334 0.115981 
vt 0.696246 0.039777 
vt 0.722066 0.1793 
vt 0.764664 0.094198 
vt 0.715478 0.00904602 
vt 0.794947 0.074681 
vt 0.825352 0.144965 
vt 0.789747 0.152975 
vt 0.836197 0.221367 
vt 0.767536 0.22329 
vt 0.729467 0.224256 
vt 0.798799 0.222277 
vt 0.724252 0.269316 
vt 0.795247 0.292365 
vt 0.83066 0.298369 
vt 0.764417 0.285728 
vt 0.782289 0.359546 
vt 0.814701 0.37648 
vt 0.784808 0.419205 
vt 0.748456 0.390076 
vt 0.747126 0.34178 
vt 0.706237 0.309033 
vt 0.712668 0.370532 
vt 0.683969 0.365345 
vt 0.671618 0.334881 
vt 0.774893 0.710486 
vt 0.735851 0.620575 
vt 0.786939 0.631188 
vt 0.707944 0.671597 
vt 0.788852 0.544097 
vt 0.745815 0.513769 
vt 0.952967 0.695309 
vt 0.936492 0.739527 
vt 0.968189 0.724676 
vt 0.908155 0.713704 
vt 0.956673 0.763552 
vt 0.980524 0.7571 
vt 0.982315 0.801591 
vt 0.935415 0.77456 
vt 0.908354 0.758959 
vt 0.873442 0.738844 
vt 0.869265 0.78182 
vt 0.905649 0.793267 
vt 0.875633 0.829839 
vt 0.908744 0.828266 
vt 0.93656 0.798599 
vt 0.942971 0.822542 
vt 0.586016 0.582756 
vt 0.604883 0.626068 
vt 0.609213 0.582902 
vt 0.5898 0.625973 
vt 0.875633 0.829839 
vt 0.905649 0.793267 
vt 0.908744 0.828266 
vt 0.869265 0.78182 
vt 0.93656 0.798599 
vt 0.942971 0.822542 
vt 0.982315 0.801591 
vt 0.935415 0.77456 
vt 0.908354 0.758959 
vt 0.873442 0.738844 
vt 0.908155 0.713704 
vt 0.936492 0.739527 
vt 0.952967 0.695309 
vt 0.968189 0.724676 
vt 0.956673 0.763552 
vt 0.980724 0.75709 
vt 0.932318 0.927119 
vt 0.991223 0.952337 
vt 0.977611 0.970758 
vt 0.925895 0.948638 
vt 0.967804 0.992944 
vt 0.919815 0.972373 
vt 0.845522 0.629674 
vt 0.774893 0.710486 
vt 0.786939 0.631188 
vt 0.854639 0.71003 
vt 0.834375 0.543605 
vt 0.788852 0.544097 
vt 0.767955 0.963928 
vt 0.812045 0.924665 
vt 0.817685 0.94667 
vt 0.755611 0.944935 
vt 0.776579 0.986853 
vt 0.822622 0.970809 
vt 0.758792 0.161999 
vt 0.698798 0.141869 
vt 0.722066 0.1793 
vt 0.66334 0.115981 
vt 0.679742 0.071627 
vt 0.733675 0.11178 
vt 0.696246 0.039777 
vt 0.764664 0.094198 
vt 0.715478 0.00904602 
vt 0.794947 0.074681 
vt 0.825352 0.144965 
vt 0.789747 0.152975 
vt 0.836197 0.221367 
vt 0.798799 0.222277 
vt 0.767536 0.22329 
vt 0.729467 0.224256 
vt 0.724252 0.269316 
vt 0.795247 0.292365 
vt 0.83066 0.298369 
vt 0.764417 0.285728 
vt 0.782289 0.359546 
vt 0.814701 0.37648 
vt 0.784808 0.419205 
vt 0.748456 0.390076 
vt 0.747126 0.34178 
vt 0.706237 0.309033 
vt 0.712668 0.370532 
vt 0.683969 0.365345 
vt 0.671618 0.334881 
vt 0.896485 0.617531 
vt 0.951187 0.593349 
vt 0.98691 0.637969 
vt 0.91954 0.672172 
vt 0.589701 0.641573 
vt 0.604883 0.626068 
vt 0.5898 0.625973 
vt 0.604784 0.641668 
vt 0.817685 0.94667 
vt 0.755611 0.944935 
vt 0.812045 0.924665 
vt 0.767955 0.963928 
vt 0.822622 0.970809 
vt 0.776579 0.986853 
vt 0.925895 0.948638 
vt 0.977611 0.970758 
vt 0.991223 0.952337 
vt 0.932318 0.927119 
vt 0.919815 0.972373 
vt 0.967804 0.992944 
vt 0.925895 0.948638 
vt 0.991223 0.952337 
vt 0.977611 0.970758 
vt 0.932318 0.927119 
vt 0.919815 0.972373 
vt 0.967804 0.992944 
vt 0.767955 0.963928 
vt 0.812045 0.924665 
vt 0.755611 0.944935 
vt 0.817685 0.94667 
vt 0.776579 0.986853 
vt 0.822622 0.970809 
vt 0.817823 0.946609 
vt 0.755593 0.944871 
vt 0.76797 0.963911 
vt 0.81217 0.92455 
vt 0.822773 0.970808 
vt 0.776614 0.986893 
vt 0.586016 0.582756 
vt 0.606897 0.502816 
vt 0.589346 0.502705 
vt 0.609213 0.582902 
vt 0.817823 0.946609 
vt 0.875223 0.918583 
vt 0.81217 0.92455 
vt 0.874151 0.941127 
vt 0.822773 0.970808 
vt 0.873812 0.965548 
vt 0.380696 0.608622 
vt 0.382162 0.591389 
vt 0.4327 0.610813 
vt 0.430028 0.586709 
vt 0.471649 0.610704 
vt 0.523313 0.608234 
vt 0.523208 0.591007 
vt 0.475509 0.586582 
vt 0.464796 0.498324 
vt 0.439526 0.498395 
vt 0.374271 0.481151 
vt 0.413541 0.446816 
vt 0.44503 0.477166 
vt 0.679206 0.149047 
vt 0.676591 0.206948 
vt 0.635923 0.142151 
vt 0.635923 0.142151 
vt 0.676591 0.206948 
vt 0.621279 0.189728 
vt 0.621279 0.189728 
vt 0.676591 0.206948 
vt 0.601068 0.243595 
vt 0.676591 0.206948 
vt 0.668531 0.269235 
vt 0.601068 0.243595 
vt 0.668531 0.269235 
vt 0.639886 0.337723 
vt 0.601068 0.243595 
vt 0.601068 0.243595 
vt 0.639886 0.337723 
vt 0.569772 0.292018 
vt 0.639886 0.337723 
vt 0.585622 0.404884 
vt 0.569772 0.292018 
vt 0.569772 0.292018 
vt 0.585622 0.404884 
vt 0.52138 0.337043 
vt 0.585622 0.404884 
vt 0.519657 0.450033 
vt 0.52138 0.337043 
vt 0.52138 0.337043 
vt 0.519657 0.450033 
vt 0.478346 0.358433 
vt 0.519657 0.450033 
vt 0.44503 0.477166 
vt 0.478346 0.358433 
vt 0.478346 0.358433 
vt 0.44503 0.477166 
vt 0.439256 0.36925 
vt 0.439256 0.36925 
vt 0.44503 0.477166 
vt 0.431749 0.409499 
vt 0.44503 0.477166 
vt 0.413541 0.446816 
vt 0.431749 0.409499 

usemtl Pet1Mtl

f 1/1/1 2/2/2 3/3/3 
f 2/2/2 1/1/1 4/4/4 
f 5/5/5 6/6/6 7/7/7 
f 6/6/6 5/5/5 8/8/8 
f 9/9/9 10/10/10 11/11/11 
f 10/10/10 9/9/9 12/12/12 
f 13/13/13 14/14/14 15/15/15 
f 14/14/14 13/13/13 16/16/16 
f 17/17/17 18/18/18 19/19/19 
f 19/19/19 18/18/18 20/20/20 
f 21/21/21 20/20/20 18/18/18 
f 22/22/22 20/20/20 21/21/21 
f 23/23/23 20/20/20 22/22/22 
f 24/24/24 23/23/23 22/22/22 
f 25/25/25 22/22/22 21/21/21 
f 26/26/26 25/25/25 21/21/21 
f 27/27/27 28/28/28 29/29/29 
f 30/30/30 31/31/31 32/32/32 
f 33/33/33 34/34/34 35/35/35 
f 36/36/36 37/37/37 38/38/38 
f 39/39/39 40/40/40 41/41/41 
f 42/42/42 43/43/43 44/44/44 
f 45/45/45 46/46/46 47/47/47 
f 48/48/48 49/49/49 50/50/50 
f 51/51/51 52/52/52 53/53/53 
f 54/54/54 55/55/55 56/56/56 
f 57/57/57 58/58/58 59/59/59 
f 60/60/60 61/61/61 62/62/62 
f 63/63/63 64/64/64 65/65/65 
f 66/66/66 67/67/67 68/68/68 
f 69/69/69 70/70/70 71/71/71 
f 72/72/72 73/73/73 74/74/74 
f 73/73/73 72/72/72 75/75/75 
f 76/76/76 77/77/77 78/78/78 
f 79/79/79 78/78/78 77/77/77 
f 78/78/78 80/80/80 76/76/76 
f 77/77/77 76/76/76 81/81/81 
f 82/82/82 76/76/76 80/80/80 
f 83/83/83 81/81/81 76/76/76 
f 76/76/76 82/82/82 83/83/83 
f 81/81/81 83/83/83 84/84/84 
f 85/85/85 83/83/83 82/82/82 
f 83/83/83 86/86/86 84/84/84 
f 83/83/83 85/85/85 86/86/86 
f 84/84/84 86/86/86 87/87/87 
f 88/88/88 86/86/86 85/85/85 
f 89/89/89 87/87/87 86/86/86 
f 86/86/86 88/88/88 89/89/89 
f 90/90/90 89/89/89 88/88/88 
f 91/91/91 92/92/92 93/93/93 
f 92/92/92 94/94/94 93/93/93 
f 92/92/92 91/91/91 95/95/95 
f 96/96/96 91/91/91 93/93/93 
f 91/91/91 96/96/96 97/97/97 
f 96/96/96 93/93/93 98/98/98 
f 99/99/99 100/100/100 101/101/101 
f 100/100/100 99/99/99 102/102/102 
f 103/103/103 104/104/104 105/105/105 
f 104/104/104 103/103/103 106/106/106 
f 103/103/103 107/107/107 106/106/106 
f 108/108/108 106/106/106 107/107/107 
f 109/109/109 104/104/104 106/106/106 
f 104/104/104 109/109/109 110/110/110 
f 106/106/106 108/108/108 111/111/111 
f 106/106/106 111/111/111 109/109/109 
f 108/108/108 112/112/112 111/111/111 
f 109/109/109 111/111/111 113/113/113 
f 114/114/114 115/115/115 116/116/116 
f 115/115/115 114/114/114 117/117/117 
f 118/118/118 119/119/119 120/120/120 
f 119/119/119 118/118/118 121/121/121 
f 119/119/119 121/121/121 122/122/122 
f 123/123/123 122/122/122 121/121/121 
f 118/118/118 124/124/124 121/121/121 
f 118/118/118 125/125/125 124/124/124 
f 123/123/123 121/121/121 126/126/126 
f 124/124/124 126/126/126 121/121/121 
f 123/123/123 126/126/126 127/127/127 
f 126/126/126 124/124/124 128/128/128 
f 129/129/129 130/130/130 131/131/131 
f 130/130/130 129/129/129 132/132/132 
f 132/132/132 133/133/133 130/130/130 
f 133/133/133 132/132/132 134/134/134 
f 135/135/135 136/136/136 137/137/137 
f 138/138/138 135/135/135 137/137/137 
f 135/135/135 138/138/138 139/139/139 
f 137/137/137 140/140/140 138/138/138 
f 135/135/135 139/139/139 141/141/141 
f 140/140/140 137/137/137 142/142/142 
f 136/136/136 142/142/142 137/137/137 
f 142/142/142 143/143/143 140/140/140 
f 143/143/143 142/142/142 144/144/144 
f 145/145/145 144/144/144 142/142/142 
f 142/142/142 136/136/136 145/145/145 
f 144/144/144 145/145/145 146/146/146 
f 147/147/147 146/146/146 145/145/145 
f 136/136/136 135/135/135 148/148/148 
f 148/148/148 135/135/135 141/141/141 
f 136/136/136 149/149/149 145/145/145 
f 149/149/149 147/147/147 145/145/145 
f 148/148/148 150/150/150 136/136/136 
f 149/149/149 136/136/136 150/150/150 
f 151/151/151 148/148/148 141/141/141 
f 150/150/150 148/148/148 151/151/151 
f 152/152/152 151/151/151 141/141/141 
f 152/152/152 150/150/150 151/151/151 
f 153/153/153 152/152/152 141/141/141 
f 154/154/154 150/150/150 152/152/152 
f 154/154/154 149/149/149 150/150/150 
f 152/152/152 153/153/153 154/154/154 
f 141/141/141 155/155/155 153/153/153 
f 156/156/156 153/153/153 155/155/155 
f 153/153/153 156/156/156 157/157/157 
f 153/153/153 157/157/157 154/154/154 
f 156/156/156 158/158/158 157/157/157 
f 159/159/159 147/147/147 149/149/149 
f 149/149/149 154/154/154 159/159/159 
f 147/147/147 159/159/159 160/160/160 
f 159/159/159 161/161/161 160/160/160 
f 161/161/161 158/158/158 162/162/162 
f 154/154/154 163/163/163 159/159/159 
f 159/159/159 163/163/163 161/161/161 
f 158/158/158 161/161/161 163/163/163 
f 157/157/157 163/163/163 154/154/154 
f 157/157/157 158/158/158 163/163/163 
f 164/164/164 165/165/165 166/166/166 
f 167/167/167 166/166/166 165/165/165 
f 166/166/166 167/167/167 168/168/168 
f 169/169/169 167/167/167 165/165/165 
f 167/167/167 169/169/169 170/170/170 
f 165/165/165 171/171/171 169/169/169 
f 172/172/172 173/173/173 174/174/174 
f 175/175/175 173/173/173 172/172/172 
f 176/176/176 173/173/173 175/175/175 
f 177/177/177 178/178/178 179/179/179 
f 177/177/177 180/180/180 178/178/178 
f 177/177/177 181/181/181 180/180/180 
f 182/182/182 183/183/183 184/184/184 
f 185/185/185 183/183/183 182/182/182 
f 186/186/186 183/183/183 185/185/185 
f 187/187/187 188/188/188 189/189/189 
f 187/187/187 190/190/190 188/188/188 
f 187/187/187 191/191/191 190/190/190 
f 192/192/192 193/193/193 194/194/194 
f 194/194/194 193/193/193 195/195/195 
f 196/196/196 197/197/197 198/198/198 
f 198/198/198 197/197/197 199/199/199 
f 198/198/198 199/199/199 200/200/200 
f 200/200/200 199/199/199 201/201/201 
f 202/202/202 203/203/203 204/204/204 
f 202/202/202 204/204/204 205/205/205 
f 205/205/205 204/204/204 206/206/206 
f 207/207/207 202/202/202 205/205/205 
f 204/204/204 208/208/208 206/206/206 
f 209/209/209 202/202/202 207/207/207 
f 209/209/209 203/203/203 202/202/202 
f 210/210/210 209/209/209 207/207/207 
f 209/209/209 210/210/210 211/211/211 
f 211/211/211 212/212/212 209/209/209 
f 203/203/203 209/209/209 212/212/212 
f 212/212/212 211/211/211 213/213/213 
f 214/214/214 212/212/212 213/213/213 
f 215/215/215 203/203/203 212/212/212 
f 212/212/212 214/214/214 215/215/215 
f 204/204/204 203/203/203 216/216/216 
f 216/216/216 208/208/208 204/204/204 
f 203/203/203 215/215/215 217/217/217 
f 217/217/217 216/216/216 203/203/203 
f 218/218/218 208/208/208 216/216/216 
f 216/216/216 217/217/217 218/218/218 
f 219/219/219 208/208/208 218/218/218 
f 219/219/219 218/218/218 217/217/217 
f 220/220/220 217/217/217 215/215/215 
f 219/219/219 217/217/217 220/220/220 
f 214/214/214 221/221/221 215/215/215 
f 221/221/221 220/220/220 215/215/215 
f 221/221/221 214/214/214 222/222/222 
f 223/223/223 221/221/221 222/222/222 
f 224/224/224 208/208/208 219/219/219 
f 224/224/224 219/219/219 220/220/220 
f 208/208/208 224/224/224 225/225/225 
f 224/224/224 226/226/226 225/225/225 
f 226/226/226 224/224/224 227/227/227 
f 220/220/220 227/227/227 224/224/224 
f 227/227/227 228/228/228 226/226/226 
f 228/228/228 223/223/223 229/229/229 
f 220/220/220 230/230/230 227/227/227 
f 228/228/228 227/227/227 230/230/230 
f 223/223/223 228/228/228 230/230/230 
f 230/230/230 220/220/220 221/221/221 
f 221/221/221 223/223/223 230/230/230 
f 231/231/231 232/232/232 233/233/233 
f 233/233/233 234/234/234 231/231/231 
f 232/232/232 231/231/231 235/235/235 
f 235/235/235 236/236/236 232/232/232 
f 237/237/237 238/238/238 239/239/239 
f 238/238/238 237/237/237 240/240/240 
f 240/240/240 241/241/241 238/238/238 
f 241/241/241 240/240/240 242/242/242 
f 243/243/243 244/244/244 245/245/245 
f 243/243/243 245/245/245 246/246/246 
f 246/246/246 245/245/245 247/247/247 
f 246/246/246 247/247/247 248/248/248 
f 249/249/249 250/250/250 251/251/251 
f 251/251/251 252/252/252 249/249/249 
f 250/250/250 249/249/249 253/253/253 
f 253/253/253 254/254/254 250/250/250 
f 255/255/255 256/256/256 257/257/257 
f 258/258/258 257/257/257 256/256/256 
f 259/259/259 260/260/260 261/261/261 
f 259/259/259 261/261/261 262/262/262 
f 262/262/262 263/263/263 259/259/259 
f 263/263/263 262/262/262 264/264/264 
f 265/265/265 259/259/259 263/263/263 
f 262/262/262 266/266/266 264/264/264 
f 262/262/262 261/261/261 266/266/266 
f 265/265/265 267/267/267 259/259/259 
f 267/267/267 260/260/260 259/259/259 
f 268/268/268 267/267/267 265/265/265 
f 268/268/268 269/269/269 267/267/267 
f 270/270/270 267/267/267 269/269/269 
f 267/267/267 270/270/270 271/271/271 
f 267/267/267 271/271/271 260/260/260 
f 272/272/272 271/271/271 270/270/270 
f 260/260/260 273/273/273 261/261/261 
f 261/261/261 273/273/273 266/266/266 
f 274/274/274 260/260/260 271/271/271 
f 271/271/271 272/272/272 274/274/274 
f 260/260/260 275/275/275 273/273/273 
f 260/260/260 274/274/274 275/275/275 
f 276/276/276 274/274/274 272/272/272 
f 276/276/276 275/275/275 274/274/274 
f 272/272/272 277/277/277 276/276/276 
f 278/278/278 273/273/273 275/275/275 
f 273/273/273 278/278/278 266/266/266 
f 275/275/275 276/276/276 279/279/279 
f 278/278/278 275/275/275 279/279/279 
f 280/280/280 276/276/276 277/277/277 
f 280/280/280 279/279/279 276/276/276 
f 277/277/277 281/281/281 280/280/280 
f 282/282/282 280/280/280 281/281/281 
f 280/280/280 282/282/282 283/283/283 
f 279/279/279 280/280/280 284/284/284 
f 283/283/283 284/284/284 280/280/280 
f 284/284/284 278/278/278 279/279/279 
f 285/285/285 284/284/284 283/283/283 
f 278/278/278 284/284/284 286/286/286 
f 285/285/285 286/286/286 284/284/284 
f 278/278/278 286/286/286 266/266/266 
f 287/287/287 286/286/286 285/285/285 
f 266/266/266 286/286/286 287/287/287 
f 288/288/288 289/289/289 290/290/290 
f 288/288/288 290/290/290 291/291/291 
f 289/289/289 292/292/292 290/290/290 
f 289/289/289 293/293/293 292/292/292 
f 292/292/292 294/294/294 290/290/290 
f 290/290/290 294/294/294 295/295/295 
f 290/290/290 295/295/295 291/291/291 
f 291/291/291 295/295/295 296/296/296 
f 297/297/297 298/298/298 299/299/299 
f 298/298/298 297/297/297 300/300/300 
f 300/300/300 297/297/297 301/301/301 
f 302/302/302 300/300/300 301/301/301 
f 297/297/297 303/303/303 301/301/301 
f 300/300/300 302/302/302 304/304/304 
f 300/300/300 304/304/304 298/298/298 
f 305/305/305 303/303/303 297/297/297 
f 299/299/299 305/305/305 297/297/297 
f 305/305/305 306/306/306 303/303/303 
f 306/306/306 305/305/305 307/307/307 
f 305/305/305 308/308/308 307/307/307 
f 308/308/308 305/305/305 309/309/309 
f 305/305/305 299/299/299 309/309/309 
f 309/309/309 310/310/310 308/308/308 
f 299/299/299 311/311/311 309/309/309 
f 310/310/310 309/309/309 311/311/311 
f 312/312/312 299/299/299 298/298/298 
f 298/298/298 304/304/304 312/312/312 
f 311/311/311 299/299/299 313/313/313 
f 313/313/313 299/299/299 312/312/312 
f 314/314/314 310/310/310 311/311/311 
f 313/313/313 314/314/314 311/311/311 
f 315/315/315 310/310/310 314/314/314 
f 316/316/316 313/313/313 312/312/312 
f 312/312/312 304/304/304 316/316/316 
f 314/314/314 313/313/313 317/317/317 
f 317/317/317 313/313/313 316/316/316 
f 318/318/318 315/315/315 314/314/314 
f 317/317/317 318/318/318 314/314/314 
f 319/319/319 315/315/315 318/318/318 
f 320/320/320 319/319/319 318/318/318 
f 318/318/318 321/321/321 320/320/320 
f 318/318/318 317/317/317 322/322/322 
f 321/321/321 318/318/318 322/322/322 
f 316/316/316 322/322/322 317/317/317 
f 322/322/322 323/323/323 321/321/321 
f 322/322/322 316/316/316 324/324/324 
f 324/324/324 323/323/323 322/322/322 
f 316/316/316 304/304/304 324/324/324 
f 324/324/324 325/325/325 323/323/323 
f 304/304/304 325/325/325 324/324/324 
f 326/326/326 327/327/327 328/328/328 
f 327/327/327 326/326/326 329/329/329 
f 329/329/329 330/330/330 327/327/327 
f 330/330/330 329/329/329 331/331/331 
f 332/332/332 333/333/333 334/334/334 
f 334/334/334 335/335/335 332/332/332 
f 336/336/336 333/333/333 332/332/332 
f 336/336/336 337/337/337 333/333/333 
f 338/338/338 339/339/339 340/340/340 
f 339/339/339 338/338/338 341/341/341 
f 340/340/340 342/342/342 338/338/338 
f 342/342/342 340/340/340 343/343/343 
f 343/343/343 344/344/344 342/342/342 
f 344/344/344 343/343/343 345/345/345 
f 346/346/346 347/347/347 348/348/348 
f 347/347/347 346/346/346 349/349/349 
f 348/348/348 350/350/350 346/346/346 
f 351/351/351 346/346/346 350/350/350 
f 352/352/352 353/353/353 354/354/354 
f 355/355/355 354/354/354 353/353/353 
f 356/356/356 357/357/357 358/358/358 
f 357/357/357 359/359/359 358/358/358 
f 359/359/359 357/357/357 360/360/360 
f 358/358/358 359/359/359 361/361/361 
f 357/357/357 356/356/356 362/362/362 
f 358/358/358 361/361/361 363/363/363 
f 363/363/363 356/356/356 358/358/358 
f 364/364/364 363/363/363 361/361/361 
f 363/363/363 364/364/364 365/365/365 
f 366/366/366 363/363/363 365/365/365 
f 363/363/363 366/366/366 367/367/367 
f 363/363/363 367/367/367 356/356/356 
f 368/368/368 367/367/367 366/366/366 
f 369/369/369 362/362/362 356/356/356 
f 362/362/362 369/369/369 370/370/370 
f 371/371/371 356/356/356 367/367/367 
f 367/367/367 368/368/368 371/371/371 
f 356/356/356 371/371/371 369/369/369 
f 372/372/372 370/370/370 369/369/369 
f 373/373/373 371/371/371 368/368/368 
f 373/373/373 369/369/369 371/371/371 
f 368/368/368 374/374/374 373/373/373 
f 372/372/372 369/369/369 375/375/375 
f 369/369/369 373/373/373 375/375/375 
f 374/374/374 376/376/376 373/373/373 
f 376/376/376 375/375/375 373/373/373 
f 376/376/376 374/374/374 377/377/377 
f 377/377/377 378/378/378 376/376/376 
f 378/378/378 379/379/379 376/376/376 
f 375/375/375 376/376/376 380/380/380 
f 380/380/380 372/372/372 375/375/375 
f 376/376/376 379/379/379 380/380/380 
f 372/372/372 380/380/380 381/381/381 
f 379/379/379 382/382/382 380/380/380 
f 382/382/382 381/381/381 380/380/380 
f 383/383/383 381/381/381 382/382/382 
f 384/384/384 381/381/381 383/383/383 
f 385/385/385 386/386/386 387/387/387 
f 386/386/386 385/385/385 388/388/388 
f 386/386/386 389/389/389 387/387/387 
f 389/389/389 386/386/386 390/390/390 
f 391/391/391 392/392/392 393/393/393 
f 392/392/392 391/391/391 394/394/394 
f 393/393/393 392/392/392 395/395/395 
f 396/396/396 393/393/393 395/395/395 
f 395/395/395 397/397/397 396/396/396 
f 392/392/392 398/398/398 395/395/395 
f 397/397/397 395/395/395 398/398/398 
f 394/394/394 399/399/399 392/392/392 
f 392/392/392 399/399/399 398/398/398 
f 394/394/394 400/400/400 399/399/399 
f 400/400/400 401/401/401 399/399/399 
f 401/401/401 402/402/402 399/399/399 
f 399/399/399 402/402/402 398/398/398 
f 403/403/403 402/402/402 401/401/401 
f 403/403/403 404/404/404 402/402/402 
f 402/402/402 405/405/405 398/398/398 
f 404/404/404 405/405/405 402/402/402 
f 405/405/405 397/397/397 398/398/398 
f 404/404/404 406/406/406 405/405/405 
f 397/397/397 405/405/405 406/406/406 
f 407/407/407 408/408/408 409/409/409 
f 408/408/408 407/407/407 410/410/410 
f 411/411/411 412/412/412 413/413/413 
f 412/412/412 411/411/411 414/414/414 
f 413/413/413 412/412/412 415/415/415 
f 416/416/416 413/413/413 415/415/415 
f 415/415/415 417/417/417 416/416/416 
f 412/412/412 418/418/418 415/415/415 
f 417/417/417 415/415/415 418/418/418 
f 414/414/414 419/419/419 412/412/412 
f 412/412/412 419/419/419 418/418/418 
f 419/419/419 414/414/414 420/420/420 
f 421/421/421 419/419/419 420/420/420 
f 421/421/421 422/422/422 419/419/419 
f 419/419/419 422/422/422 418/418/418 
f 423/423/423 422/422/422 421/421/421 
f 423/423/423 424/424/424 422/422/422 
f 422/422/422 425/425/425 418/418/418 
f 424/424/424 425/425/425 422/422/422 
f 425/425/425 417/417/417 418/418/418 
f 424/424/424 426/426/426 425/425/425 
f 417/417/417 425/425/425 426/426/426 
f 427/427/427 428/428/428 429/429/429 
f 427/427/427 429/429/429 430/430/430 
f 430/430/430 429/429/429 431/431/431 
f 430/430/430 431/431/431 432/432/432 
f 433/433/433 434/434/434 435/435/435 
f 434/434/434 433/433/433 436/436/436 
f 435/435/435 437/437/437 433/433/433 
f 437/437/437 435/435/435 438/438/438 
f 439/439/439 440/440/440 441/441/441 
f 440/440/440 439/439/439 442/442/442 
f 441/441/441 443/443/443 439/439/439 
f 443/443/443 441/441/441 444/444/444 
f 445/445/445 446/446/446 447/447/447 
f 448/448/448 446/446/446 449/449/449 
f 446/446/446 450/450/450 449/449/449 
f 446/446/446 445/445/445 450/450/450 
f 449/449/449 450/450/450 451/451/451 
f 452/452/452 451/451/451 450/450/450 
f 445/445/445 452/452/452 450/450/450 
f 451/451/451 452/452/452 453/453/453 
f 454/454/454 453/453/453 452/452/452 
f 452/452/452 455/455/455 454/454/454 
f 455/455/455 452/452/452 456/456/456 
f 452/452/452 445/445/445 456/456/456 
f 456/456/456 457/457/457 455/455/455 
f 445/445/445 458/458/458 456/456/456 
f 457/457/457 456/456/456 458/458/458 
f 447/447/447 459/459/459 445/445/445 
f 458/458/458 445/445/445 459/459/459 
f 459/459/459 447/447/447 460/460/460 
f 461/461/461 459/459/459 460/460/460 
f 462/462/462 457/457/457 458/458/458 
f 459/459/459 462/462/462 458/458/458 
f 463/463/463 457/457/457 462/462/462 
f 464/464/464 459/459/459 461/461/461 
f 462/462/462 459/459/459 464/464/464 
f 462/462/462 465/465/465 463/463/463 
f 464/464/464 465/465/465 462/462/462 
f 465/465/465 466/466/466 463/463/463 
f 465/465/465 467/467/467 466/466/466 
f 467/467/467 465/465/465 468/468/468 
f 465/465/465 464/464/464 469/469/469 
f 461/461/461 469/469/469 464/464/464 
f 465/465/465 469/469/469 468/468/468 
f 469/469/469 461/461/461 470/470/470 
f 468/468/468 469/469/469 471/471/471 
f 470/470/470 471/471/471 469/469/469 
f 470/470/470 472/472/472 471/471/471 
f 473/473/473 472/472/472 470/470/470 
f 474/474/474 475/475/475 476/476/476 
f 476/476/476 477/477/477 474/474/474 
f 478/478/478 479/479/479 480/480/480 
f 479/479/479 478/478/478 481/481/481 
f 482/482/482 483/483/483 484/484/484 
f 483/483/483 482/482/482 485/485/485 
f 486/486/486 485/485/485 482/482/482 
f 485/485/485 486/486/486 487/487/487 
f 488/488/488 489/489/489 490/490/490 
f 490/490/490 491/491/491 488/488/488 
f 492/492/492 489/489/489 488/488/488 
f 492/492/492 493/493/493 489/489/489 
f 494/494/494 495/495/495 496/496/496 
f 495/495/495 494/494/494 497/497/497 
f 496/496/496 498/498/498 494/494/494 
f 498/498/498 496/496/496 499/499/499 
f 500/500/500 501/501/501 502/502/502 
f 501/501/501 500/500/500 503/503/503 
f 504/504/504 503/503/503 500/500/500 
f 503/503/503 504/504/504 505/505/505 
f 506/506/506 507/507/507 508/508/508 
f 507/507/507 506/506/506 509/509/509 
f 508/508/508 510/510/510 506/506/506 
f 510/510/510 508/508/508 511/511/511 
f 512/512/512 513/513/513 514/514/514 
f 513/513/513 512/512/512 515/515/515 
f 516/516/516 517/517/517 518/518/518 
f 517/517/517 516/516/516 519/519/519 
f 520/520/520 519/519/519 516/516/516 
f 519/519/519 520/520/520 521/521/521 
f 522/522/522 523/523/523 524/524/524 
f 523/523/523 525/525/525 524/524/524 
f 525/525/525 526/526/526 524/524/524 
f 527/527/527 526/526/526 528/528/528 
f 528/528/528 526/526/526 529/529/529 
f 529/529/529 526/526/526 525/525/525 
f 530/530/530 529/529/529 525/525/525 
f 531/531/531 530/530/530 525/525/525 
f 532/532/532 533/533/533 534/534/534 
f 535/535/535 536/536/536 537/537/537 
f 538/538/538 539/539/539 540/540/540 
f 541/541/541 542/542/542 543/543/543 
f 544/544/544 545/545/545 546/546/546 
f 547/547/547 548/548/548 549/549/549 
f 550/550/550 551/551/551 552/552/552 
f 553/553/553 554/554/554 555/555/555 
f 556/556/556 557/557/557 558/558/558 
f 559/559/559 560/560/560 561/561/561 
f 562/562/562 563/563/563 564/564/564 
f 565/565/565 566/566/566 567/567/567 
f 568/568/568 569/569/569 570/570/570 
f 571/571/571 572/572/572 573/573/573 
f 574/574/574 575/575/575 576/576/576 

